<svg width="24" height="24" viewBox="0 0 24 24" fill="none" xmlns="http://www.w3.org/2000/svg">
<g clip-path="url(#clip0_4615_16931)">
<path d="M21.18 18.2848C20.8397 19.0709 20.4369 19.7945 19.9703 20.4598C19.3342 21.3667 18.8134 21.9944 18.412 22.343C17.7898 22.9152 17.1232 23.2083 16.4093 23.225C15.8968 23.225 15.2788 23.0791 14.5593 22.7833C13.8376 22.4889 13.1742 22.343 12.5677 22.343C11.9316 22.343 11.2494 22.4889 10.5197 22.7833C9.78894 23.0791 9.20021 23.2333 8.75008 23.2486C8.06552 23.2777 7.38318 22.9764 6.70209 22.343C6.26738 21.9639 5.72365 21.3139 5.07228 20.3931C4.37342 19.4098 3.79885 18.2696 3.34873 16.9696C2.86666 15.5655 2.625 14.2058 2.625 12.8894C2.625 11.3816 2.95082 10.081 3.60344 8.99122C4.11634 8.11583 4.79868 7.42529 5.65268 6.91836C6.50668 6.41143 7.42943 6.15311 8.42315 6.13658C8.96688 6.13658 9.67992 6.30477 10.566 6.63532C11.4496 6.96697 12.0169 7.13516 12.2657 7.13516C12.4516 7.13516 13.0819 6.9385 14.1503 6.54643C15.1607 6.18283 16.0135 6.03228 16.7121 6.09158C18.605 6.24436 20.0272 6.99058 20.973 8.33499C19.28 9.36079 18.4426 10.7976 18.4592 12.6407C18.4745 14.0763 18.9953 15.271 20.0189 16.2196C20.4828 16.6599 21.0008 17.0001 21.5772 17.2418C21.4522 17.6043 21.3202 17.9515 21.18 18.2848ZM16.8384 1.20062C16.8384 2.32587 16.4273 3.37652 15.6079 4.34899C14.6191 5.50507 13.423 6.17311 12.1259 6.06769C12.1094 5.9327 12.0998 5.79062 12.0998 5.64132C12.0998 4.56107 12.5701 3.40499 13.4052 2.45975C13.8221 1.98115 14.3524 1.5832 14.9954 1.26575C15.6371 0.95304 16.244 0.780103 16.8148 0.750488C16.8315 0.900918 16.8384 1.05136 16.8384 1.2006V1.20062Z" fill="white"/>
</g>
<defs>
<clipPath id="clip0_4615_16931">
<rect width="22.5" height="22.5" fill="white" transform="translate(0.75 0.75)"/>
</clipPath>
</defs>
</svg>
