<svg width="12" height="14" viewBox="0 0 12 14" fill="none" xmlns="http://www.w3.org/2000/svg">
<path fill-rule="evenodd" clip-rule="evenodd" d="M11.356 2.18222L11.3569 2.18355C11.3567 2.18386 11.3534 2.18178 11.3463 2.17731C11.3253 2.16414 11.2713 2.13026 11.1662 2.07624C11.0155 1.99874 10.8122 1.90578 10.566 1.80195C10.0753 1.59498 9.44915 1.35939 8.80712 1.13661C8.16552 0.913974 7.51837 0.70769 6.98692 0.5581C6.72071 0.483167 6.49012 0.424329 6.30727 0.384835C6.21589 0.365097 6.1416 0.351319 6.08403 0.342732C6.02757 0.334308 6.00191 0.333145 5.99888 0.333008H5.99885H5.99882C5.99553 0.33316 5.96932 0.334361 5.91321 0.342731C5.85565 0.351319 5.78135 0.365097 5.68997 0.384835C5.50712 0.424328 5.27654 0.483167 5.01033 0.558099C4.4789 0.707688 3.83178 0.913971 3.19023 1.1366C2.54826 1.35939 1.92219 1.59496 1.4316 1.80193C1.1855 1.90576 0.982293 1.9987 0.831655 2.07618C0.726908 2.13006 0.673054 2.16387 0.652073 2.17704L0.652071 2.17704C0.644941 2.18151 0.641608 2.18361 0.641365 2.18329C0.641365 2.18329 0.641799 2.18249 0.642934 2.18132C0.603776 2.22037 0.601825 2.22786 0.594412 2.25634L0.59307 2.26147C0.570333 2.34779 0.550306 2.51749 0.547312 2.91142C0.544995 3.21619 0.552187 3.60948 0.561934 4.14255L0.561934 4.14256L0.569744 4.57677C0.582922 5.33207 0.596872 6.30567 0.596872 7.57065C0.596872 9.75268 1.91545 11.2766 3.35477 12.2968C4.06915 12.8032 4.78836 13.1658 5.33131 13.402C5.60174 13.5196 5.82574 13.6047 5.97993 13.6597L5.99862 13.6663L6.01731 13.6597C6.1715 13.6047 6.3955 13.5196 6.66593 13.402C7.20888 13.1658 7.92809 12.8032 8.64247 12.2968C10.0818 11.2766 11.4004 9.75268 11.4004 7.57065C11.4004 6.30567 11.4143 5.33207 11.4275 4.57676L11.4354 4.13982C11.4451 3.60812 11.4523 3.21563 11.45 2.91132C11.4471 2.51736 11.4271 2.34753 11.4044 2.26107L11.4031 2.256C11.3957 2.22766 11.3937 2.22005 11.356 2.18222ZM5.21656 8.33749C5.30955 8.43047 5.4355 8.48257 5.56673 8.48257C5.69797 8.48257 5.82392 8.43047 5.91625 8.33749L8.4868 5.76627C8.68002 5.57305 8.68002 5.25981 8.4868 5.06659C8.29358 4.87337 7.981 4.87337 7.78778 5.06659L5.56673 7.28763L4.66922 6.3888C4.476 6.19558 4.16209 6.19558 3.96953 6.3888C3.77631 6.58136 3.77631 6.89526 3.96887 7.08848L5.21656 8.33749Z" fill="#127BF2"/>
</svg>
