<svg width="79" height="20" viewBox="0 0 79 20" fill="none" xmlns="http://www.w3.org/2000/svg">
<path d="M30.64 8.095H25.495V5.59H30.475V4.345H23.95V9.34H30.64V8.095ZM31.57 10.57C28.645 10.915 25.36 10.915 22.705 10.915L22.915 12.205C24.01 12.205 25.21 12.205 26.44 12.16V16.75H28V12.085C29.2 12.01 30.445 11.89 31.66 11.71L31.57 10.57ZM32.425 3.61V17.17H33.97V3.61H32.425ZM43.8135 14.29V11.98H48.0435V10.735H39.9285V8.845H47.7435V4.555H38.3835V5.8H46.2135V7.615H38.4135V11.98H42.2685V14.29H36.9285V15.565H49.1985V14.29H43.8135ZM51.752 5.035V6.295H56.492C56.177 9.415 54.392 11.8 51.077 13.495L51.932 14.68C56.357 12.445 58.037 8.965 58.037 5.035H51.752ZM63.632 8.95H61.577V3.595H60.032V17.14H61.577V10.24H63.632V8.95ZM66.0205 5.035V6.295H70.8505C70.5805 9.415 68.9005 11.8 65.3455 13.51L66.1705 14.74C70.8205 12.49 72.4405 9.07 72.4405 5.035H66.0205ZM74.8855 3.61V17.155H76.4305V3.61H74.8855Z" fill="#949DAA"/>
<g clip-path="url(#clip0_5476_15242)">
<path d="M12.4649 3.24242C12.0974 2.87492 11.5049 2.87492 11.1374 3.24242L4.90492 9.47492C4.61242 9.76742 4.61242 10.2399 4.90492 10.5324L11.1374 16.7649C11.5049 17.1324 12.0974 17.1324 12.4649 16.7649C12.8324 16.3974 12.8324 15.8049 12.4649 15.4374L7.03492 9.99992L12.4724 4.56242C12.8324 4.20242 12.8324 3.60242 12.4649 3.24242Z" fill="#949DAA"/>
</g>
<defs>
<clipPath id="clip0_5476_15242">
<rect width="18" height="18" fill="white" transform="translate(0 1)"/>
</clipPath>
</defs>
</svg>
