<svg width="82" height="19" viewBox="0 0 82 19" fill="none" xmlns="http://www.w3.org/2000/svg">
<path d="M29.64 8.095H24.495V5.59H29.475V4.345H22.95V9.34H29.64V8.095ZM30.57 10.57C27.645 10.915 24.36 10.915 21.705 10.915L21.915 12.205C23.01 12.205 24.21 12.205 25.44 12.16V16.75H27V12.085C28.2 12.01 29.445 11.89 30.66 11.71L30.57 10.57ZM31.425 3.61V17.17H32.97V3.61H31.425ZM42.8135 14.29V11.98H47.0435V10.735H38.9285V8.845H46.7435V4.555H37.3835V5.8H45.2135V7.615H37.4135V11.98H41.2685V14.29H35.9285V15.565H48.1985V14.29H42.8135ZM50.752 5.035V6.295H55.492C55.177 9.415 53.392 11.8 50.077 13.495L50.932 14.68C55.357 12.445 57.037 8.965 57.037 5.035H50.752ZM62.632 8.95H60.577V3.595H59.032V17.14H60.577V10.24H62.632V8.95ZM65.0205 5.035V6.295H69.8505C69.5805 9.415 67.9005 11.8 64.3455 13.51L65.1705 14.74C69.8205 12.49 71.4405 9.07 71.4405 5.035H65.0205ZM73.8855 3.61V17.155H75.4305V3.61H73.8855Z" fill="#127BF2"/>
<g clip-path="url(#clip0_5523_15729)">
<path d="M12.4654 3.24242C12.0979 2.87492 11.5054 2.87492 11.1379 3.24242L4.90541 9.47492C4.61291 9.76742 4.61291 10.2399 4.90541 10.5324L11.1379 16.7649C11.5054 17.1324 12.0979 17.1324 12.4654 16.7649C12.8329 16.3974 12.8329 15.8049 12.4654 15.4374L7.03541 9.99992L12.4729 4.56242C12.8329 4.20242 12.8329 3.60242 12.4654 3.24242Z" fill="#127BF2"/>
</g>
<defs>
<clipPath id="clip0_5523_15729">
<rect width="18" height="18" fill="white" transform="translate(0 1)"/>
</clipPath>
</defs>
</svg>
