<svg width="87" height="88" viewBox="0 0 87 88" fill="none" xmlns="http://www.w3.org/2000/svg">
<rect width="86.55" height="86.55" transform="translate(0.264648 0.654297)" fill="white"/>
<path d="M17.0461 65.4896L71.8418 49.7688C72.6924 49.525 73.4403 49.0137 73.9727 48.3117C74.5051 47.6097 74.7934 46.7552 74.794 45.8766V15.6311C74.7944 15.2103 74.6629 14.7998 74.4176 14.4565C74.1723 14.1133 73.8255 13.8542 73.4251 13.7154L70.7998 12.8133C70.2044 12.6286 69.5665 12.6286 68.9712 12.8133L16.0245 27.3887C14.9488 27.6856 14.0007 28.3241 13.3255 29.2065C12.6502 30.0888 12.285 31.1663 12.2856 32.2742V61.5366C12.286 62.0294 12.407 62.5149 12.6383 62.951C12.8697 63.3871 13.2044 63.7609 13.6137 64.0402L15.3401 65.2159C15.587 65.3824 15.8677 65.4932 16.1625 65.5405C16.4572 65.5878 16.7588 65.5704 17.0461 65.4896Z" fill="white"/>
<path d="M72.4931 50.1698L17.7815 65.5211C17.5775 65.5714 17.3652 65.5801 17.1576 65.5468C16.95 65.5135 16.7516 65.4389 16.5746 65.3274C16.3975 65.216 16.2456 65.0702 16.1282 64.8989C16.0107 64.7277 15.9303 64.5346 15.8917 64.3317L16.1588 32.4095C16.1785 32.051 16.3212 31.7095 16.5635 31.4406C16.8059 31.1716 17.1338 30.9909 17.4939 30.9278L72.904 15.1229C73.7564 14.9113 74.804 15.4959 74.7938 16.2418L74.5267 47.9523C74.4982 48.4947 74.2806 49.011 73.9103 49.4147C73.5401 49.8184 73.0398 50.085 72.4931 50.1698Z" fill="url(#paint0_linear_4437_13587)" fill-opacity="0.9"/>
<path opacity="0.68" d="M49.55 57.1519L48.5471 62.9023C48.5471 62.9706 49.7205 62.1421 48.5471 62.9023L32.7208 67.9706L34.2252 61.2552L49.55 57.1519Z" fill="url(#paint1_linear_4437_13587)"/>
<path d="M51.9542 22.2915L43.5396 24.6957" stroke="#182C3D" stroke-width="2.40417" stroke-miterlimit="10" stroke-linecap="round"/>
<path d="M33.6915 60.3835L31.6011 66.0231C31.4343 66.7144 31.5226 67.4417 31.8501 68.0746C32.1776 68.7076 32.723 69.2047 33.3884 69.477L43.5686 74.9826C43.9173 75.1783 44.3291 75.2337 44.7183 75.1372L60.2394 70.5698C60.4171 70.5183 60.4066 70.2915 60.2394 70.1884L50.1324 64.7241C48.5646 63.8993 47.812 62.3115 48.4182 61.1052L50.2473 55.9502" fill="white"/>
<path opacity="0.4" d="M33.6915 60.3835L31.6011 66.0231C31.4343 66.7144 31.5226 67.4417 31.8501 68.0746C32.1776 68.7076 32.723 69.2047 33.3884 69.477L43.5686 74.9826C43.9173 75.1783 44.3291 75.2337 44.7183 75.1372L60.2394 70.5698C60.4171 70.5183 60.4066 70.2915 60.2394 70.1884L50.1324 64.7241C48.5646 63.8993 47.812 62.3115 48.4182 61.1052L50.2473 55.9502" fill="url(#paint2_linear_4437_13587)" fill-opacity="0.9"/>
<path d="M33.6915 60.3835L31.6011 66.0231C31.4343 66.7144 31.5226 67.4417 31.8501 68.0746C32.1776 68.7076 32.723 69.2047 33.3884 69.477L43.5686 74.9826C43.9173 75.1783 44.3291 75.2337 44.7183 75.1372L60.2394 70.5698C60.4171 70.5183 60.4066 70.2915 60.2394 70.1884L50.1324 64.7241C48.5646 63.8993 47.812 62.3115 48.4182 61.1052L50.2473 55.9502" stroke="#182C3D" stroke-width="2.40417" stroke-miterlimit="10"/>
<path d="M41.1356 65.5668L48.3481 63.1626" stroke="#182C3D" stroke-width="2.40417" stroke-miterlimit="10" stroke-linecap="round"/>
<path d="M52.4159 49.375C52.5701 48.4784 52.1388 47.6559 51.4526 47.5379C50.7664 47.4199 50.085 48.051 49.9308 48.9475C49.7766 49.844 50.2079 50.6665 50.8941 50.7845C51.5804 50.9026 52.2617 50.2715 52.4159 49.375Z" fill="#333333"/>
<path d="M48.3952 50.4077C48.5494 49.5111 48.1181 48.6887 47.4319 48.5706C46.7457 48.4526 46.0644 49.0837 45.9101 49.9802C45.7559 50.8767 46.1872 51.6992 46.8734 51.8172C47.5597 51.9353 48.241 51.3042 48.3952 50.4077Z" fill="#333333"/>
<path d="M44.3732 51.4501C44.5274 50.5536 44.0961 49.7311 43.4099 49.6131C42.7236 49.4951 42.0423 50.1262 41.8881 51.0227C41.7339 51.9192 42.1652 52.7417 42.8514 52.8597C43.5376 52.9778 44.2189 52.3467 44.3732 51.4501Z" fill="#333333"/>
<path d="M17.0461 65.4896L71.8418 49.7688C72.6924 49.525 73.4403 49.0137 73.9727 48.3117C74.5051 47.6097 74.7934 46.7552 74.794 45.8766V15.6311C74.7944 15.2103 74.6629 14.7998 74.4176 14.4565C74.1723 14.1133 73.8255 13.8542 73.4251 13.7154L70.7998 12.8133C70.2044 12.6286 69.5665 12.6286 68.9712 12.8133L16.0245 27.3887C14.9488 27.6856 14.0007 28.3241 13.3255 29.2065C12.6502 30.0888 12.285 31.1663 12.2856 32.2742V61.5366C12.286 62.0294 12.407 62.5148 12.6383 62.951C12.8697 63.3871 13.2044 63.7609 13.6137 64.0402L15.3401 65.2159C15.587 65.3824 15.8677 65.4932 16.1625 65.5405C16.4572 65.5878 16.7588 65.5704 17.0461 65.4896V65.4896Z" stroke="#182C3D" stroke-width="2.40417" stroke-miterlimit="10"/>
<path d="M33.923 25.8979L18.1887 30.2657C17.5286 30.4502 16.9465 30.8483 16.5317 31.399C16.1168 31.9497 15.892 32.6225 15.8917 33.3146V46.3334" stroke="#182C3D" stroke-width="2.40417" stroke-miterlimit="10" stroke-linecap="round"/>
<path d="M76.4577 34.608L51.4035 41.4942C51.1961 41.5362 50.9825 41.535 50.7756 41.4907C50.5686 41.4463 50.3727 41.3598 50.1995 41.2362C50.0263 41.1126 49.8795 40.9545 49.7679 40.7715C49.6563 40.5885 49.5822 40.3844 49.5502 40.1715V30.8216C49.5532 30.5376 49.6542 30.2637 49.8353 30.0478C50.0165 29.8319 50.2663 29.6876 50.5412 29.6403L77.3001 22.3099C77.4219 22.2851 77.5474 22.2854 77.6691 22.3107C77.7908 22.3361 77.9063 22.386 78.0088 22.4575C78.1113 22.529 78.1987 22.6207 78.2659 22.7271C78.3331 22.8335 78.3788 22.9526 78.4002 23.0773V32.4371C78.3851 32.976 78.1807 33.4914 77.8243 33.8898C77.4678 34.2881 76.9829 34.543 76.4577 34.608Z" fill="white"/>
<path opacity="0.4" d="M76.4577 34.608L51.4035 41.4942C51.1961 41.5362 50.9825 41.535 50.7756 41.4907C50.5686 41.4463 50.3727 41.3598 50.1995 41.2362C50.0263 41.1126 49.8795 40.9545 49.7679 40.7715C49.6563 40.5885 49.5822 40.3844 49.5502 40.1715V30.8216C49.5532 30.5376 49.6542 30.2637 49.8353 30.0478C50.0165 29.8319 50.2663 29.6876 50.5412 29.6403L77.3001 22.3099C77.4219 22.2851 77.5474 22.2854 77.6691 22.3107C77.7908 22.3361 77.9063 22.386 78.0088 22.4575C78.1113 22.529 78.1987 22.6207 78.2659 22.7271C78.3331 22.8335 78.3788 22.9526 78.4002 23.0773V32.4371C78.3851 32.976 78.1807 33.4914 77.8243 33.8898C77.4678 34.2881 76.9829 34.543 76.4577 34.608Z" fill="url(#paint3_linear_4437_13587)" fill-opacity="0.9"/>
<path d="M76.4577 34.608L51.4035 41.4942C51.1961 41.5362 50.9825 41.535 50.7756 41.4907C50.5686 41.4463 50.3727 41.3598 50.1995 41.2362C50.0263 41.1126 49.8795 40.9545 49.7679 40.7715C49.6563 40.5885 49.5822 40.3844 49.5502 40.1715V30.8216C49.5532 30.5376 49.6542 30.2637 49.8353 30.0478C50.0165 29.8319 50.2663 29.6876 50.5412 29.6403L77.3001 22.3099C77.4219 22.2851 77.5474 22.2854 77.6691 22.3107C77.7908 22.3361 77.9063 22.386 78.0088 22.4575C78.1113 22.529 78.1987 22.6207 78.2659 22.7271C78.3331 22.8335 78.3788 22.9526 78.4002 23.0773V32.4371C78.3851 32.976 78.1807 33.4914 77.8243 33.8898C77.4678 34.2881 76.9829 34.543 76.4577 34.608Z" stroke="#182C3D" stroke-width="2.40417" stroke-miterlimit="10" stroke-linecap="round"/>
<defs>
<linearGradient id="paint0_linear_4437_13587" x1="21.5399" y1="62.0847" x2="89.9791" y2="27.6022" gradientUnits="userSpaceOnUse">
<stop stop-color="#798CCD" stop-opacity="0.9"/>
<stop offset="1" stop-color="#CDE7DE"/>
</linearGradient>
<linearGradient id="paint1_linear_4437_13587" x1="41.1254" y1="73.3313" x2="41.1254" y2="56.9082" gradientUnits="userSpaceOnUse">
<stop stop-color="white" stop-opacity="0.2"/>
<stop offset="1" stop-color="#FBB03B" stop-opacity="0.68"/>
</linearGradient>
<linearGradient id="paint2_linear_4437_13587" x1="34.2852" y1="73.8571" x2="63.8919" y2="54.678" gradientUnits="userSpaceOnUse">
<stop stop-color="#6F7EB6" stop-opacity="0.9"/>
<stop offset="1" stop-color="#CDE7DE"/>
</linearGradient>
<linearGradient id="paint3_linear_4437_13587" x1="52.3166" y1="40.1984" x2="81.9233" y2="21.0193" gradientUnits="userSpaceOnUse">
<stop stop-color="#6F7EB6" stop-opacity="0.9"/>
<stop offset="1" stop-color="#CDE7DE"/>
</linearGradient>
</defs>
</svg>
