<svg width="88" height="88" viewBox="0 0 88 88" fill="none" xmlns="http://www.w3.org/2000/svg">
<rect width="86.55" height="86.55" transform="translate(0.66864 0.616699)" fill="white"/>
<path opacity="0.55" d="M13.7408 39.4016L17.4583 63.2508C17.5679 63.9453 17.8684 64.5957 18.3261 65.1294C18.7839 65.6631 19.3809 66.0592 20.0506 66.2734L32.1848 70.1232C33.0377 70.3966 33.9485 70.4348 34.8212 70.2335L60.8877 64.3429C61.6149 64.1748 62.2767 63.7965 62.7906 63.2551C63.3044 62.7138 63.6478 62.0333 63.7779 61.2983L67.9697 36.7651L42.9181 32.8491L14.7888 37.9676C14.4611 38.0219 14.1679 38.2025 13.9719 38.4706C13.776 38.7387 13.693 39.073 13.7408 39.4016Z" fill="url(#paint0_linear_4437_13562)"/>
<path d="M24.8711 40.0304L36.3765 42.369C37.5543 42.6557 38.7838 42.6557 39.9616 42.369L67.9696 36.7652L42.918 32.8491L14.7886 37.9676L24.8711 40.0304Z" fill="white"/>
<path d="M40.7995 63.0734C41.1092 62.3844 40.6305 61.4978 39.7302 61.0932C38.83 60.6886 37.8492 60.9192 37.5395 61.6083C37.2298 62.2974 37.7086 63.184 38.6088 63.5885C39.509 63.9931 40.4898 63.7625 40.7995 63.0734Z" fill="#333333"/>
<path d="M40.7978 58.57C41.1075 57.8809 40.6288 56.9943 39.7285 56.5898C38.8283 56.1852 37.8475 56.4158 37.5378 57.1049C37.2282 57.7939 37.7069 58.6805 38.6071 59.0851C39.5073 59.4897 40.4881 59.259 40.7978 58.57Z" fill="#333333"/>
<path d="M40.7971 54.0627C41.1068 53.3736 40.6281 52.487 39.7279 52.0824C38.8276 51.6779 37.8468 51.9085 37.5372 52.5976C37.2275 53.2866 37.7062 54.1732 38.6064 54.5778C39.5066 54.9823 40.4875 54.7517 40.7971 54.0627Z" fill="#333333"/>
<path d="M13.7407 38.5857L17.4582 62.4791C17.5679 63.1736 17.8683 63.824 18.3261 64.3577C18.7838 64.8914 19.3808 65.2874 20.0505 65.5016L32.1847 69.3514C33.0376 69.6248 33.9484 69.663 34.8212 69.4618L60.8656 63.5822C61.5943 63.4133 62.2571 63.0334 62.7711 62.4899C63.2852 61.9465 63.6276 61.2635 63.7557 60.5265L67.9475 36.0044L42.8959 32.0884L14.7666 37.1075C14.602 37.1368 14.4447 37.1983 14.3039 37.2885C14.1631 37.3787 14.0416 37.4958 13.9463 37.6332C13.8509 37.7706 13.7837 37.9255 13.7484 38.089C13.7131 38.2524 13.7105 38.4213 13.7407 38.5857V38.5857Z" stroke="#182C3D" stroke-width="2.40417" stroke-miterlimit="10"/>
<path d="M42.2341 77.0846C43.9034 77.0846 45.2567 75.7314 45.2567 74.0621C45.2567 72.3928 43.9034 71.0396 42.2341 71.0396C40.5648 71.0396 39.2116 72.3928 39.2116 74.0621C39.2116 75.7314 40.5648 77.0846 42.2341 77.0846Z" stroke="#182C3D" stroke-width="2.40417" stroke-miterlimit="10"/>
<path d="M20.0506 75.1315C21.7199 75.1315 23.0731 73.7782 23.0731 72.1089C23.0731 70.4397 21.7199 69.0864 20.0506 69.0864C18.3813 69.0864 17.0281 70.4397 17.0281 72.1089C17.0281 73.7782 18.3813 75.1315 20.0506 75.1315Z" stroke="#182C3D" stroke-width="2.40417" stroke-miterlimit="10"/>
<path d="M59.167 73.3117C60.8363 73.3117 62.1895 71.9584 62.1895 70.2891C62.1895 68.6198 60.8363 67.2666 59.167 67.2666C57.4977 67.2666 56.1445 68.6198 56.1445 70.2891C56.1445 71.9584 57.4977 73.3117 59.167 73.3117Z" stroke="#182C3D" stroke-width="2.40417" stroke-miterlimit="10"/>
<path d="M67.7823 36.1694L71.599 26.3958C71.8462 25.7689 72.2672 25.2255 72.8125 24.8294L79.0561 20.417" stroke="#182C3D" stroke-width="2.40417" stroke-miterlimit="10" stroke-linecap="round"/>
<path d="M46.0729 23.5942L71.2789 27.4662" stroke="#182C3D" stroke-width="2.40417" stroke-miterlimit="10"/>
<path d="M41.6613 10.2392C41.5832 10.2308 41.5044 10.2308 41.4263 10.2392C41.2522 10.2392 41.0868 10.2392 40.9127 10.2392C40.5646 10.2392 40.2164 10.2392 39.8682 10.2915V10.2392C39.704 10.2408 39.5416 10.2733 39.3894 10.3351C36.3388 10.7108 33.5302 12.1886 31.4913 14.4908C29.4525 16.7929 28.3237 19.761 28.317 22.8374C28.3179 25.921 29.4462 28.8976 31.4892 31.2056C33.5322 33.5136 36.3486 34.9935 39.4068 35.3659C39.5585 35.4305 39.7209 35.4659 39.8856 35.4705V35.4095C40.2338 35.4095 40.582 35.4705 40.9302 35.4705C41.1042 35.4705 41.2696 35.4705 41.4437 35.4705C41.5219 35.4787 41.6006 35.4787 41.6788 35.4705C44.8986 35.2876 47.9257 33.8755 50.1363 31.5251C52.3469 29.1748 53.5726 26.0653 53.5607 22.8374C53.5613 19.6133 52.3286 16.5113 50.1156 14.1684C47.9027 11.8256 44.8776 10.4196 41.6613 10.2392Z" fill="white"/>
<path opacity="0.55" d="M41.6052 9.53027H41.3625H40.8331C40.469 9.53027 40.116 9.53027 39.73 9.53027C39.5637 9.53561 39.3996 9.56922 39.2446 9.62958C36.0837 10.0148 33.173 11.5434 31.0616 13.9271C28.9502 16.3108 27.7841 19.3847 27.7833 22.569C27.7844 25.7521 28.9509 28.8246 31.0625 31.2065C33.1741 33.5884 36.0846 35.1147 39.2446 35.4975C39.398 35.563 39.5631 35.5968 39.73 35.5968V35.5416C40.094 35.5416 40.447 35.5968 40.8331 35.5968H41.3625H41.6052C44.922 35.4053 48.0401 33.9529 50.3207 31.5369C52.6012 29.121 53.8717 25.9244 53.8718 22.6021C53.8888 19.2672 52.6263 16.0529 50.3442 13.621C48.0622 11.1892 44.9344 9.72507 41.6052 9.53027Z" fill="url(#paint1_linear_4437_13562)"/>
<path d="M40.8443 34.4816C47.4666 34.4816 52.8351 29.1131 52.8351 22.4908C52.8351 15.8685 47.4666 10.5 40.8443 10.5C34.2219 10.5 28.8535 15.8685 28.8535 22.4908C28.8535 29.1131 34.2219 34.4816 40.8443 34.4816Z" stroke="#182C3D" stroke-width="2.40417" stroke-miterlimit="10"/>
<path d="M52.824 22.5024C52.824 23.9144 47.4629 25.0506 40.8332 25.0506C34.2035 25.0506 28.8535 23.9475 28.8535 22.5024" stroke="#182C3D" stroke-width="2.40417" stroke-miterlimit="10"/>
<path d="M39.8404 34.4823C37.7666 34.4823 36.0788 29.1212 36.0788 22.5025C36.0788 15.8839 37.7666 10.5117 39.8404 10.5117" stroke="#182C3D" stroke-width="2.40417" stroke-miterlimit="10"/>
<path d="M41.3187 34.4823C43.4035 34.4823 45.0803 29.1212 45.0803 22.5025C45.0803 15.8839 43.4035 10.5117 41.3187 10.5117" stroke="#182C3D" stroke-width="2.40417" stroke-miterlimit="10"/>
<path d="M25.7429 40.5933L33.4646 42.248C36.7789 42.9558 40.2032 42.9746 43.525 42.3032L55.1628 39.9756" stroke="#182C3D" stroke-width="2.40417" stroke-miterlimit="10" stroke-linecap="round"/>
<defs>
<linearGradient id="paint0_linear_4437_13562" x1="77.5375" y1="63.1176" x2="17.354" y2="35.099" gradientUnits="userSpaceOnUse">
<stop stop-color="#F16A42"/>
<stop offset="1" stop-color="#FFAA3B"/>
</linearGradient>
<linearGradient id="paint1_linear_4437_13562" x1="58.4738" y1="30.5636" x2="26.5666" y2="20.2821" gradientUnits="userSpaceOnUse">
<stop stop-color="#F16A42"/>
<stop offset="1" stop-color="#FFAA3B"/>
</linearGradient>
</defs>
</svg>
