<svg width="87" height="88" viewBox="0 0 87 88" fill="none" xmlns="http://www.w3.org/2000/svg">
<rect width="86.55" height="86.55" transform="translate(0.375244 0.616699)" fill="white"/>
<path opacity="0.3" d="M58.5531 29.4631L50.8314 31.0737C50.7385 31.0911 50.6431 31.0896 50.5508 31.0695C50.4585 31.0493 50.3712 31.0109 50.2941 30.9564C50.2169 30.9018 50.1515 30.8323 50.1017 30.7521C50.0519 30.6718 50.0187 30.5824 50.004 30.4891V22.5687C50.0057 22.4409 50.0535 22.3181 50.1387 22.2228C50.2238 22.1275 50.3406 22.0662 50.4673 22.0503L58.9172 20.2522C58.9709 20.241 59.0262 20.2408 59.08 20.2515C59.1337 20.2622 59.1848 20.2837 59.2301 20.3146C59.2754 20.3455 59.314 20.3852 59.3437 20.4313C59.3733 20.4774 59.3933 20.5291 59.4025 20.5831V28.5145C59.3968 28.7478 59.3081 28.9714 59.1525 29.1452C58.9968 29.3191 58.7844 29.4317 58.5531 29.4631Z" fill="white"/>
<path opacity="0.6" d="M77.3834 26.0654C77.3408 25.801 77.2458 25.5478 77.1039 25.3207C76.962 25.0936 76.7761 24.8972 76.5572 24.743C76.3382 24.5888 76.0907 24.48 75.829 24.4229C75.5674 24.3658 75.297 24.3617 75.0337 24.4107L65.1057 26.4846V18.3988C65.0237 17.8471 64.7357 17.3469 64.2998 16.999C63.8638 16.6511 63.3123 16.4811 62.7561 16.5235L16.8447 26.3301C16.024 26.4208 15.2641 26.8062 14.7061 27.4149C14.1482 28.0235 13.8302 28.814 13.8111 29.6395L13.9435 59.0815C13.9435 61.056 16.4144 62.799 18.6317 62.3908L22.9228 60.8023V70.1456C22.9228 72.1202 25.3938 73.8631 27.6 73.455L65.3815 65.5126L71.3824 69.3955V64.2551L74.5263 63.5932C75.347 63.5025 76.1069 63.1171 76.6648 62.5084C77.2228 61.8998 77.5408 61.1093 77.5599 60.2838L77.3834 26.0654Z" fill="url(#paint0_linear_4437_13609)"/>
<path opacity="0.8" d="M50.0264 29.6397V22.5687C50.028 22.4409 50.0759 22.3181 50.161 22.2228C50.2462 22.1275 50.3629 22.0662 50.4897 22.0503L58.9395 20.2522C58.9932 20.241 59.0486 20.2408 59.1024 20.2515C59.1561 20.2622 59.2072 20.2837 59.2525 20.3146C59.2978 20.3455 59.3364 20.3852 59.366 20.4313C59.3956 20.4774 59.4157 20.5291 59.4249 20.5831V27.6872" fill="white"/>
<path d="M50.0264 29.6391V23.6712C50.028 23.5435 50.0759 23.4206 50.161 23.3253C50.2462 23.23 50.3629 23.1688 50.4897 23.1528L58.9395 21.3547C58.9932 21.3436 59.0486 21.3433 59.1024 21.3541C59.1561 21.3648 59.2072 21.3863 59.2525 21.4171C59.2978 21.448 59.3364 21.4877 59.366 21.5338C59.3956 21.58 59.4157 21.6316 59.4249 21.6857V27.6866" stroke="#182C3D" stroke-width="2.40417" stroke-miterlimit="10"/>
<path d="M40.1806 63.0793C40.4903 62.3902 40.0116 61.5036 39.1114 61.0991C38.2111 60.6945 37.2303 60.9251 36.9206 61.6142C36.611 62.3032 37.0897 63.1898 37.9899 63.5944C38.8901 63.9989 39.8709 63.7683 40.1806 63.0793Z" fill="#333333"/>
<path d="M46.7931 61.9387C47.1028 61.2496 46.624 60.3631 45.7238 59.9585C44.8236 59.5539 43.8427 59.7845 43.5331 60.4736C43.2234 61.1626 43.7022 62.0492 44.6024 62.4538C45.5026 62.8583 46.4834 62.6277 46.7931 61.9387Z" fill="#333333"/>
<path d="M53.3053 60.4953C53.615 59.8063 53.1363 58.9197 52.236 58.5151C51.3358 58.1106 50.3549 58.3411 50.0453 59.0302C49.7356 59.7193 50.2144 60.6058 51.1146 61.0104C52.0148 61.415 52.9956 61.1844 53.3053 60.4953Z" fill="#333333"/>
<path d="M72.2206 34.4707L61.002 37.0079" stroke="#182C3D" stroke-width="1.80313" stroke-miterlimit="10" stroke-linecap="round"/>
<path d="M72.2206 40.2183L61.002 42.7554" stroke="#182C3D" stroke-width="1.80313" stroke-miterlimit="10" stroke-linecap="round"/>
<path d="M72.2206 46.0981L61.002 48.6353" stroke="#182C3D" stroke-width="1.80313" stroke-miterlimit="10" stroke-linecap="round"/>
<path d="M22.6139 60.8575C22.6463 60.8508 22.6798 60.8516 22.7119 60.8597C22.744 60.8678 22.7738 60.8829 22.7993 60.9041C22.8247 60.9253 22.845 60.952 22.8587 60.9821C22.8725 61.0122 22.8793 61.045 22.8786 61.0781V70.1346C22.8786 72.1092 25.3496 73.8521 27.5558 73.4439L65.3815 65.5126L71.3824 69.3955V64.2551L74.5263 63.5932C75.3469 63.5025 76.1068 63.1171 76.6648 62.5084C77.2227 61.8998 77.5407 61.1093 77.5598 60.2838L77.4274 26.0874C77.3849 25.823 77.2898 25.5699 77.148 25.3428C77.0061 25.1157 76.8202 24.9192 76.6012 24.765C76.3823 24.6108 76.1347 24.502 75.8731 24.4449C75.6115 24.3879 75.3411 24.3837 75.0778 24.4327L65.4918 26.4404C65.4596 26.4451 65.4268 26.4429 65.3955 26.4341C65.3642 26.4252 65.3352 26.4099 65.3102 26.3891C65.2853 26.3683 65.2649 26.3425 65.2506 26.3133C65.2363 26.2841 65.2282 26.2523 65.227 26.2198L65.0946 15.0343C65.0521 14.7699 64.9571 14.5167 64.8152 14.2896C64.6733 14.0625 64.4874 13.8661 64.2685 13.7119C64.0495 13.5577 63.802 13.4489 63.5403 13.3918C63.2787 13.3347 63.0083 13.3306 62.745 13.3796L13.5353 23.6385C12.7146 23.7292 11.9547 24.1146 11.3967 24.7233C10.8388 25.3319 10.5208 26.1224 10.5017 26.9479L10.6341 59.0704C10.6341 61.045 13.105 62.7879 15.3223 62.3798L21.1136 61.1664L22.6139 60.8575Z" stroke="#182C3D" stroke-width="2.40417" stroke-miterlimit="10"/>
<path d="M22.8344 53.2459V38.9055C22.8336 37.8898 23.1833 36.905 23.8244 36.1172C24.4655 35.3295 25.3587 34.787 26.3533 34.5813L52.4639 29.165" stroke="#182C3D" stroke-width="2.40417" stroke-miterlimit="10" stroke-linecap="round"/>
<path d="M56.689 28.2164L61.8736 27.1685" stroke="#182C3D" stroke-width="2.40417" stroke-miterlimit="10" stroke-linecap="round"/>
<path opacity="0.8" d="M51.2176 51.6021L32.0786 55.5954C31.8478 55.6413 31.61 55.64 31.3797 55.5915C31.1494 55.5431 30.9313 55.4485 30.7385 55.3135C30.5458 55.1784 30.3823 55.0058 30.2581 54.8059C30.1339 54.606 30.0515 54.3829 30.0158 54.1503L29.9606 42.8434C29.9657 42.5324 30.0784 42.2328 30.2795 41.9955C30.4806 41.7582 30.7578 41.5978 31.0637 41.5418L52.0228 37.1293C52.1587 37.099 52.2993 37.097 52.4359 37.1233C52.5726 37.1497 52.7024 37.2038 52.8172 37.2824C52.9321 37.3611 53.0295 37.4625 53.1035 37.5804C53.1775 37.6982 53.2264 37.8301 53.2473 37.9677V49.2856C53.2272 49.8464 53.0143 50.383 52.6446 50.805C52.2748 51.227 51.7708 51.5086 51.2176 51.6021Z" fill="white"/>
<path d="M51.2176 51.6021L32.0786 55.5954C31.8478 55.6413 31.61 55.64 31.3797 55.5915C31.1494 55.5431 30.9313 55.4485 30.7385 55.3135C30.5458 55.1784 30.3823 55.0058 30.2581 54.8059C30.1339 54.606 30.0515 54.3829 30.0158 54.1503L29.9606 42.8434C29.9657 42.5324 30.0784 42.2328 30.2795 41.9955C30.4806 41.7582 30.7578 41.5978 31.0637 41.5418L52.0228 37.1293C52.1587 37.099 52.2993 37.097 52.4359 37.1233C52.5726 37.1497 52.7024 37.2038 52.8172 37.2824C52.9321 37.3611 53.0295 37.4625 53.1035 37.5804C53.1775 37.6982 53.2264 37.8301 53.2473 37.9677V49.2856C53.2272 49.8464 53.0143 50.383 52.6446 50.805C52.2748 51.227 51.7708 51.5086 51.2176 51.6021V51.6021Z" stroke="#182C3D" stroke-width="2.40417" stroke-miterlimit="10" stroke-linecap="round"/>
<defs>
<linearGradient id="paint0_linear_4437_13609" x1="102.548" y1="62.983" x2="11.9719" y2="35.6744" gradientUnits="userSpaceOnUse">
<stop stop-color="#FCEE21" stop-opacity="0.15"/>
<stop offset="1" stop-color="#FBB03B" stop-opacity="0.68"/>
</linearGradient>
</defs>
</svg>
