<svg width="20" height="20" viewBox="0 0 20 20" fill="none" xmlns="http://www.w3.org/2000/svg">
<path fill-rule="evenodd" clip-rule="evenodd" d="M4.47611 1.5C1.73304 1.5 1.73304 1.708 1.73304 4.25V4.275C1.73304 5.382 1.73304 6.182 2.00336 6.52C2.26769 6.848 3.05271 7 4.47611 7C5.89952 7 6.68453 6.847 6.94887 6.519C7.21918 6.182 7.21918 5.382 7.21918 4.274C7.21918 1.708 7.21918 1.5 4.47611 1.5M4.47611 8.5C2.79436 8.5 1.53254 8.323 0.839295 7.46C0.236816 6.711 0.236816 5.689 0.236816 4.275L0.984927 4.25H0.236816C0.236816 1.38 0.417361 0 4.47611 0C8.53486 0 8.71541 1.38 8.71541 4.25C8.71541 5.688 8.71541 6.711 8.11293 7.46C7.41968 8.323 6.15786 8.5 4.47611 8.5" fill="#777777"/>
<path fill-rule="evenodd" clip-rule="evenodd" d="M15.4484 1.5C12.7053 1.5 12.7053 1.708 12.7053 4.25V4.275C12.7053 5.382 12.7053 6.182 12.9756 6.52C13.24 6.848 14.025 7 15.4484 7C16.8718 7 17.6568 6.847 17.9212 6.519C18.1915 6.182 18.1915 5.382 18.1915 4.274C18.1915 1.708 18.1915 1.5 15.4484 1.5M15.4484 8.5C13.7666 8.5 12.5048 8.323 11.8116 7.46C11.2091 6.711 11.2091 5.689 11.2091 4.275L11.9572 4.25H11.2091C11.2091 1.38 11.3897 0 15.4484 0C19.5072 0 19.6877 1.38 19.6877 4.25C19.6877 5.688 19.6877 6.711 19.0852 7.46C18.392 8.323 17.1302 8.5 15.4484 8.5" fill="#777777"/>
<path fill-rule="evenodd" clip-rule="evenodd" d="M4.47611 12.5C1.73304 12.5 1.73304 12.708 1.73304 15.25V15.275C1.73304 16.382 1.73304 17.182 2.00336 17.52C2.26769 17.848 3.05271 18 4.47611 18C5.89952 18 6.68453 17.847 6.94887 17.519C7.21918 17.182 7.21918 16.382 7.21918 15.274C7.21918 12.708 7.21918 12.5 4.47611 12.5M4.47611 19.5C2.79436 19.5 1.53254 19.323 0.839295 18.46C0.236816 17.711 0.236816 16.689 0.236816 15.275L0.984927 15.25H0.236816C0.236816 12.38 0.417361 11 4.47611 11C8.53486 11 8.71541 12.38 8.71541 15.25C8.71541 16.688 8.71541 17.711 8.11293 18.46C7.41968 19.323 6.15786 19.5 4.47611 19.5" fill="#777777"/>
<path fill-rule="evenodd" clip-rule="evenodd" d="M15.4484 12.5C12.7053 12.5 12.7053 12.708 12.7053 15.25V15.275C12.7053 16.382 12.7053 17.182 12.9756 17.52C13.24 17.848 14.025 18 15.4484 18C16.8718 18 17.6568 17.847 17.9212 17.519C18.1915 17.182 18.1915 16.382 18.1915 15.274C18.1915 12.708 18.1915 12.5 15.4484 12.5M15.4484 19.5C13.7666 19.5 12.5048 19.323 11.8116 18.46C11.2091 17.711 11.2091 16.689 11.2091 15.275L11.9572 15.25H11.2091C11.2091 12.38 11.3897 11 15.4484 11C19.5072 11 19.6877 12.38 19.6877 15.25C19.6877 16.688 19.6877 17.711 19.0852 18.46C18.392 19.323 17.1302 19.5 15.4484 19.5" fill="#777777"/>
</svg>
