<svg width="66" height="71" viewBox="0 0 66 71" fill="none" xmlns="http://www.w3.org/2000/svg">
<path opacity="0.6" d="M64.8685 31.2639L60.0479 24.8879C59.8745 24.6857 59.6337 24.5531 59.3701 24.5145C59.1066 24.476 58.8379 24.5342 58.6139 24.6783L33.827 35.213C33.085 35.4139 32.2941 35.3189 31.6208 34.9482L8.45545 25.0975C8.04468 24.8306 7.55198 24.7195 7.06642 24.7842C6.58086 24.849 6.13448 25.0853 5.80799 25.4505L0.987393 31.8265C0.744709 32.1464 0.987397 32.7641 1.43967 32.9296L5.85211 34.8049L6.20511 55.8964C6.21842 56.5546 6.42392 57.1945 6.79631 57.7375C7.16871 58.2804 7.69174 58.7025 8.30101 58.9519L31.1354 69.3763C32.6588 70.0133 34.3686 70.0409 35.9119 69.4536L58.4705 59.7241C59.071 59.4915 59.5856 59.08 59.9447 58.5453C60.3038 58.0107 60.49 57.3786 60.4781 56.7347L60.1251 35.3785L64.1515 33.1722C64.8796 32.8523 65.2877 31.8154 64.8685 31.2639Z" fill="url(#paint0_linear_4437_13631)"/>
<path d="M59.2321 24.4027L51.9957 22.02" stroke="#182C3D" stroke-width="1.4425" stroke-miterlimit="10" stroke-linecap="round"/>
<path d="M14.1256 22.02L6.88916 24.4027" stroke="#182C3D" stroke-width="1.4425" stroke-miterlimit="10" stroke-linecap="round"/>
<path d="M59.6508 35.4332V56.1165C59.6492 56.7619 59.4539 57.392 59.09 57.925C58.7261 58.4581 58.2105 58.8695 57.61 59.106L35.1397 69.1002C33.6222 69.6954 31.9358 69.6954 30.4183 69.1002L7.94798 59.106C7.34748 58.8695 6.83188 58.4581 6.468 57.925C6.10412 57.392 5.90875 56.7619 5.90723 56.1165V34.981" stroke="#182C3D" stroke-width="1.4425" stroke-miterlimit="10" stroke-linecap="round"/>
<path d="M30.3965 39.6696L27.4512 43.4532C27.2581 43.586 27.0293 43.6572 26.7949 43.6572C26.5605 43.6572 26.3316 43.586 26.1385 43.4532L1.38474 32.9296C0.932465 32.709 0.689777 32.0912 0.932461 31.8265L5.75306 25.4505C6.07955 25.0853 6.52593 24.849 7.01149 24.7842C7.49705 24.7195 7.98975 24.8306 8.40052 25.0975L31.1356 34.7497C31.4572 34.8815 31.7947 34.9705 32.1395 35.0144V35.0144C33.246 35.1435 34.3671 34.9839 35.3936 34.5511L58.6141 24.6783C58.8382 24.5342 59.1068 24.476 59.3704 24.5145C59.634 24.5531 59.8747 24.6857 60.0482 24.8879L64.8687 31.2639C65.2879 31.8154 64.8687 32.8523 64.1076 33.2495L58.2501 35.7315" stroke="#182C3D" stroke-width="1.4425" stroke-miterlimit="10" stroke-linecap="round"/>
<path d="M35.5701 39.6585L38.1955 42.7583C38.5207 43.1254 38.9673 43.3632 39.4535 43.428C39.9397 43.4929 40.4329 43.3804 40.843 43.1113L58.2501 35.7314" stroke="#182C3D" stroke-width="1.4425" stroke-miterlimit="10" stroke-linecap="round"/>
<path opacity="0.3" d="M24.2849 11.105L25.784 2.95294C25.8301 2.70198 25.6641 2.46112 25.4131 2.41497L17.2611 0.915856C17.0102 0.869705 16.7693 1.03574 16.7232 1.2867L15.224 9.43874C15.1779 9.6897 15.3439 9.93056 15.5949 9.97671L23.7469 11.4758C23.9979 11.522 24.2387 11.3559 24.2849 11.105Z" fill="url(#paint1_linear_4437_13631)"/>
<path d="M24.6051 10.9585L26.1042 2.80646C26.1503 2.5555 25.9843 2.31464 25.7333 2.26849L17.5813 0.769361C17.3303 0.723211 17.0894 0.889243 17.0433 1.1402L15.5442 9.29225C15.498 9.54321 15.6641 9.78406 15.915 9.83021L24.0671 11.3293C24.3181 11.3755 24.5589 11.2095 24.6051 10.9585Z" stroke="#182C3D" stroke-width="1.4425" stroke-miterlimit="10" stroke-linecap="round"/>
<path opacity="0.3" d="M35.5137 16.8079C35.6298 16.7586 35.7577 16.7405 35.8837 16.7557C36.0097 16.7709 36.129 16.8187 36.2287 16.894C36.3283 16.9692 36.4046 17.0691 36.4492 17.1828C36.4938 17.2965 36.5051 17.4197 36.4818 17.5391L35.5137 22.9356L34.6038 28.3321C34.5816 28.4466 34.5289 28.5536 34.4507 28.6429C34.3726 28.7321 34.2716 28.8005 34.1577 28.8414C34.0438 28.8824 33.9207 28.8946 33.8004 28.8767C33.6801 28.8588 33.5667 28.8115 33.4712 28.7394L29.0375 25.2868L24.6136 21.8341C24.5193 21.759 24.4472 21.6617 24.4042 21.5518C24.3612 21.4419 24.3489 21.3233 24.3684 21.2075C24.3879 21.0916 24.4387 20.9827 24.5156 20.8913C24.5925 20.7999 24.693 20.7292 24.8072 20.6863L30.1508 18.7517L35.5137 16.8079Z" fill="url(#paint2_linear_4437_13631)"/>
<path d="M35.5137 16.8079C35.6298 16.7586 35.7577 16.7405 35.8837 16.7557C36.0097 16.7709 36.129 16.8187 36.2287 16.894C36.3283 16.9692 36.4046 17.0691 36.4492 17.1828C36.4938 17.2965 36.5051 17.4197 36.4818 17.5391L35.5137 22.9356L34.6038 28.3321C34.5816 28.4466 34.5289 28.5536 34.4507 28.6429C34.3726 28.7321 34.2716 28.8005 34.1577 28.8414C34.0438 28.8824 33.9207 28.8946 33.8004 28.8767C33.6801 28.8588 33.5667 28.8115 33.4712 28.7394L29.0375 25.2868L24.6136 21.8341C24.5193 21.759 24.4472 21.6617 24.4042 21.5518C24.3612 21.4419 24.3489 21.3233 24.3684 21.2075C24.3879 21.0916 24.4387 20.9827 24.5156 20.8913C24.5925 20.7999 24.693 20.7292 24.8072 20.6863L30.1508 18.7517L35.5137 16.8079Z" stroke="#182C3D" stroke-width="1.4425" stroke-miterlimit="10" stroke-linecap="round"/>
<path d="M39.9604 19.4383C44.5296 19.4383 48.2337 15.7342 48.2337 11.1649C48.2337 6.5957 44.5296 2.8916 39.9604 2.8916C35.3912 2.8916 31.6871 6.5957 31.6871 11.1649C31.6871 15.7342 35.3912 19.4383 39.9604 19.4383Z" fill="white"/>
<path opacity="0.3" d="M39.9604 19.4383C44.5296 19.4383 48.2337 15.7342 48.2337 11.1649C48.2337 6.5957 44.5296 2.8916 39.9604 2.8916C35.3912 2.8916 31.6871 6.5957 31.6871 11.1649C31.6871 15.7342 35.3912 19.4383 39.9604 19.4383Z" fill="url(#paint3_linear_4437_13631)"/>
<path d="M39.9604 19.4383C44.5296 19.4383 48.2337 15.7342 48.2337 11.1649C48.2337 6.5957 44.5296 2.8916 39.9604 2.8916C35.3912 2.8916 31.6871 6.5957 31.6871 11.1649C31.6871 15.7342 35.3912 19.4383 39.9604 19.4383Z" stroke="#182C3D" stroke-width="1.4425" stroke-miterlimit="10" stroke-linecap="round"/>
<path d="M34.6875 61.6107V46.6084" stroke="#182C3D" stroke-width="1.4425" stroke-miterlimit="10" stroke-linecap="round"/>
<path d="M30.1211 63.6178V60.1099" stroke="#182C3D" stroke-width="1.4425" stroke-miterlimit="10" stroke-linecap="round"/>
<defs>
<linearGradient id="paint0_linear_4437_13631" x1="-14.3596" y1="18.5808" x2="57.3491" y2="87.8769" gradientUnits="userSpaceOnUse">
<stop stop-color="#75BCC7"/>
<stop offset="1" stop-color="#CDE7DE"/>
</linearGradient>
<linearGradient id="paint1_linear_4437_13631" x1="27.4464" y1="0.561737" x2="15.8657" y2="12.2342" gradientUnits="userSpaceOnUse">
<stop stop-color="#75BCC7"/>
<stop offset="1" stop-color="#CDE7DE"/>
</linearGradient>
<linearGradient id="paint2_linear_4437_13631" x1="21.4744" y1="15.1667" x2="39.3534" y2="27.3875" gradientUnits="userSpaceOnUse">
<stop stop-color="#75BCC7"/>
<stop offset="1" stop-color="#CDE7DE"/>
</linearGradient>
<linearGradient id="paint3_linear_4437_13631" x1="27.753" y1="0.731848" x2="52.1335" y2="17.3967" gradientUnits="userSpaceOnUse">
<stop stop-color="#75BCC7"/>
<stop offset="1" stop-color="#CDE7DE"/>
</linearGradient>
</defs>
</svg>
