<svg width="14" height="14" viewBox="0 0 14 14" fill="none" xmlns="http://www.w3.org/2000/svg">
<path fill-rule="evenodd" clip-rule="evenodd" d="M7.00065 1.33301C3.87598 1.33301 1.33398 3.87501 1.33398 6.99967C1.33398 10.1243 3.87598 12.6663 7.00065 12.6663C10.1253 12.6663 12.6673 10.1243 12.6673 6.99967C12.6673 3.87501 10.1253 1.33301 7.00065 1.33301M7.00065 13.6663C3.32465 13.6663 0.333984 10.6757 0.333984 6.99967C0.333984 3.32367 3.32465 0.333008 7.00065 0.333008C10.6767 0.333008 13.6673 3.32367 13.6673 6.99967C13.6673 10.6757 10.6767 13.6663 7.00065 13.6663" fill="#949DAA"/>
<path fill-rule="evenodd" clip-rule="evenodd" d="M6.99609 7.91475C6.72009 7.91475 6.49609 7.69075 6.49609 7.41475V4.46875C6.49609 4.19275 6.72009 3.96875 6.99609 3.96875C7.27209 3.96875 7.49609 4.19275 7.49609 4.46875V7.41475C7.49609 7.69075 7.27209 7.91475 6.99609 7.91475" fill="#949DAA"/>
<path fill-rule="evenodd" clip-rule="evenodd" d="M7.00398 10.1966C6.63532 10.1966 6.33398 9.89861 6.33398 9.52995C6.33398 9.16128 6.62932 8.86328 6.99732 8.86328H7.00398C7.37265 8.86328 7.67065 9.16128 7.67065 9.52995C7.67065 9.89861 7.37265 10.1966 7.00398 10.1966" fill="#949DAA"/>
</svg>
