<svg width="376" height="193" viewBox="0 0 376 193" fill="none" xmlns="http://www.w3.org/2000/svg">
<g clip-path="url(#clip0_4402_12474)">
<path d="M18.775 192.943C18.775 192.943 -21.6184 106.815 57.9967 106.815C100.062 106.815 82.73 83.1804 111.321 55.8399C139.912 28.4994 239.931 6.63852 261.207 59.4453C282.497 112.252 229.887 152.354 280.725 145.473C341.808 137.203 365.941 192.943 365.941 192.943H18.775Z" fill="#FBECDB"/>
<path d="M345.923 182.012C342.151 179.251 334.449 181.111 328.763 183.114C327.92 181.912 326.877 180.682 325.633 179.48C337.879 171.583 354.796 154.729 345.823 153.313C338.036 152.068 327.52 167.233 321.89 176.461C316.06 172.527 307.116 169.637 293.456 170.638C258.021 173.242 230.33 150.351 209.926 157.991C193.694 164.057 178.834 167.462 164.489 166.303C165.103 155.816 165.246 135.214 157.016 133.083C148.671 130.908 156.859 154.3 161.402 165.974C160.331 165.831 159.273 165.674 158.202 165.488C155.258 159.665 150.4 152.054 145.056 151.796C140.027 151.553 146.228 158.406 152.329 164.2C134.797 160.509 113.993 174.787 113.65 191.669H332.592C332.592 191.669 332.206 189.209 330.491 185.961C338.965 185.775 350.009 185.017 345.923 182.012Z" fill="#A8D29F"/>
<path d="M161.431 178.607H103.734V191.655H161.431V178.607Z" fill="#4A75CB"/>
<path d="M143.641 178.607H85.9448V191.655H143.641V178.607Z" fill="#699DEE"/>
<path d="M184.14 191.656H227.105V131.524H184.14V191.656Z" fill="#D86713"/>
<path d="M170.889 191.656H213.855V131.524H170.889V191.656Z" fill="#F1A34F"/>
<path d="M213.855 131.523L227.1 140.551V131.523H213.855Z" fill="#C95C12"/>
<path d="M81.2156 144.843C81.2156 144.843 73.1855 150.823 71.6137 150.465C70.042 150.107 77.4863 144.013 77.4863 144.013C74.6858 142.668 65.9841 143.512 65.9841 143.512C65.9841 143.512 63.0836 152.869 61.6547 152.139C60.2259 151.395 64.641 143.984 64.641 143.984C61.5261 143.798 57.6968 146.116 57.6968 146.116C52.4672 150.251 58.0397 156.775 58.0397 156.775C58.0397 156.775 56.9681 159.994 53.6532 162.926C53.6532 162.926 48.938 166.417 48.6094 172.669L49.4667 172.741C49.4667 172.741 50.8241 166.918 53.296 164.171C53.396 164.071 53.5246 163.928 53.7103 163.756C54.1104 163.384 54.3962 163.098 54.5819 162.898C55.8107 161.71 57.5111 160.208 58.3255 160.065C58.3255 160.065 58.2826 159.908 58.2969 159.65C58.3112 159.779 58.3255 159.922 58.3255 160.065C58.6113 163.356 64.9839 166.231 68.9132 166.832C72.8425 167.419 71.628 165.802 70.2706 163.413C68.9132 161.024 64.641 159.951 63.6551 158.835C62.6835 157.733 64.6981 157.733 67.07 158.806C69.4419 159.893 69.7562 162.769 73.557 164.586C77.3577 166.403 83.0588 160.094 83.0588 160.094C80.0296 159.936 75.7145 156.646 75.8717 155.644C76.0289 154.643 83.2017 157.375 84.4305 157.518C85.6593 157.647 88.4455 156.116 88.8742 151.18C89.3171 146.216 81.2156 144.843 81.2156 144.843Z" fill="#82B378"/>
<path d="M38.5502 148.563C38.5502 148.563 47.4233 143.584 43.2796 136.831C43.2796 136.831 39.9647 132.682 36.4212 131.623C36.4212 131.623 38.3215 141.696 36.4212 141.939C34.5208 142.182 35.1209 130.565 35.1209 130.565C35.1209 130.565 25.7763 126.058 22.1042 126.416C22.1042 126.416 27.9053 136.245 26.0049 136.016C24.1046 135.772 17.6033 125.829 17.6033 125.829C17.6033 125.829 8.01578 124.055 6.48692 129.735C4.94377 135.429 7.42996 138.262 8.8588 138.62C10.2734 138.977 19.3894 138.863 19.1608 140.036C18.9179 141.223 12.7738 143.112 9.34461 142.053C9.34461 142.053 13.131 151.41 18.1034 150.938C23.0758 150.466 24.6046 147.39 27.6909 147.146C30.7772 146.903 33.0205 147.733 31.4774 148.563C29.9342 149.393 24.7332 148.835 22.2471 150.952C19.7609 153.069 17.7462 154.371 22.3614 155.316C26.9765 156.26 35.2638 155.673 36.9213 152.111C38.5502 148.563 38.5502 148.563 38.5502 148.563Z" fill="#A8D29F"/>
<path d="M40.9077 157.204C38.4215 152.583 38.5358 148.548 38.5358 148.548C35.7067 139.549 10.8591 131.495 10.8591 131.495C42.4508 144.285 36.8926 152.111 36.8926 152.111C37.7499 152.612 39.0216 154.987 39.9075 156.804C40.0361 157.118 40.2361 157.547 40.5362 158.12C40.6505 158.377 40.7505 158.592 40.822 158.749C42.4508 162.827 41.5935 169.866 41.5935 169.866L42.5794 170.138C44.7513 163.027 40.9077 157.204 40.9077 157.204Z" fill="#82B378"/>
<path d="M52.6674 141.695C52.6674 141.695 40.9652 135.128 46.4233 126.23C46.4233 126.23 50.7956 120.764 55.4679 119.362C55.4679 119.362 52.9674 132.639 55.4679 132.954C57.9684 133.269 57.1825 117.96 57.1825 117.96C57.1825 117.96 69.4992 112.023 74.3429 112.495C74.3429 112.495 66.6986 125.457 69.1991 125.142C71.6996 124.828 80.2726 111.708 80.2726 111.708C80.2726 111.708 92.9036 109.362 94.9326 116.859C96.9615 124.355 93.6895 128.104 91.8177 128.576C89.9459 129.048 77.9293 128.891 78.2437 130.45C78.558 132.01 86.6739 134.513 91.189 133.111C91.189 133.111 86.2023 145.444 79.6439 144.829C73.0856 144.199 71.0709 140.136 67.013 139.835C62.9551 139.521 59.9974 140.622 62.0263 141.71C64.0553 142.797 70.9137 142.067 74.2 144.857C77.4721 147.647 80.1297 149.364 74.0429 150.609C67.956 151.853 57.0396 151.081 54.8535 146.388C52.6674 141.695 52.6674 141.695 52.6674 141.695Z" fill="#A8D29F"/>
<path d="M89.1601 119.205C89.1601 119.205 56.3968 129.821 52.6532 141.696C52.6532 141.696 52.8104 147.003 49.5383 153.098C49.5383 153.098 44.4802 160.781 47.3665 170.123L48.6667 169.78C48.6667 169.78 47.5237 160.509 49.6812 155.13C49.7669 154.929 49.8955 154.643 50.0527 154.3C50.4385 153.527 50.71 152.969 50.8671 152.554C52.0388 150.151 53.7248 147.032 54.8393 146.374C54.8536 146.374 47.5237 136.073 89.1601 119.205Z" fill="#82B378"/>
<path d="M52.2671 190.396C64.9267 190.396 75.1858 180.124 75.1858 167.448H29.3628C29.3628 180.124 39.6219 190.396 52.2671 190.396Z" fill="#F1A34F"/>
<path d="M57.911 190.224C56.9822 190.339 56.0249 190.396 55.0676 190.396C42.408 190.396 32.1489 180.124 32.1489 167.448H37.8357C37.8357 179.165 46.5945 188.822 57.911 190.224Z" fill="#FFB973"/>
<path d="M72.6708 188.822H31.863C30.3056 188.822 29.0339 190.096 29.0339 191.655H75.4999C75.4999 190.096 74.2425 188.822 72.6708 188.822Z" fill="#F1A34F"/>
<path d="M75.3571 167.462H28.9483C28.7482 167.462 28.5911 167.619 28.5911 167.82C28.5911 168.02 28.7482 168.177 28.9483 168.177H75.3571C75.5571 168.177 75.7143 168.02 75.7143 167.82C75.7143 167.619 75.5571 167.462 75.3571 167.462Z" fill="#D86713"/>
<path d="M252.191 46.6265C251.534 46.5264 249.519 48.372 249.519 48.372C245.247 48.8727 239.003 50.003 236.745 50.4322C235.145 50.7326 230.858 49.2733 226.672 47.5994C221.685 45.5964 216.841 43.293 216.841 43.293C214.084 43.1499 210.94 48.2003 216.541 51.4193C217.399 51.9058 220.613 52.7499 224.314 53.5081C229.429 54.5669 235.459 55.4825 237.517 55.1534C239.903 54.7815 246.661 52.3064 250.676 50.4179C250.676 50.4179 250.676 50.4179 250.691 50.4179C250.705 50.4179 250.719 50.4035 250.733 50.4035C250.976 50.2891 251.962 49.8456 252.62 49.8885C253.377 49.9314 255.049 48.558 255.106 48.186C255.163 47.7997 252.862 46.7267 252.191 46.6265Z" fill="#ED975D"/>
<path d="M246.975 110.249L244.618 110.721C244.618 110.721 233.844 98.6033 232.187 93.5101C231.301 90.7918 225.614 89.6043 219.67 88.0735C214.498 86.7286 209.14 85.1262 206.568 81.9787C201.067 75.2116 210.026 66.9136 210.026 66.9136C210.026 66.9136 219.556 72.5934 227.786 78.4449C233.53 82.5367 238.645 86.7286 239.417 89.1322C241.289 94.9837 245.261 106.1 246.975 110.249Z" fill="#2B478B"/>
<path d="M243.818 114.241H245.147C245.59 114.169 245.918 114.04 246.375 113.983C247.061 113.897 247.39 114.169 247.447 114.241C247.461 114.255 247.461 114.255 247.461 114.255H253.091C253.234 114.055 253.091 113.583 252.962 113.239C252.877 113.01 252.677 112.824 252.434 112.753C251.834 112.581 250.662 112.424 249.59 111.451C248.99 110.907 246.661 109.434 246.661 109.434H246.647C246.59 109.434 246.347 109.505 245.304 110.406C244.761 110.864 243.832 109.763 243.832 109.763C243.832 109.763 243.661 109.906 243.532 110.178C243.432 110.392 243.346 110.678 243.418 111.036C243.503 111.537 243.232 112.481 243.018 113.125C242.889 113.511 242.775 113.783 242.775 113.783C242.775 113.783 242.689 114.098 243.818 114.241Z" fill="#233862"/>
<path d="M227.786 78.4449L219.67 88.0735C214.498 86.7286 209.14 85.1262 206.568 81.9787C201.067 75.2116 210.026 66.9136 210.026 66.9136C210.026 66.9136 219.57 72.5791 227.786 78.4449Z" fill="#1E3D70"/>
<path d="M220.413 73.409C220.413 73.409 219.756 75.4692 218.699 78.5881C217.356 82.5225 215.341 88.1165 213.169 93.3099C212.698 94.4545 212.198 95.5704 211.712 96.6577C209.897 100.649 208.054 104.083 206.411 105.814C203.482 108.947 196.352 129.049 196.352 129.049L194.58 128.562C194.58 128.562 192.108 111.394 200.881 101.622C200.981 101.522 201.053 101.393 201.053 101.265C201.167 99.8195 201.581 93.3385 202.496 86.7716C202.724 85.155 202.967 83.5526 203.253 81.9931C203.267 81.893 203.296 81.7928 203.31 81.6927C204.639 74.5392 205.925 71.3631 207.568 69.7607L219.699 73.223L220.413 73.409Z" fill="#2B478B"/>
<path d="M194.38 131.509H195.709C196.151 131.438 196.48 131.309 196.937 131.252C197.623 131.166 197.952 131.438 198.009 131.509C198.023 131.524 198.023 131.524 198.023 131.524H203.653C203.796 131.323 203.653 130.851 203.524 130.508C203.439 130.279 203.239 130.093 202.996 130.021C202.396 129.85 201.224 129.692 200.152 128.719C199.552 128.176 197.223 126.702 197.223 126.702H197.209C197.152 126.702 196.909 126.774 195.866 127.675C195.323 128.133 194.394 127.031 194.394 127.031C194.394 127.031 194.223 127.174 194.094 127.446C193.994 127.661 193.908 127.947 193.98 128.305C194.065 128.805 193.794 129.75 193.58 130.393C193.451 130.78 193.337 131.051 193.337 131.051C193.337 131.051 193.251 131.366 194.38 131.509Z" fill="#233862"/>
<path d="M196.98 50.0459C196.98 50.0459 194.951 55.0104 192.608 59.8461C190.636 63.9093 188.45 67.8866 187.064 68.7307C185.107 69.9325 179.72 73.2946 176.234 75.8126C176.234 75.8126 173.504 75.7983 173.09 76.3134C172.661 76.8427 171.69 79.1891 171.976 79.418C172.261 79.6612 174.433 79.5467 174.948 79.0031C175.405 78.531 176.434 78.1876 176.676 78.1161C176.691 78.1161 176.705 78.1017 176.719 78.1017H176.734C180.977 76.7998 187.636 74.0672 189.65 72.7367C191.379 71.5921 195.237 66.8422 198.295 62.6217C200.524 59.56 202.339 56.7702 202.639 55.8402C204.653 49.7026 198.938 48.0859 196.98 50.0459Z" fill="#FFB27D"/>
<path d="M207.597 30.5598C207.354 30.2021 207.111 29.9017 206.868 29.6155C207.168 29.6155 207.497 29.5869 207.768 29.4868C208.483 29.1863 208.811 26.9258 208.697 26.2534C208.597 25.581 207.597 23.6353 206.382 23.4493C205.168 23.249 203.896 24.6081 203.896 24.6081C204.125 23.6353 206.182 23.063 206.182 23.063C201.924 23.8499 202.153 26.6826 202.182 26.9545C198.295 25.5667 196.009 32.9061 196.009 32.9061L206.082 38.8578C206.082 38.8578 206.111 37.2411 207.068 37.3413C208.568 37.4986 209.826 33.8075 207.597 30.5598Z" fill="#2C3A64"/>
<path d="M208.24 45.954C205.925 47.0413 202.853 45.4676 202.867 45.4533C203.067 45.253 202.996 44.6664 202.81 43.8795C202.624 43.064 202.196 41.9624 201.41 40.6318C201.238 40.3457 201.081 40.0739 200.881 39.7734L201.153 39.6733L205.639 37.8706C205.639 37.8706 206.368 39.1725 207.125 40.3743C207.768 41.3615 208.44 42.2628 208.74 42.2342C208.768 42.2199 211.74 44.2658 208.24 45.954Z" fill="#FFB27D"/>
<path d="M205.639 38.3286C205.525 39.931 204.982 42.821 202.81 43.894C202.624 43.0785 202.196 41.9769 201.41 40.6463L205.639 38.3286Z" fill="#ED975D"/>
<path d="M201.152 42.4773C201.152 42.4773 206.996 40.1739 205.51 36.54C204.024 32.9203 203.767 30.1734 199.966 31.4896C196.166 32.8059 196.023 34.4941 196.223 35.8246C196.423 37.1551 199.595 42.9781 201.152 42.4773Z" fill="#FFB27D"/>
<path d="M203.339 35.7103C206.039 35.324 206.825 34.2367 206.825 34.2367C206.825 34.2367 204.339 33.5214 202.882 31.0892C202.882 31.0892 199.852 30.0591 197.595 31.7759C197.452 31.9476 197.366 32.1622 197.309 32.4054C196.795 32.2337 196.023 32.2767 195.566 33.736C194.894 35.9249 197.281 38.3285 197.281 38.3285C197.866 38.1711 197.209 36.2111 197.109 35.1667C197.038 34.3941 197.452 33.4212 197.681 32.9491C197.966 33.3211 200.81 36.9121 204.296 37.0552C204.296 37.0552 202.453 36.4114 200.781 35.1667C201.624 35.5816 202.51 35.8248 203.339 35.7103Z" fill="#2C3A64"/>
<path d="M219.37 53.4367C219.327 53.265 219.27 53.079 219.213 52.893C220.085 51.2334 220.513 49.7312 220.685 48.4579C221.085 45.7825 220.399 44.1229 220.399 44.1229C220.399 44.1229 216.341 41.9625 214.555 41.6907C214.541 41.6907 214.541 41.6907 214.526 41.6907C214.512 41.6907 214.484 41.6907 214.455 41.6907C212.64 41.4475 208.725 42.2344 208.725 42.2344C208.725 42.2344 209.483 44.2516 207.354 45.5965C205.225 46.9413 202.953 45.2531 202.953 45.2531C202.881 45.296 202.81 45.3533 202.738 45.4105C202.738 45.4105 197.137 49.116 196.623 49.9601C196.123 50.8042 193.965 54.9961 193.965 54.9961C193.965 54.9961 194.651 58.5156 202.224 58.8161C202.853 60.3326 203.324 61.8062 203.481 63.0366C204.082 67.8151 203.381 71.5778 204.082 74.3676C204.782 77.1575 217.427 75.5694 219.713 75.0258C221.999 74.4821 221.485 72.0356 221.656 69.6607C221.885 66.6562 220.113 56.0691 219.37 53.4367Z" fill="#699DEE"/>
<path d="M220.699 48.4579C220.513 49.7312 220.085 51.2335 219.213 52.9074C219.013 52.0346 218.199 48.8156 216.898 47.3706C216.898 47.3706 219.085 47.5709 220.699 48.4579Z" fill="#4A82D3"/>
<path d="M169.232 79.7607C169.232 79.7607 171.59 76.8994 172.09 76.5703C172.59 76.2269 174.819 75.6404 174.948 75.7548C175.076 75.8693 175.076 76.041 174.805 76.2842C174.533 76.5274 173.476 77.1426 173.633 77.2141C173.79 77.2856 176.962 75.6976 177.42 76.2269C177.877 76.7563 177.162 78.9596 175.934 80.004C174.705 81.0484 171.061 81.5062 170.833 81.6492C168.889 82.9083 169.232 79.7607 169.232 79.7607Z" fill="#ED975D"/>
<path d="M127.781 73.1652C127.781 73.1652 131.168 77.1854 135.469 75.4972C135.469 75.4972 136.397 73.251 136.412 71.5914C136.412 71.3911 136.412 71.1908 136.412 71.0048C136.44 69.1449 136.497 68.1005 136.497 68.1005C136.297 68.0147 129.91 65.3965 129.925 65.6111C130.025 70.6472 127.781 73.1652 127.781 73.1652Z" fill="#FFB27D"/>
<path d="M130.554 66.8133C131.168 67.9578 133.283 70.1897 136.412 71.0052C136.44 69.1453 136.498 68.1009 136.498 68.1009C136.326 68.058 130.368 66.4842 130.554 66.8133Z" fill="#ED975D"/>
<path d="M137.841 67.9145C137.841 67.9145 130.654 69.6027 129.668 65.1104C128.682 60.618 127.096 57.7996 131.639 56.5406C136.183 55.2672 137.455 56.7838 138.141 58.2145C138.841 59.6165 139.684 67.3566 137.841 67.9145Z" fill="#FFB27D"/>
<path d="M129.911 66.3267C129.811 66.3839 128.267 66.8703 125.338 61.0188C124.881 60.1032 124.567 58.1145 125.638 56.369C126.71 54.6236 130.511 53.2358 133.668 52.6349C136.826 52.0341 137.584 53.8081 138.327 55.5965C139.112 57.4707 141.356 59.0158 141.356 59.0158C138.641 60.5324 135.355 58.3577 134.226 58.7154C133.097 59.0731 132.683 60.8614 132.597 61.4337C132.511 62.006 132.383 62.4924 130.954 61.9774C129.525 61.4623 130.311 64.0089 130.539 64.4954C130.539 64.5097 130.739 65.8116 129.911 66.3267Z" fill="#A9453D"/>
<path d="M111.407 178.607H107.049C106.134 178.607 105.12 177.677 104.863 175.989C104.606 174.286 102.734 173.371 102.334 171.983C101.934 170.595 104.006 168.635 104.006 168.635L104.348 168.177L104.706 167.705L108.149 168.521C108.149 168.521 108.235 169.35 108.292 170.409C108.335 171.182 108.349 172.054 108.306 172.841C108.206 174.687 108.821 176.69 110.435 177.047C112.078 177.419 111.407 178.607 111.407 178.607Z" fill="#2C3A64"/>
<path d="M141.698 178.65H130.167C130.053 178.621 129.967 178.607 129.925 178.578C129.153 178.178 129.396 175.144 129.482 174.2C129.496 174.029 129.51 173.928 129.51 173.928C129.51 173.928 133.568 170.581 134.125 173.142C134.14 173.227 134.168 173.299 134.183 173.37C134.883 175.76 138.04 176.847 139.855 177.162C141.241 177.405 141.598 178.235 141.698 178.65Z" fill="#2C3A64"/>
<path d="M139.369 111.88C139.369 111.88 138.755 119.577 138.026 128.819C137.04 141.38 135.854 156.818 135.74 159.736C135.54 164.815 134.726 172.927 134.726 172.927C134.726 172.927 132.797 174.859 128.953 174.043C128.953 174.043 125.524 162.455 124.538 150.179C124.524 149.979 124.509 149.779 124.495 149.578C123.581 137.088 122.166 110.807 122.166 110.807L139.369 111.88Z" fill="#EE9849"/>
<path d="M139.369 111.88C139.369 111.88 138.755 119.577 138.026 128.819L124.538 150.193C124.524 149.993 124.509 149.793 124.495 149.592C123.581 137.103 122.166 110.821 122.166 110.821L139.369 111.88Z" fill="#E58638"/>
<path d="M136.555 112.795C136.555 112.795 125.452 140.665 118.151 153.756C110.85 166.847 108.578 170.509 108.578 170.509C108.578 170.509 104.391 168.821 104.02 167.677C104.02 167.677 106.806 142.396 111.693 136.23C114.45 132.753 117.694 122.295 117.851 118.647C118.008 114.999 118.837 107.759 118.837 107.759L136.555 112.795Z" fill="#EE9849"/>
<path d="M111.135 108.146C111.135 108.146 110.85 111.622 110.635 112.166C110.421 112.695 109.021 114.355 108.863 114.326C108.706 114.298 108.606 114.169 108.692 113.84C108.778 113.496 109.264 112.466 109.106 112.481C108.949 112.509 107.349 115.442 106.706 115.271C106.063 115.099 105.434 113.024 105.82 111.551C106.206 110.077 108.778 107.759 108.878 107.53C109.721 105.528 111.135 108.146 111.135 108.146Z" fill="#ED975D"/>
<path d="M109.95 109.033C111.178 109.433 111.378 109.333 111.378 109.333C111.378 109.333 117.365 98.4315 117.965 97.43C118.565 96.4285 130.668 85.1976 130.668 85.1976L127.567 73.5947C127.567 73.5947 113.807 91.4211 112.336 93.982C109.878 98.2169 108.449 108.031 108.449 108.031C108.449 108.031 108.978 108.718 109.95 109.033Z" fill="#1E3D70"/>
<path d="M141.713 89.7615C141.67 92.1508 141.527 94.8262 141.341 97.5445C141.327 97.7018 141.313 97.8735 141.313 98.0309C141.198 99.7191 141.07 101.407 140.913 103.053C140.855 103.711 140.784 104.369 140.727 105.013L140.713 105.099C140.713 105.342 140.684 105.599 140.655 105.842C140.055 112.009 139.412 116.887 139.298 116.959C139.155 117.059 138.998 117.102 138.826 117.073C137.212 116.873 132.382 117.231 128.439 116.372C125.11 115.671 122.238 114.341 119.194 112.538C118.794 112.295 117.865 111.665 117.951 111.193C118.023 110.678 118.165 109.92 118.337 108.976C118.937 105.699 119.966 100.048 120.323 93.4384C120.394 92.208 120.494 90.9919 120.623 89.7901C120.966 86.6712 121.509 83.724 122.238 81.0915C123.595 76.2129 125.581 72.4788 128.082 71.0195C128.41 70.8335 130.168 71.9494 131.768 72.9938C133.254 73.9524 134.826 74.2099 136.34 74.0812L137.683 75.5691C139.312 77.4576 141.041 79.9756 141.513 83.5523C141.541 83.8098 141.584 84.096 141.598 84.3964C141.713 85.8557 141.756 87.7013 141.713 89.7615Z" fill="#2A4E96"/>
<path d="M141.713 89.7613C141.67 92.1505 141.527 94.8259 141.341 97.5442C141.327 97.7016 141.313 97.8733 141.313 98.0307C132.082 92.2507 130.654 81.6636 130.654 81.6636C135.197 81.8639 138.798 82.9083 141.584 84.3962C141.713 85.8555 141.756 87.7011 141.713 89.7613Z" fill="#1E3D70"/>
<path d="M170.633 80.0471C170.161 78.7594 169.418 78.8453 169.418 78.8453C169.418 78.8453 155.687 82.2646 154.458 82.422C153.229 82.5651 139.684 77.1284 139.684 77.1284C139.684 77.1284 134.354 74.7392 131.854 76.9138C129.682 78.8167 129.582 81.2202 130.096 83.2518C130.696 85.6554 132.74 87.4437 135.197 87.7585C140.727 88.4595 151.758 89.79 154.058 89.461C159.202 88.7456 170.861 82.0071 170.861 82.0071C170.861 82.0071 171.004 81.0628 170.633 80.0471Z" fill="#2A4E96"/>
<path d="M305.958 105.242C305.958 105.242 307.858 107.016 307.487 108.275C307.115 109.534 305.401 110.364 305.158 111.909C304.915 113.454 304.001 114.284 303.158 114.284C302.314 114.284 299.171 114.284 299.171 114.284C299.171 114.284 298.557 113.196 300.043 112.882C301.529 112.553 302.086 110.75 302 109.076C301.9 107.402 302.143 105.17 302.143 105.17L305.301 104.426L305.958 105.242Z" fill="#2C3A64"/>
<path d="M282.196 114.055C281.996 114.155 281.325 114.212 280.396 114.269H271.366C271.394 113.997 271.609 113.039 273.08 112.81C274.752 112.538 277.638 111.565 278.281 109.433C278.31 109.362 278.324 109.29 278.338 109.219C278.853 106.944 282.568 109.92 282.568 109.92C282.568 109.92 282.582 110.006 282.596 110.163C282.682 111.007 282.911 113.711 282.196 114.055Z" fill="#2C3A64"/>
<path d="M273.523 53.036C273.523 53.036 274.095 60.0893 274.752 68.5733C275.652 80.1046 276.738 94.2541 276.852 96.9438C277.038 101.608 277.781 109.047 277.781 109.047C277.781 109.047 279.553 110.822 283.082 110.078C283.082 110.078 286.226 99.4475 287.126 88.188C287.14 88.002 287.154 87.816 287.169 87.6301C288.012 76.1702 289.312 52.0488 289.312 52.0488L273.523 53.036Z" fill="#35488B"/>
<path d="M273.523 53.036C273.523 53.036 274.095 60.0893 274.752 68.5733L287.126 88.188C287.14 88.0021 287.154 87.8161 287.169 87.6301C288.012 76.1703 289.312 52.0488 289.312 52.0488L273.523 53.036Z" fill="#2C3A64"/>
<path d="M276.109 53.8656C276.109 53.8656 286.297 79.432 292.984 91.4498C299.685 103.468 301.771 106.815 301.771 106.815C301.771 106.815 305.615 105.285 305.958 104.226C305.958 104.226 303.4 81.0344 298.914 75.3832C296.385 72.1927 293.398 62.6071 293.27 59.245C293.127 55.8972 292.37 49.2588 292.37 49.2588L276.109 53.8656Z" fill="#35488B"/>
<path d="M244.689 40.0022C244.689 40.0022 241.932 39.3727 241.46 39.4013C240.988 39.43 239.374 40.1167 239.345 40.2454C239.317 40.3742 239.402 40.4887 239.688 40.503C239.974 40.5173 240.888 40.4028 240.831 40.5173C240.774 40.6317 238.102 41.1468 238.074 41.6904C238.045 42.2341 239.502 43.2213 240.731 43.2928C241.96 43.3644 244.389 41.9194 244.603 41.905C246.375 41.7477 244.689 40.0022 244.689 40.0022Z" fill="#FFB27D"/>
<path d="M243.503 40.7031C243.103 39.4441 243.203 39.2438 243.203 39.2438C243.203 39.2438 254.405 33.1777 255.42 32.5625C256.449 31.9473 268.022 19.6147 268.022 19.6147L279.882 22.8767C279.882 22.8767 261.535 36.8689 258.906 38.3711C254.563 40.8605 244.503 42.2769 244.503 42.2769C244.503 42.2769 243.818 41.7046 243.503 40.7031Z" fill="#E58638"/>
<path d="M271.623 13.62C271.623 13.62 267.465 20.9451 263.407 21.9037C263.407 21.9037 263.579 19.4429 264.564 17.769C264.164 17.2968 263.807 16.8533 263.493 16.4527C262.464 15.1365 261.978 14.3353 261.978 14.3353L263.35 10.6298L264.279 8.11182C264.722 8.92731 265.222 9.62835 265.736 10.2149C268.422 13.2766 271.623 13.62 271.623 13.62Z" fill="#FFB27D"/>
<path d="M265.765 10.2149C265.765 10.2149 266.265 13.8775 263.493 16.4527C262.464 15.1365 261.978 14.3353 261.978 14.3353L263.35 10.6298C264.836 10.172 265.765 10.2149 265.765 10.2149Z" fill="#ED975D"/>
<path d="M260.892 14.8792C260.892 14.8792 267.108 12.4614 265.536 8.61281C263.964 4.76425 263.721 1.85995 259.678 3.24772C255.648 4.63549 255.477 6.40955 255.691 7.82593C255.906 9.22801 259.235 15.4086 260.892 14.8792Z" fill="#FFB27D"/>
<path d="M292.955 51.1902C290.455 54.7955 271.723 59.617 271.951 57.1133C272.037 56.1547 272.151 54.4808 271.951 52.1917C271.908 51.6623 271.837 51.09 271.751 50.4892C271.28 47.2129 270.151 42.9923 267.622 38.1137C267.436 37.7417 267.236 37.384 267.036 37.0121C265.993 35.1235 265.107 33.1206 264.436 31.1748C263.135 27.4264 262.621 23.8354 263.264 21.4748C263.264 21.4605 263.264 21.4462 263.278 21.4462C267.193 19.6292 268.708 12.6045 268.708 12.6045C268.708 12.6045 282.068 15.0081 289.54 32.8344C289.555 32.8201 295.141 48.057 292.955 51.1902Z" fill="#EE9849"/>
<path d="M271.951 52.1916C271.909 51.6623 271.837 51.09 271.751 50.4891C271.28 47.2128 270.151 42.9923 267.622 38.1137C268.051 35.4812 268.651 33.3065 269.308 32.3194C271.966 28.3277 273.523 27.6982 273.523 27.6982C273.523 27.6982 277.524 44.5661 271.951 52.1916Z" fill="#E58638"/>
<path d="M250.905 48.186C250.905 48.186 247.204 48.3863 246.633 48.5866C246.061 48.7869 244.261 50.2319 244.275 50.4036C244.289 50.5753 244.432 50.6897 244.789 50.6039C245.147 50.5324 246.261 50.0459 246.232 50.2033C246.204 50.3607 243.046 51.9774 243.189 52.6641C243.346 53.3508 245.532 54.0805 247.104 53.7228C248.676 53.3651 251.205 50.6897 251.462 50.6039C253.634 49.7741 250.905 48.186 250.905 48.186Z" fill="#FFB27D"/>
<path d="M250.204 49.5879C249.461 48.3861 250.004 47.8425 250.004 47.8425C250.004 47.8425 261.421 38.9007 262.307 37.985C263.207 37.0837 267.351 22.691 267.351 22.691C267.351 22.691 268.779 16.8681 272.123 16.2243C275.023 15.6663 277.038 17.097 278.338 18.7852C279.896 20.7882 280.053 23.5637 278.753 25.7526C275.838 30.6742 269.965 40.4315 268.251 42.0911C264.436 45.7966 251.648 50.99 251.648 50.99C251.648 50.99 250.79 50.5322 250.204 49.5879Z" fill="#EE9849"/>
<path d="M266.422 1.4593C266.465 1.37346 266.593 1.28762 266.893 1.18747C266.893 1.18747 266.608 1.08732 266.265 1.15886C266.093 0.729652 265.665 0.0143069 264.879 0C264.879 0 265.336 0.114455 265.507 0.572276C264.421 -0.114455 262.392 -0.314752 257.363 1.35915C250.719 3.57672 254.034 7.43958 255.048 7.75434C256.048 8.06909 257.906 6.08043 259.578 5.8086C261.249 5.53677 262.15 7.86879 262.778 8.05478C263.407 8.24077 263.05 7.72572 263.721 7.18206C264.393 6.65271 264.764 7.89741 264.75 8.77013C264.736 9.64285 266.036 10.4726 266.036 10.4726C266.036 10.4726 266.036 10.4726 266.793 9.07057C267.551 7.6685 267.351 2.60385 266.622 1.68821C266.55 1.61668 266.493 1.53084 266.422 1.4593Z" fill="#2B478B"/>
<path d="M375.514 193H0.500095C0.228615 193 0 192.771 0 192.5V192.142C0 191.87 0.228615 191.641 0.500095 191.641H375.514C375.786 191.641 376.014 191.87 376.014 192.142V192.5C376 192.771 375.786 193 375.514 193Z" fill="#5F656D"/>
<path d="M161.431 178.464V185.989L143.642 178.464H161.431Z" fill="#4271BC"/>
<path d="M313.702 114.269H254.863V191.655H313.702V114.269Z" fill="#4A75CB"/>
<path d="M295.556 114.269H236.717V191.655H295.556V114.269Z" fill="#699DEE"/>
<path d="M313.703 114.269V125.843L295.571 114.269H313.703Z" fill="#4271BC"/>
</g>
<defs>
<clipPath id="clip0_4402_12474">
<rect width="376" height="193" fill="white"/>
</clipPath>
</defs>
</svg>
