<svg width="124" height="14" viewBox="0 0 124 14" fill="none" xmlns="http://www.w3.org/2000/svg">
<path d="M1.54745 2.62983H6.30998V1.33039H0V10.5657H1.11176C3.56063 10.5657 5.39353 10.4884 7.45178 10.1017L7.28652 8.78674C5.39353 9.12707 3.74092 9.21989 1.54745 9.23536V2.62983ZM12.0791 5.38343H9.96074V0H8.4133V14H9.96074V6.69834H12.0791V5.38343ZM19.4097 1.60884C21.3177 1.60884 22.5647 2.18121 22.5647 3.17127C22.5647 4.16132 21.3177 4.7337 19.4097 4.7337C17.4866 4.7337 16.2397 4.16132 16.2397 3.17127C16.2397 2.18121 17.4866 1.60884 19.4097 1.60884ZM19.4097 6.01768C22.3093 6.01768 24.2173 4.91934 24.2173 3.17127C24.2173 1.4232 22.3093 0.324864 19.4097 0.324864C16.4951 0.324864 14.6021 1.4232 14.6021 3.17127C14.6021 4.91934 16.4951 6.01768 19.4097 6.01768ZM16.3448 9.59116H14.7824V13.7216H24.2173V12.4221H16.3448V9.59116ZM13.265 6.96133V8.26078H18.7336V10.9061H20.3111V8.26078H25.5694V6.96133H13.265ZM33.9967 11.0298V8.64752H38.2334V7.36354H30.1056V5.41437H37.933V0.990055H28.5581V2.27404H36.4005V4.14585H28.5882V8.64752H32.4493V11.0298H27.1008V12.3448H39.3903V11.0298H33.9967ZM51.8289 6.60553H43.9715V2.53702H51.7238V1.23757H42.4241V7.88951H51.8289V6.60553ZM40.9217 10.8751V12.1901H53.2261V10.8751H40.9217ZM63.4954 9.40552H60.13V5.98674H63.4954V9.40552ZM63.4954 4.71823H60.13V1.16022H58.5826V10.6895H65.0278V1.16022H63.4954V4.71823ZM70.7368 5.38343H68.6185V0.015469H67.071V14H68.6185V6.71382H70.7368V5.38343ZM78.8326 11.0298V8.64752H83.0693V7.36354H74.9415V5.41437H82.7688V0.990055H73.394V2.27404H81.2364V4.14585H73.424V8.64752H77.2852V11.0298H71.9367V12.3448H84.2261V11.0298H78.8326ZM86.4186 1.48509V2.78453H91.1661C90.8506 6.00221 89.0628 8.46188 85.7425 10.2099L86.5989 11.432C91.0309 9.12707 92.7135 5.53813 92.7135 1.48509H86.4186ZM98.3174 5.52265H96.2592V0H94.7117V13.9691H96.2592V6.85304H98.3174V5.52265ZM100.345 1.48509V2.78453H105.182C104.912 6.00221 103.229 8.46188 99.6685 10.2254L100.495 11.4939C105.152 9.17348 106.775 5.64641 106.775 1.48509H100.345ZM109.224 0.015469V13.9845H110.771V0.015469H109.224ZM116.578 10.6586L124 7.6884V6.35801L116.578 3.37237V4.8884L119.959 6.12597L122.242 6.99227V7.05414L119.959 7.90498L116.578 9.15801V10.6586Z" fill="#127BF2"/>
</svg>
