<svg width="24" height="24" viewBox="0 0 24 24" fill="none" xmlns="http://www.w3.org/2000/svg">
<path d="M1.97217 6.94712C2.33579 6.23359 2.76759 5.56466 3.2903 4.94032C5.13114 2.73283 7.49469 1.35037 10.3809 0.904409C13.9263 0.369261 17.0852 1.21658 19.7897 3.58015C19.8579 3.64704 19.8806 3.66934 19.8124 3.75853C18.7897 4.73964 17.7898 5.74304 16.7671 6.74644C16.6989 6.81334 16.6534 6.83563 16.5625 6.74644C15.0399 5.40857 13.2217 4.89572 11.2218 5.20789C8.56283 5.65385 6.79017 7.2147 5.79021 9.64516C5.76748 9.68976 5.74476 9.75665 5.72203 9.80125C5.67658 9.77895 5.63112 9.73435 5.6084 9.71206C4.67661 9.02082 3.76756 8.30729 2.83577 7.61606C2.54033 7.39308 2.26761 7.1701 1.97217 6.94712Z" fill="#DD4436"/>
<path d="M19.8124 20.5265C19.3352 20.9725 18.8124 21.3515 18.267 21.686C16.8807 22.511 15.3808 22.9793 13.7672 23.1577C12.3354 23.3138 10.9264 23.2915 9.54007 22.9347C6.15383 22.1097 3.65392 20.1474 2.01762 17.1372C1.99489 17.1149 1.99489 17.0703 1.97217 17.048C1.99489 17.0257 2.04035 17.0034 2.06307 16.9588C2.88122 16.3345 3.67665 15.7324 4.4948 15.1081C4.90388 14.7959 5.31295 14.4837 5.72203 14.1938C5.99475 14.9297 6.35837 15.6209 6.85835 16.2453C8.08558 17.7615 9.67643 18.6535 11.6309 18.8319C13.2217 18.9656 14.7444 18.6758 16.108 17.8061C16.1307 17.7838 16.1535 17.7838 16.1762 17.7838C16.9262 18.3636 17.6761 18.921 18.4261 19.5008C18.8806 19.8353 19.3352 20.192 19.8124 20.5265Z" fill="#39A153"/>
<path d="M19.8131 20.5266C19.3813 20.2591 18.8131 19.8354 18.3586 19.4786C17.6086 18.8989 16.8359 18.386 16.0859 17.8063C16.5177 17.4941 16.995 17.0927 17.3359 16.6914C17.904 16.0224 18.2677 15.242 18.4495 14.3947C18.4722 14.2609 18.4267 14.2609 18.3131 14.2609C16.3359 14.2609 14.3814 14.2609 12.4042 14.2609C12.1997 14.2609 12.2224 14.2832 12.2224 14.0825C12.2224 12.7223 12.2224 11.3621 12.2224 10.0243C12.2224 9.89046 12.2452 9.86816 12.3815 9.86816C15.8814 9.86816 19.3813 9.86816 22.8811 9.86816C22.9948 9.86816 23.0402 9.91276 23.0629 10.0243C23.1993 10.8493 23.2675 11.652 23.2447 12.477C23.1993 14.3947 22.8129 16.2008 21.8812 17.9178C21.3585 18.8989 20.6767 19.7462 19.8585 20.5044C19.8358 20.5266 19.8131 20.5266 19.8131 20.5266Z" fill="#487ABE"/>
<path d="M5.72376 14.194C5.31469 14.5061 4.90561 14.8183 4.49654 15.1082C3.67838 15.7325 2.88296 16.3346 2.06481 16.9589C2.04208 16.9812 1.99663 17.0035 1.9739 17.0481C1.65573 16.4684 1.40574 15.844 1.22393 15.1974C0.97394 14.3724 0.814855 13.525 0.769403 12.6554C0.65577 10.6932 1.04212 8.82014 1.90572 7.03629C1.92845 6.9917 1.95118 6.9694 1.9739 6.9248C2.26935 7.14779 2.54206 7.37077 2.83751 7.59375C3.76929 8.30728 4.67835 8.99852 5.61013 9.68976C5.65558 9.71206 5.70104 9.75666 5.72376 9.77895C5.56468 10.2695 5.45105 10.7601 5.40559 11.2729C5.31469 12.2094 5.40559 13.146 5.70104 14.0379C5.70104 14.1048 5.72376 14.1494 5.72376 14.194Z" fill="#F0B71B"/>
</svg>
