<svg width="84" height="84" viewBox="0 0 84 84" fill="none" xmlns="http://www.w3.org/2000/svg">
<g filter="url(#filter0_d_5870_19397)">
<circle cx="42" cy="41" r="32" fill="white"/>
</g>
<path d="M43.4892 51.5844V32.3813C43.9595 32.1446 44.3393 31.7603 44.5703 31.2872H54.4293L54.7383 30.6952C54.7694 30.6331 54.8172 30.581 54.8763 30.5446C54.9354 30.5082 55.0035 30.489 55.0729 30.4892C55.1442 30.4881 55.2144 30.5068 55.2757 30.5431C55.3371 30.5795 55.3871 30.6321 55.4204 30.6952L55.7164 31.2872H56.257C56.4098 31.3038 56.5643 31.2881 56.7106 31.2411C56.8569 31.194 56.9916 31.1167 57.106 31.0141C57.2204 30.9114 57.3118 30.7859 57.3745 30.6455C57.4371 30.5052 57.4695 30.3533 57.4695 30.1997C57.4695 30.046 57.4371 29.894 57.3745 29.7537C57.3118 29.6134 57.2204 29.4879 57.106 29.3853C56.9916 29.2826 56.8569 29.2053 56.7106 29.1582C56.5643 29.1112 56.4098 29.0954 56.257 29.112H44.5703C44.3427 28.6397 43.9615 28.2586 43.4892 28.0309V26.9755C43.46 26.7075 43.3328 26.4596 43.1321 26.2796C42.9314 26.0995 42.6713 26 42.4016 26C42.132 26 41.8718 26.0995 41.6711 26.2796C41.4704 26.4596 41.3432 26.7075 41.314 26.9755V28.018C40.8409 28.2491 40.4566 28.6289 40.22 29.0992H28.5462C28.3935 29.0826 28.2389 29.0983 28.0927 29.1453C27.9464 29.1924 27.8117 29.2698 27.6973 29.3724C27.5829 29.475 27.4914 29.6006 27.4288 29.7409C27.3661 29.8812 27.3337 30.0331 27.3337 30.1868C27.3337 30.3404 27.3661 30.4924 27.4288 30.6327C27.4914 30.7731 27.5829 30.8986 27.6973 31.0012C27.8117 31.1038 27.9464 31.1811 28.0927 31.2282C28.2389 31.2753 28.3935 31.291 28.5462 31.2744H29.0868L29.3828 30.6823C29.4149 30.6183 29.4647 30.5648 29.5263 30.5283C29.588 30.4917 29.6588 30.4737 29.7304 30.4763C29.7998 30.4761 29.8678 30.4953 29.927 30.5317C29.9861 30.5681 30.0339 30.6203 30.065 30.6823L30.361 31.2744H40.2715C40.5112 31.7457 40.8942 32.1287 41.3655 32.3684V51.5715L43.4892 51.5844Z" fill="#127BF2"/>
<path d="M55.4219 30.6943C55.3887 30.6312 55.3386 30.5786 55.2772 30.5422C55.2159 30.5059 55.1457 30.4872 55.0744 30.4883C55.005 30.4881 54.9369 30.5073 54.8778 30.5437C54.8187 30.5801 54.7709 30.6323 54.7398 30.6943L54.4309 31.2863L48.8707 42.2651C48.853 42.3195 48.853 42.3781 48.8707 42.4324H49.6816L55.113 31.7239L60.5573 42.4324H61.3682C61.38 42.3773 61.38 42.3202 61.3682 42.2651L55.7179 31.2863L55.4219 30.6943Z" fill="#CCE6FF"/>
<path d="M49.6406 42.4199H48.3535C48.4294 44.156 49.1724 45.7957 50.4277 46.9974C51.683 48.199 53.3537 48.8697 55.0914 48.8697C56.8291 48.8697 58.4997 48.199 59.755 46.9974C61.0103 45.7957 61.7533 44.156 61.8292 42.4199H49.6535H49.6406Z" fill="#127BF2"/>
<path d="M30.0676 30.6945C30.0364 30.6325 29.9886 30.5803 29.9295 30.5439C29.8704 30.5075 29.8023 30.4883 29.7329 30.4885C29.6613 30.4859 29.5905 30.5039 29.5289 30.5405C29.4673 30.577 29.4174 30.6305 29.3854 30.6945L29.0894 31.2865L23.5421 42.2653C23.5302 42.3205 23.5302 42.3775 23.5421 42.4326H24.3529L29.7973 31.7242L35.1258 42.4198H35.9366C35.9543 42.3654 35.9543 42.3068 35.9366 42.2524L30.3636 31.2737L30.0676 30.6945Z" fill="#CCE6FF"/>
<path d="M24.2871 42.4199H23C23.1778 44.0743 23.9609 45.6046 25.1987 46.7165C26.4366 47.8284 28.0417 48.4436 29.7057 48.4436C31.3696 48.4436 32.9748 47.8284 34.2126 46.7165C35.4504 45.6046 36.2335 44.0743 36.4113 42.4199H24.2356H24.2871Z" fill="#127BF2"/>
<path d="M43.4893 51.5977H41.3142H35.5352V53.1422H32.0215V54.6995H52.7177V53.1422H49.204V51.5977H43.4893Z" fill="#127BF2"/>
<defs>
<filter id="filter0_d_5870_19397" x="0" y="0" width="84" height="84" filterUnits="userSpaceOnUse" color-interpolation-filters="sRGB">
<feFlood flood-opacity="0" result="BackgroundImageFix"/>
<feColorMatrix in="SourceAlpha" type="matrix" values="0 0 0 0 0 0 0 0 0 0 0 0 0 0 0 0 0 0 127 0" result="hardAlpha"/>
<feOffset dy="1"/>
<feGaussianBlur stdDeviation="5"/>
<feComposite in2="hardAlpha" operator="out"/>
<feColorMatrix type="matrix" values="0 0 0 0 0 0 0 0 0 0 0 0 0 0 0 0 0 0 0.12 0"/>
<feBlend mode="normal" in2="BackgroundImageFix" result="effect1_dropShadow_5870_19397"/>
<feBlend mode="normal" in="SourceGraphic" in2="effect1_dropShadow_5870_19397" result="shape"/>
</filter>
</defs>
</svg>
