<svg width="84" height="84" viewBox="0 0 84 84" fill="none" xmlns="http://www.w3.org/2000/svg">
<g filter="url(#filter0_d_5870_19382)">
<circle cx="42" cy="41" r="32" fill="white"/>
</g>
<path d="M25.9319 43.5078L25.6855 43.6721L25.9437 43.5078H25.9319Z" fill="#82BFAB"/>
<path d="M38.6015 48.2126C38.0927 47.8017 37.6215 47.3462 37.1936 46.8516L32.0898 50.0194L33.8849 51.1927L34.3777 50.8876C34.4919 50.8024 34.6137 50.7278 34.7414 50.6647L38.6015 48.2126Z" fill="#CCE6FF"/>
<path d="M35.3295 44.0119C35.0603 43.4211 34.8405 42.8089 34.6725 42.1816L27.7502 46.4758L27.5508 46.6049C27.9517 47.1116 28.4038 47.5755 28.9 47.9893L29.1699 47.825L29.6744 47.5082L35.3295 44.0119Z" fill="#CCE6FF"/>
<path d="M34.3193 38.322L39.6928 34.9899L42.0394 33.5468H42.1332L42.2623 33.3943C42.1951 33.3113 42.1459 33.2153 42.1176 33.1123C42.0893 33.0093 42.0827 32.9016 42.098 32.7959C42.1189 32.7102 42.1504 32.6274 42.1919 32.5495L42.2623 32.4791C42.3775 32.3359 42.54 32.2384 42.7205 32.204C42.9011 32.1697 43.088 32.2006 43.2478 32.2914L49.8533 36.4213L51.1908 37.2426C51.3795 37.3799 51.596 37.4742 51.8251 37.5188C52.0541 37.5634 52.2902 37.5573 52.5166 37.5007C52.7313 37.4523 52.9342 37.3619 53.1137 37.2346C53.2932 37.1073 53.4457 36.9457 53.5625 36.7592C53.6792 36.5726 53.7578 36.3649 53.7938 36.1478C53.8297 35.9307 53.8223 35.7086 53.772 35.4944C53.7211 35.2767 53.6275 35.0713 53.4965 34.89C53.3656 34.7087 53.2 34.5553 53.0094 34.4385L44.7261 29.2644C43.9926 28.7827 43.205 28.389 42.3796 28.0911C40.3811 27.4139 38.237 27.2883 36.173 27.7274C35.6957 27.83 35.2254 27.9633 34.7651 28.1263C34.3626 28.2667 33.9706 28.4353 33.5918 28.6308C32.7324 28.8053 31.8389 28.6459 31.0928 28.185L29.239 27.0117L22 38.7444L23.6778 39.7768L24.722 40.4221C25.2441 40.9026 25.6117 41.5274 25.7779 42.2172V42.3815C25.8241 42.6268 25.8829 42.8696 25.9539 43.1089C25.9539 43.2614 26.036 43.4022 26.083 43.543L34.3193 38.322Z" fill="#CCE6FF"/>
<path d="M55.4128 27L53.559 28.1733C52.8129 28.6341 51.9194 28.7936 51.0599 28.6191C50.6812 28.4235 50.2892 28.255 49.8867 28.1146C49.4264 27.9515 48.9562 27.8183 48.4788 27.7157C46.4111 27.2744 44.2626 27.4001 42.2605 28.0794C43.0859 28.3772 43.8735 28.771 44.607 29.2526L52.8903 34.4268C53.0809 34.5436 53.2465 34.697 53.3774 34.8783C53.5083 35.0596 53.6019 35.265 53.6529 35.4827C53.7032 35.6969 53.7106 35.919 53.6746 36.1361C53.6387 36.3531 53.56 36.5609 53.4433 36.7475C53.3266 36.934 53.1741 37.0956 52.9946 37.2229C52.8151 37.3502 52.6121 37.4406 52.3975 37.489C52.1711 37.5455 51.935 37.5517 51.7059 37.5071C51.4769 37.4625 51.2604 37.3682 51.0717 37.2308L49.7342 36.4096L43.2343 32.2797C43.0744 32.1889 42.8875 32.158 42.707 32.1924C42.5264 32.2268 42.364 32.3242 42.2487 32.4674L42.3191 32.5378C42.4036 32.6725 42.4424 32.8309 42.4297 32.9894C42.417 33.1479 42.3536 33.2981 42.2487 33.4177L42.1197 33.5703H42.0258L39.6793 35.0134L34.3057 38.3455L25.9286 43.5196L25.6705 43.6838C25.4555 43.8422 25.2807 44.0491 25.1605 44.2875C25.0402 44.526 24.9778 44.7895 24.9783 45.0566C24.9783 45.5171 25.1612 45.9588 25.4869 46.2844C25.8125 46.61 26.2542 46.793 26.7147 46.793C26.984 46.7921 27.2493 46.7279 27.4891 46.6053L27.6885 46.4762L34.6108 42.182C34.7788 42.8093 34.9985 43.4215 35.2678 44.0123L29.6127 47.5321L29.1082 47.8489C28.9218 48.0105 28.7729 48.2106 28.6716 48.4355C28.5703 48.6604 28.5191 48.9046 28.5215 49.1512C28.5211 49.4884 28.6195 49.8184 28.8046 50.1002C28.9897 50.3821 29.2534 50.6035 29.563 50.7371C29.8726 50.8706 30.2146 50.9106 30.5466 50.8519C30.8787 50.7931 31.1862 50.6383 31.4312 50.4066L32.0061 50.0547L37.1098 46.8869C37.5378 47.3815 38.0089 47.8369 38.5178 48.2478L34.6577 50.5943C34.53 50.6574 34.4082 50.7321 34.294 50.8173C34.1291 50.9713 33.9962 51.1564 33.9029 51.3619C33.8096 51.5673 33.7576 51.7891 33.7499 52.0146C33.7423 52.2401 33.7792 52.4649 33.8584 52.6762C33.9377 52.8875 34.0578 53.0811 34.2119 53.2459C34.366 53.4108 34.551 53.5437 34.7564 53.6371C34.9619 53.7304 35.1837 53.7824 35.4092 53.79C35.6347 53.7977 35.8595 53.7607 36.0708 53.6815C36.2821 53.6022 36.4757 53.4821 36.6405 53.3281L36.6992 53.3985L37.0981 53.1404L40.3715 51.1106L41.3453 50.5122V49.3389C41.3655 48.8815 41.5667 48.4509 41.9044 48.1418C42.2421 47.8326 42.6889 47.6703 43.1463 47.6905C43.6037 47.7108 44.0344 47.9119 44.3435 48.2496C44.6526 48.5873 44.8149 49.034 44.7947 49.4915V54.6773L46.6954 53.5041V53.2577V46.8047C46.7182 46.3913 46.8889 45.9998 47.1764 45.7018C47.3364 45.5347 47.5285 45.4016 47.7412 45.3107C47.954 45.2198 48.1829 45.173 48.4142 45.173C48.6456 45.173 48.8745 45.2198 49.0873 45.3107C49.3 45.4016 49.4921 45.5347 49.652 45.7018C49.9608 46.0142 50.1336 46.4359 50.1331 46.8751V46.9572V51.3922L52.0338 50.2189V45.8075V45.3733C52.1133 44.9871 52.3236 44.6402 52.6293 44.391C52.9349 44.1419 53.3172 44.0058 53.7115 44.0058C54.1059 44.0058 54.4881 44.1419 54.7938 44.391C55.0994 44.6402 55.3098 44.9871 55.3893 45.3733V48.0131C56.7066 46.9572 57.729 45.5792 58.3577 44.0123C58.5699 43.4563 58.7348 42.8832 58.8504 42.2993V42.1351C59.0133 41.444 59.3814 40.8182 59.9064 40.34L60.9506 39.6947L62.6283 38.6623L55.4128 27Z" fill="#127BF2"/>
<path d="M50.1798 46.9455V46.8634C50.168 46.4222 49.9874 46.0022 49.6753 45.6901C49.3632 45.378 48.9433 45.1975 48.502 45.1856C48.2696 45.1833 48.0391 45.2291 47.8251 45.3199C47.6112 45.4107 47.4182 45.5448 47.2584 45.7136C46.9708 46.0116 46.8001 46.403 46.7773 46.8165V53.2694V53.5158C46.8362 53.9234 47.04 54.2963 47.3514 54.5659C47.6628 54.8355 48.0608 54.9839 48.4727 54.9839C48.8846 54.9839 49.2827 54.8355 49.594 54.5659C49.9054 54.2963 50.1092 53.9234 50.1681 53.5158V51.4392V46.9455H50.1798Z" fill="#CCE6FF"/>
<path d="M44.8551 49.5038C44.8753 49.0464 44.713 48.5997 44.4038 48.2619C44.0947 47.9242 43.664 47.7231 43.2066 47.7029C42.7492 47.6826 42.3025 47.8449 41.9647 48.1541C41.627 48.4632 41.4259 48.8938 41.4057 49.3513V51.7682L40.4318 51.1581L37.1584 53.1879L38.9653 54.3611L39.458 54.0561L41.3705 52.8828V56.9188H41.4643C41.5773 57.2946 41.8167 57.6198 42.142 57.8392C42.4673 58.0587 42.8584 58.1589 43.2491 58.123C43.6399 58.0871 44.0062 57.9173 44.286 57.6422C44.5659 57.3672 44.742 57.0038 44.7847 56.6138V54.8539V49.6916L44.8551 49.5038Z" fill="#CCE6FF"/>
<path d="M55.543 45.7247V45.3493C55.4559 44.9684 55.243 44.6281 54.9385 44.3833C54.6341 44.1384 54.2559 44.0034 53.8653 44C53.4752 44.0054 53.0981 44.1412 52.794 44.3857C52.49 44.6302 52.2765 44.9694 52.1875 45.3493V45.7834V50.1949V50.758C52.2464 51.1657 52.4502 51.5384 52.7615 51.808C53.0729 52.0777 53.471 52.2261 53.8829 52.2261C54.2947 52.2261 54.6928 52.0777 55.0042 51.808C55.3156 51.5384 55.5193 51.1657 55.5782 50.758V47.9891V45.7247H55.543Z" fill="#CCE6FF"/>
<path d="M41.4638 53.9623V52.7891L39.5514 53.9623C39.2463 54.1683 39.0157 54.4671 38.8937 54.8144C38.7717 55.1617 38.7648 55.5391 38.8741 55.8906C38.9834 56.2421 39.203 56.549 39.5003 56.7659C39.7977 56.9829 40.1571 57.0983 40.5252 57.095C40.8738 57.0985 41.2146 56.9917 41.499 56.7899V53.9623H41.4638Z" fill="#127BF2"/>
<defs>
<filter id="filter0_d_5870_19382" x="0" y="0" width="84" height="84" filterUnits="userSpaceOnUse" color-interpolation-filters="sRGB">
<feFlood flood-opacity="0" result="BackgroundImageFix"/>
<feColorMatrix in="SourceAlpha" type="matrix" values="0 0 0 0 0 0 0 0 0 0 0 0 0 0 0 0 0 0 127 0" result="hardAlpha"/>
<feOffset dy="1"/>
<feGaussianBlur stdDeviation="5"/>
<feComposite in2="hardAlpha" operator="out"/>
<feColorMatrix type="matrix" values="0 0 0 0 0 0 0 0 0 0 0 0 0 0 0 0 0 0 0.12 0"/>
<feBlend mode="normal" in2="BackgroundImageFix" result="effect1_dropShadow_5870_19382"/>
<feBlend mode="normal" in="SourceGraphic" in2="effect1_dropShadow_5870_19382" result="shape"/>
</filter>
</defs>
</svg>
