<svg width="84" height="84" viewBox="0 0 84 84" fill="none" xmlns="http://www.w3.org/2000/svg">
<g filter="url(#filter0_d_5870_19406)">
<circle cx="42" cy="41" r="32" fill="white"/>
</g>
<path d="M26 27V57.4722C25.9998 57.6975 26.0883 57.9138 26.2464 58.0745C26.3243 58.1556 26.4178 58.2201 26.5213 58.2641C26.6249 58.308 26.7363 58.3304 26.8487 58.33H56.6638V56.6234H27.6975V27H26Z" fill="#CCE6FF"/>
<path d="M55.8782 37.7788C56.217 37.7788 56.542 37.6442 56.7816 37.4046C57.0212 37.165 57.1558 36.84 57.1558 36.5012V31.208C57.1558 30.8691 57.0212 30.5442 56.7816 30.3045C56.542 30.0649 56.217 29.9303 55.8782 29.9303H50.9774C50.7999 29.9154 50.6213 29.9374 50.4528 29.995C50.2842 30.0526 50.1295 30.1446 49.9984 30.2652C49.8673 30.3857 49.7626 30.5321 49.691 30.6952C49.6193 30.8583 49.5824 31.0344 49.5824 31.2125C49.5824 31.3906 49.6193 31.5668 49.691 31.7299C49.7626 31.893 49.8673 32.0394 49.9984 32.16C50.1295 32.2805 50.2842 32.3725 50.4528 32.4301C50.6213 32.4877 50.7999 32.5098 50.9774 32.4948H52.6931L43.6491 43.1815L43.6035 39.9691C43.5993 39.7073 43.5148 39.453 43.3614 39.2408C43.2079 39.0286 42.993 38.8687 42.7457 38.7827C42.5013 38.6934 42.2354 38.6814 41.984 38.7483C41.7326 38.8153 41.5079 38.9579 41.3402 39.1568L29.4763 53.1564C29.3678 53.2846 29.2857 53.4329 29.2345 53.5929C29.1834 53.7529 29.1643 53.9214 29.1783 54.0887C29.1923 54.2561 29.2391 54.4191 29.316 54.5683C29.393 54.7176 29.4986 54.8503 29.6268 54.9587C29.7551 55.0672 29.9034 55.1494 30.0634 55.2005C30.2234 55.2516 30.3919 55.2707 30.5592 55.2567C30.7266 55.2428 30.8896 55.196 31.0389 55.119C31.1881 55.042 31.3208 54.9364 31.4293 54.8082L41.0756 43.4279L41.1212 46.6403C41.1247 46.901 41.2079 47.1544 41.3596 47.3665C41.5113 47.5786 41.7243 47.7392 41.9699 47.8267C42.216 47.9141 42.4827 47.9251 42.7351 47.8583C42.9875 47.7915 43.2138 47.6501 43.3845 47.4525L54.6096 34.1922V36.5012C54.612 36.8377 54.7461 37.16 54.9832 37.3988C55.2204 37.6376 55.5416 37.774 55.8782 37.7788Z" fill="#127BF2"/>
<defs>
<filter id="filter0_d_5870_19406" x="0" y="0" width="84" height="84" filterUnits="userSpaceOnUse" color-interpolation-filters="sRGB">
<feFlood flood-opacity="0" result="BackgroundImageFix"/>
<feColorMatrix in="SourceAlpha" type="matrix" values="0 0 0 0 0 0 0 0 0 0 0 0 0 0 0 0 0 0 127 0" result="hardAlpha"/>
<feOffset dy="1"/>
<feGaussianBlur stdDeviation="5"/>
<feComposite in2="hardAlpha" operator="out"/>
<feColorMatrix type="matrix" values="0 0 0 0 0 0 0 0 0 0 0 0 0 0 0 0 0 0 0.12 0"/>
<feBlend mode="normal" in2="BackgroundImageFix" result="effect1_dropShadow_5870_19406"/>
<feBlend mode="normal" in="SourceGraphic" in2="effect1_dropShadow_5870_19406" result="shape"/>
</filter>
</defs>
</svg>
