<svg width="112" height="26" viewBox="0 0 112 26" fill="none" xmlns="http://www.w3.org/2000/svg">
<path d="M38.68 14.12L39.032 12.824C39.384 11.592 39.736 10.248 40.04 8.952H40.104C40.456 10.232 40.776 11.592 41.144 12.824L41.496 14.12H38.68ZM42.84 19H45.32L41.512 7.16H38.728L34.936 19H37.336L38.168 15.96H42.008L42.84 19ZM46.514 22.44H48.85V19.72L48.786 18.248C49.474 18.872 50.226 19.224 51.01 19.224C52.978 19.224 54.818 17.448 54.818 14.376C54.818 11.624 53.506 9.816 51.298 9.816C50.338 9.816 49.41 10.328 48.658 10.968H48.594L48.434 10.04H46.514V22.44ZM50.482 17.288C50.002 17.288 49.426 17.112 48.85 16.616V12.68C49.474 12.056 50.018 11.752 50.626 11.752C51.858 11.752 52.402 12.696 52.402 14.408C52.402 16.36 51.57 17.288 50.482 17.288ZM56.8109 22.44H59.1469V19.72L59.0829 18.248C59.7709 18.872 60.5229 19.224 61.3069 19.224C63.2749 19.224 65.1149 17.448 65.1149 14.376C65.1149 11.624 63.8029 9.816 61.5949 9.816C60.6349 9.816 59.7069 10.328 58.9549 10.968H58.8909L58.7309 10.04H56.8109V22.44ZM60.7789 17.288C60.2989 17.288 59.7229 17.112 59.1469 16.616V12.68C59.7709 12.056 60.3149 11.752 60.9229 11.752C62.1549 11.752 62.6989 12.696 62.6989 14.408C62.6989 16.36 61.8669 17.288 60.7789 17.288ZM74.4608 19.224C77.1968 19.224 78.8128 17.576 78.8128 15.64C78.8128 13.928 77.8688 13.016 76.4288 12.424L74.8768 11.768C73.8688 11.368 73.0208 11.064 73.0208 10.216C73.0208 9.432 73.6927 8.968 74.7328 8.968C75.7088 8.968 76.4928 9.32 77.2448 9.944L78.4448 8.456C77.4848 7.48 76.1088 6.936 74.7328 6.936C72.3328 6.936 70.6368 8.424 70.6368 10.36C70.6368 12.088 71.8368 13.048 73.0368 13.544L74.6208 14.216C75.6768 14.664 76.3968 14.936 76.3968 15.816C76.3968 16.648 75.7408 17.176 74.5088 17.176C73.4688 17.176 72.3488 16.648 71.5008 15.864L70.1408 17.496C71.2928 18.6 72.8768 19.224 74.4608 19.224ZM83.4971 19.224C84.2811 19.224 84.9051 19.048 85.3851 18.888L85.0011 17.176C84.7611 17.272 84.4091 17.368 84.1211 17.368C83.3211 17.368 82.9051 16.888 82.9051 15.864V11.896H85.1131V10.04H82.9051V7.64H80.9371L80.6651 10.04L79.2891 10.152V11.896H80.5531V15.864C80.5531 17.88 81.3691 19.224 83.4971 19.224ZM90.383 19.224C92.623 19.224 94.687 17.496 94.687 14.536C94.687 11.544 92.623 9.816 90.383 9.816C88.143 9.816 86.079 11.544 86.079 14.536C86.079 17.496 88.143 19.224 90.383 19.224ZM90.383 17.304C89.167 17.304 88.479 16.216 88.479 14.536C88.479 12.84 89.167 11.736 90.383 11.736C91.599 11.736 92.287 12.84 92.287 14.536C92.287 16.216 91.599 17.304 90.383 17.304ZM96.6546 19H98.9906V13.656C99.5026 12.36 100.351 11.896 101.055 11.896C101.423 11.896 101.679 11.944 101.983 12.04L102.399 10.008C102.127 9.896 101.839 9.816 101.343 9.816C100.415 9.816 99.4546 10.456 98.7986 11.624H98.7346L98.5746 10.04H96.6546V19ZM107.324 19.224C108.444 19.224 109.58 18.84 110.46 18.232L109.66 16.792C109.02 17.192 108.38 17.416 107.644 17.416C106.316 17.416 105.356 16.648 105.164 15.176H110.684C110.748 14.968 110.796 14.536 110.796 14.104C110.796 11.624 109.516 9.816 107.052 9.816C104.908 9.816 102.876 11.624 102.876 14.536C102.876 17.48 104.828 19.224 107.324 19.224ZM105.132 13.624C105.308 12.312 106.14 11.64 107.084 11.64C108.236 11.64 108.78 12.408 108.78 13.624H105.132Z" fill="#333333"/>
<g clip-path="url(#clip0_4395_13408)">
<path d="M20.884 18.9242C20.5362 19.7278 20.1245 20.4675 19.6475 21.1475C18.9972 22.0746 18.4649 22.7163 18.0546 23.0726C17.4185 23.6575 16.7371 23.9571 16.0073 23.9741C15.4835 23.9741 14.8517 23.8251 14.1163 23.5227C13.3785 23.2217 12.7004 23.0726 12.0804 23.0726C11.4302 23.0726 10.7328 23.2217 9.98693 23.5227C9.23988 23.8251 8.63807 23.9827 8.17794 23.9983C7.47817 24.0281 6.78067 23.72 6.08444 23.0726C5.64007 22.685 5.08426 22.0206 4.41841 21.0794C3.70402 20.0742 3.11668 18.9086 2.65656 17.5798C2.16378 16.1444 1.91675 14.7545 1.91675 13.4089C1.91675 11.8676 2.24981 10.5381 2.91693 9.4241C3.44123 8.52926 4.13873 7.82337 5.01171 7.30518C5.88469 6.78699 6.82794 6.52292 7.84374 6.50603C8.39956 6.50603 9.12844 6.67795 10.0342 7.01584C10.9374 7.35487 11.5174 7.5268 11.7716 7.5268C11.9617 7.5268 12.606 7.32577 13.6982 6.92498C14.731 6.5533 15.6027 6.39941 16.3168 6.46003C18.2519 6.6162 19.7057 7.37901 20.6725 8.75328C18.9419 9.80188 18.0858 11.2706 18.1028 13.1547C18.1185 14.6222 18.6508 15.8435 19.6972 16.8131C20.1713 17.2632 20.7009 17.611 21.2901 17.858C21.1623 18.2286 21.0274 18.5835 20.884 18.9242ZM16.446 1.46038C16.446 2.61064 16.0258 3.68463 15.1882 4.67872C14.1773 5.86048 12.9547 6.54336 11.6288 6.43561C11.6119 6.29761 11.6021 6.15238 11.6021 5.99976C11.6021 4.89551 12.0828 3.71374 12.9365 2.74748C13.3627 2.25825 13.9048 1.85146 14.5621 1.52696C15.218 1.2073 15.8384 1.03052 16.4219 1.00024C16.4389 1.15402 16.446 1.3078 16.446 1.46036V1.46038Z" fill="#333333"/>
</g>
<defs>
<clipPath id="clip0_4395_13408">
<rect width="23" height="23" fill="white" transform="translate(0 1)"/>
</clipPath>
</defs>
</svg>
