<svg width="61" height="23" viewBox="0 0 61 23" fill="none" xmlns="http://www.w3.org/2000/svg">
<path d="M61 2C61 1.28571 60 1.83171e-07 58 0L58 10C59.92 10 61 9.99989 61 7.64697L61 2Z" fill="#2D84AA"/>
<path d="M0 19C0 21.2091 1.79086 23 4 23H56C58.7614 23 61 20.7614 61 18V6H4C1.79086 6 0 7.79086 0 10V19Z" fill="#2C80A5"/>
<path d="M0 18C0 20.2091 1.79086 22 4 22H58V4H4C1.79086 4 0 5.79086 0 8V18Z" fill="#00ACF5"/>
<path d="M10.98 10.4601H11.91V13.0701C11.6 13.0901 11.29 13.1001 10.98 13.1101V10.4601ZM14.22 12.8901C13.88 12.9301 13.53 12.9701 13.17 13.0001V10.4601H13.9V9.41014H8.99V10.4601H9.71V13.1301L8.75 13.1401L8.89 14.2101C10.42 14.2101 12.5 14.1701 14.31 13.8501L14.22 12.8901ZM11.43 14.8001H10.11V17.7001H16.38V16.6501H11.43V14.8001ZM16.05 11.2501V8.65014H14.73V15.4301H16.05V12.3401H17.27V11.2501H16.05Z" fill="white"/>
<path d="M18.4892 10.6301H19.6692V14.5301H18.4892V10.6301ZM17.2592 15.5601H20.8892V9.59014H17.2592V15.5601ZM23.6492 8.64014V12.1601H22.8792V8.79014H21.6492V17.4401H22.8792V13.2201H23.6492V17.8501H24.8992V8.64014H23.6492Z" fill="white"/>
<path d="M28.5784 10.6201H30.4084V9.53014H25.3484V10.6201H27.2584V11.1301C27.2584 12.6501 26.5084 14.3801 24.9984 15.0801L25.7384 16.1301C26.7884 15.6301 27.5284 14.6201 27.9384 13.4201C28.3484 14.5101 29.0684 15.4301 30.0884 15.9001L30.8184 14.8601C29.3084 14.1601 28.5784 12.5301 28.5784 11.1301V10.6201ZM33.7484 12.1601H32.4084V8.65014H31.0884V17.8601H32.4084V13.2501H33.7484V12.1601Z" fill="white"/>
<path d="M38.2233 10.6201H40.1233V9.53014H34.9633V10.6201H36.8833V11.1301C36.8833 12.7001 36.1333 14.3901 34.5933 15.0801L35.3433 16.1301C36.4233 15.6401 37.1633 14.6301 37.5733 13.4301C37.9833 14.5401 38.7133 15.4401 39.7833 15.9001L40.5033 14.8601C38.9633 14.2201 38.2233 12.6301 38.2233 11.1301V10.6201ZM40.9733 8.65014V17.8601H42.2933V8.65014H40.9733Z" fill="white"/>
<path d="M47.5625 14.0001V14.9001H49.2925V15.6301H50.6125V8.65014H49.2925V14.0001H47.5625ZM45.7925 9.92014C46.4025 9.92014 46.8325 10.1601 46.8325 10.6101C46.8325 11.0601 46.4025 11.2901 45.7925 11.2901C45.1725 11.2901 44.7425 11.0601 44.7425 10.6101C44.7425 10.1601 45.1725 9.92014 45.7925 9.92014ZM45.7925 12.2501C47.1325 12.2501 48.0825 11.5901 48.0825 10.6101C48.0825 9.63014 47.1325 8.96014 45.7925 8.96014C44.4425 8.96014 43.4925 9.63014 43.4925 10.6101C43.4925 11.5901 44.4425 12.2501 45.7925 12.2501ZM45.3025 16.6501V15.3901H46.5725V13.6501C47.3125 13.6001 48.0525 13.5201 48.7725 13.3901L48.6825 12.4501C46.7425 12.7001 44.5025 12.7201 42.8225 12.7301L42.9925 13.7801C43.6825 13.7801 44.4525 13.7701 45.2625 13.7301V14.9601H43.9825V17.7001H50.8125V16.6501H45.3025Z" fill="white"/>
<path d="M61 17.3099C61 21.2183 58.75 21.9999 58 21.9999V4C60.5 4 61 3 61 2V17.3099Z" fill="#00ACF5"/>
</svg>
