<svg width="440" height="278" viewBox="0 0 440 278" fill="none" xmlns="http://www.w3.org/2000/svg">
<path d="M15.2329 228C15.2329 228 12.671 239.268 24.5415 242.205C40.7756 246.213 136.071 256.741 112.92 264.742C99.8521 269.258 119.592 275.39 183.246 277.648C246.9 279.906 356.123 271.059 319.393 257.968C282.664 244.878 432.716 255.228 423.6 228.002L15.2329 228Z" fill="#CFDDF9"/>
<path d="M86.996 226.795C86.996 226.795 38.9266 122.727 73.5192 99.5536C96.6394 84.0594 121.148 118.21 150.399 100.143C176.44 84.0594 140.133 43.5523 183.591 32.9553C229.262 21.816 266.68 112.027 305.002 99.5536C351.51 84.4179 397.759 115.143 357.785 227L86.996 226.795Z" fill="#D4E8FF"/>
<path d="M50.0902 218C49.2842 215.933 48.4869 213.791 47.7208 211.632L49.6101 211.162C50.371 213.306 51.1701 215.435 51.9639 217.489L50.0902 218ZM388.123 215.33L386.166 215.128C386.49 212.927 386.798 210.71 387.083 208.544L389.043 208.725C388.757 210.897 388.448 213.122 388.123 215.33ZM45.5437 205.225C44.8504 203.092 44.1848 200.921 43.5556 198.769L45.4623 198.376C46.088 200.52 46.7536 202.674 47.44 204.793L45.5437 205.225ZM389.849 202.104L387.887 201.951C388.136 199.742 388.367 197.511 388.58 195.344L390.546 195.475C390.331 197.649 390.1 199.88 389.849 202.098V202.104ZM41.753 192.268C41.1845 190.096 40.6419 187.9 40.1427 185.74L42.0789 185.434C42.5746 187.577 43.1188 189.764 43.6787 191.922L41.753 192.268ZM391.104 188.824L389.137 188.719C389.31 186.51 389.45 184.279 389.572 182.099L391.541 182.175C391.419 184.371 391.269 186.606 391.104 188.824ZM38.7214 179.178C38.2829 176.979 37.8773 174.762 37.5081 172.594L39.4615 172.367C39.8203 174.526 40.2242 176.729 40.6593 178.914L38.7214 179.178ZM391.834 175.523L389.863 175.475C389.939 173.257 389.993 171.026 390.021 168.847L391.991 168.864C391.972 171.054 391.919 173.294 391.842 175.523H391.834ZM36.527 165.969C36.2324 163.747 35.9776 161.513 35.7661 159.329L37.7317 159.197C37.9397 161.365 38.1945 163.582 38.4857 165.781L36.527 165.969ZM390.028 162.218C390.005 159.999 389.955 157.778 389.878 155.593L391.849 155.544C391.926 157.732 391.976 159.973 392 162.204L390.028 162.218ZM35.2583 152.671C35.1265 150.437 35.0399 148.194 35 146.005L36.9708 145.979C37.0106 148.15 37.0973 150.375 37.2273 152.592L35.2583 152.671ZM389.57 148.972C389.435 146.755 389.268 144.532 389.076 142.361L391.041 142.238C391.236 144.422 391.402 146.659 391.539 148.888L389.57 148.972ZM36.9898 139.369L35.0191 139.336C35.0745 137.094 35.1803 134.851 35.3345 132.666L37.3018 132.763C37.1528 134.929 37.0436 137.145 36.9898 139.369ZM388.391 135.763C388.128 133.546 387.83 131.333 387.506 129.18L389.461 128.973C389.788 131.137 390.088 133.366 390.353 135.597L388.391 135.763ZM37.9276 126.17L35.9655 126.004C36.2324 123.774 36.56 121.543 36.9361 119.375L38.8861 119.618C38.5152 121.762 38.1928 123.962 37.9276 126.17ZM386.401 122.628C385.992 120.427 385.535 118.232 385.063 116.107L387.001 115.801C387.483 117.945 387.937 120.156 388.35 122.374L386.401 122.628ZM153.259 122.396C150.52 122.034 148.539 120.99 145.793 119.188L147.04 117.908C149.444 119.483 151.18 120.428 153.468 120.754L153.259 122.396ZM160.098 118.468L158.343 117.718C159.246 116.239 160.043 114.186 160.714 111.617L162.645 111.963C161.924 114.719 161.085 116.841 160.098 118.468ZM140.009 114.454C138.439 112.99 136.759 111.304 134.879 109.303L136.427 108.282C138.283 110.256 139.933 111.914 141.476 113.351L140.009 114.454ZM40.2034 113.1L38.2673 112.794C38.7786 110.591 39.3558 108.394 39.985 106.265L41.8917 106.662C41.2781 108.757 40.7078 110.925 40.2034 113.1ZM383.469 109.628C382.885 107.449 382.255 105.287 381.597 103.197L383.503 102.776C384.167 104.878 384.803 107.063 385.393 109.26L383.469 109.628ZM163.965 105.327L162.01 105.116C162.314 103.147 162.586 100.989 162.84 98.5212L164.804 98.6636C164.551 101.155 164.272 103.333 163.965 105.327ZM130.058 103.986C128.455 102.174 126.795 100.259 125.361 98.6054L126.957 97.6362C128.387 99.2868 130.046 101.198 131.637 103.003L130.058 103.986ZM274.374 103.848C272.792 103.836 271.243 103.441 269.897 102.707L270.949 101.311C273.105 102.45 275.225 102.453 277.516 101.544L278.364 103.033C277.115 103.553 275.754 103.83 274.374 103.848ZM43.9959 100.294L42.11 99.8104C42.8935 97.6669 43.7532 95.534 44.665 93.4717L46.5127 94.0489C45.6148 96.0776 44.769 98.1828 43.9959 100.294ZM284.81 98.7202L283.363 97.601C285.109 95.9844 286.744 94.2778 288.261 92.4902L289.858 93.4579C288.295 95.2989 286.609 97.0562 284.81 98.7202ZM264.291 97.5857C262.852 95.6881 261.561 93.7064 260.426 91.6543L262.208 90.9469C263.305 92.9337 264.554 94.852 265.947 96.6885L264.291 97.5857ZM379.421 96.8554C378.628 94.7118 377.78 92.6112 376.903 90.5978L378.754 90.0328C379.642 92.0707 380.5 94.2005 381.304 96.3654L379.421 96.8554ZM120.681 93.2252C118.878 91.1612 117.374 89.4678 115.951 87.8939L117.523 86.8971C118.953 88.4788 120.47 90.1798 122.272 92.256L120.681 93.2252ZM165.401 92.0003L163.433 91.8931C163.584 89.9593 163.735 87.7867 163.898 85.2497L165.867 85.3385C165.7 87.8801 165.548 90.0589 165.397 91.9987L165.401 92.0003ZM49.468 87.9352L47.6653 87.2692C48.7469 85.2175 49.9024 83.2052 51.1319 81.2321L52.8809 81.9977C51.6698 83.936 50.5322 85.9152 49.468 87.9352ZM294.373 87.9352L292.726 87.0288C294.127 85.2451 295.574 83.3542 297.039 81.448L298.698 82.3406C297.229 84.2499 295.78 86.1439 294.376 87.9352H294.373ZM257.254 85.4947C256.361 83.6191 255.438 81.5735 254.432 79.2402L256.287 78.6798C257.285 80.9963 258.193 83.025 259.084 84.8838L257.254 85.4947ZM374.003 84.4658C372.942 82.3988 371.821 80.39 370.67 78.4945L372.427 77.7458C373.597 79.6704 374.736 81.7113 375.814 83.8105L374.003 84.4658ZM111.084 82.6637C109.295 80.8049 107.629 79.1514 105.993 77.6111L107.468 76.5148C109.125 78.0796 110.81 79.7531 112.619 81.6332L111.084 82.6637ZM166.274 78.6828L164.305 78.5986C164.437 76.3939 164.57 74.1876 164.711 71.943L166.68 72.0302C166.538 74.2702 166.406 76.475 166.274 78.6798V78.6828ZM303.019 76.769L301.376 75.8595C303.022 73.7726 304.495 71.9675 305.882 70.3476L307.487 71.3045C306.114 72.906 304.653 74.6959 303.019 76.7659V76.769ZM56.7825 76.3096L55.122 75.4216C56.5644 73.5122 58.1505 71.6907 59.8696 69.9694L61.3758 71.0412C59.7132 72.7014 58.1786 74.4585 56.7825 76.3005V76.3096ZM251.801 72.952C250.896 70.7334 250.009 68.5118 249.262 66.6362L251.132 66.1141C251.879 67.9897 252.765 70.2052 253.666 72.4191L251.801 72.952ZM100.573 72.8356C98.7031 71.3004 96.7355 69.8609 94.6797 68.524L95.8826 67.2165C97.9991 68.5931 100.025 70.0755 101.949 71.6567L100.573 72.8356ZM366.843 72.7652C365.43 70.836 363.95 69.0109 362.44 67.3405L364.012 66.3453C365.56 68.0586 367.078 69.928 368.519 71.9032L366.843 72.7652ZM66.9051 66.5351L65.7091 65.223C67.9078 63.7868 70.3706 62.6965 72.989 62.0001L73.5679 63.5801C71.1711 64.2194 68.9171 65.219 66.9051 66.5351ZM312.238 66.0299L310.708 64.9903C312.392 63.2341 314.18 61.5573 316.064 59.9668L317.45 61.1335C315.618 62.6845 313.878 64.3189 312.238 66.0299ZM167.12 65.3807L165.153 65.2827C165.326 62.8835 165.499 60.7048 165.673 58.6225L167.638 58.7404C167.46 60.8242 167.292 62.9891 167.12 65.3807ZM88.1676 65.0347C85.7081 64.0104 83.2884 63.3505 80.9761 63.0917L81.2448 61.4565C83.7685 61.7459 86.3945 62.4533 89.0447 63.5572L88.1676 65.0347ZM357.37 62.3675C355.56 60.8038 353.606 59.3755 351.529 58.0973L352.69 56.7622C354.856 58.0956 356.893 59.5848 358.781 61.2146L357.37 62.3675ZM246.747 60.3113C245.766 57.8615 244.958 55.8543 244.204 54.0108L246.069 53.4749C246.825 55.323 247.629 57.3287 248.617 59.7876L246.747 60.3113ZM323.359 56.9199L322.229 55.5679C324.474 54.2248 326.926 53.1724 329.509 52.443L330.117 54.0123C327.718 54.6917 325.442 55.6708 323.357 56.9199H323.359ZM344.868 54.8988C342.52 54.0564 340.045 53.522 337.522 53.3126L337.706 51.6698C340.429 51.8944 343.1 52.4701 345.634 53.3785L344.868 54.8988ZM168.267 52.1138L166.304 51.9683C166.55 49.6533 166.824 47.4164 167.099 45.3219L169.058 45.5133C168.779 47.5879 168.512 49.811 168.267 52.1138ZM241.587 47.7333C240.633 45.5071 239.735 43.4723 238.841 41.5125L240.678 40.92C241.576 42.8905 242.479 44.936 243.436 47.173L241.587 47.7333ZM170.061 38.9296L168.11 38.6938C168.508 36.3833 168.947 34.1602 169.413 32.0886L171.351 32.3949C170.89 34.4389 170.457 36.6329 170.061 38.9296ZM235.908 35.356C234.849 33.2216 233.782 31.1807 232.735 29.2898L234.523 28.5962C235.581 30.507 236.659 32.5694 237.728 34.7206L235.908 35.356ZM173.024 25.9352L171.117 25.5356C171.81 23.2313 172.563 21.0602 173.37 19.0835L175.235 19.6179C174.44 21.5455 173.698 23.6707 173.024 25.9306V25.9352ZM229.233 23.366C227.937 21.322 226.613 19.4035 225.297 17.6627L226.963 16.7792C228.304 18.5553 229.654 20.512 230.974 22.5974L229.233 23.366ZM178.191 13.567L176.423 12.8351C177.61 10.7843 179.04 8.85048 180.688 7.06599L182.238 8.08723C180.673 9.78228 179.317 11.6191 178.191 13.567ZM220.778 12.3054C219.165 10.5945 217.399 9.00156 215.495 7.54216L216.816 6.31729C218.799 7.83517 220.639 9.49265 222.319 11.2734L220.778 12.3054ZM187.738 3.80936L186.675 2.41913C189.014 1.1665 191.615 0.343699 194.323 0L194.622 1.63215C192.185 1.94119 189.843 2.68172 187.738 3.80936ZM209.274 3.80936C207.041 2.79123 204.644 2.08125 202.168 1.70411L202.514 0.078086C205.197 0.486493 207.794 1.25479 210.214 2.35635L209.274 3.80936Z" fill="#DCE6FF"/>
<path d="M402.251 181.024C385.844 178.987 387.33 209.599 363.944 209.599C342.561 209.599 331.119 141.205 307.654 155.115C213.325 211.039 286.719 115.874 223.29 114.02C194.606 113.178 175.498 138.795 168.45 184.149C158.234 225.15 134.543 152.875 110.16 159.595C94.6638 163.866 96.4388 209.604 75.0565 209.604C51.6698 209.604 53.21 183.863 36.8117 185.9C19.1461 188.088 15 228 15 228H424C424 228 419.915 183.218 402.251 181.024Z" fill="#EEF7FF"/>
<path d="M385.965 213.092C370.923 212.218 373.378 220.11 351.935 220.11C332.331 220.11 332.877 202.423 319.75 198.665C295.591 191.743 275.672 226.781 266.306 209.193C248.516 162.539 196.631 139.148 172.694 209.193C163.328 226.781 141.423 195.403 119.249 198.665C105.6 200.67 106.669 220.11 87.0634 220.11C65.6216 220.11 68.0766 212.218 53.033 213.092C36.8372 214.033 32 228 32 228H407C407 228 402.163 214.033 385.965 213.092Z" fill="#DCE6FF"/>
<path d="M247.539 154.436L246.545 167.584H174.601L174.54 204.097L86.6623 204.158L86.408 237.49L90.6043 241.686H345.928V157.385L341.986 153.441L247.539 154.436Z" fill="#23659B"/>
<path d="M82.7185 200.215L90.6041 208.102V241.687L82.7185 233.801V200.215Z" fill="#1D3F70"/>
<path d="M170.658 163.641L178.545 171.528V208.102L170.658 200.215V163.641Z" fill="#1D3F70"/>
<path d="M242.601 149.498L250.487 157.385V171.528L242.601 163.641V149.498Z" fill="#1D3F70"/>
<path d="M338.042 149.498L345.928 157.385H250.487L242.601 149.498H338.042Z" fill="#3A72AA"/>
<path d="M170.658 163.641L178.545 171.528H250.487L242.601 163.641H170.658Z" fill="#3A72AA"/>
<path d="M82.7185 200.215L90.6041 208.102H178.544L170.657 200.215H82.7185Z" fill="#3A72AA"/>
<path d="M259.648 82.7103C259.992 83.2374 258.976 83.8579 258.709 84.2991C259.323 84.2872 259.935 84.2195 260.537 84.0969C261.6 83.5596 262.635 82.9688 263.641 82.3243C265.42 82.3105 264.879 86.3659 261.3 87.5134C260.013 87.9256 258.758 88.4327 256.653 88.1125C255.964 88.0052 255.771 86.0625 256.194 85.5232C256.94 84.9426 259.143 82.217 259.648 82.7103Z" fill="#F99370"/>
<path d="M179.84 103.333C180.07 103.919 181.201 103.356 181.746 103.531C181.377 104.029 180.943 104.475 180.456 104.859C179.402 105.417 178.321 105.915 177.216 106.365C176.174 107.809 179.794 109.715 182.8 107.459C183.882 106.647 185.025 105.927 185.978 104.015C186.284 103.392 185.315 102.023 184.628 102.023C183.556 102.019 179.733 102.63 179.84 103.333Z" fill="#E57D61"/>
<path d="M227.065 83.1447C232.025 85.4581 237.177 88.1025 242.712 88.4534C245.948 88.4013 249.201 87.6214 252.312 86.693C253.606 86.3039 254.902 85.8657 256.173 85.4076C257.923 84.7258 259.222 87.3043 257.655 88.3078C253.321 91.2617 248.364 93.5276 243.129 94.2615C239.299 94.6415 235.558 93.7758 231.965 92.6834C229.175 91.8119 226.46 90.7186 223.845 89.414C219.69 87.2446 222.878 81.0258 227.065 83.1447Z" fill="#F99370"/>
<path d="M257.244 88.5838C257.244 88.5838 256.852 88.9224 256.146 89.4541C253.622 91.3523 247.085 95.6728 240.093 95.6008C237.141 95.5706 234.197 95.2861 231.294 94.7505C230.934 94.6831 230.586 94.6157 230.25 94.5452C229.584 94.4073 228.973 94.2664 228.412 94.1285C227.922 94.0079 227.48 93.8905 227.087 93.7761C225.683 93.3793 224.903 93.0744 224.903 93.0744C226.356 86.5446 225.363 82.6562 224.484 80.7334C224.024 79.7299 223.601 79.2596 223.564 79.2305H223.575L223.594 79.2397C223.701 79.281 224.065 79.4296 224.635 79.6702C226.295 80.3749 229.682 81.8748 233.368 83.865C237.255 85.967 243.189 88.852 254.479 85.8981C254.887 85.796 255.306 85.6826 255.734 85.558C255.734 85.558 255.512 87.3199 257.244 88.5838Z" fill="#3A72AA"/>
<path d="M257.948 153.056L247.964 153.416C247.856 153.419 247.748 153.401 247.648 153.362C247.547 153.323 247.456 153.264 247.379 153.188C247.302 153.113 247.241 153.023 247.2 152.923C247.159 152.823 247.139 152.716 247.141 152.608C247.145 152.348 247.166 152.088 247.202 151.83C247.314 150.993 247.347 150.148 247.3 149.305C247.279 148.902 247.24 148.499 247.184 148.099L246.212 141.121C246.197 141.01 246.206 140.897 246.237 140.79C246.268 140.683 246.322 140.584 246.394 140.498C246.466 140.413 246.556 140.344 246.656 140.296C246.757 140.248 246.867 140.221 246.978 140.218L251.385 140.065C251.497 140.061 251.609 140.081 251.713 140.123C251.818 140.166 251.912 140.23 251.989 140.311C252.067 140.393 252.126 140.49 252.163 140.596C252.2 140.703 252.214 140.815 252.204 140.928L251.633 147.338C251.574 148.016 251.765 148.692 252.171 149.238C252.576 149.784 253.168 150.162 253.835 150.301C254.818 150.508 255.812 150.616 256.526 150.774L256.799 150.837C257.565 151.024 258.187 151.283 258.564 151.796C258.649 151.913 258.7 152.05 258.712 152.194C258.725 152.337 258.698 152.482 258.635 152.611C258.571 152.74 258.474 152.85 258.353 152.929C258.232 153.007 258.092 153.051 257.948 153.056Z" fill="#F99370"/>
<path d="M246.843 152.42C246.888 152.907 247.15 153.456 247.718 153.424L258.073 153.05C258.198 153.046 258.319 153.013 258.428 152.952C258.536 152.891 258.628 152.805 258.695 152.7C258.763 152.596 258.804 152.477 258.815 152.353C258.827 152.229 258.807 152.104 258.76 151.99C258.318 150.876 256.829 149.244 251.927 149.145C250.398 149.4 248.843 149.451 247.301 149.298C246.817 150.262 246.657 151.357 246.843 152.42Z" fill="#EB5648"/>
<path d="M258.76 151.988L246.844 152.419C246.896 152.78 247.02 153.128 247.208 153.441L258.074 153.048C258.197 153.045 258.317 153.013 258.425 152.953C258.532 152.894 258.624 152.809 258.692 152.707C258.76 152.605 258.802 152.488 258.816 152.365C258.829 152.243 258.812 152.12 258.768 152.005L258.76 151.988Z" fill="#CE3932"/>
<path d="M255.48 144.517C255.53 145.865 255.536 146.662 255.536 146.662C255.536 146.662 250.566 148.831 245.448 147.455C245.059 147.352 244.676 147.229 244.3 147.086C244.158 146.511 244.021 145.86 243.888 145.149C242.756 139.118 241.815 128.888 238.287 126.201C234.626 123.573 227.849 123.932 223.663 123.732C223.545 123.732 223.428 123.722 223.317 123.714C217.044 123.349 212.132 118.834 208.239 111.928C207.663 110.91 214.971 109.947 214.971 109.947L231.872 108.537C236.221 109.622 243.902 111.175 248.85 116.541C254.147 122.283 255.25 138.623 255.48 144.517Z" fill="#1D3F70"/>
<path d="M245.447 147.454C245.058 147.351 244.675 147.227 244.299 147.085C242.939 141.627 242.229 129.204 238.286 126.199C234.626 123.572 227.848 123.93 223.662 123.731L225.024 120.777C225.024 120.777 236.515 120.909 240.334 126.011C244.154 131.113 245.447 147.454 245.447 147.454Z" fill="#103663"/>
<path d="M222.249 170.215L212.321 169.103C212.214 169.09 212.111 169.056 212.017 169.003C211.923 168.95 211.842 168.878 211.777 168.792C211.712 168.706 211.665 168.608 211.639 168.503C211.613 168.398 211.608 168.29 211.626 168.183C211.668 167.925 211.727 167.669 211.8 167.417C212.035 166.606 212.192 165.775 212.269 164.934C212.307 164.532 212.396 160.491 212.399 160.083C212.399 160.083 217.516 159.57 217.405 160.034L217.038 165.487C217.498 166.713 217.257 166.385 218.58 166.875C219.52 167.224 220.489 167.479 221.172 167.739C221.259 167.773 221.348 167.806 221.432 167.842C222.154 168.139 222.739 168.487 223.038 169.05C223.107 169.178 223.139 169.322 223.132 169.467C223.124 169.612 223.077 169.752 222.996 169.872C222.915 169.992 222.802 170.087 222.67 170.148C222.539 170.208 222.393 170.231 222.249 170.215Z" fill="#F99370"/>
<path d="M211.358 167.957C211.331 168.447 211.511 169.029 212.075 169.08L222.374 170.234C222.497 170.249 222.622 170.233 222.738 170.189C222.855 170.145 222.958 170.073 223.04 169.98C223.123 169.887 223.181 169.775 223.21 169.654C223.239 169.533 223.239 169.407 223.209 169.287C222.935 168.119 221.703 166.285 216.868 165.466C215.319 165.495 213.774 165.319 212.271 164.943C211.652 165.824 211.332 166.881 211.358 167.957Z" fill="#EB5648"/>
<path d="M223.21 169.281L211.359 167.951C211.357 168.319 211.429 168.684 211.569 169.024L222.375 170.234C222.497 170.249 222.62 170.234 222.735 170.191C222.85 170.148 222.953 170.078 223.035 169.987C223.118 169.896 223.177 169.787 223.208 169.668C223.239 169.55 223.242 169.425 223.215 169.306L223.21 169.281Z" fill="#CE3932"/>
<path d="M223.574 79.2265C224.034 77.1245 224.034 74.0174 223.865 72.7243C223.589 70.178 219.532 70.7326 219.934 73.2452C220.07 73.1778 220.006 77.7358 219.594 78.9584C217.119 79.4272 223.675 83.5546 225.56 82.6905C226.747 82.1421 223.574 79.2265 223.574 79.2265Z" fill="#F99370"/>
<path d="M219.917 73.0358C219.917 73.0649 219.917 73.0956 219.917 73.1247C219.917 73.1538 219.917 73.2059 219.928 73.2457C220.026 73.1951 220.023 75.7124 219.836 77.5202C221.457 78.4701 223.389 78.3292 223.743 78.2863C224.019 76.3834 223.969 73.9826 223.907 73.0772C223.882 72.8642 223.862 72.7386 223.859 72.7125C223.85 72.6559 223.841 72.5992 223.827 72.5425C223.764 72.2606 223.64 71.996 223.464 71.767C223.288 71.5381 223.064 71.3504 222.808 71.2172C222.448 71.0315 222.039 70.9602 221.637 71.0131C221.234 71.0659 220.858 71.2403 220.558 71.5129C220.545 71.5236 220.535 71.5359 220.522 71.5451C220.322 71.7371 220.165 71.9691 220.061 72.226C219.957 72.4828 219.908 72.7588 219.917 73.0358Z" fill="#E57D61"/>
<path d="M217.252 69.5704C217.252 69.5704 217.287 67.4255 217.955 65.9531L219.181 66.5522L217.252 69.5704Z" fill="#8E4A35"/>
<path d="M225.095 108.572C225.502 119.231 224.329 134.189 223.466 141.155C222.627 147.964 221.176 157.026 220.516 161.072C220.301 162.387 220.169 163.168 220.169 163.168C220.169 163.168 215.006 165.635 210.103 162.555C210.103 162.555 210.13 161.78 210.163 160.47C210.27 156.292 210.448 146.672 210.053 139.5C209.668 132.502 204.957 120.447 208.24 111.94L225.095 108.572Z" fill="#1D3F70"/>
<path d="M217.222 75.8305C219.131 77.692 222.124 77.9755 224.286 76.7345C224.447 76.636 224.601 76.5259 224.746 76.4051C231.574 69.5245 222.294 58.2698 218.06 68.0981C216.632 70.8651 214.145 72.3542 217.222 75.8305Z" fill="#F99370"/>
<path d="M220.163 70.2543C220.138 70.206 220.128 70.1515 220.135 70.0977C220.141 70.0438 220.163 69.993 220.198 69.9518C220.234 69.9105 220.28 69.8806 220.332 69.8658C220.385 69.8511 220.44 69.8521 220.491 69.8688C220.543 69.8855 220.589 69.9171 220.622 69.9596C220.656 70.0022 220.676 70.0537 220.68 70.1078C220.685 70.1618 220.673 70.216 220.647 70.2633C220.62 70.3107 220.58 70.3491 220.532 70.3738C220.5 70.3903 220.465 70.4002 220.429 70.4031C220.393 70.406 220.357 70.4017 220.323 70.3906C220.288 70.3795 220.257 70.3618 220.229 70.3384C220.202 70.315 220.179 70.2864 220.163 70.2543Z" fill="#C16256"/>
<path d="M217.856 69.8715C217.831 69.8232 217.822 69.7687 217.828 69.7148C217.834 69.661 217.857 69.6102 217.892 69.569C217.927 69.5277 217.974 69.4978 218.026 69.483C218.078 69.4683 218.133 69.4693 218.185 69.486C218.236 69.5027 218.282 69.5343 218.316 69.5768C218.349 69.6194 218.369 69.6709 218.374 69.725C218.378 69.779 218.366 69.8332 218.34 69.8805C218.313 69.9279 218.274 69.9663 218.225 69.991C218.193 70.0077 218.158 70.0178 218.122 70.0207C218.086 70.0237 218.05 70.0195 218.016 70.0084C217.981 69.9973 217.95 69.9795 217.922 69.956C217.895 69.9325 217.872 69.9038 217.856 69.8715Z" fill="#C16256"/>
<path d="M218.575 72.2398C218.729 72.2598 218.885 72.2478 219.034 72.2046C219.047 72.2004 219.059 72.1937 219.07 72.1849C219.08 72.1761 219.088 72.1653 219.094 72.1532C219.101 72.1411 219.104 72.1279 219.105 72.1144C219.106 72.1008 219.104 72.0872 219.1 72.0744C219.091 72.0485 219.073 72.0271 219.049 72.0148C219.024 72.0025 218.996 72.0002 218.97 72.0085C218.624 72.1188 218.13 71.9457 218.063 71.7894C218.038 71.7342 218.114 71.6791 218.179 71.6362C218.768 71.3175 219.16 70.2052 219.177 70.1593C219.184 70.1338 219.181 70.1067 219.169 70.0833C219.156 70.0599 219.136 70.042 219.111 70.0332C219.086 70.0245 219.059 70.0255 219.035 70.0361C219.01 70.0467 218.991 70.0661 218.981 70.0903C218.981 70.101 218.598 71.1735 218.081 71.4539C217.799 71.6071 217.841 71.7925 217.871 71.8645C217.956 72.059 218.259 72.2015 218.575 72.2398Z" fill="#C16256"/>
<path d="M218.379 67.4171C219.865 66.6342 222.56 67.3451 223.882 67.3344C223.882 67.3344 223.602 69.5972 225.888 71.2075C226.081 73.288 226.424 74.195 224.287 76.7337C224.448 76.6352 224.601 76.5251 224.746 76.4043C231.323 69.8439 222.75 58.652 218.379 67.4171Z" fill="#E57D61"/>
<path d="M217.252 62.9114C218.106 61.2261 220.633 60.3145 222.82 62.392C224.505 63.9915 226.317 63.9793 226.281 65.6646C229.651 67.1966 227.983 70.9104 227.983 70.9104L226.298 70.7113C224.366 69.1485 224.424 66.8519 224.424 66.8519C223.993 66.8817 223.56 66.8482 223.138 66.7523C221.893 66.4352 220.051 66.282 218.648 66.7983C217.244 67.3146 216.301 64.7913 217.252 62.9114Z" fill="#8E4A35"/>
<path d="M228.222 72.2728C228.039 73.14 227.325 73.7252 226.625 73.5782C225.925 73.4311 225.507 72.6083 225.689 71.7397C225.872 70.871 226.587 70.2857 227.286 70.4328C227.984 70.5799 228.406 71.4041 228.222 72.2728Z" fill="#F99370"/>
<path d="M226.565 71.13C226.591 71.1193 227.233 70.8711 227.593 71.2051C227.688 71.2969 227.754 71.4147 227.782 71.5436C227.782 71.5574 227.782 71.5682 227.793 71.5819C227.836 71.9349 227.794 72.2931 227.671 72.6268C227.665 72.6503 227.65 72.6707 227.63 72.6842C227.61 72.6977 227.585 72.7034 227.561 72.7004H227.543C227.53 72.6967 227.517 72.6904 227.507 72.6819C227.496 72.6733 227.487 72.6628 227.481 72.6507C227.474 72.6387 227.47 72.6255 227.469 72.6119C227.468 72.5983 227.47 72.5846 227.474 72.5717C227.57 72.2967 227.612 72.0061 227.599 71.7152C227.002 71.8225 226.703 72.492 226.7 72.4997C226.691 72.5201 226.676 72.5372 226.657 72.5482C226.637 72.5593 226.615 72.5638 226.593 72.561C226.583 72.5632 226.573 72.5632 226.564 72.561C226.539 72.5501 226.519 72.53 226.509 72.5048C226.498 72.4796 226.498 72.4514 226.509 72.4261C226.524 72.3924 226.849 71.6448 227.55 71.5069C227.53 71.4491 227.496 71.3968 227.452 71.3537C227.187 71.1085 226.645 71.3169 226.64 71.3184C226.628 71.3234 226.614 71.3258 226.601 71.3255C226.587 71.3252 226.574 71.3223 226.562 71.3169C226.549 71.3115 226.538 71.3037 226.529 71.294C226.519 71.2843 226.512 71.2728 226.507 71.2602C226.502 71.2476 226.5 71.2342 226.5 71.2207C226.5 71.2072 226.503 71.1939 226.509 71.1815C226.514 71.1691 226.522 71.1579 226.532 71.1486C226.541 71.1392 226.553 71.1318 226.565 71.1269V71.13Z" fill="#C16256"/>
<path d="M231.871 108.539C231.871 108.539 225.381 114.793 208.238 111.928C208.238 111.928 208.468 105.66 208.739 99.5902C208.764 99.0678 208.787 98.5499 208.811 98.0336C209.03 93.304 209.271 89.0418 209.424 88.4366C211.054 82.3328 216.152 80.0209 218.445 79.2732C218.819 79.1492 219.199 79.0469 219.585 78.9668C219.585 80.479 222.203 81.4687 223.109 80.8145C223.862 80.2691 223.587 79.2916 223.568 79.238H223.579L223.597 79.2472C223.957 79.4015 224.304 79.5812 224.638 79.7849C226.951 81.2067 228.468 83.7683 229.311 87.4454C229.625 88.8702 229.837 90.3155 229.946 91.7704C229.969 92.0447 229.991 92.325 230.008 92.6085C230.044 93.2014 230.127 93.8525 230.241 94.5435C230.241 94.5466 230.241 94.5496 230.241 94.5527C230.962 98.89 232.856 104.874 231.871 108.539Z" fill="#3A72AA"/>
<path d="M221.571 69.874C221.594 69.8761 221.617 69.8719 221.638 69.8618C221.667 69.8479 221.689 69.8232 221.7 69.793C221.71 69.7629 221.709 69.7298 221.695 69.7009C221.536 69.4094 221.311 69.1583 221.04 68.9673C220.768 68.7763 220.456 68.6504 220.128 68.5993C220.096 68.594 220.063 68.6015 220.037 68.6201C220.01 68.6388 219.992 68.6671 219.987 68.6989C219.983 68.7148 219.984 68.731 219.987 68.7468C219.99 68.7626 219.997 68.7775 220.006 68.7907C220.016 68.8038 220.027 68.815 220.041 68.8234C220.055 68.8319 220.07 68.8375 220.086 68.8399C220.376 68.8848 220.651 68.995 220.892 69.1623C221.133 69.3295 221.333 69.5493 221.476 69.8051C221.484 69.8238 221.498 69.84 221.514 69.852C221.531 69.8641 221.55 69.8717 221.571 69.874Z" fill="#C16256"/>
<path d="M217.767 69.0111C217.786 69.0134 217.806 69.011 217.824 69.0041C217.842 68.9971 217.858 68.9858 217.871 68.9712C218.178 68.628 218.85 68.6648 218.858 68.6648C218.89 68.6666 218.922 68.6557 218.946 68.6342C218.97 68.6128 218.984 68.5828 218.986 68.5507C218.988 68.5186 218.977 68.4871 218.955 68.4631C218.934 68.4391 218.904 68.4246 218.872 68.4228C218.84 68.4228 218.083 68.3845 217.692 68.8134C217.669 68.8364 217.656 68.8675 217.656 68.9C217.656 68.9325 217.669 68.9636 217.692 68.9866C217.714 69.0024 217.74 69.011 217.767 69.0111Z" fill="#C16256"/>
<path d="M207.974 87.571C204.102 91.4702 200.209 93.8418 196.686 95.976C193.919 97.6521 191.132 99.4324 188.133 100.68C186.886 101.196 185.604 101.675 184.329 102.124C182.543 102.703 183.166 105.521 185.014 105.308C190.242 104.858 195.774 103.745 200.263 100.955C203.868 98.7169 208.28 96.3591 210.903 93.6656C213.37 91.1392 215.76 87.0961 216.957 84.4226C218.801 80.1205 211.766 81.8226 207.974 87.571Z" fill="#E57D61"/>
<path d="M219.592 78.9597C219.592 78.9597 219.458 79.5358 219.132 80.5623C218.355 82.9784 216.494 87.8918 212.743 93.7061C211.667 95.3434 210.341 96.8027 208.815 98.0311C202.875 102.899 193.954 105.137 187.366 105.22C186.946 105.22 186.525 105.22 186.108 105.201C186.108 105.201 186.568 103.089 185.207 101.811C185.207 101.811 185.589 101.624 186.214 101.304C188.469 100.142 193.908 97.2329 196.186 94.9777C199.003 92.1893 206.623 79.7212 218.38 78.9934L218.596 78.9812C218.925 78.9628 219.258 78.9567 219.592 78.9597Z" fill="#3A72AA"/>
<path d="M255.478 144.516C255.529 145.865 255.535 146.661 255.535 146.661C255.535 146.661 250.565 148.831 245.446 147.455C245.058 147.352 244.675 147.228 244.299 147.086C244.156 146.511 244.02 145.86 243.887 145.149C243.887 145.149 249.755 146.736 255.477 144.512L255.478 144.516Z" fill="#103663"/>
<path d="M220.514 161.063C220.299 162.378 220.167 163.159 220.167 163.159C220.167 163.159 215.004 165.626 210.102 162.546C210.102 162.546 210.128 161.771 210.161 160.461C210.161 160.458 213.759 163.095 220.514 161.063Z" fill="#103663"/>
<path d="M186.214 101.312C185.587 101.633 185.207 101.82 185.207 101.82C186.569 103.097 186.106 105.209 186.106 105.209C186.525 105.227 186.946 105.233 187.366 105.227C187.372 105.172 187.681 102.538 186.214 101.312Z" fill="#23659B"/>
<path d="M257.244 88.5829C257.244 88.5829 256.852 88.9215 256.146 89.4516C254.126 87.944 254.483 85.9477 254.483 85.9477V85.8987C254.892 85.7915 255.311 85.6796 255.738 85.5586C255.743 85.5586 255.511 87.319 257.244 88.5829Z" fill="#23659B"/>
<path d="M218.562 73.3665C218.398 73.3682 218.235 73.3502 218.076 73.3129C218.063 73.3097 218.051 73.304 218.041 73.2961C218.031 73.2883 218.022 73.2785 218.015 73.2672C218.009 73.2559 218.004 73.2434 218.003 73.2305C218.001 73.2176 218.002 73.2044 218.005 73.1919C218.013 73.1668 218.029 73.1456 218.052 73.1327C218.075 73.1198 218.101 73.1163 218.126 73.1229C218.179 73.1367 219.41 73.4554 220.046 72.3201C220.052 72.3088 220.061 72.2989 220.071 72.2909C220.081 72.2829 220.093 72.2769 220.105 72.2733C220.117 72.2698 220.13 72.2687 220.143 72.2702C220.156 72.2716 220.168 72.2756 220.179 72.2818C220.202 72.2947 220.219 72.3161 220.226 72.3413C220.234 72.3666 220.23 72.3936 220.218 72.4166C220.057 72.7133 219.817 72.9593 219.525 73.1271C219.232 73.2949 218.899 73.3778 218.562 73.3665Z" fill="#C16256"/>
<path d="M215.165 89.6211C215.076 89.8295 212.407 96.0681 208.73 99.5888C208.755 99.0664 208.778 98.5485 208.802 98.0322C208.802 98.0322 212.639 94.012 215.165 89.6211Z" fill="#23659B"/>
<path d="M231.294 94.7522C230.934 94.6848 230.586 94.6174 230.25 94.5469C230.251 94.5439 230.251 94.5408 230.25 94.5377C230.25 94.4289 230.154 93.3687 229.956 91.7708C229.803 90.5742 229.601 89.0758 229.32 87.4488V87.4258C229.32 87.4258 230.261 90.5482 231.294 94.7522Z" fill="#23659B"/>
<path d="M224.648 79.6726C224.648 79.7078 224.648 79.7431 224.648 79.7798C224.65 80.1042 224.598 80.4267 224.495 80.7343C224.239 81.4529 223.609 82.0688 222.187 82.0105C220.62 81.9477 219.684 81.2644 219.134 80.5627C218.832 80.177 218.602 79.7393 218.457 79.2712C218.427 79.1804 218.403 79.0878 218.385 78.9939L218.601 78.9831C218.93 78.9648 219.263 78.9586 219.597 78.9617C219.597 80.4739 222.215 81.4636 223.12 80.8094C223.874 80.264 223.598 79.2865 223.58 79.2329H223.591C223.661 79.2635 224.04 79.4152 224.648 79.6726Z" fill="#23659B"/>
<path d="M181.81 103.444C181.81 103.444 179.032 103.278 177.336 104.684C175.64 106.091 174.537 108.429 174.537 108.429C174.537 108.429 176.448 108.836 176.618 109.785C176.618 109.785 178.848 107.925 179.627 106.673C180.405 105.421 181.81 103.444 181.81 103.444Z" fill="#F99370"/>
<path d="M145.408 101.977C145.408 101.977 141.237 97.8006 135.501 104.301C129.765 110.802 133.344 110.793 124.309 114.107C116.793 116.864 114.577 125.291 124.518 127.759C134.017 130.111 140.065 122.49 145.752 122.881C151.439 123.271 152.132 111.091 150.321 108.02C148.51 104.948 145.408 101.977 145.408 101.977Z" fill="#C92828"/>
<path d="M147.683 127.48C153.707 128.144 160.144 127.378 165.409 124.15C171.156 120.296 175.92 114.66 178.066 108.031C178.363 107.168 177.47 106.284 176.615 106.577C176.588 106.609 175.426 106.9 175.429 106.969C175.059 107.508 174.667 108.033 174.256 108.544C168.956 115.02 161.316 120.368 152.6 119.694C151.298 119.667 149.998 119.57 148.707 119.403C143.416 118.841 142.405 126.704 147.683 127.48Z" fill="#F99370"/>
<path d="M164.82 124.416C164.78 124.845 164.652 125.262 164.445 125.641C163.129 127.694 158.041 128.868 153.319 128.82C152.821 128.82 152.33 128.802 151.843 128.767C151.218 128.724 150.609 128.659 150.025 128.571C149.729 126.272 147.947 120.728 147.656 118.459C149.257 118.267 152.02 118.888 154.704 119.072C157.448 119.473 159.679 117.442 161.525 118.364C161.523 118.367 161.341 122.71 164.82 124.416Z" fill="#9358E0"/>
<path d="M108.969 177.01C108.969 177.01 112.139 176.535 114.711 175.805L115.641 181.441L109.639 181.135C109.639 181.135 107.725 179.613 108.969 177.01Z" fill="#F99370"/>
<path d="M141.852 200.131L142.348 196.441L147.298 196.489C147.298 196.489 146.645 198.101 146.033 200.177C146.033 200.174 143.895 201.984 141.852 200.131Z" fill="#F99370"/>
<path d="M145.418 102.037C150.906 100.41 150.742 109.455 150.209 111.229L145.418 102.037Z" fill="#C92828"/>
<path d="M106.043 176.95C105.715 177.041 105.409 177.197 105.143 177.409L106.759 187.368C106.776 187.48 106.821 187.587 106.888 187.679C106.955 187.772 107.043 187.846 107.145 187.897C107.247 187.949 107.36 187.975 107.474 187.973C107.588 187.972 107.7 187.944 107.801 187.89L107.816 187.881C108.801 187.34 110.146 185.759 109.638 181.14C109.638 181.14 108.919 179.654 108.968 177.003C108.968 177.011 107.369 176.565 106.043 176.95Z" fill="#1D3F70"/>
<path d="M107.82 187.875L106.047 176.949C105.719 177.041 105.413 177.197 105.146 177.409L106.763 187.367C106.78 187.48 106.825 187.587 106.892 187.679C106.959 187.771 107.047 187.846 107.149 187.897C107.251 187.948 107.364 187.974 107.478 187.973C107.592 187.972 107.704 187.943 107.805 187.89L107.82 187.875Z" fill="#395B96"/>
<path d="M141.289 202.998C141.321 203.336 141.42 203.664 141.581 203.963L151.667 204.074C151.781 204.076 151.894 204.05 151.996 204C152.099 203.949 152.187 203.875 152.255 203.783C152.323 203.692 152.368 203.585 152.386 203.472C152.404 203.36 152.395 203.244 152.36 203.136V203.119C151.995 202.057 150.674 200.461 146.037 200.173C146.037 200.173 144.451 200.633 141.856 200.127C141.85 200.13 141.137 201.627 141.289 202.998Z" fill="#1D3F70"/>
<path d="M152.356 203.119L141.291 202.998C141.323 203.336 141.422 203.664 141.584 203.963L151.669 204.074C151.783 204.076 151.896 204.05 151.999 204C152.101 203.949 152.19 203.875 152.257 203.783C152.325 203.692 152.37 203.585 152.388 203.472C152.406 203.36 152.397 203.244 152.362 203.136L152.356 203.119Z" fill="#395B96"/>
<path d="M112.095 181.974C112.555 182.072 113.076 182.156 113.641 182.228C120.814 183.147 135.505 182.009 140.774 176.355C141.483 175.612 142.148 174.827 142.766 174.007C147.414 167.851 149.152 160.022 149.732 152.193C149.934 149.481 149.996 146.771 149.993 144.128C148.972 138.138 143.469 136.385 139.13 137.846C135.73 138.991 133.045 142.112 133.789 146.713V146.693C135.093 150.422 135.357 153.893 134.774 157.051C133.089 166.211 124.283 172.763 113.066 175.407C112.46 175.549 111.847 175.68 111.228 175.801C111.228 175.801 110.485 179.312 112.095 181.974Z" fill="#E8C0A6"/>
<path d="M141.291 142.459L149.184 155.293L149.454 155.14C149.577 154.083 149.676 153.002 149.751 151.898C149.805 151.169 149.849 150.429 149.881 149.68C149.957 148.068 149.995 146.41 149.995 144.705L147.289 143.939L141.291 142.459Z" fill="#D1A68F"/>
<path d="M139.72 177.333C139.72 177.333 141.753 175.622 142.775 174.006C145.665 169.429 145.815 169.074 147.421 163.79L145.564 153.536L134.735 152.848C134.824 155.062 135.208 156.025 134.275 159.092C134.278 159.092 139.97 163.952 139.72 177.333Z" fill="#D1A68F"/>
<path d="M131.811 153.725C132.811 154.897 133.877 155.938 134.783 157.055C139.226 162.524 141.705 168.165 142.774 174.007C144.02 180.796 143.361 187.856 141.683 195.227C141.55 195.806 141.414 196.383 141.27 196.965C141.27 196.965 145.383 198.344 147.675 197.322C147.917 196.808 148.156 196.297 148.388 195.79C155.236 180.833 157.257 169.173 149.741 152.196C148.09 148.524 146.227 144.95 144.162 141.493C142.583 139.561 140.848 138.395 139.139 137.853C131.985 135.578 124.763 145.464 131.811 153.725Z" fill="#E8C0A6"/>
<path d="M149.926 143.215C150.001 144.252 150.001 144.747 150.001 144.747C136.672 147.424 129.409 143.687 129.409 143.687C129.329 143.715 129.338 143.243 129.419 142.421C129.585 140.774 130.032 137.724 130.645 134.488C130.755 133.912 130.87 133.333 130.988 132.749C131.816 128.682 132.853 124.666 133.841 123.067C135.833 117.439 142.669 116.5 146.999 118.279C147.674 118.527 150.982 124.326 151.676 126.581C152.848 130.387 148.846 133.27 149.344 138.072C149.683 140.422 149.847 142.117 149.926 143.215Z" fill="#9358E0"/>
<path d="M142.041 118.409C142.219 118.58 142.347 118.73 142.194 118.995C141.922 119.466 142.167 120.668 142.83 120.903C142.997 120.96 143.179 120.957 143.343 120.894C144.385 120.537 144.416 120.992 145.215 121.836C146.015 122.68 146.827 122.228 147.137 121.511C147.446 120.794 148.13 121.252 148.323 120.405C148.366 120.209 148.366 120.006 148.323 119.81C148.221 119.32 147.648 118.455 147.648 118.455C147.436 118.382 147.218 118.326 146.997 118.286C145.401 117.384 143.483 117.221 141.672 117.497C141.58 117.98 141.833 118.209 142.041 118.409Z" fill="#7640CC"/>
<path d="M147.392 115.406L146.992 118.291C146.992 118.291 147.85 120.404 145.968 120.243C143.287 120.013 142.783 117.386 142.783 117.386L143.209 115.051L147.392 115.406Z" fill="#F99370"/>
<path d="M143.21 115.051L143.02 116.096C144.705 117.115 146.802 117.039 147.173 117.015L147.392 115.406L143.21 115.051Z" fill="#E57D61"/>
<path d="M150.538 114.341C149.121 115.938 146.838 116.486 144.972 116.18C144.201 116.077 143.468 115.784 142.839 115.326C140.3 113.22 139.338 108.764 140.627 105.835C142.491 101.545 147.838 101.938 149.262 106.423C149.571 107.162 150.038 107.825 150.63 108.365C152.215 109.814 152.338 112.198 150.538 114.341Z" fill="#F99370"/>
<path d="M149.234 111.965L146.734 110.844C146.734 110.844 146.657 112.181 147.639 112.494C148.572 112.791 149.234 111.965 149.234 111.965Z" fill="#F9F8F3"/>
<path d="M141.436 112.009C141.436 112.009 141.658 113.812 143.275 115.617C143.123 115.531 142.978 115.436 142.838 115.332C140.299 113.226 139.336 108.77 140.626 105.841C141.574 103.327 144.71 101.816 147.236 103.589C147.236 103.589 148.526 107.388 141.644 110.699L141.436 112.009Z" fill="#E57D61"/>
<path d="M147.219 108.756C147.248 108.688 147.249 108.612 147.222 108.543C147.195 108.474 147.142 108.418 147.075 108.388C147.007 108.358 146.93 108.355 146.861 108.381C146.791 108.407 146.735 108.459 146.704 108.527C146.688 108.56 146.679 108.597 146.678 108.634C146.677 108.672 146.683 108.709 146.696 108.744C146.709 108.779 146.729 108.811 146.754 108.838C146.78 108.866 146.811 108.887 146.845 108.903C146.879 108.918 146.916 108.926 146.953 108.927C146.99 108.928 147.027 108.921 147.062 108.908C147.097 108.894 147.129 108.874 147.156 108.848C147.183 108.822 147.204 108.791 147.219 108.756Z" fill="#C16256"/>
<path d="M146.512 103.103C146.512 103.103 147.611 107.108 141.395 110.059L139.84 111.011C139.015 109.16 138.906 107.069 139.534 105.143C140.606 101.965 145.631 100.716 146.512 103.103Z" fill="#C92828"/>
<path d="M149.567 108.241C149.589 108.19 149.597 108.133 149.587 108.078C149.578 108.023 149.552 107.972 149.514 107.932C149.476 107.891 149.426 107.863 149.372 107.851C149.317 107.838 149.261 107.842 149.208 107.862C149.156 107.882 149.111 107.917 149.079 107.963C149.047 108.008 149.029 108.062 149.027 108.118C149.026 108.174 149.041 108.229 149.071 108.276C149.1 108.323 149.143 108.36 149.194 108.383C149.263 108.413 149.34 108.415 149.41 108.388C149.479 108.362 149.536 108.309 149.567 108.241Z" fill="#C16256"/>
<path d="M149.252 112.072C149.232 112.078 149.211 112.078 149.191 112.072L146.689 110.949C146.675 110.945 146.662 110.937 146.651 110.927C146.639 110.917 146.631 110.905 146.624 110.891C146.618 110.877 146.615 110.862 146.615 110.847C146.615 110.832 146.618 110.817 146.625 110.804C146.631 110.79 146.64 110.778 146.651 110.768C146.662 110.758 146.675 110.75 146.69 110.745C146.704 110.741 146.719 110.739 146.734 110.741C146.749 110.743 146.764 110.747 146.777 110.755L149.278 111.878C149.304 111.89 149.324 111.911 149.334 111.937C149.344 111.964 149.343 111.993 149.332 112.019C149.324 112.033 149.312 112.046 149.298 112.055C149.285 112.064 149.269 112.07 149.252 112.072Z" fill="#C16256"/>
<path d="M148.956 110.717C148.797 110.746 148.635 110.743 148.478 110.706C148.45 110.698 148.427 110.68 148.412 110.656C148.398 110.631 148.394 110.602 148.401 110.574C148.409 110.547 148.427 110.523 148.451 110.509C148.476 110.495 148.505 110.491 148.533 110.499C148.896 110.596 149.392 110.39 149.452 110.225C149.474 110.167 149.395 110.114 149.325 110.081C148.712 109.785 148.24 108.662 148.22 108.615C148.215 108.601 148.212 108.587 148.213 108.573C148.213 108.559 148.216 108.545 148.221 108.532C148.227 108.519 148.235 108.508 148.245 108.498C148.255 108.488 148.267 108.48 148.28 108.475C148.293 108.47 148.307 108.467 148.321 108.467C148.335 108.467 148.348 108.47 148.361 108.475C148.374 108.48 148.386 108.488 148.396 108.498C148.405 108.508 148.413 108.52 148.418 108.533C148.418 108.544 148.878 109.627 149.417 109.889C149.714 110.03 149.68 110.223 149.653 110.3C149.581 110.502 149.276 110.655 148.956 110.717Z" fill="#C16256"/>
<path d="M139.045 111.269C139.278 112.153 140.044 112.717 140.755 112.528C141.466 112.34 141.852 111.471 141.618 110.587C141.383 109.703 140.619 109.141 139.908 109.329C139.197 109.518 138.811 110.382 139.045 111.269Z" fill="#F99370"/>
<path d="M140.689 109.994C138.257 109.255 140.261 113.518 139.656 110.643C140.278 110.72 140.62 111.409 140.623 111.409C141.156 111.671 140.48 110.507 139.696 110.433C139.84 109.808 141.055 110.467 140.689 109.994Z" fill="#C16256"/>
<path d="M140.258 112.189C140.261 112.236 140.277 112.282 140.305 112.319C140.334 112.357 140.372 112.386 140.417 112.402C140.461 112.418 140.51 112.42 140.555 112.408C140.601 112.397 140.643 112.372 140.674 112.337C140.706 112.302 140.726 112.258 140.733 112.211C140.74 112.164 140.733 112.117 140.713 112.074C140.692 112.031 140.66 111.996 140.619 111.971C140.579 111.947 140.532 111.935 140.485 111.938C140.453 111.939 140.423 111.947 140.394 111.961C140.366 111.974 140.34 111.993 140.319 112.016C140.298 112.04 140.282 112.067 140.272 112.097C140.261 112.126 140.256 112.158 140.258 112.189Z" fill="#F4D4BE"/>
<path d="M120.421 152.922C119.83 152.986 119.907 151.577 119.553 151.166C119.23 151.73 118.973 152.329 118.787 152.951C118.689 154.131 118.653 155.312 118.672 156.496C117.786 158.062 117.803 153.535 117.725 153.09H117.707C117.342 154.276 117.06 155.485 116.862 156.709C115.598 158.116 116.709 153.185 116.774 152.726H116.766C116.241 153.788 115.84 154.906 115.569 156.06C114.169 157.362 115.692 152.452 115.9 152.024L115.89 152.013C115.365 152.792 114.91 153.615 114.531 154.474C113.052 155.5 114.975 151.439 115.206 151.068C115.24 150.731 116.147 148.828 117.198 147.285C117.589 146.714 119.901 146.815 120.136 147.454C120.359 148.051 120.596 150.04 120.634 150.353C120.804 150.95 121.027 152.539 120.421 152.922Z" fill="#F99370"/>
<path d="M160.321 119.268C160.643 120.359 159.627 120.4 160.2 121.505C160.773 122.61 161.866 122.084 162.249 124.097C162.624 126.081 164.394 125.654 164.444 125.64C164.654 125.249 164.825 124.838 164.956 124.414C161.477 122.717 161.524 118.317 161.524 118.317C161.098 117.978 160.553 118.01 159.92 118.163C160.049 118.482 160.217 118.885 160.321 119.268Z" fill="#7640CC"/>
<path d="M145.877 108.088C145.891 108.085 145.905 108.08 145.918 108.074C146.478 107.768 146.955 107.329 147.308 106.797C147.328 106.764 147.335 106.725 147.326 106.688C147.318 106.651 147.295 106.619 147.262 106.598C147.23 106.578 147.191 106.571 147.154 106.58C147.117 106.588 147.084 106.611 147.064 106.643C146.737 107.13 146.299 107.532 145.786 107.817C145.755 107.832 145.73 107.858 145.716 107.89C145.703 107.922 145.701 107.958 145.713 107.991C145.724 108.024 145.747 108.052 145.777 108.069C145.807 108.087 145.843 108.092 145.877 108.085V108.088Z" fill="#C16256"/>
<path d="M149.4 106.986C149.436 106.981 149.468 106.962 149.49 106.934C149.513 106.906 149.524 106.871 149.521 106.835C149.519 106.799 149.503 106.766 149.477 106.741C149.45 106.716 149.416 106.703 149.38 106.702C148.996 106.672 148.628 106.536 148.317 106.31C148.286 106.292 148.25 106.285 148.214 106.292C148.179 106.298 148.148 106.318 148.126 106.347C148.105 106.376 148.095 106.411 148.098 106.447C148.102 106.483 148.119 106.516 148.145 106.54C148.503 106.803 148.928 106.958 149.371 106.989L149.4 106.986Z" fill="#C16256"/>
<path d="M141.675 195.227C141.542 195.806 141.406 196.383 141.262 196.965C141.262 196.965 145.297 198.423 147.667 197.322C147.909 196.808 148.148 196.297 148.38 195.79C148.386 195.789 146.351 196.912 141.675 195.227Z" fill="#D1A68F"/>
<path d="M112.096 181.974C112.556 182.072 113.077 182.156 113.642 182.228C113.642 182.228 112.238 179.93 113.077 175.41C112.47 175.552 111.857 175.683 111.238 175.804C111.238 175.804 110.486 179.312 112.096 181.974Z" fill="#D1A68F"/>
<path d="M138.896 126.192C131.04 129.878 127.658 134.059 123.707 141.571C122.46 143.88 121.294 146.262 120.266 148.68C119.526 150.519 116.603 149.541 117.122 147.632C118.563 141.868 120.775 136.326 123.698 131.153C126.546 126.362 130.899 122.601 135.746 119.929C139.953 117.778 143.142 124.09 138.896 126.192Z" fill="#F99370"/>
<path d="M138.04 127.583C135.354 128.255 133.081 131.8 131.345 133.009C130.843 133.364 130.297 133.652 129.721 133.867C129.256 134.054 128.762 134.158 128.261 134.174C127.254 131.355 123.995 130.667 123.995 130.667C123.748 130.429 123.55 130.143 123.415 129.827C123.28 129.512 123.21 129.172 123.21 128.828C123.16 126.234 126.597 123.215 130.775 120.028C135.889 116.127 141.245 117.566 141.245 117.566C143.661 122.127 140.724 126.913 138.04 127.583Z" fill="#9358E0"/>
<path d="M140.484 124.709C140.224 125.14 136.181 132 130.562 134.974C130.671 134.398 130.763 133.902 130.881 133.313C130.881 133.31 136.93 129.877 140.484 124.709Z" fill="#7640CC"/>
<path d="M153.322 128.819C152.824 128.819 152.332 128.801 151.846 128.765C151.783 126.97 151.286 125.216 150.398 123.654C151.952 125.364 152.862 127.491 153.322 128.819Z" fill="#7640CC"/>
<path d="M129.728 133.866C129.263 134.053 128.769 134.157 128.268 134.172C127.261 131.353 124.003 130.666 124.003 130.666C123.755 130.428 123.558 130.142 123.423 129.826C123.288 129.51 123.218 129.171 123.217 128.827C124.205 128.753 124.442 130.161 125.346 130.263C126.25 130.364 126.725 129.956 127.427 130.426C128.129 130.897 127.761 131.974 128.332 132.611C128.904 133.249 129.714 132.791 129.728 133.866Z" fill="#7640CC"/>
<path d="M150.001 144.753C136.672 147.43 129.409 143.693 129.409 143.693C129.329 143.72 129.338 143.249 129.419 142.427C129.764 142.362 130.119 142.369 130.461 142.445C130.804 142.522 131.127 142.668 131.411 142.875C132.989 143.982 132.245 144.385 134.169 144.318C136.093 144.251 135.364 143.478 136.571 143.982C137.778 144.487 137.95 145.392 139.088 145.122C140.227 144.853 140.063 144.385 140.927 144.52C141.791 144.655 142.419 145.49 143.561 145.171C144.702 144.853 144.846 144.019 145.647 144.068C146.449 144.117 147.152 144.821 147.857 144.681C148.469 144.562 148.894 143.436 149.926 143.209C150.001 144.252 150.001 144.753 150.001 144.753Z" fill="#7640CC"/>
<path d="M258.607 84.3803C258.607 84.3803 260.08 82.0194 262.208 81.4495C264.336 80.8795 267.247 81.3897 267.247 81.3897C267.247 81.3897 266.42 82.0914 266.731 84.3957C266.731 84.3957 263.973 84.5581 262.505 84.4677C261.037 84.3773 258.607 84.3803 258.607 84.3803Z" fill="#E57D61"/>
<path d="M288.075 49.8393C288.075 49.8393 285.98 49.7903 284.827 52.0241C283.458 54.6777 285.197 56.6862 284.674 58.4711C284.152 60.256 283.26 61.5245 283.962 63.3125C284.664 65.1004 283.502 66.2234 284.106 67.6896C284.709 69.1559 285.615 69.113 285.575 71.0863C285.535 73.0596 287.26 74.7434 288.858 73.5729C290.456 72.4023 291.334 74.9686 293.879 73.366C296.424 71.7635 296.53 69.879 299.482 69.3474C302.434 68.8157 301.264 64.7143 303.772 63.1884C306.28 61.6624 306.059 59.2601 303.965 57.6238C301.87 55.9876 300.51 55.5816 298.985 51.6349C297.27 47.1919 290.87 45.2722 288.075 49.8393Z" fill="#662948"/>
<path d="M296.749 70.6962C294.621 76.4722 291.146 82.7997 284.883 84.8006C278.908 86.2484 272.755 85.5942 266.829 84.4007C264.658 84.318 264.517 81.3458 266.746 81.3595C272.07 81.6001 277.669 81.6016 282.775 80.0006C287.292 78.3291 289.32 73.0909 290.912 68.8608C292.136 64.9509 297.987 66.7772 296.749 70.6962Z" fill="#E57D61"/>
<path d="M295.399 78.8533C295.106 79.5426 294.762 80.2084 294.367 80.8451C293.765 81.8162 293.049 82.7117 292.233 83.5124C292.08 83.6656 291.927 83.8035 291.774 83.9429C288.527 86.8815 284.24 88.1485 280.672 88.2205C276.71 88.2987 271.173 86.9949 268.628 85.6727C267.838 85.2621 267.332 84.8499 267.25 84.4761C266.893 82.8935 267.697 81.4119 267.697 81.4119C267.957 81.1055 268.521 80.8527 269.27 80.6459C271.936 79.9105 276.948 79.7174 278.973 79.267C281.57 78.6848 285.595 77.165 287.968 71.9743C289.388 68.8642 290.879 67.3305 291.847 66.6013C292.174 66.3363 292.546 66.1314 292.944 65.9961C294.072 67.4485 294.949 69.0791 295.54 70.8206C295.613 71.0367 295.684 71.2603 295.746 71.4871C296.355 73.6351 296.522 76.2151 295.399 78.8533Z" fill="#EB5648"/>
<path d="M294.366 80.8439C293.652 81.9927 292.781 83.0355 291.777 83.9418C291.011 82.975 289.552 80.8163 289.353 78.3144C289.079 74.9117 291.573 70.8945 291.573 70.8945L294.366 80.8439Z" fill="#CE3932"/>
<path d="M330.997 150.888L338.956 144.351C338.744 143.814 336.771 142.206 336.265 141.44C336.025 141.133 333.508 138.21 333.29 137.887L330.321 135.051L326.812 137.928L332.385 143.208C332.705 143.511 332.91 143.917 332.963 144.355C333.017 144.793 332.916 145.236 332.679 145.608C331.669 147.373 329.782 148.475 329.768 150.396C329.783 150.531 329.834 150.66 329.917 150.768C329.999 150.876 330.109 150.959 330.235 151.01C330.361 151.06 330.499 151.076 330.633 151.054C330.767 151.033 330.893 150.975 330.997 150.888Z" fill="#F99370"/>
<path d="M338.571 143.385C338.763 143.678 338.895 144.006 338.959 144.35L330.922 150.95C330.831 151.025 330.724 151.078 330.609 151.103C330.494 151.129 330.375 151.127 330.261 151.097C330.147 151.067 330.042 151.01 329.955 150.931C329.868 150.852 329.8 150.754 329.759 150.644C329.356 149.532 329.388 147.411 332.935 144.175C332.935 144.175 334.502 143.515 336.267 141.438C336.267 141.439 337.808 142.185 338.571 143.385Z" fill="#1D3F70"/>
<path d="M329.75 150.627L338.569 143.383C338.761 143.676 338.893 144.004 338.956 144.348L330.919 150.948C330.827 151.024 330.719 151.077 330.602 151.103C330.486 151.128 330.365 151.124 330.25 151.093C330.136 151.061 330.03 151.002 329.943 150.921C329.856 150.84 329.79 150.739 329.75 150.627Z" fill="#395B96"/>
<path d="M292.219 64.1511L292.945 65.9896C292.945 65.9896 293.916 76.8567 295.77 76.8536C299.053 76.8536 296.884 65.1669 297.056 64.5219C297.056 64.5219 296.458 63.2962 296.254 62.7109L292.219 64.1511Z" fill="#F99370"/>
<path d="M291.441 153.345L301.742 153.36C301.919 152.812 301.415 150.322 301.516 149.403C301.516 149.015 301.65 146.898 301.689 146.513L300.991 140.691H296.451L297.395 148.309C297.449 148.747 297.348 149.19 297.111 149.563C296.874 149.935 296.514 150.213 296.094 150.35C294.193 151.068 292.036 150.719 290.805 152.188C290.733 152.302 290.692 152.433 290.688 152.568C290.684 152.703 290.716 152.837 290.781 152.955C290.846 153.073 290.941 153.172 291.057 153.241C291.174 153.309 291.306 153.345 291.441 153.345Z" fill="#F99370"/>
<path d="M302.057 152.371C302.02 152.719 301.913 153.056 301.742 153.362L291.341 153.347C291.223 153.347 291.107 153.319 291.002 153.266C290.898 153.212 290.807 153.135 290.739 153.039C290.67 152.944 290.625 152.833 290.608 152.717C290.59 152.601 290.601 152.482 290.639 152.371C291.036 151.257 292.408 149.641 297.204 149.398C297.204 149.398 298.834 149.886 301.517 149.398C301.517 149.405 302.232 150.96 302.057 152.371Z" fill="#1D3F70"/>
<path d="M290.646 152.352L302.059 152.368C302.021 152.717 301.914 153.054 301.743 153.36L291.342 153.344C291.223 153.344 291.106 153.316 291 153.261C290.894 153.206 290.804 153.126 290.736 153.029C290.667 152.932 290.623 152.819 290.608 152.701C290.592 152.583 290.605 152.463 290.646 152.352Z" fill="#395B96"/>
<path d="M295.07 58.4343C295.087 58.5078 295.1 58.5875 295.111 58.6564C294.995 58.6304 295.698 61.261 296.397 63.0872C294.973 64.5289 292.939 64.9487 292.566 65.01C291.647 62.7042 291.034 60.4781 290.863 59.0195C290.697 56.5069 294.538 55.9768 295.07 58.4343Z" fill="#E57D61"/>
<path d="M296.695 55.5187C297.219 57.3925 297.538 59.6293 296.695 61.4173C294.38 66.5605 284.394 64.8399 286.248 58.7913C286.911 57.1902 286.283 55.1863 286.715 53.7001C288.402 48.0085 295.581 50.6406 296.695 55.5187Z" fill="#F99370"/>
<path d="M289.566 60.9651L290.876 59.8574C291.224 60.7276 290.417 61.5243 289.566 60.9651Z" fill="#F9F8F3"/>
<path d="M289.546 57.5141C289.24 57.2858 289.615 56.82 289.908 57.0545C290.2 57.2889 289.833 57.7531 289.546 57.5141Z" fill="#C16256"/>
<path d="M287.153 58.1646C286.847 57.9348 287.222 57.4706 287.515 57.705C287.807 57.9394 287.446 58.4113 287.153 58.1646Z" fill="#C16256"/>
<path d="M289.573 61.0331C289.616 61.0331 290.884 59.9254 290.918 59.9101C290.925 59.9045 290.931 59.8975 290.935 59.8896C290.939 59.8818 290.942 59.8731 290.942 59.8642C290.943 59.8554 290.942 59.8464 290.939 59.838C290.936 59.8295 290.932 59.8217 290.926 59.8151C290.895 59.6527 289.562 60.9259 289.522 60.9167C289.511 60.9257 289.503 60.9382 289.5 60.9522C289.497 60.9662 289.498 60.9809 289.503 60.9941C289.509 61.0073 289.519 61.0183 289.532 61.0253C289.544 61.0324 289.559 61.0351 289.573 61.0331Z" fill="#C16256"/>
<path d="M292.875 143.774C293.038 144.984 293.148 145.648 293.148 145.648C297.491 147.094 303.295 147.408 307.165 145.933C303.984 134.902 305.279 104.935 307.534 101.239C307.534 101.239 315.44 127.727 323.377 142.53C323.713 143.155 324.049 143.757 324.384 144.336C324.384 144.336 333.413 144.44 338.062 136.414C338.062 136.414 337.569 135.832 336.791 134.777C334.454 131.615 329.543 125.168 327.598 116.38C323.264 96.7955 318.211 87.8834 314.51 84.4546C309.389 79.7235 298.8 85.3738 295.386 92.161C290.612 107.214 291.006 131.427 292.875 143.774Z" fill="#1D3F70"/>
<path d="M288.894 60.1348C289.056 60.0597 289.442 59.9571 289.33 59.741C289.321 59.7303 289.31 59.7216 289.297 59.7154C289.284 59.7092 289.27 59.7057 289.255 59.705C289.241 59.7043 289.227 59.7064 289.214 59.7113C289.2 59.7162 289.188 59.7237 289.177 59.7334C288.892 59.9954 288.339 60.0398 288.206 59.9249C288.158 59.882 288.206 59.7962 288.253 59.7318C288.684 59.191 288.682 57.2805 288.341 57.8842C288.341 57.8964 288.451 59.0991 288.077 59.6001C287.693 60.2497 288.417 60.2757 288.894 60.1348Z" fill="#C16256"/>
<path d="M296.697 55.518C297.221 57.3917 297.54 59.6286 296.697 61.4165C297.024 60.1158 296.523 57.7763 296.523 57.7763L295.726 57.0011C288.76 57.8422 287.074 52.7557 287.074 52.7557C289.395 48.0537 295.654 51.1577 296.697 55.518Z" fill="#E57D61"/>
<path d="M287.482 52.0124C287.482 52.0124 289.206 57.0315 295.534 56.4998L296.984 54.528C297.164 49.9318 291.21 46.0556 287.482 52.0124Z" fill="#662948"/>
<path d="M298.211 55.8905C298.726 58.0354 296 58.6651 295.533 56.5033C295.018 54.3462 297.744 53.7241 298.211 55.8905Z" fill="#F99370"/>
<path d="M297.761 56.5915C297.973 55.9787 297.41 55.1804 297.127 55.1314C296.588 54.9996 295.961 55.4945 296.105 55.6707C296.322 55.8101 296.528 55.2034 297.059 55.3413C297.59 55.4501 297.449 56.5348 297.761 56.5915Z" fill="#C16256"/>
<path d="M296.763 56.8803C296.962 56.7746 296.694 55.9979 297.441 55.5566C297.455 55.5499 297.467 55.5405 297.476 55.529C297.486 55.5175 297.493 55.5041 297.497 55.4897C297.501 55.4753 297.502 55.4602 297.5 55.4454C297.498 55.4305 297.493 55.4162 297.486 55.4034C296.744 55.2517 296.409 57.0979 296.763 56.8803Z" fill="#C16256"/>
<path d="M297.542 57.3078C297.555 57.3373 297.563 57.3691 297.564 57.4015C297.566 57.434 297.561 57.4663 297.549 57.4968C297.538 57.5272 297.521 57.5552 297.499 57.579C297.477 57.6028 297.45 57.6221 297.421 57.6356C297.391 57.6492 297.36 57.6569 297.327 57.6581C297.295 57.6594 297.262 57.6543 297.232 57.643C297.201 57.6318 297.173 57.6147 297.15 57.5926C297.126 57.5706 297.107 57.5441 297.093 57.5146C297.066 57.4551 297.063 57.3871 297.086 57.3256C297.108 57.2641 297.155 57.2142 297.214 57.1867C297.274 57.1593 297.342 57.1567 297.403 57.1794C297.465 57.2021 297.514 57.2483 297.542 57.3078Z" fill="#F4D4BE"/>
<path d="M314.508 84.4563C309.694 88.4535 302.318 92.6897 295.383 92.1611C295.383 92.1611 294.428 91.6555 294.499 90.2368C294.652 86.9735 293.448 85.1809 292.233 83.511C290.587 81.2435 288.933 79.1828 290.652 73.9508C291.076 72.6715 291.7 70.4852 292.213 68.6053C292.495 67.565 292.783 66.6305 292.947 65.9854C293.952 70.0087 294.843 71.3125 295.539 70.8176C296.296 70.2799 296.777 67.6003 296.78 63.934C297.222 63.8617 297.671 63.8309 298.119 63.8421C303.523 63.9769 308.481 70.2109 312.355 77.5634C312.714 78.2437 313.062 78.9321 313.402 79.6287C313.622 79.9611 313.846 80.3104 314.053 80.672C314.362 81.189 314.598 81.747 314.751 82.3297C314.947 83.0435 314.859 83.8051 314.508 84.4563Z" fill="#EB5648"/>
<path d="M323.383 142.53C323.719 143.155 324.054 143.757 324.389 144.336C324.389 144.336 333.418 144.44 338.068 136.414C338.068 136.414 337.575 135.831 336.796 134.777C336.789 134.777 332.716 141.551 323.383 142.53Z" fill="#163356"/>
<path d="M290.322 56.3348C290.3 56.3452 290.277 56.3497 290.253 56.3478C290.229 56.3459 290.206 56.3377 290.187 56.324C289.51 55.846 288.951 55.9487 288.944 55.9502C288.91 55.9557 288.875 55.9477 288.847 55.928C288.818 55.9083 288.798 55.8784 288.791 55.8445C288.785 55.8104 288.792 55.7752 288.812 55.7465C288.831 55.7178 288.861 55.698 288.895 55.6913C288.923 55.6913 289.568 55.5611 290.346 56.108C290.375 56.1287 290.395 56.1599 290.401 56.1949C290.407 56.2299 290.399 56.2658 290.378 56.2949C290.364 56.3131 290.344 56.3268 290.322 56.3348Z" fill="#C16256"/>
<path d="M286.754 57.0794C286.728 57.0912 286.7 57.095 286.673 57.0904C286.645 57.0857 286.62 57.0728 286.6 57.0534C286.588 57.041 286.578 57.0262 286.571 57.0099C286.564 56.9936 286.561 56.9761 286.561 56.9584C286.561 56.9407 286.564 56.9232 286.571 56.9069C286.578 56.8906 286.588 56.8758 286.6 56.8634C286.919 56.5802 287.267 56.3335 287.641 56.128C287.656 56.1179 287.673 56.111 287.691 56.1077C287.709 56.1044 287.727 56.1048 287.745 56.1088C287.763 56.1129 287.78 56.1205 287.795 56.1312C287.809 56.142 287.822 56.1556 287.831 56.1713C287.84 56.187 287.846 56.2044 287.849 56.2225C287.851 56.2406 287.85 56.259 287.845 56.2766C287.84 56.2942 287.832 56.3106 287.82 56.3248C287.809 56.339 287.795 56.3508 287.779 56.3594C287.425 56.5548 287.094 56.7874 286.79 57.0534C286.779 57.0638 286.767 57.0726 286.754 57.0794Z" fill="#C16256"/>
<path d="M314.7 84.0176C314.7 84.0176 304.481 92.012 295.068 91.9124C295.068 91.9124 294.988 92.179 295.221 92.6876C295.221 92.6876 304.556 93.6621 314.916 84.8495C314.959 84.7815 314.988 84.7053 315.001 84.6256C315.013 84.5459 315.01 84.4645 314.989 84.3865C314.969 84.3084 314.933 84.2354 314.883 84.1719C314.833 84.1084 314.771 84.0559 314.7 84.0176Z" fill="#CE3932"/>
<path d="M305.07 146.521C305.784 146.39 306.485 146.194 307.163 145.934C305.535 137.048 305.228 129.466 305.276 122.869C305.374 109.558 307.532 101.242 307.532 101.242C307.532 101.242 306.121 100.499 305.571 99.2148C305.571 99.2148 299.435 124.724 305.07 146.521Z" fill="#163356"/>
<path d="M292.875 143.775C293.037 144.986 293.148 145.651 293.148 145.651C297.49 147.094 303.295 147.411 307.165 145.934C307.063 145.388 306.967 144.843 306.877 144.301C306.877 144.301 299.607 145.902 292.875 143.775Z" fill="#163356"/>
<path d="M314.752 82.3301C313.667 80.9727 311.381 78.6639 307.525 77.0996C301.752 74.7616 300.133 69.7793 300.133 69.7793L312.354 77.5623C312.713 78.2425 313.062 78.9309 313.401 79.6275C313.948 80.4549 314.528 81.3818 314.752 82.3301Z" fill="#CE3932"/>
<path d="M305.04 64.8052C309.356 67.7162 313.639 70.7405 317.381 74.3777C320.138 77.3223 322.141 80.866 323.845 84.4802C324.304 86.092 326.728 88.888 324.491 89.9957C322.959 90.5504 322.401 88.7563 321.723 87.7819C320.739 86.236 319.687 84.7085 318.591 83.253C317.093 81.2904 315.456 79.3432 313.56 77.8325C312.326 76.8949 310.825 75.8623 309.532 74.9874C307.031 73.3236 304.265 71.5571 301.718 69.953C298.337 67.7254 301.603 62.6327 305.04 64.8052Z" fill="#F99370"/>
<path d="M322.276 92.9657C322.787 93.1189 322.787 91.6251 323.093 91.2406C323.417 91.7845 323.677 92.3639 323.868 92.9672C323.985 94.1132 324.038 95.2654 324.04 96.4175C324.04 96.7883 324.611 96.8281 324.653 96.4543C324.789 95.3374 324.878 94.2113 324.909 93.0837H324.925C325.302 94.2317 325.597 95.4045 325.809 96.5937C327.052 98.0231 325.898 93.1174 325.829 92.7145C326.359 93.7401 326.77 94.8225 327.055 95.941C328.434 97.2387 326.873 92.3973 326.664 92.0158L326.674 92.0066C327.199 92.7571 327.656 93.5528 328.04 94.3844C329.485 95.3879 327.581 91.4918 327.366 91.1502C327.24 90.7227 326.549 89.3423 325.117 87.7199C324.67 87.2143 322.987 88.0676 322.767 88.6927C322.561 89.278 322.505 90.1237 322.476 90.4286C322.327 90.928 321.687 92.7144 322.276 92.9657Z" fill="#F99370"/>
<path d="M324.812 86.5155C324.812 86.5155 323.559 88.4674 322.033 88.1931C321.879 88.1656 321.394 87.9557 320.744 87.5604C319.422 86.7522 318.254 85.7146 317.295 84.4962C316.459 83.4238 315.534 82.0847 314.052 80.666C312.531 79.2105 310.798 76.94 307.602 75.5121C303.088 73.4958 301.135 72.0879 299.523 68.5809C298.881 67.1852 296.937 66.1296 296.779 63.928C297.212 63.7684 297.656 63.6399 298.108 63.5434C300.2 63.07 304.542 62.592 309.508 64.9744C315.504 67.8486 324.026 78.3035 324.993 84.0902C325.15 85.0478 325.104 85.872 324.812 86.5155Z" fill="#EB5648"/>
<path d="M297.983 69.2556C297.869 70.6957 297.854 71.7452 297.318 72.0317C296.625 72.3994 295.996 71.7759 295.746 71.4848C295.701 71.4364 295.66 71.3853 295.622 71.3316C295.622 71.3316 295.286 73.4443 294.028 72.64C293.057 72.0179 292.548 70.0523 292.213 68.6106C292.058 67.9457 291.936 67.2732 291.85 66.5959C292.498 66.0704 292.947 65.9907 292.947 65.9907C293.952 70.014 294.844 71.3178 295.539 70.8229C296.296 70.2851 296.777 67.6055 296.78 63.9392C297.213 63.7797 297.657 63.6512 298.108 63.5547C298.108 63.5547 298.108 63.6604 298.108 63.8473C298.13 64.693 298.144 67.2256 297.983 69.2556Z" fill="#CE3932"/>
<path d="M268.63 85.6713C267.84 85.2607 267.334 84.8486 267.252 84.4748C266.895 82.8921 267.699 81.4106 267.699 81.4106C267.959 81.1042 268.523 80.8514 269.272 80.6445C269.271 80.6384 267.785 83.2307 268.63 85.6713Z" fill="#CE3932"/>
<path d="M324.81 86.5168C324.81 86.5168 323.557 88.4687 322.031 88.1945C321.877 88.1669 321.392 87.957 320.742 87.5617C320.92 87.3717 323.31 86.9106 324.991 84.0977C325.148 85.0491 325.102 85.8733 324.81 86.5168Z" fill="#CE3932"/>
</svg>
