<svg width="133" height="35" viewBox="0 0 133 35" fill="none" xmlns="http://www.w3.org/2000/svg">
<g clip-path="url(#clip0_5411_19088)">
<path d="M26.6308 25.189C26.1892 26.2092 25.6665 27.1482 25.0609 28.0116C24.2353 29.1886 23.5594 30.0033 23.0385 30.4557C22.2311 31.1983 21.3659 31.5786 20.4395 31.6002C19.7744 31.6002 18.9723 31.411 18.0387 31.027C17.1019 30.6449 16.2411 30.4557 15.454 30.4557C14.6285 30.4557 13.7432 30.6449 12.7962 31.027C11.8477 31.411 11.0837 31.611 10.4995 31.6309C9.61112 31.6687 8.7256 31.2776 7.8417 30.4557C7.27754 29.9636 6.5719 29.1201 5.72657 27.9251C4.81959 26.649 4.07394 25.1692 3.48977 23.4821C2.86416 21.6599 2.55054 19.8953 2.55054 18.187C2.55054 16.2301 2.97338 14.5423 3.82034 13.128C4.48597 11.9919 5.37149 11.0958 6.47979 10.4379C7.5881 9.78 8.78562 9.44475 10.0752 9.4233C10.7809 9.4233 11.7062 9.64157 12.8562 10.0705C14.0029 10.501 14.7392 10.7192 15.062 10.7192C15.3033 10.7192 16.1213 10.464 17.5078 9.95519C18.8191 9.48332 19.9258 9.28794 20.8324 9.3649C23.2891 9.56317 25.1348 10.5316 26.3622 12.2763C24.1651 13.6076 23.0782 15.4722 23.0998 17.8642C23.1197 19.7273 23.7956 21.2778 25.1239 22.5088C25.7259 23.0802 26.3982 23.5218 27.1462 23.8354C26.984 24.3058 26.8128 24.7564 26.6308 25.189ZM20.9964 3.01752C20.9964 4.47785 20.4629 5.84136 19.3995 7.10341C18.1162 8.60374 16.5639 9.4707 14.8807 9.3339C14.8592 9.1587 14.8468 8.97432 14.8468 8.78056C14.8468 7.37864 15.4571 5.87831 16.5409 4.65158C17.0819 4.03047 17.7701 3.51403 18.6046 3.10205C19.4373 2.69622 20.225 2.47178 20.9658 2.43335C20.9874 2.62857 20.9964 2.82381 20.9964 3.0175V3.01752Z" fill="#333333"/>
</g>
<path d="M45.533 19.1405L46.117 17.2133C46.5842 15.656 47.0319 14.0792 47.4407 12.444H47.5186C47.9663 14.0597 48.3946 15.656 48.8812 17.2133L49.4458 19.1405H45.533ZM51.1978 25H53.5922L48.8423 10.6725H46.2338L41.4839 25H43.781L45.0074 20.912H49.9908L51.1978 25ZM55.2871 29.3411H57.5063V25.876L57.4479 24.0461C58.3629 24.8248 59.3167 25.2531 60.2706 25.2531C62.6845 25.2531 64.8842 23.1507 64.8842 19.4715C64.8842 16.1816 63.3658 14.0208 60.6405 14.0208C59.453 14.0208 58.285 14.6827 57.3506 15.4613H57.2922L57.117 14.2933H55.2871V29.3411ZM59.8423 23.4037C59.1805 23.4037 58.3434 23.1507 57.5063 22.4304V17.1939C58.4213 16.3179 59.2194 15.8896 60.0565 15.8896C61.8474 15.8896 62.5677 17.2717 62.5677 19.5104C62.5677 22.0216 61.3997 23.4037 59.8423 23.4037ZM67.5488 29.3411H69.768V25.876L69.7096 24.0461C70.6246 24.8248 71.5784 25.2531 72.5323 25.2531C74.9462 25.2531 77.1459 23.1507 77.1459 19.4715C77.1459 16.1816 75.6275 14.0208 72.9022 14.0208C71.7147 14.0208 70.5467 14.6827 69.6123 15.4613H69.5539L69.3787 14.2933H67.5488V29.3411ZM72.104 23.4037C71.4422 23.4037 70.6051 23.1507 69.768 22.4304V17.1939C70.683 16.3179 71.4811 15.8896 72.3182 15.8896C74.1091 15.8896 74.8294 17.2717 74.8294 19.5104C74.8294 22.0216 73.6614 23.4037 72.104 23.4037ZM88.4656 25.2531C91.5998 25.2531 93.5075 23.3843 93.5075 21.0872C93.5075 18.9848 92.2811 17.9336 90.5875 17.2133L88.6214 16.3763C87.4534 15.9091 86.3048 15.4419 86.3048 14.2155C86.3048 13.0669 87.2587 12.3661 88.7187 12.3661C89.984 12.3661 90.9768 12.8528 91.8723 13.6509L93.0598 12.2104C91.9696 11.1008 90.3928 10.4 88.7187 10.4C85.9934 10.4 84.0078 12.0936 84.0078 14.3517C84.0078 16.4347 85.5456 17.5248 86.9278 18.1088L88.9134 18.9653C90.2371 19.5493 91.2104 19.9581 91.2104 21.2624C91.2104 22.4693 90.2371 23.2869 88.5046 23.2869C87.1224 23.2869 85.7208 22.6251 84.6891 21.5933L83.3654 23.1507C84.6696 24.4744 86.4995 25.2531 88.4656 25.2531ZM99.0765 25.2531C99.8551 25.2531 100.575 25.0584 101.179 24.8637L100.77 23.2091C100.459 23.3453 99.9914 23.4621 99.6215 23.4621C98.5119 23.4621 98.0642 22.8003 98.0642 21.5155V16.0843H100.848V14.2933H98.0642V11.3344H96.1759L95.9229 14.2933L94.2682 14.4101V16.0843H95.8255V21.496C95.8255 23.7541 96.6626 25.2531 99.0765 25.2531ZM107.153 25.2531C109.8 25.2531 112.195 23.2091 112.195 19.6661C112.195 16.0843 109.8 14.0208 107.153 14.0208C104.505 14.0208 102.111 16.0843 102.111 19.6661C102.111 23.2091 104.505 25.2531 107.153 25.2531ZM107.153 23.4232C105.479 23.4232 104.428 21.9243 104.428 19.6661C104.428 17.3885 105.479 15.8701 107.153 15.8701C108.846 15.8701 109.898 17.3885 109.898 19.6661C109.898 21.9243 108.846 23.4232 107.153 23.4232ZM114.828 25H117.047V18.3229C117.728 16.6293 118.779 16.0259 119.655 16.0259C120.084 16.0259 120.356 16.0843 120.726 16.2011L121.135 14.2544C120.804 14.0987 120.454 14.0208 119.928 14.0208C118.779 14.0208 117.65 14.8384 116.891 16.2205H116.833L116.658 14.2933H114.828V25ZM127.042 25.2531C128.443 25.2531 129.67 24.7859 130.663 24.124L129.884 22.7029C129.105 23.2091 128.288 23.5011 127.334 23.5011C125.485 23.5011 124.2 22.2747 124.025 20.2307H130.974C131.033 19.9776 131.071 19.5299 131.071 19.1016C131.071 16.0648 129.553 14.0208 126.711 14.0208C124.2 14.0208 121.825 16.1816 121.825 19.6661C121.825 23.1896 124.141 25.2531 127.042 25.2531ZM124.005 18.6928C124.219 16.8045 125.407 15.7728 126.75 15.7728C128.307 15.7728 129.144 16.8435 129.144 18.6928H124.005Z" fill="#333333"/>
<defs>
<clipPath id="clip0_5411_19088">
<rect width="29.2" height="29.2" fill="white" transform="translate(0.117188 2.43311)"/>
</clipPath>
</defs>
</svg>
