<svg width="340" height="200" viewBox="0 0 340 200" fill="none" xmlns="http://www.w3.org/2000/svg">
<g opacity="0.6">
<path opacity="0.6" d="M231.189 166.928C231.189 166.928 264.958 39.7542 296.889 50.8801C328.821 62.006 256.622 130.733 247.862 168.054L231.189 166.928Z" fill="#D1E8E4"/>
</g>
<path d="M252.807 151.859C252.807 151.859 294.063 75.6671 316.952 88.6239C339.841 101.581 276.543 132.987 265.381 155.661L252.807 151.859Z" fill="#D2DBAF"/>
<path d="M259.729 154.112C267.218 138.338 280.358 124.114 290.107 114.96C300.703 104.96 309.463 98.7637 309.605 98.6229L309.181 98.0596C309.039 98.0596 300.138 104.397 289.683 114.396C279.934 123.551 266.652 137.916 259.164 153.83L259.729 154.112Z" fill="#82A047"/>
<path d="M314.833 152.704C305.649 155.802 304.377 170.308 294.911 168.618C286.857 167.21 286.292 166.505 282.901 169.463C281.771 170.449 280.64 171.716 279.651 172.984C278.521 174.533 276.402 176.786 273.717 177.631C257.469 182.42 240.938 159.041 259.871 143.127C261.284 142 262.979 141.437 264.957 140.874C275.554 137.916 277.815 142.845 288.553 128.48C299.291 114.115 306.638 132.283 313.702 130.874C320.767 129.466 327.266 126.508 331.081 133.973C335.037 141.578 324.016 149.746 314.833 152.704Z" fill="#A6DDD3"/>
<path d="M261.425 161.295L261.143 160.732C261.425 160.591 286.292 142.283 331.929 136.086L331.788 136.79C286.433 142.846 261.708 161.014 261.425 161.295Z" fill="#63B7A7"/>
<path d="M293.356 138.762C288.552 133.41 288.27 128.762 288.27 128.622L288.835 128.34C288.835 128.34 288.976 132.987 293.78 138.198L293.356 138.762Z" fill="#63B7A7"/>
<path d="M293.075 145.662C291.945 142.564 293.075 137.776 296.183 131.861C298.444 127.495 301.128 123.833 301.128 123.833L301.552 124.115C301.411 124.256 291.238 138.057 293.781 145.24L293.075 145.662Z" fill="#63B7A7"/>
<path d="M305.225 143.268C304.66 142.705 304.377 142.282 304.377 142.282L304.942 141.719C304.942 141.86 311.441 150.028 323.451 148.197L323.31 148.901C313.561 150.31 307.485 145.38 305.225 143.268Z" fill="#63B7A7"/>
<path d="M308.333 157.774C306.214 154.676 306.072 151.436 306.355 149.183C306.637 146.789 307.344 145.099 307.485 144.958L308.05 145.099C308.05 145.099 305.083 151.577 309.039 157.211L308.333 157.774Z" fill="#63B7A7"/>
<path d="M88.9107 48.3448C87.0739 45.5281 85.661 45.5281 84.3894 46.3731C83.2591 47.2181 82.6939 48.7673 84.5307 51.584C87.7804 56.654 91.5952 57.3582 91.5952 57.3582C91.5952 57.3582 92.1604 53.4148 88.9107 48.3448Z" fill="#A6DDD3"/>
<path d="M270.468 21.4455C273.718 20.6005 274.848 21.4455 275.272 22.8539C275.555 24.2622 274.848 25.5297 271.599 26.3747C265.664 27.9239 262.273 26.2339 262.273 26.2339C262.273 26.2339 264.393 22.9947 270.468 21.4455Z" fill="#A6DDD3"/>
<path d="M260.295 16.6573C261.849 13.8406 263.262 13.4181 264.251 14.1223C265.24 14.8264 265.664 16.2348 264.109 19.0515C261.142 24.2624 257.893 25.6707 257.893 25.6707C257.893 25.6707 257.327 22.009 260.295 16.6573Z" fill="#A6DDD3"/>
<g opacity="0.88">
<g opacity="0.88">
<path opacity="0.88" d="M114.626 146.507C114.626 146.507 81.4229 59.753 59.8055 70.3156C38.0469 80.7374 94.139 123.129 103.04 148.76L114.626 146.507Z" fill="#D3EAE5"/>
</g>
<g opacity="0.88">
<g opacity="0.88">
<path opacity="0.88" d="M104.593 139.747C104.593 139.747 45.2515 88.483 29.5683 107.777C13.8851 127.213 78.3133 131.86 94.9855 147.493L104.593 139.747Z" fill="#85C9BC"/>
</g>
<g opacity="0.88">
<g opacity="0.88">
<path opacity="0.88" d="M99.2234 144.112C87.7789 133.127 72.0957 125.522 60.7925 121.016C48.6416 116.227 39.0339 113.833 38.8926 113.833L39.0339 113.129C39.1752 113.129 48.7829 115.382 61.0751 120.311C72.3783 124.818 88.2028 132.564 99.6473 143.549L99.2234 144.112Z" fill="#74A1BD"/>
</g>
</g>
</g>
<g opacity="0.88">
<g opacity="0.88">
<g opacity="0.88">
<path opacity="0.88" d="M29.9925 162.28C41.7196 164.674 40.1654 183.687 53.4467 179.885C66.7279 176.082 65.5976 175.237 72.2382 181.293C72.2382 181.293 74.9227 187.208 80.1505 188.053C101.203 191.574 129.319 157.773 106.996 140.028C105.441 138.761 103.039 138.338 100.496 137.916C86.6498 135.944 82.4111 142.845 71.2492 125.663C59.946 108.481 45.6757 133.832 36.4918 133.127C27.1667 132.423 18.9719 129.607 11.9074 140.31C4.98416 150.873 18.2654 159.745 29.9925 162.28Z" fill="#D2E5A3"/>
</g>
</g>
<g opacity="0.88">
<g opacity="0.88">
<g opacity="0.88">
<path opacity="0.88" d="M100.92 164.252L101.344 163.548C101.061 163.407 71.3901 143.408 10.4941 143.268V144.113C71.1076 144.253 100.637 163.97 100.92 164.252Z" fill="#9EB564"/>
</g>
</g>
<g opacity="0.88">
<g opacity="0.88">
<path opacity="0.88" d="M62.489 140.028C70.4012 132.142 71.6728 125.945 71.6728 125.663L70.9664 125.522C70.9664 125.522 69.6948 131.719 61.9238 139.324L62.489 140.028Z" fill="#9EB564"/>
</g>
</g>
<g opacity="0.88">
<g opacity="0.88">
<path opacity="0.88" d="M61.3594 149.042C63.4787 144.817 63.1961 138.62 60.3703 131.437C58.251 125.945 55.4252 121.72 55.4252 121.72L54.7188 122.142C54.86 122.283 65.5981 138.761 60.5116 148.619L61.3594 149.042Z" fill="#9EB564"/>
</g>
</g>
<g opacity="0.88">
<g opacity="0.88">
<path opacity="0.88" d="M45.2513 148.056C46.2403 147.211 46.6642 146.647 46.6642 146.647L46.099 146.084C45.9577 146.225 35.361 158.055 19.2539 157.914V158.759C32.2526 158.759 41.719 151.295 45.2513 148.056Z" fill="#9EB564"/>
</g>
</g>
<g opacity="0.88">
<g opacity="0.88">
<path opacity="0.88" d="M37.7631 167.632C41.2953 163.125 42.2844 158.759 42.4257 155.943C42.5669 152.844 42.0018 150.732 41.8605 150.591L41.154 150.872C41.154 151.013 43.6973 158.9 37.0566 167.068L37.7631 167.632Z" fill="#9EB564"/>
</g>
</g>
</g>
</g>
</g>
<path d="M270.609 188.053C270.609 188.053 292.085 162.843 285.868 126.93C280.217 94.116 241.786 62.8507 197.138 84.5392C184.281 90.736 177.64 59.8932 163.228 59.0482C121.265 56.3723 85.2363 61.8649 80.715 118.621C77.6067 156.647 38.8932 126.649 64.3254 188.053H270.609Z" fill="#FCF4DF"/>
<path d="M143.166 117.635H254.079C255.492 117.635 256.622 116.509 256.622 115.1C256.622 113.692 255.492 112.565 254.079 112.565H143.166C141.753 112.565 140.623 113.692 140.623 115.1C140.764 116.509 141.895 117.635 143.166 117.635Z" fill="#B2CFD8"/>
<path d="M254.786 193.686H258.318L250.688 117.636H247.156L254.786 193.686Z" fill="#B2CFD8"/>
<path d="M224.831 193.686H221.299L228.928 117.636H232.461L224.831 193.686Z" fill="#B2CFD8"/>
<path d="M172.272 193.686H175.805L168.175 117.636H164.643L172.272 193.686Z" fill="#B2CFD8"/>
<path d="M142.177 193.686H138.645L146.274 117.636H149.806L142.177 193.686Z" fill="#B2CFD8"/>
<path d="M104.029 105.383C104.594 103.975 104.877 102.567 104.453 101.158C103.605 98.9051 102.051 98.7642 99.5079 97.9192C97.3886 97.2151 95.8344 97.0742 94.5628 97.7784C93.4324 98.3417 92.726 99.4684 92.0195 101.018L94.1389 101.863C95.1279 99.6092 95.8344 98.9051 98.8015 100.032C101.062 100.877 102.051 101.44 102.475 102.144C102.758 102.567 102.616 103.412 102.051 104.679L104.029 105.383Z" fill="#1A3141"/>
<path d="M232.178 9.05204C233.025 8.9112 233.873 8.77037 234.721 8.62953C235.71 8.34787 236.84 8.20703 237.547 8.20703C239.101 8.34787 241.503 8.9112 242.633 10.7421C243.905 12.8546 247.437 12.1504 244.611 21.4455C241.362 32.0081 235.427 29.4731 235.427 29.3322C235.286 29.0505 231.471 21.3046 231.471 21.3046C231.471 21.3046 228.645 24.8255 228.645 24.6847C228.645 24.5438 221.863 10.1787 232.178 9.05204Z" fill="#56211E"/>
<path d="M192.192 38.9095C192.192 38.2053 195.583 38.9095 196.007 38.3461C196.431 37.7828 192.334 36.0928 192.475 35.5294C192.616 34.4028 196.996 37.0786 197.138 36.5153C197.279 35.9519 192.899 33.1352 193.747 32.4311C194.594 31.8677 197.985 35.9519 198.268 35.3886C198.692 34.9661 194.736 31.8677 195.442 30.7411C195.725 30.1777 201.235 36.7969 202.224 36.7969C203.213 36.7969 202.789 33.1352 203.637 32.9944C204.485 32.8536 203.637 40.0361 203.919 40.4586C204.343 40.8811 211.69 50.0354 214.799 52.1479C215.647 51.1621 221.298 46.5145 222.005 45.6695C223.417 47.782 225.537 48.9087 226.95 50.8804C223.983 53.8379 215.364 60.3163 214.092 60.4571C210.419 60.598 202.648 46.5145 200.952 43.9795C199.257 41.4445 197.703 41.4445 196.29 40.3178C195.018 39.1911 192.051 39.6136 192.192 38.9095Z" fill="#EA968F"/>
<path d="M224.973 54.4014C224.973 54.4014 235.428 47.6413 237.689 43.5571C239.949 39.4729 231.472 33.6987 227.657 35.5296C223.419 37.5012 217.908 47.5005 217.908 47.5005L224.973 54.4014Z" fill="#F7CC7F"/>
<path d="M220.31 181.574L220.734 187.912C220.875 188.757 221.44 190.728 221.44 191.433C221.44 194.108 208.865 189.038 211.691 187.912C211.974 187.771 213.245 186.926 213.387 186.081C213.528 184.673 213.81 181.715 213.81 181.715L220.31 181.574Z" fill="#F7A491"/>
<path d="M211.691 187.912C211.691 187.912 214.658 189.32 216.071 189.461C217.625 189.602 219.603 187.912 220.592 188.335C221.723 188.898 221.581 193.968 221.581 193.968C221.581 193.968 205.898 194.813 201.518 193.546C199.823 193.123 205.615 189.884 211.691 187.912Z" fill="#1C4B8E"/>
<path d="M247.861 182.279L248.284 188.617C248.426 189.462 248.991 191.434 248.991 192.138C248.991 194.814 236.416 189.744 239.242 188.617C239.524 188.476 241.22 187.068 241.361 186.082C241.502 184.673 241.361 182.42 241.361 182.42L247.861 182.279Z" fill="#F7A491"/>
<path d="M239.242 188.475C239.242 188.475 242.209 189.32 243.622 189.461C245.176 189.602 247.154 187.912 248.143 188.335C249.274 188.898 249.415 193.545 249.415 193.545C249.415 193.545 232.601 194.672 228.787 193.686C226.95 193.264 233.166 190.447 239.242 188.475Z" fill="#1C4B8E"/>
<path d="M227.938 91.0176L222.711 93.2709L211.549 145.098L211.973 183.968L220.874 184.109C220.874 184.109 224.971 150.168 224.971 147.492C224.971 144.816 244.187 101.439 244.187 101.439L227.938 91.0176Z" fill="#006496"/>
<path d="M232.037 93.835C232.037 93.835 235.993 133.691 235.993 140.451C235.993 147.211 239.102 184.814 239.102 184.814H248.003C248.003 184.814 248.709 173.407 249.557 156.506C249.698 153.831 249.416 148.479 249.557 145.803C250.97 126.086 252.524 92.99 251.818 92.145C246.025 86.23 232.037 93.835 232.037 93.835Z" fill="#0082E0"/>
<path d="M240.797 33.9796C240.797 33.9796 247.862 34.6838 249.557 35.6697C251.535 36.7963 252.524 41.5847 252.524 41.5847C252.524 41.5847 251.394 66.6533 251.959 72.4275C252.383 76.9342 252.665 101.017 252.665 101.017C252.665 101.017 228.505 101.439 219.604 98.9044C219.604 98.9044 222.571 82.7084 222.288 79.1875C222.005 75.6667 222.429 43.8381 222.994 41.5847C223.418 39.4722 224.407 35.8105 228.505 34.543C232.32 33.5571 240.797 33.9796 240.797 33.9796Z" fill="#FAE0B2"/>
<path d="M238.961 27.2199L241.221 35.5292C241.221 35.5292 237.124 40.4584 233.733 39.8951C230.907 39.3317 231.331 35.9517 231.331 35.9517C231.331 35.9517 232.461 31.0225 231.755 28.7691C231.049 26.2341 238.961 27.2199 238.961 27.2199Z" fill="#F8A492"/>
<path d="M231.612 28.628C230.906 26.2338 238.959 27.2196 238.959 27.2196L239.101 27.9238C238.959 28.3463 238.677 28.7688 238.394 29.1913C236.84 30.8813 234.155 32.008 231.754 32.2897C231.895 31.0222 231.895 29.6138 231.612 28.628Z" fill="#F47458"/>
<path d="M102.333 179.321C102.333 179.321 100.072 181.434 99.9307 182.279C99.9307 183.124 99.7894 191.433 100.637 192.278C101.626 193.123 104.311 193.686 103.463 194.531C102.757 195.235 97.6701 195.095 94.2791 194.813C93.2901 194.813 92.0185 187.208 91.5946 186.081C91.0295 184.532 89.6166 180.87 90.1817 179.744C90.4643 179.18 91.5946 178.054 93.2901 177.068C95.1269 175.941 96.8224 173.547 96.8224 173.547L102.333 179.321Z" fill="#F48C7F"/>
<path d="M126.07 184.25C126.07 184.25 124.092 189.743 123.951 189.743C123.809 190.588 123.244 192.841 123.244 193.545C123.244 196.503 137.373 191.01 134.123 189.743C133.841 189.602 132.993 188.616 132.852 187.63C132.711 186.081 133.982 184.109 133.982 184.109L126.07 184.25Z" fill="#F7A491"/>
<path d="M148.252 81.1592C148.252 81.1592 149.241 91.0176 149.241 91.1584C149.241 107.214 152.632 138.479 151.926 141.577C150.372 148.901 133.841 186.503 133.841 186.503L124.939 185.518L136.667 140.591L132.428 122.565L126.352 86.7926L148.252 81.1592Z" fill="#ED7D2B"/>
<path d="M118.157 90.0324L116.462 99.4683L111.799 138.057L94.2793 175.941C94.2793 175.941 96.6812 181.434 100.355 182.279L128.33 143.409L145.709 93.6941L145.144 82.709L118.157 90.0324Z" fill="#F99746"/>
<path d="M93.5725 176.786C93.5725 176.786 98.8002 191.01 100.92 191.715C101.485 191.855 104.028 192.419 104.593 193.405C104.734 193.686 104.593 194.813 104.593 194.813H93.5725C93.5725 194.813 92.1596 188.616 91.5944 185.8C91.5944 185.8 88.6273 179.039 89.0512 178.476C89.3338 177.913 93.5725 176.786 93.5725 176.786Z" fill="#1C4B8E"/>
<path d="M122.537 194.672L124.091 189.743C124.091 189.743 127.482 191.152 129.178 190.87C130.873 190.588 134.123 189.743 134.123 189.743C140.905 191.856 146.415 192.842 145.426 194.672H122.537Z" fill="#1C4B8E"/>
<path d="M192.476 55.3868L191.487 55.9501C191.487 55.9501 190.639 56.6543 190.357 56.6543C190.074 56.6543 183.857 56.5135 183.857 56.5135V58.4852L187.248 61.0202L187.955 61.3018L192.194 60.0343L196.15 59.6118C196.15 59.6118 198.975 59.3302 198.975 59.1893C198.975 59.1893 198.834 57.0768 198.834 56.936C198.693 56.7951 197.139 55.246 197.139 55.246L195.867 54.9643L194.595 54.6826L192.759 54.9643L192.476 55.3868Z" fill="#FFB27D"/>
<path d="M201.802 59.8933C201.802 59.8933 200.53 60.0341 199.824 60.3158C199.117 60.5975 193.748 64.5408 193.748 64.5408C193.748 64.5408 193.042 64.9633 192.618 64.6817C192.194 64.4 192.194 63.9775 192.194 63.9775C192.194 63.9775 191.487 64.2592 191.064 64.1183C190.64 63.8367 190.64 63.555 190.64 63.2733C190.64 63.2733 190.074 63.4142 189.651 63.1325C189.227 62.8508 189.509 62.0058 189.509 62.0058C189.509 62.0058 188.379 62.71 187.955 62.2875C187.531 61.865 187.673 61.3016 188.096 61.02C188.52 60.5975 191.205 58.9074 191.487 58.7666C191.77 58.6258 192.618 57.6399 192.9 57.4991C193.183 57.3583 193.889 57.0766 193.889 57.0766L195.02 57.2174C195.02 57.2174 195.444 58.0624 196.009 58.2033C196.574 58.3441 197.28 58.0624 197.28 58.0624C197.28 57.9216 197.28 57.7808 197.28 57.6399C197.28 57.4991 196.856 56.9358 196.715 56.5133C196.574 56.0908 196.433 55.9499 196.291 55.8091C196.15 55.6683 195.161 55.3866 194.737 55.2457C194.313 55.1049 192.194 55.5274 192.194 55.5274L191.205 55.9499C191.205 55.9499 191.346 55.2457 191.911 55.1049C192.476 54.9641 193.324 54.8232 193.748 54.8232C194.172 54.8232 195.161 55.1049 195.585 55.1049C196.009 55.1049 196.856 55.2457 197.422 55.3866C197.987 55.5274 200.954 55.3866 201.095 55.3866C201.378 55.3866 202.791 58.7666 201.802 59.8933Z" fill="#F8A492"/>
<path d="M200.671 55.387C201.942 55.387 216.778 55.2462 222.288 55.2462C223.701 55.2462 224.972 54.8237 225.961 53.9787L238.395 44.6836L245.883 52.2887L230.765 62.2879C229.776 62.9921 223.983 63.5554 222.712 63.5554C216.919 62.9921 201.942 60.1754 200.529 60.3162L200.671 55.387Z" fill="#F8A492"/>
<path d="M189.508 56.6548C188.236 56.6548 172.553 56.3731 167.042 56.3731C165.63 56.3731 164.358 55.9506 163.369 55.1056L150.935 45.8105L145.566 51.7256L160.967 62.2882C161.956 62.9924 163.228 63.274 164.499 63.1332C170.292 62.5699 186.399 61.0207 187.812 61.3023L189.508 56.6548Z" fill="#FFB27D"/>
<path d="M229.775 49.4722C229.775 49.4722 240.09 39.0504 243.904 36.3745C247.719 33.6987 252.382 35.952 252.664 40.4587C252.947 47.078 239.242 58.9081 239.242 58.9081L229.775 49.4722Z" fill="#F7CC7F"/>
<path d="M157.153 49.4722C157.153 49.4722 146.839 39.0504 143.024 36.3745C139.209 33.6987 131.721 35.952 132.286 40.4587C132.851 45.1063 149.806 56.7956 149.806 56.7956L157.153 49.4722Z" fill="#98BAF4"/>
<path d="M145.144 45.388C145.427 46.9372 152.067 98.0601 152.067 98.0601C132.428 104.398 114.908 98.3418 114.908 98.3418C114.908 98.3418 118.017 61.7248 117.169 57.4998C116.604 54.8239 117.169 36.2338 119.006 35.6704C121.408 34.9663 122.962 34.5438 125.929 34.2621C128.472 33.9804 138.362 33.8396 140.199 34.4029C139.917 34.5438 144.014 38.7688 145.144 45.388Z" fill="#B0D0FF"/>
<path d="M128.613 25.671L127.059 34.6844C127.059 34.6844 132.71 46.2328 136.101 45.247C138.927 44.402 137.231 34.5436 137.231 34.5436C137.231 34.5436 135.677 29.1918 136.101 26.516C136.525 23.981 128.613 25.671 128.613 25.671Z" fill="#FFB27D"/>
<path d="M136.1 26.6568C136.524 23.981 128.612 25.671 128.612 25.671L128.471 26.516C128.753 27.0794 129.036 27.5019 129.318 27.7835C131.155 29.4735 133.84 30.6002 136.242 30.741C135.959 29.1919 135.818 27.6427 136.1 26.6568Z" fill="#E8945B"/>
<path d="M127.199 12.4326C126.917 12.2917 125.363 23.136 128.33 26.0935C131.297 29.051 137.231 30.0369 139.209 27.6427C141.47 25.1077 141.47 13.5592 136.807 10.4609C132.286 7.36251 127.199 12.4326 127.199 12.4326Z" fill="#FFB27D"/>
<path d="M128.329 8.34812C126.633 8.48895 124.514 9.33396 122.112 12.8548C119.286 17.0799 121.406 21.8682 124.655 24.2624C127.905 26.6566 127.905 29.3325 127.905 29.3325L128.47 27.9241C128.894 26.9383 129.035 25.8116 128.894 24.6849C128.753 23.9808 128.611 23.2766 128.329 22.7132C127.481 21.1641 130.024 20.1782 130.731 18.7699C131.296 17.784 131.296 15.5307 132.144 13.8407L133.133 12.5732C133.133 12.5732 135.535 10.8831 137.795 11.4465C140.056 12.0098 137.23 1.44722 128.329 8.34812Z" fill="#1D3B4C"/>
<path d="M129.219 22.994C130.078 22.9805 130.757 21.8978 130.736 20.5757C130.715 19.2535 130.002 18.1927 129.144 18.2061C128.286 18.2196 127.607 19.3023 127.628 20.6244C127.648 21.9466 128.361 23.0075 129.219 22.994Z" fill="#FFB27D"/>
<path d="M139.492 22.9951L134.547 23.4176C134.547 23.4176 134.829 25.2485 137.09 25.1076C139.633 24.9668 139.492 22.9951 139.492 22.9951Z" fill="#F7F7F7"/>
<path d="M96.5404 93.9755C96.5404 93.8347 96.5404 93.8347 96.5404 93.6938C96.823 90.4546 99.6488 63.8369 100.073 62.7102C100.497 61.7244 112.789 44.8242 112.789 44.8242L118.864 52.711L106.996 67.9211C106.713 68.9069 102.475 86.9338 102.475 86.9338C102.475 86.9338 101.627 90.173 101.203 92.1446C101.344 92.5671 101.627 93.1305 101.768 93.4122C102.192 94.2572 102.616 94.8205 103.04 95.3838C103.605 96.088 104.453 97.4964 104.594 97.9189C104.735 98.3414 104.877 99.3272 105.018 99.8905C105.159 100.454 105.3 101.158 105.3 101.44C105.3 101.581 105.583 102.003 105.724 102.285C106.007 102.707 105.583 103.13 105.159 102.989C104.735 102.848 104.453 102.285 104.17 102.003C103.605 101.017 103.322 99.3272 103.181 99.468C103.04 99.6089 102.333 102.003 102.192 102.285C101.768 102.848 100.92 102.566 100.779 102.003C100.779 101.721 100.638 101.721 100.497 101.862C100.355 102.003 100.073 102.144 99.6488 102.144C98.9423 102.003 99.0836 101.44 98.801 101.581C97.812 102.003 97.3881 101.158 97.5294 100.876C97.5294 100.736 97.5294 100.736 97.3881 100.736C96.9643 100.876 96.2578 100.876 96.2578 99.468C96.2578 98.0597 96.9643 96.3697 96.6817 94.5388C96.5404 94.398 96.5404 94.1163 96.5404 93.9755Z" fill="#FFB27D"/>
<path d="M103.18 55.2463L113.776 62.0063C113.776 62.0063 119.711 53.5563 122.96 50.4579C126.916 46.6554 121.547 35.1069 118.863 35.8111C113.07 37.2195 103.18 55.2463 103.18 55.2463Z" fill="#B0D0FF"/>
<path d="M236.417 12.996C233.309 11.7285 229.777 13.7002 229.07 16.7985C228.788 18.2069 228.505 19.8969 228.364 21.8686C228.081 26.3753 230.342 31.0228 232.461 31.0228C234.581 31.1637 240.797 28.347 241.221 21.8686C241.786 18.066 239.808 14.2635 236.417 12.996Z" fill="#F8A492"/>
<path d="M239.809 22.4312C239.809 23.4171 240.374 24.2621 241.221 24.2621C242.069 24.2621 242.776 23.5579 242.917 22.5721C242.917 21.5862 242.352 20.7412 241.504 20.7412C240.515 20.7412 239.809 21.4454 239.809 22.4312Z" fill="#F8A492"/>
<path d="M241.362 20.7418C241.362 20.7418 238.678 20.7418 238.113 19.0518C237.548 17.3618 235.004 13.2776 230.342 13.7001C225.821 14.1226 234.863 11.165 235.146 11.165C235.428 11.3059 239.526 12.01 239.526 12.01C239.526 12.01 242.069 15.1084 242.21 15.3901C242.21 15.6717 242.493 18.9109 242.493 18.9109L241.362 20.7418Z" fill="#56211E"/>
<path d="M235.286 26.2346L230.482 26.0938C230.482 26.0938 230.482 27.7838 232.602 27.9246C235.286 28.0654 235.286 26.2346 235.286 26.2346Z" fill="#F7F7F7"/>
<path d="M97.2463 126.367C95.2682 129.888 98.8004 132.564 98.8004 132.564C102.757 134.395 105.865 134.395 105.865 134.395C112.082 120.029 114.06 110.594 114.06 109.889C114.06 109.326 112.506 108.34 111.94 108.622C104.593 114.114 97.2463 126.367 97.2463 126.367Z" fill="#17405B"/>
<path d="M111.8 108.622C95.1275 102.989 83.1179 97.3555 83.1179 97.3555C73.3689 108.341 69.6953 118.34 69.6953 118.34C80.1508 125.1 98.8011 132.705 98.8011 132.705C99.0836 129.043 111.8 108.622 111.8 108.622Z" fill="#1D4D72"/>
<path d="M113.92 110.03C110.953 107.918 102.758 121.297 102.758 121.297C86.5097 115.945 74.5 107.918 74.5 107.918C79.1626 99.4676 81.9884 97.6368 83.4013 96.9326C85.5206 96.9326 93.1503 101.017 98.8019 103.27C106.573 106.369 114.344 108.763 113.92 110.03Z" fill="#17405B"/>
<path d="M91.4537 115.241C91.0298 116.509 89.8995 118.058 89.8995 118.058C87.3563 116.931 85.5195 115.805 85.5195 115.805C86.0847 114.678 86.7911 113.411 87.0737 113.129C89.3344 113.974 91.4537 115.241 91.4537 115.241Z" fill="#F7F7F7"/>
</svg>
