<svg width="124" height="16" viewBox="0 0 124 16" fill="none" xmlns="http://www.w3.org/2000/svg">
<path d="M10.5111 7.69061C11.6767 7.02762 12.4129 5.83425 12.4129 4.28729C12.4129 1.87845 10.5725 0.265193 6.99377 0.265193H0V15.7348H7.40277C11.1655 15.7348 13.1287 14.1878 13.1287 11.5138C13.1287 9.56906 12.1062 8.24309 10.5111 7.69061ZM6.58478 2.96133C8.2003 2.96133 9.07964 3.55801 9.07964 4.77348C9.07964 5.98895 8.2003 6.60773 6.58478 6.60773H3.29239V2.96133H6.58478ZM7.15737 13.0387H3.29239V9.21547H7.15737C8.87514 9.21547 9.79537 9.83425 9.79537 11.1381C9.79537 12.4641 8.87514 13.0387 7.15737 13.0387Z" fill="#127BF2"/>
<path d="M18.7831 15.9116C19.8874 15.9116 20.7668 15.0055 20.7668 13.7459C20.7668 12.4641 19.8874 11.6243 18.7831 11.6243C17.6789 11.6243 16.7995 12.4641 16.7995 13.7459C16.7995 15.0055 17.6789 15.9116 18.7831 15.9116Z" fill="#127BF2"/>
<path d="M25.1986 15.7348H35.6892V12.8177H28.5114V0.265193H25.1986V15.7348Z" fill="#127BF2"/>
<path d="M50.4002 15.7348H53.8766L47.4759 0.265193H44.204L37.8237 15.7348H41.2183L42.4862 12.4199H49.1323L50.4002 15.7348ZM43.5496 9.70166L45.8195 3.77901L48.0894 9.70166H43.5496Z" fill="#127BF2"/>
<path d="M63.467 16C67.5365 16 69.9495 13.4807 69.9495 8.92818V0.265193H66.6776V8.79558C66.6776 11.7348 65.512 12.9503 63.4875 12.9503C61.4834 12.9503 60.2973 11.7348 60.2973 8.79558V0.265193H56.9845V8.92818C56.9845 13.4807 59.3975 16 63.467 16Z" fill="#127BF2"/>
<path d="M85.1249 0.265193V9.65746L78.0085 0.265193H75.2682V15.7348H78.5402V6.34254L85.6771 15.7348H88.3969V0.265193H85.1249Z" fill="#127BF2"/>
<path d="M100.679 16C103.174 16 105.24 15.0276 106.589 13.2376L104.462 11.116C103.501 12.3315 102.295 12.9503 100.863 12.9503C98.1844 12.9503 96.2826 10.9171 96.2826 8C96.2826 5.08287 98.1844 3.04972 100.863 3.04972C102.295 3.04972 103.501 3.66851 104.462 4.86188L106.589 2.74033C105.24 0.972375 103.174 0 100.7 0C96.2417 0 92.9289 3.33702 92.9289 8C92.9289 12.663 96.2417 16 100.679 16Z" fill="#127BF2"/>
<path d="M120.687 0.265193V6.36464H114.184V0.265193H110.871V15.7348H114.184V9.39227H120.687V15.7348H124V0.265193H120.687Z" fill="#127BF2"/>
</svg>
