<svg width="456" height="393" viewBox="0 0 456 393" fill="none" xmlns="http://www.w3.org/2000/svg">
<path d="M406.944 353.232C406.944 353.232 396.904 375.767 409.959 388.281H444.133C444.133 388.281 455.937 375.767 446.394 353.232H406.944Z" fill="#1C2738"/>
<path d="M434.301 301.208C433.67 293.21 430.03 285.746 424.11 280.311C419.769 286.891 416.573 294.462 416.422 302.334C416.271 310.206 421.035 319.055 427.246 323.922L427.336 323.397C432.374 317.136 434.86 309.213 434.301 301.208Z" fill="white"/>
<path d="M434.303 301.209C434.489 301.761 434.585 302.339 434.589 302.922C434.698 304.544 434.662 306.173 434.484 307.789C433.818 313.642 431.526 319.193 427.866 323.819L428.002 323.503V324.029L427.821 325.171L426.901 324.45C423.842 322.034 421.282 319.049 419.364 315.661C417.14 311.891 415.872 307.636 415.671 303.267C415.679 298.83 416.517 294.433 418.143 290.302C419.557 286.653 421.383 283.175 423.585 279.936L424.022 279.275L424.595 279.801C428.912 283.831 432.005 288.99 433.519 294.689C433.945 296.263 434.227 297.872 434.363 299.496C434.455 300.064 434.455 300.642 434.363 301.209C434.167 301.209 434.047 298.835 432.856 294.899C431.131 289.494 428.012 284.635 423.811 280.808L424.836 280.673C422.754 283.862 421.025 287.267 419.68 290.828C418.168 294.793 417.381 298.996 417.359 303.237C417.55 307.353 418.734 311.362 420.811 314.925C422.593 318.163 424.971 321.038 427.821 323.398L426.735 323.819L426.826 323.293V323.113L426.931 322.977C430.527 318.566 432.902 313.293 433.821 307.684C434.409 303.613 434.107 301.224 434.303 301.209Z" fill="#1C2738"/>
<path d="M426.87 294.178C427.307 294.178 427.669 312.791 427.669 335.731C427.669 358.672 427.262 377.3 426.87 377.3C426.478 377.3 426.086 358.687 426.086 335.731C426.086 312.776 426.403 294.178 426.87 294.178Z" fill="#1C2738"/>
<path d="M416.319 321.279C411.926 316.816 406.003 314.171 399.737 313.873C400.288 320.042 402.542 325.938 406.249 330.909C410.093 335.732 417.449 338.601 423.63 338.421L423.419 338.075C423.266 331.784 420.73 325.783 416.319 321.279Z" fill="white"/>
<path d="M416.319 321.279C417.749 322.276 418.943 323.574 419.817 325.08C422.418 328.914 423.876 333.404 424.023 338.029L423.932 337.699L424.143 338.044L424.761 339.021H423.585C420.501 339.115 417.428 338.604 414.541 337.519C411.277 336.371 408.347 334.442 406.008 331.9C403.758 329.24 402.03 326.182 400.913 322.886C399.917 319.966 399.259 316.942 398.953 313.872L398.863 313.076H399.647C404.283 313.339 408.751 314.901 412.536 317.583C414.022 318.493 415.292 319.712 416.259 321.159C416.139 321.279 414.752 319.927 412.098 318.229C408.329 315.9 404.018 314.585 399.586 314.413L400.295 313.662C400.66 316.602 401.348 319.494 402.345 322.285C403.432 325.395 405.071 328.286 407.184 330.818C409.36 333.158 412.062 334.949 415.068 336.046C417.753 337.068 420.606 337.577 423.48 337.549L422.922 338.585L422.711 338.225L422.621 338.059V337.879C422.555 333.459 421.34 329.132 419.093 325.32C417.45 322.721 416.123 321.399 416.319 321.279Z" fill="#1C2738"/>
<path d="M427.218 342.763C426.856 343.033 423.796 339.307 419.681 335.011C415.565 330.714 412.143 327.409 412.385 327.064C412.626 326.718 416.696 329.542 420.826 333.944C424.957 338.346 427.565 342.537 427.218 342.763Z" fill="#1C2738"/>
<path d="M447.387 331.81C451.897 327.444 454.589 321.543 454.924 315.285C448.73 315.772 442.789 317.95 437.754 321.58C432.885 325.366 429.915 332.667 430.051 338.826L430.413 338.616C436.731 338.567 442.795 336.135 447.387 331.81Z" fill="white"/>
<path d="M447.387 331.81C446.363 333.213 445.053 334.386 443.543 335.251C439.664 337.793 435.145 339.198 430.504 339.307L430.835 339.217L430.474 339.427L429.494 340.013V338.856C429.436 335.777 429.979 332.716 431.092 329.842C432.278 326.602 434.245 323.703 436.82 321.399C439.525 319.182 442.624 317.49 445.955 316.412C448.889 315.448 451.924 314.823 455 314.549H455.814V315.33C455.498 319.948 453.884 324.383 451.156 328.13C450.216 329.596 448.978 330.849 447.523 331.81C447.402 331.675 448.774 330.398 450.538 327.679C452.917 323.951 454.279 319.668 454.488 315.255L455.241 315.961C452.253 316.309 449.311 316.979 446.468 317.959C443.334 319.008 440.417 320.617 437.86 322.706C435.482 324.844 433.653 327.517 432.524 330.503C431.455 333.166 430.898 336.004 430.88 338.871L429.855 338.3L430.217 338.09L430.368 338H430.549C434.983 337.986 439.337 336.821 443.182 334.62C445.925 332.982 447.267 331.675 447.387 331.81Z" fill="#1C2738"/>
<path d="M441.434 328.565C441.721 328.88 438.661 332.11 434.59 335.791C430.52 339.471 427.053 342.176 426.691 341.8C426.329 341.424 429.465 338.24 433.535 334.574C437.605 330.908 441.133 328.234 441.434 328.565Z" fill="#1C2738"/>
<path d="M258.562 213.684H248.824V383.248H258.562V213.684Z" fill="white"/>
<path d="M258.561 383.263C258.544 382.953 258.544 382.642 258.561 382.332C258.561 381.731 258.561 380.83 258.561 379.748C258.561 377.465 258.561 374.144 258.456 369.863C258.456 361.315 258.32 348.966 258.214 333.657C258.049 303.071 257.898 259.851 257.883 212.723L258.667 213.505H248.928L249.712 212.723C249.712 292.18 249.486 360.519 249.185 383.263L248.928 383.008L256.209 383.158H258.034H258.667C258.486 383.181 258.304 383.181 258.124 383.158H256.345L248.928 383.309H248.687V383.068C248.371 360.323 248.145 292.93 248.145 213.503V212.707H259.451V213.488C259.451 260.931 259.285 303.476 259.134 334.018C259.028 349.251 258.953 361.54 258.893 370.073C258.893 374.28 258.802 377.585 258.787 379.778C258.787 380.845 258.787 381.671 258.787 382.272C258.769 382.613 258.692 382.948 258.561 383.263Z" fill="#1C2738"/>
<path d="M268.905 197.791H0.77002V213.685H268.905V197.791Z" fill="white"/>
<path d="M268.888 213.699C268.87 213.359 268.87 213.018 268.888 212.677C268.888 212.001 268.888 211.01 268.888 209.673C268.888 207.029 268.888 203.093 268.753 197.775L268.994 198.015C232.393 198.33 126.085 198.556 0.889451 198.556L1.67332 197.775V213.669L0.889451 212.888L190.831 213.203L248.06 213.253L263.627 213.335L267.592 213.505L268.693 213.549C268.812 213.526 268.935 213.526 269.054 213.549H268.587H267.592H263.627L248.251 213.654L191.253 213.894L0.783917 214.225H0V197.023H0.79896C125.919 197.023 232.302 197.234 268.904 197.549H269.16V197.805C269.16 203.183 269.054 207.179 269.009 209.823C269.009 211.115 269.009 212.077 269.009 212.753C268.988 213.07 268.948 213.386 268.888 213.699Z" fill="#1C2738"/>
<path d="M24.5728 213.684H14.8345V382.227H24.5728V213.684Z" fill="white"/>
<path d="M24.5722 383.157C24.5722 383.157 24.5722 382.826 24.5722 382.24V379.671C24.5722 377.403 24.5722 374.098 24.4516 369.846C24.4516 361.343 24.3159 349.07 24.2254 333.791C24.0596 303.385 23.9089 260.42 23.8938 213.578L24.6777 214.359H14.9394L15.7233 213.578C15.7233 292.509 15.4972 360.427 15.1806 383.082L14.9394 382.841L22.2054 382.977H24.0446H24.6777C24.4975 382.999 24.3152 382.999 24.135 382.977H22.3562L14.9394 383.127H14.6982V382.871C14.3816 360.217 14.1555 293.274 14.1555 214.343V213.547H25.4616V214.328C25.4616 261.5 25.2958 303.775 25.1299 334.137C25.0395 349.265 24.9491 361.479 24.9038 369.952C24.9038 374.113 24.8134 377.358 24.7832 379.581V382.06C24.7688 382.434 24.6976 382.804 24.5722 383.157Z" fill="#1C2738"/>
<path d="M184.846 325.996C183.013 338.234 182.006 350.58 181.831 362.953C181.831 364.635 181.093 368.722 182.329 369.878C183.174 370.573 184.154 371.085 185.208 371.381C190.062 372.778 194.253 375.782 199.167 377.195C201.458 358.807 205.697 340.713 211.815 323.217L184.846 325.996Z" fill="white"/>
<path d="M184.846 325.998C185.419 325.822 186.011 325.711 186.609 325.667L191.931 324.976C196.574 324.405 203.372 323.594 211.754 322.677L212.704 322.572L212.387 323.489C207.521 337.852 203.821 352.582 201.322 367.536C200.78 370.901 200.312 374.221 199.95 377.376L199.845 378.308L198.956 378.037C194.539 376.715 190.845 374.357 187.062 372.899C185.283 372.103 182.976 372.013 181.378 369.82C180.974 368.799 180.809 367.699 180.896 366.605C180.896 365.598 181.032 364.637 181.092 363.72C181.288 356.209 181.695 349.463 182.238 343.89C182.78 338.316 183.414 333.825 183.896 330.76C184.137 329.227 184.348 328.041 184.529 327.199C184.71 326.388 184.8 325.998 184.846 326.043C184.876 326.468 184.876 326.894 184.846 327.32C184.846 328.101 184.665 329.288 184.499 330.835C184.182 333.84 183.715 338.346 183.323 343.98C182.931 349.614 182.63 356.224 182.524 363.81C182.524 364.757 182.373 365.703 182.358 366.635C182.292 367.491 182.41 368.352 182.705 369.159C182.912 369.472 183.198 369.726 183.534 369.895C183.92 370.143 184.329 370.355 184.755 370.526C185.554 370.841 186.7 371.127 187.65 371.517C191.614 373.02 195.308 375.348 199.438 376.55L198.443 377.211C198.805 374.011 199.272 370.676 199.815 367.281C202.321 352.238 206.165 337.447 211.302 323.083L211.935 323.879C203.779 324.63 197.071 325.186 192.338 325.547L186.881 325.937C186.205 326.012 185.525 326.032 184.846 325.998Z" fill="#1C2738"/>
<path d="M202.167 360.656C203.534 361.181 204.671 362.171 205.378 363.45C208.393 368.933 214.619 372.329 220.453 374.582C226.799 377.001 237.608 377.406 234.759 389.124C217.091 390.206 200.931 387.998 183.248 389.124C182.023 389.335 180.763 389.123 179.675 388.523C179.16 388.047 178.747 387.471 178.462 386.83C178.177 386.19 178.026 385.498 178.017 384.798C177.274 379.011 177.741 373.134 179.389 367.536L181.243 366.274C181.243 366.274 183.972 371.457 188.781 369.564C193.589 367.671 199.077 361.677 200.373 360.55C200.658 360.419 200.97 360.36 201.283 360.378C201.596 360.397 201.9 360.492 202.167 360.656Z" fill="#777777"/>
<path d="M202.168 360.653C202.168 360.653 202.018 360.653 201.716 360.653C201.318 360.549 200.895 360.592 200.525 360.773C199.711 361.479 198.535 362.816 196.922 364.319C194.983 366.239 192.823 367.923 190.485 369.336C189.755 369.776 188.976 370.129 188.164 370.388C187.235 370.629 186.259 370.629 185.33 370.388C183.382 369.766 181.758 368.406 180.807 366.602L181.652 366.812L179.797 368.089L180.039 367.759C179.135 371.037 178.629 374.411 178.531 377.809C178.483 379.66 178.553 381.511 178.742 383.353C178.806 384.285 178.952 385.21 179.179 386.117C179.254 386.512 179.41 386.887 179.639 387.218C179.867 387.549 180.163 387.829 180.506 388.04C181.338 388.37 182.242 388.479 183.129 388.355L186.264 388.19C188.39 388.085 190.546 388.04 192.732 388.01C197.103 388.01 201.595 388.01 206.178 388.22C216.384 388.566 226.092 388.926 234.82 388.4L234.172 388.956C234.571 387.402 234.683 385.788 234.504 384.194C234.301 382.719 233.624 381.348 232.574 380.288C231.502 379.278 230.242 378.487 228.866 377.959C227.529 377.38 226.16 376.879 224.765 376.457C219.902 375.175 215.308 373.038 211.198 370.147C209.657 369.048 208.268 367.749 207.068 366.287C206.586 365.689 206.143 365.062 205.741 364.409C205.379 363.793 205.108 363.222 204.806 362.786C204.119 361.883 203.252 361.131 202.259 360.578C202.259 360.578 202.59 360.578 203.133 360.848C203.93 361.242 204.631 361.806 205.183 362.501C205.56 362.982 205.862 363.537 206.239 364.093C206.65 364.704 207.104 365.286 207.595 365.836C208.808 367.206 210.191 368.418 211.711 369.441C215.827 372.147 220.381 374.124 225.172 375.285C226.619 375.679 228.043 376.15 229.439 376.698C230.976 377.274 232.385 378.147 233.584 379.266C234.856 380.567 235.657 382.254 235.86 384.059C236.094 385.835 235.987 387.64 235.544 389.377L235.453 389.888H234.881C225.274 390.368 215.649 390.368 206.043 389.888C201.52 389.753 196.998 389.632 192.641 389.662C190.47 389.662 188.345 389.662 186.249 389.798L183.129 389.948C181.974 390.088 180.803 389.917 179.737 389.452C179.218 389.144 178.768 388.733 178.416 388.245C178.063 387.756 177.815 387.201 177.687 386.613C177.454 385.625 177.303 384.62 177.235 383.608C177.058 381.706 177.007 379.793 177.084 377.884C177.231 374.382 177.809 370.911 178.802 367.549V367.338L178.983 367.218L180.853 365.971L181.395 365.611L181.712 366.181C182.509 367.732 183.875 368.916 185.526 369.486C187.069 369.775 188.665 369.451 189.973 368.585C192.285 367.257 194.449 365.686 196.425 363.898C198.113 362.396 199.289 361.269 200.299 360.533C200.521 360.439 200.759 360.391 201 360.391C201.241 360.391 201.479 360.439 201.701 360.533C202.048 360.533 202.259 360.623 202.168 360.653Z" fill="#1C2738"/>
<path d="M212.977 370.3C213.112 370.721 211.741 371.517 210.701 373.049C209.66 374.582 209.344 376.054 208.892 376.054C208.681 376.054 208.469 375.618 208.469 374.852C208.512 373.859 208.842 372.899 209.419 372.088C209.984 371.271 210.775 370.634 211.696 370.255C212.419 370.045 212.901 370.105 212.977 370.3Z" fill="#1C2738"/>
<path d="M216.323 373.199C216.519 373.605 215.599 374.461 214.815 375.648C214.031 376.835 213.459 377.962 213.021 377.902C212.584 377.842 212.449 376.279 213.534 374.747C214.619 373.214 216.157 372.824 216.323 373.199Z" fill="#1C2738"/>
<path d="M244.089 94.3114C247.285 91.6373 248.205 86.7999 248.386 82.5934C248.567 78.387 247.029 75.8031 246.984 71.6417C246.933 71.304 246.968 70.9589 247.087 70.6385C247.205 70.3181 247.403 70.0328 247.662 69.8089C248.717 69.1929 249.773 70.59 250.18 71.7468C251.401 75.112 252.049 77.1551 253.194 80.5353C255.124 77.6058 256.571 73.5646 259.767 74.9918C259.767 74.9918 265.254 80.2198 266.46 83.1493C267.666 86.0788 265.496 88.4224 263.445 91.9528C261.108 95.5565 258.551 99.0133 255.787 102.304L244.089 94.3114Z" fill="white"/>
<path d="M244.09 94.3113C244.195 94.3113 245.431 95.0625 247.557 96.3695C249.683 97.6765 252.667 99.5093 256.24 101.838L255.501 101.943C256.813 100.29 258.245 98.4426 259.722 96.4446C260.446 95.453 261.23 94.4015 261.908 93.3198C262.27 92.7639 262.617 92.2081 262.948 91.6372C263.28 91.0663 263.642 90.4204 264.004 89.8195C264.763 88.6721 265.4 87.4485 265.903 86.1688C266.111 85.5595 266.167 84.9091 266.067 84.2733C265.967 83.6375 265.715 83.0353 265.33 82.5182C263.572 79.9943 261.551 77.6627 259.3 75.5626L259.511 75.7128L259.149 75.5776C258.049 75.157 257.069 76.0283 256.24 77.2001C255.411 78.3719 254.733 79.6939 253.919 80.9558L253.059 82.2628L252.547 80.7605C251.642 78.1465 250.768 75.6076 249.939 73.1739C249.713 72.573 249.532 71.912 249.306 71.4613C249.106 71.031 248.794 70.6624 248.401 70.3946C248.25 70.3195 248.19 70.3045 248.1 70.3946C247.979 70.4415 247.882 70.5331 247.828 70.6501C247.673 71.1348 247.626 71.6477 247.693 72.1524C247.852 74.3227 248.179 76.4774 248.672 78.5972C248.996 80.5241 249.037 82.4876 248.793 84.4261C248.591 87.2113 247.717 89.9066 246.245 92.2832C245.82 92.9081 245.313 93.4739 244.738 93.9658C244.53 94.1249 244.308 94.2657 244.075 94.3864C244.075 94.3864 244.075 94.2061 244.527 93.7705C244.99 93.22 245.399 92.6264 245.748 91.9978C246.973 89.6217 247.658 87.0057 247.753 84.336C247.93 82.4892 247.834 80.6264 247.467 78.8075C246.894 76.6457 246.506 74.4395 246.306 72.2125C246.222 71.5121 246.305 70.802 246.547 70.1393C246.64 69.9189 246.775 69.7191 246.946 69.5515C247.117 69.3838 247.319 69.2517 247.542 69.1628C247.783 69.0634 248.043 69.0185 248.304 69.0315C248.565 69.0445 248.819 69.115 249.049 69.2379C250.231 70.0897 251.045 71.3568 251.326 72.7833C252.2 75.217 253.089 77.7409 254.024 80.2948L252.652 80.1446C253.421 78.9728 254.069 77.6508 254.989 76.3288C255.465 75.6149 256.068 74.9937 256.768 74.4959C257.185 74.2264 257.657 74.0528 258.15 73.9878C258.643 73.9229 259.144 73.9682 259.617 74.1204L260.175 74.3157H260.28L260.386 74.4209C262.752 76.6032 264.861 79.0477 266.672 81.707C267.146 82.4244 267.465 83.233 267.606 84.0806C267.721 84.9303 267.633 85.795 267.35 86.6045C266.817 87.9992 266.118 89.3255 265.27 90.5556L264.2 92.3132C263.853 92.9292 263.476 93.5001 263.099 94.0559C262.33 95.1676 261.592 96.2192 260.793 97.2108C259.285 99.2088 257.778 101.012 256.391 102.634L256.059 103.025L255.652 102.739C251.898 100.14 248.959 97.9769 246.999 96.5197C245.972 95.8615 244.999 95.123 244.09 94.3113Z" fill="#1C2738"/>
<path d="M134.95 323.066C134.582 335.432 135.046 347.809 136.337 360.113C136.502 361.795 136.337 365.927 137.648 366.933C138.556 367.545 139.584 367.96 140.663 368.15C145.653 368.976 150.22 371.455 155.21 372.281C155.313 353.757 157.385 335.296 161.391 317.207L134.95 323.066Z" fill="white"/>
<path d="M134.948 323.067C135.497 322.822 136.074 322.645 136.666 322.541L141.882 321.219C146.404 320.107 153.068 318.5 161.283 316.607L162.218 316.396L162.007 317.343C158.868 332.187 156.938 347.259 156.233 362.412C156.082 365.822 156.007 369.172 156.022 372.342V373.274L155.118 373.123C150.595 372.327 146.631 370.404 142.711 369.413C140.827 368.827 138.535 369.007 136.681 367.024C136.153 366.058 135.859 364.983 135.822 363.884C135.732 362.893 135.716 361.916 135.671 360.985C134.978 353.563 134.586 346.773 134.465 341.169C134.345 335.566 134.465 331.044 134.556 327.934C134.556 326.432 134.691 325.185 134.767 324.329C134.771 323.928 134.826 323.529 134.933 323.142C135.016 323.562 135.052 323.991 135.038 324.419C135.038 325.2 135.038 326.387 135.113 327.949C135.113 331.044 135.234 335.536 135.505 341.139C135.777 346.743 136.259 353.383 137.013 360.925C137.013 361.886 137.013 362.818 137.179 363.749C137.209 364.608 137.431 365.449 137.827 366.213C138.068 366.502 138.379 366.724 138.731 366.859C139.15 367.053 139.584 367.213 140.028 367.34C140.842 367.55 142.033 367.7 143.043 367.971C147.158 369.007 151.093 370.87 155.344 371.591L154.439 372.357C154.439 369.142 154.439 365.777 154.62 362.352C155.329 347.132 157.393 332.004 160.786 317.148L161.524 317.869C153.505 319.566 146.917 320.873 142.289 321.82L136.907 322.841C136.261 322.969 135.606 323.045 134.948 323.067Z" fill="#1C2738"/>
<path d="M142.289 144.201L172.363 144.667H197.99C197.99 144.667 225.124 233.603 226.632 245.892C228.139 258.181 214.044 337.532 214.044 337.532H176.81L188.643 255.432L172.619 187.828L163.71 337.457L128.45 338.163L133.696 179.746C133.813 171.679 135.296 163.689 138.083 156.114L142.289 144.201Z" fill="#1C2738"/>
<path d="M157.335 82.7129C157.335 82.7129 178.937 122.659 180.173 122.359C181.409 122.058 187.183 82.7129 187.183 82.7129H157.335Z" fill="#1C2738"/>
<path d="M171.083 26.9642C166.561 27.6553 162.551 30.1191 158.692 32.5678C154.833 35.0166 150.883 37.5555 146.406 38.4268C140.165 39.6437 133.276 37.5555 127.578 40.3648C122.347 42.9337 119.784 48.8077 116.015 53.2545C113.354 56.3466 110.03 58.8037 106.288 60.4444C102.547 62.0851 98.4835 62.8676 94.398 62.7341C91.579 62.6289 87.8706 62.6139 87.0113 65.288C86.7493 66.5551 86.9246 67.8733 87.5088 69.0287C90.9057 78.2528 94.3025 87.467 97.6994 96.6711L109.593 90.752C107.544 94.923 104.715 98.6657 101.257 101.779C104.065 102.846 107.122 103.085 110.063 102.467C113.003 101.849 115.703 100.4 117.839 98.2936C121.487 94.5528 123.251 88.9643 127.743 86.2752C130.758 84.5024 134.376 84.3973 137.783 83.7513C148.848 81.633 157.757 73.7159 166.063 66.1293L182.962 31.6965C180.776 27.7905 175.606 26.2732 171.083 26.9642Z" fill="#1C2738"/>
<path d="M189.279 42.7979C189.143 39.2675 189.535 39.6731 188.6 36.2629L187.334 31.8461C186.4 29.7729 183.807 29.0368 181.53 28.8415C176.52 28.4182 171.513 29.6883 167.315 32.4471C165.237 33.8285 163.458 35.6124 162.086 37.6925C160.713 39.7726 159.775 42.1066 159.325 44.5556C158.907 47.0116 159.074 49.5311 159.812 51.9111C160.551 54.291 161.84 56.4646 163.576 58.2566C167.669 58.9133 171.831 59.0244 175.953 58.5871C180.121 58.1247 183.941 56.0538 186.595 52.8183C188.593 49.873 189.538 46.3435 189.279 42.7979Z" fill="#1C2738"/>
<path d="M186.142 32.7461L182.056 33.362C180.032 33.6496 178.192 34.6917 176.908 36.2781C175.623 37.8645 174.991 39.8772 175.137 41.9101C175.137 42.0153 178.152 48.1447 178.152 48.1748C176.223 51.7352 174.64 49.4968 174.64 49.4968C174.268 47.3964 173.208 45.4784 171.625 44.0434C169.002 41.5797 164.901 43.5026 164.404 47.1682C164.042 49.7822 167.645 52.9821 167.645 52.9821L164.841 57.6843L157.304 82.7127L183.021 83.7192L181.363 75.1711V66.0822C183.681 65.9734 185.974 65.5488 188.177 64.8203C190.212 63.9489 193.815 62.2062 193.197 51.4347C192.564 39.6116 191.131 33.6775 186.142 32.7461Z" fill="white"/>
<path d="M186.142 32.7461C186.142 32.7461 186.413 32.7461 186.956 32.8513C187.742 33.0434 188.47 33.4194 189.081 33.948C190.785 35.3 192.096 38.3046 192.714 42.0754C193.061 43.9683 193.318 46.0865 193.529 48.3851C193.792 50.8797 193.883 53.3895 193.8 55.8966C193.741 57.3117 193.508 58.7143 193.106 60.073C192.707 61.598 191.881 62.9786 190.725 64.0541C189.445 65.0774 187.934 65.7736 186.323 66.0822C184.713 66.429 183.081 66.6599 181.439 66.7732L182.087 66.0822C182.087 68.9666 182.087 72.0914 182.087 75.1711V75.0359C182.614 77.725 183.187 80.6245 183.76 83.569L183.956 84.5004H182.991L159.716 83.599L157.304 83.5089H156.279L156.58 82.5474L164.118 57.5341V57.4439V57.3689L166.952 52.6817L167.087 53.583C166.267 52.8305 165.534 51.989 164.902 51.0742C164.221 50.1489 163.781 49.0703 163.62 47.9344C163.585 46.797 163.907 45.677 164.543 44.7315C165.178 43.7859 166.094 43.062 167.163 42.6613C168.202 42.2661 169.35 42.2661 170.389 42.6613C171.334 43.0681 172.159 43.7094 172.786 44.5241C173.993 45.9407 174.786 47.6611 175.077 49.4968L174.972 49.2264C175.469 49.8874 176.132 49.8273 176.75 49.1212C176.907 48.9542 177.049 48.7732 177.172 48.5804L177.504 48.0546C177.399 48.1747 177.504 48.4902 177.504 48.37V48.2949L177.429 48.1297L177.278 47.7992L176.976 47.1382L175.77 44.5842L175.198 43.3674L174.926 42.7665L174.791 42.481C174.723 42.3358 174.667 42.185 174.625 42.0303C174.514 40.3525 174.919 38.6809 175.786 37.238C176.5 36.0329 177.512 35.0296 178.725 34.3235C179.668 33.7489 180.72 33.3755 181.815 33.2268L184.167 32.9414C184.803 32.8248 185.451 32.7845 186.097 32.8212C185.482 33.0402 184.845 33.1914 184.197 33.2719C182.393 33.4495 180.644 33.9913 179.057 34.8643C177.878 35.6151 176.928 36.6724 176.309 37.9222C175.69 39.1719 175.426 40.5665 175.544 41.9552C175.544 41.805 175.544 41.9552 175.635 42.0904L175.77 42.3759L176.072 42.9618L176.66 44.1636L177.911 46.6875L178.243 47.3485L178.393 47.679L178.484 47.8443V47.9344C178.541 48.0947 178.541 48.2699 178.484 48.4301C178.233 48.9426 177.919 49.422 177.549 49.8573C177.137 50.3806 176.537 50.725 175.876 50.8188C175.51 50.8357 175.146 50.7606 174.816 50.6005C174.487 50.4403 174.204 50.2003 173.992 49.9024V49.7972V49.632C173.689 48.0351 172.966 46.547 171.896 45.3204C171.405 44.6632 170.75 44.1454 169.997 43.8181C169.255 43.5334 168.433 43.5334 167.69 43.8181C166.905 44.1346 166.234 44.6793 165.763 45.3812C165.293 46.0832 165.045 46.91 165.052 47.7541C165.539 49.5974 166.593 51.242 168.067 52.4563L168.504 52.8619L168.203 53.3577L165.489 58.0599V57.8947C163.153 65.7217 160.635 74.1496 157.952 82.938L157.244 81.9315L159.656 82.0216L182.961 82.9681L182.192 83.8545C181.635 80.8498 181.077 78.0105 180.564 75.3063V75.1711C180.564 72.0163 180.564 68.9516 180.564 66.0822V65.4512H181.212C184.363 65.1959 187.619 64.8804 189.73 63.1527C190.725 62.2408 191.446 61.0702 191.81 59.7725C192.194 58.5021 192.427 57.1911 192.503 55.8666C192.632 53.4129 192.591 50.9534 192.383 48.5053C192.232 46.2218 192.036 44.1185 191.75 42.2557C191.207 38.53 190.122 35.6456 188.629 34.3085C188.079 33.7873 187.434 33.3744 186.73 33.0916C186.521 32.9997 186.324 32.8837 186.142 32.7461Z" fill="#1C2738"/>
<path d="M176.359 50.5498C179.316 49.3806 181.889 47.4133 183.787 44.8686C185.686 42.3238 186.835 39.3022 187.107 36.1428C187.262 35.3258 187.204 34.483 186.94 33.6943C186.677 32.9056 186.215 32.197 185.6 31.6359C184.397 31.0024 183.01 30.8109 181.68 31.095C179.779 31.2307 177.907 31.6302 176.117 32.2818C174.308 32.9492 172.824 34.2827 171.972 36.0076C171.584 37.0388 171.422 38.1409 171.498 39.2397C171.573 40.3384 171.884 41.4084 172.409 42.3773C173.474 44.3078 174.815 46.0739 176.389 47.6203" fill="#1C2738"/>
<path d="M171.31 51.2699C170.873 51.36 170.285 50.2783 169.456 49.1216C168.627 47.9648 167.813 47.0334 168.039 46.6578C168.265 46.2822 169.698 46.7479 170.738 48.1601C171.778 49.5723 171.717 51.1948 171.31 51.2699Z" fill="#1C2738"/>
<path d="M181.015 65.9934L176.101 59.834C176.101 59.834 183.382 65.4977 185.447 65.8432C187.513 66.1887 181.015 65.9934 181.015 65.9934Z" fill="#1C2738"/>
<path d="M202.815 107.636C202.951 127.737 198.594 138.824 198.594 138.824L210.353 181.099L179.012 181.835L175.877 164.483L172.229 181.865L130.17 181.099L133.08 165.024C134.319 158.088 136.316 151.307 139.034 144.803L143.285 134.618L140.074 76.0277L159.37 70.7546L161.556 65.752L177.354 112.564L181.877 68.2307L187.047 74.8559C187.047 74.8559 193.997 76.7488 200.102 78.3713C202.782 79.0463 205.292 80.268 207.475 81.9591C209.657 83.6503 211.463 85.7741 212.78 88.1964C212.976 88.5719 213.172 88.9625 213.353 89.3681L224.583 114.622L243.231 93.7549L257.085 103.099C257.085 103.099 234.804 131.418 230.613 134.257C225.578 137.667 215.101 134.663 212.629 131.162C210.157 127.662 202.635 115.238 202.635 115.238" fill="#127BF2"/>
<path d="M202.649 115.223L203.402 116.38C203.885 117.176 204.608 118.318 205.543 119.805L209.055 125.394C209.749 126.491 210.563 127.677 211.332 128.939C212.071 130.343 213.098 131.577 214.347 132.56C215.839 133.54 217.477 134.28 219.201 134.753C221.094 135.312 223.06 135.586 225.035 135.564C227.203 135.641 229.332 134.972 231.065 133.672C232.782 132.087 234.399 130.396 235.904 128.609C242.31 121.293 249.275 112.609 257.008 102.919V103.31L243.139 93.9807H243.516L224.869 114.818L224.552 115.193L224.341 114.743L212.809 88.9931C210.616 84.5003 206.748 81.0393 202.031 79.3483C199.679 78.5221 197.101 77.9511 194.599 77.2451L186.971 75.202H186.85V75.1118L181.68 68.4867L182.328 68.2914C180.82 82.4581 179.313 97.3308 177.805 112.639L177.625 114.397L177.052 112.714C171.972 97.6914 166.665 81.9773 161.238 65.9027H161.977L159.791 70.9053V71.0857H159.61L149.495 73.8649L140.254 76.3888L140.541 75.9982C141.641 96.114 142.711 115.734 143.736 134.588V134.678L138.943 146.201C137.43 149.979 136.156 153.847 135.129 157.784C134.089 161.674 133.425 165.611 132.732 169.516C132.038 173.422 131.33 177.268 130.637 181.069L130.29 180.649L172.333 181.445L172.002 181.7C173.268 175.691 174.489 169.902 175.665 164.334L176.012 162.741L176.298 164.334C177.368 170.343 178.408 176.127 179.403 181.7L179.102 181.445L210.457 180.754L210.201 181.084C205.543 164.183 201.609 149.957 198.533 138.779V138.674C199.951 134.371 200.96 129.945 201.548 125.454C202.106 121.563 202.407 118.273 202.558 115.614C202.709 112.955 202.769 110.942 202.784 109.605C202.799 108.268 202.784 107.562 202.784 107.562C202.784 107.562 202.92 110.311 202.679 115.644C202.558 118.303 202.287 121.653 201.744 125.499C201.164 130.021 200.154 134.478 198.729 138.809V138.704C201.85 149.866 205.845 164.078 210.578 180.964L210.668 181.28H210.322L178.981 182.061H178.725V181.82C177.715 176.247 176.675 170.478 175.574 164.469H176.207C175.032 170.107 173.821 175.901 172.574 181.85V182.121H172.303L130.245 181.385H129.823L129.898 180.964C130.576 177.148 131.27 173.302 131.978 169.396C132.687 165.49 133.335 161.539 134.375 157.618C135.412 153.648 136.691 149.745 138.204 145.93L142.998 134.393V134.558C141.958 115.689 140.887 96.0689 139.772 75.9681V75.6526L140.088 75.5775L149.314 73.0537L159.369 70.3044L159.113 70.5298L161.299 65.5271L161.706 64.5957L162.022 65.5572L177.82 112.369L177.082 112.459C178.589 97.1506 180.187 82.2778 181.604 68.1111L181.695 67.2097L182.268 67.9308L187.423 74.571L187.242 74.4358L194.78 76.4939C197.297 77.215 199.799 77.7559 202.317 78.6272C207.196 80.3896 211.193 83.9791 213.457 88.6325C217.452 97.6464 221.281 106.27 224.914 114.427L224.386 114.337L243.064 93.5L243.23 93.3047L243.441 93.4549L257.28 102.814L257.521 102.965L257.34 103.19C249.652 112.865 242.657 121.518 236.235 128.819C234.701 130.614 233.06 132.314 231.321 133.912C229.54 135.248 227.352 135.932 225.125 135.85C223.113 135.866 221.11 135.577 219.186 134.994C217.431 134.505 215.767 133.74 214.256 132.725C213 131.713 211.973 130.449 211.241 129.014L208.98 125.454C207.623 123.231 206.463 121.353 205.528 119.835L203.448 116.365C202.875 115.644 202.649 115.223 202.649 115.223Z" fill="#1C2738"/>
<path d="M247.753 133.656L244.814 127.166H182.088L183.972 139.184C192.761 141.363 226.181 140.296 226.181 140.296C226.181 140.296 241.934 147.237 244.874 147.237C250.331 147.237 253.497 138.734 253.497 138.734L247.753 133.656Z" fill="white"/>
<path d="M247.753 133.656C248.336 134.005 248.881 134.412 249.381 134.873L253.782 138.538L253.948 138.689V138.899C253.214 140.825 252.198 142.632 250.933 144.262C250.18 145.267 249.251 146.127 248.19 146.801C246.97 147.608 245.49 147.93 244.044 147.702C241.109 146.96 238.233 146.006 235.436 144.848C232.422 143.686 229.271 142.394 225.985 140.972H226.271C220.241 141.167 213.548 141.318 206.493 141.303C202.98 141.303 199.347 141.303 195.624 141.107C191.804 141.028 187.994 140.667 184.227 140.026L183.79 139.936L183.293 139.83L183.202 139.305C182.569 135.203 181.936 131.192 181.333 127.286L181.198 126.385H182.102C210.292 126.385 233.748 126.61 244.828 126.85H245.039L245.13 127.031C245.989 129.104 246.637 130.711 247.15 131.868C247.421 132.424 247.628 133.009 247.768 133.611C247.412 133.147 247.114 132.643 246.878 132.109C246.335 131.042 245.552 129.434 244.542 127.346L244.828 127.542C233.748 127.782 210.292 127.947 182.102 127.992L182.871 127.106C183.474 131.032 184.102 135.038 184.755 139.124L184.167 138.493L184.574 138.568C188.252 139.194 191.97 139.55 195.699 139.635C199.378 139.785 202.996 139.845 206.508 139.875C213.533 139.875 220.166 139.875 226.226 139.695H226.377H226.512C229.783 141.197 232.919 142.474 235.874 143.676C238.593 144.861 241.388 145.864 244.24 146.681C245.432 146.88 246.656 146.633 247.677 145.99C248.658 145.389 249.525 144.621 250.24 143.721C251.477 142.188 252.492 140.488 253.255 138.674L253.345 139.034C251.476 137.322 250.059 136.03 249.124 135.083C248.614 134.661 248.154 134.182 247.753 133.656Z" fill="#1C2738"/>
<path d="M260.808 128.893H257.793C257.448 128.895 257.113 128.778 256.844 128.563C254.946 127.004 252.616 126.06 250.166 125.859C247.301 125.769 239.447 130.696 235.528 133.37C235.261 133.522 235.046 133.751 234.914 134.027C234.781 134.304 234.736 134.614 234.786 134.916C234.835 135.219 234.976 135.499 235.189 135.719C235.403 135.94 235.679 136.09 235.98 136.149C239.329 136.915 242.845 136.378 245.809 134.647C246.103 134.477 246.447 134.411 246.783 134.46C247.12 134.509 247.43 134.671 247.663 134.918L253.12 140.311L252.774 141.422L260.612 142.624C261.396 142.624 269.295 141.422 269.356 140.641L267.019 129.765C267.079 128.803 261.698 128.893 260.808 128.893Z" fill="white"/>
<path d="M260.808 128.895C261.342 128.718 261.905 128.647 262.467 128.685C263.009 128.685 263.688 128.685 264.487 128.685C264.879 128.685 265.316 128.685 265.783 128.79C266.033 128.814 266.28 128.86 266.522 128.925C266.667 128.967 266.809 129.022 266.944 129.09L267.2 129.301C267.293 129.434 267.35 129.589 267.366 129.751V129.646C268.059 132.41 268.873 136.106 269.914 140.463V140.568C269.899 140.703 269.853 140.833 269.78 140.947C269.707 141.062 269.608 141.158 269.491 141.229C269.394 141.303 269.288 141.363 269.175 141.409L268.617 141.634C268.255 141.755 267.909 141.86 267.547 141.95C266.838 142.145 266.039 142.295 265.346 142.446C263.838 142.746 262.331 143.017 260.597 143.212H260.447L252.593 142.055L251.718 141.935L251.975 141.079L252.321 139.967L252.517 140.748L246.985 135.295C246.837 135.184 246.657 135.126 246.472 135.129C246.276 135.129 246.141 135.22 245.734 135.415C245.043 135.751 244.333 136.047 243.608 136.301C242.153 136.814 240.628 137.103 239.086 137.158C238.334 137.175 237.582 137.125 236.84 137.007L235.754 136.782C235.267 136.663 234.829 136.395 234.503 136.016C234.181 135.629 233.995 135.148 233.973 134.646C233.951 134.144 234.095 133.649 234.382 133.237C234.522 133.037 234.695 132.865 234.895 132.726C235.035 132.61 235.186 132.509 235.347 132.425L236.176 131.884C238.377 130.472 240.518 129.195 242.568 128.084C244.473 126.989 246.496 126.113 248.598 125.47L249.367 125.319C249.638 125.305 249.91 125.305 250.181 125.319C250.662 125.357 251.141 125.427 251.613 125.53C252.462 125.728 253.286 126.02 254.07 126.401C254.744 126.733 255.39 127.12 256 127.558C256.271 127.753 256.527 127.963 256.768 128.159C256.937 128.336 257.151 128.466 257.386 128.534C258.516 128.533 259.643 128.648 260.748 128.88C259.6 129.124 258.423 129.21 257.251 129.135C256.925 129.058 256.621 128.909 256.361 128.7C256.12 128.519 255.864 128.354 255.577 128.174C254.979 127.803 254.354 127.477 253.708 127.197C252.971 126.887 252.203 126.655 251.417 126.506C250.995 126.423 250.566 126.377 250.136 126.371C249.924 126.371 249.728 126.371 249.533 126.371L248.884 126.521C246.902 127.22 244.997 128.121 243.201 129.21C241.211 130.352 239.116 131.659 236.96 133.071L236.146 133.612C235.83 133.837 235.679 133.928 235.603 134.063C235.497 134.204 235.439 134.375 235.439 134.551C235.439 134.727 235.497 134.899 235.603 135.039C235.733 135.177 235.901 135.271 236.086 135.31C236.407 135.38 236.724 135.44 237.036 135.49C237.684 135.591 238.34 135.631 238.995 135.61C240.358 135.547 241.704 135.283 242.99 134.829C243.653 134.588 244.302 134.312 244.935 134.003C245.344 133.758 245.802 133.604 246.276 133.552C246.849 133.522 247.413 133.704 247.859 134.063L253.497 139.636L253.829 139.967L253.693 140.403L253.346 141.514L252.728 140.538L260.567 141.77H260.417C261.924 141.604 263.537 141.349 264.939 141.109C265.678 140.973 266.446 140.838 267.08 140.673C267.411 140.603 267.739 140.512 268.059 140.403C268.204 140.364 268.345 140.314 268.481 140.252H268.617C268.664 140.31 268.714 140.366 268.768 140.418C268.904 140.523 268.934 140.568 269.009 140.568L268.512 140.703C267.637 136.316 266.914 132.576 266.401 129.781L266.567 129.676C266.477 129.676 266.567 129.676 266.416 129.766C266.265 129.856 266.416 129.766 266.416 129.766L266.16 129.661C265.953 129.59 265.742 129.535 265.527 129.496L264.306 129.316C263.537 129.225 262.798 129.18 262.331 129.135C261.814 129.13 261.301 129.049 260.808 128.895Z" fill="#1C2738"/>
<path d="M334.328 363.027C334.146 350.655 333.139 338.309 331.313 326.071L304.329 323.352C310.447 340.848 314.686 358.942 316.977 377.329C321.831 375.917 326.021 372.913 330.951 371.5C332.005 371.205 332.986 370.693 333.83 369.998C335.051 368.721 334.343 364.635 334.328 363.027Z" fill="white"/>
<path d="M334.329 363.029C334.477 363.605 334.573 364.193 334.616 364.786C334.691 365.357 334.766 366.078 334.796 366.95C334.833 367.415 334.833 367.882 334.796 368.347C334.77 368.925 334.587 369.485 334.269 369.969C333.362 370.911 332.216 371.591 330.952 371.937C329.577 372.385 328.233 372.922 326.927 373.545C323.771 375.221 320.502 376.676 317.144 377.902L316.466 378.097V377.391C314.407 361.822 310.998 346.461 306.275 331.48C305.431 328.746 304.526 326.087 303.622 323.488L303.215 322.316L304.436 322.452L331.39 325.261H331.932V325.787C333.211 334.676 334.011 343.628 334.329 352.603C334.435 355.863 334.45 358.417 334.42 360.114C334.452 361.013 334.401 361.914 334.269 362.803C334.084 361.924 333.993 361.028 333.998 360.129L333.53 352.618C333.078 346.143 332.279 336.919 330.515 325.952L331.118 326.538L304.134 323.924L304.948 322.887C305.868 325.501 306.788 328.19 307.632 330.94C312.369 345.962 315.655 361.4 317.445 377.045L316.692 376.55C320.015 375.398 323.263 374.038 326.415 372.478C327.764 371.878 329.154 371.376 330.576 370.976C331.694 370.692 332.727 370.146 333.591 369.384C334.018 368.575 334.221 367.667 334.178 366.755C334.178 365.913 334.178 365.252 334.178 364.606C334.152 364.076 334.203 363.545 334.329 363.029Z" fill="#1C2738"/>
<path d="M313.977 360.655C312.621 361.187 311.496 362.176 310.796 363.45C307.781 368.933 301.571 372.328 295.646 374.582C289.3 377 278.506 377.406 281.34 389.124C299.023 390.206 315.183 387.997 332.851 389.124C334.07 389.35 335.331 389.154 336.423 388.568C336.941 388.092 337.356 387.517 337.644 386.876C337.931 386.236 338.085 385.544 338.097 384.842C338.846 379.044 338.394 373.154 336.77 367.536L334.916 366.334C334.916 366.334 332.187 371.517 327.469 369.624C322.751 367.731 317.173 361.737 315.861 360.61C315.571 360.454 315.244 360.375 314.913 360.383C314.583 360.391 314.26 360.485 313.977 360.655Z" fill="white"/>
<path d="M313.976 360.655C313.976 360.655 314.097 360.535 314.383 360.43C314.605 360.337 314.844 360.289 315.084 360.289C315.325 360.289 315.563 360.337 315.785 360.43C316.81 361.166 317.971 362.353 319.675 363.795C321.645 365.583 323.803 367.155 326.112 368.482C327.44 369.368 329.066 369.692 330.634 369.384C332.29 368.815 333.662 367.631 334.463 366.079L334.78 365.508L335.307 365.868L337.176 367.115L337.357 367.235V367.446C338.351 370.808 338.928 374.279 339.076 377.781C339.165 379.69 339.12 381.603 338.94 383.505C338.867 384.518 338.71 385.523 338.473 386.51C338.347 387.099 338.099 387.655 337.746 388.144C337.393 388.632 336.943 389.043 336.423 389.349C335.357 389.813 334.186 389.984 333.031 389.845L329.91 389.695C327.815 389.695 325.674 389.575 323.504 389.56C319.162 389.56 314.685 389.65 310.102 389.785C300.496 390.265 290.871 390.265 281.264 389.785H280.691L280.601 389.274C280.158 387.537 280.05 385.733 280.284 383.956C280.551 382.195 281.381 380.567 282.651 379.314C283.853 378.191 285.267 377.317 286.812 376.745C288.201 376.196 289.62 375.724 291.063 375.333C295.855 374.174 300.41 372.197 304.525 369.489C306.048 368.465 307.436 367.254 308.655 365.883C309.142 365.33 309.595 364.748 310.012 364.141C310.374 363.585 310.69 363.029 311.052 362.548C311.605 361.853 312.305 361.289 313.102 360.896C313.645 360.64 313.961 360.58 313.976 360.625C312.987 361.183 312.12 361.934 311.429 362.834C311.127 363.269 310.856 363.84 310.494 364.456C310.097 365.113 309.654 365.74 309.168 366.334C307.973 367.797 306.589 369.095 305.052 370.195C300.918 373.092 296.298 375.229 291.41 376.505C290.016 376.931 288.648 377.432 287.309 378.007C285.959 378.531 284.721 379.306 283.661 380.29C282.612 381.351 281.935 382.721 281.731 384.196C281.55 385.791 281.667 387.406 282.078 388.959L281.415 388.403C290.219 388.929 299.912 388.568 310.057 388.222C314.579 388.072 319.102 387.982 323.519 388.012C325.705 388.012 327.86 388.087 329.971 388.192L333.106 388.358C333.993 388.481 334.897 388.373 335.729 388.042C336.077 387.834 336.376 387.556 336.607 387.224C336.838 386.893 336.996 386.516 337.071 386.119C337.291 385.211 337.437 384.287 337.508 383.355C337.692 381.513 337.758 379.662 337.704 377.812C337.606 374.413 337.1 371.039 336.197 367.761L336.438 368.092L334.584 366.815L335.428 366.604C334.476 368.408 332.852 369.767 330.905 370.39C329.976 370.631 329.001 370.631 328.071 370.39C327.254 370.131 326.47 369.778 325.735 369.339C323.403 367.918 321.243 366.234 319.298 364.321C317.685 362.819 316.509 361.482 315.695 360.775C315.325 360.594 314.903 360.552 314.504 360.655C314.142 360.64 313.991 360.685 313.976 360.655Z" fill="#1C2738"/>
<path d="M303.168 370.299C303.168 370.103 303.741 370.043 304.449 370.299C305.372 370.674 306.164 371.311 306.726 372.131C307.31 372.939 307.64 373.901 307.675 374.896C307.675 375.662 307.464 376.098 307.253 376.098C307.042 376.098 306.53 374.595 305.444 373.093C304.359 371.591 303.032 370.719 303.168 370.299Z" fill="#1C2738"/>
<path d="M299.837 373.198C300.003 372.822 301.571 373.198 302.656 374.7C303.741 376.203 303.591 377.84 303.169 377.855C302.747 377.87 302.234 376.773 301.375 375.602C300.515 374.43 299.626 373.543 299.837 373.198Z" fill="#1C2738"/>
<path d="M354.514 40.6791C353.097 35.5863 348.484 32.0559 343.841 29.5471C341.359 27.9671 338.464 27.1519 335.52 27.2035C332.61 27.4739 329.701 29.7424 329.701 32.6568L345.921 60.84C348.996 55.4618 356.172 46.6433 354.514 40.6791Z" fill="#1C2738"/>
<path d="M332.655 31.5L336.635 32.6267C338.605 33.1651 340.298 34.4258 341.374 36.156C342.45 37.8863 342.831 39.9581 342.438 41.956C342.438 42.0612 338.685 47.7699 338.7 47.815C340.207 51.5707 342.016 49.5426 342.016 49.5426C342.631 47.5084 343.903 45.7337 345.634 44.4949C348.544 42.3917 352.373 44.7954 352.418 48.5061C352.418 51.1351 348.468 53.8693 348.468 53.8693L350.669 58.872L353.684 70.65L335.218 70.4247L333.258 65.1666C330.972 64.7716 328.751 64.069 326.655 63.0784C324.741 61.9517 321.394 59.7883 323.339 49.1821C325.419 37.5242 327.59 31.8155 332.655 31.5Z" fill="white"/>
<path d="M332.655 31.5002C332.403 31.6226 332.133 31.7037 331.856 31.7406C331.104 31.9287 330.401 32.2716 329.79 32.7471C328.132 33.9489 326.775 36.7132 325.735 40.3788C325.223 42.2116 324.771 44.2848 324.348 46.5382C323.833 48.9335 323.501 51.3642 323.354 53.8094C323.263 56.3333 323.459 59.2778 325.283 61.2307C327.107 63.1837 330.288 63.8298 333.333 64.4457L333.755 64.5358L333.891 64.9114L335.866 70.1695L335.172 69.6737L353.639 69.869L352.87 70.8455V70.53C351.89 66.624 350.925 62.7782 350.006 59.0675V59.1876L347.82 54.17L347.579 53.6141L348.076 53.2535C349.683 52.2496 350.933 50.7676 351.649 49.0171C351.775 48.1974 351.648 47.3588 351.284 46.6128C350.921 45.8668 350.338 45.2488 349.614 44.8407C348.924 44.4476 348.113 44.3244 347.337 44.4951C346.562 44.7066 345.856 45.1156 345.287 45.682C344.066 46.7563 343.164 48.1436 342.679 49.6931V49.8733L342.589 49.9635C342.339 50.236 342.025 50.443 341.675 50.5661C341.325 50.6892 340.951 50.7247 340.584 50.6696C339.953 50.4869 339.415 50.0738 339.077 49.5128C338.763 49.0454 338.51 48.5407 338.323 48.0105C338.293 47.8973 338.293 47.7782 338.323 47.665C338.344 47.5676 338.385 47.4756 338.443 47.3946L338.549 47.2293L338.745 46.9288L339.152 46.3129L342.167 41.806C342.167 41.9562 342.167 41.806 342.167 41.6708V41.3853C342.167 41.19 342.167 40.9948 342.167 40.7995C342.197 40.4245 342.197 40.0477 342.167 39.6727C342.103 38.958 341.94 38.2553 341.684 37.5845C341.215 36.3974 340.466 35.3409 339.499 34.5048C338.041 33.4083 336.366 32.6349 334.584 32.2363C333.936 32.0817 333.312 31.839 332.73 31.5152C333.385 31.5534 334.033 31.6694 334.66 31.8608C335.293 32.011 336.062 32.1913 336.981 32.4467C338.08 32.7323 339.107 33.2441 339.996 33.949C341.111 34.8189 341.988 35.9558 342.544 37.254C342.85 38.0002 343.058 38.783 343.162 39.5826C343.192 40.0077 343.192 40.4344 343.162 40.8595C343.177 41.0796 343.177 41.3005 343.162 41.5205V41.8511C343.16 42.0157 343.113 42.1768 343.026 42.3168L340.132 46.9439L339.74 47.5448L339.559 47.8603L339.469 48.0105C339.469 48.0105 339.469 48.1457 339.469 47.9053V47.7551C339.469 47.7551 339.619 47.6049 339.092 47.7551L339.408 47.6349C339.574 48.0529 339.786 48.451 340.041 48.8218C340.569 49.5729 341.142 49.663 341.7 49.1222L341.549 49.3926C342.097 47.5771 343.141 45.9491 344.564 44.6904C345.304 43.9712 346.218 43.4539 347.217 43.1881C348.316 42.9299 349.472 43.0906 350.458 43.6388C351.411 44.2233 352.164 45.0813 352.619 46.1001C353.073 47.1189 353.208 48.251 353.006 49.3476C352.701 50.4729 352.121 51.5052 351.317 52.3522C350.579 53.1725 349.755 53.9128 348.86 54.5606L349.116 53.6291L351.332 58.6168V58.6919C352.267 62.4026 353.232 66.2034 354.227 70.1544V70.4699L354.468 71.4464H353.458L334.991 71.191H334.464L334.283 70.6953L332.353 65.4372L332.911 65.9029C331.323 65.6081 329.761 65.1912 328.238 64.656C326.691 64.1609 325.281 63.312 324.122 62.1772C323.082 60.993 322.397 59.5403 322.148 57.9858C321.912 56.5917 321.846 55.1742 321.952 53.7643C322.146 51.2635 322.539 48.7819 323.127 46.343C323.61 44.0745 324.122 42.0013 324.71 40.1385C325.841 36.4428 327.454 33.5583 329.338 32.3715C330.032 31.9127 330.82 31.615 331.645 31.5002C331.978 31.4322 332.321 31.4322 332.655 31.5002Z" fill="#1C2738"/>
<path d="M345.076 51.7204C344.669 51.6002 344.805 50.0829 346.026 48.7158C347.247 47.3487 348.725 47.1083 348.89 47.4989C349.056 47.8895 348.137 48.7008 347.187 49.7674C346.237 50.834 345.468 51.8556 345.076 51.7204Z" fill="#1C2738"/>
<path d="M333.212 64.8051L338.865 59.3066C338.865 59.3066 330.936 64.069 328.886 64.069C326.836 64.069 333.212 64.8051 333.212 64.8051Z" fill="#1C2738"/>
<path d="M309.38 136.285L314.111 108.421C313.975 128.536 313.239 147.011 313.239 147.011L317.4 147.642L377.277 149.295L376.071 75.7871L359.217 70.7544L353.253 67.4629L342.032 70.0783L334.171 68.9257L329.083 74.5853C329.083 74.5853 317.565 77.7401 311.129 79.3926C309.813 79.7349 308.596 80.3792 307.576 81.2739C306.555 82.1687 305.758 83.2891 305.249 84.5455L289.692 123.17L259.859 126.925L260.779 146.455L299.732 145.043C302.116 144.945 304.39 144.013 306.154 142.412C307.918 140.81 309.06 138.641 309.38 136.285Z" fill="#1C2738"/>
<path d="M345.18 79.3472L342.452 79.0918L341.532 80.0082L332.487 133.28L340.477 145.764C340.477 145.764 351.919 133.355 351.662 134.046C351.406 134.737 345.18 79.3472 345.18 79.3472Z" fill="#1C2738"/>
<path d="M338.865 76.0869L341.548 80.0379L345.181 79.3469L347.261 74.5695L345.467 72.0156L340.07 72.271L338.518 76.0418" fill="#1C2738"/>
<path d="M372.858 105.323C372.994 105.503 370.869 107.186 367.401 109.83L353.834 120.136L340.267 130.531C336.8 133.191 334.614 134.783 334.478 134.618C334.342 134.452 336.272 132.56 339.573 129.675C342.875 126.791 347.533 122.945 352.839 118.889C358.146 114.832 363.09 111.377 366.738 108.928C370.386 106.48 372.738 105.143 372.858 105.323Z" fill="#1C2738"/>
<path d="M376.085 148.56L343.282 147.298L313.133 146.787C314.263 149.521 291.109 233.605 289.586 245.939C288.063 258.273 302.58 357.861 302.58 357.861H337.403L325.238 255.494L343.614 187.785L348.86 357.425L384.858 357.71L380.743 181.37C380.61 175.547 379.939 169.749 378.738 164.049L376.085 148.56Z" fill="#FFBB37"/>
<path d="M384.799 347.389C384.799 347.809 376.975 348.996 367.161 349.131C357.348 349.267 349.464 348.335 349.494 347.929C349.524 347.524 357.423 347.719 367.146 347.569C376.87 347.419 384.754 346.953 384.799 347.389Z" fill="#1C2738"/>
<path d="M335.925 348.38C335.925 348.801 328.222 349.161 318.71 349.161C309.197 349.161 301.509 348.801 301.509 348.38C301.509 347.96 309.212 347.584 318.71 347.584C328.207 347.584 335.925 348.005 335.925 348.38Z" fill="#1C2738"/>
<path d="M345.03 178.98C344.593 178.98 344.201 172.43 344.156 164.348C344.11 156.266 344.427 149.701 344.849 149.686C345.271 149.671 345.678 156.251 345.723 164.333C345.769 172.415 345.467 178.98 345.03 178.98Z" fill="#1C2738"/>
<path d="M350.534 156.551C350.534 156.461 350.67 156.205 351.197 155.995C351.579 155.868 351.983 155.819 352.384 155.85C352.785 155.881 353.176 155.991 353.534 156.175C354.057 156.432 354.504 156.82 354.83 157.302C355.224 157.885 355.4 158.586 355.328 159.285C355.267 160.078 354.954 160.831 354.433 161.434C353.912 162.037 353.212 162.458 352.433 162.635C351.657 162.764 350.859 162.655 350.146 162.323C349.432 161.99 348.837 161.449 348.439 160.772C348.122 160.232 347.955 159.618 347.955 158.992C347.955 158.366 348.122 157.752 348.439 157.212C348.825 156.526 349.437 155.995 350.172 155.709C350.685 155.529 351.001 155.589 351.016 155.709C351.032 155.83 349.991 156.325 349.509 157.753C349.357 158.128 349.298 158.534 349.337 158.937C349.376 159.34 349.513 159.727 349.735 160.066C350.004 160.461 350.377 160.772 350.814 160.966C351.251 161.16 351.734 161.228 352.207 161.163C352.66 161.039 353.067 160.787 353.38 160.438C353.693 160.089 353.898 159.657 353.971 159.195C354.021 158.807 353.957 158.412 353.785 158.06C353.614 157.708 353.343 157.413 353.006 157.212C351.725 156.265 350.625 156.761 350.534 156.551Z" fill="#1C2738"/>
<path d="M369.465 357.305C369.073 357.305 363.194 356.269 360.661 364.817C358.129 373.365 352.822 378.067 353.214 381.778C353.596 384.414 354.454 386.959 355.747 389.289H383.59C383.59 389.289 385.806 381.597 384.208 376.55C382.61 371.502 379.022 366.875 378.766 363.555C378.51 360.235 375.329 357.305 369.465 357.305Z" fill="white"/>
<path d="M369.465 357.304C370.46 357.101 371.485 357.101 372.48 357.304C373.678 357.484 374.836 357.87 375.902 358.445C377.389 359.254 378.511 360.597 379.037 362.201C379.309 365.792 381.826 369.097 383.831 373.529C384.362 374.67 384.791 375.857 385.113 377.074C385.4 378.381 385.537 379.717 385.52 381.055C385.467 383.857 385.072 386.641 384.344 389.348L384.193 389.889H383.605H369.751H355.762H355.295L355.099 389.513C353.691 387.029 352.808 384.283 352.506 381.446C352.561 380.047 352.965 378.684 353.682 377.48C354.285 376.338 354.933 375.301 355.536 374.28C356.701 372.413 357.748 370.477 358.671 368.481C359.561 366.618 360.073 364.86 360.722 363.148C361.308 361.641 362.207 360.274 363.36 359.136C364.233 358.278 365.312 357.657 366.495 357.334C367.219 357.125 367.976 357.054 368.726 357.123C369.239 357.123 369.48 357.244 369.48 357.289C368.521 357.377 367.573 357.553 366.646 357.814C365.595 358.208 364.65 358.841 363.887 359.662C362.876 360.778 362.102 362.086 361.611 363.508C361.083 365.01 360.571 367.024 359.727 368.947C358.848 371.01 357.841 373.017 356.712 374.956C356.139 375.977 355.506 377.029 354.963 378.111C354.38 379.119 354.049 380.253 353.998 381.416C354.33 384.007 355.17 386.508 356.471 388.777L355.822 388.386H383.665L382.942 388.942C384.314 383.609 384.856 378.231 382.686 374.054C381.781 371.921 380.711 369.953 379.806 368.045C379.365 367.115 378.987 366.157 378.676 365.176C378.523 364.686 378.417 364.183 378.359 363.673C378.329 363.249 378.268 362.827 378.178 362.412C377.765 361.003 376.834 359.801 375.57 359.046C374.602 358.453 373.543 358.022 372.435 357.769C370.52 357.424 369.465 357.424 369.465 357.304Z" fill="#1C2738"/>
<path d="M377.125 372.477C376.959 372.898 373.824 371.936 369.889 371.726C365.955 371.516 362.714 372.072 362.593 371.636C362.473 371.2 365.714 369.908 369.98 370.134C374.246 370.359 377.246 372.117 377.125 372.477Z" fill="#1C2738"/>
<path d="M374.804 368.708C374.669 369.129 372.498 368.813 369.875 368.873C367.252 368.933 365.096 369.294 364.945 368.873C364.795 368.453 366.935 367.371 369.845 367.371C372.754 367.371 374.94 368.318 374.804 368.708Z" fill="#1C2738"/>
<path d="M340.298 52.1259C340.102 52.5014 339.242 52.4714 338.368 52.0357C337.494 51.6001 336.951 50.939 337.147 50.5334C337.343 50.1278 338.202 50.1729 339.077 50.6086C339.951 51.0442 340.478 51.7353 340.298 52.1259Z" fill="#1C2738"/>
<path d="M310.533 144.357C310.009 144.297 310.725 134.054 312.162 121.483C313.598 108.911 315.213 98.758 315.737 98.8174C316.26 98.8768 315.544 109.12 314.106 121.703C312.668 134.286 311.075 144.418 310.533 144.357Z" fill="white"/>
<path d="M146.677 357.305C147.084 357.305 152.948 356.269 155.481 364.817C158.013 373.365 163.335 378.067 162.928 381.778C162.548 384.412 161.695 386.956 160.41 389.289H132.552C132.552 389.289 130.336 381.597 131.934 376.55C133.532 371.502 137.12 366.875 137.391 363.555C137.662 360.235 140.828 357.305 146.677 357.305Z" fill="#777777"/>
<path d="M146.677 357.305C146.677 357.425 145.622 357.425 143.783 357.831C142.679 358.081 141.625 358.512 140.663 359.108C139.395 359.858 138.462 361.061 138.055 362.473C137.952 362.887 137.886 363.309 137.859 363.735C137.806 364.244 137.705 364.747 137.557 365.237C137.247 366.221 136.865 367.18 136.412 368.106C135.522 369.999 134.452 371.967 133.532 374.116C131.361 378.292 131.904 383.67 133.276 389.004L132.552 388.448H160.411L159.747 388.838C161.054 386.573 161.894 384.07 162.22 381.477C162.169 380.314 161.838 379.18 161.255 378.172C160.712 377.09 160.094 376.039 159.506 375.017C158.377 373.078 157.37 371.071 156.491 369.008C155.647 367.085 155.134 365.132 154.607 363.57C154.116 362.148 153.342 360.84 152.33 359.724C151.557 358.87 150.583 358.219 149.496 357.831C148.57 357.568 147.621 357.392 146.662 357.305C146.662 357.305 146.904 357.185 147.416 357.125C148.172 357.07 148.932 357.146 149.662 357.35C150.839 357.678 151.913 358.298 152.783 359.153C153.968 360.285 154.902 361.651 155.526 363.164C156.159 364.877 156.672 366.634 157.561 368.497C158.496 370.49 159.548 372.426 160.712 374.296C161.315 375.318 161.948 376.354 162.551 377.496C163.268 378.7 163.672 380.063 163.727 381.462C163.424 384.299 162.542 387.045 161.134 389.529L160.938 389.905H160.486H146.497H132.628H132.04L131.904 389.364C131.15 386.656 130.729 383.866 130.653 381.056C130.623 379.718 130.755 378.382 131.045 377.075C131.365 375.856 131.799 374.669 132.341 373.53C134.331 369.023 136.864 365.793 137.12 362.202C137.648 360.594 138.776 359.249 140.271 358.447C141.334 357.867 142.493 357.481 143.693 357.305C144.678 357.107 145.692 357.107 146.677 357.305Z" fill="#1C2738"/>
<path d="M139.078 372.477C138.897 372.117 141.973 370.404 146.239 370.164C150.505 369.923 153.776 371.245 153.61 371.666C153.445 372.087 150.279 371.516 146.329 371.756C142.38 371.997 139.244 372.898 139.078 372.477Z" fill="#1C2738"/>
<path d="M141.355 368.707C141.204 368.316 143.39 367.205 146.3 367.31C149.209 367.415 151.35 368.497 151.199 368.812C151.048 369.128 148.907 368.812 146.269 368.812C143.631 368.812 141.476 369.128 141.355 368.707Z" fill="#1C2738"/>
<path d="M177.188 106.344C177.61 106.344 177.67 119.384 177.309 135.428C176.947 151.473 176.314 164.513 175.801 164.498C175.289 164.483 175.304 151.458 175.665 135.398C176.027 119.339 176.751 106.329 177.188 106.344Z" fill="#1C2738"/>
<path d="M140.572 76.3887C137.011 78.3422 134.147 81.3508 132.378 84.998C130.609 88.6451 130.022 92.7503 130.698 96.7449C132.024 105.984 139.034 121.172 143.978 131.012C145.437 133.92 147.624 136.402 150.329 138.218C153.034 140.034 156.164 141.123 159.415 141.378L219.352 144.804L222.608 125.995L165.792 121.488L152.405 92.0577" fill="#127BF2"/>
<path d="M152.403 92.0572C152.811 92.6765 153.164 93.3299 153.459 94.0102L156.217 99.749C158.584 104.827 162.006 112.143 166.257 121.277L165.82 120.961L222.667 125.243H223.481L223.345 126.054C222.32 132.063 221.235 138.403 220.119 144.878L219.999 145.554H219.305L203.296 144.638L178.211 143.135L166.287 142.429L160.498 142.189C158.55 142.131 156.621 141.792 154.77 141.182C151.169 139.996 147.99 137.794 145.62 134.843C144.518 133.456 143.587 131.943 142.846 130.336L140.66 125.829C137.826 119.82 135.384 114.156 133.469 108.853C131.557 104.103 130.398 99.0853 130.032 93.9801C130.015 91.8584 130.32 89.7463 130.937 87.7155C131.476 86.0227 132.252 84.4143 133.243 82.9382C134.602 80.899 136.336 79.1352 138.354 77.7402C138.868 77.3729 139.407 77.0416 139.967 76.7487C140.359 76.5534 140.57 76.4783 140.57 76.5083C140.57 76.5384 139.831 76.9741 138.535 78.0107C136.645 79.4774 135.028 81.262 133.756 83.2837C132.843 84.7385 132.133 86.3103 131.645 87.9559C131.108 89.9125 130.865 91.9374 130.922 93.9651C131.361 98.9546 132.576 103.846 134.525 108.462C136.484 113.705 138.972 119.324 141.836 125.273L144.052 129.78C144.757 131.31 145.648 132.748 146.705 134.062C148.913 136.794 151.873 138.825 155.222 139.906C156.965 140.458 158.776 140.766 160.604 140.822L166.393 141.137L178.317 141.798L203.386 143.211L219.396 144.127L218.582 144.773C219.712 138.298 220.813 131.988 221.868 125.964L222.546 126.835L165.745 122.118H165.428L165.307 121.848C161.222 112.624 157.966 105.247 155.69 100.125C154.619 97.6007 153.775 95.6176 153.187 94.2656C152.86 93.5546 152.597 92.8154 152.403 92.0572Z" fill="#1C2738"/>
<path d="M144.127 77.4248C144.127 77.2445 145.122 77.1694 146.448 77.8905C148.118 78.8976 149.382 80.4546 150.021 82.2922C150.632 84.0475 150.888 85.9061 150.775 87.7606C150.775 89.1577 150.518 89.999 150.307 89.999C150.096 89.999 149.885 89.1728 149.674 87.8207C149.452 86.127 149.074 84.4574 148.544 82.833C147.99 81.2785 147.052 79.8884 145.815 78.7918C144.865 77.9656 144.066 77.59 144.127 77.4248Z" fill="#1C2738"/>
<path d="M202.258 95.2559C202.65 96.6339 202.897 98.0486 202.997 99.4773C203.392 102.913 203.543 106.372 203.449 109.828C203.361 113.284 203.018 116.728 202.424 120.134C202.253 121.559 201.919 122.96 201.429 124.31C201.469 122.884 201.62 121.462 201.881 120.059C202.183 117.445 202.575 113.824 202.665 109.813C202.756 105.802 202.665 102.166 202.439 99.5374C202.268 98.117 202.207 96.6856 202.258 95.2559Z" fill="#1C2738"/>
<path d="M223.121 122.914C222.699 122.914 222.669 120.766 223.121 118.257C223.573 115.748 224.191 113.75 224.628 113.856C225.066 113.961 225.066 116.004 224.628 118.513C224.191 121.021 223.558 122.974 223.121 122.914Z" fill="#1C2738"/>
<path d="M162.927 382.227C162.927 382.662 155.948 383.008 147.355 383.008C138.762 383.008 131.783 382.662 131.783 382.227C131.783 381.791 138.747 381.445 147.355 381.445C155.963 381.445 162.927 381.806 162.927 382.227Z" fill="white"/>
<path d="M232.98 383.369C232.98 383.805 220.815 384.15 205.846 384.15C190.877 384.15 178.711 383.805 178.711 383.369C178.711 382.933 190.861 382.588 205.846 382.588C220.83 382.588 232.98 382.933 232.98 383.369Z" fill="white"/>
<path d="M361.202 81.5359L329.607 85.7931C328.278 85.9721 327.347 87.1903 327.527 88.5141L333.786 134.651C333.966 135.974 335.188 136.902 336.516 136.723L368.112 132.466C369.44 132.287 370.372 131.069 370.192 129.745L363.933 83.6087C363.753 82.2849 362.531 81.3569 361.202 81.5359Z" fill="white"/>
<path d="M361.377 89.7052L348.587 91.3789L349.422 97.7147L362.212 96.041L361.377 89.7052Z" fill="#127BF2"/>
<path d="M358.492 113.045C356.261 109.244 351.271 101.883 349.04 98.0219C348.783 97.5862 348.376 97.0754 347.879 97.1956C347.381 97.3158 347.261 97.9618 347.276 98.4725C347.275 100.389 347.611 102.291 348.271 104.091C345.689 101.502 342.7 99.3505 339.422 97.7214C338.578 97.3007 337.266 97.0904 336.95 97.9768C336.754 98.5326 337.161 99.1035 337.553 99.5542C339.321 101.527 341.291 103.309 343.432 104.872C341.473 103.137 339.173 101.827 336.678 101.026C335.91 100.786 334.854 100.696 334.493 101.417C334.131 102.138 334.839 102.919 335.488 103.445L342.859 109.229L336.422 106.134C335.503 105.684 334.055 105.398 333.694 106.375C333.332 107.351 334.176 107.877 334.869 108.313C340.266 111.978 345.799 116.455 351.195 120.121" fill="white"/>
<path d="M351.209 120.106C350.452 119.804 349.738 119.405 349.084 118.919C347.757 118.063 345.858 116.771 343.491 115.088C341.124 113.406 338.305 111.348 335.019 109.079C334.548 108.796 334.108 108.464 333.708 108.088C333.466 107.851 333.272 107.57 333.135 107.261C333.052 107.064 333.01 106.852 333.01 106.638C333.01 106.424 333.052 106.212 333.135 106.015C333.213 105.809 333.337 105.622 333.496 105.469C333.654 105.316 333.845 105.2 334.054 105.128C334.402 105.006 334.772 104.96 335.14 104.993C335.767 105.068 336.374 105.257 336.934 105.549L343.175 108.553L342.406 109.77L334.868 103.956C334.472 103.645 334.13 103.269 333.858 102.845C333.692 102.56 333.594 102.242 333.572 101.913C333.544 101.536 333.645 101.16 333.858 100.847C334.063 100.578 334.331 100.365 334.639 100.226C334.947 100.087 335.285 100.027 335.622 100.05C336.137 100.064 336.646 100.16 337.13 100.336C338.826 100.905 340.439 101.698 341.923 102.694C342.622 103.154 343.291 103.655 343.928 104.197C344.073 104.343 344.154 104.54 344.154 104.745C344.154 104.95 344.073 105.147 343.928 105.293C343.8 105.438 343.623 105.53 343.431 105.552C343.239 105.574 343.046 105.525 342.888 105.414C341.152 104.147 339.528 102.735 338.034 101.192L336.964 100.05C336.46 99.5772 336.136 98.946 336.044 98.2626C336.037 98.0296 336.077 97.7975 336.162 97.5805C336.248 97.3635 336.377 97.1662 336.542 97.0007C336.856 96.7128 337.261 96.5428 337.687 96.5199C338.316 96.4864 338.943 96.6103 339.511 96.8805C342.91 98.5733 346.002 100.817 348.662 103.521L347.546 104.227C346.878 102.366 346.541 100.404 346.551 98.4278C346.524 98.1059 346.572 97.7821 346.693 97.4822C346.813 97.1822 347.002 96.9144 347.245 96.7002C347.422 96.5794 347.629 96.5074 347.843 96.4916C348.058 96.4758 348.272 96.5166 348.466 96.6101C348.748 96.7493 348.991 96.9557 349.174 97.211C349.491 97.6467 349.642 97.9922 349.868 98.3528L350.501 99.4043L354.857 106.51C356.247 108.517 357.434 110.655 358.4 112.895C357.951 112.445 357.561 111.94 357.239 111.393L354.224 106.961C352.913 105.038 351.33 102.724 349.566 100.005L348.918 98.9537C348.692 98.6081 348.466 98.1875 348.27 97.9471C348.198 97.852 348.105 97.7749 347.998 97.7218C347.877 97.9415 347.829 98.1942 347.863 98.4429C347.893 100.266 348.24 102.071 348.888 103.776C348.952 103.943 348.946 104.129 348.873 104.292C348.799 104.456 348.664 104.583 348.496 104.647C348.374 104.695 348.24 104.706 348.112 104.679C347.983 104.652 347.866 104.589 347.772 104.497C345.194 101.96 342.221 99.8546 338.969 98.2626C338.631 98.1163 338.267 98.0396 337.898 98.0372C337.597 98.0372 337.687 98.1124 337.657 98.2025C337.627 98.2926 338.577 99.4494 339.165 100.14C340.613 101.603 342.176 102.95 343.838 104.167L342.858 105.384C342.268 104.849 341.649 104.348 341.004 103.881C339.64 102.967 338.16 102.24 336.602 101.718C335.909 101.402 335.095 101.493 335.095 101.613C335.095 101.733 335.095 101.718 335.095 101.958C335.271 102.227 335.49 102.465 335.743 102.664L343.144 108.523C343.293 108.642 343.39 108.813 343.412 109.002C343.435 109.19 343.382 109.38 343.265 109.53C343.161 109.663 343.013 109.755 342.848 109.79C342.683 109.826 342.51 109.803 342.361 109.725L336.165 106.615C335.762 106.379 335.316 106.226 334.853 106.165C334.386 106.165 334.205 106.165 334.16 106.36C334.115 106.555 334.16 106.751 334.446 107.066C334.783 107.388 335.151 107.675 335.547 107.922C338.818 110.236 341.577 112.429 343.853 114.172L349.189 118.318C349.947 118.813 350.627 119.415 351.209 120.106Z" fill="#1C2738"/>
<path d="M372.996 74.8105C372.996 74.8105 383.412 76.7936 386.684 84.8159C390.483 94.1151 397.236 128.503 394.914 133.656C392.035 139.815 382.478 146.08 376.146 142.444C369.815 138.809 345.997 119.91 345.997 119.91L358.72 106.164L375.92 118.963L373.011 95.2719L372.996 74.8105Z" fill="#1C2738"/>
<path d="M375.76 82.0902C375.895 82.2404 375.617 82.886 374.547 84.809C373.164 87.4521 373.264 89.0008 373.28 91.9814C373.567 94.2649 373.883 96.7437 374.215 99.3427C375.542 110.475 376.28 119.519 375.843 119.579C375.406 119.639 373.989 110.64 372.602 99.4779C372.301 96.8639 372.029 94.3851 371.773 92.0866C371.83 88.882 372.047 87.2136 373.803 84.5281C375.235 82.485 375.684 82.0001 375.76 82.0902Z" fill="white"/>
<path d="M382.175 123.862C381.904 124.177 376.567 120.361 370.115 115.464C363.663 110.566 358.568 106.45 358.764 106.21C358.96 105.969 364.643 109.289 371.065 114.217C377.487 119.144 382.461 123.516 382.175 123.862Z" fill="white"/>
<path d="M175.317 113.856C175.136 113.976 173.417 111.783 170.568 108.282C169.151 106.525 167.448 104.422 165.639 102.033C164.734 100.831 163.8 99.5541 162.895 98.172C161.816 96.6984 161.164 94.9574 161.011 93.1393C161.152 90.5328 161.956 88.0048 163.347 85.793L163.619 86.7695C161.962 85.7173 160.084 85.0593 158.131 84.8466L157.453 84.7715L157.528 84.1104C158.448 77.305 159.217 72.8432 159.488 72.8732C159.76 72.9032 159.488 77.3801 158.84 84.2607L158.252 83.5396C160.438 83.6829 162.555 84.3587 164.418 85.5076L164.991 85.8682L164.689 86.4841C163.455 88.4764 162.735 90.7421 162.594 93.0792C162.727 94.6197 163.279 96.0948 164.191 97.3457C165.051 98.6978 165.94 99.9748 166.814 101.177C168.533 103.565 170.101 105.684 171.458 107.606C174.096 111.302 175.498 113.751 175.317 113.856Z" fill="white"/>
<path d="M186.761 75.4727C186.867 75.4727 187.575 76.2689 188.374 78.0866C188.892 79.2189 189.085 80.4722 188.932 81.7072C188.801 82.4971 188.492 83.2471 188.027 83.9006C187.477 84.66 186.668 85.194 185.751 85.4029V84.0959C186.691 84.4042 187.527 84.9661 188.165 85.7193C188.804 86.4725 189.221 87.3875 189.369 88.3624C189.649 90.4165 189.313 92.5071 188.404 94.3716C185.932 99.9001 183.535 104.753 181.756 108.283C179.977 111.813 178.741 113.917 178.575 113.826C178.153 113.661 181.997 104.677 186.957 93.7857C187.738 92.2028 188.057 90.4328 187.877 88.6779C187.793 87.9619 187.517 87.2819 187.076 86.7104C186.635 86.139 186.047 85.6974 185.374 85.4329L182.661 84.6517L185.495 84.1409C186.096 83.9639 186.635 83.6222 187.051 83.1548C187.467 82.6873 187.742 82.1129 187.846 81.4969C188.042 80.4443 187.969 79.3595 187.635 78.3421C187.078 76.5693 186.595 75.5478 186.761 75.4727Z" fill="white"/>
<path d="M198.534 102.558C198.534 102.978 196.484 103.489 193.891 103.249C191.298 103.008 189.368 102.167 189.368 101.747C189.368 101.326 191.509 101.476 193.891 101.747C196.273 102.017 198.504 102.122 198.534 102.558Z" fill="white"/>
<path d="M144.883 149.7C143.78 152.4 142.491 155.021 141.024 157.542L140.572 156.731C146.134 156.911 153.988 156.731 162.717 157.092H163.742L163.109 157.362C164.797 155.484 165.189 152.855 166.124 150.467L166.757 151.488C160.44 150.857 154.953 150.857 151.034 150.542C149.089 150.391 147.521 150.196 146.511 150.046C145.953 149.993 145.405 149.862 144.883 149.655C144.883 149.655 145.381 149.535 146.541 149.55H151.064C154.938 149.55 160.471 149.415 166.877 149.956L167.872 150.031L167.51 150.977C167.088 152.074 166.757 153.291 166.32 154.568C165.878 155.944 165.177 157.224 164.254 158.339L163.998 158.624H163.621H162.611C153.943 158.264 146.029 158.264 140.466 157.783H139.577L140.029 157.047C141.446 154.472 143.069 152.015 144.883 149.7Z" fill="#1C2738"/>
<path d="M358.838 38.531C358.64 37.5111 358.105 36.5868 357.318 35.906C356.531 35.2251 355.537 34.8269 354.496 34.7752C354.987 33.8757 355.211 32.8556 355.141 31.834C355.072 30.8124 354.712 29.8317 354.104 29.0064C353.473 28.1958 352.623 27.5816 351.653 27.2356C350.684 26.8897 349.636 26.8264 348.632 27.0533C347.55 25.9058 346.33 24.8966 344.999 24.0487C343.653 23.2075 342.037 22.9068 340.477 23.2075C338.973 23.7851 337.534 24.5151 336.18 25.3858C334.839 26.0318 333.316 26.2872 332.035 27.0684C331.364 27.401 330.831 27.9571 330.528 28.6403C330.225 29.3235 330.171 30.0907 330.376 30.8091L346.612 37.6446C348.717 39.8243 350.16 42.5537 350.773 45.5167C350.855 46.3742 351.156 47.1965 351.647 47.9053C351.916 48.1563 352.234 48.3494 352.582 48.4724C352.929 48.5955 353.298 48.6459 353.666 48.6206C354.034 48.5952 354.392 48.4946 354.719 48.325C355.046 48.1554 355.335 47.9205 355.566 47.6349C355.998 47.0266 356.258 46.314 356.319 45.5714C356.38 44.8289 356.24 44.0836 355.913 43.4134C356.875 43.0379 357.684 42.3545 358.213 41.4706C358.743 40.5868 358.962 39.5527 358.838 38.531Z" fill="#1C2738"/>
<path d="M338.307 25.5657C337.769 24.6878 336.987 23.9838 336.056 23.5386C335.125 23.0935 334.085 22.9262 333.061 23.0569C332.041 23.225 331.092 23.6831 330.327 24.376C329.562 25.0689 329.015 25.9671 328.75 26.9628C327.905 26.93 327.071 27.1695 326.373 27.6458C325.676 28.122 325.15 28.8097 324.876 29.6069C324.645 30.4176 324.715 31.2838 325.072 32.0476C325.429 32.8114 326.049 33.422 326.82 33.7683C327.878 34.143 329.033 34.143 330.091 33.7683C331.162 33.4377 332.157 32.927 333.227 32.5965C335.643 31.8931 338.24 32.1741 340.448 33.3777L338.307 25.5657Z" fill="#1C2738"/>
<path d="M261.939 77.1555C262.316 77.3658 260.673 81.0464 257.266 84.8473C256.787 85.3947 256.155 85.7862 255.451 85.971C254.747 86.1559 254.003 86.1255 253.316 85.8838C252.997 85.7475 252.712 85.5419 252.483 85.282C252.253 85.0221 252.085 84.7145 251.99 84.3815C251.843 83.8557 251.843 83.3 251.99 82.7741C252.198 82.1024 252.571 81.493 253.075 81.0014C253.407 80.6859 253.648 80.5507 253.723 80.6108C253.799 80.6709 253.723 80.9263 253.587 81.3469C253.335 81.8638 253.162 82.4159 253.075 82.9844C253.075 83.6454 253.256 84.4116 253.874 84.5769C254.294 84.6677 254.731 84.64 255.136 84.4966C255.54 84.3533 255.897 84.1001 256.165 83.7656C259.301 80.2202 261.577 76.9301 261.939 77.1555Z" fill="#1C2738"/>
<path d="M265.572 80.4145C265.949 80.6399 264.427 84.0952 261.231 87.6706C260.774 88.1877 260.173 88.557 259.504 88.731C258.835 88.905 258.129 88.8758 257.477 88.6471C257.166 88.508 256.891 88.3007 256.671 88.0405C256.452 87.7804 256.295 87.4742 256.211 87.1448C256.083 86.6521 256.083 86.1352 256.211 85.6425C256.412 85.0086 256.77 84.4352 257.251 83.975C257.568 83.6745 257.794 83.5543 257.884 83.6144C257.975 83.6745 257.884 83.9299 257.764 84.3205C257.537 84.7954 257.385 85.302 257.311 85.8228C257.238 86.118 257.27 86.4295 257.402 86.7038C257.534 86.978 257.758 87.1978 258.035 87.3251C258.421 87.4036 258.822 87.3735 259.192 87.2382C259.562 87.1029 259.887 86.8677 260.13 86.5589C263.04 83.2689 265.196 80.2042 265.572 80.4145Z" fill="#1C2738"/>
<path d="M267.532 85.3578C267.894 85.5982 266.507 88.4976 263.567 91.367C263.141 91.7747 262.613 92.0629 262.039 92.2027C261.465 92.3425 260.864 92.3289 260.296 92.1632C260.015 92.0705 259.757 91.9195 259.539 91.7201C259.32 91.5207 259.147 91.2775 259.03 91.0064C258.881 90.5525 258.881 90.0633 259.03 89.6093C259.207 89.0476 259.555 88.5543 260.025 88.1971C260.311 87.9568 260.522 87.8667 260.613 87.9418C260.703 88.0169 260.613 88.2272 260.507 88.5577C260.317 88.9512 260.19 89.372 260.13 89.8046C260.09 90.0234 260.137 90.2492 260.261 90.4342C260.384 90.6193 260.576 90.7491 260.794 90.7961C261.122 90.839 261.457 90.8057 261.77 90.6989C262.084 90.5921 262.369 90.4146 262.603 90.1802C265.18 87.6113 267.2 85.1024 267.532 85.3578Z" fill="#1C2738"/>
<path d="M381.045 0.177235H409.777C410.823 0.157319 411.862 0.342843 412.835 0.723177C413.808 1.10351 414.697 1.67122 415.45 2.39387C416.203 3.11653 416.806 3.97997 417.224 4.93488C417.643 5.88979 417.868 6.91743 417.888 7.95915V35.1358C417.868 36.1775 417.643 37.2052 417.224 38.1601C416.806 39.115 416.203 39.9785 415.45 40.7011C414.697 41.4238 413.808 41.9915 412.835 42.3718C411.862 42.7521 410.823 42.9377 409.777 42.9178H394.175C391.793 46.6885 387.226 51.4058 379.568 50.279C379.568 50.279 385.477 48.5063 386.502 42.9178H381.045C378.932 42.958 376.89 42.1611 375.367 40.702C373.843 39.243 372.963 37.241 372.92 35.1358V7.95915C372.963 5.85393 373.843 3.85202 375.367 2.39296C376.89 0.933897 378.932 0.136983 381.045 0.177235Z" fill="#127BF2"/>
<path d="M394.205 28.5101L385.959 20.9084L389.291 17.2278L394.07 21.6446L402.708 13.0664L406.175 16.6118L394.205 28.5101Z" fill="white"/>
<path d="M211.076 1.72411H273.651C274.696 1.70419 275.735 1.88971 276.709 2.27005C277.682 2.65038 278.571 3.21809 279.324 3.94074C280.077 4.6634 280.68 5.52684 281.098 6.48175C281.516 7.43666 281.742 8.4643 281.761 9.50602V40.5736C281.742 41.6153 281.516 42.643 281.098 43.5979C280.68 44.5529 280.077 45.4163 279.324 46.1389C278.571 46.8616 277.682 47.4293 276.709 47.8096C275.735 48.19 274.696 48.3755 273.651 48.3556H224.206C221.839 52.1414 217.256 56.8436 209.598 55.7169C209.598 55.7169 215.508 53.9442 216.548 48.3556H211.076C210.03 48.3755 208.991 48.19 208.018 47.8096C207.045 47.4293 206.156 46.8616 205.403 46.1389C204.65 45.4163 204.047 44.5529 203.629 43.5979C203.21 42.643 202.985 41.6153 202.965 40.5736V9.50602C202.985 8.4643 203.21 7.43666 203.629 6.48175C204.047 5.52684 204.65 4.6634 205.403 3.94074C206.156 3.21809 207.045 2.65038 208.018 2.27005C208.991 1.88971 210.03 1.70419 211.076 1.72411V1.72411Z" stroke="#BBBBBB" stroke-width="1.95708" stroke-linejoin="round"/>
<path d="M91.7768 198.09H34.7641C33.7438 198.09 32.7567 197.729 31.9783 197.071C31.1999 196.414 30.6807 195.503 30.5131 194.5L23.1717 150.557C23.0688 149.942 23.1016 149.312 23.2678 148.71C23.4341 148.109 23.7298 147.551 24.1343 147.075C24.5388 146.599 25.0425 146.216 25.6104 145.953C26.1783 145.691 26.7967 145.555 27.4227 145.555H84.4354C85.4575 145.555 86.4467 145.915 87.2276 146.572C88.0085 147.229 88.5307 148.141 88.7016 149.145L96.043 193.072C96.1459 193.69 96.1126 194.322 95.9456 194.925C95.7786 195.529 95.4818 196.088 95.0758 196.566C94.6699 197.043 94.1645 197.427 93.5948 197.69C93.0252 197.953 92.4048 198.09 91.7768 198.09Z" fill="#777777"/>
<path d="M91.7739 198.09C92.5448 198.034 93.2925 197.803 93.9598 197.414C94.7482 196.916 95.3557 196.179 95.6934 195.311C95.9026 194.76 95.9949 194.172 95.9647 193.583C95.9647 192.967 95.7386 192.276 95.6331 191.57C94.6381 185.801 93.2061 177.524 91.4574 167.308C90.5831 162.185 89.6182 156.567 88.6082 150.542C88.5237 149.801 88.3621 149.071 88.1259 148.364C87.8604 147.685 87.4053 147.096 86.8144 146.666C86.221 146.227 85.5161 145.961 84.7793 145.9C84.0255 145.9 83.1813 145.9 82.3673 145.9H72.2974H27.4349C26.5269 145.899 25.6465 146.212 24.9432 146.784C24.2398 147.356 23.7567 148.153 23.5758 149.04C23.5004 149.477 23.5004 149.925 23.5758 150.362L23.8019 151.789L24.2843 154.659C24.9174 158.474 25.5405 162.23 26.1535 165.926C27.3746 173.302 28.5655 180.408 29.681 187.198C29.9674 188.896 30.2388 190.564 30.5252 192.216C30.6609 193.027 30.7815 193.884 30.9323 194.65C31.1001 195.39 31.4828 196.064 32.0327 196.588C32.5751 197.11 33.2544 197.469 33.9924 197.624C34.7626 197.717 35.5389 197.747 36.314 197.715H40.957H58.0216L82.714 197.835H89.4374H91.1861C91.3813 197.812 91.5787 197.812 91.7739 197.835H91.1861H89.4374L82.714 197.91L58.0216 198.045H40.957H36.2838C35.4637 198.089 34.6413 198.059 33.8266 197.955C32.9616 197.785 32.1652 197.368 31.5352 196.753C30.8825 196.143 30.426 195.353 30.2237 194.485C30.0579 193.628 29.9373 192.832 29.7866 192.006C29.5152 190.353 29.2288 188.671 28.9424 186.988C27.7967 180.198 26.6058 173.092 25.3697 165.716C24.7466 162.02 24.1185 158.269 23.4853 154.463L23.0029 151.594L22.7617 150.092C22.6865 149.594 22.6865 149.087 22.7617 148.589C23.0526 147.596 23.6632 146.725 24.4995 146.112C25.3358 145.498 26.3514 145.176 27.3897 145.194H72.2522H82.3221C83.1512 145.194 83.92 145.194 84.7793 145.194C85.6451 145.265 86.4719 145.583 87.1611 146.111C87.8434 146.608 88.3669 147.291 88.6685 148.079C88.9129 148.836 89.0796 149.616 89.166 150.407C90.161 156.416 91.0805 162.05 91.9247 167.188L95.8592 191.495C95.9648 192.216 96.1004 192.862 96.1456 193.538C96.1789 194.16 96.0707 194.782 95.8291 195.356C95.4616 196.258 94.8111 197.017 93.9749 197.519C93.458 197.807 92.8895 197.991 92.3016 198.06C92.1269 198.086 91.9504 198.096 91.7739 198.09Z" fill="#1C2738"/>
<path d="M87.3118 193.899H38.2133C37.3451 193.91 36.5011 193.614 35.8307 193.064C35.1603 192.515 34.7066 191.746 34.5501 190.895L28.2187 153.668C28.1329 153.14 28.1641 152.599 28.3101 152.085C28.4561 151.57 28.7133 151.093 29.0639 150.688C29.4144 150.283 29.8496 149.959 30.3391 149.739C30.8285 149.52 31.3602 149.409 31.897 149.416H80.9955C81.8621 149.412 82.7031 149.71 83.3723 150.258C84.0415 150.807 84.4966 151.572 84.6586 152.421L90.9749 189.648C91.0605 190.175 91.0297 190.714 90.8846 191.228C90.7394 191.741 90.4835 192.217 90.1347 192.622C89.7858 193.027 89.3525 193.351 88.8649 193.572C88.3773 193.792 87.8473 193.904 87.3118 193.899Z" fill="white"/>
<path d="M87.311 193.899C87.9758 193.819 88.6171 193.604 89.1953 193.268C89.8829 192.855 90.4132 192.226 90.7028 191.48C90.9061 191.007 90.9839 190.489 90.9289 189.978C90.9289 189.467 90.748 188.866 90.6425 188.265C89.7832 183.307 88.5321 176.247 86.9944 167.518C86.2407 163.131 85.4116 158.339 84.5221 153.201C84.4639 152.578 84.3008 151.968 84.0397 151.398C83.75 150.857 83.3174 150.405 82.7886 150.091C82.25 149.774 81.6354 149.608 81.0098 149.611H70.3067L31.9113 149.701C31.148 149.697 30.4067 149.955 29.8112 150.431C29.2158 150.906 28.8023 151.572 28.64 152.315C28.5795 152.683 28.5795 153.058 28.64 153.427L28.8511 154.643L29.2581 157.107C29.8159 160.352 30.3586 163.567 30.8862 166.722L33.9011 184.915C34.1423 186.417 34.3835 187.784 34.6097 189.196C34.7453 189.887 34.8207 190.699 35.0016 191.239C35.2158 191.835 35.5979 192.357 36.102 192.742C36.5981 193.131 37.1931 193.376 37.8206 193.448C38.4387 193.448 39.1773 193.448 39.8255 193.448H43.8354H58.4277L79.5324 193.583L85.2759 193.658H86.7834H87.2959C87.1256 193.677 86.9537 193.677 86.7834 193.658H85.2759L79.5324 193.733L58.4277 193.854H43.8354H39.8255C39.1321 193.854 38.514 193.854 37.7452 193.854C36.9888 193.763 36.2705 193.473 35.6649 193.012C35.0532 192.537 34.5925 191.895 34.3383 191.164C34.1122 190.398 34.0669 189.662 33.9162 189.016C33.675 187.604 33.4338 186.177 33.1775 184.735C32.1977 178.936 31.1575 172.851 30.0721 166.542C29.5294 163.402 28.9868 160.187 28.429 156.927L28.022 154.478L27.8109 153.246C27.7356 152.789 27.7356 152.322 27.8109 151.864C28.0108 150.945 28.5207 150.121 29.2558 149.531C29.9909 148.94 30.9068 148.618 31.8509 148.619H70.2162H80.9193C81.6684 148.616 82.4039 148.819 83.0449 149.205C83.6765 149.558 84.1981 150.078 84.5523 150.707C84.8426 151.338 85.0211 152.014 85.0799 152.705C85.9392 157.858 86.7381 162.666 87.4768 167.052C88.9089 175.796 90.0696 182.872 90.8686 187.829C90.9591 188.46 91.0947 189.016 91.1249 189.587C91.1465 190.102 91.0538 190.614 90.8536 191.089C90.5285 191.862 89.9561 192.507 89.2255 192.922C88.7604 193.176 88.2467 193.33 87.718 193.373C87.6103 193.568 87.473 193.745 87.311 193.899Z" fill="#1C2738"/>
<path d="M34.6724 192.486H117.207C118.698 192.486 120.128 193.077 121.183 194.128C122.237 195.178 122.83 196.604 122.83 198.09H34.2654" fill="#777777"/>
<path d="M34.2654 198.09C34.4153 198.067 34.5677 198.067 34.7176 198.09H36.0593H41.1998L60.1488 197.97L122.83 197.85L122.438 198.24C122.433 197.809 122.378 197.381 122.272 196.963C122.092 196.268 121.772 195.616 121.332 195.048C120.891 194.48 120.339 194.007 119.709 193.658C119.077 193.325 118.386 193.121 117.674 193.057C116.981 193.057 116.166 193.057 115.443 193.057H106.504H89.6199L60.9779 192.967L41.6972 192.847L36.4512 192.772H35.0945C34.9394 192.792 34.7823 192.792 34.6272 192.772C34.7823 192.752 34.9394 192.752 35.0945 192.772H36.4512L41.6972 192.697L60.9779 192.576L89.6199 192.486H115.443C116.212 192.486 116.95 192.486 117.749 192.486C118.568 192.56 119.364 192.801 120.086 193.192C120.824 193.581 121.473 194.118 121.992 194.77C122.511 195.422 122.889 196.174 123.101 196.978C123.226 197.469 123.291 197.974 123.297 198.481V198.871H122.89L60.209 198.751L41.2601 198.631L36.1196 198.556H34.7779L34.2654 198.09Z" fill="#1C2738"/>
<path d="M79.6839 159.031C79.6839 159.166 78.8698 159.316 77.5433 160.007C75.692 160.961 74.1928 162.476 73.262 164.334C72.9605 164.905 72.7948 165.551 72.4933 166.302C72.2181 167.207 71.6023 167.972 70.7747 168.435C70.5022 168.557 70.2068 168.621 69.9079 168.621C69.609 168.621 69.3136 168.557 69.0411 168.435C68.5637 168.187 68.1547 167.826 67.8502 167.384C67.4336 166.68 66.9269 166.034 66.3427 165.461C65.6712 165.047 64.8857 164.854 64.0981 164.911C63.3105 164.968 62.5609 165.27 61.956 165.776C60.5557 167.047 59.5776 168.714 59.1521 170.553C58.8551 171.603 58.4298 172.612 57.8858 173.558C57.2634 174.577 56.3037 175.347 55.1723 175.736C54.567 175.926 53.9218 175.952 53.3031 175.811C52.7622 175.653 52.2523 175.404 51.7956 175.075C51.1475 174.551 50.3906 174.176 49.5796 173.979C48.0402 173.727 46.4624 174.065 45.1627 174.925C43.9608 175.66 42.9733 176.696 42.2985 177.93C41.3131 179.816 40.6266 181.843 40.2634 183.939C40.1831 184.732 39.9797 185.507 39.6604 186.237C39.5146 185.448 39.5146 184.638 39.6604 183.849C39.8043 181.63 40.3668 179.459 41.3186 177.449C42.0383 176.017 43.1187 174.795 44.4542 173.903C46.0212 172.802 47.9559 172.35 49.8509 172.642C50.8574 172.854 51.8045 173.285 52.6247 173.903C52.9072 174.149 53.2476 174.319 53.6141 174.398C53.9805 174.477 54.3611 174.462 54.7201 174.354C55.4865 174.069 56.1378 173.541 56.5743 172.852C57.0442 172.006 57.4136 171.109 57.6747 170.178C58.1946 168.037 59.3694 166.11 61.0364 164.664C61.9056 163.959 62.9813 163.554 64.1015 163.51C65.2218 163.467 66.3258 163.788 67.2472 164.424C67.9206 165.093 68.4988 165.852 68.9657 166.677C69.418 167.323 69.8401 167.534 70.2773 167.368C70.7144 167.203 71.1063 166.587 71.3777 165.956C71.649 165.325 71.9053 164.604 72.2822 163.958C73.3835 161.961 75.1554 160.413 77.287 159.587C78.0132 159.169 78.8473 158.976 79.6839 159.031Z" fill="#127BF2"/>
<path d="M83.544 187.844C83.544 188.279 74.1374 188.625 62.5449 188.625C50.9524 188.625 41.5608 188.279 41.5608 187.844C41.5608 187.408 50.9524 187.062 62.5449 187.062C74.1374 187.062 83.544 187.408 83.544 187.844Z" fill="#127BF2"/>
<path d="M24.3297 85.252H7.1897V114.502H24.3297V85.252Z" fill="white"/>
<path d="M48.737 72.8574H31.5969V114.501H48.737V72.8574Z" fill="white"/>
<path d="M75.9144 61.7266H58.7744V113.871H75.9144V61.7266Z" fill="white"/>
<path d="M246.292 133.357C247.93 135.637 250.348 137.24 253.09 137.864C254.288 137.836 255.465 137.554 256.544 137.035C257.623 136.517 258.578 135.776 259.346 134.86" fill="white"/>
<path d="M259.347 134.874C259.498 134.994 259.091 135.836 257.96 136.797C257.289 137.372 256.524 137.83 255.699 138.149C254.634 138.6 253.455 138.716 252.322 138.48C247.694 137.098 245.87 133.507 246.292 133.357C246.488 133.237 247.061 133.853 248.162 134.634C249.52 135.665 251.051 136.448 252.684 136.947C254.312 137.143 255.958 136.772 257.342 135.896C258.488 135.25 259.181 134.679 259.347 134.874Z" fill="#1C2738"/>
<rect x="215.647" y="14.0293" width="54.0527" height="1.86389" rx="0.931944" fill="#BBBBBB"/>
<rect x="215.647" y="25.2129" width="54.0527" height="1.86389" rx="0.931944" fill="#BBBBBB"/>
<rect x="215.647" y="36.3965" width="36.8541" height="1.86389" rx="0.931944" fill="#BBBBBB"/>
</svg>
