<svg width="248" height="256" viewBox="0 0 248 256" fill="none" xmlns="http://www.w3.org/2000/svg">
<g filter="url(#filter0_d_4298_8363)">
<rect x="8" y="4" width="232" height="240" rx="16" fill="#E1EEFF"/>
</g>
<path d="M26 77H214C218.418 77 222 80.5817 222 85V111C222 115.418 218.418 119 214 119H34C29.5817 119 26 115.418 26 111V77Z" fill="white"/>
<path d="M26 127H214C218.418 127 222 130.582 222 135V161C222 165.418 218.418 169 214 169H34C29.5817 169 26 165.418 26 161V127Z" fill="white"/>
<path d="M26 177H214C218.418 177 222 180.582 222 185V211C222 215.418 218.418 219 214 219H34C29.5817 219 26 215.418 26 211V177Z" fill="white"/>
<path d="M101.84 101.298H100.384V104.84H109.106V103.664H101.84V101.298ZM101.854 95.474H107.482V96.874H101.854V95.474ZM105.382 99.24V98.022H108.91V92.926H107.482V94.354H101.854V92.926H100.426V98.022H103.926V99.24H98.9282V100.402H110.394V99.24H105.382ZM122.251 92.436H120.809V101.62H122.251V92.436ZM113.487 96.44C113.487 95.278 114.313 94.522 115.433 94.522C116.539 94.522 117.379 95.278 117.379 96.44C117.379 97.588 116.539 98.358 115.433 98.358C114.313 98.358 113.487 97.588 113.487 96.44ZM118.779 96.44C118.779 94.592 117.337 93.276 115.433 93.276C113.529 93.276 112.073 94.592 112.073 96.44C112.073 98.274 113.529 99.604 115.433 99.604C117.337 99.604 118.779 98.274 118.779 96.44ZM115.447 103.664V100.696H113.991V104.84H122.615V103.664H115.447ZM135.13 92.436H133.688V101.62H135.13V92.436ZM126.366 96.44C126.366 95.278 127.192 94.522 128.312 94.522C129.418 94.522 130.258 95.278 130.258 96.44C130.258 97.588 129.418 98.358 128.312 98.358C127.192 98.358 126.366 97.588 126.366 96.44ZM131.658 96.44C131.658 94.592 130.216 93.276 128.312 93.276C126.408 93.276 124.952 94.592 124.952 96.44C124.952 98.274 126.408 99.604 128.312 99.604C130.216 99.604 131.658 98.274 131.658 96.44ZM128.326 103.664V100.696H126.87V104.84H135.494V103.664H128.326ZM138.671 97.728C140.883 97.49 142.619 96.58 143.305 95.278C143.977 96.58 145.699 97.49 147.939 97.728L148.443 96.608C146.091 96.37 144.453 95.362 144.271 94.214H147.981V93.052H138.643V94.214H142.325C142.143 95.362 140.505 96.37 138.153 96.608L138.671 97.728ZM143.277 103.944C141.429 103.944 140.393 103.538 140.393 102.768C140.393 101.984 141.429 101.578 143.277 101.578C145.125 101.578 146.175 101.984 146.175 102.768C146.175 103.538 145.125 103.944 143.277 103.944ZM143.277 100.444C140.575 100.444 138.923 101.298 138.923 102.768C138.923 104.238 140.575 105.078 143.277 105.078C145.993 105.078 147.631 104.238 147.631 102.768C147.631 101.298 145.993 100.444 143.277 100.444ZM137.579 98.372V99.534H149.017V98.372H137.579Z" fill="#333333"/>
<path d="M97.8185 145.852H96.2225C96.3205 145.264 96.3625 144.634 96.3625 143.99H91.4765V145.152H94.9345C94.7245 147.742 93.4645 149.8 90.8605 151.382L91.6865 152.404C94.0525 150.99 95.3825 149.156 95.9705 147.028H97.8185V149.03H95.7465V150.206H97.8185V154.462H99.1625V142.744H97.8185V145.852ZM100.366 142.436V155.078H101.752V142.436H100.366ZM105.391 146.202C105.391 145.096 106.217 144.382 107.337 144.382C108.471 144.382 109.297 145.096 109.297 146.202C109.297 147.308 108.471 148.022 107.337 148.022C106.217 148.022 105.391 147.308 105.391 146.202ZM110.711 146.202C110.711 144.41 109.269 143.164 107.337 143.164C105.419 143.164 103.977 144.41 103.977 146.202C103.977 147.994 105.419 149.24 107.337 149.24C109.269 149.24 110.711 147.994 110.711 146.202ZM105.377 151.648H112.251V155.092H113.693V150.486H105.377V151.648ZM115.443 145.432V144.242H113.693V142.436H112.251V149.926H113.693V148.148H115.443V146.958H113.693V145.432H115.443ZM124.425 143.458H122.969V145.544C122.969 147.91 121.737 150.346 119.763 151.312L120.673 152.46C122.115 151.718 123.151 150.248 123.711 148.456C124.257 150.15 125.279 151.536 126.707 152.25L127.561 151.088C125.629 150.192 124.425 147.896 124.425 145.544V143.458ZM128.891 142.408V146.566H126.189V147.742H128.891V155.092H130.347V142.408H128.891ZM141.672 142.422V155.106H143.128V142.422H141.672ZM133.398 143.472V152.096H139.474V143.472H138.032V146.692H134.826V143.472H133.398ZM134.826 147.84H138.032V150.934H134.826V147.84ZM156.567 148.61C154.075 148.162 152.045 146.216 152.045 144.2V143.248H150.519V144.2C150.519 146.202 148.489 148.148 145.997 148.61L146.613 149.8C148.671 149.38 150.449 148.064 151.275 146.328C152.101 148.064 153.879 149.38 155.937 149.8L156.567 148.61ZM145.605 152.264V153.454H157.057V152.264H145.605Z" fill="#333333"/>
<path d="M94.0947 196.63C96.3067 196.392 98.0427 195.482 98.7287 194.18C99.4007 195.482 101.137 196.392 103.363 196.63L103.867 195.496C101.529 195.258 99.9047 194.278 99.7087 193.144H103.405V191.982H94.0667V193.144H97.7347C97.5387 194.278 95.9147 195.258 93.5767 195.496L94.0947 196.63ZM101.599 201.838C101.599 202.566 100.549 202.972 98.7007 202.972C96.8527 202.972 95.8167 202.566 95.8167 201.838C95.8167 201.082 96.8527 200.69 98.7007 200.69C100.549 200.69 101.599 201.082 101.599 201.838ZM104.441 198.422V197.274H93.0027V198.422H98.0007V199.584C95.7047 199.724 94.3467 200.522 94.3467 201.838C94.3467 203.266 95.9847 204.078 98.7007 204.078C101.431 204.078 103.055 203.266 103.055 201.838C103.055 200.522 101.725 199.738 99.4427 199.598V198.422H104.441ZM106.358 193.032V194.208H109.9C109.704 196.756 108.556 198.828 105.826 200.41L106.666 201.432C110.222 199.388 111.328 196.406 111.328 193.032H106.358ZM115.276 191.436V196.378H113.834V191.772H112.476V203.49H113.834V197.554H115.276V204.078H116.648V191.436H115.276ZM123.353 192.458H121.897V194.544C121.897 196.91 120.665 199.346 118.691 200.312L119.601 201.46C121.043 200.718 122.079 199.248 122.639 197.456C123.185 199.15 124.207 200.536 125.635 201.25L126.489 200.088C124.557 199.192 123.353 196.896 123.353 194.544V192.458ZM127.819 191.408V195.566H125.117V196.742H127.819V204.092H129.275V191.408H127.819ZM140.599 191.422V204.106H142.055V191.422H140.599ZM132.325 192.472V201.096H138.401V192.472H136.959V195.692H133.753V192.472H132.325ZM133.753 196.84H136.959V199.934H133.753V196.84ZM155.494 197.61C153.002 197.162 150.972 195.216 150.972 193.2V192.248H149.446V193.2C149.446 195.202 147.416 197.148 144.924 197.61L145.54 198.8C147.598 198.38 149.376 197.064 150.202 195.328C151.028 197.064 152.806 198.38 154.864 198.8L155.494 197.61ZM144.532 201.264V202.454H155.984V201.264H144.532Z" fill="#333333"/>
<g filter="url(#filter1_ii_4298_8363)">
<path d="M78.1684 31C76.0842 31 74 33 74 35V50.5556C74 53 76.0843 55 78.6318 55H89.0534C95.5379 55 99.475 45.6667 91.7167 41.8889C95.5379 37.4445 91.7167 31 86.5059 31H78.1684Z" fill="url(#paint0_radial_4298_8363)"/>
</g>
<g opacity="0.15" filter="url(#filter2_f_4298_8363)">
<path d="M78.6328 38.4457V48.8651C78.6328 49.8041 79.3799 50.333 80.1627 50.333H88.473C91.4089 50.333 91.4089 45.5349 88.473 45.5349H84.2206C84.0249 45.5349 83.8292 45.3471 83.8292 45.1593V38.4457C83.8292 35.6288 78.6328 35.6288 78.6328 38.4457Z" fill="white"/>
</g>
<path d="M79.0957 38.6802V48.1667C79.0957 49.0617 80.0374 49.7776 80.7907 49.7776H88.3243C91.1493 49.7776 91.1493 45.8398 88.3243 45.8398H84.1577C83.7446 45.8398 83.4275 45.5728 83.4275 45.187V38.6802C83.4275 35.9953 79.0957 35.9953 79.0957 38.6802Z" fill="white"/>
<path d="M107.819 39.6103H112.849V32.3308H116.898V53.2854H103.77V32.3308H107.819V39.6103ZM124.455 53.5454H120.406V31.8109H124.455V53.5454ZM112.849 42.7821H107.819V50.1136H112.849V42.7821Z" fill="#127BF2"/>
<path d="M128.541 35.2426V32.0708H141.154V40.3123H132.591V42.1842H141.67V45.3559H128.541V37.1405H137.105V35.2426H128.541ZM133.674 46.6558V50.9196H149.485V54.0653H129.625V46.6558H133.674ZM149.227 31.8109V47.3318H145.178V39.2723L141.928 40.0263V36.7765L145.178 36.0226V31.8109H149.227Z" fill="#127BF2"/>
<path d="M158.24 33.6307V31.2129H162.289V33.6307H167.809V36.8025H162.289V41.5342C162.289 42.8514 162.152 44.056 161.877 45.148L168.479 50.0876L166.493 53.1034L160.458 48.5277C159.805 49.5677 158.945 50.4689 157.879 51.2315C156.813 51.9942 155.514 52.6268 153.984 53.1294L152.204 50.1136C153.236 49.7496 154.13 49.3423 154.887 48.8917C155.643 48.4411 156.271 47.8864 156.77 47.2278C157.268 46.5519 157.638 45.7546 157.879 44.836C158.119 43.9174 158.24 42.8081 158.24 41.5082V36.8025H152.978V33.6307H158.24ZM173.999 53.5454H169.95V31.8109H173.999V53.5454Z" fill="#127BF2"/>
<defs>
<filter id="filter0_d_4298_8363" x="0" y="0" width="248" height="256" filterUnits="userSpaceOnUse" color-interpolation-filters="sRGB">
<feFlood flood-opacity="0" result="BackgroundImageFix"/>
<feColorMatrix in="SourceAlpha" type="matrix" values="0 0 0 0 0 0 0 0 0 0 0 0 0 0 0 0 0 0 127 0" result="hardAlpha"/>
<feOffset dy="4"/>
<feGaussianBlur stdDeviation="4"/>
<feComposite in2="hardAlpha" operator="out"/>
<feColorMatrix type="matrix" values="0 0 0 0 0.07125 0 0 0 0 0.481333 0 0 0 0 0.95 0 0 0 0.1 0"/>
<feBlend mode="normal" in2="BackgroundImageFix" result="effect1_dropShadow_4298_8363"/>
<feBlend mode="normal" in="SourceGraphic" in2="effect1_dropShadow_4298_8363" result="shape"/>
</filter>
<filter id="filter1_ii_4298_8363" x="71.167" y="28.7048" width="27.1282" height="30.8857" filterUnits="userSpaceOnUse" color-interpolation-filters="sRGB">
<feFlood flood-opacity="0" result="BackgroundImageFix"/>
<feBlend mode="normal" in="SourceGraphic" in2="BackgroundImageFix" result="shape"/>
<feColorMatrix in="SourceAlpha" type="matrix" values="0 0 0 0 0 0 0 0 0 0 0 0 0 0 0 0 0 0 127 0" result="hardAlpha"/>
<feOffset dx="-2.83296" dy="4.59045"/>
<feGaussianBlur stdDeviation="3.14774"/>
<feComposite in2="hardAlpha" operator="arithmetic" k2="-1" k3="1"/>
<feColorMatrix type="matrix" values="0 0 0 0 1 0 0 0 0 1 0 0 0 0 1 0 0 0 0.35 0"/>
<feBlend mode="normal" in2="shape" result="effect1_innerShadow_4298_8363"/>
<feColorMatrix in="SourceAlpha" type="matrix" values="0 0 0 0 0 0 0 0 0 0 0 0 0 0 0 0 0 0 127 0" result="hardAlpha"/>
<feOffset dx="2.29522" dy="-2.29522"/>
<feGaussianBlur stdDeviation="2.3608"/>
<feComposite in2="hardAlpha" operator="arithmetic" k2="-1" k3="1"/>
<feColorMatrix type="matrix" values="0 0 0 0 0 0 0 0 0 0.225 0 0 0 0 0.5625 0 0 0 0.2 0"/>
<feBlend mode="normal" in2="effect1_innerShadow_4298_8363" result="effect2_innerShadow_4298_8363"/>
</filter>
<filter id="filter2_f_4298_8363" x="70.5995" y="28.2997" width="28.1095" height="30.0666" filterUnits="userSpaceOnUse" color-interpolation-filters="sRGB">
<feFlood flood-opacity="0" result="BackgroundImageFix"/>
<feBlend mode="normal" in="SourceGraphic" in2="BackgroundImageFix" result="shape"/>
<feGaussianBlur stdDeviation="4.01664" result="effect1_foregroundBlur_4298_8363"/>
</filter>
<radialGradient id="paint0_radial_4298_8363" cx="0" cy="0" r="1" gradientUnits="userSpaceOnUse" gradientTransform="translate(83.7263 44.7778) rotate(83.8855) scale(12.9801 11.8893)">
<stop stop-color="#0B78F3"/>
<stop offset="1" stop-color="#0F7DFF"/>
</radialGradient>
</defs>
</svg>
