<svg width="141" height="141" viewBox="0 0 141 141" fill="none" xmlns="http://www.w3.org/2000/svg">
<rect x="2.5" y="2.5" width="136" height="136" fill="white" stroke="#127BF2" stroke-width="5"/>
<path d="M76.965 67.9979C78.3666 67.9241 79.6206 67.9979 80.8009 67.9241C80.8009 69.2519 80.8009 70.5798 80.8009 71.9076C82.2762 71.9076 83.4565 71.9076 84.563 71.9076C84.563 73.2354 84.4893 74.5632 84.4893 75.891L84.563 75.8173C83.309 75.8173 82.0549 75.8173 80.8747 75.8173C80.8747 77.3664 80.8747 78.4729 80.8747 79.8007C82.2025 79.8007 83.3828 79.8007 84.563 79.8007L84.4893 79.7269C84.4893 80.981 84.4893 82.3088 84.4893 83.5629C83.0877 83.7104 81.9074 83.7104 80.7271 83.7842C80.7271 85.0382 80.7271 86.1447 80.7271 87.5463C84.6368 87.5463 88.4727 87.5463 92.3086 87.5463L92.2349 87.4725C92.2349 88.8004 92.2349 90.1282 92.2349 91.456L92.3086 91.3822C91.0546 91.3822 89.8005 91.3822 88.3252 91.3822C88.3252 92.9313 88.3252 94.1116 88.3252 95.3657L88.399 95.2919C85.9646 95.2919 83.4565 95.2919 80.8009 95.2919C80.8009 96.6197 80.8009 97.7262 80.8009 99.0541C81.9074 99.1278 83.0877 99.0541 84.3417 99.1278C84.3417 100.308 84.3417 101.783 84.3417 103.111C83.309 103.185 82.1287 103.111 80.8009 103.185C80.7271 104.292 80.8009 105.398 80.6534 106.873C79.3993 106.873 77.9977 106.873 76.7437 106.873L76.8174 106.947C76.8174 103.111 76.8174 99.2754 76.8174 95.3657C75.2683 95.3657 74.088 95.3657 72.834 95.3657C72.834 94.1116 72.9078 92.7838 72.9078 91.5298C74.1618 91.456 75.3421 91.3822 76.5224 91.3822C76.5224 89.9806 76.5224 88.8741 76.5224 87.7676C75.2683 87.7676 74.1618 87.7676 73.0553 87.7676C73.0553 89.1692 73.0553 90.4232 73.0553 91.6035C71.7275 91.6035 70.3259 91.5298 68.9981 91.5298C68.9981 90.2757 68.9981 89.0217 68.9981 87.7676C67.5227 87.6201 66.4162 87.6938 65.3097 87.6201C65.3097 86.2923 65.3097 85.0382 65.3097 83.8579C66.5637 83.7842 67.6703 83.7842 68.8505 83.7104C68.9981 82.3826 68.8505 81.2023 68.9243 79.8007C71.5062 79.8007 74.2356 79.8007 76.5961 79.8007C76.5961 78.3991 76.5961 77.3664 76.5961 76.1861C75.3421 76.1123 73.9405 76.1861 72.7602 76.1123C72.6865 74.7845 72.7602 73.4567 72.6865 72.2764C71.4324 72.2026 70.3259 72.2027 68.9981 72.1289C68.9981 69.547 68.9981 67.1127 68.9981 64.6784C66.2687 64.6784 63.8343 64.6784 61.3262 64.6784C61.3262 66.0062 61.3262 67.2602 61.3262 68.4405C59.9984 68.4405 58.6706 68.3667 57.3428 68.3667L57.4166 68.4405C57.4166 67.1865 57.4166 65.9324 57.4166 64.4571C55.8674 64.4571 54.6872 64.4571 53.4331 64.4571L53.5069 64.5308C53.5069 63.3505 53.5069 62.1703 53.5069 60.6949C58.5968 60.6949 63.613 60.6949 68.9981 60.6949C68.9981 59.2196 68.9981 57.9655 68.9981 56.7115L68.9243 56.7852C70.1784 56.7852 71.4324 56.7852 72.6127 56.7852C72.6127 55.2361 72.6127 54.1296 72.6127 52.8018C71.2849 52.8018 70.1046 52.8018 68.9243 52.8018L68.9981 52.8755C68.9981 51.5477 68.9981 50.2199 68.9981 48.8921L68.9243 48.9659C70.1784 48.9659 71.4324 48.9659 72.6127 48.9659C72.6127 47.4167 72.6127 46.3102 72.6127 44.9824C71.2849 44.9824 70.1046 44.9824 68.9243 44.9824L68.9981 45.0562C68.9981 41.2203 68.9981 37.163 68.9981 33.3271C70.3997 33.1796 71.5799 33.3271 72.7602 33.2534C72.7602 31.8518 72.7602 30.6715 72.7602 29.4912C74.088 29.4912 75.4159 29.565 76.7437 29.565L76.6699 29.4912C76.6699 30.7453 76.6699 31.9993 76.6699 33.1796C78.219 33.1796 79.3255 33.1796 80.6534 33.1796C80.6534 31.8518 80.6534 30.6715 80.6534 29.4912L80.5796 29.565C81.9074 29.565 83.2352 29.565 84.563 29.565L84.4893 29.4912C84.4893 32.0731 84.4893 34.7287 84.4893 37.3106L84.563 37.2368C83.309 37.2368 82.0549 37.2368 80.5796 37.2368C80.5796 38.7859 80.5796 39.8924 80.5796 41.0727C79.3255 41.0727 77.9977 41.1465 76.7437 41.1465C76.7437 39.8924 76.7437 38.6384 76.7437 37.3843C75.3421 37.3843 74.1618 37.3843 73.1291 37.3843C73.1291 38.7122 73.1291 39.8187 73.1291 41.0727C74.5306 41.0727 75.7109 41.0727 76.8912 41.0727C76.8912 42.3268 76.8912 43.5071 76.8912 44.8349C78.2928 44.8349 79.3993 44.8349 80.7271 44.8349C80.6534 43.4333 80.5796 42.1792 80.5796 40.999C81.9074 41.0727 83.309 41.1465 84.6368 41.1465L84.563 41.0727C84.563 42.253 84.563 43.4333 84.563 44.8349C85.8909 44.9824 87.1449 44.8349 88.4727 44.9824C88.5465 46.1627 88.5465 47.4905 88.6203 48.7446C89.8005 48.7446 91.1284 48.7446 92.4562 48.7446C92.5299 47.638 92.4562 46.5315 92.5299 45.2037C93.6365 45.2037 94.8167 45.2037 96.1446 45.2037C96.2183 46.3102 96.2183 47.4905 96.2921 48.7446C97.4724 48.7446 98.9477 48.7446 100.202 48.7446C100.276 47.7118 100.128 46.5315 100.276 45.2037C101.382 45.2037 102.562 45.2037 103.964 45.2037C103.964 47.7118 103.964 50.2199 103.964 52.8018L104.038 52.728C102.784 52.728 101.53 52.728 100.054 52.728C100.054 54.2771 100.054 55.4574 100.054 56.7115L100.128 56.6377C98.874 56.6377 97.6199 56.6377 96.3659 56.6377C96.2183 58.1868 96.1446 59.2933 95.997 60.3998C93.4152 60.3998 91.0546 60.3998 88.6203 60.3998C88.6203 59.1458 88.6203 57.9655 88.6203 56.7852C89.9481 56.6377 91.0546 56.5639 92.2349 56.4902C92.2349 55.2361 92.2349 54.1296 92.2349 52.9493C87.1449 52.9493 82.1287 52.9493 77.0387 52.9493C77.0387 54.2034 77.0387 55.3099 77.0387 56.7852C79.6206 56.7852 82.0549 56.7852 84.6368 56.7852C84.6368 60.8424 84.6368 64.6046 84.6368 68.3667C83.3828 68.3667 82.0549 68.293 80.8009 68.293C80.8009 65.7849 80.8009 63.203 80.8009 60.7687C77.924 60.7687 75.5634 60.7687 73.2028 60.7687C73.2028 62.0227 73.2028 63.203 73.2028 64.3833C74.5306 64.4571 75.9322 64.4571 77.0387 64.5308" fill="black"/>
<path d="M107.947 118.603C107.947 116.095 107.947 113.513 107.947 110.71C102.489 110.71 97.5461 110.71 92.3824 110.71C92.3086 109.382 92.3824 108.054 92.3086 106.8C91.1284 106.726 89.8743 106.8 88.399 106.726C88.399 102.89 88.399 99.0542 88.399 95.2183L88.3252 95.2921C89.5792 95.2921 90.8333 95.2921 92.3086 95.2921C92.3086 93.743 92.3086 92.5627 92.3086 91.3086L92.2349 91.3824C94.8167 91.3824 97.3248 91.3824 100.054 91.3824C100.054 89.8333 100.054 88.653 100.054 87.3989L99.9805 87.4727C101.235 87.4727 102.489 87.4727 103.964 87.4727C103.964 85.9236 103.964 84.7433 103.964 83.4893L103.89 83.563C105.07 83.563 106.251 83.563 107.726 83.563C107.726 86.0711 107.726 88.5055 107.726 91.3086C109.201 91.3086 110.455 91.3086 111.71 91.3086L111.636 91.2349C111.636 96.2511 111.636 101.341 111.636 106.579C112.964 106.726 114.07 106.579 115.472 106.726C115.472 107.98 115.472 109.455 115.472 110.71L115.545 110.636C114.365 110.636 113.185 110.636 111.783 110.636C111.783 113.218 111.783 115.799 111.783 118.455C110.308 118.529 109.128 118.381 107.874 118.455C107.8 118.529 107.947 118.603 107.947 118.603ZM96.2183 106.652C100.202 106.652 103.89 106.652 107.579 106.652C107.579 102.816 107.579 99.128 107.579 95.4396C103.743 95.4396 100.054 95.4396 96.2183 95.4396C96.2183 99.2018 96.2183 102.816 96.2183 106.652Z" fill="black"/>
<path d="M15 40.7776C15 31.8518 15 22.9996 15 14C23.9259 14 32.778 14 41.7776 14C41.7776 22.9259 41.7776 31.778 41.7776 40.7776C32.9993 40.7776 24.1472 40.7776 15 40.7776ZM37.9417 17.9097C31.4502 17.9097 25.1799 17.9097 18.9835 17.9097C18.9835 24.4012 18.9835 30.7452 18.9835 36.9417C25.4012 36.9417 31.5977 36.9417 37.9417 36.9417C37.9417 30.5977 37.9417 24.4012 37.9417 17.9097Z" fill="black"/>
<path d="M15 99.2014C23.9996 99.2014 32.778 99.2014 41.7776 99.2014C41.7776 108.127 41.7776 116.906 41.7776 125.979C32.9255 125.979 24.0734 125.979 15 125.979C15 117.201 15 108.349 15 99.2014ZM18.8359 122.143C25.3275 122.143 31.6715 122.143 37.868 122.143C37.868 115.652 37.868 109.381 37.868 103.111C31.4502 103.111 25.1799 103.111 18.8359 103.111C18.8359 109.529 18.8359 115.725 18.8359 122.143Z" fill="black"/>
<path d="M100.202 14C109.201 14 117.98 14 126.979 14C126.979 22.9996 126.979 31.8518 126.979 40.8514C118.053 40.8514 109.275 40.8514 100.202 40.8514C100.202 31.9993 100.202 23.1472 100.202 14ZM104.038 17.8359C104.038 24.4012 104.038 30.6715 104.038 36.9417C110.529 36.9417 116.799 36.9417 122.996 36.9417C122.996 30.4502 122.996 24.1799 122.996 17.8359C116.652 17.8359 110.455 17.8359 104.038 17.8359Z" fill="black"/>
<path d="M22.5982 64.3095C22.5982 63.1292 22.5982 61.9489 22.5982 60.5473C21.3441 60.4736 20.1638 60.5473 18.7622 60.4736C18.7622 59.2195 18.7622 57.7442 18.7622 56.4901L18.6885 56.5639C22.4506 56.5639 26.2128 56.5639 30.1225 56.5639C30.1225 55.2361 30.1225 54.0558 30.1225 52.6542C27.6144 52.6542 25.18 52.6542 22.6719 52.6542C22.5982 51.3264 22.5982 50.2199 22.5244 48.9658C21.3441 48.8921 20.1638 49.0396 18.9098 48.9658C18.9098 47.7856 18.9098 46.3102 18.9098 45.0562C21.4179 45.0562 23.9997 45.0562 26.5816 45.0562C26.6554 46.2364 26.5078 47.3429 26.6554 48.6708C27.8357 48.6708 29.0159 48.6708 30.27 48.6708C30.3438 47.4905 30.3438 46.4577 30.4175 45.1299C31.5978 45.1299 32.7043 45.1299 34.1797 45.1299C34.1797 47.4905 34.1797 49.9248 34.1797 52.5804C36.8353 52.5804 39.1959 52.5804 41.7777 52.5804C41.7777 53.9083 41.7777 55.0148 41.7777 56.4901C39.4172 56.4901 36.9828 56.4901 34.401 56.4901C34.401 57.8179 34.401 58.9245 34.401 60.326C36.7615 60.326 39.1959 60.326 41.9253 60.326C41.9253 61.8752 41.9253 63.1292 41.9253 64.3833L41.999 64.3095C39.4909 64.3095 36.9091 64.3095 34.401 64.3095C34.401 65.7848 34.401 66.9651 34.401 68.2929C37.0566 68.2929 39.4909 68.2929 41.999 68.2929L41.9253 68.2192C41.9253 69.4732 41.9253 70.7273 41.9253 71.9813C40.5237 72.1289 39.3434 72.2026 38.0894 72.2764C38.0894 73.678 38.0894 74.8583 38.0894 76.0385L38.1631 75.9648C36.9828 75.9648 35.655 75.9648 34.2534 75.9648C34.1797 74.7107 34.2534 73.6042 34.1059 72.0551C32.8519 72.0551 31.5978 72.0551 30.3438 72.0551L30.4175 72.1289C30.4175 69.6208 30.4175 67.0389 30.4175 64.3095C27.5406 64.3095 25.0325 64.3095 22.5982 64.3095V64.3095Z" fill="black"/>
<path d="M76.8173 122.291C73.0551 122.291 69.293 122.291 65.3833 122.291C65.2358 123.619 65.162 124.725 65.0145 126.053C63.8342 126.053 62.7277 126.053 61.3999 126.053C61.3261 124.946 61.2523 123.84 61.1785 122.512C56.1624 122.512 51.2199 122.512 45.9824 122.512C45.9824 119.856 45.9824 117.422 45.9824 114.693C47.1627 114.693 48.4168 114.693 49.6708 114.693L49.597 114.619C49.597 115.873 49.597 117.127 49.597 118.381C54.9821 118.381 59.9983 118.381 65.0882 118.381C65.0882 117.053 65.0882 115.873 65.0882 114.619C66.3423 114.619 67.5963 114.619 68.8504 114.619C68.8504 113.217 68.8504 112.037 68.8504 111.004C67.5226 111.004 66.4161 111.004 65.162 111.004C65.162 112.406 65.162 113.586 65.162 114.766C62.5801 114.766 60.072 114.766 57.4164 114.766C57.4164 113.217 57.4164 111.963 57.4164 110.783L57.3426 110.857C58.5967 110.857 59.8507 110.857 61.3261 110.857C61.3261 109.308 61.3261 108.127 61.3261 106.873L61.2523 106.947C66.4161 106.947 71.6536 106.947 76.8173 106.947L76.7435 106.873C76.7435 109.381 76.7435 112.037 76.7435 114.693C75.4157 114.766 74.383 114.693 73.1289 114.693C73.1289 115.873 73.1289 116.979 73.1289 118.307C74.2354 118.381 75.3419 118.381 76.7435 118.529C76.7435 119.783 76.7435 121.184 76.7435 122.438L76.8173 122.291Z" fill="black"/>
<path d="M119.307 87.3249C119.307 82.1612 119.307 77.2188 119.307 72.1288C118.053 72.055 116.947 71.9813 115.693 71.9813C115.693 70.801 115.693 69.6945 115.693 68.3666C116.799 68.2929 117.906 68.1453 119.234 68.0716C119.307 66.9651 119.381 65.8585 119.455 64.6045C121.889 64.6045 124.25 64.6045 126.906 64.6045C126.906 72.1288 126.906 79.6531 126.906 87.3987C124.545 87.3249 122.111 87.3249 119.307 87.3249Z" fill="black"/>
<path d="M111.709 56.5641C111.709 55.3838 111.709 54.2035 111.709 52.7282C115.545 52.7282 119.234 52.7282 123.143 52.7282C123.143 51.4004 123.143 50.2939 123.143 48.966C118.201 48.966 113.185 48.966 108.021 48.966C108.021 47.5645 108.021 46.3842 108.021 45.1301C114.291 45.1301 120.635 45.1301 127.053 45.1301C127.053 48.8923 127.053 52.802 127.053 56.6379C125.947 56.6379 124.545 56.5641 123.291 56.6379C123.217 57.8182 123.291 58.9984 123.217 60.3263C122.037 60.3263 121.004 60.3263 119.676 60.3263C119.603 59.2197 119.676 58.1132 119.529 56.5641C117.021 56.5641 114.291 56.5641 111.709 56.5641V56.5641Z" fill="black"/>
<path d="M41.8511 91.3086C41.8511 92.4889 41.8511 93.6691 41.8511 95.0707C38.0889 95.0707 34.3268 95.0707 30.4171 95.0707C30.3433 93.9642 30.1958 92.7839 30.122 91.3086C26.2861 91.3086 22.4502 91.3086 18.6143 91.3086L18.688 91.3823C18.688 90.0545 18.688 88.7267 18.688 87.4727V87.5464C19.8683 87.5464 21.0486 87.5464 22.3764 87.5464C22.4502 86.2186 22.3026 85.1121 22.3764 83.6368C24.9583 83.6368 27.7614 83.6368 30.3433 83.6368L30.2695 83.563C30.2695 84.817 30.2695 86.0711 30.2695 87.5464C33.1465 87.5464 35.5808 87.5464 38.0889 87.5464L38.0151 87.4727C38.0151 88.7267 38.0151 89.9808 38.0151 91.4561C39.5643 91.4561 40.7445 91.4561 41.9986 91.4561L41.8511 91.3086Z" fill="black"/>
<path d="M92.2349 75.8174C92.2349 76.9977 92.2349 78.178 92.2349 79.5796C94.8905 79.5796 97.3249 79.5796 99.9067 79.5796C99.9805 78.3993 100.054 77.219 100.128 75.8174C101.456 75.8174 102.636 75.8174 103.816 75.8174L103.743 75.7437C103.816 78.3993 103.816 81.0549 103.89 83.6368L103.964 83.563C102.71 83.563 101.456 83.563 99.9805 83.563C99.9805 85.1121 99.9805 86.2924 99.9805 87.5465L100.054 87.4727C97.4724 87.4727 94.8168 87.4727 92.2349 87.4727L92.3087 87.5465C92.3087 86.2924 92.3087 85.0384 92.3087 83.7843C90.8333 83.6368 89.5055 83.7106 88.3252 83.563C88.2514 82.2352 88.3252 80.9812 88.1777 79.7271C86.7761 79.7271 85.5958 79.7271 84.4155 79.7271L84.4893 79.8009C84.4893 78.4731 84.4893 77.1452 84.4893 75.8174L84.4155 75.8912C86.9974 75.8912 89.653 75.8912 92.2349 75.8912V75.8174Z" fill="black"/>
<path d="M103.816 56.4903C103.816 58.9246 103.816 61.4327 103.816 64.0883C105.144 64.2359 106.251 64.3096 107.579 64.3834C107.579 65.5637 107.579 66.6702 107.579 68.0718C105.144 68.0718 102.71 68.0718 100.128 68.0718C100.054 69.3996 99.9805 70.5061 99.9067 71.7602C98.8002 71.8339 97.3986 71.8339 95.9971 71.9815C95.9233 73.088 96.0708 74.342 95.9233 75.7436C94.6692 75.7436 93.4152 75.7436 92.1611 75.7436L92.2349 75.8174C92.2349 71.9815 92.2349 68.1456 92.2349 64.0883C94.9643 64.0883 97.3986 64.0883 99.9805 64.0883C99.9805 61.3589 99.9805 58.8508 99.9805 56.4165L99.9067 56.4903C101.235 56.4903 102.562 56.4903 103.89 56.4903H103.816Z" fill="black"/>
<path d="M41.8516 64.3096C45.7612 64.3096 49.6709 64.3096 53.5806 64.3096L53.5068 64.2359C53.5068 65.4899 53.5068 66.744 53.5068 68.2193C55.056 68.2193 56.2362 68.2193 57.4903 68.2193L57.4165 68.1456C57.4165 70.7274 57.4165 73.2355 57.4165 75.8912C58.9656 75.8912 60.1459 75.8912 61.4 75.8912C61.4 78.473 61.4 80.9811 61.4 83.6368C59.8509 83.6368 58.6706 83.6368 57.4165 83.6368L57.4903 83.7105C57.4903 82.4565 57.4903 81.2024 57.4903 79.7271C55.9412 79.7271 54.7609 79.7271 53.5068 79.7271L53.5806 79.8008C53.5806 77.219 53.5806 74.7109 53.5806 72.0552C52.0315 72.0552 50.8512 72.0552 49.5972 72.0552C49.5972 70.8012 49.5972 69.5471 49.5972 68.0718C46.794 68.0718 44.3597 68.0718 41.8516 68.0718L41.9253 68.1456C41.9253 66.8177 41.9253 65.4899 41.9253 64.1621L41.8516 64.3096Z" fill="black"/>
<path d="M49.7446 102.964C48.5644 102.964 47.3841 102.964 45.9087 102.964C45.9087 99.0539 45.9087 95.218 45.9087 91.3821L45.835 91.4559C47.089 91.4559 48.3431 91.4559 49.6709 91.4559C49.6709 87.3249 49.6709 83.5627 49.6709 79.7268C50.9987 79.7268 52.3265 79.8006 53.6543 79.8006L53.5806 79.7268C53.5806 80.9809 53.5806 82.2349 53.5806 83.7103C55.1297 83.7103 56.31 83.7103 57.564 83.7103L57.4902 83.6365C57.4902 84.9643 57.564 86.2921 57.564 87.6199C56.31 87.6199 55.0559 87.6199 53.5806 87.6199C53.5806 90.3493 53.5806 92.7837 53.5806 95.218C52.179 95.3655 51.0725 95.4393 49.7446 95.5868C49.7446 98.2425 49.7446 100.751 49.7446 103.185V102.964Z" fill="black"/>
<path d="M53.6543 33.106C51.1462 33.106 48.7118 33.106 45.9824 33.106C45.9824 26.9095 45.9824 20.5655 45.9824 14.074C47.0152 14.074 48.343 14.074 49.6708 14.074C49.7446 15.1805 49.6708 16.287 49.8183 17.6148C50.9249 17.6886 52.0314 17.6148 53.2854 17.6886C53.2854 18.7951 53.2854 20.2705 53.2854 21.5983C52.2527 21.672 51.0724 21.5983 49.8183 21.7458C49.8183 24.2539 49.8183 26.6882 49.8183 29.2701C50.9986 29.3439 52.1789 29.4176 53.5805 29.4914C53.5805 30.8192 53.5805 31.9995 53.5805 33.1798C53.5805 33.1798 53.6543 33.106 53.6543 33.106Z" fill="black"/>
<path d="M49.7446 114.619C49.7446 113.439 49.7446 112.259 49.7446 110.857C48.4905 110.783 47.3102 110.857 45.9824 110.783C45.9824 109.603 45.9824 108.054 45.9824 106.8C47.0889 106.726 48.1954 106.8 49.7446 106.652C49.7446 105.398 49.7446 104.144 49.7446 102.89L49.6708 102.964C53.5805 102.964 57.4902 102.89 61.3999 102.89C61.3999 104.218 61.3261 105.546 61.3261 106.874L61.3999 106.8C60.1458 106.8 58.8918 106.8 57.4164 106.8C57.4164 108.349 57.4164 109.529 57.4164 110.783L57.4902 110.71C56.2361 110.71 54.9821 110.71 53.728 110.71C53.5805 112.185 53.5067 113.365 53.433 114.545C52.0314 114.545 50.8511 114.545 49.6708 114.545L49.7446 114.619Z" fill="black"/>
<path d="M69.0719 17.8361C69.0719 16.6558 69.0719 15.4756 69.0719 14.074C71.58 14.074 74.0143 14.074 76.7437 14.074C76.7437 17.9099 76.7437 21.7458 76.7437 25.5817L76.8175 25.508C75.4896 25.508 74.1618 25.5817 72.834 25.5817C72.834 22.9999 72.834 20.4918 72.834 17.7624C71.3586 17.7624 70.1784 17.7624 68.9243 17.7624L69.0719 17.8361Z" fill="black"/>
<path d="M88.3252 29.4172C89.5055 29.4172 90.9071 29.4172 92.2349 29.4172C92.3086 30.6713 92.2349 31.7778 92.3824 33.1056C93.5627 33.1794 94.743 33.1056 95.997 33.2532C95.997 35.7612 95.997 38.3431 95.997 40.925C94.8167 40.925 93.5627 40.925 92.2349 40.925C92.1611 39.7447 92.1611 38.712 92.0873 37.1628C90.8333 37.1628 89.5792 37.1628 88.3252 37.1628L88.399 37.2366C88.399 34.6547 88.399 31.9991 88.399 29.4172H88.3252Z" fill="black"/>
<path d="M76.7437 122.365C77.9239 122.365 79.1042 122.365 80.5796 122.365C80.5796 119.783 80.5796 117.348 80.5796 114.767C81.9812 114.767 83.1614 114.767 84.4155 114.767C84.4155 118.529 84.4155 122.143 84.4155 126.053C81.9811 126.053 79.5468 126.053 76.8174 126.053C76.8174 124.873 76.8174 123.619 76.8174 122.365C76.8174 122.291 76.7437 122.365 76.7437 122.365Z" fill="black"/>
<path d="M123.217 95.292C124.397 95.292 125.578 95.292 126.979 95.292C126.979 97.8001 126.979 100.234 126.979 102.816C123.217 102.816 119.529 102.816 115.693 102.816C115.693 101.636 115.693 100.603 115.693 99.2017C118.053 99.2017 120.488 99.2017 123.365 99.2017C123.365 97.6526 123.365 96.3985 123.365 95.2183L123.217 95.292Z" fill="black"/>
<path d="M88.5464 25.6555C88.5464 21.8196 88.5464 17.9837 88.5464 14.074C89.7267 14.074 90.9808 14.074 92.3086 14.074C92.3086 15.1067 92.3086 16.287 92.3823 17.6148C93.4889 17.6886 94.5954 17.8361 95.9232 17.9099C95.9232 19.0902 95.9232 20.1967 95.9232 21.5245C94.7429 21.5983 93.6364 21.672 92.3086 21.7458C92.2348 22.9999 92.3086 24.1801 92.3086 25.508C91.0545 25.5817 89.6529 25.508 88.4727 25.5817C88.4727 25.5817 88.5464 25.6555 88.5464 25.6555Z" fill="black"/>
<path d="M53.5806 44.9088C53.5806 40.9991 53.6544 37.0156 53.6544 33.106L53.5806 33.1797C54.8347 33.1797 56.1625 33.2535 57.4166 33.2535L57.3428 33.1797C57.3428 35.7616 57.3428 38.2697 57.3428 40.9991C58.8919 40.9991 60.0722 40.9991 61.2525 40.9991L61.1787 40.9253C61.1787 42.2531 61.1787 43.581 61.1787 44.835L61.2525 44.7612C58.6706 44.7612 56.015 44.7612 53.4331 44.7612L53.5806 44.9088Z" fill="black"/>
<path d="M99.9805 122.291C99.9805 123.471 99.9805 124.652 99.9805 125.979C97.4724 125.979 95.038 125.979 92.3086 125.979C92.3086 123.471 92.3086 120.889 92.3086 118.381L92.2349 118.455C93.4151 118.455 94.743 118.455 96.1445 118.455C96.2183 119.635 96.1445 120.816 96.2921 122.365C97.5461 122.365 98.8002 122.365 100.054 122.365L99.9805 122.291Z" fill="black"/>
<path d="M123.217 118.455C123.217 119.635 123.217 120.816 123.217 122.143C124.545 122.291 125.725 122.365 126.979 122.439C126.979 123.619 126.979 124.799 126.979 126.053C124.545 126.053 122.184 126.053 119.603 126.053C119.603 123.619 119.603 121.184 119.603 118.455C120.783 118.455 122.037 118.455 123.291 118.455H123.217Z" fill="black"/>
<path d="M57.4903 33.3269C57.4903 29.5648 57.4903 25.8026 57.4903 21.7454C58.8919 21.7454 60.1459 21.7454 61.3262 21.7454L61.2524 21.6716C61.2524 25.5075 61.2524 29.3435 61.2524 33.2531C59.7771 33.2531 58.5968 33.2531 57.4165 33.2531L57.4903 33.3269Z" fill="black"/>
<path d="M61.2519 48.7444C61.2519 49.9247 61.2519 51.105 61.2519 52.5065C60.0717 52.5803 58.7438 52.5065 57.416 52.6541C57.3423 53.8344 57.416 55.0884 57.2685 56.4162C56.0882 56.4162 54.9817 56.4162 53.5801 56.4162C53.5801 53.8344 53.5801 51.3263 53.5801 48.8182L53.5063 48.8919C56.0882 48.8919 58.7438 48.8919 61.3257 48.8919L61.2519 48.7444Z" fill="black"/>
<path d="M61.252 17.836C63.8338 17.836 66.4895 17.836 69.0713 17.836L68.9975 17.7622C68.9975 20.3441 69.0713 22.9997 69.0713 25.5816C67.8173 25.5816 66.5632 25.5816 65.3092 25.5816C65.1616 24.0325 65.3092 22.926 65.1616 21.5982C63.7601 21.5982 62.4322 21.5982 61.252 21.5982L61.3257 21.6719C61.3257 20.3441 61.3257 19.0163 61.3257 17.6885L61.252 17.836Z" fill="black"/>
<path d="M45.835 91.3086C44.5072 91.3086 43.1794 91.3086 41.8516 91.3086L41.9253 91.3824C41.9253 90.1284 41.9253 88.8743 41.9253 87.3989C40.3762 87.3989 39.1959 87.3989 37.9419 87.3989L38.0157 87.4727C38.0157 86.1449 38.0157 84.8171 38.0157 83.4893L37.9419 83.563C40.45 83.563 43.0319 83.563 45.6875 83.563C45.6875 86.3662 45.6875 88.8005 45.6875 91.3086H45.835Z" fill="black"/>
<path d="M84.3416 21.5245C83.1613 21.5245 82.1286 21.5245 80.8008 21.5245C80.8008 19.1639 80.8008 16.7296 80.8008 14.074C81.9073 14.074 83.0138 14.074 84.3416 14.074C84.3416 16.5083 84.3416 18.9426 84.3416 21.5245Z" fill="black"/>
<path d="M100.054 122.364C100.054 121.184 100.054 120.004 100.054 118.602C102.71 118.602 105.292 118.602 107.947 118.602L107.874 118.529C107.874 119.783 107.8 121.11 107.726 122.364L107.8 122.291C105.218 122.291 102.562 122.291 99.9805 122.291L100.054 122.364Z" fill="black"/>
<path d="M49.6709 44.8348C48.3431 44.8348 47.0153 44.8348 45.7612 44.8348L45.835 44.9086C45.835 42.4743 45.835 39.9662 45.835 37.3105C47.089 37.3105 48.1956 37.3105 49.5971 37.3105C49.5971 39.8186 49.5971 42.3267 49.5971 44.9086L49.6709 44.8348Z" fill="black"/>
<path d="M45.7611 44.8347C45.7611 46.015 45.7611 47.1953 45.7611 48.5969C43.253 48.5969 40.8187 48.5969 38.2368 48.5969C38.2368 47.4904 38.2368 46.3838 38.2368 44.9085C40.7449 44.9085 43.3268 44.9085 45.8349 44.9085C45.8349 44.9085 45.7611 44.8347 45.7611 44.8347Z" fill="black"/>
<path d="M69.0713 48.7444C66.4895 48.7444 63.8338 48.7444 61.252 48.7444L61.3257 48.8182C61.3257 47.4903 61.3257 46.1625 61.3257 44.8347L61.252 44.9085C63.8338 44.9085 66.4895 44.9085 69.0713 44.9085L68.9975 44.8347C68.9975 46.1625 68.9975 47.4903 68.9975 48.8182L69.0713 48.7444Z" fill="black"/>
<path d="M111.635 75.8173C108.98 75.8173 106.324 75.7435 103.742 75.7435L103.816 75.8173C103.816 74.637 103.816 73.4567 103.816 72.1289C106.472 72.1289 108.906 72.1289 111.562 72.1289C111.562 73.383 111.562 74.637 111.562 75.8911L111.635 75.8173Z" fill="black"/>
<path d="M26.3603 75.8174C26.3603 76.9977 26.3603 78.178 26.3603 79.5058C23.8522 79.5058 21.4179 79.5058 18.6885 79.5058C18.6885 78.2518 18.6885 76.9977 18.6885 75.7437V75.8912C21.2703 75.8912 23.926 75.8912 26.5078 75.8912L26.3603 75.8174Z" fill="black"/>
<path d="M111.562 75.8911C112.742 75.8911 113.923 75.8911 115.324 75.8911C115.324 78.3992 115.324 80.8336 115.324 83.4154C114.218 83.4154 113.111 83.4154 111.636 83.4154C111.636 80.9073 111.636 78.3255 111.636 75.8174C111.636 75.8174 111.562 75.8911 111.562 75.8911Z" fill="black"/>
<path d="M30.3438 83.6368C30.3438 82.4565 30.3438 81.2762 30.3438 79.7271C32.9994 79.7271 35.5075 79.7271 38.0894 79.7271L38.0156 79.6533C38.0156 80.9811 38.0156 82.309 38.0156 83.6368L38.0894 83.563C35.5075 83.563 32.8519 83.563 30.27 83.563L30.3438 83.6368Z" fill="black"/>
<path d="M61.3261 17.7624C60.1458 17.7624 58.9656 17.7624 57.564 17.7624C57.564 16.5083 57.564 15.4018 57.564 14.074C58.6705 14.074 59.777 14.074 61.1786 14.074C61.1786 15.328 61.1786 16.5821 61.1786 17.8361C61.2523 17.8361 61.3261 17.7624 61.3261 17.7624Z" fill="black"/>
<path d="M22.598 68.0715C21.4178 68.0715 20.2375 68.0715 18.9097 68.0715C18.9097 66.8175 18.9097 65.7109 18.9097 64.3094C20.1637 64.3094 21.4178 64.3094 22.6718 64.3094L22.598 64.2356C22.598 65.5634 22.598 66.8912 22.598 68.219V68.0715Z" fill="black"/>
<path d="M18.7621 87.4726C17.5819 87.4726 16.4016 87.4726 15 87.4726C15 86.2923 15 85.112 15 83.7842C16.1065 83.7842 17.213 83.7842 18.6146 83.7842C18.6146 85.0382 18.6146 86.2923 18.6146 87.5463C18.6884 87.5463 18.7621 87.4726 18.7621 87.4726Z" fill="black"/>
<path d="M18.7621 75.8173C17.5819 75.8173 16.4016 75.8173 15 75.8173C15 74.637 15 73.4567 15 72.1289C16.1065 72.1289 17.213 72.1289 18.6146 72.1289C18.6146 73.383 18.6146 74.637 18.6146 75.8911C18.6884 75.8911 18.7621 75.8173 18.7621 75.8173Z" fill="black"/>
<path d="M111.636 56.49C111.636 57.8178 111.562 59.2194 111.562 60.5472L111.636 60.4734C110.455 60.4734 109.275 60.4734 107.874 60.4734C107.874 58.9981 107.874 57.744 107.874 56.49L107.8 56.5638C109.128 56.5638 110.455 56.5638 111.783 56.5638C111.709 56.5638 111.636 56.49 111.636 56.49Z" fill="black"/>
<path d="M107.8 56.4902C106.472 56.4902 105.144 56.4902 103.816 56.4902L103.89 56.564C103.89 55.2362 103.89 53.9084 103.89 52.5806L103.816 52.6543C105.07 52.6543 106.251 52.6543 107.726 52.6543C107.726 54.0559 107.726 55.31 107.726 56.564C107.726 56.564 107.8 56.4902 107.8 56.4902Z" fill="black"/>
<path d="M26.508 75.8912C26.508 74.5634 26.508 73.2355 26.508 71.9077L26.4342 71.9815C27.762 71.9815 29.0899 71.9815 30.4177 71.9815L30.3439 71.9077C30.3439 73.1618 30.3439 74.3421 30.3439 75.8174C28.9423 75.8174 27.6883 75.8174 26.4342 75.8174C26.3605 75.8174 26.508 75.8912 26.508 75.8912Z" fill="black"/>
<path d="M111.636 91.3823C111.636 90.202 111.636 89.0217 111.636 87.6201C112.89 87.6201 113.996 87.6201 115.324 87.6201C115.324 88.7266 115.324 89.8331 115.324 91.2347C114.07 91.2347 112.816 91.2347 111.562 91.2347C111.562 91.3085 111.636 91.3823 111.636 91.3823Z" fill="black"/>
<path d="M18.6884 91.3086C18.6884 92.4889 18.6884 93.6692 18.6884 95.0707C17.4343 95.0707 16.3278 95.0707 15 95.0707C15 93.9642 15 92.8577 15 91.4561C16.254 91.4561 17.5081 91.4561 18.7621 91.4561C18.7621 91.3824 18.6884 91.3086 18.6884 91.3086Z" fill="black"/>
<path d="M123.291 95.2182C122.111 95.2182 120.93 95.2182 119.529 95.2182C119.529 93.9641 119.529 92.8576 119.529 91.5298C120.635 91.5298 121.742 91.5298 123.143 91.5298C123.143 92.7838 123.143 94.0379 123.143 95.2919C123.217 95.2919 123.291 95.2182 123.291 95.2182Z" fill="black"/>
<path d="M38.0894 79.8008C38.0894 78.473 38.0894 77.1452 38.0894 75.8174L38.0156 75.8911C39.2697 75.8911 40.5237 75.8911 41.704 75.8911C41.704 77.2927 41.704 78.473 41.704 79.6533C40.3762 79.6533 39.1959 79.6533 38.0156 79.6533L38.0894 79.8008Z" fill="black"/>
<path d="M69.0717 56.49C67.8914 56.49 66.7112 56.49 65.3096 56.49C65.3096 55.2359 65.3096 54.1294 65.3096 52.7278C66.5636 52.7278 67.8177 52.7278 69.0717 52.7278L68.9979 52.6541C68.9979 53.9819 68.9979 55.3097 68.9979 56.6375L69.0717 56.49Z" fill="black"/>
<path d="M49.4495 56.4164C48.2693 56.4164 47.1627 56.4164 45.9087 56.4164C45.9087 55.1623 45.9087 54.0558 45.9087 52.8018C47.089 52.8018 48.1217 52.8018 49.4495 52.8018C49.4495 53.8345 49.4495 55.0148 49.4495 56.4164Z" fill="black"/>
<path d="M18.7621 56.4901C17.5819 56.4901 16.4016 56.4901 15 56.4901C15 55.3099 15 54.1296 15 52.8018C16.1065 52.8018 17.213 52.8018 18.6146 52.8018C18.6146 54.0558 18.6146 55.3099 18.6146 56.5639C18.6884 56.5639 18.7621 56.4901 18.7621 56.4901Z" fill="black"/>
<path d="M49.5972 44.9085C50.925 44.9085 52.2528 44.9085 53.5806 44.9085L53.5069 44.8347C53.5069 46.1625 53.5069 47.4903 53.5069 48.8182L53.5806 48.7444C52.3266 48.7444 51.1463 48.7444 49.6709 48.7444C49.6709 47.3428 49.6709 46.0888 49.6709 44.8347L49.5972 44.9085Z" fill="black"/>
<path d="M88.3252 37.0891C88.3252 38.3432 88.3252 39.5234 88.3252 40.9988C86.9236 40.9988 85.6696 40.9988 84.4155 40.9988L84.4893 41.0726C84.4893 39.7447 84.4893 38.4169 84.4893 37.0891L84.4155 37.1629C85.7433 37.1629 87.0712 37.1629 88.399 37.1629L88.3252 37.0891Z" fill="black"/>
<path d="M115.397 60.4736C115.397 61.7277 115.397 62.908 115.397 64.3833C113.996 64.3833 112.742 64.3833 111.488 64.3833L111.562 64.4571C111.562 63.1293 111.562 61.8015 111.562 60.4736L111.488 60.5474C112.816 60.5474 114.143 60.5474 115.471 60.5474L115.397 60.4736Z" fill="black"/>
<path d="M123.217 56.4165C123.217 57.6706 123.217 58.8508 123.217 60.3262C121.816 60.3262 120.562 60.3262 119.308 60.3262L119.381 60.4C119.381 59.0721 119.381 57.7443 119.381 56.4165L119.308 56.4903C120.635 56.4903 121.963 56.4903 123.291 56.4903L123.217 56.4165Z" fill="black"/>
<path d="M123.291 110.488C123.291 109.234 123.291 108.275 123.291 107.021C124.471 107.021 125.577 107.021 126.905 107.021C126.905 108.054 126.905 109.234 126.905 110.488C125.725 110.488 124.545 110.488 123.291 110.488Z" fill="black"/>
<path d="M115.472 110.783C116.652 110.783 117.832 110.783 119.234 110.783C119.234 112.037 119.234 113.144 119.234 114.472C118.127 114.472 117.021 114.472 115.619 114.472C115.619 113.218 115.619 111.964 115.619 110.709C115.545 110.709 115.472 110.783 115.472 110.783Z" fill="black"/>
<path d="M92.3085 118.455C91.1283 118.455 89.948 118.455 88.5464 118.455C88.5464 117.201 88.5464 116.094 88.5464 114.767C89.6529 114.767 90.7594 114.767 92.161 114.767C92.161 116.021 92.161 117.275 92.161 118.529C92.2348 118.529 92.3085 118.455 92.3085 118.455Z" fill="black"/>
<path d="M123.291 118.529C123.291 117.348 123.291 116.168 123.291 114.767C124.545 114.767 125.652 114.767 126.979 114.767C126.979 115.873 126.979 116.98 126.979 118.381C125.725 118.381 124.471 118.381 123.217 118.381C123.217 118.455 123.291 118.529 123.291 118.529Z" fill="black"/>
<path d="M26.5079 71.9815C25.2538 71.9815 24.0735 71.9815 22.5982 71.9815C22.5982 70.5799 22.5982 69.3258 22.5982 68.0718L22.5244 68.1455C23.7785 68.1455 25.0325 68.1455 26.3603 68.1455C26.3603 69.6209 26.3603 70.8012 26.3603 71.9815H26.5079Z" fill="black"/>
<path d="M84.563 29.4175C84.563 28.2372 84.563 27.0569 84.563 25.6553C85.9646 25.6553 87.2187 25.6553 88.5465 25.6553L88.4727 25.5815C88.4727 26.8356 88.3989 28.1634 88.3989 29.4175L88.4727 29.3437C87.1449 29.3437 85.8171 29.3437 84.4893 29.3437L84.563 29.4175Z" fill="black"/>
<path d="M76.7437 25.5813C77.9977 25.5813 79.178 25.5813 80.6533 25.5813C80.6533 26.9829 80.6533 28.237 80.6533 29.491L80.7271 29.4172C79.3993 29.4172 78.0715 29.4172 76.7437 29.4172L76.8174 29.491C76.8174 28.1632 76.8174 26.8354 76.8174 25.5076L76.7437 25.5813Z" fill="black"/>
<path d="M107.726 122.365C108.906 122.365 110.087 122.365 111.488 122.365C111.488 123.619 111.488 124.725 111.488 126.053C110.382 126.053 109.275 126.053 107.874 126.053C107.874 124.799 107.874 123.545 107.874 122.291C107.8 122.291 107.726 122.365 107.726 122.365Z" fill="black"/>
<path d="M37.9417 17.9836C37.9417 24.4014 37.9417 30.5979 37.9417 37.0157C31.5977 37.0157 25.4012 37.0157 18.9097 37.0157C18.9097 30.7454 18.9097 24.4752 18.9097 17.9836C25.1061 17.9836 31.4502 17.9836 37.9417 17.9836ZM34.1058 21.8196C30.1223 21.8196 26.5077 21.8196 22.7456 21.8196C22.7456 25.6555 22.7456 29.3439 22.7456 33.106C26.5815 33.106 30.3436 33.106 34.1058 33.106C34.1058 29.2701 34.1058 25.6555 34.1058 21.8196Z" fill="white"/>
<path d="M18.8359 122.143C18.8359 115.726 18.8359 109.529 18.8359 103.111C25.18 103.111 31.3764 103.111 37.868 103.111C37.868 109.382 37.868 115.652 37.868 122.143C31.5977 122.143 25.3275 122.143 18.8359 122.143ZM22.6719 118.307C26.5815 118.307 30.2699 118.307 33.9583 118.307C33.9583 114.398 33.9583 110.709 33.9583 107.021C30.1224 107.021 26.434 107.021 22.6719 107.021C22.6719 110.783 22.6719 114.398 22.6719 118.307Z" fill="white"/>
<path d="M104.038 17.8359C110.455 17.8359 116.652 17.8359 122.996 17.8359C122.996 24.18 122.996 30.4502 122.996 36.9417C116.799 36.9417 110.529 36.9417 104.038 36.9417C104.038 30.6715 104.038 24.4013 104.038 17.8359ZM107.947 21.7456C107.947 25.6553 107.947 29.4174 107.947 33.0321C111.857 33.0321 115.545 33.0321 119.234 33.0321C119.234 29.1961 119.234 25.5078 119.234 21.7456C115.398 21.7456 111.783 21.7456 107.947 21.7456Z" fill="white"/>
<path d="M61.3257 95.292C61.3257 93.9642 61.252 92.6364 61.252 91.3086C63.8338 91.3086 66.4895 91.3086 69.0713 91.3086C69.0713 92.6364 68.9975 93.9642 68.9975 95.292L69.0713 95.2183C66.4895 95.2183 63.8338 95.2183 61.252 95.2183L61.3257 95.292Z" fill="black"/>
<path d="M61.252 75.8911C61.252 73.3093 61.252 70.6536 61.252 68.0718C62.4322 68.0718 63.6125 68.0718 65.0141 68.0718C65.0141 70.6536 65.0141 73.088 65.0141 75.8911C63.7601 75.8911 62.506 75.8911 61.252 75.8911Z" fill="black"/>
<path d="M61.3262 91.3824C60.1459 91.3824 58.9657 91.3824 57.3428 91.3824C57.3428 89.907 57.3428 88.653 57.3428 87.3989C58.5231 87.3989 59.7033 87.3989 61.3262 87.3989C61.3262 88.8743 61.3262 90.1283 61.3262 91.3824Z" fill="black"/>
<path d="M84.4893 72.0552C84.4893 70.7274 84.4893 69.3996 84.4893 68.0718C85.6695 68.0718 86.8498 68.0718 88.1777 68.0718C88.1777 69.3996 88.1777 70.5061 88.1777 72.0552C86.9974 72.0552 85.7433 72.0552 84.4893 72.0552Z" fill="black"/>
<path d="M68.998 25.5076C70.3259 25.5076 71.6537 25.5076 72.9815 25.5076C72.9815 26.8354 72.9815 28.1632 72.9815 29.491C71.8012 29.491 70.6209 29.491 68.998 29.491C68.998 28.0157 68.998 26.7616 68.998 25.5076Z" fill="black"/>
<path d="M61.3257 41.0727C61.3257 39.8924 61.3257 38.7121 61.3257 37.3105C62.506 37.3105 63.6863 37.3105 65.0141 37.3105C65.0141 38.4171 65.0141 39.5236 65.0141 40.9252C63.7601 40.9252 62.506 40.9252 61.252 40.9252C61.252 40.9989 61.3257 41.0727 61.3257 41.0727Z" fill="black"/>
<path d="M61.252 103.038C61.252 101.71 61.3257 100.382 61.3257 99.0542L61.252 99.128C63.8338 99.128 66.3419 99.128 69.0713 99.128C69.0713 97.5789 69.0713 96.3986 69.0713 95.1445L68.9975 95.2183C70.3254 95.2183 71.6532 95.1445 72.981 95.1445C72.981 97.6526 72.981 100.087 72.981 102.964C68.9238 103.038 65.0879 103.038 61.252 103.038Z" fill="black"/>
<path d="M103.743 99.2754C103.743 100.529 103.743 101.636 103.743 102.816C102.562 102.816 101.456 102.816 100.202 102.816C100.202 101.71 100.202 100.603 100.202 99.2754C101.308 99.2754 102.415 99.2754 103.743 99.2754Z" fill="black"/>
<path d="M34.1058 21.8193C34.1058 25.6553 34.1058 29.2699 34.1058 33.1058C30.3437 33.1058 26.6553 33.1058 22.7456 33.1058C22.7456 29.3436 22.7456 25.6553 22.7456 21.8193C26.5078 21.8193 30.1224 21.8193 34.1058 21.8193Z" fill="black"/>
<path d="M22.6719 118.307C22.6719 114.398 22.6719 110.783 22.6719 107.021C26.434 107.021 30.1224 107.021 33.9583 107.021C33.9583 110.709 33.9583 114.398 33.9583 118.307C30.3437 118.307 26.5816 118.307 22.6719 118.307Z" fill="black"/>
<path d="M107.947 21.7456C111.783 21.7456 115.398 21.7456 119.234 21.7456C119.234 25.5078 119.234 29.1224 119.234 33.032C115.619 33.032 111.857 33.032 107.947 33.032C107.947 29.4174 107.947 25.7291 107.947 21.7456Z" fill="black"/>
<path d="M49.7446 71.9812C49.7446 74.5631 49.7446 77.2187 49.7446 79.8006C48.5643 79.8006 47.384 79.8006 45.9824 79.8006C45.9824 77.2187 45.9824 74.7844 45.9824 71.9812C47.2365 71.9812 48.4905 71.9812 49.7446 71.9812Z" fill="black"/>
<path d="M61.3261 99.0542C60.1458 99.0542 58.9656 99.0542 57.564 99.0542C57.564 97.8001 57.564 96.6936 57.564 95.292C58.818 95.292 60.0721 95.292 61.3261 95.292L61.2523 95.2183C61.2523 96.5461 61.2523 97.8739 61.2523 99.2017L61.3261 99.0542Z" fill="black"/>
</svg>
