<svg width="141" height="141" viewBox="0 0 141 141" fill="none" xmlns="http://www.w3.org/2000/svg">
<g clip-path="url(#clip0_5679_18952)">
<path d="M140.927 70.5C140.927 92.8968 140.927 115.294 141.004 137.69C141.004 140.153 140.389 141 137.772 141C92.9012 140.923 47.9536 140.923 3.08301 141C0.62013 141 0.00441011 140.23 0.00441011 137.844C0.0813752 92.9738 0.0813752 48.0262 0.00441011 3.15557C-0.072555 0.46179 0.851026 0 3.31391 0C48.1076 0.0769651 92.9012 0.0769651 137.695 0C140.235 0 140.927 0.769651 140.927 3.3095C140.85 25.7063 140.927 48.1032 140.927 70.5ZM137.156 137.229C137.156 92.6659 137.156 48.3341 137.156 3.77129C92.5934 3.77129 48.2615 3.77129 3.69873 3.77129C3.69873 48.3341 3.69873 92.6659 3.69873 137.229C48.2615 137.229 92.5934 137.229 137.156 137.229Z" fill="#0075C8"/>
<path d="M137.156 137.229C92.5934 137.229 48.2615 137.229 3.69873 137.229C3.69873 92.6659 3.69873 48.334 3.69873 3.77124C48.2615 3.77124 92.5934 3.77124 137.156 3.77124C137.156 48.334 137.156 92.6659 137.156 137.229ZM19.8614 48.334C19.8614 47.0256 19.8614 45.7172 19.8614 44.4088C18.3991 44.4088 17.1676 44.4088 15.9362 44.4088C15.9362 45.8711 15.9362 47.1026 15.9362 48.334C14.6278 48.334 13.3194 48.334 12.011 48.334C12.011 52.5671 12.011 56.4153 12.011 60.3406C13.3963 60.3406 14.7047 60.3406 15.9362 60.3406C15.9362 61.7259 15.9362 63.1113 15.9362 64.4197C14.6278 64.4197 13.3194 64.4197 12.011 64.4197C12.011 67.2674 12.011 69.8073 12.011 72.2701C13.3963 72.2701 14.5508 72.2701 15.8592 72.2701C15.8592 69.4994 15.8592 66.9596 15.8592 64.3427C18.553 64.3427 21.3237 64.3427 24.0175 64.3427C24.0175 67.0365 24.0175 69.8073 24.0175 72.501C22.7091 72.501 21.4007 72.501 20.0923 72.501C20.0923 73.9634 20.0923 75.1948 20.0923 76.4263C21.5546 76.4263 22.7861 76.4263 24.0175 76.4263C24.0175 77.7347 24.0175 79.0431 24.0175 80.3515C22.4012 80.5054 21.2468 80.5824 20.0153 80.6593C19.9384 82.0447 19.8614 83.1222 19.8614 84.3537C18.476 84.3537 17.3215 84.3537 16.0901 84.3537C15.9362 82.9683 15.8592 81.8138 15.7822 80.5824C14.4738 80.5824 13.3194 80.5824 12.0879 80.5824C12.0879 85.893 12.0879 91.1266 12.0879 96.4372C13.3963 96.4372 14.6278 96.4372 16.0901 96.4372C16.0901 93.7434 16.0901 91.2035 16.0901 88.6637C17.5524 88.6637 18.63 88.6637 20.0923 88.6637C20.0923 91.2805 20.0923 93.8204 20.0923 96.4372C22.94 96.4372 25.4798 96.4372 28.0967 96.4372C28.0967 95.0518 28.0967 93.7434 28.0967 92.512C29.482 92.512 30.8674 92.512 32.2528 92.512C32.2528 93.8204 32.2528 95.1288 32.2528 96.4372C35.1005 96.4372 37.6403 96.4372 40.2571 96.4372C40.2571 94.9748 40.2571 93.7434 40.2571 92.512C42.8739 92.512 45.5677 92.512 48.1845 92.512C48.1845 89.6642 48.1845 87.1244 48.1845 84.5076C42.72 84.5076 37.4864 84.5076 32.1758 84.5076C32.1758 83.1992 32.1758 81.8908 32.1758 80.3515C35.1005 80.3515 37.6403 80.3515 40.2571 80.3515C40.2571 78.8122 40.2571 77.5807 40.2571 76.3493C41.6425 76.3493 43.0279 76.3493 44.4132 76.3493C44.4132 77.6577 44.4132 78.9661 44.4132 80.4284C47.3379 80.4284 49.8778 80.4284 52.4946 80.4284C52.4946 83.0453 52.4946 85.739 52.4946 88.4328C53.9569 88.5867 55.1884 88.6637 56.2659 88.7407C56.2659 90.126 56.2659 91.3575 56.2659 92.512C54.9575 92.5889 53.803 92.6659 52.4946 92.6659C52.4176 94.0513 52.3406 95.2057 52.2637 96.6681C49.4929 96.6681 47.0301 96.6681 44.4902 96.6681C44.4902 99.5158 44.4902 101.979 44.4902 104.672C47.261 104.672 49.8008 104.672 52.4176 104.672C52.4176 108.675 52.4176 112.677 52.4176 116.679C50.8783 116.833 49.6469 116.91 48.4154 116.987C48.4154 118.449 48.4154 119.681 48.4154 120.912C47.107 120.912 45.7986 120.912 44.4902 120.912C44.4902 122.374 44.4902 123.606 44.4902 124.837C45.9526 124.837 47.184 124.837 48.4154 124.837C48.4154 126.146 48.4154 127.454 48.4154 128.763C53.9569 128.763 59.1136 128.763 64.3472 128.763C64.3472 127.377 64.3472 126.223 64.3472 124.991C62.9618 124.837 61.8074 124.76 60.422 124.683C60.422 121.913 60.422 119.296 60.422 116.756C61.7304 116.756 63.0388 116.756 64.3472 116.756C64.5011 118.295 64.5781 119.527 64.6551 120.604C66.0404 120.604 67.1949 120.604 68.2724 120.604C68.2724 117.91 68.2724 115.371 68.2724 112.754C65.5017 112.754 62.9618 112.754 60.345 112.754C60.345 111.368 60.345 109.983 60.345 108.598C62.9618 108.598 65.6556 108.598 68.2724 108.598C68.2724 105.75 68.2724 103.21 68.2724 100.67C66.887 100.593 65.8095 100.516 64.6551 100.439C64.6551 99.054 64.6551 97.8995 64.6551 96.5141C67.4258 96.5141 70.0426 96.5141 72.5825 96.5141C72.5825 100.516 72.5825 104.519 72.5825 108.752C75.4302 108.752 77.97 108.752 80.4329 108.752C80.4329 111.599 80.4329 114.139 80.4329 116.833C77.7391 116.833 75.2762 116.833 72.7364 116.833C72.7364 118.218 72.7364 119.373 72.7364 120.681C74.1218 120.835 75.2762 120.912 76.6616 120.989C76.6616 122.374 76.6616 123.606 76.6616 124.837C74.0448 124.837 71.351 124.837 68.7342 124.837C68.7342 126.3 68.7342 127.531 68.7342 128.686C71.428 128.686 73.9678 128.686 76.5846 128.686C76.5846 127.223 76.5846 125.992 76.5846 124.76C77.97 124.76 79.3554 124.76 80.6638 124.76C80.6638 126.069 80.6638 127.377 80.6638 128.686C82.1261 128.686 83.3576 128.686 84.589 128.686C84.589 127.223 84.589 125.992 84.589 124.76C87.2058 124.76 89.8226 124.76 92.5934 124.76C92.6703 123.298 92.8243 122.144 92.9012 120.912C94.2866 120.912 95.4411 120.912 96.6725 120.912C96.7495 122.297 96.9034 123.452 96.9804 124.683C98.4427 124.683 99.6742 124.683 100.906 124.683C100.906 125.992 100.906 127.3 100.906 128.609C102.368 128.609 103.599 128.609 104.677 128.609C104.677 127.223 104.677 126.069 104.677 124.76C103.215 124.76 101.983 124.76 100.752 124.76C100.752 123.452 100.752 122.144 100.752 120.835C102.368 120.681 103.522 120.604 104.908 120.527C104.908 119.065 104.908 117.833 104.908 116.679L104.831 116.756C106.216 116.756 107.602 116.679 108.91 116.679C108.91 120.681 108.91 124.683 108.91 128.686C110.372 128.686 111.527 128.686 112.758 128.686C112.835 127.3 112.989 126.146 113.066 125.068C114.528 125.068 115.683 125.068 116.837 125.068C116.914 126.454 116.991 127.531 117.068 128.686C118.454 128.686 119.608 128.686 121.07 128.686C121.07 125.992 121.07 123.452 121.07 120.758C122.61 120.758 123.841 120.758 125.073 120.758C125.073 122.067 125.073 123.375 125.073 124.683C126.535 124.683 127.766 124.683 128.844 124.683C128.844 123.298 128.844 122.144 128.844 120.835C127.382 120.835 126.15 120.835 124.919 120.835C124.919 118.218 124.919 115.525 124.919 112.908C126.535 112.754 127.689 112.677 128.767 112.6C128.767 111.214 128.767 109.983 128.767 108.829C127.459 108.752 126.304 108.752 125.073 108.675C124.996 107.289 124.919 106.135 124.842 104.903C123.456 104.903 122.302 104.903 120.763 104.903C120.763 107.597 120.763 110.137 120.763 112.831C117.915 112.831 115.298 112.831 112.758 112.831C112.758 111.522 112.758 110.214 112.758 108.906C114.375 108.752 115.529 108.675 116.606 108.598C116.606 107.135 116.606 105.981 116.606 104.826C115.221 104.749 114.144 104.672 112.989 104.595C112.989 103.21 112.989 102.056 112.989 100.593C117.068 100.593 120.917 100.593 124.919 100.593C124.919 99.054 124.919 97.8225 124.919 96.5911C126.227 96.5911 127.536 96.5911 128.844 96.5911C128.844 95.1288 128.844 93.8973 128.844 92.6659C127.382 92.6659 126.15 92.6659 124.919 92.6659C124.996 91.3575 124.996 89.9721 125.073 88.6637C126.304 88.6637 127.536 88.6637 128.844 88.6637C128.844 85.816 128.844 83.1992 128.844 80.6593C127.536 80.6593 126.381 80.6593 125.15 80.6593C125.15 83.4301 125.15 86.1239 125.15 88.7407C123.764 88.7407 122.456 88.7407 120.993 88.7407C120.993 90.28 120.993 91.5114 120.993 92.6659C119.685 92.6659 118.377 92.6659 117.068 92.6659C116.914 94.1282 116.837 95.3597 116.76 96.4372C115.375 96.4372 114.221 96.4372 112.835 96.4372C112.835 93.6664 112.835 91.1266 112.835 88.5098C114.144 88.5098 115.452 88.5098 116.76 88.5098C116.76 87.0474 116.76 85.816 116.76 84.5846C115.298 84.5846 114.067 84.5846 112.835 84.5846C112.835 83.1992 112.835 81.8138 112.835 80.4284C115.452 80.4284 118.146 80.4284 120.763 80.4284C120.763 77.5807 120.763 75.1179 120.763 72.578C118.069 72.578 115.529 72.578 112.912 72.578C112.912 75.3488 112.912 77.8886 112.912 80.5054C108.833 80.5054 104.754 80.5054 100.675 80.5054C100.675 79.197 100.675 77.8886 100.675 76.5802C102.214 76.4263 103.445 76.3493 104.831 76.1954C104.831 72.1162 104.831 68.268 104.831 64.2658C106.37 64.2658 107.602 64.2658 108.833 64.2658C108.833 65.5742 108.833 66.8826 108.833 68.191C111.681 68.191 114.221 68.191 116.683 68.191C116.683 66.8056 116.683 65.6511 116.683 64.3427C113.913 64.3427 111.373 64.3427 108.756 64.3427C108.756 60.3406 108.756 56.3384 108.756 52.4132C110.372 52.4132 111.527 52.4132 112.912 52.4132C112.912 55.1069 112.912 57.5698 112.912 60.1097C114.298 60.1097 115.529 60.1097 116.991 60.1097C116.991 57.4159 116.991 54.876 116.991 52.1053C119.762 52.1053 122.225 52.1053 124.842 52.1053C124.919 50.7199 124.996 49.4885 125.15 48.257C126.535 48.1031 127.689 48.0262 128.921 47.9492C128.921 46.6408 128.921 45.4863 128.921 44.2549C126.227 44.2549 123.687 44.2549 121.147 44.2549C120.993 45.5633 120.917 46.7947 120.763 48.257C115.375 48.257 110.141 48.257 104.908 48.257C104.831 49.7194 104.754 50.7969 104.677 52.0283C103.292 52.1053 102.137 52.2592 100.906 52.3362C100.752 53.7216 100.675 54.876 100.598 56.0305C99.1354 56.0305 97.9809 56.0305 96.8265 56.0305C96.7495 54.6451 96.6725 53.5676 96.5956 52.4132C95.2102 52.4132 94.0557 52.4132 92.7473 52.4132C92.7473 55.1839 92.7473 57.7237 92.7473 60.3406C91.3619 60.3406 89.9766 60.3406 88.6682 60.3406C88.6682 59.0322 88.6682 57.7238 88.6682 56.4153C87.2058 56.4153 85.9744 56.4153 84.8969 56.4153C84.8969 57.8007 84.8969 58.9552 84.8969 60.2636C86.3592 60.2636 87.5906 60.2636 88.8221 60.2636C88.8221 61.572 88.8221 62.8804 88.8221 64.4197C85.8974 64.4197 83.3576 64.4197 80.8947 64.4197C80.8947 67.2674 80.8947 69.8073 80.8947 72.2701C82.2031 72.2701 83.3576 72.2701 84.589 72.2701C84.666 70.9617 84.7429 69.7303 84.8969 68.268C88.976 68.268 92.8243 68.268 96.8265 68.268C96.8265 66.7287 96.8265 65.4972 96.8265 64.2658C98.1349 64.2658 99.4433 64.2658 100.675 64.2658C100.675 67.1905 100.675 69.7303 100.675 72.3471C99.3663 72.4241 98.2118 72.501 96.9034 72.501C96.8265 73.8864 96.7495 75.0409 96.6725 76.2723C95.2872 76.2723 94.0557 76.2723 92.9012 76.2723C92.7473 74.887 92.6703 73.7325 92.5934 72.578C91.208 72.578 90.1305 72.578 88.8221 72.578C88.7451 73.8864 88.6682 75.1179 88.5912 76.3493C87.2058 76.5032 85.9744 76.5802 84.7429 76.7341C84.7429 79.5049 84.7429 82.0447 84.7429 84.6615C83.4345 84.6615 82.1261 84.6615 80.8177 84.6615C80.6638 83.1222 80.5868 81.8908 80.5099 80.6593C79.0475 80.6593 77.8161 80.6593 76.5846 80.6593C76.5846 79.3509 76.5846 78.0425 76.5846 76.7341C75.1223 76.7341 73.8909 76.7341 72.8134 76.7341C72.8134 78.1195 72.8134 79.274 72.8134 80.5824C74.2757 80.5824 75.5071 80.5824 76.7386 80.5824C76.7386 83.1992 76.7386 85.893 76.7386 88.5098C75.1993 88.5098 73.9678 88.5098 72.8134 88.5098C72.7364 87.1244 72.5825 85.9699 72.5055 84.5846C71.0432 84.5846 69.8117 84.5846 68.5803 84.5846L68.6572 84.6615C68.6572 80.5824 68.5803 76.5032 68.5803 72.501C69.8887 72.501 71.1971 72.501 72.8134 72.501C72.8134 69.6533 72.8134 67.1135 72.8134 64.5736C74.2757 64.4967 75.3532 64.4197 76.5846 64.3427C76.6616 62.9574 76.8155 61.8029 76.8925 60.5715C78.2779 60.4175 79.4324 60.3406 80.6638 60.2636C80.6638 57.5698 80.6638 55.1069 80.6638 52.5671C79.3554 52.5671 78.1239 52.5671 76.8925 52.5671C76.8155 53.9525 76.6616 55.1069 76.5846 56.1844C75.1993 56.1844 73.9678 56.1844 72.8134 56.1844C72.7364 54.7991 72.6594 53.7216 72.5825 52.5671C71.1971 52.4132 70.0426 52.3362 68.6572 52.1823C68.6572 50.7969 68.6572 49.5655 68.6572 48.334C69.9657 48.334 71.2741 48.334 72.5825 48.334C72.5825 46.8717 72.5825 45.6402 72.5825 44.4088C71.1201 44.4088 69.8887 44.4088 68.6572 44.4088C68.6572 43.0234 68.6572 41.638 68.6572 40.2527C69.9657 40.2527 71.2741 40.2527 72.5825 40.2527C72.5825 38.7903 72.5825 37.5589 72.5825 36.3275C71.1201 36.3275 69.8887 36.3275 68.6572 36.3275C68.6572 35.0191 68.6572 33.7106 68.6572 32.4022C70.2735 32.2483 71.428 32.1713 72.5055 32.0944C72.5055 30.709 72.5055 29.4776 72.5055 28.3231C71.1971 28.2461 70.0426 28.1692 68.8881 28.0922C68.8881 26.7068 68.8881 25.5524 68.8881 24.3209C70.2735 24.2439 71.428 24.09 72.7364 24.0131C72.7364 22.5507 72.7364 21.3193 72.7364 20.0878C74.1218 20.0109 75.5841 20.0109 76.9695 19.9339C76.9695 21.3193 76.9695 22.6277 76.9695 24.09C78.5088 24.09 79.7402 24.09 80.8947 24.09C80.8947 25.3984 80.8947 26.7068 80.8947 28.0152C79.2784 28.1692 78.1239 28.2461 77.0464 28.3231C77.0464 32.4022 77.0464 36.3275 77.0464 40.0987C78.3548 40.0987 79.5093 40.0987 80.8947 40.0987C80.8947 37.4819 80.8947 34.9421 80.8947 32.2483C82.357 32.1713 83.5885 32.0944 84.7429 32.0174C84.7429 29.2467 84.7429 26.7068 84.7429 24.09C83.3576 24.09 82.1261 24.09 80.8177 24.09C80.8177 22.7816 80.8177 21.4732 80.8177 19.9339C79.2784 19.9339 78.1239 19.9339 76.8925 19.9339C76.8925 18.6255 76.8925 17.3941 76.8925 16.0857C78.3548 16.0087 79.5093 15.9317 80.6638 15.9317C80.6638 14.5464 80.6638 13.3919 80.6638 12.1604C77.97 12.1604 75.4302 12.1604 72.8134 12.1604C72.8134 14.9312 72.8134 17.548 72.8134 20.0878C70.1196 20.0878 67.5028 20.0878 64.886 20.0878C64.886 18.4716 64.886 17.2401 64.886 16.0857C66.1944 16.0087 67.3488 15.9317 68.5033 15.8548C68.5033 14.4694 68.5033 13.3149 68.5033 12.1604C60.422 12.1604 52.4946 12.1604 44.5672 12.1604C44.5672 14.8542 44.5672 17.3171 44.5672 19.9339C45.9525 19.9339 47.184 19.9339 48.4154 19.9339L48.3385 19.8569C48.3385 23.8591 48.3385 27.8613 48.3385 32.1713C51.3401 32.1713 53.8799 32.1713 56.6507 32.1713C56.6507 33.7106 56.6507 34.9421 56.6507 36.1735C55.3423 36.1735 54.1108 36.1735 52.5715 36.1735C52.5715 40.4066 52.5715 44.3318 52.5715 48.334C51.2631 48.334 49.9547 48.334 48.5694 48.334C48.4924 46.7947 48.4154 45.7172 48.4154 44.4088C44.4132 44.4088 40.488 44.4088 36.5628 44.4088C36.5628 45.7172 36.5628 46.9486 36.5628 48.1801C37.9482 48.257 39.1027 48.411 40.3341 48.4879C40.3341 49.7963 40.3341 50.9508 40.3341 52.3362C37.6403 52.3362 35.1005 52.3362 32.5606 52.3362C32.4067 53.7985 32.3297 55.03 32.1758 56.4153C30.7904 56.4153 29.559 56.4153 28.3276 56.4153C28.3276 55.1069 28.3276 53.8755 28.3276 52.4132C26.8652 52.4132 25.5568 52.4132 24.3254 52.4132C24.3254 51.1048 24.3254 49.8733 24.3254 48.411C22.4782 48.334 21.1698 48.334 19.8614 48.334ZM124.919 64.4967C124.919 63.1883 124.919 61.8799 124.919 60.5715C123.456 60.5715 122.225 60.5715 121.147 60.5715C121.147 61.9568 121.147 63.1113 121.147 64.4197C122.61 64.4197 123.841 64.4197 125.073 64.4197C125.073 65.7281 125.073 67.0365 125.073 68.3449C126.535 68.3449 127.689 68.3449 128.844 68.3449C128.844 66.9596 128.844 65.8051 128.844 64.5736C127.382 64.4967 126.15 64.4967 124.919 64.4967ZM84.589 48.257C84.589 49.5655 84.589 50.8739 84.589 52.1823C86.0513 52.1823 87.2828 52.1823 88.3603 52.1823C88.3603 50.7969 88.3603 49.6424 88.3603 48.334C86.898 48.334 85.6665 48.334 84.4351 48.334C84.512 47.0256 84.512 45.6402 84.589 44.3318C87.2828 44.3318 89.9766 44.2549 92.5934 44.2549C92.5934 45.5633 92.5934 46.8717 92.5934 48.1801C95.4411 48.1801 97.9809 48.1801 100.444 48.1801C100.444 46.7947 100.444 45.6402 100.444 44.3318C97.6731 44.3318 95.1332 44.3318 92.5164 44.3318C92.5164 42.9465 92.5164 41.5611 92.5164 40.1757C93.8248 40.1757 95.1332 40.1757 96.4416 40.1757C96.4416 32.0174 96.4416 24.09 96.4416 16.1626C95.1332 16.1626 93.9018 16.1626 92.6703 16.1626C92.5934 17.548 92.4394 18.7025 92.3625 20.0878C90.9771 20.0878 89.7457 20.0878 88.5142 20.0878C88.5142 17.471 88.5142 14.7772 88.5142 12.1604C87.0519 12.1604 85.8205 12.1604 84.666 12.1604C84.666 14.8542 84.666 17.3941 84.666 20.0109C86.1283 20.0109 87.3598 20.0109 88.5912 20.0109C88.5912 21.3193 88.5912 22.6277 88.5912 23.9361C90.0535 24.09 91.285 24.167 92.3625 24.2439C92.3625 25.7063 92.3625 26.8608 92.3625 28.0152C91.0541 28.0922 89.8996 28.1692 88.7451 28.2461C88.7451 29.6315 88.7451 30.786 88.7451 32.0174C90.1305 32.1713 91.285 32.2483 92.6703 32.4022C92.6703 35.173 92.6703 37.7128 92.6703 40.3296C91.3619 40.3296 90.0535 40.3296 88.7451 40.3296C88.5912 38.7903 88.5142 37.5589 88.4373 36.4044C87.0519 36.4044 85.9744 36.4044 84.7429 36.4044C84.7429 39.1752 84.7429 41.8689 84.7429 44.4858C82.0492 44.4858 79.3554 44.4858 76.6616 44.4858C76.6616 45.8711 76.6616 46.9486 76.6616 48.334C79.3554 48.257 81.9722 48.257 84.589 48.257ZM12.0879 12.0835C12.0879 21.5502 12.0879 30.8629 12.0879 40.0218C21.5546 40.0218 30.7904 40.0218 40.0262 40.0218C40.0262 30.632 40.0262 21.3962 40.0262 12.0835C30.6365 12.0835 21.4777 12.0835 12.0879 12.0835ZM11.934 128.839C21.2468 128.839 30.6365 128.839 39.9493 128.839C39.9493 119.45 39.9493 110.214 39.9493 101.055C30.4826 101.055 21.2468 101.055 11.934 101.055C11.934 110.368 11.934 119.45 11.934 128.839ZM128.844 40.0987C128.844 30.5551 128.844 21.3962 128.844 12.0835C119.454 12.0835 110.218 12.0835 100.906 12.0835C100.906 21.5502 100.906 30.786 100.906 40.0987C110.295 40.0987 119.531 40.0987 128.844 40.0987ZM48.0306 40.0987C48.0306 38.6364 48.0306 37.5589 48.0306 36.3275C46.7222 36.3275 45.4908 36.3275 44.3363 36.3275C44.3363 37.7128 44.3363 38.8673 44.3363 40.0987C45.7217 40.0987 46.7992 40.0987 48.0306 40.0987Z" fill="white"/>
<path d="M124.919 96.7451C124.919 97.9766 124.919 99.208 124.919 100.747C120.993 100.747 117.068 100.747 112.989 100.747C112.989 102.21 112.989 103.364 112.989 104.75C114.144 104.826 115.298 104.903 116.606 104.98C116.606 106.135 116.606 107.289 116.606 108.752C115.529 108.829 114.374 108.906 112.758 109.06C112.758 110.368 112.758 111.676 112.758 112.985L112.835 112.908C111.527 112.908 110.218 112.908 108.679 112.908C108.679 114.524 108.679 115.756 108.679 117.064L108.756 116.987C107.371 116.987 105.985 117.064 104.677 117.064C104.677 115.756 104.677 114.447 104.677 113.139C103.215 113.139 101.983 113.139 100.906 113.139C100.906 114.524 100.906 115.679 100.906 116.987C102.368 116.987 103.599 116.987 104.831 116.987C104.831 118.218 104.831 119.45 104.831 120.835C103.445 120.912 102.291 121.066 100.675 121.143C100.675 122.451 100.675 123.76 100.675 125.068L100.752 124.991C99.5202 124.991 98.2888 124.991 96.8265 124.991C96.7495 123.76 96.5956 122.528 96.5186 121.22C95.2872 121.22 94.1327 121.22 92.7473 121.22C92.6703 122.375 92.5934 123.606 92.4394 125.068C89.7457 125.068 87.1289 125.068 84.4351 125.068L84.512 125.145C84.512 123.837 84.512 122.451 84.512 121.143C85.8205 121.066 87.0519 120.989 88.2833 120.989C88.2833 119.527 88.2833 118.372 88.2833 117.218C86.9749 117.218 85.8204 117.218 84.666 117.218C84.666 118.68 84.666 119.989 84.666 121.22C83.2806 121.22 81.8952 121.22 80.4329 121.22C80.4329 122.759 80.4329 123.914 80.4329 125.145L80.5099 125.068C79.1245 125.068 77.7391 125.068 76.4307 125.068L76.5077 125.145C76.5077 123.914 76.5077 122.682 76.5077 121.297C75.1223 121.143 73.9678 121.066 72.5825 120.989C72.5825 119.758 72.5825 118.526 72.5825 117.141C75.1223 117.141 77.5852 117.141 80.279 117.141C80.279 114.447 80.279 111.907 80.279 109.06C77.8161 109.06 75.2762 109.06 72.4285 109.06C72.4285 104.75 72.4285 100.824 72.4285 96.8221L72.3516 96.8991C73.66 96.8991 74.9684 96.8991 76.5077 96.8991C76.5077 99.7468 76.5077 102.287 76.5077 104.75C77.97 104.75 79.1245 104.75 80.5099 104.75C80.5099 100.593 80.5099 96.7452 80.5099 92.8199L80.4329 92.8969C83.0497 92.8969 85.7435 92.8969 88.5912 92.8969C88.5912 95.8216 88.5912 98.3614 88.5912 100.978C87.2828 100.978 85.9744 100.978 84.666 100.978C84.666 102.518 84.666 103.672 84.666 104.903C86.0513 104.903 87.2828 104.903 88.5142 104.903C88.5142 106.289 88.5142 107.674 88.5142 109.06C87.2058 109.06 85.8974 109.06 84.589 109.06C84.589 110.522 84.589 111.753 84.589 112.831C85.9744 112.831 87.1289 112.831 88.4373 112.831C88.4373 111.369 88.4373 110.137 88.4373 108.906C89.7457 108.906 91.0541 108.906 92.2855 108.906C92.2855 107.443 92.2855 106.212 92.2855 104.98C90.8232 104.98 89.5917 104.98 88.3603 104.98C88.3603 103.595 88.3603 102.21 88.3603 100.824C89.6687 100.824 90.9771 100.824 92.5164 100.824C92.5164 97.9766 92.5164 95.5137 92.5164 92.8969C93.9788 92.743 95.2102 92.666 96.5186 92.589C96.5186 91.1267 96.5186 89.8953 96.5186 88.6638L96.4416 88.7408C99.0584 88.7408 101.675 88.7408 104.446 88.7408C104.6 90.2031 104.677 91.3576 104.754 92.589C106.139 92.589 107.294 92.589 108.525 92.589C108.602 91.2037 108.756 90.0492 108.833 88.7408C110.295 88.7408 111.527 88.7408 112.758 88.7408L112.681 88.6638C112.681 91.2037 112.681 93.8205 112.681 96.5912C113.99 96.5912 115.221 96.5912 116.606 96.5912C116.683 95.5137 116.837 94.2823 116.914 92.8199C118.223 92.8199 119.531 92.8199 120.84 92.8199L120.763 92.743C120.763 94.0514 120.763 95.3598 120.763 96.8991C122.379 96.8991 123.61 96.8991 124.919 96.8991V96.7451ZM108.679 96.8991C104.677 96.8991 100.829 96.8991 96.9034 96.8991C96.9034 100.901 96.9034 104.826 96.9034 108.598C100.983 108.598 104.831 108.598 108.679 108.598C108.679 104.673 108.679 100.824 108.679 96.8991ZM92.7473 116.756C94.0557 116.756 95.2872 116.756 96.5186 116.756C96.5186 115.448 96.5186 114.293 96.5186 113.139C95.1332 113.139 93.9787 113.139 92.7473 113.139C92.7473 114.447 92.7473 115.448 92.7473 116.756Z" fill="black"/>
<path d="M108.833 64.4197C107.602 64.4197 106.37 64.4197 104.831 64.4197C104.831 68.4219 104.831 72.3471 104.831 76.3493C103.369 76.5032 102.214 76.5802 100.675 76.7341C100.675 78.0425 100.675 79.3509 100.675 80.6593L100.752 80.5823C99.4434 80.5823 98.135 80.5823 96.5957 80.5823C96.5957 83.584 96.5957 86.1238 96.5957 88.7406L96.6727 88.6637C93.9789 88.6637 91.3621 88.6637 88.5144 88.6637C88.5144 87.1244 88.5144 85.8929 88.5144 84.6615C89.8228 84.6615 91.1312 84.6615 92.4396 84.6615C92.4396 83.1992 92.4396 81.9677 92.4396 80.8902C91.0542 80.8902 89.8998 80.8902 88.5914 80.8902C88.5914 82.3525 88.5914 83.584 88.5914 84.8154C87.206 84.8154 85.8206 84.7385 84.5122 84.7385L84.5892 84.8154C84.5892 82.2756 84.5892 79.6588 84.5892 76.888C85.8976 76.7341 87.0521 76.6571 88.4374 76.5032C88.5144 75.2717 88.5914 74.0403 88.6683 72.7319C89.9767 72.7319 91.0542 72.7319 92.4396 72.7319C92.5166 73.8864 92.6705 75.0409 92.7475 76.4262C93.9789 76.4262 95.1334 76.4262 96.5188 76.4262C96.5957 75.1948 96.6727 74.0403 96.7497 72.6549C98.0581 72.578 99.1356 72.578 100.521 72.501C100.521 69.9612 100.521 67.4213 100.521 64.4197C99.2125 64.4197 97.9811 64.4197 96.6727 64.4197L96.7497 64.4966C96.7497 63.1882 96.7497 61.8798 96.7497 60.3405C95.1334 60.3405 93.9019 60.3405 92.5935 60.3405L92.6705 60.4175C92.6705 57.8007 92.6705 55.2608 92.6705 52.4901C93.9789 52.4901 95.1334 52.4901 96.5188 52.4901C96.5957 53.6446 96.6727 54.7221 96.7497 56.1074C97.9041 56.1074 99.0586 56.1074 100.521 56.1074C100.598 55.0299 100.675 53.7985 100.829 52.4131C102.06 52.3362 103.292 52.2592 104.6 52.1053C104.677 50.8738 104.754 49.7193 104.831 48.334C110.065 48.334 115.298 48.334 120.686 48.334C120.84 46.8716 120.917 45.6402 121.071 44.3318C123.687 44.3318 126.227 44.3318 128.844 44.3318C128.844 45.5632 128.844 46.7177 128.844 48.0261C127.613 48.1031 126.458 48.257 125.073 48.334C124.996 49.5654 124.919 50.7969 124.765 52.1822C122.148 52.1822 119.685 52.1822 116.915 52.1822C116.915 54.876 116.915 57.4158 116.915 60.1866C115.452 60.1866 114.221 60.1866 112.835 60.1866C112.835 57.6467 112.835 55.1839 112.835 52.4901C111.45 52.4901 110.296 52.4901 108.679 52.4901C108.679 56.4153 108.679 60.4175 108.679 64.4197H108.833Z" fill="black"/>
<path d="M72.5056 96.745C69.8888 96.745 67.349 96.745 64.5782 96.745C64.5782 98.1304 64.5782 99.3619 64.5782 100.67C65.7327 100.747 66.8872 100.824 68.1956 100.901C68.1956 103.441 68.1956 105.981 68.1956 108.829C65.5788 108.829 62.962 108.829 60.2682 108.829L60.3452 108.906C60.3452 104.903 60.3452 100.978 60.3452 96.899C58.8059 96.899 57.6514 96.899 56.4199 96.899C56.266 98.2074 56.189 99.4388 56.1121 100.67C54.7267 100.747 53.5722 100.901 52.1869 100.978C52.1869 102.44 52.1869 103.672 52.1869 104.903L52.2638 104.826C49.724 104.826 47.1072 104.826 44.3364 104.826C44.3364 102.21 44.3364 99.6697 44.3364 96.822C46.7993 96.822 49.3392 96.822 52.1099 96.822C52.1869 95.3597 52.2638 94.1282 52.3408 92.8198C53.6492 92.7429 54.7267 92.7429 56.1121 92.6659C56.1121 91.4344 56.1121 90.28 56.1121 88.8946C55.0346 88.8176 53.8031 88.7407 52.3408 88.5867C52.3408 85.893 52.3408 83.2761 52.3408 80.5824L52.2638 80.6593C53.6492 80.6593 55.0346 80.5824 56.4199 80.5824C56.4199 81.8908 56.4199 83.1992 56.4199 84.4306C57.8823 84.4306 59.1137 84.4306 60.3452 84.4306C60.3452 82.9683 60.3452 81.7368 60.3452 80.5054C61.6536 80.5054 62.962 80.5054 64.5013 80.5054C64.5013 77.5807 64.5013 75.0409 64.5013 72.4241L64.4243 72.501C65.8097 72.501 67.1951 72.501 68.5804 72.501L68.5035 72.4241C68.5035 76.5032 68.5804 80.5824 68.5804 84.5846C67.272 84.5846 65.9636 84.5846 64.5782 84.5846C64.5782 86.1239 64.5782 87.3553 64.5782 88.5867C63.2698 88.5867 61.9614 88.5867 60.653 88.5867C60.653 90.0491 60.653 91.2805 60.653 92.358C62.0384 92.358 63.1929 92.358 64.5013 92.358C64.5013 90.8957 64.5013 89.6643 64.5013 88.4328C65.8097 88.4328 67.0411 88.4328 68.5035 88.4328C68.5035 86.9705 68.5035 85.6621 68.5035 84.4306C69.7349 84.4306 70.9663 84.4306 72.4287 84.4306C72.5056 85.816 72.6596 86.9705 72.7365 88.3558C73.968 88.3558 75.1225 88.3558 76.6618 88.3558C76.6618 85.6621 76.6618 83.0453 76.6618 80.4284L76.5848 80.5054C77.8162 80.5054 79.0477 80.5054 80.51 80.5054C80.587 81.8138 80.7409 82.9683 80.8179 84.5076C82.1263 84.5076 83.4347 84.5076 84.7431 84.5076L84.6661 84.4306C84.6661 85.739 84.6661 87.0474 84.6661 88.3558C83.2038 88.5098 81.9723 88.5867 80.6639 88.6637C80.6639 90.126 80.6639 91.3575 80.6639 92.5889L80.7409 92.512C78.0471 92.512 75.4303 92.512 72.5826 92.512C72.5826 94.1282 72.5826 95.3597 72.5826 96.6681L72.5056 96.745Z" fill="black"/>
<path d="M68.3495 40.1759C68.3495 41.5612 68.3495 42.9466 68.3495 44.332L68.4264 44.255C65.8096 44.255 63.1158 44.255 60.1912 44.255C60.1912 41.4073 60.1912 38.8675 60.1912 36.1737C58.6519 36.1737 57.4204 36.1737 56.189 36.1737L56.2659 36.2506C56.2659 35.0192 56.2659 33.7878 56.2659 32.2485C53.5722 32.2485 50.9554 32.2485 47.9537 32.2485C47.9537 27.9384 47.9537 23.9362 47.9537 19.9341C50.7245 19.9341 53.4952 20.011 56.189 20.011C56.189 21.3194 56.189 22.6278 56.189 23.9362C57.6513 23.9362 58.8828 23.9362 59.9603 23.9362C59.9603 22.5509 59.9603 21.3964 59.9603 20.088C58.4979 20.088 57.2665 20.088 56.0351 20.088C56.0351 18.7796 56.0351 17.4712 56.0351 16.1628C53.1873 16.1628 50.7245 16.1628 47.9537 16.1628C47.9537 17.5481 47.9537 18.7796 47.9537 20.011C46.7223 20.011 45.4908 20.011 44.1055 20.011C44.1055 17.3942 44.1055 14.9313 44.1055 12.2375C51.9559 12.2375 59.8833 12.2375 68.0416 12.2375C68.0416 13.392 68.0416 14.5465 68.0416 15.9319C66.8871 16.0088 65.7326 16.0858 64.4242 16.1628C64.4242 17.3172 64.4242 18.5487 64.4242 20.165C66.9641 20.165 69.6579 20.165 72.3516 20.165L72.4286 20.011C72.4286 21.2425 72.4286 22.4739 72.4286 23.9362C71.1202 24.0132 69.9657 24.1671 68.5804 24.2441C68.5804 25.4755 68.5804 26.707 68.5804 28.0154C69.7348 28.0924 70.8893 28.1693 72.1977 28.2463C72.1977 29.4008 72.1977 30.6322 72.1977 32.0176C71.1202 32.0945 69.8888 32.1715 68.3495 32.3254C68.3495 33.6338 68.3495 34.9422 68.3495 36.2506L68.4264 36.1737C67.118 36.1737 65.8096 36.1737 64.5782 36.1737C64.5782 37.79 64.5782 38.9444 64.5782 40.3298C65.9635 40.3298 67.195 40.3298 68.4264 40.3298L68.3495 40.1759ZM64.2703 28.2463C62.808 28.2463 61.7305 28.2463 60.499 28.2463C60.499 29.5547 60.499 30.7861 60.499 31.9406C61.8844 31.9406 63.0389 31.9406 64.2703 31.9406C64.2703 30.6322 64.2703 29.4777 64.2703 28.2463Z" fill="black"/>
<path d="M12.0879 12.0835C21.4776 12.0835 30.6365 12.0835 40.0262 12.0835C40.0262 21.3963 40.0262 30.5551 40.0262 40.0218C30.7904 40.0218 21.5546 40.0218 12.0879 40.0218C12.0879 30.786 12.0879 21.5502 12.0879 12.0835ZM36.024 16.1626C29.1741 16.1626 22.5551 16.1626 16.0901 16.1626C16.0901 22.8586 16.0901 29.4006 16.0901 35.9427C22.786 35.9427 29.405 35.9427 36.024 35.9427C36.024 29.3237 36.024 22.7816 36.024 16.1626Z" fill="black"/>
<path d="M11.9341 128.84C11.9341 119.45 11.9341 110.368 11.9341 101.055C21.2469 101.055 30.4827 101.055 39.9494 101.055C39.9494 110.291 39.9494 119.527 39.9494 128.84C30.5596 128.84 21.2469 128.84 11.9341 128.84ZM15.9363 124.837C22.7092 124.837 29.3282 124.837 35.8702 124.837C35.8702 118.064 35.8702 111.522 35.8702 105.057C29.0973 105.057 22.5553 105.057 15.9363 105.057C15.9363 111.753 15.9363 118.141 15.9363 124.837Z" fill="black"/>
<path d="M128.844 40.0988C119.454 40.0988 110.296 40.0988 100.906 40.0988C100.906 30.786 100.906 21.5502 100.906 12.0835C110.219 12.0835 119.454 12.0835 128.844 12.0835C128.844 21.3963 128.844 30.5551 128.844 40.0988ZM124.765 36.0196C124.765 29.2467 124.765 22.6277 124.765 16.1626C117.992 16.1626 111.45 16.1626 104.908 16.1626C104.908 22.8586 104.908 29.4006 104.908 36.0196C111.604 36.0196 118.069 36.0196 124.765 36.0196Z" fill="black"/>
<path d="M24.0174 72.5781C24.0174 69.8844 24.0174 67.1136 24.0174 64.4198L23.9404 64.4968C25.2488 64.4968 26.5572 64.4968 28.0965 64.4968C28.0965 61.4952 28.0965 58.9553 28.0965 56.3385L28.0196 56.4155C29.251 56.4155 30.4825 56.4155 31.8678 56.4155C32.0218 55.0301 32.0987 53.7987 32.2527 52.3363C34.8695 52.3363 37.4093 52.3363 40.0261 52.3363C40.0261 50.951 40.0261 49.7965 40.0261 48.4881C38.8717 48.4111 37.6402 48.2572 36.2548 48.1802C36.2548 46.9488 36.2548 45.7173 36.2548 44.4089C40.257 44.4089 44.1053 44.4089 48.1075 44.4089C48.1844 45.7173 48.1844 46.7949 48.2614 48.3342C49.6468 48.3342 50.9552 48.3342 52.2636 48.3342L52.1866 48.2572C52.1866 52.2594 52.1866 56.2616 52.1866 60.2637C53.7259 60.4177 54.8804 60.4946 56.0349 60.5716C56.0349 61.957 56.0349 63.1114 56.0349 64.4968C53.2641 64.4968 50.7243 64.4968 48.1075 64.4968C48.1075 63.1884 48.1075 61.88 48.1075 60.4946C45.1828 60.4946 42.6429 60.4946 40.0261 60.4946C40.0261 59.1862 40.0261 57.8778 40.0261 56.5694C38.5638 56.5694 37.3324 56.5694 36.1009 56.5694C36.1009 58.0318 36.1009 59.2632 36.1009 60.4946C34.7925 60.4946 33.4841 60.4946 32.2527 60.4946C32.2527 61.957 32.2527 63.1884 32.2527 64.4198C33.715 64.4198 34.9464 64.4198 36.1779 64.4198C36.1779 65.8052 36.1779 67.1906 36.1779 68.576C34.8695 68.576 33.638 68.576 32.0218 68.576C32.0218 70.0383 32.0218 71.3467 32.0218 72.6551L32.0987 72.5781C29.4049 72.5781 26.6342 72.5781 23.9404 72.5781H24.0174ZM48.1075 52.4903C46.6451 52.4903 45.5676 52.4903 44.3362 52.4903C44.3362 53.7987 44.3362 55.0301 44.3362 56.1846C45.7215 56.1846 46.876 56.1846 48.1075 56.1846C48.1075 54.8762 48.1075 53.7987 48.1075 52.4903Z" fill="black"/>
<path d="M68.3494 48.2572C68.3494 49.4886 68.3494 50.7201 68.3494 52.1055C69.7348 52.2594 70.9662 52.3363 72.2746 52.4903C72.3516 53.6448 72.4285 54.7992 72.5055 56.1076C73.66 56.1076 74.8914 56.1076 76.2768 56.1076C76.3537 55.0301 76.5077 53.7987 76.5846 52.4903C77.8161 52.4903 79.0475 52.4903 80.3559 52.4903C80.3559 55.0301 80.3559 57.493 80.3559 60.1868C79.2015 60.2638 77.97 60.4177 76.5846 60.4947C76.5077 61.7261 76.3537 62.8806 76.2768 64.2659C75.0453 64.3429 73.9678 64.4199 72.5055 64.4968C72.5055 67.0367 72.5055 69.5765 72.5055 72.4242C70.8892 72.4242 69.5808 72.4242 68.2724 72.4242L68.3494 72.5012C68.3494 71.1928 68.3494 69.8844 68.3494 68.653C66.8101 68.653 65.5786 68.653 64.1933 68.653C64.1933 70.0383 64.1933 71.2698 64.1933 72.5012L64.2702 72.4242C62.8849 72.4242 61.4995 72.5012 60.1141 72.5012C60.1141 68.499 60.1141 64.4968 60.1141 60.2638C61.7304 60.2638 62.9618 60.2638 64.1933 60.2638C64.1933 61.5722 64.1933 62.8806 64.1933 64.189C65.6556 64.189 66.887 64.189 67.9646 64.189C67.9646 62.8036 67.9646 61.6491 67.9646 60.3407C66.5022 60.3407 65.2708 60.3407 64.0393 60.3407C64.0393 57.7239 64.0393 55.0301 64.0393 52.1055C61.1916 52.1055 58.6518 52.1055 56.035 52.1055C56.035 50.5662 56.035 49.3347 56.035 48.1033L55.958 48.1802C60.0372 48.1802 64.1163 48.1802 68.1954 48.1802L68.3494 48.2572Z" fill="black"/>
<path d="M40.103 76.5032C40.103 77.7346 40.103 78.966 40.103 80.5053C37.4862 80.5053 34.9463 80.5053 32.0217 80.5053C32.0217 82.0446 32.0217 83.3531 32.0217 84.6615L32.0986 84.5845C29.4818 84.5845 26.788 84.5845 24.1712 84.5845C24.1712 87.5092 24.1712 90.049 24.1712 92.7428C25.5566 92.7428 26.865 92.7428 28.0964 92.7428L28.0195 92.6658C28.0195 93.8973 28.0195 95.1287 28.0195 96.591C25.4027 96.591 22.8628 96.591 20.0151 96.591C20.0151 94.0512 20.0151 91.5113 20.0151 88.8176C18.6297 88.8176 17.4753 88.8176 16.0129 88.8176C16.0129 91.3574 16.0129 93.8973 16.0129 96.591C14.5506 96.591 13.3191 96.591 12.0107 96.591C12.0107 91.2805 12.0107 86.0468 12.0107 80.7362C13.2422 80.7362 14.3967 80.7362 15.7051 80.7362C15.782 81.9677 15.936 83.1222 16.0129 84.5075C17.2444 84.5075 18.4758 84.5075 19.7842 84.5075C19.8612 83.2761 19.8612 82.1986 19.9381 80.8132C21.1696 80.7362 22.3241 80.5823 23.9403 80.5053C23.9403 79.1969 23.9403 77.8885 23.9403 76.5801L23.8634 76.6571C26.5571 76.6571 29.174 76.6571 32.0217 76.6571C32.0217 75.0408 32.0217 73.8094 32.0217 72.501L31.9447 72.5779C33.3301 72.5779 34.7154 72.501 36.1008 72.501C36.1008 73.8094 36.1008 75.0408 36.1008 76.6571C37.5631 76.6571 38.8715 76.6571 40.18 76.6571L40.103 76.5032Z" fill="black"/>
<path d="M112.835 112.985C115.375 112.985 117.992 112.985 120.84 112.985C120.84 110.291 120.84 107.751 120.84 105.057C122.302 105.057 123.456 105.057 124.919 105.057C124.996 106.289 125.073 107.443 125.15 108.829C126.381 108.906 127.536 108.906 128.844 108.983C128.844 110.214 128.844 111.369 128.844 112.754C127.766 112.831 126.535 112.908 124.996 113.062C124.996 115.756 124.996 118.372 124.996 120.989L125.073 120.912C123.841 120.912 122.61 120.912 121.07 120.912C121.07 123.606 121.07 126.146 121.07 128.84C119.608 128.84 118.454 128.84 117.068 128.84C116.991 127.685 116.914 126.531 116.837 125.222C115.683 125.222 114.528 125.222 113.066 125.222C112.989 126.3 112.912 127.454 112.758 128.84C111.527 128.84 110.372 128.84 108.91 128.84C108.91 124.837 108.91 120.835 108.91 116.833L108.833 116.91C110.218 116.91 111.604 116.833 112.912 116.833C112.912 118.141 112.912 119.45 112.912 120.758C114.374 120.758 115.606 120.758 116.683 120.758C116.683 119.373 116.683 118.218 116.683 116.91C115.221 116.91 113.99 116.91 112.758 116.91C112.758 115.525 112.835 114.139 112.835 112.831V112.985Z" fill="black"/>
<path d="M48.2615 121.066C48.2615 119.835 48.2615 118.603 48.2615 117.141C49.5699 117.064 50.7244 116.91 52.2637 116.833C52.2637 112.831 52.2637 108.829 52.2637 104.826L52.1868 104.903C53.4952 104.903 54.8036 104.903 56.112 104.903C56.2659 106.366 56.3429 107.597 56.4198 108.906C57.8822 108.906 59.1136 108.906 60.3451 108.906L60.2681 108.829C60.2681 110.214 60.2681 111.599 60.2681 112.985L60.3451 112.908C59.0366 112.908 57.7282 112.908 56.4968 112.908C56.4968 114.447 56.4968 115.679 56.4968 117.064C57.8822 117.064 59.1136 117.064 60.3451 117.064L60.2681 116.987C60.2681 119.527 60.2681 122.144 60.2681 124.914C61.6535 125.068 62.8079 125.145 64.1933 125.222C64.1933 126.454 64.1933 127.608 64.1933 128.993C58.9597 128.993 53.803 128.993 48.2615 128.993C48.2615 127.685 48.2615 126.377 48.2615 125.068L48.1846 125.145C50.8014 125.145 53.4952 125.145 56.112 125.145C56.112 123.606 56.112 122.374 56.112 120.989C53.3412 120.989 50.8014 120.989 48.1846 120.989L48.2615 121.066Z" fill="black"/>
<path d="M88.5913 20.0878C89.8228 20.0878 91.0542 20.0878 92.4396 20.0878C92.5165 18.7024 92.6705 17.548 92.7474 16.1626C93.9789 16.1626 95.1333 16.1626 96.5187 16.1626C96.5187 24.09 96.5187 32.0174 96.5187 40.1757C95.2103 40.1757 93.9019 40.1757 92.5935 40.1757L92.6705 40.2527C92.6705 37.7128 92.6705 35.096 92.6705 32.3253C91.2851 32.1713 90.1306 32.0944 88.7452 31.9404C88.7452 30.709 88.7452 29.5545 88.7452 28.1691C89.8997 28.0922 91.0542 28.0152 92.3626 27.9383C92.3626 26.7838 92.3626 25.6293 92.3626 24.167C91.2851 24.09 90.1306 24.013 88.5913 23.8591C88.5913 22.5507 88.5913 21.2423 88.5913 19.9339V20.0878Z" fill="black"/>
<path d="M32.022 84.6615C37.2556 84.6615 42.5662 84.6615 48.0307 84.6615C48.0307 87.2783 48.0307 89.8182 48.0307 92.6659C45.4139 92.6659 42.7971 92.6659 40.1033 92.6659L40.1803 92.7428C40.1803 91.4344 40.1803 90.126 40.1803 88.5867C37.1786 88.5867 34.6388 88.5867 32.022 88.5867L32.0989 88.6637C32.0989 87.2783 32.0989 85.8929 32.0989 84.5076L32.022 84.6615Z" fill="black"/>
<path d="M88.5912 60.4175C89.9765 60.4175 91.3619 60.4175 92.6703 60.4175L92.5933 60.3406C92.5933 61.649 92.5933 62.9574 92.5933 64.4967C94.2096 64.4967 95.4411 64.4967 96.7495 64.4967L96.6725 64.4197C96.6725 65.6512 96.6725 66.8826 96.6725 68.4219C92.6703 68.4219 88.8221 68.4219 84.7429 68.4219C84.6659 69.8842 84.589 71.0387 84.435 72.4241C83.2036 72.4241 82.1261 72.4241 80.7407 72.4241C80.7407 69.9612 80.7407 67.4214 80.7407 64.5737C83.2036 64.5737 85.6665 64.5737 88.6681 64.5737C88.6681 62.9574 88.6681 61.649 88.6681 60.4175H88.5912Z" fill="black"/>
<path d="M80.5101 24.0901C81.7415 24.0901 82.9729 24.0901 84.4353 24.0901C84.4353 26.7069 84.4353 29.2467 84.4353 32.0175C83.2808 32.0945 82.0494 32.1714 80.587 32.2484C80.587 34.8652 80.587 37.405 80.587 40.0988C79.2017 40.0988 78.0472 40.0988 76.7388 40.0988C76.7388 36.2506 76.7388 32.4023 76.7388 28.3232C77.8163 28.2462 79.0477 28.0923 80.587 28.0153C80.587 26.7069 80.587 25.3985 80.587 24.0901H80.5101Z" fill="black"/>
<path d="M112.912 80.6593C112.912 78.1195 112.912 75.5027 112.912 72.7319C115.529 72.7319 118.069 72.7319 120.762 72.7319C120.762 75.1948 120.762 77.7347 120.762 80.5824C118.146 80.5824 115.452 80.5824 112.835 80.5824L112.912 80.6593Z" fill="black"/>
<path d="M52.2635 48.3341C52.2635 44.4089 52.2635 40.4067 52.2635 36.1736C53.7258 36.1736 55.0342 36.1736 56.3426 36.1736L56.2657 36.0967C56.2657 40.1758 56.2657 44.255 56.2657 48.3341L56.3426 48.2572C54.9573 48.2572 53.5719 48.2572 52.1865 48.2572L52.2635 48.3341Z" fill="black"/>
<path d="M112.835 80.5825C112.835 81.9679 112.835 83.3533 112.835 84.7386L112.912 84.6617C108.91 84.6617 104.908 84.6617 100.828 84.6617C100.828 83.1224 100.828 81.8909 100.828 80.6595L100.751 80.7365C104.831 80.7365 108.91 80.7365 112.989 80.7365C112.912 80.6595 112.835 80.5825 112.835 80.5825Z" fill="black"/>
<path d="M15.936 60.3406C14.7045 60.3406 13.4731 60.3406 12.0107 60.3406C12.0107 56.4154 12.0107 52.4902 12.0107 48.334C13.3191 48.334 14.6276 48.334 15.936 48.334L15.859 48.2571C15.859 52.3362 15.859 56.4154 15.859 60.4945L15.936 60.3406Z" fill="black"/>
<path d="M72.5057 20.0878C72.5057 17.548 72.5057 14.9311 72.5057 12.1604C75.1225 12.1604 77.6623 12.1604 80.3561 12.1604C80.3561 13.3149 80.3561 14.5463 80.3561 15.9317C79.2016 16.0087 78.0472 16.0087 76.5848 16.0856C76.5848 17.394 76.5848 18.7024 76.5848 19.9339L76.6618 19.8569C75.2764 19.9339 73.8141 19.9339 72.4287 20.0108C72.4287 20.0108 72.5057 20.0878 72.5057 20.0878Z" fill="black"/>
<path d="M92.5932 40.1756C92.5932 41.561 92.5932 42.9464 92.5932 44.3318L92.6702 44.2548C89.9764 44.2548 87.2826 44.3318 84.5889 44.3318L84.6658 44.4087C84.6658 41.7919 84.6658 39.0981 84.6658 36.3274C85.8973 36.3274 87.0517 36.3274 88.3602 36.3274C88.4371 37.4819 88.5911 38.7133 88.668 40.2526C89.9764 40.2526 91.2848 40.2526 92.5932 40.2526C92.6702 40.2526 92.5932 40.1756 92.5932 40.1756Z" fill="black"/>
<path d="M60.2681 112.985C62.8079 112.985 65.4247 112.985 68.1955 112.985C68.1955 115.601 68.1955 118.064 68.1955 120.835C67.118 120.835 65.9635 120.835 64.5781 120.835C64.5011 119.681 64.3472 118.526 64.2702 116.987C62.9618 116.987 61.6534 116.987 60.345 116.987L60.422 117.064C60.422 115.678 60.422 114.293 60.422 112.908L60.2681 112.985Z" fill="black"/>
<path d="M88.6684 19.9339C87.4369 19.9339 86.2055 19.9339 84.7432 19.9339C84.7432 17.3171 84.7432 14.7773 84.7432 12.0835C85.8976 12.0835 87.0521 12.0835 88.5914 12.0835C88.5914 14.7003 88.5914 17.3941 88.5914 20.0109C88.5914 20.0879 88.6684 19.9339 88.6684 19.9339Z" fill="black"/>
<path d="M40.1033 92.666C40.1033 93.8975 40.1033 95.1289 40.1033 96.5912C37.4865 96.5912 34.9466 96.5912 32.0989 96.5912C32.0989 95.2828 32.0989 93.9744 32.0989 92.666L32.022 92.743C34.7157 92.743 37.4865 92.743 40.1803 92.743L40.1033 92.666Z" fill="black"/>
<path d="M76.4305 124.991C76.4305 126.223 76.4305 127.454 76.4305 128.916C73.8137 128.916 71.2739 128.916 68.5801 128.916C68.5801 127.762 68.5801 126.607 68.5801 125.068C71.1969 125.068 73.8907 125.068 76.5075 125.068L76.4305 124.991Z" fill="black"/>
<path d="M84.5888 48.257C81.972 48.257 79.3552 48.257 76.5845 48.257C76.5845 46.8716 76.5845 45.7941 76.5845 44.4088C79.2783 44.4088 81.972 44.4088 84.7428 44.4088L84.6658 44.3318C84.6658 45.6402 84.5888 47.0256 84.5119 48.334C84.5119 48.334 84.5888 48.257 84.5888 48.257Z" fill="black"/>
<path d="M15.9363 64.4966C15.9363 63.1113 15.9363 61.7259 15.9363 60.4175L15.8594 60.4944C18.5532 60.4944 21.17 60.4944 23.9407 60.4944C23.9407 62.0337 23.9407 63.2652 23.9407 64.4966L24.0177 64.4197C21.3239 64.4197 18.5532 64.4197 15.8594 64.4197C15.8594 64.4197 15.9363 64.4966 15.9363 64.4966Z" fill="black"/>
<path d="M15.859 64.4197C15.859 66.9595 15.859 69.5763 15.859 72.3471C14.5506 72.3471 13.3961 72.3471 12.0107 72.3471C12.0107 69.8842 12.0107 67.3444 12.0107 64.4966C13.3191 64.4966 14.6276 64.4966 15.936 64.4966C15.936 64.4966 15.859 64.4197 15.859 64.4197Z" fill="black"/>
<path d="M108.756 64.4966C111.296 64.4966 113.913 64.4966 116.683 64.4966C116.683 65.8051 116.683 66.9595 116.683 68.3449C114.22 68.3449 111.681 68.3449 108.833 68.3449C108.833 67.0365 108.833 65.7281 108.833 64.4197C108.833 64.4197 108.756 64.4966 108.756 64.4966Z" fill="black"/>
<path d="M92.5933 44.2549C95.1331 44.2549 97.7499 44.2549 100.521 44.2549C100.521 45.5633 100.521 46.7178 100.521 48.1032C98.0578 48.1032 95.5179 48.1032 92.6702 48.1032C92.6702 46.7948 92.6702 45.4864 92.6702 44.178C92.6702 44.178 92.5933 44.2549 92.5933 44.2549Z" fill="black"/>
<path d="M52.2638 80.5823C49.647 80.5823 47.1071 80.5823 44.1824 80.5823C44.1824 79.12 44.1824 77.8116 44.1824 76.5032L44.1055 76.5801C46.7992 76.5801 49.57 76.5032 52.2638 76.5032C52.2638 77.8885 52.1868 79.2739 52.1868 80.6593L52.2638 80.5823Z" fill="black"/>
<path d="M125.15 88.8177C125.15 86.2008 125.15 83.5071 125.15 80.7363C126.381 80.7363 127.459 80.7363 128.844 80.7363C128.844 83.2762 128.844 85.893 128.844 88.7407C127.536 88.7407 126.304 88.7407 125.073 88.7407C125.073 88.7407 125.15 88.8177 125.15 88.8177Z" fill="black"/>
<path d="M48.0308 40.0987C46.7993 40.0987 45.6448 40.0987 44.3364 40.0987C44.3364 38.9442 44.3364 37.7128 44.3364 36.3274C45.4909 36.3274 46.6454 36.3274 48.0308 36.3274C48.0308 37.4819 48.0308 38.6363 48.0308 40.0987Z" fill="black"/>
<path d="M68.3496 36.1735C69.5811 36.1735 70.8125 36.1735 72.2748 36.1735C72.2748 37.4819 72.2748 38.6363 72.2748 40.0987C70.9664 40.0987 69.658 40.0987 68.3496 40.0987L68.4266 40.1756C68.4266 38.7903 68.4266 37.4049 68.4266 36.0195L68.3496 36.1735Z" fill="black"/>
<path d="M76.5849 80.5824C75.3534 80.5824 74.122 80.5824 72.6597 80.5824C72.6597 79.274 72.6597 78.1195 72.6597 76.7341C73.8141 76.7341 74.9686 76.7341 76.431 76.7341C76.431 78.0425 76.431 79.3509 76.431 80.6594L76.5849 80.5824Z" fill="black"/>
<path d="M124.919 64.4967C126.15 64.4967 127.382 64.4967 128.767 64.4967C128.767 65.7282 128.767 66.9596 128.767 68.268C127.613 68.268 126.458 68.268 124.996 68.268C124.996 66.9596 124.996 65.6512 124.996 64.3428L124.919 64.4967Z" fill="black"/>
<path d="M24.0175 76.5032C22.7861 76.5032 21.5546 76.5032 20.0923 76.5032C20.0923 75.1948 20.0923 74.0403 20.0923 72.5779C21.4007 72.5779 22.7091 72.5779 24.0175 72.5779L23.9405 72.501C23.9405 73.8863 23.9405 75.2717 23.9405 76.6571L24.0175 76.5032Z" fill="black"/>
<path d="M124.996 64.4198C123.764 64.4198 122.533 64.4198 121.07 64.4198C121.07 63.1114 121.07 61.9569 121.07 60.5715C122.225 60.5715 123.379 60.5715 124.842 60.5715C124.842 61.8799 124.842 63.1884 124.842 64.4968C124.919 64.4968 124.996 64.4198 124.996 64.4198Z" fill="black"/>
<path d="M112.835 84.6615C114.066 84.6615 115.298 84.6615 116.76 84.6615C116.76 85.9699 116.76 87.1244 116.76 88.5867C115.452 88.5867 114.143 88.5867 112.835 88.5867L112.912 88.6637C112.912 87.2783 112.912 85.8929 112.912 84.5076L112.835 84.6615Z" fill="black"/>
<path d="M32.099 92.666C30.7136 92.666 29.3282 92.666 27.9429 92.666L28.0198 92.743C28.0198 91.4346 28.0198 90.1262 28.0198 88.7408C29.5591 88.7408 30.7906 88.7408 32.022 88.7408L31.9451 88.6638C31.9451 90.0492 31.9451 91.4346 31.9451 92.8199L32.099 92.666Z" fill="black"/>
<path d="M120.993 92.7429C120.993 91.5115 120.993 90.28 120.993 88.8177C122.456 88.8177 123.764 88.8177 125.15 88.8177L125.073 88.7407C125.073 90.0491 124.996 91.4345 124.996 92.7429L125.073 92.6659C123.687 92.6659 122.302 92.6659 120.917 92.6659L120.993 92.7429Z" fill="black"/>
<path d="M88.6684 60.3407C87.4369 60.3407 86.2055 60.3407 84.7432 60.3407C84.7432 59.0323 84.7432 57.8778 84.7432 56.4924C85.8976 56.4924 87.0521 56.4924 88.5144 56.4924C88.5144 57.8008 88.5144 59.1092 88.5144 60.4176C88.5914 60.4176 88.6684 60.3407 88.6684 60.3407Z" fill="black"/>
<path d="M124.919 92.7428C126.15 92.7428 127.382 92.7428 128.844 92.7428C128.844 94.0512 128.844 95.2057 128.844 96.668C127.536 96.668 126.227 96.668 124.919 96.668L124.996 96.745C124.996 95.3596 124.996 93.9742 124.996 92.5889L124.919 92.7428Z" fill="black"/>
<path d="M23.9404 52.3362C25.2488 52.3362 26.4803 52.3362 27.9426 52.3362C27.9426 53.7986 27.9426 55.107 27.9426 56.3384L28.0196 56.2615C26.7112 56.2615 25.4028 56.2615 24.0174 56.2615C24.0174 54.7222 24.0174 53.4907 24.0174 52.2593L23.9404 52.3362Z" fill="black"/>
<path d="M84.5122 48.334C85.7436 48.334 86.9751 48.334 88.4374 48.334C88.4374 49.6425 88.4374 50.7969 88.4374 52.1823C87.2829 52.1823 86.1285 52.1823 84.6661 52.1823C84.6661 50.8739 84.6661 49.5655 84.6661 48.2571C84.5892 48.2571 84.5122 48.334 84.5122 48.334Z" fill="black"/>
<path d="M19.8613 48.334C21.1697 48.334 22.4012 48.334 23.8635 48.334C23.8635 49.7964 23.8635 51.1048 23.8635 52.3362L23.9405 52.2593C22.6321 52.2593 21.3237 52.2593 19.9383 52.2593C19.9383 50.72 19.9383 49.4885 19.9383 48.2571L19.8613 48.334Z" fill="black"/>
<path d="M80.5867 24.013C79.3552 24.013 78.1238 24.013 76.6614 24.013C76.6614 22.5507 76.6614 21.2423 76.6614 19.8569L76.5845 19.9339C77.8159 19.9339 79.0474 19.9339 80.5097 19.9339C80.5097 21.4732 80.5097 22.7816 80.5097 24.09C80.5097 24.09 80.5867 24.013 80.5867 24.013Z" fill="black"/>
<path d="M68.3496 44.255C69.5811 44.255 70.8125 44.255 72.2748 44.255C72.2748 45.5634 72.2748 46.7179 72.2748 48.1802C70.9664 48.1802 69.658 48.1802 68.3496 48.1802L68.4266 48.2572C68.4266 46.8718 68.4266 45.4864 68.4266 44.1011L68.3496 44.255Z" fill="black"/>
<path d="M15.9362 48.3342C15.9362 47.1027 15.9362 45.8713 15.9362 44.4089C17.2446 44.4089 18.399 44.4089 19.8614 44.4089C19.8614 45.7173 19.8614 47.0257 19.8614 48.3342L19.9383 48.2572C18.553 48.2572 17.1676 48.2572 15.7822 48.2572L15.9362 48.3342Z" fill="black"/>
<path d="M48.2616 124.991C47.0302 124.991 45.7988 124.991 44.3364 124.991C44.3364 123.683 44.3364 122.528 44.3364 121.066C45.6448 121.066 46.9532 121.066 48.2616 121.066L48.1847 120.989C48.1847 122.374 48.1847 123.76 48.1847 125.145L48.2616 124.991Z" fill="black"/>
<path d="M44.1825 76.5032C42.7971 76.5032 41.4117 76.5032 40.0264 76.5032L40.1033 76.5802C40.1033 75.1948 40.0264 73.8094 40.0264 72.4241C41.4117 72.4241 42.7971 72.4241 44.1825 72.4241C44.1825 73.8094 44.1055 75.1948 44.1055 76.5802L44.1825 76.5032Z" fill="black"/>
<path d="M124.919 121.066C126.15 121.066 127.382 121.066 128.844 121.066C128.844 122.374 128.844 123.529 128.844 124.914C127.69 124.914 126.535 124.914 125.073 124.914C125.073 123.606 125.073 122.297 125.073 120.989C124.996 120.989 124.919 121.066 124.919 121.066Z" fill="black"/>
<path d="M84.512 124.991C84.512 126.223 84.512 127.454 84.512 128.916C83.2035 128.916 82.0491 128.916 80.5867 128.916C80.5867 127.608 80.5867 126.3 80.5867 124.991L80.5098 125.068C81.8951 125.068 83.2805 125.068 84.6659 125.068L84.512 124.991Z" fill="black"/>
<path d="M100.675 125.068C101.906 125.068 103.138 125.068 104.6 125.068C104.6 126.377 104.6 127.531 104.6 128.916C103.446 128.916 102.291 128.916 100.829 128.916C100.829 127.608 100.829 126.3 100.829 124.991C100.752 124.991 100.675 125.068 100.675 125.068Z" fill="black"/>
<path d="M108.679 96.8989C108.679 100.824 108.679 104.595 108.679 108.598C104.831 108.598 100.982 108.598 96.9033 108.598C96.9033 104.749 96.9033 100.901 96.9033 96.8989C100.829 96.8989 104.677 96.8989 108.679 96.8989ZM100.829 104.672C102.291 104.672 103.368 104.672 104.6 104.672C104.6 103.364 104.6 102.133 104.6 100.978C103.214 100.978 102.06 100.978 100.829 100.978C100.829 102.363 100.829 103.441 100.829 104.672Z" fill="white"/>
<path d="M80.5098 92.743C80.5098 91.5116 80.5098 90.2801 80.5098 88.8178C81.8951 88.7408 83.0496 88.5869 84.512 88.5099C84.512 87.2015 84.512 85.8931 84.512 84.5847C85.8973 84.5847 87.2827 84.6617 88.5911 84.6617L88.5141 84.5847C88.5141 85.8162 88.5141 87.0476 88.5141 88.5869C91.3618 88.5869 94.0556 88.5869 96.6724 88.5869C96.6724 89.8183 96.6724 91.0498 96.6724 92.5121C95.364 92.5891 94.1326 92.743 92.6702 92.82C92.6702 95.3598 92.6702 97.8997 92.6702 100.747C91.1309 100.747 89.8225 100.747 88.5141 100.747L88.5911 100.824C88.5911 98.2075 88.5911 95.6677 88.5911 92.743C85.8204 92.743 83.1266 92.743 80.5098 92.743Z" fill="white"/>
<path d="M112.912 84.5847C112.912 85.9701 112.912 87.3554 112.912 88.7408C111.681 88.7408 110.449 88.7408 108.987 88.7408C108.91 89.9723 108.756 91.2037 108.679 92.5891C107.448 92.5891 106.293 92.5891 104.908 92.5891C104.831 91.4346 104.754 90.2032 104.6 88.7408C101.906 88.7408 99.2895 88.7408 96.5957 88.7408C96.5957 86.124 96.5957 83.5842 96.5957 80.5825C98.135 80.5825 99.4434 80.5825 100.752 80.5825C100.752 81.814 100.752 83.0454 100.752 84.5847C104.908 84.5847 108.91 84.5847 112.912 84.5847Z" fill="white"/>
<path d="M72.4287 96.8221C72.4287 95.5907 72.4287 94.3592 72.4287 92.666C75.2764 92.666 77.8932 92.666 80.587 92.666C80.587 96.5912 80.587 100.516 80.587 104.596C79.2786 104.596 78.0472 104.596 76.5848 104.596C76.5848 102.133 76.5848 99.5929 76.5848 96.7452C75.0455 96.8221 73.7371 96.8221 72.4287 96.8221Z" fill="white"/>
<path d="M124.995 92.666C124.995 94.0514 124.995 95.4368 124.995 96.8221C123.764 96.8221 122.533 96.8221 120.839 96.8221C120.839 95.2828 120.839 93.9744 120.839 92.666C122.302 92.666 123.61 92.666 124.995 92.666Z" fill="white"/>
<path d="M88.5911 100.747C88.5911 102.133 88.5911 103.518 88.5911 104.903L88.6681 104.826C87.4366 104.826 86.2052 104.826 84.8198 104.826C84.8198 103.518 84.8198 102.364 84.8198 100.901C86.1282 100.901 87.4366 100.901 88.745 100.901C88.6681 100.824 88.5911 100.747 88.5911 100.747Z" fill="white"/>
<path d="M88.5913 104.903C89.8228 104.903 91.0542 104.903 92.5165 104.903C92.5165 106.212 92.5165 107.366 92.5165 108.829C91.2081 108.829 89.8997 108.829 88.6683 108.829L88.7452 108.906C88.7452 107.52 88.7452 106.135 88.7452 104.75C88.6683 104.826 88.5913 104.903 88.5913 104.903Z" fill="white"/>
<path d="M88.5914 108.829C88.5914 110.06 88.5914 111.292 88.5914 112.754C87.283 112.754 86.1285 112.754 84.7432 112.754C84.7432 111.599 84.7432 110.445 84.7432 108.983C86.0516 108.983 87.36 108.983 88.6684 108.983C88.6684 108.906 88.5914 108.829 88.5914 108.829Z" fill="white"/>
<path d="M92.7471 116.756C92.7471 115.448 92.7471 114.447 92.7471 113.139C93.9785 113.139 95.133 113.139 96.5184 113.139C96.5184 114.293 96.5184 115.448 96.5184 116.756C95.21 116.756 93.9785 116.756 92.7471 116.756Z" fill="white"/>
<path d="M104.831 116.91C103.6 116.91 102.368 116.91 100.906 116.91C100.906 115.679 100.906 114.447 100.906 113.062C102.06 113.062 103.215 113.062 104.677 113.062C104.677 114.37 104.677 115.679 104.677 116.987C104.754 116.987 104.831 116.91 104.831 116.91Z" fill="white"/>
<path d="M112.912 112.908C112.912 114.293 112.835 115.679 112.835 116.987L112.912 116.91C111.527 116.91 110.141 116.987 108.833 116.987C108.833 115.755 108.833 114.524 108.833 112.831C110.295 112.908 111.604 112.908 112.912 112.908Z" fill="white"/>
<path d="M84.7428 121.143C84.7428 119.835 84.7428 118.526 84.7428 117.141C85.9742 117.141 87.0517 117.141 88.3602 117.141C88.3602 118.295 88.3602 119.45 88.3602 120.912C87.2057 120.989 85.8973 121.066 84.5889 121.066C84.6658 121.066 84.7428 121.143 84.7428 121.143Z" fill="white"/>
<path d="M84.5892 125.068C83.2039 125.068 81.8185 125.068 80.4331 125.068C80.4331 123.837 80.4331 122.605 80.4331 121.143C81.9724 121.143 83.2808 121.143 84.6662 121.143L84.5892 121.066C84.6662 122.375 84.6662 123.76 84.5892 125.068Z" fill="white"/>
<path d="M88.6683 84.6615C88.6683 83.4301 88.6683 82.1987 88.6683 80.7363C89.9767 80.7363 91.1312 80.7363 92.5165 80.7363C92.5165 81.8908 92.5165 83.0453 92.5165 84.5076C91.2081 84.5076 89.8997 84.5076 88.5913 84.5076C88.5913 84.5846 88.6683 84.6615 88.6683 84.6615Z" fill="white"/>
<path d="M96.7494 64.4967C95.5179 64.4967 94.2865 64.4967 92.5933 64.4967C92.5933 62.9574 92.5933 61.649 92.5933 60.3406C93.8247 60.3406 95.0561 60.3406 96.7494 60.3406C96.7494 61.8799 96.7494 63.1883 96.7494 64.4967Z" fill="white"/>
<path d="M60.3448 108.905C59.1134 108.905 57.8819 108.905 56.4196 108.905C56.3426 107.52 56.1887 106.366 56.1117 104.903C54.8033 104.903 53.4949 104.903 52.1865 104.903C52.1865 103.672 52.1865 102.44 52.1865 100.978C53.4949 100.901 54.7264 100.747 56.1117 100.67C56.1887 99.4388 56.3426 98.2843 56.4196 96.8989C57.651 96.8989 58.8055 96.8989 60.3448 96.8989C60.3448 100.978 60.3448 104.98 60.3448 108.905Z" fill="white"/>
<path d="M60.2681 72.5779C61.6534 72.5779 63.0388 72.501 64.4242 72.501C64.4242 75.1178 64.4242 77.6576 64.4242 80.5823C62.8849 80.5823 61.5765 80.5823 60.2681 80.5823L60.345 80.6593C60.345 77.9655 60.345 75.1948 60.345 72.501L60.2681 72.5779Z" fill="white"/>
<path d="M60.2683 80.5825C60.2683 81.814 60.2683 83.0454 60.2683 84.5077C58.9599 84.5077 57.8054 84.5077 56.3431 84.5077C56.3431 83.1993 56.3431 81.8909 56.3431 80.6595L56.2661 80.7365C57.6515 80.7365 59.0369 80.7365 60.4222 80.7365L60.2683 80.5825Z" fill="white"/>
<path d="M68.3494 84.5847C68.3494 85.8931 68.3494 87.1246 68.3494 88.5869C66.887 88.5869 65.5786 88.5869 64.3472 88.5869L64.4241 88.6639C64.4241 87.4324 64.4241 86.201 64.4241 84.6617C65.8095 84.6617 67.1179 84.6617 68.4263 84.6617C68.5033 84.6617 68.3494 84.5847 68.3494 84.5847Z" fill="white"/>
<path d="M64.3472 72.578C64.3472 71.3466 64.3472 70.1151 64.3472 68.7297C65.7325 68.7297 66.887 68.7297 68.5033 68.7297C68.5033 70.0381 68.5033 71.3466 68.5033 72.578C67.1179 72.578 65.7325 72.578 64.3472 72.578Z" fill="white"/>
<path d="M64.3473 88.6638C64.3473 89.8953 64.3473 91.1267 64.3473 92.589C63.0389 92.589 61.8844 92.589 60.499 92.589C60.499 91.4346 60.499 90.2801 60.499 88.8178C61.8074 88.8178 63.1158 88.8178 64.4242 88.8178C64.4242 88.7408 64.3473 88.6638 64.3473 88.6638Z" fill="white"/>
<path d="M52.1865 80.6593C52.1865 79.2739 52.2635 77.8885 52.2635 76.5032L52.1865 76.5801C53.4949 76.5801 54.8033 76.5801 56.1887 76.5801C56.1887 78.1194 56.1887 79.3509 56.1887 80.5823L56.2657 80.5054C54.9573 80.5823 53.5719 80.6593 52.1865 80.6593Z" fill="white"/>
<path d="M68.4264 44.178C68.4264 45.5634 68.4264 46.9488 68.4264 48.3341C64.3473 48.3341 60.2681 48.3341 56.189 48.3341C56.189 44.255 56.189 40.1758 56.189 36.0967C57.4204 36.0967 58.6518 36.0967 60.1911 36.0967C60.1911 38.7905 60.1911 41.3303 60.1911 44.178C63.1928 44.178 65.8096 44.178 68.4264 44.178Z" fill="white"/>
<path d="M56.3427 19.9339C53.5719 19.9339 50.8012 19.857 48.1074 19.857L48.1844 19.9339C48.1844 18.7025 48.1844 17.4711 48.1844 16.0857C50.9551 16.0857 53.495 16.0857 56.2657 16.0857C56.2657 17.3941 56.2657 18.7025 56.2657 20.0109L56.3427 19.9339Z" fill="white"/>
<path d="M56.2661 20.0108C57.4976 20.0108 58.729 20.0108 60.1913 20.0108C60.1913 21.3192 60.1913 22.4737 60.1913 23.8591C59.0369 23.8591 57.8824 23.8591 56.42 23.8591C56.42 22.5507 56.42 21.2422 56.42 19.9338C56.3431 19.9338 56.2661 20.0108 56.2661 20.0108Z" fill="white"/>
<path d="M64.2703 28.2461C64.2703 29.4775 64.2703 30.632 64.2703 31.9404C63.1158 31.9404 61.8844 31.9404 60.499 31.9404C60.499 30.7859 60.499 29.5545 60.499 28.2461C61.6535 28.2461 62.808 28.2461 64.2703 28.2461Z" fill="white"/>
<path d="M68.4264 36.0967C68.4264 37.4821 68.4264 38.8674 68.4264 40.2528C67.1949 40.2528 65.9635 40.2528 64.5781 40.2528C64.5781 38.8674 64.5781 37.7129 64.5781 36.0967C65.8865 36.0967 67.1949 36.0967 68.4264 36.0967Z" fill="white"/>
<path d="M36.0243 16.1626C36.0243 22.7816 36.0243 29.2467 36.0243 35.9426C29.4053 35.9426 22.7863 35.9426 16.0903 35.9426C16.0903 29.4006 16.0903 22.8586 16.0903 16.1626C22.5554 16.1626 29.0974 16.1626 36.0243 16.1626ZM20.0925 31.9404C24.2486 31.9404 28.0969 31.9404 31.8682 31.9404C31.8682 27.8613 31.8682 24.013 31.8682 20.1648C27.789 20.1648 24.0177 20.1648 20.0925 20.1648C20.0925 24.09 20.0925 27.9383 20.0925 31.9404Z" fill="white"/>
<path d="M15.936 124.837C15.936 118.141 15.936 111.676 15.936 105.057C22.555 105.057 29.0971 105.057 35.87 105.057C35.87 111.522 35.87 118.141 35.87 124.837C29.328 124.837 22.7859 124.837 15.936 124.837ZM31.9448 109.06C27.8656 109.06 23.9404 109.06 20.1691 109.06C20.1691 113.139 20.1691 116.987 20.1691 120.835C24.1713 120.835 28.0196 120.835 31.9448 120.835C31.9448 116.91 31.9448 113.062 31.9448 109.06Z" fill="white"/>
<path d="M124.765 36.0196C118.069 36.0196 111.604 36.0196 104.908 36.0196C104.908 29.4006 104.908 22.9355 104.908 16.1626C111.45 16.1626 117.992 16.1626 124.765 16.1626C124.765 22.7046 124.765 29.2467 124.765 36.0196ZM108.91 31.9404C112.989 31.9404 116.914 31.9404 120.686 31.9404C120.686 27.8613 120.686 24.013 120.686 20.1648C116.683 20.1648 112.835 20.1648 108.91 20.1648C108.91 24.09 108.91 27.9383 108.91 31.9404Z" fill="white"/>
<path d="M52.1869 48.2571C53.5723 48.2571 54.9577 48.2571 56.3431 48.2571C56.3431 49.4885 56.3431 50.72 56.3431 52.2593C58.9599 52.2593 61.4997 52.2593 64.3474 52.2593C64.3474 55.1839 64.3474 57.8007 64.3474 60.4945L64.4244 60.4176C63.1929 60.4176 61.9615 60.4176 60.3452 60.4176C60.3452 64.6506 60.3452 68.6528 60.3452 72.655L60.4222 72.578C57.7284 72.578 54.9577 72.578 52.2639 72.578L52.3409 72.655C52.3409 71.3466 52.3409 70.0382 52.3409 68.7298C50.8016 68.5759 49.5701 68.4989 48.3387 68.4219C48.3387 66.9596 48.3387 65.7282 48.3387 64.4967L48.2617 64.5737C50.8016 64.5737 53.4184 64.5737 56.1891 64.5737C56.1891 63.1883 56.1891 62.0338 56.1891 60.6485C55.0346 60.5715 53.8802 60.4176 52.3409 60.3406C52.1869 56.1845 52.1869 52.2593 52.1869 48.2571Z" fill="white"/>
<path d="M15.8592 48.2571C17.2446 48.2571 18.6299 48.2571 20.0153 48.2571C20.0153 49.4885 20.0153 50.72 20.0153 52.2593C21.4776 52.2593 22.786 52.2593 24.0175 52.2593C24.0175 53.4907 24.0175 54.7221 24.0175 56.2614C25.4798 56.2614 26.7882 56.2614 28.0197 56.2614C28.0197 58.8783 28.0197 61.4181 28.0197 64.4197C26.4804 64.4197 25.172 64.4197 23.8636 64.4197C23.8636 63.1883 23.8636 61.9569 23.8636 60.4176C21.0928 60.4176 18.476 60.4176 15.7822 60.4176C15.8592 56.4154 15.8592 52.3362 15.8592 48.2571Z" fill="white"/>
<path d="M44.1825 72.5011C42.7972 72.5011 41.4118 72.5011 40.0264 72.5011L40.1034 72.5781C40.1034 71.2697 40.1034 69.9613 40.1034 68.422C38.4871 68.422 37.2557 68.422 35.9473 68.422L36.0242 68.4989C36.0242 67.1136 36.0242 65.7282 36.0242 64.3428L35.9473 64.4198C37.2557 64.4198 38.5641 64.4198 40.1034 64.4198C40.1034 62.8035 40.1034 61.5721 40.1034 60.2637L40.0264 60.3406C42.6432 60.3406 45.1831 60.3406 48.1077 60.3406C48.1077 61.803 48.1077 63.1114 48.1077 64.3428L48.1847 64.2659C46.8763 64.2659 45.5679 64.2659 44.0286 64.2659C44.0286 67.2675 44.0286 69.8073 44.0286 72.4242L44.1825 72.5011Z" fill="white"/>
<path d="M23.9404 76.5802C23.9404 75.1948 23.9404 73.8094 23.9404 72.4241C26.6342 72.4241 29.4049 72.4241 32.0987 72.4241C32.0987 73.6555 32.0987 74.887 32.0987 76.5802C29.251 76.5802 26.5572 76.5802 23.9404 76.5802Z" fill="white"/>
<path d="M36.1009 72.501C34.7156 72.501 33.3302 72.578 31.9448 72.578C31.9448 71.2696 31.9448 70.0381 31.9448 68.4988C33.4841 68.4988 34.7925 68.4988 36.1009 68.4988L36.024 68.4219C36.024 69.8072 36.024 71.1926 36.024 72.578L36.1009 72.501Z" fill="white"/>
<path d="M36.1781 64.4197C34.9467 64.4197 33.7153 64.4197 32.2529 64.4197C32.2529 63.1113 32.2529 61.9568 32.2529 60.4944C33.5613 60.4944 34.8697 60.4944 36.1012 60.4944L36.0242 60.4175C36.0242 61.8029 36.0242 63.1882 36.0242 64.5736L36.1781 64.4197Z" fill="white"/>
<path d="M36.1012 60.4176C36.1012 59.1862 36.1012 57.9548 36.1012 56.4924C37.4096 56.4924 38.5641 56.4924 40.0264 56.4924C40.0264 57.8008 40.0264 59.1092 40.0264 60.4176L40.1034 60.3407C38.718 60.3407 37.3326 60.3407 35.9473 60.3407L36.1012 60.4176Z" fill="white"/>
<path d="M48.1077 52.4902C48.1077 53.7986 48.1077 54.8762 48.1077 56.1846C46.8763 56.1846 45.7218 56.1846 44.3364 56.1846C44.3364 54.9531 44.3364 53.7986 44.3364 52.4902C45.5679 52.4902 46.6454 52.4902 48.1077 52.4902Z" fill="white"/>
<path d="M64.3472 60.4175C65.5786 60.4175 66.8101 60.4175 68.2724 60.4175C68.2724 61.7259 68.2724 62.8804 68.2724 64.2658C67.1179 64.2658 65.9634 64.2658 64.5011 64.2658C64.5011 62.9574 64.5011 61.649 64.5011 60.3406C64.4241 60.3406 64.3472 60.4175 64.3472 60.4175Z" fill="white"/>
<path d="M32.0988 88.7408C30.8673 88.7408 29.6359 88.7408 28.0966 88.7408C28.0966 90.2032 28.0966 91.5116 28.0966 92.743C26.8652 92.743 25.6337 92.743 24.1714 92.743C24.1714 90.0492 24.1714 87.5094 24.1714 84.5847C26.7882 84.5847 29.482 84.5847 32.0988 84.5847C32.0988 85.9701 32.0988 87.3555 32.0988 88.7408Z" fill="white"/>
<path d="M40.1031 72.501C40.1031 73.8863 40.18 75.2717 40.18 76.6571C38.8716 76.6571 37.6402 76.6571 36.1009 76.6571C36.1009 75.1178 36.1009 73.8094 36.1009 72.501L36.0239 72.5779C37.4093 72.5779 38.7947 72.5779 40.18 72.5779L40.1031 72.501Z" fill="white"/>
<path d="M112.835 116.987C114.066 116.987 115.298 116.987 116.76 116.987C116.76 118.295 116.76 119.45 116.76 120.835C115.606 120.835 114.451 120.835 112.989 120.835C112.989 119.527 112.989 118.218 112.989 116.91C112.912 116.91 112.835 116.987 112.835 116.987Z" fill="white"/>
<path d="M48.1846 125.068C48.1846 123.683 48.1846 122.297 48.1846 120.912C50.7244 120.912 53.3412 120.912 56.112 120.912C56.112 122.297 56.112 123.452 56.112 125.068C53.4952 125.068 50.8014 125.068 48.1846 125.068Z" fill="white"/>
<path d="M60.3448 112.908C60.3448 114.293 60.3448 115.678 60.3448 117.064C59.1134 117.064 57.882 117.064 56.4966 117.064C56.4966 115.678 56.4966 114.524 56.4966 112.908C57.805 112.908 59.1134 112.908 60.3448 112.908Z" fill="white"/>
<path d="M32.022 92.743C32.022 91.3577 32.022 89.9723 32.022 88.5869C34.6388 88.5869 37.1786 88.5869 40.1803 88.5869C40.1803 90.1262 40.1803 91.4346 40.1803 92.743C37.4865 92.743 34.7157 92.743 32.022 92.743Z" fill="white"/>
<path d="M44.1055 76.5802C44.1055 75.1948 44.1824 73.8094 44.1824 72.4241L44.1055 72.501C46.7992 72.501 49.57 72.501 52.2638 72.501L52.1868 72.4241C52.1868 73.8094 52.1868 75.1948 52.1868 76.5802L52.2638 76.5032C49.57 76.5802 46.8762 76.5802 44.1055 76.5802Z" fill="white"/>
<path d="M100.829 104.673C100.829 103.441 100.829 102.287 100.829 100.978C101.983 100.978 103.215 100.978 104.6 100.978C104.6 102.133 104.6 103.364 104.6 104.673C103.445 104.673 102.291 104.673 100.829 104.673Z" fill="black"/>
<path d="M52.1865 76.5802C52.1865 75.1948 52.1865 73.8094 52.1865 72.4241C54.8803 72.4241 57.651 72.4241 60.3448 72.4241C60.3448 75.1179 60.3448 77.8886 60.3448 80.5824C58.9594 80.5824 57.5741 80.5824 56.1887 80.5824C56.1887 79.3509 56.1887 78.1195 56.1887 76.5802C54.8033 76.5802 53.4949 76.5802 52.1865 76.5802Z" fill="black"/>
<path d="M20.0923 31.9404C20.0923 27.9383 20.0923 24.167 20.0923 20.1648C24.0175 20.1648 27.7888 20.1648 31.8679 20.1648C31.8679 23.9361 31.8679 27.8613 31.8679 31.9404C28.0197 31.9404 24.1714 31.9404 20.0923 31.9404Z" fill="black"/>
<path d="M31.9451 109.06C31.9451 113.062 31.9451 116.833 31.9451 120.835C28.0199 120.835 24.2486 120.835 20.1694 120.835C20.1694 117.064 20.1694 113.139 20.1694 109.06C23.9407 109.06 27.789 109.06 31.9451 109.06Z" fill="black"/>
<path d="M108.91 31.9404C108.91 27.9383 108.91 24.167 108.91 20.1648C112.835 20.1648 116.607 20.1648 120.686 20.1648C120.686 23.9361 120.686 27.8613 120.686 31.9404C116.915 31.9404 113.066 31.9404 108.91 31.9404Z" fill="black"/>
<path d="M52.2638 72.578C49.57 72.578 46.7992 72.578 44.1055 72.578C44.1055 69.9612 44.1055 67.4213 44.1055 64.4197C45.6448 64.4197 46.9532 64.4197 48.2616 64.4197C48.2616 65.6511 48.2616 66.8826 48.2616 68.3449C49.57 68.4219 50.7245 68.5758 52.2638 68.6528C52.2638 69.9612 52.2638 71.2696 52.2638 72.578Z" fill="black"/>
<path d="M36.0239 60.3406C37.4093 60.3406 38.7947 60.3406 40.18 60.3406C40.18 61.572 40.18 62.8035 40.18 64.4967C38.6407 64.4967 37.3323 64.4967 36.0239 64.4967C36.0239 63.1113 36.0239 61.7259 36.0239 60.3406Z" fill="black"/>
<path d="M40.18 72.578C38.7947 72.578 37.4093 72.578 36.0239 72.578C36.0239 71.1926 36.0239 69.8072 36.0239 68.4219C37.2554 68.4219 38.4868 68.4219 40.18 68.4219C40.18 69.9612 40.18 71.2696 40.18 72.578Z" fill="black"/>
<rect x="2.5" y="2.5" width="136" height="136" stroke="#127BF2" stroke-width="5"/>
</g>
<defs>
<clipPath id="clip0_5679_18952">
<rect width="141" height="141" fill="white"/>
</clipPath>
</defs>
</svg>
