<svg width="195" height="44" viewBox="0 0 195 44" fill="none" xmlns="http://www.w3.org/2000/svg">
<rect width="194.211" height="43.6974" rx="6.47368" fill="white"/>
<path d="M58.5249 27.2731C58.224 27.9516 57.8679 28.5762 57.4553 29.1504C56.8928 29.9332 56.4323 30.4751 56.0774 30.776C55.5273 31.2699 54.9378 31.5228 54.3066 31.5372C53.8535 31.5372 53.307 31.4113 52.6709 31.156C52.0327 30.9018 51.4462 30.776 50.9099 30.776C50.3474 30.776 49.7442 30.9018 49.099 31.156C48.4528 31.4113 47.9323 31.5444 47.5343 31.5576C46.929 31.5828 46.3256 31.3226 45.7234 30.776C45.339 30.4487 44.8583 29.8877 44.2823 29.0929C43.6644 28.2441 43.1563 27.2599 42.7583 26.1378C42.3321 24.9258 42.1184 23.7522 42.1184 22.616C42.1184 21.3145 42.4065 20.1919 42.9836 19.2512C43.4371 18.4956 44.0404 17.8996 44.7955 17.462C45.5506 17.0245 46.3665 16.8015 47.2452 16.7872C47.726 16.7872 48.3564 16.9324 49.1399 17.2177C49.9212 17.504 50.4228 17.6492 50.6428 17.6492C50.8072 17.6492 51.3645 17.4794 52.3092 17.141C53.2026 16.8272 53.9566 16.6972 54.5743 16.7484C56.2481 16.8803 57.5056 17.5244 58.3419 18.6848C56.845 19.5702 56.1045 20.8104 56.1192 22.4013C56.1327 23.6405 56.5932 24.6717 57.4983 25.4905C57.9084 25.8705 58.3665 26.1642 58.8761 26.3728C58.7656 26.6857 58.6489 26.9854 58.5249 27.2731V27.2731ZM54.6861 12.5267C54.6861 13.498 54.3226 14.4049 53.598 15.2443C52.7237 16.2421 51.6661 16.8188 50.5192 16.7278C50.5046 16.6112 50.4962 16.4886 50.4962 16.3597C50.4962 15.4273 50.912 14.4294 51.6504 13.6135C52.019 13.2004 52.4879 12.8569 53.0565 12.5829C53.6238 12.313 54.1605 12.1637 54.6652 12.1382C54.6799 12.268 54.6861 12.3979 54.6861 12.5267V12.5267Z" fill="#363636"/>
<path d="M79.7123 23.8136L80.1623 22.3286C80.5223 21.1286 80.8673 19.9136 81.1823 18.6536H81.2423C81.5873 19.8986 81.9173 21.1286 82.2923 22.3286L82.7273 23.8136H79.7123ZM84.0773 28.3286H85.9223L82.2623 17.2886H80.2523L76.5923 28.3286H78.3623L79.3073 25.1786H83.1473L84.0773 28.3286ZM87.2283 31.6736H88.9383V29.0036L88.8933 27.5936C89.5983 28.1936 90.3333 28.5236 91.0683 28.5236C92.9283 28.5236 94.6233 26.9036 94.6233 24.0686C94.6233 21.5336 93.4533 19.8686 91.3533 19.8686C90.4383 19.8686 89.5383 20.3786 88.8183 20.9786H88.7733L88.6383 20.0786H87.2283V31.6736ZM90.7383 27.0986C90.2283 27.0986 89.5833 26.9036 88.9383 26.3486V22.3136C89.6433 21.6386 90.2583 21.3086 90.9033 21.3086C92.2833 21.3086 92.8383 22.3736 92.8383 24.0986C92.8383 26.0336 91.9383 27.0986 90.7383 27.0986ZM96.6766 31.6736H98.3866V29.0036L98.3416 27.5936C99.0466 28.1936 99.7816 28.5236 100.517 28.5236C102.377 28.5236 104.072 26.9036 104.072 24.0686C104.072 21.5336 102.902 19.8686 100.802 19.8686C99.8866 19.8686 98.9866 20.3786 98.2666 20.9786H98.2216L98.0866 20.0786H96.6766V31.6736ZM100.187 27.0986C99.6766 27.0986 99.0316 26.9036 98.3866 26.3486V22.3136C99.0916 21.6386 99.7066 21.3086 100.352 21.3086C101.732 21.3086 102.287 22.3736 102.287 24.0986C102.287 26.0336 101.387 27.0986 100.187 27.0986ZM112.794 28.5236C115.209 28.5236 116.679 27.0836 116.679 25.3136C116.679 23.6936 115.734 22.8836 114.429 22.3286L112.914 21.6836C112.014 21.3236 111.129 20.9636 111.129 20.0186C111.129 19.1336 111.864 18.5936 112.989 18.5936C113.964 18.5936 114.729 18.9686 115.419 19.5836L116.334 18.4736C115.494 17.6186 114.279 17.0786 112.989 17.0786C110.889 17.0786 109.359 18.3836 109.359 20.1236C109.359 21.7286 110.544 22.5686 111.609 23.0186L113.139 23.6786C114.159 24.1286 114.909 24.4436 114.909 25.4486C114.909 26.3786 114.159 27.0086 112.824 27.0086C111.759 27.0086 110.679 26.4986 109.884 25.7036L108.864 26.9036C109.869 27.9236 111.279 28.5236 112.794 28.5236ZM120.97 28.5236C121.57 28.5236 122.125 28.3736 122.59 28.2236L122.275 26.9486C122.035 27.0536 121.675 27.1436 121.39 27.1436C120.535 27.1436 120.19 26.6336 120.19 25.6436V21.4586H122.335V20.0786H120.19V17.7986H118.735L118.54 20.0786L117.265 20.1686V21.4586H118.465V25.6286C118.465 27.3686 119.11 28.5236 120.97 28.5236ZM127.193 28.5236C129.233 28.5236 131.078 26.9486 131.078 24.2186C131.078 21.4586 129.233 19.8686 127.193 19.8686C125.153 19.8686 123.308 21.4586 123.308 24.2186C123.308 26.9486 125.153 28.5236 127.193 28.5236ZM127.193 27.1136C125.903 27.1136 125.093 25.9586 125.093 24.2186C125.093 22.4636 125.903 21.2936 127.193 21.2936C128.498 21.2936 129.308 22.4636 129.308 24.2186C129.308 25.9586 128.498 27.1136 127.193 27.1136ZM133.107 28.3286H134.817V23.1836C135.342 21.8786 136.152 21.4136 136.827 21.4136C137.157 21.4136 137.367 21.4586 137.652 21.5486L137.967 20.0486C137.712 19.9286 137.442 19.8686 137.037 19.8686C136.152 19.8686 135.282 20.4986 134.697 21.5636H134.652L134.517 20.0786H133.107V28.3286ZM142.519 28.5236C143.599 28.5236 144.544 28.1636 145.309 27.6536L144.709 26.5586C144.109 26.9486 143.479 27.1736 142.744 27.1736C141.319 27.1736 140.329 26.2286 140.194 24.6536H145.549C145.594 24.4586 145.624 24.1136 145.624 23.7836C145.624 21.4436 144.454 19.8686 142.264 19.8686C140.329 19.8686 138.499 21.5336 138.499 24.2186C138.499 26.9336 140.284 28.5236 142.519 28.5236ZM140.179 23.4686C140.344 22.0136 141.259 21.2186 142.294 21.2186C143.494 21.2186 144.139 22.0436 144.139 23.4686H140.179Z" fill="#363636"/>
</svg>
