<svg width="472" height="290" viewBox="0 0 472 290" fill="none" xmlns="http://www.w3.org/2000/svg">
<g filter="url(#filter0_d_5870_19356)">
<rect x="130" y="12" width="322" height="133" rx="16" fill="white"/>
</g>
<g opacity="0.5">
<path d="M160.435 33.8433C159.336 33.9045 158.311 34.2028 157.43 34.9295C156.623 35.5949 156.055 36.4286 155.742 37.4918C155.881 37.53 155.99 37.5606 156.106 37.5912C158.602 38.1648 160.224 40.5512 160.006 43.3203C159.809 45.7754 157.714 47.8784 155.364 47.9933C152.745 48.1237 150.534 46.3333 150.097 43.6947C149.821 42.0121 150.163 40.3982 150.752 38.8379C152.272 34.8224 156.004 32.0841 160.035 32C160.166 32 160.304 32.0077 160.435 32.0077C160.435 32.6195 160.435 33.2314 160.435 33.8433Z" fill="#127BF2"/>
<path d="M172.261 32.0416C172.261 32.6455 172.261 33.2416 172.261 33.8455C169.966 34.0212 168.409 35.206 167.583 37.4837C167.736 37.5295 167.854 37.5601 167.97 37.5907C170.477 38.164 172.108 40.5487 171.888 43.3157C171.691 45.7617 169.593 47.871 167.232 47.9933C164.6 48.1231 162.379 46.3425 161.933 43.7056C161.647 42.0162 161.954 40.3652 162.606 38.8213C164.374 34.6174 167.466 32.332 171.859 32.0034C171.954 31.9957 172.056 32.0034 172.151 32.0034C172.173 32.011 172.195 32.0187 172.261 32.0416Z" fill="#127BF2"/>
</g>
<path d="M159.66 62.422V75.106H161.116V62.422H159.66ZM154.382 63.36C152.506 63.36 151.134 65.096 151.134 67.812C151.134 70.556 152.506 72.278 154.382 72.278C156.272 72.278 157.644 70.556 157.644 67.812C157.644 65.096 156.272 63.36 154.382 63.36ZM154.382 64.662C155.488 64.662 156.258 65.852 156.258 67.812C156.258 69.8 155.488 70.99 154.382 70.99C153.29 70.99 152.52 69.8 152.52 67.812C152.52 65.852 153.29 64.662 154.382 64.662ZM172.623 71.732H174.065V62.436H172.623V65.628H170.439V66.846H172.623V71.732ZM170.663 68.554C169.067 68.82 167.681 68.876 165.511 68.89V67.154H169.725V63.29H164.055V64.452H168.283V66.048H164.083V70.066H165.077C167.541 70.066 169.039 70.01 170.789 69.73L170.663 68.554ZM167.247 73.664V71.032H165.805V74.84H174.415V73.664H167.247ZM185.502 68.848H186.944V62.436H185.502V65.306H182.996V66.482H185.502V68.848ZM177.326 62.982V64.144H181.344C181.106 65.922 179.538 67.308 176.626 67.994L177.144 69.128C180.798 68.232 182.87 66.202 182.87 62.982H177.326ZM180.182 73.804V72.642H186.944V69.352H178.712V70.514H185.502V71.564H178.74V74.966H187.294V73.804H180.182ZM203.933 68.61H202.169C202.491 66.818 202.491 65.502 202.491 64.312V63.206H193.867V64.368H201.077C201.077 65.53 201.077 66.846 200.713 68.61H192.495V69.8H197.437V75.078H198.893V69.8H203.933V68.61ZM207.138 64.97H209.322V70.64H207.138V64.97ZM205.794 71.788H210.666V63.822H205.794V71.788ZM214.796 62.436V67.364H213.354V62.674H211.996V74.476H213.354V68.54H214.796V75.064H216.168V62.436H214.796ZM222.014 63.766V64.942H226.438C226.144 67.854 224.478 70.08 221.384 71.662L222.182 72.768C226.312 70.682 227.88 67.434 227.88 63.766H222.014ZM233.102 67.42H231.184V62.422H229.742V75.064H231.184V68.624H233.102V67.42ZM244.413 65.796H237.217V62.674H235.775V66.958H244.413V65.796ZM239.961 73.93C238.113 73.93 237.077 73.496 237.077 72.726C237.077 71.928 238.113 71.522 239.961 71.522C241.809 71.522 242.859 71.928 242.859 72.726C242.859 73.496 241.809 73.93 239.961 73.93ZM239.961 70.388C237.258 70.388 235.607 71.242 235.607 72.726C235.607 74.196 237.258 75.05 239.961 75.05C242.677 75.05 244.315 74.196 244.315 72.726C244.315 71.242 242.677 70.388 239.961 70.388ZM234.277 68.232V69.408H245.715V68.232H234.277ZM254.631 63.878H251.621V62.422H250.179V63.878H247.169V65.026H254.631V63.878ZM249.213 68.008C249.213 67.21 249.899 66.734 250.893 66.734C251.901 66.734 252.587 67.21 252.587 68.008C252.587 68.806 251.901 69.282 250.893 69.282C249.899 69.282 249.213 68.806 249.213 68.008ZM253.959 68.008C253.959 66.58 252.713 65.614 250.893 65.614C249.087 65.614 247.827 66.58 247.827 68.008C247.827 69.45 249.087 70.402 250.893 70.402C252.713 70.402 253.959 69.45 253.959 68.008ZM250.473 71.186H249.017V74.84H257.529V73.664H250.473V71.186ZM257.025 66.468V62.436H255.583V71.914H257.025V67.658H258.817V66.468H257.025ZM264.696 64.886H267.51V63.696H260.426V64.886H263.24V66.09C263.24 68.26 261.938 70.612 259.978 71.522L260.804 72.67C262.288 71.956 263.422 70.458 263.982 68.694C264.57 70.332 265.704 71.704 267.174 72.348L267.972 71.214C265.998 70.374 264.696 68.19 264.696 66.09V64.886ZM268.98 62.436V75.078H270.436V62.436H268.98ZM278.858 72.824H286.054V69.814H277.402V70.906H284.64V71.802H277.43V74.966H286.418V73.86H278.858V72.824ZM278.928 63.948H284.598V65.6H278.928V63.948ZM282.47 67.798V66.734H286.012V62.828H277.5V66.734H281.028V67.798H276.044V68.946H287.496V67.798H282.47ZM293.725 65.558H289.441V69.254H290.463C293.081 69.254 294.649 69.184 296.441 68.848L296.287 67.672C294.649 67.994 293.193 68.064 290.855 68.078V66.65H295.153V63.052H289.413V64.214H293.725V65.558ZM297.869 70.262H296.455V70.71C296.455 71.69 295.937 72.88 294.803 73.65C293.697 72.936 293.193 71.802 293.193 70.71V70.262H291.793V70.71C291.793 71.956 290.981 73.286 289.357 73.874L290.071 74.924C291.247 74.504 292.045 73.664 292.493 72.67C292.885 73.706 293.627 74.588 294.831 75.05C295.979 74.56 296.735 73.65 297.141 72.642C297.575 73.664 298.373 74.504 299.591 74.924L300.319 73.874C298.681 73.328 297.869 72.04 297.869 70.71V70.262ZM298.807 65.446V62.45H297.365V69.8H298.807V66.636H300.599V65.446H298.807ZM305.288 64.312C306.38 64.312 307.178 65.04 307.178 66.118C307.178 67.182 306.38 67.91 305.288 67.91C304.182 67.91 303.37 67.182 303.37 66.118C303.37 65.04 304.182 64.312 305.288 64.312ZM310.846 66.692V69.59H312.288V62.436H310.846V65.502H308.494C308.2 64.074 306.926 63.122 305.288 63.122C303.398 63.122 301.998 64.354 301.998 66.118C301.998 67.868 303.398 69.1 305.288 69.1C306.94 69.1 308.228 68.12 308.494 66.692H310.846ZM311 70.08H309.586V70.696C309.586 71.662 309.082 72.866 307.948 73.636C306.842 72.936 306.352 71.788 306.352 70.696V70.08H304.952V70.696C304.952 71.942 304.112 73.286 302.488 73.86L303.202 74.924C304.364 74.476 305.19 73.664 305.638 72.67C306.03 73.692 306.786 74.574 307.962 75.036C309.124 74.546 309.866 73.636 310.272 72.628C310.706 73.65 311.532 74.49 312.75 74.924L313.464 73.86C311.812 73.328 311 72.026 311 70.696V70.08ZM324.844 66.062H317.606V62.884H316.164V67.238H324.844V66.062ZM317.522 71.074H316.08V74.798H324.914V73.636H317.522V71.074ZM314.68 68.75V69.912H326.16V68.75H314.68ZM329.421 65.096H332.781V63.92H327.993V72.138H328.847C330.779 72.138 332.011 72.068 333.439 71.788L333.313 70.598C332.067 70.864 330.989 70.934 329.421 70.948V65.096ZM334.405 67.168H331.913V68.344H334.405V74.476H335.763V62.702H334.405V67.168ZM336.981 62.422V75.064H338.367V62.422H336.981ZM159.31 87.294H153.528V85.684H159.31V87.294ZM160.752 82.926H159.31V84.522H153.528V82.926H152.086V88.456H160.752V82.926ZM162.166 89.828H150.7V90.99H155.67V95.092H157.112V90.99H162.166V89.828ZM172.637 93.762H167.275V92.362H172.637V93.762ZM172.637 91.242H167.275V89.814H165.847V94.924H174.065V89.814H172.637V91.242ZM167.065 87.728C165.945 87.728 165.147 87.014 165.147 85.95C165.147 84.872 165.945 84.186 167.065 84.186C168.157 84.186 168.969 84.872 168.969 85.95C168.969 87.014 168.157 87.728 167.065 87.728ZM172.623 82.436V85.348H170.285C170.005 83.934 168.731 82.996 167.065 82.996C165.161 82.996 163.761 84.214 163.761 85.95C163.761 87.7 165.161 88.918 167.065 88.918C168.745 88.918 170.033 87.952 170.285 86.524H172.623V89.212H174.065V82.436H172.623ZM182.184 83.15C179.538 83.15 177.536 84.578 177.536 86.72C177.536 88.876 179.538 90.29 182.184 90.29C184.816 90.29 186.832 88.876 186.832 86.72C186.832 84.578 184.816 83.15 182.184 83.15ZM182.184 84.34C184.046 84.34 185.432 85.264 185.432 86.72C185.432 88.176 184.046 89.1 182.184 89.1C180.308 89.1 178.936 88.176 178.936 86.72C178.936 85.264 180.308 84.34 182.184 84.34ZM176.472 92.292V93.482H187.924V92.292H176.472ZM195.777 92.404V90.248H199.725V89.086H192.151V87.322H199.445V83.318H190.709V84.48H198.017V86.174H190.737V90.248H194.335V92.404H189.351V93.594H200.803V92.404H195.777ZM213.97 87.294H208.188V85.684H213.97V87.294ZM215.412 82.926H213.97V84.522H208.188V82.926H206.746V88.456H215.412V82.926ZM216.826 89.828H205.36V90.99H210.33V95.092H211.772V90.99H216.826V89.828ZM225.491 87.392C223.965 87.714 222.607 87.784 220.213 87.798V84.41H224.371V83.248H218.771V88.974H219.793C222.509 88.974 223.993 88.904 225.631 88.554L225.491 87.392ZM221.473 91.326H226.709V93.762H221.473V91.326ZM220.045 94.924H228.123V90.192H220.045V94.924ZM229.915 85.418H228.123V82.422H226.681V89.562H228.123V86.608H229.915V85.418ZM237.558 92.376V89.394H241.296V88.232H233.974V84.55H241.184V83.388H232.532V89.394H236.116V92.376H231.132V93.566H242.584V92.376H237.558ZM248.709 85.894C248.709 84.844 249.507 84.158 250.613 84.158C251.719 84.158 252.531 84.844 252.531 85.894C252.531 86.958 251.719 87.658 250.613 87.658C249.507 87.658 248.709 86.958 248.709 85.894ZM256.185 86.468V89.128H257.627V82.45H256.185V85.278H253.833C253.553 83.892 252.279 82.968 250.613 82.968C248.723 82.968 247.323 84.172 247.323 85.894C247.323 87.644 248.723 88.848 250.613 88.848C252.293 88.848 253.567 87.896 253.847 86.468H256.185ZM251.719 93.818H249.913V92.348H251.719V93.818ZM251.719 89.856V91.284H249.913V89.856H248.569V94.924H253.049V89.856H251.719ZM256.717 89.758H255.289V90.766C255.289 92.012 254.575 93.328 253.049 93.958L253.777 95.05C254.855 94.602 255.569 93.79 255.989 92.838C256.381 93.804 257.109 94.616 258.229 95.05L258.943 93.958C257.417 93.398 256.717 92.11 256.717 90.766V89.758ZM268.77 84.858C268.77 86.37 268.77 88.162 268.28 90.64L269.736 90.794C270.226 88.176 270.226 86.426 270.226 84.858V83.612H261.224V84.788H268.77V84.858ZM265.746 92.236V87.784H264.29V92.236H260.034V93.426H271.458V92.236H265.746ZM278.158 83.822H276.73V92.082H277.738C279.684 92.082 281.532 91.956 283.548 91.564L283.38 90.374C281.602 90.724 279.908 90.864 278.158 90.878V83.822ZM285.116 82.436V86.496H281.448V87.672H285.116V95.106H286.558V82.436H285.116ZM297.533 86.944H291.751V84.256H297.533V86.944ZM298.961 83.108H290.323V88.106H298.961V83.108ZM300.389 89.66H288.923V90.822H293.893V95.078H295.335V90.822H300.389V89.66ZM305.954 86.958C308.222 86.776 310 85.964 310.672 84.746C311.344 85.964 313.122 86.776 315.376 86.958L315.838 85.866C313.556 85.698 311.918 84.9 311.666 83.906H315.348V82.8H305.996V83.906H309.664C309.412 84.9 307.774 85.698 305.506 85.866L305.954 86.958ZM310.658 94.168C309.132 94.168 308.32 93.944 308.32 93.468C308.32 92.992 309.132 92.768 310.658 92.768C312.184 92.768 312.996 92.992 312.996 93.468C312.996 93.944 312.184 94.168 310.658 94.168ZM310.658 91.802C308.208 91.802 306.822 92.362 306.822 93.468C306.822 94.574 308.208 95.134 310.658 95.134C313.094 95.134 314.48 94.574 314.48 93.468C314.48 92.362 313.094 91.802 310.658 91.802ZM311.386 89.142H309.93V90.192H305.996V91.298H315.334V90.192H311.386V89.142ZM311.372 87.546V86.202H309.93V87.546H304.946V88.694H316.412V87.546H311.372ZM323.551 83.99C325.399 83.99 326.561 84.508 326.561 85.39C326.561 86.286 325.399 86.804 323.551 86.804C321.689 86.804 320.527 86.286 320.527 85.39C320.527 84.508 321.689 83.99 323.551 83.99ZM323.551 87.966C326.281 87.966 328.059 87 328.059 85.39C328.059 83.794 326.281 82.828 323.551 82.828C320.821 82.828 319.043 83.794 319.043 85.39C319.043 87 320.821 87.966 323.551 87.966ZM320.723 91.158H319.267V94.84H327.989V93.664H320.723V91.158ZM317.825 88.988V90.164H329.263V88.988H317.825ZM334.352 83.766V84.942H338.748C338.51 87.812 337.082 90.038 333.792 91.662L334.562 92.782C338.846 90.654 340.218 87.476 340.218 83.766H334.352ZM342.878 82.436V87.406H340.162V88.596H342.878V95.092H344.334V82.436H342.878ZM348.519 88.386H351.851V83.738H347.105V84.914H350.465V87.224H347.133V92.152H347.987C349.541 92.152 350.941 92.11 352.635 91.816L352.509 90.64C351.067 90.878 349.835 90.948 348.519 90.962V88.386ZM356.149 82.436V87.322H354.651V82.688H353.293V94.448H354.651V88.498H356.149V95.064H357.521V82.436H356.149ZM363.092 84.284C364.184 84.284 364.982 85.012 364.982 86.104C364.982 87.182 364.184 87.91 363.092 87.91C361.986 87.91 361.174 87.182 361.174 86.104C361.174 85.012 361.986 84.284 363.092 84.284ZM368.65 85.25V86.902H366.242C366.312 86.65 366.354 86.384 366.354 86.104C366.354 85.796 366.312 85.516 366.228 85.25H368.65ZM368.65 88.064V89.59H370.092V82.436H368.65V84.088H365.57C364.982 83.472 364.114 83.094 363.092 83.094C361.202 83.094 359.802 84.34 359.802 86.104C359.802 87.868 361.202 89.114 363.092 89.114C364.142 89.114 365.038 88.722 365.626 88.064H368.65ZM368.804 90.01H367.39V90.71C367.39 91.676 366.872 92.88 365.752 93.65C364.646 92.95 364.156 91.802 364.156 90.71V90.01H362.756V90.71C362.756 91.956 361.916 93.3 360.292 93.874L361.006 94.938C362.168 94.49 362.994 93.664 363.442 92.67C363.834 93.706 364.576 94.588 365.766 95.036C366.928 94.56 367.67 93.65 368.076 92.642C368.51 93.664 369.336 94.504 370.554 94.938L371.268 93.874C369.616 93.328 368.804 92.04 368.804 90.71V90.01ZM375.901 90.99C374.823 90.99 374.081 89.814 374.081 87.812C374.081 85.852 374.823 84.662 375.901 84.662C376.993 84.662 377.735 85.852 377.735 87.812C377.735 89.814 376.993 90.99 375.901 90.99ZM381.543 82.422V87.14H379.079C378.883 84.816 377.595 83.36 375.901 83.36C374.039 83.36 372.709 85.096 372.709 87.812C372.709 90.556 374.039 92.278 375.901 92.278C377.637 92.278 378.925 90.766 379.093 88.316H381.543V95.106H382.999V82.422H381.543ZM389.494 89.604C389.984 89.716 390.53 89.772 391.09 89.772C391.65 89.772 392.196 89.716 392.686 89.59V92.348H389.494V89.604ZM391.09 84.298C392.994 84.298 394.324 85.138 394.324 86.468C394.324 87.812 392.994 88.652 391.09 88.652C389.172 88.652 387.842 87.812 387.842 86.468C387.842 85.138 389.172 84.298 391.09 84.298ZM394.128 92.348V89.058C395.136 88.484 395.738 87.588 395.738 86.468C395.738 84.452 393.778 83.164 391.09 83.164C388.388 83.164 386.442 84.452 386.442 86.468C386.442 87.588 387.044 88.498 388.052 89.058V92.348H385.378V93.524H396.83V92.348H394.128ZM402.905 90.038C403.605 90.038 404.347 89.604 404.991 88.568L404.109 87.924C403.759 88.568 403.381 88.862 402.933 88.862C402.051 88.862 401.421 87.574 400.161 87.574C399.447 87.574 398.705 87.994 398.075 89.058L398.943 89.688C399.293 89.044 399.685 88.75 400.133 88.75C401.015 88.75 401.631 90.038 402.905 90.038ZM412.037 91.662C411.057 91.662 410.301 91.214 410.301 90.486C410.301 89.772 411.057 89.324 412.037 89.324C413.017 89.324 413.759 89.772 413.759 90.486C413.759 91.214 413.017 91.662 412.037 91.662ZM412.037 88.12C410.189 88.12 408.831 89.1 408.831 90.486C408.831 91.886 410.189 92.866 412.037 92.866C413.885 92.866 415.243 91.886 415.243 90.486C415.243 89.1 413.885 88.12 412.037 88.12ZM412.765 86.146V84.508H411.309V86.146H407.837V87.336H416.209V86.146H412.765ZM424.916 91.662C423.936 91.662 423.18 91.214 423.18 90.486C423.18 89.772 423.936 89.324 424.916 89.324C425.896 89.324 426.638 89.772 426.638 90.486C426.638 91.214 425.896 91.662 424.916 91.662ZM424.916 88.12C423.068 88.12 421.71 89.1 421.71 90.486C421.71 91.886 423.068 92.866 424.916 92.866C426.764 92.866 428.122 91.886 428.122 90.486C428.122 89.1 426.764 88.12 424.916 88.12ZM425.644 86.146V84.508H424.188V86.146H420.716V87.336H429.088V86.146H425.644Z" fill="#777777"/>
<path d="M369.248 117.12H372.416V116.1H369.248V117.12ZM376.712 120H378.056V118.296L379.172 117.012L380.96 120H382.46L379.964 116.076L382.208 113.4H380.684L378.092 116.604H378.056V110.436H376.712V120ZM383.614 120H384.982V115.884C385.402 114.84 386.05 114.468 386.59 114.468C386.854 114.468 387.022 114.504 387.25 114.576L387.502 113.376C387.298 113.28 387.082 113.232 386.758 113.232C386.05 113.232 385.354 113.736 384.886 114.588H384.85L384.742 113.4H383.614V120ZM389.892 120.156C390.228 120.156 390.468 120.108 390.636 120.048L390.456 119.004C390.336 119.028 390.288 119.028 390.228 119.028C390.06 119.028 389.892 118.896 389.892 118.524V110.436H388.524V118.452C388.524 119.52 388.896 120.156 389.892 120.156ZM394.847 120.156C395.711 120.156 396.467 119.868 397.079 119.46L396.599 118.584C396.119 118.896 395.615 119.076 395.027 119.076C393.887 119.076 393.095 118.32 392.987 117.06H397.271C397.307 116.904 397.331 116.628 397.331 116.364C397.331 114.492 396.395 113.232 394.643 113.232C393.095 113.232 391.631 114.564 391.631 116.712C391.631 118.884 393.059 120.156 394.847 120.156ZM392.975 116.112C393.107 114.948 393.839 114.312 394.667 114.312C395.627 114.312 396.143 114.972 396.143 116.112H392.975ZM401.632 120.156C402.496 120.156 403.252 119.868 403.864 119.46L403.384 118.584C402.904 118.896 402.4 119.076 401.812 119.076C400.672 119.076 399.88 118.32 399.772 117.06H404.056C404.092 116.904 404.116 116.628 404.116 116.364C404.116 114.492 403.18 113.232 401.428 113.232C399.88 113.232 398.416 114.564 398.416 116.712C398.416 118.884 399.844 120.156 401.632 120.156ZM399.76 116.112C399.892 114.948 400.624 114.312 401.452 114.312C402.412 114.312 402.928 114.972 402.928 116.112H399.76ZM405.657 120H410.697V118.86H408.969V111.168H407.925C407.421 111.48 406.833 111.684 406.005 111.84V112.716H407.589V118.86H405.657V120ZM412.501 120H417.541V118.86H415.813V111.168H414.769C414.265 111.48 413.677 111.684 412.849 111.84V112.716H414.433V118.86H412.501V120ZM418.841 120H424.541V118.824H422.333C421.901 118.824 421.349 118.86 420.893 118.908C422.765 117.12 424.121 115.356 424.121 113.652C424.121 112.056 423.077 111 421.457 111C420.305 111 419.525 111.504 418.769 112.32L419.549 113.088C420.017 112.548 420.593 112.104 421.289 112.104C422.273 112.104 422.789 112.764 422.789 113.724C422.789 115.176 421.445 116.892 418.841 119.196V120ZM428.372 120.156C429.92 120.156 431.348 119.052 431.348 117.096C431.348 115.164 430.136 114.288 428.66 114.288C428.18 114.288 427.82 114.408 427.448 114.6L427.652 112.332H430.928V111.168H426.452L426.188 115.356L426.86 115.8C427.376 115.464 427.712 115.296 428.276 115.296C429.284 115.296 429.956 115.968 429.956 117.144C429.956 118.32 429.2 119.028 428.204 119.028C427.28 119.028 426.644 118.584 426.14 118.08L425.48 118.98C426.104 119.592 426.98 120.156 428.372 120.156Z" fill="#777777"/>
<g filter="url(#filter1_d_5870_19356)">
<rect x="12" y="117" width="300" height="153" rx="16" fill="#127BF2"/>
</g>
<path opacity="0.4" d="M42.4349 138.843C41.3363 138.905 40.3108 139.203 39.4305 139.929C38.6228 140.595 38.0552 141.429 37.7425 142.492C37.8808 142.53 37.99 142.561 38.106 142.591C40.6017 143.165 42.224 145.551 42.0056 148.32C41.809 150.775 39.714 152.878 37.3641 152.993C34.7455 153.124 32.5339 151.333 32.0971 148.695C31.821 147.012 32.1629 145.398 32.7522 143.838C34.2722 139.822 38.0043 137.084 42.0348 137C42.1657 137 42.304 137.008 42.4349 137.008C42.4349 137.62 42.4349 138.231 42.4349 138.843Z" fill="white"/>
<path opacity="0.4" d="M54.2608 137.042C54.2608 137.645 54.2608 138.242 54.2608 138.845C51.9657 139.021 50.4086 140.206 49.5826 142.484C49.7364 142.53 49.8536 142.56 49.9702 142.591C52.4773 143.164 54.1076 145.549 53.8881 148.316C53.6909 150.762 51.593 152.871 49.2322 152.993C46.6005 153.123 44.3786 151.342 43.9327 148.706C43.6475 147.016 43.9544 145.365 44.6055 143.821C46.3741 139.617 49.466 137.332 53.859 137.003C53.9538 136.996 54.0562 137.003 54.1511 137.003C54.1733 137.011 54.1951 137.019 54.2608 137.042Z" fill="white"/>
<path d="M43.676 173.61C41.184 173.162 39.154 171.216 39.154 169.2V168.248H37.628V169.2C37.628 171.202 35.598 173.148 33.106 173.61L33.722 174.8C35.78 174.38 37.558 173.064 38.384 171.328C39.21 173.064 40.988 174.38 43.046 174.8L43.676 173.61ZM32.714 177.264V178.454H44.166V177.264H32.714ZM52.0329 177.404V175.024H55.7709V173.876H48.4769V172.224H55.3789V171.09H48.4769V169.564H55.6589V168.388H47.0069V175.024H50.5769V177.404H45.5929V178.594H57.0449V177.404H52.0329ZM61.8738 175.99C60.7958 175.99 60.0538 174.814 60.0538 172.812C60.0538 170.852 60.7958 169.662 61.8738 169.662C62.9658 169.662 63.7078 170.852 63.7078 172.812C63.7078 174.814 62.9658 175.99 61.8738 175.99ZM67.5158 167.422V172.14H65.0518C64.8558 169.816 63.5678 168.36 61.8738 168.36C60.0118 168.36 58.6818 170.096 58.6818 172.812C58.6818 175.556 60.0118 177.278 61.8738 177.278C63.6098 177.278 64.8978 175.766 65.0658 173.316H67.5158V180.106H68.9718V167.422H67.5158ZM85.9333 173.61H84.1693C84.4913 171.818 84.4913 170.502 84.4913 169.312V168.206H75.8673V169.368H83.0773C83.0773 170.53 83.0773 171.846 82.7133 173.61H74.4953V174.8H79.4373V180.078H80.8933V174.8H85.9333V173.61ZM89.1382 169.97H91.3222V175.64H89.1382V169.97ZM87.7942 176.788H92.6662V168.822H87.7942V176.788ZM96.7962 167.436V172.364H95.3542V167.674H93.9962V179.476H95.3542V173.54H96.7962V180.064H98.1682V167.436H96.7962ZM112.344 167.422V180.106H113.8V167.422H112.344ZM107.066 168.36C105.19 168.36 103.818 170.096 103.818 172.812C103.818 175.556 105.19 177.278 107.066 177.278C108.956 177.278 110.328 175.556 110.328 172.812C110.328 170.096 108.956 168.36 107.066 168.36ZM107.066 169.662C108.172 169.662 108.942 170.852 108.942 172.812C108.942 174.8 108.172 175.99 107.066 175.99C105.974 175.99 105.204 174.8 105.204 172.812C105.204 170.852 105.974 169.662 107.066 169.662ZM127.071 168.822H122.703V167.394H121.261V168.822H116.837V169.97H127.071V168.822ZM124.691 172.728C124.691 173.414 123.753 173.792 121.989 173.792C120.225 173.792 119.273 173.414 119.273 172.728C119.273 172.042 120.225 171.678 121.989 171.678C123.753 171.678 124.691 172.042 124.691 172.728ZM117.775 172.728C117.775 174.1 119.357 174.87 121.989 174.87C124.621 174.87 126.203 174.1 126.203 172.728C126.203 171.356 124.621 170.586 121.989 170.586C119.357 170.586 117.775 171.356 117.775 172.728ZM127.729 175.626H116.263V176.788H121.261V180.092H122.703V176.788H127.729V175.626ZM131.997 176.032C131.129 176.032 130.597 174.898 130.597 172.896C130.597 170.894 131.129 169.774 131.997 169.774C132.865 169.774 133.397 170.894 133.397 172.896C133.397 174.898 132.865 176.032 131.997 176.032ZM136.043 172.224H134.685C134.531 169.858 133.509 168.416 131.997 168.416C130.359 168.416 129.281 170.124 129.281 172.896C129.281 175.668 130.359 177.39 131.997 177.39C133.537 177.39 134.573 175.878 134.699 173.414H136.043V179.476H137.387V167.674H136.043V172.224ZM138.577 167.436V180.064H139.949V167.436H138.577ZM148.46 177.376V174.394H152.198V173.232H144.876V169.55H152.086V168.388H143.434V174.394H147.018V177.376H142.034V178.566H153.486V177.376H148.46ZM160.914 169.718H162.594V173.666C162.034 173.694 161.46 173.722 160.914 173.736V169.718ZM165.66 173.428C165.128 173.498 164.568 173.554 163.994 173.596V169.718H165.142V168.542H158.38V169.718H159.528V173.75C159.01 173.764 158.506 173.764 158.044 173.764L158.198 174.954C160.354 174.954 163.252 174.884 165.758 174.478L165.66 173.428ZM161.376 175.878H159.92V179.84H168.432V178.664H161.376V175.878ZM167.928 171.174V167.436H166.486V176.746H167.928V172.364H169.72V171.174H167.928ZM172.701 169.97H174.885V175.64H172.701V169.97ZM171.357 176.788H176.229V168.822H171.357V176.788ZM180.359 167.436V172.364H178.917V167.674H177.559V179.476H178.917V173.54H180.359V180.064H181.731V167.436H180.359ZM188.24 169.886H190.914V168.696H184.04V169.886H186.798V171.104C186.798 173.204 185.51 175.598 183.578 176.522L184.404 177.67C185.86 176.956 186.98 175.444 187.54 173.68C188.114 175.276 189.192 176.676 190.606 177.348L191.404 176.214C189.486 175.304 188.24 173.064 188.24 171.104V169.886ZM195.576 172.42H193.602V167.436H192.16V180.078H193.602V173.61H195.576V172.42ZM205.22 171.818H199.592V170.404H205.22V171.818ZM206.648 167.828H205.22V169.298H199.592V167.828H198.164V172.952H206.648V167.828ZM199.522 176.382H198.08V179.84H206.872V178.664H199.522V176.382ZM196.68 174.016V175.178H201.804V177.432H203.246V175.178H208.146V174.016H196.68ZM209.839 168.906V170.082H211.435C211.337 172.49 210.931 174.618 209.503 176.606L210.609 177.236C212.317 174.744 212.653 171.832 212.653 168.906H209.839ZM216.671 172.294H215.299C215.425 171.146 215.453 169.998 215.453 168.906H213.059V170.082H214.221C214.179 172.546 213.885 175.108 212.303 177.334L213.423 177.964C214.361 176.578 214.865 175.038 215.145 173.47H216.671V179.462H218.029V167.73H216.671V172.294ZM219.065 167.422V180.092H220.437V167.422H219.065ZM227.03 168.458H225.574V170.544C225.574 172.91 224.342 175.346 222.368 176.312L223.278 177.46C224.72 176.718 225.756 175.248 226.316 173.456C226.862 175.15 227.884 176.536 229.312 177.25L230.166 176.088C228.234 175.192 227.03 172.896 227.03 170.544V168.458ZM231.496 167.408V171.566H228.794V172.742H231.496V180.092H232.952V167.408H231.496ZM248.892 167.45H247.45V176.746H248.892V167.45ZM246.288 173.96C244.342 173.386 243.194 171.93 243.194 170.376V170.166H245.91V169.018H243.194V167.492H241.752V169.018H239.008V170.166H241.752V170.376C241.752 172.028 240.618 173.568 238.658 174.184L239.358 175.318C240.856 174.828 241.934 173.82 242.494 172.532C243.068 173.722 244.146 174.646 245.616 175.094L246.288 173.96ZM242.088 178.664V175.892H240.632V179.84H249.256V178.664H242.088ZM258.145 170.152V171.328H260.371V173.918H261.827V167.436H260.371V170.152H258.145ZM258.817 172.728C256.955 172.14 255.863 170.74 255.863 169.312V169.172H258.509V168.01H251.747V169.172H254.407V169.298C254.407 170.796 253.259 172.364 251.327 173.008L252.027 174.128C253.511 173.652 254.589 172.616 255.149 171.356C255.695 172.49 256.731 173.4 258.145 173.848L258.817 172.728ZM255.037 178.818V177.698H261.827V174.492H253.595V175.626H260.399V176.634H253.609V179.952H262.247V178.818H255.037ZM267.916 176.172C266.894 176.172 266.152 175.472 266.152 174.408C266.152 173.344 266.894 172.644 267.916 172.644C268.938 172.644 269.68 173.344 269.68 174.408C269.68 175.472 268.938 176.172 267.916 176.172ZM267.916 171.454C266.096 171.454 264.78 172.686 264.78 174.408C264.78 176.144 266.096 177.362 267.916 177.362C269.722 177.362 271.052 176.144 271.052 174.408C271.052 172.686 269.722 171.454 267.916 171.454ZM268.616 167.618H267.174V169.382H264.164V170.558H271.57V169.382H268.616V167.618ZM275.994 172.518H274.048V167.436H272.592V180.092H274.048V173.722H275.994V172.518ZM283.888 172.462H282.026C282.39 171.384 282.558 170.222 282.558 168.99H277.644V170.152H281.13C280.92 172.742 279.674 174.814 277.042 176.382L277.868 177.404C279.618 176.354 280.822 175.08 281.564 173.624H283.888V179.476H285.246V167.744H283.888V172.462ZM286.534 167.436V180.078H287.92V167.436H286.534ZM33.218 188.192V189.354H37.572C37.32 191.286 35.584 192.854 32.616 193.61L33.204 194.744C36.928 193.75 39.098 191.468 39.098 188.192H33.218ZM34.268 196.536H41.142V200.092H42.584V195.374H34.268V196.536ZM44.376 190.53H42.584V187.422H41.142V194.814H42.584V191.72H44.376V190.53ZM46.6569 192.602C48.8829 192.364 50.6189 191.468 51.3049 190.166C51.9769 191.468 53.7129 192.364 55.9389 192.602L56.4569 191.482C54.1049 191.244 52.4809 190.264 52.2849 189.144H55.9809V187.982H46.6429V189.144H50.3109C50.1009 190.264 48.4909 191.244 46.1529 191.482L46.6569 192.602ZM51.2769 198.972C49.4149 198.972 48.3929 198.608 48.3929 197.866C48.3929 197.138 49.4149 196.76 51.2769 196.76C53.1389 196.76 54.1749 197.138 54.1749 197.866C54.1749 198.608 53.1389 198.972 51.2769 198.972ZM51.2769 195.654C48.5609 195.654 46.9229 196.452 46.9229 197.866C46.9229 199.28 48.5609 200.078 51.2769 200.078C54.0069 200.078 55.6309 199.28 55.6309 197.866C55.6309 196.452 54.0069 195.654 51.2769 195.654ZM52.0049 193.624V191.93H50.5629V193.624H45.5789V194.786H57.0169V193.624H52.0049ZM69.3163 192.644C67.6363 192.91 66.1943 192.98 63.7583 192.98V191.664H68.0143V190.53H63.7583V189.27H68.3783V188.108H62.3303V194.128H63.3803C66.0963 194.128 67.6503 194.086 69.4563 193.778L69.3163 192.644ZM70.6043 198.762H65.2003V197.446H70.6043V198.762ZM70.6043 196.312H65.2003V195.052H63.7723V199.924H72.0323V195.052H70.6043V196.312ZM70.5903 187.436V194.478H72.0323V187.436H70.5903ZM83.4413 187.422V200.106H84.8973V187.422H83.4413ZM78.1633 188.36C76.2873 188.36 74.9153 190.096 74.9153 192.812C74.9153 195.556 76.2873 197.278 78.1633 197.278C80.0533 197.278 81.4253 195.556 81.4253 192.812C81.4253 190.096 80.0533 188.36 78.1633 188.36ZM78.1633 189.662C79.2693 189.662 80.0393 190.852 80.0393 192.812C80.0393 194.8 79.2693 195.99 78.1633 195.99C77.0713 195.99 76.3013 194.8 76.3013 192.812C76.3013 190.852 77.0713 189.662 78.1633 189.662ZM89.2502 188.668H87.8082V196.928H88.8582C90.7622 196.928 92.7222 196.788 94.8642 196.368L94.6962 195.178C92.7782 195.57 90.9582 195.71 89.2502 195.724V188.668ZM99.0782 192.364H97.1602V187.436H95.7182V200.078H97.1602V193.554H99.0782V192.364ZM109.838 197.362V194.212H113.59V193.036H106.198V188.458H104.742V194.212H108.382V197.362H103.398V198.552H114.85V197.362H109.838ZM119.959 196.172C118.937 196.172 118.195 195.472 118.195 194.408C118.195 193.344 118.937 192.644 119.959 192.644C120.981 192.644 121.723 193.344 121.723 194.408C121.723 195.472 120.981 196.172 119.959 196.172ZM119.959 191.454C118.139 191.454 116.823 192.686 116.823 194.408C116.823 196.144 118.139 197.362 119.959 197.362C121.765 197.362 123.095 196.144 123.095 194.408C123.095 192.686 121.765 191.454 119.959 191.454ZM120.659 187.618H119.217V189.382H116.207V190.558H123.613V189.382H120.659V187.618ZM128.037 192.518H126.091V187.436H124.635V200.092H126.091V193.722H128.037V192.518ZM134.853 189.06C136.659 189.06 137.849 189.676 137.849 190.698C137.849 191.734 136.659 192.35 134.853 192.35C133.033 192.35 131.843 191.734 131.843 190.698C131.843 189.676 133.033 189.06 134.853 189.06ZM134.853 193.512C137.513 193.512 139.333 192.42 139.333 190.698C139.333 188.99 137.513 187.898 134.853 187.898C132.179 187.898 130.359 188.99 130.359 190.698C130.359 192.42 132.179 193.512 134.853 193.512ZM140.607 194.59H129.141V195.78H134.111V200.078H135.553V195.78H140.607V194.59ZM144.876 196.032C144.008 196.032 143.476 194.898 143.476 192.896C143.476 190.894 144.008 189.774 144.876 189.774C145.744 189.774 146.276 190.894 146.276 192.896C146.276 194.898 145.744 196.032 144.876 196.032ZM148.922 192.224H147.564C147.41 189.858 146.388 188.416 144.876 188.416C143.238 188.416 142.16 190.124 142.16 192.896C142.16 195.668 143.238 197.39 144.876 197.39C146.416 197.39 147.452 195.878 147.578 193.414H148.922V199.476H150.266V187.674H148.922V192.224ZM151.456 187.436V200.064H152.828V187.436H151.456ZM159.892 190.11H163.154V188.934H158.478V197.068H159.318C161.096 197.068 162.398 197.012 163.924 196.718L163.798 195.528C162.496 195.794 161.348 195.864 159.892 195.878V190.11ZM167.466 187.422V192.42H165.968V187.688H164.61V199.448H165.968V193.596H167.466V200.064H168.838V187.422H167.466ZM174.017 196.046C173.163 196.046 172.561 195.36 172.561 194.31C172.561 193.26 173.163 192.56 174.017 192.56C174.871 192.56 175.473 193.26 175.473 194.31C175.473 195.36 174.871 196.046 174.017 196.046ZM174.017 191.37C172.421 191.37 171.273 192.56 171.273 194.31C171.273 196.046 172.421 197.25 174.017 197.25C175.613 197.25 176.761 196.046 176.761 194.31C176.761 192.56 175.613 191.37 174.017 191.37ZM174.731 187.8H173.303V189.494H170.909V190.656H177.097V189.494H174.731V187.8ZM180.331 187.436V192.672H178.987V187.702H177.643V199.49H178.987V193.862H180.331V200.078H181.703V187.436H180.331ZM188.514 190.684C188.514 189.676 189.326 189.018 190.446 189.018C191.552 189.018 192.35 189.676 192.35 190.684C192.35 191.692 191.552 192.364 190.446 192.364C189.326 192.364 188.514 191.692 188.514 190.684ZM193.75 190.684C193.75 189.018 192.35 187.842 190.446 187.842C188.528 187.842 187.114 189.018 187.114 190.684C187.114 192.35 188.528 193.526 190.446 193.526C192.35 193.526 193.75 192.35 193.75 190.684ZM190.11 197.628H196.83V194.366H188.668V195.5H195.402V196.578H188.696V199.924H197.25V198.776H190.11V197.628ZM196.83 190.026V187.422H195.388V193.82H196.83V191.216H198.608V190.026H196.83ZM201.701 193.232H205.831V188.528H200.259V189.69H204.417V192.07H200.287V197.208H201.253C203.213 197.208 204.837 197.166 206.755 196.858L206.643 195.668C204.907 195.934 203.423 196.004 201.701 196.018V193.232ZM208.869 187.408V190.222H206.559V191.398H208.869V193.666H206.489V194.842H208.869V200.092H210.311V187.408H208.869ZM213.866 193.624C215.952 193.316 217.66 192.28 218.43 190.88C219.2 192.28 220.922 193.316 223.008 193.624L223.526 192.49C221.118 192.168 219.34 190.782 219.256 189.312H223.078V188.15H213.768V189.312H217.618C217.534 190.782 215.756 192.168 213.348 192.49L213.866 193.624ZM224.156 194.548H212.718V195.71H217.674V200.092H219.116V195.71H224.142L224.156 194.548ZM230.175 188.472H228.719V190.558C228.719 192.924 227.487 195.346 225.513 196.298L226.423 197.46C227.851 196.704 228.901 195.234 229.447 193.442C229.993 195.164 231.029 196.592 232.457 197.292L233.311 196.144C231.379 195.248 230.175 192.91 230.175 190.558V188.472ZM234.627 187.422V190.082H232.093V191.272H234.627V193.204H232.093V194.394H234.627V200.092H236.097V187.422H234.627ZM243.054 188.458H241.598V190.544C241.598 192.91 240.366 195.346 238.392 196.312L239.302 197.46C240.744 196.718 241.78 195.248 242.34 193.456C242.886 195.15 243.908 196.536 245.336 197.25L246.19 196.088C244.258 195.192 243.054 192.896 243.054 190.544V188.458ZM247.52 187.408V191.566H244.818V192.742H247.52V200.092H248.976V187.408H247.52ZM37.726 215.934H34.59V212.84H37.726V215.934ZM37.726 211.692H34.59V208.472H33.148V217.096H39.154V208.472H37.726V211.692ZM44.474 212.294H42.5V207.436H41.058V220.092H42.5V213.498H44.474V212.294ZM52.0189 217.404V215.248H55.9669V214.086H48.3929V212.322H55.6869V208.318H46.9509V209.48H54.2589V211.174H46.9789V215.248H50.5769V217.404H45.5929V218.594H57.0449V217.404H52.0189ZM63.3803 209.97H65.5643V215.64H63.3803V209.97ZM62.0363 216.788H66.9083V208.822H62.0363V216.788ZM71.0383 207.436V212.364H69.5963V207.674H68.2383V219.476H69.5963V213.54H71.0383V220.064H72.4103V207.436H71.0383ZM75.4473 212.476C77.6873 212.322 79.3953 211.706 80.1933 210.642C80.9913 211.706 82.7273 212.322 84.9673 212.476L85.3593 211.398C82.8953 211.258 81.3273 210.558 81.0473 209.564H84.7853V208.486H80.9213V207.38H79.4793V208.486H75.6292V209.564H79.3533C79.0733 210.558 77.5193 211.258 75.0273 211.398L75.4473 212.476ZM85.9193 214.016V212.938H74.5093V214.016H79.4793V214.996H75.8392V216.06H83.0773V216.942H75.8673V219.966H84.8553V218.888H77.2953V217.936H84.4913V214.996H80.9213V214.016H85.9193ZM96.3202 207.422V220.106H97.7762V207.422H96.3202ZM91.0422 208.36C89.1662 208.36 87.7942 210.096 87.7942 212.812C87.7942 215.556 89.1662 217.278 91.0422 217.278C92.9322 217.278 94.3042 215.556 94.3042 212.812C94.3042 210.096 92.9322 208.36 91.0422 208.36ZM91.0422 209.662C92.1482 209.662 92.9182 210.852 92.9182 212.812C92.9182 214.8 92.1482 215.99 91.0422 215.99C89.9502 215.99 89.1802 214.8 89.1802 212.812C89.1802 210.852 89.9502 209.662 91.0422 209.662ZM111.392 211.86H112.722V215.206H114.094V207.45H112.722V210.684H111.392V207.674H110.034V214.8H111.392V211.86ZM109.74 213.232C108.102 212.588 107.276 211.202 107.276 209.802V208.206H105.876V209.802C105.876 211.244 105.022 212.826 103.328 213.596L104.084 214.702C105.302 214.17 106.128 213.19 106.59 212.028C107.066 213.036 107.85 213.876 108.97 214.31L109.74 213.232ZM109.88 218.972C108.102 218.972 107.038 218.538 107.038 217.768C107.038 216.984 108.102 216.55 109.88 216.55C111.658 216.55 112.722 216.984 112.722 217.768C112.722 218.538 111.658 218.972 109.88 218.972ZM109.88 215.444C107.248 215.444 105.596 216.312 105.596 217.768C105.596 219.21 107.248 220.078 109.88 220.078C112.512 220.078 114.164 219.21 114.164 217.768C114.164 216.312 112.512 215.444 109.88 215.444ZM116.963 214.772C119.678 214.03 121.569 212.574 122.381 210.558H125.307V212.014H122.241V213.19H125.307V214.59H126.749V207.436H125.307V209.396H122.703C122.773 209.018 122.815 208.612 122.815 208.192H117.089V209.368H121.275C121.023 211.314 119.287 212.854 116.403 213.638L116.963 214.772ZM125.391 214.982H123.963V215.738C123.963 216.718 123.459 217.908 122.325 218.678C121.219 217.964 120.729 216.816 120.729 215.738V214.982H119.329V215.738C119.329 216.984 118.489 218.314 116.879 218.902L117.593 219.952C118.769 219.518 119.567 218.692 120.015 217.698C120.421 218.734 121.163 219.616 122.353 220.078C123.501 219.588 124.257 218.678 124.663 217.67C125.097 218.692 125.909 219.518 127.127 219.952L127.855 218.902C126.203 218.356 125.391 217.082 125.391 215.738V214.982ZM132.557 215.99C131.479 215.99 130.737 214.814 130.737 212.812C130.737 210.852 131.479 209.662 132.557 209.662C133.649 209.662 134.391 210.852 134.391 212.812C134.391 214.814 133.649 215.99 132.557 215.99ZM138.199 207.422V212.14H135.735C135.539 209.816 134.251 208.36 132.557 208.36C130.695 208.36 129.365 210.096 129.365 212.812C129.365 215.556 130.695 217.278 132.557 217.278C134.293 217.278 135.581 215.766 135.749 213.316H138.199V220.106H139.655V207.422H138.199ZM146.15 214.604C146.64 214.716 147.186 214.772 147.746 214.772C148.306 214.772 148.852 214.716 149.342 214.59V217.348H146.15V214.604ZM147.746 209.298C149.65 209.298 150.98 210.138 150.98 211.468C150.98 212.812 149.65 213.652 147.746 213.652C145.828 213.652 144.498 212.812 144.498 211.468C144.498 210.138 145.828 209.298 147.746 209.298ZM150.784 217.348V214.058C151.792 213.484 152.394 212.588 152.394 211.468C152.394 209.452 150.434 208.164 147.746 208.164C145.044 208.164 143.098 209.452 143.098 211.468C143.098 212.588 143.7 213.498 144.708 214.058V217.348H142.034V218.524H153.486V217.348H150.784ZM156.061 215.71H157.139L157.363 210.11L157.419 208.458H155.795L155.837 210.11L156.061 215.71ZM156.593 219.182C157.209 219.182 157.685 218.72 157.685 218.062C157.685 217.404 157.209 216.914 156.593 216.914C155.991 216.914 155.529 217.404 155.529 218.062C155.529 218.72 155.991 219.182 156.593 219.182ZM166.505 208.192V209.368H170.845C170.607 211.286 168.885 212.826 165.931 213.61L166.491 214.758C170.229 213.764 172.399 211.468 172.399 208.192H166.505ZM169.221 216.256H174.443V218.762H169.221V216.256ZM167.793 219.924H175.871V215.108H167.793V219.924ZM177.663 210.362H175.871V207.422H174.429V214.562H175.871V211.552H177.663V210.362ZM183.304 208.486H181.862V210.558C181.862 212.896 180.63 215.29 178.656 216.256L179.538 217.418C180.98 216.676 182.044 215.206 182.59 213.456C183.136 215.108 184.144 216.48 185.502 217.18L186.384 216.032C184.48 215.094 183.304 212.812 183.304 210.558V208.486ZM190.64 212.448H188.666V207.436H187.224V220.078H188.666V213.638H190.64V212.448ZM199.235 208.64H196.225V207.324H194.783V208.64H191.773V209.802H199.235V208.64ZM193.817 212.49C193.817 211.776 194.489 211.342 195.497 211.342C196.505 211.342 197.191 211.776 197.191 212.49C197.191 213.218 196.505 213.652 195.497 213.652C194.489 213.652 193.817 213.218 193.817 212.49ZM198.563 212.49C198.563 211.16 197.331 210.264 195.497 210.264C193.677 210.264 192.431 211.16 192.431 212.49C192.431 213.834 193.677 214.73 195.497 214.73C197.331 214.73 198.563 213.834 198.563 212.49ZM200.201 218.776H194.979V217.614H200.201V218.776ZM200.201 216.494H194.979V215.332H193.551V219.924H201.629V215.332H200.201V216.494ZM203.421 210.586H201.629V207.436H200.187V214.814H201.629V211.776H203.421V210.586ZM206.808 208.668H205.38V216.886H206.458C208.418 216.886 210.462 216.732 212.632 216.284L212.478 215.08C210.49 215.486 208.6 215.64 206.808 215.654V208.668ZM213.64 207.436V220.078H215.082V207.436H213.64ZM219.463 209.802H223.901V208.626H218.021V216.984H219.057C221.339 216.984 223.047 216.914 224.965 216.564L224.811 215.374C223.047 215.682 221.507 215.766 219.463 215.78V209.802ZM229.277 212.294H227.303V207.422H225.861V220.092H227.303V213.484H229.277V212.294ZM233.722 214.576H235.094L236.032 212.042L236.774 209.928H236.844L237.6 212.042L238.538 214.576H239.91L237.502 208.458H236.13L233.722 214.576ZM241.707 214.576H243.079L244.017 212.042L244.759 209.928H244.829L245.585 212.042L246.523 214.576H247.895L245.487 208.458H244.115L241.707 214.576Z" fill="white"/>
<path d="M224.701 242.12H227.869V241.1H224.701V242.12ZM234.445 245.156C235.189 245.156 235.873 244.76 236.365 244.256H236.401L236.521 245H237.649V235.436H236.269V237.884L236.329 238.976C235.789 238.52 235.309 238.232 234.553 238.232C233.077 238.232 231.721 239.564 231.721 241.712C231.721 243.896 232.789 245.156 234.445 245.156ZM234.769 244.016C233.737 244.016 233.149 243.188 233.149 241.688C233.149 240.26 233.893 239.384 234.817 239.384C235.309 239.384 235.777 239.54 236.269 239.984V243.212C235.789 243.764 235.321 244.016 234.769 244.016ZM239.724 245H241.092V240.32C241.644 239.72 242.136 239.42 242.58 239.42C243.336 239.42 243.684 239.876 243.684 241.016V245H245.064V240.32C245.616 239.72 246.096 239.42 246.552 239.42C247.296 239.42 247.656 239.876 247.656 241.016V245H249.036V240.848C249.036 239.168 248.388 238.232 247.008 238.232C246.18 238.232 245.508 238.748 244.86 239.444C244.572 238.688 244.02 238.232 243.036 238.232C242.22 238.232 241.56 238.724 240.996 239.324H240.96L240.852 238.4H239.724V245ZM252.82 245.156C254.452 245.156 255.328 244.256 255.328 243.152C255.328 241.904 254.308 241.496 253.384 241.148C252.664 240.884 251.98 240.668 251.98 240.104C251.98 239.648 252.316 239.288 253.036 239.288C253.588 239.288 254.056 239.528 254.512 239.864L255.16 239.012C254.62 238.592 253.9 238.232 253.012 238.232C251.56 238.232 250.672 239.06 250.672 240.164C250.672 241.28 251.68 241.748 252.556 242.084C253.276 242.36 254.02 242.624 254.02 243.224C254.02 243.728 253.648 244.112 252.856 244.112C252.148 244.112 251.572 243.824 250.984 243.356L250.336 244.244C250.972 244.772 251.908 245.156 252.82 245.156ZM259.078 245.156C259.822 245.156 260.506 244.76 260.998 244.256H261.034L261.154 245H262.282V235.436H260.902V237.884L260.962 238.976C260.422 238.52 259.942 238.232 259.186 238.232C257.71 238.232 256.354 239.564 256.354 241.712C256.354 243.896 257.422 245.156 259.078 245.156ZM259.402 244.016C258.37 244.016 257.782 243.188 257.782 241.688C257.782 240.26 258.526 239.384 259.45 239.384C259.942 239.384 260.41 239.54 260.902 239.984V243.212C260.422 243.764 259.954 244.016 259.402 244.016ZM266.289 245.156C267.201 245.156 267.849 244.7 268.449 244.004H268.485L268.593 245H269.721V238.4H268.341V242.984C267.789 243.68 267.369 243.968 266.757 243.968C265.977 243.968 265.653 243.524 265.653 242.384V238.4H264.273V242.552C264.273 244.232 264.885 245.156 266.289 245.156ZM274.078 245.156C274.822 245.156 275.506 244.76 275.998 244.256H276.034L276.154 245H277.282V235.436H275.902V237.884L275.962 238.976C275.422 238.52 274.942 238.232 274.186 238.232C272.71 238.232 271.354 239.564 271.354 241.712C271.354 243.896 272.422 245.156 274.078 245.156ZM274.402 244.016C273.37 244.016 272.782 243.188 272.782 241.688C272.782 240.26 273.526 239.384 274.45 239.384C274.942 239.384 275.41 239.54 275.902 239.984V243.212C275.422 243.764 274.954 244.016 274.402 244.016ZM279.345 245H284.385V243.86H282.657V236.168H281.613C281.109 236.48 280.521 236.684 279.693 236.84V237.716H281.277V243.86H279.345V245ZM288.372 245.156C289.92 245.156 291.348 244.052 291.348 242.096C291.348 240.164 290.136 239.288 288.66 239.288C288.18 239.288 287.82 239.408 287.448 239.6L287.652 237.332H290.928V236.168H286.452L286.188 240.356L286.86 240.8C287.376 240.464 287.712 240.296 288.276 240.296C289.284 240.296 289.956 240.968 289.956 242.144C289.956 243.32 289.2 244.028 288.204 244.028C287.28 244.028 286.644 243.584 286.14 243.08L285.48 243.98C286.104 244.592 286.98 245.156 288.372 245.156Z" fill="white"/>
<defs>
<filter id="filter0_d_5870_19356" x="118" y="0" width="354" height="165" filterUnits="userSpaceOnUse" color-interpolation-filters="sRGB">
<feFlood flood-opacity="0" result="BackgroundImageFix"/>
<feColorMatrix in="SourceAlpha" type="matrix" values="0 0 0 0 0 0 0 0 0 0 0 0 0 0 0 0 0 0 127 0" result="hardAlpha"/>
<feOffset dx="4" dy="4"/>
<feGaussianBlur stdDeviation="8"/>
<feComposite in2="hardAlpha" operator="out"/>
<feColorMatrix type="matrix" values="0 0 0 0 0 0 0 0 0 0 0 0 0 0 0 0 0 0 0.1 0"/>
<feBlend mode="normal" in2="BackgroundImageFix" result="effect1_dropShadow_5870_19356"/>
<feBlend mode="normal" in="SourceGraphic" in2="effect1_dropShadow_5870_19356" result="shape"/>
</filter>
<filter id="filter1_d_5870_19356" x="0" y="105" width="332" height="185" filterUnits="userSpaceOnUse" color-interpolation-filters="sRGB">
<feFlood flood-opacity="0" result="BackgroundImageFix"/>
<feColorMatrix in="SourceAlpha" type="matrix" values="0 0 0 0 0 0 0 0 0 0 0 0 0 0 0 0 0 0 127 0" result="hardAlpha"/>
<feOffset dx="4" dy="4"/>
<feGaussianBlur stdDeviation="8"/>
<feComposite in2="hardAlpha" operator="out"/>
<feColorMatrix type="matrix" values="0 0 0 0 0 0 0 0 0 0 0 0 0 0 0 0 0 0 0.1 0"/>
<feBlend mode="normal" in2="BackgroundImageFix" result="effect1_dropShadow_5870_19356"/>
<feBlend mode="normal" in="SourceGraphic" in2="effect1_dropShadow_5870_19356" result="shape"/>
</filter>
</defs>
</svg>
