<svg width="456" height="393" viewBox="0 0 456 393" fill="none" xmlns="http://www.w3.org/2000/svg">
<path d="M406.944 353.233C406.944 353.233 396.904 375.767 409.959 388.282H444.133C444.133 388.282 455.937 375.767 446.394 353.233H406.944Z" fill="#1C2738"/>
<path d="M434.301 301.208C433.67 293.21 430.03 285.746 424.11 280.311C419.769 286.891 416.573 294.462 416.422 302.334C416.271 310.206 421.035 319.055 427.246 323.922L427.336 323.397C432.374 317.136 434.86 309.213 434.301 301.208V301.208Z" fill="white"/>
<path d="M434.303 301.209C434.489 301.761 434.585 302.339 434.589 302.921C434.698 304.544 434.662 306.172 434.484 307.789C433.818 313.641 431.526 319.193 427.866 323.818L428.002 323.503V324.028L427.821 325.17L426.901 324.449C423.842 322.034 421.282 319.049 419.364 315.661C417.14 311.89 415.872 307.636 415.671 303.267C415.679 298.829 416.517 294.433 418.143 290.302C419.557 286.652 421.383 283.175 423.585 279.936L424.022 279.275L424.595 279.801C428.912 283.83 432.005 288.99 433.519 294.689C433.945 296.263 434.227 297.871 434.363 299.496C434.455 300.063 434.455 300.641 434.363 301.209C434.167 301.209 434.047 298.835 432.856 294.899C431.131 289.493 428.012 284.634 423.811 280.807L424.836 280.672C422.754 283.861 421.025 287.266 419.68 290.828C418.168 294.792 417.381 298.995 417.359 303.237C417.55 307.352 418.734 311.362 420.811 314.925C422.593 318.163 424.971 321.037 427.821 323.398L426.735 323.818L426.826 323.292V323.112L426.931 322.977C430.527 318.565 432.902 313.293 433.821 307.683C434.409 303.612 434.107 301.224 434.303 301.209Z" fill="#1C2738"/>
<path d="M426.87 294.178C427.307 294.178 427.669 312.791 427.669 335.731C427.669 358.672 427.262 377.3 426.87 377.3C426.478 377.3 426.086 358.687 426.086 335.731C426.086 312.776 426.403 294.178 426.87 294.178Z" fill="#1C2738"/>
<path d="M416.319 321.279C411.926 316.816 406.003 314.17 399.737 313.873C400.288 320.041 402.542 325.938 406.249 330.909C410.093 335.731 417.449 338.6 423.63 338.42L423.419 338.075C423.266 331.783 420.73 325.783 416.319 321.279V321.279Z" fill="white"/>
<path d="M416.319 321.279C417.749 322.277 418.943 323.574 419.817 325.08C422.418 328.914 423.876 333.404 424.023 338.03L423.932 337.699L424.143 338.045L424.761 339.021H423.585C420.501 339.115 417.428 338.605 414.541 337.519C411.277 336.372 408.347 334.442 406.008 331.901C403.758 329.24 402.03 326.183 400.913 322.887C399.917 319.966 399.259 316.942 398.953 313.873L398.863 313.077H399.647C404.283 313.34 408.751 314.902 412.536 317.584C414.022 318.493 415.292 319.713 416.259 321.159C416.139 321.279 414.752 319.927 412.098 318.23C408.329 315.9 404.018 314.585 399.586 314.414L400.295 313.663C400.66 316.603 401.348 319.495 402.345 322.286C403.432 325.396 405.071 328.286 407.184 330.819C409.36 333.158 412.062 334.95 415.068 336.047C417.753 337.068 420.606 337.578 423.48 337.549L422.922 338.586L422.711 338.225L422.621 338.06V337.88C422.555 333.46 421.34 329.132 419.093 325.32C417.45 322.721 416.123 321.399 416.319 321.279Z" fill="#1C2738"/>
<path d="M427.218 342.763C426.856 343.033 423.796 339.307 419.681 335.011C415.565 330.714 412.143 327.409 412.385 327.064C412.626 326.718 416.696 329.542 420.826 333.944C424.957 338.346 427.565 342.537 427.218 342.763Z" fill="#1C2738"/>
<path d="M447.387 331.81C451.897 327.444 454.589 321.543 454.924 315.285C448.73 315.772 442.789 317.95 437.754 321.58C432.885 325.366 429.915 332.667 430.051 338.826L430.413 338.616C436.731 338.567 442.795 336.135 447.387 331.81V331.81Z" fill="white"/>
<path d="M447.387 331.811C446.363 333.214 445.053 334.386 443.543 335.251C439.664 337.793 435.145 339.198 430.504 339.307L430.835 339.217L430.474 339.427L429.494 340.013V338.857C429.436 335.777 429.979 332.716 431.092 329.843C432.278 326.603 434.245 323.704 436.82 321.4C439.525 319.182 442.624 317.491 445.955 316.412C448.889 315.449 451.924 314.824 455 314.549H455.814V315.331C455.498 319.948 453.884 324.384 451.156 328.13C450.216 329.596 448.978 330.85 447.523 331.811C447.402 331.676 448.774 330.399 450.538 327.679C452.917 323.951 454.279 319.669 454.488 315.255L455.241 315.961C452.253 316.309 449.311 316.979 446.468 317.96C443.334 319.009 440.417 320.617 437.86 322.707C435.482 324.844 433.653 327.518 432.524 330.504C431.455 333.166 430.898 336.004 430.88 338.872L429.855 338.301L430.217 338.09L430.368 338H430.549C434.983 337.986 439.337 336.821 443.182 334.62C445.925 332.983 447.267 331.676 447.387 331.811Z" fill="#1C2738"/>
<path d="M441.434 328.565C441.721 328.881 438.661 332.111 434.59 335.791C430.52 339.472 427.053 342.176 426.691 341.801C426.329 341.425 429.465 338.24 433.535 334.574C437.605 330.909 441.133 328.235 441.434 328.565Z" fill="#1C2738"/>
<path d="M258.562 213.684H248.824V383.249H258.562V213.684Z" fill="white"/>
<path d="M258.561 383.264C258.544 382.954 258.544 382.643 258.561 382.332C258.561 381.732 258.561 380.83 258.561 379.749C258.561 377.465 258.561 374.145 258.456 369.863C258.456 361.315 258.32 348.966 258.214 333.658C258.049 303.071 257.898 259.851 257.883 212.724L258.667 213.505H248.928L249.712 212.724C249.712 292.181 249.486 360.519 249.185 383.264L248.928 383.009L256.209 383.159H258.034H258.667C258.486 383.181 258.304 383.181 258.124 383.159H256.345L248.928 383.309H248.687V383.069C248.371 360.324 248.145 292.93 248.145 213.504V212.708H259.451V213.489C259.451 260.931 259.285 303.477 259.134 334.018C259.028 349.252 258.953 361.541 258.893 370.074C258.893 374.28 258.802 377.585 258.787 379.779C258.787 380.845 258.787 381.671 258.787 382.272C258.769 382.613 258.692 382.949 258.561 383.264Z" fill="#1C2738"/>
<path d="M268.905 197.791H0.77002V213.685H268.905V197.791Z" fill="white"/>
<path d="M268.888 213.699C268.87 213.358 268.87 213.017 268.888 212.677C268.888 212.001 268.888 211.009 268.888 209.672C268.888 207.028 268.888 203.092 268.753 197.774L268.994 198.014C232.393 198.33 126.085 198.555 0.889451 198.555L1.67332 197.774V213.668L0.889451 212.887L190.831 213.203L248.06 213.253L263.627 213.334L267.592 213.504L268.692 213.548C268.812 213.526 268.935 213.526 269.054 213.548H268.587H267.592H263.627L248.251 213.653L191.253 213.894L0.783917 214.224H0V197.023H0.79896C125.919 197.023 232.302 197.233 268.904 197.549H269.16V197.804C269.16 203.182 269.054 207.179 269.009 209.823C269.009 211.115 269.009 212.076 269.009 212.752C268.988 213.07 268.948 213.386 268.888 213.699Z" fill="#1C2738"/>
<path d="M24.5728 213.684H14.8345V382.227H24.5728V213.684Z" fill="white"/>
<path d="M24.5722 383.156C24.5722 383.156 24.5722 382.826 24.5722 382.24V379.671C24.5722 377.403 24.5722 374.097 24.4516 369.846C24.4516 361.343 24.3159 349.069 24.2254 333.791C24.0596 303.384 23.9089 260.42 23.8938 213.578L24.6777 214.359H14.9394L15.7233 213.578C15.7233 292.509 15.4972 360.427 15.1806 383.081L14.9394 382.841L22.2054 382.976H24.0446H24.6777C24.4975 382.999 24.3152 382.999 24.135 382.976H22.3562L14.9394 383.126H14.6982V382.871C14.3816 360.216 14.1555 293.274 14.1555 214.343V213.546H25.4616V214.328C25.4616 261.5 25.2958 303.775 25.1299 334.136C25.0395 349.264 24.9491 361.478 24.9038 369.951C24.9038 374.112 24.8134 377.357 24.7832 379.581V382.06C24.7688 382.434 24.6976 382.803 24.5722 383.156Z" fill="#1C2738"/>
<path d="M184.846 325.996C183.013 338.234 182.006 350.58 181.831 362.953C181.831 364.635 181.093 368.722 182.329 369.878C183.174 370.573 184.154 371.085 185.208 371.381C190.062 372.778 194.253 375.782 199.167 377.195C201.458 358.807 205.697 340.713 211.815 323.217L184.846 325.996Z" fill="white"/>
<path d="M184.846 325.997C185.419 325.821 186.011 325.71 186.609 325.666L191.931 324.975C196.574 324.404 203.372 323.593 211.754 322.676L212.704 322.571L212.387 323.488C207.521 337.851 203.821 352.581 201.322 367.535C200.78 370.9 200.312 374.22 199.95 377.375L199.845 378.307L198.956 378.036C194.539 376.714 190.845 374.356 187.062 372.898C185.283 372.102 182.976 372.012 181.378 369.819C180.974 368.798 180.809 367.698 180.896 366.604C180.896 365.597 181.032 364.636 181.092 363.719C181.288 356.208 181.695 349.463 182.238 343.889C182.78 338.315 183.414 333.824 183.896 330.759C184.137 329.226 184.348 328.04 184.529 327.198C184.71 326.387 184.8 325.997 184.846 326.042C184.876 326.467 184.876 326.893 184.846 327.319C184.846 328.1 184.665 329.287 184.499 330.834C184.182 333.839 183.715 338.345 183.323 343.979C182.931 349.613 182.63 356.223 182.524 363.809C182.524 364.756 182.373 365.702 182.358 366.634C182.292 367.49 182.41 368.351 182.705 369.158C182.912 369.471 183.198 369.725 183.534 369.894C183.92 370.142 184.329 370.354 184.755 370.525C185.554 370.84 186.7 371.126 187.65 371.516C191.614 373.019 195.308 375.347 199.438 376.549L198.443 377.21C198.805 374.01 199.272 370.675 199.815 367.28C202.321 352.237 206.165 337.446 211.302 323.082L211.935 323.878C203.779 324.629 197.071 325.185 192.338 325.546L186.881 325.936C186.205 326.011 185.525 326.031 184.846 325.997V325.997Z" fill="#1C2738"/>
<path d="M202.167 360.655C203.534 361.181 204.671 362.17 205.378 363.449C208.393 368.933 214.619 372.328 220.453 374.581C226.799 377 237.608 377.406 234.759 389.124C217.091 390.205 200.931 387.997 183.248 389.124C182.023 389.335 180.763 389.123 179.675 388.523C179.16 388.046 178.747 387.47 178.462 386.83C178.177 386.189 178.026 385.498 178.017 384.797C177.274 379.011 177.741 373.133 179.389 367.536L181.243 366.274C181.243 366.274 183.972 371.457 188.781 369.564C193.589 367.671 199.077 361.677 200.373 360.55C200.658 360.419 200.97 360.359 201.283 360.378C201.596 360.396 201.9 360.491 202.167 360.655V360.655Z" fill="#777777"/>
<path d="M202.168 360.654C202.168 360.654 202.018 360.654 201.716 360.654C201.318 360.55 200.895 360.593 200.525 360.774C199.711 361.48 198.535 362.817 196.922 364.32C194.983 366.24 192.823 367.924 190.485 369.337C189.755 369.777 188.976 370.13 188.164 370.389C187.235 370.63 186.259 370.63 185.33 370.389C183.382 369.767 181.758 368.407 180.807 366.603L181.652 366.813L179.797 368.09L180.039 367.76C179.135 371.038 178.629 374.412 178.531 377.81C178.483 379.661 178.553 381.512 178.742 383.354C178.806 384.286 178.952 385.211 179.179 386.118C179.254 386.513 179.41 386.888 179.639 387.219C179.867 387.55 180.163 387.83 180.506 388.041C181.338 388.371 182.242 388.48 183.129 388.356L186.264 388.191C188.39 388.086 190.546 388.041 192.732 388.011C197.103 388.011 201.595 388.011 206.178 388.221C216.384 388.567 226.092 388.927 234.82 388.401L234.172 388.957C234.571 387.403 234.683 385.789 234.504 384.195C234.301 382.719 233.624 381.349 232.574 380.289C231.502 379.279 230.242 378.488 228.866 377.96C227.529 377.381 226.16 376.88 224.765 376.458C219.902 375.176 215.308 373.039 211.198 370.148C209.657 369.049 208.268 367.75 207.068 366.288C206.586 365.69 206.143 365.063 205.741 364.41C205.379 363.794 205.108 363.223 204.806 362.787C204.119 361.884 203.252 361.132 202.259 360.579C202.259 360.579 202.59 360.579 203.133 360.849C203.93 361.243 204.631 361.807 205.183 362.502C205.56 362.982 205.862 363.538 206.239 364.094C206.65 364.705 207.104 365.287 207.595 365.837C208.808 367.207 210.191 368.419 211.711 369.442C215.827 372.148 220.381 374.125 225.172 375.286C226.619 375.68 228.043 376.151 229.439 376.699C230.976 377.275 232.385 378.148 233.584 379.267C234.856 380.568 235.657 382.255 235.86 384.06C236.094 385.836 235.987 387.641 235.544 389.378L235.453 389.889H234.881C225.274 390.369 215.649 390.369 206.043 389.889C201.52 389.754 196.998 389.633 192.641 389.663C190.47 389.663 188.345 389.663 186.249 389.799L183.129 389.949C181.974 390.089 180.803 389.918 179.737 389.453C179.218 389.145 178.768 388.734 178.416 388.246C178.063 387.757 177.815 387.202 177.687 386.614C177.454 385.626 177.303 384.621 177.235 383.609C177.058 381.707 177.007 379.794 177.084 377.885C177.231 374.383 177.809 370.912 178.802 367.549V367.339L178.983 367.219L180.853 365.972L181.395 365.612L181.712 366.182C182.509 367.733 183.875 368.916 185.526 369.487C187.069 369.776 188.665 369.452 189.973 368.586C192.285 367.258 194.449 365.687 196.425 363.899C198.113 362.397 199.289 361.27 200.299 360.534C200.521 360.44 200.759 360.392 201 360.392C201.241 360.392 201.479 360.44 201.701 360.534C202.048 360.534 202.259 360.624 202.168 360.654Z" fill="#1C2738"/>
<path d="M212.977 370.3C213.112 370.72 211.741 371.517 210.701 373.049C209.66 374.581 209.344 376.054 208.892 376.054C208.681 376.054 208.469 375.618 208.469 374.852C208.512 373.858 208.842 372.898 209.419 372.087C209.984 371.27 210.775 370.634 211.696 370.255C212.419 370.044 212.901 370.104 212.977 370.3Z" fill="#1C2738"/>
<path d="M216.323 373.199C216.519 373.605 215.599 374.461 214.815 375.648C214.031 376.834 213.459 377.961 213.021 377.901C212.584 377.841 212.449 376.279 213.534 374.746C214.619 373.214 216.157 372.823 216.323 373.199Z" fill="#1C2738"/>
<path d="M244.089 94.3109C247.285 91.6368 248.205 86.7994 248.386 82.593C248.567 78.3865 247.029 75.8026 246.984 71.6412C246.933 71.3035 246.968 70.9584 247.087 70.638C247.205 70.3176 247.403 70.0323 247.662 69.8084C248.717 69.1924 249.773 70.5896 250.18 71.7463C251.401 75.1115 252.049 77.1546 253.194 80.5348C255.124 77.6053 256.571 73.5641 259.767 74.9913C259.767 74.9913 265.254 80.2194 266.46 83.1488C267.666 86.0783 265.496 88.4219 263.445 91.9523C261.108 95.556 258.551 99.0128 255.787 102.303L244.089 94.3109Z" fill="white"/>
<path d="M244.09 94.3113C244.195 94.3113 245.431 95.0625 247.557 96.3695C249.683 97.6765 252.667 99.5093 256.24 101.838L255.501 101.943C256.813 100.29 258.245 98.4426 259.722 96.4446C260.446 95.453 261.23 94.4015 261.908 93.3198C262.27 92.7639 262.617 92.2081 262.948 91.6372C263.28 91.0663 263.642 90.4204 264.004 89.8195C264.763 88.6721 265.4 87.4485 265.903 86.1688C266.111 85.5595 266.167 84.9091 266.067 84.2733C265.967 83.6375 265.715 83.0353 265.33 82.5182C263.572 79.9943 261.551 77.6627 259.3 75.5626L259.511 75.7128L259.149 75.5776C258.049 75.157 257.069 76.0283 256.24 77.2001C255.411 78.3719 254.733 79.6939 253.919 80.9558L253.059 82.2628L252.547 80.7605C251.642 78.1465 250.768 75.6076 249.939 73.1739C249.713 72.573 249.532 71.912 249.306 71.4613C249.106 71.031 248.794 70.6624 248.401 70.3946C248.25 70.3195 248.19 70.3045 248.1 70.3946C247.979 70.4415 247.882 70.5331 247.828 70.6501C247.673 71.1348 247.626 71.6477 247.693 72.1524C247.852 74.3227 248.179 76.4774 248.672 78.5972C248.996 80.5241 249.037 82.4876 248.793 84.4261C248.591 87.2113 247.717 89.9066 246.245 92.2832C245.82 92.9081 245.313 93.4739 244.738 93.9658C244.53 94.1249 244.308 94.2657 244.075 94.3864C244.075 94.3864 244.075 94.2061 244.527 93.7705C244.99 93.22 245.399 92.6264 245.748 91.9978C246.973 89.6217 247.658 87.0057 247.753 84.336C247.93 82.4892 247.834 80.6264 247.467 78.8075C246.894 76.6457 246.506 74.4395 246.306 72.2125C246.222 71.5121 246.305 70.802 246.547 70.1393C246.64 69.9189 246.775 69.7191 246.946 69.5515C247.117 69.3838 247.319 69.2517 247.542 69.1628C247.783 69.0634 248.043 69.0185 248.304 69.0315C248.565 69.0445 248.819 69.115 249.049 69.2379C250.231 70.0897 251.045 71.3568 251.326 72.7833C252.2 75.217 253.089 77.7409 254.024 80.2948L252.652 80.1446C253.421 78.9728 254.069 77.6508 254.989 76.3288C255.465 75.6149 256.068 74.9937 256.768 74.4959C257.185 74.2264 257.657 74.0528 258.15 73.9878C258.643 73.9229 259.144 73.9682 259.617 74.1204L260.175 74.3157H260.28L260.386 74.4209C262.752 76.6032 264.861 79.0477 266.672 81.707C267.146 82.4244 267.465 83.233 267.606 84.0806C267.721 84.9303 267.633 85.795 267.35 86.6045C266.817 87.9992 266.118 89.3255 265.27 90.5556L264.2 92.3132C263.853 92.9292 263.476 93.5001 263.099 94.0559C262.33 95.1676 261.592 96.2192 260.793 97.2108C259.285 99.2088 257.778 101.012 256.391 102.634L256.059 103.025L255.652 102.739C251.898 100.14 248.959 97.9769 246.999 96.5197C245.972 95.8615 244.999 95.123 244.09 94.3113Z" fill="#1C2738"/>
<path d="M134.95 323.067C134.582 335.432 135.046 347.809 136.337 360.113C136.502 361.796 136.337 365.927 137.648 366.934C138.556 367.546 139.584 367.96 140.663 368.151C145.653 368.977 150.22 371.456 155.21 372.282C155.313 353.758 157.385 335.297 161.391 317.208L134.95 323.067Z" fill="white"/>
<path d="M134.948 323.068C135.497 322.823 136.074 322.646 136.666 322.542L141.882 321.22C146.404 320.108 153.068 318.501 161.283 316.608L162.218 316.397L162.007 317.344C158.868 332.188 156.938 347.26 156.233 362.413C156.082 365.823 156.007 369.173 156.022 372.343V373.275L155.118 373.124C150.595 372.328 146.631 370.405 142.711 369.414C140.827 368.828 138.535 369.008 136.681 367.025C136.153 366.059 135.859 364.984 135.822 363.885C135.732 362.894 135.716 361.917 135.671 360.986C134.978 353.564 134.586 346.774 134.465 341.17C134.345 335.567 134.465 331.045 134.556 327.935C134.556 326.433 134.691 325.186 134.767 324.33C134.771 323.929 134.826 323.53 134.933 323.143C135.016 323.563 135.052 323.991 135.038 324.42C135.038 325.201 135.038 326.388 135.113 327.95C135.113 331.045 135.234 335.537 135.505 341.14C135.777 346.744 136.259 353.384 137.013 360.926C137.013 361.887 137.013 362.819 137.179 363.75C137.209 364.609 137.431 365.45 137.827 366.214C138.068 366.503 138.379 366.725 138.731 366.86C139.15 367.054 139.584 367.214 140.028 367.341C140.842 367.551 142.033 367.701 143.043 367.972C147.158 369.008 151.093 370.871 155.344 371.592L154.439 372.358C154.439 369.143 154.439 365.778 154.62 362.353C155.329 347.133 157.393 332.005 160.786 317.149L161.524 317.87C153.505 319.567 146.917 320.874 142.289 321.821L136.907 322.842C136.261 322.97 135.606 323.045 134.948 323.068Z" fill="#1C2738"/>
<path d="M142.289 144.202L172.363 144.667H197.99C197.99 144.667 225.124 233.604 226.632 245.893C228.139 258.181 214.044 337.533 214.044 337.533H176.81L188.643 255.432L172.619 187.829L163.71 337.458L128.45 338.164L133.696 179.746C133.813 171.679 135.296 163.69 138.083 156.115L142.289 144.202Z" fill="#1C2738"/>
<path d="M157.335 82.7134C157.335 82.7134 178.937 122.66 180.173 122.359C181.409 122.059 187.183 82.7134 187.183 82.7134H157.335Z" fill="#1C2738"/>
<path d="M171.083 26.9633C166.561 27.6543 162.551 30.1181 158.692 32.5669C154.833 35.0156 150.883 37.5545 146.406 38.4258C140.165 39.6427 133.276 37.5545 127.578 40.3638C122.347 42.9328 119.784 48.8067 116.015 53.2536C113.354 56.3457 110.03 58.8027 106.288 60.4434C102.547 62.0842 98.4835 62.8666 94.398 62.7331C91.579 62.6279 87.8706 62.6129 87.0113 65.287C86.7493 66.5542 86.9246 67.8723 87.5088 69.0277C90.9057 78.2519 94.3025 87.466 97.6994 96.6701L109.593 90.7511C107.544 94.922 104.715 98.6647 101.257 101.778C104.065 102.845 107.122 103.084 110.063 102.466C113.003 101.848 115.703 100.399 117.839 98.2926C121.487 94.5519 123.251 88.9633 127.743 86.2742C130.758 84.5015 134.376 84.3963 137.783 83.7503C148.848 81.6321 157.757 73.7149 166.063 66.1283L182.962 31.6955C180.776 27.7896 175.606 26.2722 171.083 26.9633Z" fill="#1C2738"/>
<path d="M189.279 42.7969C189.143 39.2665 189.535 39.6721 188.6 36.2619L187.334 31.8451C186.4 29.7719 183.807 29.0358 181.53 28.8405C176.52 28.4172 171.513 29.6873 167.315 32.4461C165.237 33.8275 163.458 35.6114 162.086 37.6915C160.713 39.7717 159.775 42.1056 159.325 44.5546C158.907 47.0106 159.074 49.5302 159.812 51.9101C160.551 54.29 161.84 56.4636 163.576 58.2556C167.669 58.9123 171.831 59.0235 175.953 58.5861C180.121 58.1237 183.941 56.0528 186.595 52.8173C188.593 49.8721 189.538 46.3425 189.279 42.7969V42.7969Z" fill="#1C2738"/>
<path d="M186.142 32.7466L182.056 33.3625C180.032 33.6501 178.192 34.6922 176.908 36.2786C175.623 37.865 174.991 39.8776 175.137 41.9106C175.137 42.0158 178.152 48.1452 178.152 48.1753C176.223 51.7357 174.64 49.4972 174.64 49.4972C174.268 47.3969 173.208 45.4788 171.625 44.0439C169.002 41.5801 164.901 43.5031 164.404 47.1687C164.042 49.7827 167.645 52.9826 167.645 52.9826L164.841 57.6848L157.304 82.7132L183.021 83.7197L181.363 75.1716V66.0827C183.681 65.9739 185.974 65.5493 188.177 64.8207C190.212 63.9494 193.815 62.2067 193.197 51.4352C192.564 39.6121 191.131 33.678 186.142 32.7466Z" fill="white"/>
<path d="M186.142 32.7466C186.142 32.7466 186.413 32.7466 186.956 32.8518C187.742 33.0439 188.47 33.4199 189.081 33.9485C190.785 35.3005 192.096 38.3051 192.714 42.0759C193.061 43.9688 193.318 46.087 193.529 48.3856C193.792 50.8802 193.883 53.39 193.8 55.8971C193.741 57.3122 193.508 58.7148 193.106 60.0735C192.707 61.5985 191.881 62.9791 190.725 64.0546C189.445 65.0779 187.934 65.7741 186.323 66.0827C184.713 66.4295 183.081 66.6604 181.439 66.7737L182.087 66.0827C182.087 68.9671 182.087 72.0919 182.087 75.1716V75.0364C182.614 77.7255 183.187 80.625 183.76 83.5695L183.956 84.5009H182.991L159.716 83.5995L157.304 83.5094H156.279L156.58 82.5479L164.118 57.5346V57.4444V57.3693L166.952 52.6822L167.087 53.5835C166.267 52.831 165.534 51.9895 164.902 51.0747C164.221 50.1494 163.781 49.0708 163.62 47.9349C163.585 46.7975 163.907 45.6775 164.543 44.7319C165.178 43.7864 166.094 43.0625 167.163 42.6618C168.202 42.2666 169.35 42.2666 170.389 42.6618C171.334 43.0686 172.159 43.7099 172.786 44.5246C173.993 45.9412 174.786 47.6615 175.077 49.4972L174.972 49.2268C175.469 49.8879 176.132 49.8278 176.75 49.1217C176.907 48.9547 177.049 48.7737 177.172 48.5809L177.504 48.055C177.399 48.1752 177.504 48.4907 177.504 48.3705V48.2954L177.429 48.1302L177.278 47.7997L176.976 47.1387L175.77 44.5847L175.198 43.3679L174.926 42.767L174.791 42.4815C174.723 42.3363 174.667 42.1855 174.625 42.0308C174.514 40.3529 174.919 38.6814 175.786 37.2385C176.5 36.0333 177.512 35.0301 178.725 34.324C179.668 33.7494 180.72 33.3759 181.815 33.2273L184.167 32.9419C184.803 32.8253 185.451 32.785 186.097 32.8217C185.482 33.0407 184.845 33.1919 184.197 33.2724C182.393 33.45 180.644 33.9918 179.057 34.8648C177.878 35.6155 176.928 36.6729 176.309 37.9227C175.69 39.1724 175.426 40.567 175.544 41.9557C175.544 41.8055 175.544 41.9557 175.635 42.0909L175.77 42.3763L176.072 42.9623L176.66 44.1641L177.911 46.6879L178.243 47.349L178.393 47.6795L178.484 47.8447V47.9349C178.541 48.0952 178.541 48.2703 178.484 48.4306C178.233 48.9431 177.919 49.4225 177.549 49.8578C177.137 50.3811 176.537 50.7255 175.876 50.8193C175.51 50.8361 175.146 50.7611 174.816 50.601C174.487 50.4408 174.204 50.2008 173.992 49.9029V49.7977V49.6325C173.689 48.0356 172.966 46.5475 171.896 45.3208C171.405 44.6637 170.75 44.1459 169.997 43.8185C169.255 43.5339 168.433 43.5339 167.69 43.8185C166.905 44.1351 166.234 44.6798 165.763 45.3817C165.293 46.0837 165.045 46.9105 165.052 47.7546C165.539 49.5979 166.593 51.2425 168.067 52.4568L168.504 52.8624L168.203 53.3582L165.489 58.0604V57.8952C163.153 65.7222 160.635 74.15 157.952 82.9385L157.244 81.932L159.656 82.0221L182.961 82.9685L182.192 83.8549C181.635 80.8503 181.077 78.011 180.564 75.3068V75.1716C180.564 72.0168 180.564 68.9521 180.564 66.0827V65.4517H181.212C184.363 65.1963 187.619 64.8809 189.73 63.1532C190.725 62.2413 191.446 61.0707 191.81 59.773C192.194 58.5026 192.427 57.1916 192.503 55.867C192.632 53.4134 192.591 50.9539 192.383 48.5058C192.232 46.2223 192.036 44.119 191.75 42.2562C191.207 38.5305 190.122 35.646 188.629 34.309C188.079 33.7878 187.434 33.3749 186.73 33.0921C186.521 33.0002 186.324 32.8842 186.142 32.7466V32.7466Z" fill="#1C2738"/>
<path d="M176.359 50.5493C179.316 49.3802 181.889 47.4128 183.787 44.8681C185.686 42.3233 186.835 39.3017 187.107 36.1423C187.262 35.3253 187.204 34.4825 186.94 33.6938C186.677 32.9051 186.215 32.1965 185.6 31.6354C184.397 31.0019 183.01 30.8104 181.68 31.0945C179.779 31.2302 177.907 31.6297 176.117 32.2813C174.308 32.9487 172.824 34.2822 171.972 36.0071C171.584 37.0383 171.422 38.1404 171.498 39.2392C171.573 40.3379 171.884 41.4079 172.409 42.3768C173.474 44.3073 174.815 46.0734 176.389 47.6198" fill="#1C2738"/>
<path d="M171.31 51.2699C170.873 51.36 170.285 50.2783 169.456 49.1216C168.627 47.9648 167.813 47.0334 168.039 46.6578C168.265 46.2822 169.698 46.7479 170.738 48.1601C171.778 49.5723 171.717 51.1948 171.31 51.2699Z" fill="#1C2738"/>
<path d="M181.015 65.9929L176.101 59.8335C176.101 59.8335 183.382 65.4972 185.447 65.8427C187.513 66.1882 181.015 65.9929 181.015 65.9929Z" fill="#1C2738"/>
<path d="M202.815 107.637C202.951 127.737 198.594 138.824 198.594 138.824L210.353 181.099L179.012 181.835L175.877 164.484L172.229 181.865L130.17 181.099L133.08 165.025C134.319 158.088 136.316 151.308 139.034 144.804L143.285 134.618L140.074 76.0282L159.37 70.7551L161.556 65.7524L177.354 112.564L181.877 68.2312L187.047 74.8564C187.047 74.8564 193.997 76.7493 200.102 78.3718C202.782 79.0468 205.292 80.2685 207.475 81.9596C209.657 83.6508 211.463 85.7746 212.78 88.1968C212.976 88.5724 213.172 88.963 213.353 89.3686L224.583 114.622L243.231 93.7554L257.085 103.1C257.085 103.1 234.804 131.418 230.613 134.257C225.578 137.668 215.101 134.663 212.629 131.163C210.157 127.662 202.635 115.238 202.635 115.238" fill="#127BF2"/>
<path d="M202.649 115.224L203.402 116.381C203.885 117.177 204.608 118.319 205.543 119.806L209.055 125.394C209.749 126.491 210.563 127.678 211.332 128.94C212.071 130.344 213.098 131.577 214.347 132.56C215.839 133.541 217.477 134.281 219.201 134.754C221.094 135.313 223.06 135.586 225.035 135.565C227.203 135.641 229.332 134.973 231.065 133.672C232.782 132.087 234.399 130.396 235.904 128.609C242.31 121.293 249.275 112.61 257.008 102.92V103.311L243.139 93.9812H243.516L224.869 114.818L224.552 115.194L224.341 114.743L212.809 88.9936C210.616 84.5008 206.748 81.0398 202.031 79.3488C199.679 78.5225 197.101 77.9516 194.599 77.2456L186.971 75.2024H186.85V75.1123L181.68 68.4871L182.328 68.2918C180.82 82.4586 179.313 97.3313 177.805 112.64L177.625 114.398L177.052 112.715C171.972 97.6919 166.665 81.9778 161.238 65.9032H161.977L159.791 70.9058V71.0861H159.61L149.495 73.8654L140.254 76.3893L140.541 75.9987C141.641 96.1145 142.711 115.735 143.736 134.588V134.679L138.943 146.201C137.43 149.979 136.156 153.848 135.129 157.784C134.089 161.675 133.425 165.611 132.732 169.517C132.038 173.423 131.33 177.269 130.637 181.07L130.29 180.649L172.333 181.445L172.002 181.701C173.268 175.691 174.489 169.903 175.665 164.334L176.012 162.742L176.298 164.334C177.368 170.343 178.408 176.127 179.403 181.701L179.102 181.445L210.457 180.754L210.201 181.085C205.543 164.184 201.609 149.957 198.533 138.78V138.675C199.951 134.372 200.96 129.945 201.548 125.454C202.106 121.563 202.407 118.273 202.558 115.614C202.709 112.955 202.769 110.942 202.784 109.605C202.799 108.268 202.784 107.562 202.784 107.562C202.784 107.562 202.92 110.311 202.679 115.644C202.558 118.303 202.287 121.654 201.744 125.5C201.164 130.021 200.154 134.478 198.729 138.81V138.705C201.85 149.867 205.845 164.079 210.578 180.965L210.668 181.28H210.322L178.981 182.061H178.725V181.821C177.715 176.247 176.675 170.478 175.574 164.469H176.207C175.032 170.108 173.821 175.902 172.574 181.851V182.121H172.303L130.245 181.385H129.823L129.898 180.965C130.576 177.149 131.27 173.303 131.978 169.397C132.687 165.491 133.335 161.54 134.375 157.619C135.412 153.649 136.691 149.746 138.204 145.931L142.998 134.393V134.558C141.958 115.689 140.887 96.0694 139.772 75.9686V75.6531L140.088 75.578L149.314 73.0542L159.369 70.3049L159.113 70.5303L161.299 65.5276L161.706 64.5962L162.022 65.5576L177.82 112.369L177.082 112.46C178.589 97.1511 180.187 82.2783 181.604 68.1116L181.695 67.2102L182.268 67.9313L187.423 74.5715L187.242 74.4363L194.78 76.4944C197.297 77.2155 199.799 77.7564 202.317 78.6277C207.196 80.3901 211.193 83.9796 213.457 88.633C217.452 97.6468 221.281 106.27 224.914 114.428L224.386 114.337L243.064 93.5005L243.23 93.3052L243.441 93.4554L257.28 102.815L257.521 102.965L257.34 103.19C249.652 112.865 242.657 121.518 236.235 128.82C234.701 130.614 233.06 132.315 231.321 133.912C229.54 135.248 227.352 135.932 225.125 135.85C223.113 135.867 221.11 135.578 219.186 134.994C217.431 134.506 215.767 133.74 214.256 132.726C213 131.714 211.973 130.449 211.241 129.015L208.98 125.454C207.623 123.231 206.463 121.353 205.528 119.836L203.448 116.366C202.875 115.644 202.649 115.224 202.649 115.224Z" fill="#1C2738"/>
<path d="M247.753 133.656L244.814 127.167H182.088L183.972 139.185C192.761 141.363 226.181 140.297 226.181 140.297C226.181 140.297 241.934 147.237 244.874 147.237C250.331 147.237 253.497 138.734 253.497 138.734L247.753 133.656Z" fill="white"/>
<path d="M247.753 133.656C248.336 134.005 248.881 134.412 249.381 134.873L253.782 138.538L253.948 138.689V138.899C253.214 140.825 252.198 142.632 250.933 144.262C250.18 145.267 249.251 146.127 248.19 146.801C246.97 147.608 245.49 147.93 244.044 147.702C241.109 146.96 238.233 146.006 235.436 144.848C232.422 143.686 229.271 142.394 225.985 140.972H226.271C220.241 141.167 213.548 141.318 206.493 141.303C202.98 141.303 199.347 141.303 195.624 141.107C191.804 141.028 187.994 140.667 184.227 140.026L183.79 139.936L183.293 139.83L183.202 139.305C182.569 135.203 181.936 131.192 181.333 127.286L181.198 126.385H182.102C210.292 126.385 233.748 126.61 244.828 126.85H245.039L245.13 127.031C245.989 129.104 246.637 130.711 247.15 131.868C247.421 132.424 247.628 133.009 247.768 133.611C247.412 133.147 247.114 132.643 246.878 132.109C246.335 131.042 245.552 129.434 244.542 127.346L244.828 127.542C233.748 127.782 210.292 127.947 182.102 127.992L182.871 127.106C183.474 131.032 184.102 135.038 184.755 139.124L184.167 138.493L184.574 138.568C188.252 139.194 191.97 139.55 195.699 139.635C199.378 139.785 202.996 139.845 206.508 139.875C213.533 139.875 220.166 139.875 226.226 139.695H226.377H226.512C229.783 141.197 232.919 142.474 235.874 143.676C238.593 144.861 241.388 145.864 244.24 146.681C245.432 146.88 246.656 146.633 247.677 145.99C248.658 145.389 249.525 144.621 250.24 143.721C251.477 142.188 252.492 140.488 253.255 138.674L253.345 139.034C251.476 137.322 250.059 136.03 249.124 135.083C248.614 134.661 248.154 134.182 247.753 133.656Z" fill="#1C2738"/>
<path d="M260.808 128.894H257.793C257.448 128.895 257.113 128.779 256.844 128.563C254.946 127.004 252.616 126.061 250.166 125.859C247.301 125.769 239.447 130.697 235.528 133.371C235.261 133.522 235.046 133.751 234.914 134.028C234.781 134.304 234.736 134.614 234.786 134.917C234.835 135.219 234.976 135.499 235.189 135.72C235.403 135.94 235.679 136.09 235.98 136.15C239.329 136.916 242.845 136.379 245.809 134.648C246.103 134.478 246.447 134.412 246.783 134.461C247.12 134.51 247.43 134.671 247.663 134.918L253.12 140.311L252.774 141.423L260.612 142.625C261.396 142.625 269.295 141.423 269.356 140.642L267.019 129.765C267.079 128.804 261.698 128.894 260.808 128.894Z" fill="white"/>
<path d="M260.808 128.894C261.342 128.717 261.905 128.646 262.467 128.684C263.009 128.684 263.688 128.684 264.487 128.684C264.879 128.684 265.316 128.684 265.783 128.789C266.033 128.813 266.28 128.859 266.522 128.924C266.667 128.966 266.809 129.021 266.944 129.089L267.2 129.3C267.293 129.433 267.35 129.588 267.366 129.75V129.645C268.059 132.409 268.873 136.105 269.914 140.462V140.567C269.899 140.702 269.853 140.832 269.78 140.946C269.707 141.061 269.608 141.157 269.491 141.228C269.394 141.302 269.288 141.362 269.175 141.408L268.617 141.633C268.255 141.754 267.909 141.859 267.547 141.949C266.838 142.144 266.039 142.294 265.346 142.445C263.838 142.745 262.331 143.016 260.597 143.211H260.447L252.593 142.054L251.718 141.934L251.975 141.078L252.321 139.966L252.517 140.747L246.985 135.294C246.837 135.183 246.657 135.125 246.472 135.128C246.276 135.128 246.141 135.219 245.734 135.414C245.043 135.75 244.333 136.046 243.608 136.3C242.153 136.813 240.628 137.102 239.086 137.157C238.334 137.174 237.582 137.124 236.84 137.006L235.754 136.781C235.267 136.662 234.829 136.394 234.503 136.015C234.181 135.628 233.995 135.147 233.973 134.645C233.951 134.144 234.095 133.648 234.382 133.236C234.522 133.037 234.695 132.864 234.895 132.725C235.035 132.609 235.186 132.508 235.347 132.424L236.176 131.884C238.377 130.471 240.518 129.194 242.568 128.083C244.473 126.988 246.496 126.112 248.598 125.469L249.367 125.318C249.638 125.304 249.91 125.304 250.181 125.318C250.662 125.356 251.141 125.426 251.613 125.529C252.462 125.727 253.286 126.02 254.07 126.4C254.744 126.732 255.39 127.119 256 127.557C256.271 127.752 256.527 127.962 256.768 128.158C256.937 128.335 257.151 128.465 257.386 128.533C258.516 128.532 259.643 128.647 260.748 128.879C259.6 129.123 258.423 129.209 257.251 129.134C256.925 129.057 256.621 128.908 256.361 128.699C256.12 128.518 255.864 128.353 255.577 128.173C254.979 127.802 254.354 127.476 253.708 127.196C252.971 126.886 252.203 126.654 251.417 126.505C250.995 126.422 250.566 126.376 250.136 126.37C249.924 126.37 249.728 126.37 249.533 126.37L248.884 126.52C246.902 127.219 244.997 128.12 243.201 129.209C241.211 130.351 239.116 131.658 236.96 133.07L236.146 133.611C235.83 133.836 235.679 133.927 235.603 134.062C235.497 134.203 235.439 134.374 235.439 134.55C235.439 134.726 235.497 134.898 235.603 135.038C235.733 135.176 235.901 135.27 236.086 135.309C236.407 135.379 236.724 135.439 237.036 135.489C237.684 135.59 238.34 135.63 238.995 135.609C240.358 135.546 241.704 135.282 242.99 134.828C243.653 134.587 244.302 134.311 244.935 134.002C245.344 133.757 245.802 133.603 246.276 133.551C246.849 133.521 247.413 133.703 247.859 134.062L253.497 139.635L253.829 139.966L253.693 140.402L253.346 141.513L252.728 140.537L260.567 141.769H260.417C261.924 141.603 263.537 141.348 264.939 141.108C265.678 140.972 266.446 140.837 267.08 140.672C267.411 140.602 267.739 140.511 268.059 140.402C268.204 140.363 268.345 140.313 268.481 140.251H268.617C268.664 140.309 268.714 140.365 268.768 140.417C268.904 140.522 268.934 140.567 269.009 140.567L268.512 140.702C267.637 136.315 266.914 132.575 266.401 129.78L266.567 129.675C266.477 129.675 266.567 129.675 266.416 129.765C266.265 129.855 266.416 129.765 266.416 129.765L266.16 129.66C265.953 129.589 265.742 129.534 265.527 129.495L264.306 129.315C263.537 129.224 262.798 129.179 262.331 129.134C261.814 129.129 261.301 129.048 260.808 128.894V128.894Z" fill="#1C2738"/>
<path d="M334.328 363.027C334.146 350.655 333.139 338.309 331.313 326.07L304.329 323.351C310.447 340.848 314.686 358.941 316.977 377.329C321.831 375.917 326.021 372.912 330.951 371.5C332.005 371.204 332.986 370.693 333.83 369.998C335.051 368.721 334.343 364.634 334.328 363.027Z" fill="white"/>
<path d="M334.329 363.028C334.477 363.604 334.573 364.192 334.616 364.786C334.691 365.356 334.766 366.077 334.796 366.949C334.833 367.414 334.833 367.881 334.796 368.346C334.77 368.924 334.587 369.485 334.269 369.968C333.362 370.91 332.216 371.59 330.952 371.936C329.577 372.384 328.233 372.921 326.927 373.544C323.771 375.22 320.502 376.675 317.144 377.901L316.466 378.096V377.39C314.407 361.821 310.998 346.46 306.275 331.479C305.431 328.745 304.526 326.086 303.622 323.487L303.215 322.315L304.436 322.451L331.39 325.26H331.932V325.786C333.211 334.675 334.011 343.627 334.329 352.602C334.435 355.862 334.45 358.416 334.42 360.113C334.452 361.012 334.401 361.913 334.269 362.802C334.084 361.923 333.993 361.027 333.998 360.128L333.53 352.617C333.078 346.142 332.279 336.918 330.515 325.951L331.118 326.537L304.134 323.923L304.948 322.886C305.868 325.5 306.788 328.189 307.632 330.939C312.369 345.961 315.655 361.399 317.445 377.044L316.692 376.549C320.015 375.397 323.263 374.037 326.415 372.477C327.764 371.877 329.154 371.375 330.576 370.975C331.694 370.691 332.727 370.145 333.591 369.383C334.018 368.574 334.221 367.666 334.178 366.754C334.178 365.912 334.178 365.251 334.178 364.605C334.152 364.075 334.203 363.544 334.329 363.028V363.028Z" fill="#1C2738"/>
<path d="M313.977 360.654C312.621 361.186 311.496 362.175 310.796 363.449C307.781 368.932 301.571 372.327 295.646 374.581C289.3 376.999 278.506 377.405 281.34 389.123C299.023 390.205 315.183 387.996 332.851 389.123C334.07 389.349 335.331 389.153 336.423 388.567C336.941 388.091 337.356 387.516 337.644 386.875C337.931 386.235 338.085 385.543 338.097 384.841C338.846 379.043 338.394 373.153 336.77 367.535L334.916 366.333C334.916 366.333 332.187 371.516 327.469 369.623C322.751 367.73 317.173 361.736 315.861 360.609C315.571 360.453 315.244 360.374 314.913 360.382C314.583 360.39 314.26 360.484 313.977 360.654V360.654Z" fill="white"/>
<path d="M313.976 360.654C313.976 360.654 314.097 360.534 314.383 360.429C314.605 360.336 314.844 360.288 315.084 360.288C315.325 360.288 315.563 360.336 315.785 360.429C316.81 361.165 317.971 362.352 319.675 363.794C321.645 365.582 323.803 367.154 326.112 368.481C327.44 369.367 329.066 369.691 330.634 369.383C332.29 368.814 333.662 367.63 334.463 366.078L334.78 365.507L335.307 365.867L337.176 367.114L337.357 367.234V367.445C338.351 370.807 338.928 374.278 339.076 377.781C339.165 379.689 339.12 381.602 338.94 383.504C338.867 384.517 338.71 385.522 338.473 386.509C338.347 387.098 338.099 387.654 337.746 388.143C337.393 388.631 336.943 389.042 336.423 389.348C335.357 389.812 334.186 389.983 333.031 389.844L329.91 389.694C327.815 389.694 325.674 389.574 323.504 389.559C319.162 389.559 314.685 389.649 310.102 389.784C300.496 390.264 290.871 390.264 281.264 389.784H280.691L280.601 389.273C280.158 387.536 280.05 385.732 280.284 383.955C280.551 382.194 281.381 380.566 282.651 379.313C283.853 378.19 285.267 377.316 286.812 376.744C288.201 376.195 289.62 375.723 291.063 375.332C295.855 374.173 300.41 372.196 304.525 369.488C306.048 368.464 307.436 367.253 308.655 365.882C309.142 365.329 309.595 364.747 310.012 364.14C310.374 363.584 310.69 363.028 311.052 362.547C311.605 361.852 312.305 361.288 313.102 360.895C313.645 360.639 313.961 360.579 313.976 360.624C312.987 361.182 312.12 361.933 311.429 362.833C311.127 363.268 310.856 363.839 310.494 364.455C310.097 365.112 309.654 365.739 309.168 366.333C307.973 367.796 306.589 369.094 305.052 370.194C300.918 373.091 296.298 375.228 291.41 376.504C290.016 376.93 288.648 377.431 287.309 378.006C285.959 378.53 284.721 379.305 283.661 380.289C282.612 381.35 281.935 382.72 281.731 384.195C281.55 385.79 281.667 387.405 282.078 388.958L281.415 388.402C290.219 388.928 299.912 388.567 310.057 388.222C314.579 388.071 319.102 387.981 323.519 388.011C325.705 388.011 327.86 388.086 329.971 388.191L333.106 388.357C333.993 388.48 334.897 388.372 335.729 388.041C336.077 387.834 336.376 387.555 336.607 387.223C336.838 386.892 336.996 386.515 337.071 386.118C337.291 385.21 337.437 384.286 337.508 383.354C337.692 381.512 337.758 379.661 337.704 377.811C337.606 374.412 337.1 371.038 336.197 367.76L336.438 368.091L334.584 366.814L335.428 366.603C334.476 368.407 332.852 369.766 330.905 370.389C329.976 370.63 329.001 370.63 328.071 370.389C327.254 370.13 326.47 369.777 325.735 369.338C323.403 367.917 321.243 366.233 319.298 364.32C317.685 362.818 316.509 361.481 315.695 360.774C315.325 360.593 314.903 360.551 314.504 360.654C314.142 360.639 313.991 360.684 313.976 360.654Z" fill="#1C2738"/>
<path d="M303.168 370.299C303.168 370.104 303.741 370.044 304.449 370.299C305.372 370.674 306.164 371.312 306.726 372.132C307.31 372.94 307.64 373.901 307.675 374.896C307.675 375.662 307.464 376.098 307.253 376.098C307.042 376.098 306.53 374.596 305.444 373.093C304.359 371.591 303.032 370.72 303.168 370.299Z" fill="#1C2738"/>
<path d="M299.837 373.198C300.003 372.823 301.571 373.198 302.656 374.701C303.741 376.203 303.591 377.841 303.169 377.856C302.747 377.871 302.234 376.774 301.375 375.602C300.515 374.43 299.626 373.544 299.837 373.198Z" fill="#1C2738"/>
<path d="M354.514 40.6782C353.097 35.5854 348.484 32.0549 343.841 29.5461C341.359 27.9661 338.464 27.1509 335.52 27.2025C332.61 27.4729 329.701 29.7414 329.701 32.6559L345.921 60.8391C348.996 55.4608 356.172 46.6423 354.514 40.6782Z" fill="#1C2738"/>
<path d="M332.655 31.4995L336.635 32.6262C338.605 33.1646 340.298 34.4253 341.374 36.1556C342.45 37.8858 342.831 39.9576 342.438 41.9555C342.438 42.0607 338.685 47.7694 338.7 47.8145C340.207 51.5702 342.016 49.5421 342.016 49.5421C342.631 47.5079 343.903 45.7332 345.634 44.4944C348.544 42.3912 352.373 44.7949 352.418 48.5056C352.418 51.1346 348.468 53.8688 348.468 53.8688L350.669 58.8715L353.684 70.6495L335.218 70.4242L333.258 65.1661C330.972 64.7711 328.751 64.0686 326.655 63.0779C324.741 61.9512 321.394 59.7878 323.339 49.1816C325.419 37.5237 327.59 31.815 332.655 31.4995Z" fill="white"/>
<path d="M332.655 31.4997C332.403 31.6221 332.133 31.7032 331.856 31.7401C331.104 31.9282 330.401 32.2711 329.79 32.7466C328.132 33.9485 326.775 36.7127 325.735 40.3783C325.223 42.2111 324.771 44.2843 324.348 46.5377C323.833 48.933 323.501 51.3637 323.354 53.8089C323.263 56.3328 323.459 59.2773 325.283 61.2303C327.107 63.1833 330.288 63.8293 333.333 64.4452L333.755 64.5353L333.891 64.9109L335.866 70.169L335.172 69.6732L353.639 69.8685L352.87 70.845V70.5295C351.89 66.6235 350.925 62.7777 350.006 59.067V59.1871L347.82 54.1695L347.579 53.6136L348.076 53.253C349.683 52.2491 350.933 50.7671 351.649 49.0166C351.775 48.1969 351.648 47.3583 351.284 46.6123C350.921 45.8664 350.338 45.2483 349.614 44.8402C348.924 44.4471 348.113 44.3239 347.337 44.4946C346.562 44.7061 345.856 45.1152 345.287 45.6815C344.066 46.7558 343.164 48.1431 342.679 49.6926V49.8729L342.589 49.963C342.339 50.2355 342.025 50.4425 341.675 50.5656C341.325 50.6887 340.951 50.7242 340.584 50.6691C339.953 50.4864 339.415 50.0733 339.077 49.5123C338.763 49.045 338.51 48.5402 338.323 48.01V48.01C338.293 47.8968 338.293 47.7777 338.323 47.6645C338.344 47.5671 338.385 47.4751 338.443 47.3941L338.549 47.2288L338.745 46.9284L339.152 46.3124L342.167 41.8055C342.167 41.9557 342.167 41.8055 342.167 41.6703V41.3849C342.167 41.1896 342.167 40.9943 342.167 40.799C342.197 40.424 342.197 40.0472 342.167 39.6723C342.103 38.9575 341.94 38.2548 341.684 37.584C341.215 36.3969 340.466 35.3404 339.499 34.5043C338.041 33.4079 336.366 32.6344 334.584 32.2358C333.936 32.0812 333.312 31.8385 332.73 31.5147C333.385 31.5529 334.033 31.6689 334.66 31.8603C335.293 32.0105 336.062 32.1908 336.981 32.4462C338.08 32.7318 339.107 33.2436 339.996 33.9485C341.111 34.8184 341.988 35.9553 342.544 37.2535C342.85 37.9997 343.058 38.7825 343.162 39.5821C343.192 40.0072 343.192 40.4339 343.162 40.859C343.177 41.0791 343.177 41.3 343.162 41.5201V41.8506C343.16 42.0152 343.113 42.1763 343.026 42.3163L340.132 46.9434L339.74 47.5443L339.559 47.8598L339.469 48.01C339.469 48.01 339.469 48.1452 339.469 47.9048V47.7546C339.469 47.7546 339.619 47.6044 339.092 47.7546L339.408 47.6344C339.574 48.0524 339.786 48.4505 340.041 48.8213C340.569 49.5724 341.142 49.6625 341.7 49.1217L341.549 49.3922C342.097 47.5766 343.141 45.9486 344.564 44.6899C345.304 43.9708 346.218 43.4534 347.217 43.1876C348.316 42.9294 349.472 43.0902 350.458 43.6383C351.411 44.2228 352.164 45.0808 352.619 46.0996C353.073 47.1184 353.208 48.2505 353.006 49.3471C352.701 50.4724 352.121 51.5047 351.317 52.3517C350.579 53.1721 349.755 53.9123 348.86 54.5601L349.116 53.6286L351.332 58.6163V58.6914C352.267 62.4021 353.232 66.2029 354.227 70.1539V70.4695L354.468 71.4459H353.458L334.991 71.1905H334.464L334.283 70.6948L332.353 65.4367L332.911 65.9024C331.323 65.6076 329.761 65.1907 328.238 64.6556C326.691 64.1605 325.281 63.3115 324.122 62.1767C323.082 60.9925 322.397 59.5398 322.148 57.9853C321.912 56.5912 321.846 55.1737 321.952 53.7639C322.146 51.263 322.539 48.7814 323.127 46.3425C323.61 44.074 324.122 42.0008 324.71 40.138C325.841 36.4423 327.454 33.5579 329.338 32.371C330.032 31.9122 330.82 31.6145 331.645 31.4997C331.978 31.4317 332.321 31.4317 332.655 31.4997Z" fill="#1C2738"/>
<path d="M345.076 51.7204C344.669 51.6002 344.805 50.0829 346.026 48.7158C347.247 47.3487 348.725 47.1083 348.89 47.4989C349.056 47.8895 348.137 48.7008 347.187 49.7674C346.237 50.834 345.468 51.8556 345.076 51.7204Z" fill="#1C2738"/>
<path d="M333.212 64.8051L338.865 59.3066C338.865 59.3066 330.936 64.069 328.886 64.069C326.836 64.069 333.212 64.8051 333.212 64.8051Z" fill="#1C2738"/>
<path d="M309.38 136.286L314.111 108.422C313.975 128.537 313.239 147.012 313.239 147.012L317.4 147.643L377.277 149.296L376.071 75.7881L359.217 70.7554L353.253 67.4639L342.032 70.0793L334.171 68.9266L329.083 74.5862C329.083 74.5862 317.565 77.7411 311.129 79.3936C309.813 79.7359 308.596 80.3801 307.576 81.2749C306.555 82.1696 305.758 83.2901 305.249 84.5465L289.692 123.171L259.859 126.926L260.779 146.456L299.732 145.044C302.116 144.946 304.39 144.014 306.154 142.413C307.918 140.811 309.06 138.642 309.38 136.286Z" fill="#1C2738"/>
<path d="M345.18 79.3482L342.452 79.0928L341.532 80.0092L332.487 133.281L340.477 145.765C340.477 145.765 351.919 133.356 351.662 134.047C351.406 134.738 345.18 79.3482 345.18 79.3482Z" fill="#1C2738"/>
<path d="M338.865 76.0874L341.548 80.0384L345.181 79.3474L347.261 74.57L345.467 72.0161L340.07 72.2715L338.518 76.0423" fill="#1C2738"/>
<path d="M372.858 105.323C372.994 105.503 370.869 107.186 367.401 109.83L353.834 120.136L340.267 130.531C336.8 133.191 334.614 134.783 334.478 134.618C334.342 134.452 336.272 132.56 339.573 129.675C342.875 126.791 347.533 122.945 352.839 118.889C358.146 114.832 363.09 111.377 366.738 108.928C370.386 106.48 372.738 105.143 372.858 105.323Z" fill="#1C2738"/>
<path d="M376.085 148.559L343.282 147.297L313.133 146.787C314.263 149.521 291.109 233.605 289.586 245.939C288.063 258.272 302.58 357.86 302.58 357.86H337.403L325.238 255.493L343.614 187.784L348.86 357.424L384.858 357.71L380.743 181.37C380.61 175.547 379.939 169.748 378.738 164.048L376.085 148.559Z" fill="#FFBB37"/>
<path d="M384.799 347.389C384.799 347.809 376.975 348.996 367.161 349.131C357.348 349.267 349.464 348.335 349.494 347.929C349.524 347.524 357.423 347.719 367.146 347.569C376.87 347.419 384.754 346.953 384.799 347.389Z" fill="#1C2738"/>
<path d="M335.925 348.381C335.925 348.801 328.222 349.162 318.71 349.162C309.197 349.162 301.509 348.801 301.509 348.381C301.509 347.96 309.212 347.584 318.71 347.584C328.207 347.584 335.925 348.005 335.925 348.381Z" fill="#1C2738"/>
<path d="M345.03 178.981C344.593 178.981 344.201 172.431 344.156 164.349C344.11 156.266 344.427 149.701 344.849 149.686C345.271 149.671 345.678 156.251 345.723 164.334C345.769 172.416 345.467 178.981 345.03 178.981Z" fill="#1C2738"/>
<path d="M350.534 156.551C350.534 156.461 350.67 156.205 351.197 155.995C351.579 155.868 351.983 155.819 352.384 155.85C352.785 155.881 353.176 155.991 353.534 156.175C354.057 156.432 354.504 156.82 354.83 157.302C355.224 157.885 355.4 158.586 355.328 159.285C355.267 160.078 354.954 160.831 354.433 161.434C353.912 162.037 353.212 162.458 352.433 162.635C351.657 162.764 350.859 162.655 350.146 162.323C349.432 161.99 348.837 161.449 348.439 160.772C348.122 160.232 347.955 159.618 347.955 158.992C347.955 158.366 348.122 157.752 348.439 157.212C348.825 156.526 349.437 155.995 350.172 155.709C350.685 155.529 351.001 155.589 351.016 155.709C351.032 155.83 349.991 156.325 349.509 157.753C349.357 158.128 349.298 158.534 349.337 158.937C349.376 159.34 349.513 159.727 349.735 160.066C350.004 160.461 350.377 160.772 350.814 160.966C351.251 161.16 351.734 161.228 352.207 161.163C352.66 161.039 353.067 160.787 353.38 160.438C353.693 160.089 353.898 159.657 353.971 159.195C354.021 158.807 353.957 158.412 353.785 158.06C353.614 157.708 353.343 157.413 353.006 157.212C351.725 156.265 350.625 156.761 350.534 156.551Z" fill="#1C2738"/>
<path d="M369.465 357.304C369.073 357.304 363.194 356.268 360.661 364.816C358.129 373.364 352.822 378.066 353.214 381.777C353.596 384.413 354.454 386.958 355.747 389.288H383.59C383.59 389.288 385.806 381.596 384.208 376.549C382.61 371.501 379.022 366.874 378.766 363.554C378.51 360.234 375.329 357.304 369.465 357.304Z" fill="white"/>
<path d="M369.465 357.304C370.46 357.101 371.485 357.101 372.48 357.304C373.678 357.484 374.836 357.87 375.902 358.445C377.389 359.254 378.511 360.597 379.037 362.201C379.309 365.792 381.826 369.097 383.831 373.529C384.362 374.67 384.791 375.857 385.113 377.074C385.4 378.381 385.537 379.717 385.52 381.055C385.467 383.857 385.072 386.641 384.344 389.348L384.193 389.889H383.605H369.751H355.762H355.295L355.099 389.513C353.691 387.029 352.808 384.283 352.506 381.446C352.561 380.047 352.965 378.684 353.682 377.48C354.285 376.338 354.933 375.301 355.536 374.28C356.701 372.413 357.748 370.477 358.671 368.481C359.561 366.618 360.073 364.86 360.722 363.148C361.308 361.641 362.207 360.274 363.36 359.136C364.233 358.278 365.312 357.657 366.495 357.334C367.219 357.125 367.976 357.054 368.726 357.123C369.239 357.123 369.48 357.244 369.48 357.289C368.521 357.377 367.573 357.553 366.646 357.814C365.595 358.208 364.65 358.841 363.887 359.662C362.876 360.778 362.102 362.086 361.611 363.508C361.083 365.01 360.571 367.024 359.727 368.947C358.848 371.01 357.841 373.017 356.712 374.956C356.139 375.977 355.506 377.029 354.963 378.111C354.38 379.119 354.049 380.253 353.998 381.416C354.33 384.007 355.17 386.508 356.471 388.777L355.822 388.386H383.665L382.942 388.942C384.314 383.609 384.856 378.231 382.686 374.054C381.781 371.921 380.711 369.953 379.806 368.045C379.365 367.115 378.987 366.157 378.676 365.176C378.523 364.686 378.417 364.183 378.359 363.673C378.329 363.249 378.268 362.827 378.178 362.412C377.765 361.003 376.834 359.801 375.57 359.046C374.602 358.453 373.543 358.022 372.435 357.769C370.52 357.424 369.465 357.424 369.465 357.304Z" fill="#1C2738"/>
<path d="M377.125 372.477C376.959 372.898 373.824 371.936 369.889 371.726C365.955 371.516 362.714 372.072 362.593 371.636C362.473 371.2 365.714 369.908 369.98 370.134C374.246 370.359 377.246 372.117 377.125 372.477Z" fill="#1C2738"/>
<path d="M374.804 368.707C374.669 369.128 372.498 368.812 369.875 368.872C367.252 368.933 365.096 369.293 364.945 368.872C364.795 368.452 366.935 367.37 369.845 367.37C372.754 367.37 374.94 368.317 374.804 368.707Z" fill="#1C2738"/>
<path d="M340.298 52.1264C340.102 52.5019 339.242 52.4719 338.368 52.0362C337.494 51.6005 336.951 50.9395 337.147 50.5339C337.343 50.1283 338.202 50.1734 339.077 50.6091C339.951 51.0447 340.478 51.7358 340.298 52.1264Z" fill="#1C2738"/>
<path d="M310.533 144.356C310.009 144.297 310.725 134.053 312.162 121.482C313.598 108.911 315.213 98.7575 315.737 98.8169C316.26 98.8763 315.544 109.12 314.106 121.703C312.668 134.285 311.075 144.418 310.533 144.356Z" fill="white"/>
<path d="M146.677 357.304C147.084 357.304 152.948 356.268 155.481 364.816C158.013 373.364 163.335 378.066 162.928 381.777C162.548 384.411 161.695 386.955 160.41 389.288H132.552C132.552 389.288 130.336 381.596 131.934 376.549C133.532 371.501 137.12 366.874 137.391 363.554C137.662 360.234 140.828 357.304 146.677 357.304Z" fill="#777777"/>
<path d="M146.677 357.304C146.677 357.425 145.622 357.425 143.783 357.83C142.679 358.08 141.625 358.512 140.663 359.107C139.395 359.857 138.462 361.061 138.055 362.472C137.952 362.886 137.886 363.309 137.859 363.734C137.806 364.243 137.705 364.746 137.557 365.237C137.247 366.22 136.865 367.179 136.412 368.106C135.522 369.999 134.452 371.967 133.532 374.115C131.361 378.292 131.904 383.67 133.276 389.003L132.552 388.447H160.411L159.747 388.838C161.054 386.572 161.894 384.07 162.22 381.476C162.169 380.314 161.838 379.18 161.255 378.171C160.712 377.09 160.094 376.038 159.506 375.017C158.377 373.078 157.37 371.071 156.491 369.007C155.647 367.084 155.134 365.131 154.607 363.569C154.116 362.147 153.342 360.839 152.33 359.723C151.557 358.869 150.583 358.219 149.496 357.83C148.57 357.568 147.621 357.392 146.662 357.304C146.662 357.304 146.904 357.184 147.416 357.124C148.172 357.069 148.932 357.146 149.662 357.35C150.839 357.677 151.913 358.297 152.783 359.152C153.968 360.284 154.902 361.65 155.526 363.163C156.159 364.876 156.672 366.634 157.561 368.497C158.496 370.49 159.548 372.426 160.712 374.295C161.315 375.317 161.948 376.354 162.551 377.495C163.268 378.7 163.672 380.063 163.727 381.461C163.424 384.299 162.542 387.044 161.134 389.529L160.938 389.904H160.486H146.497H132.628H132.04L131.904 389.364C131.15 386.655 130.729 383.866 130.653 381.056C130.623 379.718 130.755 378.381 131.045 377.075C131.365 375.855 131.799 374.668 132.341 373.529C134.331 369.022 136.864 365.792 137.12 362.202C137.648 360.594 138.776 359.249 140.271 358.446C141.334 357.867 142.493 357.48 143.693 357.304C144.678 357.106 145.692 357.106 146.677 357.304Z" fill="#1C2738"/>
<path d="M139.078 372.477C138.897 372.117 141.973 370.404 146.239 370.164C150.505 369.923 153.776 371.245 153.61 371.666C153.445 372.087 150.279 371.516 146.329 371.756C142.38 371.997 139.244 372.898 139.078 372.477Z" fill="#1C2738"/>
<path d="M141.355 368.707C141.204 368.316 143.39 367.205 146.3 367.31C149.209 367.415 151.35 368.497 151.199 368.812C151.048 369.128 148.907 368.812 146.269 368.812C143.631 368.812 141.476 369.128 141.355 368.707Z" fill="#1C2738"/>
<path d="M177.188 106.345C177.61 106.345 177.67 119.385 177.309 135.429C176.947 151.474 176.314 164.514 175.801 164.499C175.289 164.484 175.304 151.459 175.665 135.399C176.027 119.34 176.751 106.33 177.188 106.345Z" fill="#1C2738"/>
<path d="M140.572 76.3882C137.011 78.3417 134.147 81.3503 132.378 84.9975C130.609 88.6447 130.022 92.7498 130.698 96.7444C132.024 105.984 139.034 121.172 143.978 131.012C145.437 133.919 147.624 136.401 150.329 138.218C153.034 140.034 156.164 141.122 159.415 141.378L219.352 144.803L222.608 125.994L165.792 121.487L152.405 92.0572" fill="#127BF2"/>
<path d="M152.403 92.0582C152.811 92.6775 153.164 93.3309 153.459 94.0111L156.217 99.7499C158.584 104.828 162.006 112.144 166.257 121.278L165.82 120.962L222.667 125.244H223.481L223.345 126.055C222.32 132.064 221.235 138.404 220.119 144.879L219.999 145.555H219.305L203.296 144.639L178.211 143.136L166.287 142.43L160.498 142.19C158.55 142.132 156.621 141.793 154.77 141.183C151.169 139.997 147.99 137.795 145.62 134.844C144.518 133.457 143.587 131.944 142.846 130.337L140.66 125.83C137.826 119.821 135.384 114.157 133.469 108.854C131.557 104.104 130.398 99.0863 130.032 93.9811C130.015 91.8594 130.32 89.7473 130.937 87.7165C131.476 86.0237 132.252 84.4153 133.243 82.9392C134.602 80.9 136.336 79.1362 138.354 77.7412C138.868 77.3739 139.407 77.0426 139.967 76.7497C140.359 76.5544 140.57 76.4793 140.57 76.5093C140.57 76.5394 139.831 76.975 138.535 78.0116C136.645 79.4784 135.028 81.2629 133.756 83.2847C132.843 84.7395 132.133 86.3113 131.645 87.9569C131.108 89.9135 130.865 91.9384 130.922 93.9661C131.361 98.9555 132.576 103.847 134.525 108.463C136.484 113.706 138.972 119.325 141.836 125.274L144.052 129.781C144.757 131.311 145.648 132.749 146.705 134.063C148.913 136.795 151.873 138.826 155.222 139.906C156.965 140.459 158.776 140.767 160.604 140.823L166.393 141.138L178.317 141.799L203.386 143.212L219.396 144.128L218.582 144.774C219.712 138.299 220.813 131.989 221.868 125.965L222.546 126.836L165.745 122.119H165.428L165.307 121.849C161.222 112.625 157.966 105.248 155.69 100.126C154.619 97.6017 153.775 95.6186 153.187 94.2666C152.86 93.5555 152.597 92.8164 152.403 92.0582V92.0582Z" fill="#1C2738"/>
<path d="M144.127 77.4248C144.127 77.2445 145.122 77.1694 146.448 77.8905C148.118 78.8976 149.382 80.4546 150.021 82.2922C150.632 84.0475 150.888 85.9061 150.775 87.7606C150.775 89.1577 150.518 89.999 150.307 89.999C150.096 89.999 149.885 89.1728 149.674 87.8207C149.452 86.127 149.074 84.4574 148.544 82.833C147.99 81.2785 147.052 79.8884 145.815 78.7918C144.865 77.9656 144.066 77.59 144.127 77.4248Z" fill="#1C2738"/>
<path d="M202.258 95.2568C202.65 96.6349 202.897 98.0495 202.997 99.4783C203.392 102.914 203.543 106.373 203.449 109.829C203.361 113.285 203.018 116.729 202.424 120.135C202.253 121.56 201.919 122.961 201.429 124.311C201.469 122.885 201.62 121.463 201.881 120.06C202.183 117.446 202.575 113.825 202.665 109.814C202.756 105.803 202.665 102.167 202.439 99.5384C202.268 98.118 202.207 96.6865 202.258 95.2568V95.2568Z" fill="#1C2738"/>
<path d="M223.121 122.915C222.699 122.915 222.669 120.767 223.121 118.258C223.573 115.749 224.191 113.751 224.628 113.856C225.066 113.961 225.066 116.004 224.628 118.513C224.191 121.022 223.558 122.975 223.121 122.915Z" fill="#1C2738"/>
<path d="M162.927 382.227C162.927 382.662 155.948 383.008 147.355 383.008C138.762 383.008 131.783 382.662 131.783 382.227C131.783 381.791 138.747 381.445 147.355 381.445C155.963 381.445 162.927 381.806 162.927 382.227Z" fill="white"/>
<path d="M232.98 383.37C232.98 383.805 220.815 384.151 205.846 384.151C190.877 384.151 178.711 383.805 178.711 383.37C178.711 382.934 190.861 382.588 205.846 382.588C220.83 382.588 232.98 382.934 232.98 383.37Z" fill="white"/>
<path d="M361.202 81.5359L329.607 85.7931C328.278 85.9721 327.347 87.1903 327.527 88.5141L333.786 134.651C333.966 135.974 335.188 136.902 336.516 136.723L368.112 132.466C369.44 132.287 370.372 131.069 370.192 129.745L363.933 83.6087C363.753 82.2849 362.531 81.3569 361.202 81.5359Z" fill="white"/>
<path d="M361.377 89.7062L348.587 91.3799L349.422 97.7157L362.212 96.042L361.377 89.7062Z" fill="#127BF2"/>
<path d="M358.492 113.044C356.261 109.244 351.271 101.882 349.04 98.0214C348.783 97.5857 348.376 97.0749 347.879 97.1951C347.381 97.3153 347.261 97.9613 347.276 98.472C347.275 100.389 347.611 102.29 348.271 104.091C345.689 101.502 342.7 99.35 339.422 97.7209C338.578 97.3002 337.266 97.0899 336.95 97.9763C336.754 98.5322 337.161 99.103 337.553 99.5537C339.321 101.526 341.291 103.309 343.432 104.872C341.473 103.136 339.173 101.826 336.678 101.026C335.91 100.786 334.854 100.695 334.493 101.417C334.131 102.138 334.839 102.919 335.488 103.445L342.859 109.229L336.422 106.134C335.503 105.683 334.055 105.398 333.694 106.374C333.332 107.351 334.176 107.876 334.869 108.312C340.266 111.978 345.799 116.455 351.195 120.12" fill="white"/>
<path d="M351.209 120.105C350.452 119.803 349.738 119.404 349.084 118.918C347.757 118.062 345.858 116.77 343.491 115.087C341.124 113.405 338.305 111.347 335.019 109.078C334.548 108.795 334.108 108.463 333.708 108.087C333.466 107.85 333.272 107.569 333.135 107.26C333.052 107.063 333.01 106.851 333.01 106.637C333.01 106.423 333.052 106.211 333.135 106.014C333.213 105.808 333.337 105.621 333.496 105.468C333.654 105.315 333.845 105.199 334.054 105.127C334.402 105.005 334.772 104.959 335.14 104.992C335.767 105.067 336.374 105.256 336.934 105.548L343.175 108.552L342.406 109.769L334.868 103.955C334.472 103.644 334.13 103.268 333.858 102.844C333.692 102.559 333.594 102.241 333.572 101.912C333.544 101.535 333.645 101.159 333.858 100.846C334.063 100.577 334.331 100.364 334.639 100.225C334.947 100.086 335.285 100.026 335.622 100.049C336.137 100.063 336.646 100.159 337.13 100.335C338.826 100.904 340.439 101.697 341.923 102.693C342.622 103.153 343.291 103.654 343.928 104.196C344.073 104.342 344.154 104.539 344.154 104.744C344.154 104.949 344.073 105.146 343.928 105.292C343.8 105.437 343.623 105.529 343.431 105.551C343.239 105.573 343.046 105.524 342.888 105.413C341.152 104.146 339.528 102.734 338.034 101.191L336.964 100.049C336.46 99.5763 336.136 98.945 336.044 98.2616C336.037 98.0286 336.077 97.7965 336.162 97.5795C336.248 97.3625 336.377 97.1652 336.542 96.9997C336.856 96.7118 337.261 96.5418 337.687 96.519C338.316 96.4854 338.943 96.6094 339.511 96.8795C342.91 98.5723 346.002 100.816 348.662 103.52L347.546 104.226C346.878 102.365 346.541 100.403 346.551 98.4269C346.524 98.105 346.572 97.7812 346.693 97.4812C346.813 97.1812 347.002 96.9134 347.245 96.6992C347.422 96.5784 347.629 96.5065 347.843 96.4906C348.058 96.4748 348.272 96.5157 348.466 96.6091C348.748 96.7483 348.991 96.9547 349.174 97.21C349.491 97.6457 349.642 97.9912 349.868 98.3518L350.501 99.4034L354.857 106.509C356.247 108.516 357.434 110.654 358.4 112.894C357.951 112.444 357.561 111.939 357.239 111.392L354.224 106.96C352.913 105.037 351.33 102.723 349.566 100.004L348.918 98.9527C348.692 98.6072 348.466 98.1865 348.27 97.9461C348.198 97.851 348.105 97.7739 347.998 97.7208C347.877 97.9405 347.829 98.1933 347.863 98.4419C347.893 100.265 348.24 102.07 348.888 103.775C348.952 103.942 348.946 104.128 348.873 104.291C348.799 104.455 348.664 104.582 348.496 104.646C348.374 104.694 348.24 104.705 348.112 104.678C347.983 104.651 347.866 104.588 347.772 104.496V104.496C345.194 101.959 342.221 99.8536 338.969 98.2616C338.631 98.1153 338.267 98.0386 337.898 98.0363C337.597 98.0363 337.687 98.1114 337.657 98.2015C337.627 98.2917 338.577 99.4485 339.165 100.14C340.613 101.602 342.176 102.949 343.838 104.166L342.858 105.383C342.268 104.848 341.649 104.347 341.004 103.88C339.64 102.966 338.16 102.239 336.602 101.717C335.909 101.401 335.095 101.492 335.095 101.612C335.095 101.732 335.095 101.717 335.095 101.957C335.271 102.226 335.49 102.464 335.743 102.663L343.144 108.522C343.293 108.641 343.39 108.813 343.412 109.001C343.435 109.189 343.382 109.379 343.265 109.529C343.161 109.662 343.013 109.754 342.848 109.789C342.683 109.825 342.51 109.802 342.361 109.724L336.165 106.614C335.762 106.378 335.316 106.225 334.853 106.164C334.386 106.164 334.205 106.164 334.16 106.359C334.115 106.554 334.16 106.75 334.446 107.065C334.783 107.387 335.151 107.674 335.547 107.921C338.818 110.235 341.577 112.428 343.853 114.171L349.189 118.317C349.947 118.812 350.627 119.414 351.209 120.105V120.105Z" fill="#1C2738"/>
<path d="M372.996 74.8105C372.996 74.8105 383.412 76.7936 386.684 84.8159C390.483 94.1151 397.236 128.503 394.914 133.656C392.035 139.815 382.478 146.08 376.146 142.444C369.815 138.809 345.997 119.91 345.997 119.91L358.72 106.164L375.92 118.963L373.011 95.2719L372.996 74.8105Z" fill="#1C2738"/>
<path d="M375.76 82.0907C375.895 82.2409 375.617 82.8865 374.547 84.8095C373.164 87.4526 373.264 89.0013 373.28 91.9819C373.567 94.2654 373.883 96.7442 374.215 99.3432C375.542 110.475 376.28 119.519 375.843 119.579C375.406 119.639 373.989 110.641 372.602 99.4784C372.301 96.8644 372.029 94.3856 371.773 92.0871C371.83 88.8825 372.047 87.214 373.803 84.5286C375.235 82.4855 375.684 82.0005 375.76 82.0907Z" fill="white"/>
<path d="M382.175 123.862C381.904 124.177 376.567 120.361 370.115 115.464C363.663 110.566 358.568 106.45 358.764 106.21C358.96 105.969 364.643 109.289 371.065 114.217C377.487 119.144 382.461 123.516 382.175 123.862Z" fill="white"/>
<path d="M175.317 113.857C175.136 113.977 173.417 111.783 170.568 108.283C169.151 106.525 167.448 104.422 165.639 102.033C164.734 100.832 163.8 99.5546 162.895 98.1725C161.816 96.6989 161.164 94.9578 161.011 93.1398C161.152 90.5332 161.956 88.0053 163.347 85.7935L163.619 86.77C161.962 85.7178 160.084 85.0598 158.131 84.847L157.453 84.7719L157.528 84.1109C158.448 77.3055 159.217 72.8436 159.488 72.8737C159.76 72.9037 159.488 77.3806 158.84 84.2612L158.252 83.54C160.438 83.6834 162.555 84.3592 164.418 85.5081L164.991 85.8686L164.689 86.4846C163.455 88.4769 162.735 90.7426 162.594 93.0797C162.727 94.6202 163.279 96.0953 164.191 97.3462C165.051 98.6983 165.94 99.9753 166.814 101.177C168.533 103.566 170.101 105.684 171.458 107.607C174.096 111.303 175.498 113.751 175.317 113.857Z" fill="white"/>
<path d="M186.761 75.4717C186.867 75.4717 187.575 76.2679 188.374 78.0857C188.892 79.2179 189.085 80.4712 188.932 81.7062C188.801 82.4962 188.492 83.2462 188.027 83.8996C187.477 84.6591 186.668 85.193 185.751 85.4019V84.0949C186.691 84.4032 187.527 84.9652 188.165 85.7184C188.804 86.4715 189.221 87.3865 189.369 88.3615C189.649 90.4155 189.313 92.5061 188.404 94.3707C185.932 99.8991 183.535 104.752 181.756 108.282C179.977 111.812 178.741 113.916 178.575 113.825C178.153 113.66 181.997 104.676 186.957 93.7847C187.738 92.2018 188.057 90.4318 187.877 88.6769C187.793 87.961 187.517 87.281 187.076 86.7095C186.635 86.138 186.047 85.6964 185.374 85.432L182.661 84.6508L185.495 84.1399C186.096 83.9629 186.635 83.6212 187.051 83.1538C187.467 82.6863 187.742 82.1119 187.846 81.4959C188.042 80.4433 187.969 79.3586 187.635 78.3411C187.078 76.5684 186.595 75.5468 186.761 75.4717Z" fill="white"/>
<path d="M198.534 102.559C198.534 102.979 196.484 103.49 193.891 103.25C191.298 103.009 189.368 102.168 189.368 101.747C189.368 101.327 191.509 101.477 193.891 101.747C196.273 102.018 198.504 102.123 198.534 102.559Z" fill="white"/>
<path d="M144.883 149.701C143.78 152.401 142.491 155.022 141.024 157.543L140.572 156.732C146.134 156.912 153.988 156.732 162.717 157.093H163.742L163.109 157.363C164.797 155.485 165.189 152.856 166.124 150.468L166.757 151.489C160.44 150.858 154.953 150.858 151.034 150.543C149.089 150.392 147.521 150.197 146.511 150.047C145.953 149.994 145.405 149.862 144.883 149.656C144.883 149.656 145.381 149.536 146.541 149.551H151.064C154.938 149.551 160.471 149.416 166.877 149.957L167.872 150.032L167.51 150.978C167.088 152.075 166.757 153.292 166.32 154.569C165.878 155.945 165.177 157.225 164.254 158.34L163.998 158.625H163.621H162.611C153.943 158.265 146.029 158.265 140.466 157.784H139.577L140.029 157.048C141.446 154.473 143.069 152.016 144.883 149.701V149.701Z" fill="#1C2738"/>
<path d="M358.838 38.5305C358.64 37.5106 358.105 36.5864 357.318 35.9055C356.531 35.2246 355.537 34.8264 354.496 34.7747C354.987 33.8752 355.211 32.8551 355.141 31.8335C355.072 30.8119 354.712 29.8312 354.104 29.0059C353.473 28.1953 352.623 27.5811 351.653 27.2351C350.684 26.8892 349.636 26.8259 348.632 27.0529C347.55 25.9053 346.33 24.8961 344.999 24.0483C343.653 23.207 342.037 22.9063 340.477 23.207C338.973 23.7846 337.534 24.5146 336.18 25.3853C334.839 26.0313 333.316 26.2867 332.035 27.0679C331.364 27.4005 330.831 27.9566 330.528 28.6398C330.225 29.323 330.171 30.0902 330.376 30.8086L346.612 37.6441C348.717 39.8238 350.16 42.5532 350.773 45.5162C350.855 46.3737 351.156 47.196 351.647 47.9048C351.916 48.1558 352.234 48.3489 352.582 48.4719C352.929 48.595 353.298 48.6454 353.666 48.6201C354.034 48.5947 354.392 48.4941 354.719 48.3245C355.046 48.1549 355.335 47.92 355.566 47.6344C355.998 47.0261 356.258 46.3135 356.319 45.571C356.38 44.8284 356.24 44.0831 355.913 43.413C356.875 43.0374 357.684 42.354 358.213 41.4702C358.743 40.5863 358.962 39.5522 358.838 38.5305V38.5305Z" fill="#1C2738"/>
<path d="M338.307 25.5657C337.769 24.6878 336.987 23.9838 336.056 23.5386C335.125 23.0935 334.085 22.9262 333.061 23.0569C332.041 23.225 331.092 23.6831 330.327 24.376C329.562 25.0689 329.015 25.9671 328.75 26.9628C327.905 26.93 327.071 27.1695 326.373 27.6458C325.676 28.122 325.15 28.8097 324.876 29.6069C324.645 30.4176 324.715 31.2838 325.072 32.0476C325.429 32.8114 326.049 33.422 326.82 33.7683C327.878 34.143 329.033 34.143 330.091 33.7683C331.162 33.4377 332.157 32.927 333.227 32.5965C335.643 31.8931 338.24 32.1741 340.448 33.3777L338.307 25.5657Z" fill="#1C2738"/>
<path d="M261.939 77.155C262.316 77.3653 260.673 81.0459 257.266 84.8468C256.787 85.3942 256.155 85.7857 255.451 85.9706C254.747 86.1554 254.003 86.125 253.316 85.8834C252.997 85.747 252.712 85.5414 252.483 85.2815C252.253 85.0216 252.085 84.714 251.99 84.3811C251.843 83.8552 251.843 83.2995 251.99 82.7736C252.198 82.1019 252.571 81.4925 253.075 81.0009C253.407 80.6854 253.648 80.5502 253.723 80.6103C253.799 80.6704 253.723 80.9258 253.587 81.3464C253.335 81.8633 253.162 82.4154 253.075 82.9839C253.075 83.6449 253.256 84.4111 253.874 84.5764C254.294 84.6672 254.731 84.6395 255.136 84.4961C255.54 84.3528 255.897 84.0996 256.165 83.7651C259.301 80.2197 261.577 76.9296 261.939 77.155Z" fill="#1C2738"/>
<path d="M265.572 80.415C265.949 80.6404 264.427 84.0956 261.231 87.6711C260.774 88.1882 260.173 88.5575 259.504 88.7315C258.835 88.9055 258.129 88.8763 257.477 88.6476C257.166 88.5085 256.891 88.3012 256.671 88.041C256.452 87.7809 256.295 87.4746 256.211 87.1453C256.083 86.6526 256.083 86.1357 256.211 85.643C256.412 85.0091 256.77 84.4357 257.251 83.9755C257.568 83.675 257.794 83.5548 257.884 83.6149C257.975 83.675 257.884 83.9304 257.764 84.321C257.537 84.7959 257.385 85.3025 257.311 85.8233C257.238 86.1185 257.27 86.43 257.402 86.7043C257.534 86.9785 257.758 87.1982 258.035 87.3256C258.421 87.4041 258.822 87.3739 259.192 87.2386C259.562 87.1033 259.887 86.8682 260.13 86.5594C263.04 83.2694 265.196 80.2047 265.572 80.415Z" fill="#1C2738"/>
<path d="M267.532 85.3573C267.894 85.5977 266.507 88.4971 263.567 91.3665C263.141 91.7742 262.613 92.0624 262.039 92.2022C261.465 92.342 260.864 92.3284 260.296 92.1628C260.015 92.07 259.757 91.919 259.539 91.7196C259.32 91.5202 259.147 91.277 259.03 91.006C258.881 90.552 258.881 90.0628 259.03 89.6088C259.207 89.0471 259.555 88.5538 260.025 88.1967C260.311 87.9563 260.522 87.8662 260.613 87.9413C260.703 88.0164 260.613 88.2267 260.507 88.5572C260.317 88.9507 260.19 89.3715 260.13 89.8041C260.09 90.0229 260.137 90.2487 260.261 90.4337C260.384 90.6188 260.576 90.7486 260.794 90.7957C261.122 90.8385 261.457 90.8052 261.77 90.6984C262.084 90.5916 262.369 90.4141 262.603 90.1797C265.18 87.6108 267.2 85.1019 267.532 85.3573Z" fill="#1C2738"/>
<path d="M381.045 0.177235H409.777C410.823 0.157319 411.862 0.342843 412.835 0.723177C413.808 1.10351 414.697 1.67122 415.45 2.39387C416.203 3.11653 416.806 3.97997 417.224 4.93488C417.643 5.88979 417.868 6.91743 417.888 7.95915V35.1358C417.868 36.1775 417.643 37.2052 417.224 38.1601C416.806 39.115 416.203 39.9785 415.45 40.7011C414.697 41.4238 413.808 41.9915 412.835 42.3718C411.862 42.7521 410.823 42.9377 409.777 42.9178H394.175C391.793 46.6885 387.226 51.4058 379.568 50.279C379.568 50.279 385.477 48.5063 386.502 42.9178H381.045C378.932 42.958 376.89 42.1611 375.367 40.702C373.843 39.243 372.963 37.241 372.92 35.1358V7.95915C372.963 5.85393 373.843 3.85202 375.367 2.39296C376.89 0.933897 378.932 0.136983 381.045 0.177235V0.177235Z" fill="#127BF2"/>
<path d="M394.205 28.5096L385.959 20.9079L389.291 17.2273L394.07 21.6441L402.708 13.0659L406.175 16.6114L394.205 28.5096Z" fill="white"/>
<path d="M211.076 1.72459H273.651C274.696 1.70468 275.735 1.8902 276.709 2.27054C277.682 2.65087 278.571 3.21858 279.324 3.94123C280.077 4.66389 280.68 5.52733 281.098 6.48224C281.516 7.43715 281.742 8.46479 281.761 9.50651V40.5741C281.742 41.6158 281.516 42.6435 281.098 43.5984C280.68 44.5533 280.077 45.4168 279.324 46.1394C278.571 46.8621 277.682 47.4298 276.709 47.8101C275.735 48.1905 274.696 48.376 273.651 48.3561H224.206C221.839 52.1419 217.256 56.8441 209.598 55.7173C209.598 55.7173 215.508 53.9446 216.548 48.3561H211.076C210.03 48.376 208.991 48.1905 208.018 47.8101C207.045 47.4298 206.156 46.8621 205.403 46.1394C204.65 45.4168 204.047 44.5533 203.629 43.5984C203.21 42.6435 202.985 41.6158 202.965 40.5741V9.50651C202.985 8.46479 203.21 7.43715 203.629 6.48224C204.047 5.52733 204.65 4.66389 205.403 3.94123C206.156 3.21858 207.045 2.65087 208.018 2.27054C208.991 1.8902 210.03 1.70468 211.076 1.72459V1.72459Z" stroke="#BBBBBB" stroke-width="1.95708" stroke-linejoin="round"/>
<path d="M91.7768 198.09H34.7641C33.7438 198.089 32.7567 197.728 31.9783 197.071C31.1999 196.413 30.6807 195.502 30.5131 194.499L23.1717 150.557C23.0688 149.942 23.1016 149.311 23.2678 148.71C23.4341 148.108 23.7298 147.55 24.1343 147.074C24.5388 146.598 25.0425 146.215 25.6104 145.953C26.1783 145.691 26.7967 145.554 27.4227 145.554H84.4354C85.4575 145.554 86.4467 145.915 87.2276 146.572C88.0085 147.229 88.5307 148.14 88.7016 149.145L96.043 193.072C96.1459 193.689 96.1126 194.322 95.9456 194.925C95.7786 195.528 95.4818 196.088 95.0758 196.565C94.6699 197.043 94.1645 197.426 93.5948 197.69C93.0252 197.953 92.4048 198.089 91.7768 198.09V198.09Z" fill="#777777"/>
<path d="M91.7739 198.091C92.5448 198.034 93.2925 197.803 93.9598 197.415C94.7482 196.916 95.3557 196.179 95.6934 195.311C95.9026 194.76 95.9949 194.172 95.9647 193.584C95.9647 192.968 95.7386 192.277 95.6331 191.571C94.6381 185.802 93.2061 177.524 91.4574 167.308C90.5831 162.186 89.6182 156.567 88.6082 150.543C88.5237 149.802 88.3621 149.072 88.1259 148.364C87.8604 147.685 87.4053 147.096 86.8144 146.667C86.221 146.227 85.5161 145.962 84.7793 145.901C84.0255 145.901 83.1813 145.901 82.3673 145.901H72.2974H27.4349C26.5269 145.9 25.6465 146.212 24.9432 146.784C24.2398 147.357 23.7567 148.154 23.5758 149.04C23.5004 149.478 23.5004 149.925 23.5758 150.363L23.8019 151.79L24.2843 154.659C24.9174 158.475 25.5405 162.231 26.1535 165.926C27.3746 173.303 28.5655 180.409 29.681 187.199C29.9674 188.897 30.2388 190.564 30.5252 192.217C30.6609 193.028 30.7815 193.884 30.9323 194.65C31.1001 195.39 31.4828 196.064 32.0327 196.588C32.5751 197.111 33.2544 197.47 33.9924 197.625C34.7626 197.717 35.5389 197.747 36.314 197.715H40.957H58.0216L82.714 197.835H89.4374H91.1861C91.3813 197.812 91.5787 197.812 91.7739 197.835H91.1861H89.4374L82.714 197.91L58.0216 198.046H40.957H36.2838C35.4637 198.089 34.6413 198.059 33.8266 197.955C32.9616 197.786 32.1652 197.368 31.5352 196.754C30.8825 196.143 30.426 195.354 30.2237 194.485C30.0579 193.629 29.9373 192.833 29.7866 192.006C29.5152 190.354 29.2288 188.671 28.9424 186.989C27.7967 180.198 26.6058 173.092 25.3697 165.716C24.7466 162.02 24.1185 158.27 23.4853 154.464L23.0029 151.594L22.7617 150.092C22.6865 149.594 22.6865 149.088 22.7617 148.59C23.0526 147.596 23.6632 146.726 24.4995 146.112C25.3358 145.499 26.3514 145.176 27.3897 145.195H72.2522H82.3221C83.1512 145.195 83.92 145.195 84.7793 145.195C85.6451 145.266 86.4719 145.584 87.1611 146.111C87.8434 146.609 88.3669 147.292 88.6685 148.079C88.9129 148.836 89.0796 149.617 89.166 150.408C90.161 156.417 91.0805 162.05 91.9247 167.188L95.8592 191.496C95.9648 192.217 96.1004 192.863 96.1456 193.539C96.1789 194.161 96.0707 194.782 95.8291 195.356C95.4616 196.258 94.8111 197.017 93.9749 197.52C93.458 197.807 92.8895 197.991 92.3016 198.061C92.1269 198.086 91.9504 198.096 91.7739 198.091Z" fill="#1C2738"/>
<path d="M87.3118 193.899H38.2133C37.3451 193.91 36.5011 193.614 35.8307 193.064C35.1603 192.514 34.7066 191.746 34.5501 190.894L28.2187 153.667C28.1329 153.139 28.1641 152.599 28.3101 152.084C28.4561 151.569 28.7133 151.093 29.0639 150.688C29.4144 150.282 29.8496 149.959 30.3391 149.739C30.8285 149.519 31.3602 149.409 31.897 149.416H80.9955C81.8621 149.411 82.7031 149.709 83.3723 150.258C84.0415 150.807 84.4966 151.572 84.6586 152.42L90.9749 189.647C91.0605 190.174 91.0297 190.713 90.8846 191.227C90.7394 191.741 90.4835 192.217 90.1347 192.622C89.7858 193.026 89.3525 193.35 88.8649 193.571C88.3773 193.792 87.8473 193.904 87.3118 193.899V193.899Z" fill="white"/>
<path d="M87.311 193.898C87.9758 193.818 88.6171 193.604 89.1953 193.267C89.8829 192.854 90.4132 192.225 90.7028 191.479C90.9061 191.006 90.9839 190.489 90.9289 189.977C90.9289 189.466 90.748 188.865 90.6425 188.264C89.7832 183.307 88.5321 176.246 86.9944 167.518C86.2407 163.131 85.4116 158.339 84.5221 153.201C84.4639 152.577 84.3008 151.968 84.0397 151.398C83.75 150.857 83.3174 150.405 82.7886 150.091C82.25 149.774 81.6354 149.608 81.0098 149.61H70.3067L31.9113 149.7C31.148 149.697 30.4067 149.954 29.8112 150.43C29.2158 150.906 28.8023 151.571 28.64 152.314C28.5795 152.682 28.5795 153.058 28.64 153.426L28.8511 154.643L29.2581 157.107C29.8159 160.352 30.3586 163.567 30.8862 166.721L33.9011 184.914C34.1423 186.417 34.3835 187.784 34.6097 189.196C34.7453 189.887 34.8207 190.698 35.0016 191.239C35.2158 191.835 35.5979 192.356 36.102 192.741C36.5981 193.131 37.1931 193.375 37.8206 193.447C38.4387 193.447 39.1773 193.447 39.8255 193.447H43.8354H58.4277L79.5324 193.583L85.2759 193.658H86.7834H87.2959C87.1256 193.676 86.9537 193.676 86.7834 193.658H85.2759L79.5324 193.733L58.4277 193.853H43.8354H39.8255C39.1321 193.853 38.514 193.853 37.7452 193.853C36.9888 193.763 36.2705 193.472 35.6649 193.012C35.0532 192.536 34.5925 191.894 34.3383 191.164C34.1122 190.398 34.0669 189.662 33.9162 189.016C33.675 187.603 33.4338 186.176 33.1775 184.734C32.1977 178.935 31.1575 172.851 30.0721 166.541C29.5294 163.401 28.9868 160.186 28.429 156.926L28.022 154.478L27.8109 153.246C27.7356 152.788 27.7356 152.321 27.8109 151.864C28.0108 150.944 28.5207 150.12 29.2558 149.53C29.9909 148.94 30.9068 148.618 31.8509 148.619H70.2162H80.9193C81.6684 148.615 82.4039 148.818 83.0449 149.205C83.6765 149.558 84.1981 150.077 84.5523 150.707C84.8426 151.338 85.0211 152.014 85.0799 152.705C85.9392 157.858 86.7381 162.665 87.4768 167.052C88.9089 175.795 90.0696 182.871 90.8686 187.829C90.9591 188.46 91.0947 189.016 91.1249 189.586C91.1464 190.101 91.0538 190.614 90.8536 191.089C90.5285 191.862 89.9561 192.506 89.2255 192.922C88.7604 193.176 88.2467 193.329 87.718 193.372C87.6103 193.567 87.473 193.745 87.311 193.898Z" fill="#1C2738"/>
<path d="M34.6724 192.487H117.207C118.698 192.487 120.128 193.077 121.183 194.128C122.237 195.179 122.83 196.604 122.83 198.09H34.2654" fill="#777777"/>
<path d="M34.2654 198.09C34.4153 198.068 34.5677 198.068 34.7176 198.09H36.0593H41.1998L60.1488 197.97L122.83 197.85L122.438 198.241C122.433 197.81 122.378 197.381 122.272 196.964C122.092 196.268 121.772 195.617 121.332 195.048C120.891 194.48 120.339 194.007 119.709 193.659C119.077 193.326 118.386 193.121 117.674 193.058C116.981 193.058 116.166 193.058 115.443 193.058H106.504H89.6199L60.9779 192.968L41.6972 192.847L36.4512 192.772H35.0945C34.9394 192.792 34.7823 192.792 34.6272 192.772C34.7823 192.752 34.9394 192.752 35.0945 192.772H36.4512L41.6972 192.697L60.9779 192.577L89.6199 192.487H115.443C116.212 192.487 116.95 192.487 117.749 192.487C118.568 192.561 119.364 192.801 120.086 193.193C120.824 193.582 121.473 194.119 121.992 194.77C122.511 195.422 122.889 196.174 123.101 196.979C123.226 197.47 123.291 197.974 123.297 198.481V198.872H122.89L60.209 198.751L41.2601 198.631L36.1196 198.556H34.7779L34.2654 198.09Z" fill="#1C2738"/>
<path d="M79.6839 159.031C79.6839 159.166 78.8698 159.316 77.5433 160.007C75.692 160.961 74.1928 162.476 73.262 164.334C72.9605 164.905 72.7948 165.551 72.4933 166.302C72.2181 167.207 71.6023 167.972 70.7747 168.435C70.5022 168.557 70.2068 168.621 69.9079 168.621C69.609 168.621 69.3136 168.557 69.0411 168.435C68.5637 168.187 68.1547 167.826 67.8502 167.384C67.4336 166.68 66.9269 166.034 66.3427 165.461C65.6712 165.047 64.8857 164.854 64.0981 164.911C63.3105 164.968 62.5609 165.27 61.956 165.776C60.5557 167.047 59.5776 168.714 59.1521 170.553C58.8551 171.603 58.4298 172.612 57.8858 173.558C57.2634 174.577 56.3037 175.347 55.1723 175.736C54.567 175.926 53.9218 175.952 53.3031 175.811C52.7622 175.653 52.2523 175.404 51.7956 175.075C51.1475 174.551 50.3906 174.176 49.5796 173.979C48.0402 173.727 46.4624 174.065 45.1627 174.925C43.9608 175.66 42.9733 176.696 42.2985 177.93C41.3131 179.816 40.6266 181.843 40.2634 183.939C40.1831 184.732 39.9797 185.507 39.6604 186.237C39.5146 185.448 39.5146 184.638 39.6604 183.849C39.8043 181.63 40.3668 179.459 41.3186 177.449C42.0383 176.017 43.1187 174.795 44.4542 173.903C46.0212 172.802 47.9559 172.35 49.8509 172.642C50.8574 172.854 51.8045 173.285 52.6247 173.903C52.9072 174.149 53.2476 174.319 53.6141 174.398C53.9805 174.477 54.3611 174.462 54.7201 174.354C55.4865 174.069 56.1378 173.541 56.5743 172.852C57.0442 172.006 57.4136 171.109 57.6748 170.178C58.1946 168.037 59.3694 166.11 61.0364 164.664C61.9056 163.959 62.9813 163.554 64.1015 163.51C65.2218 163.467 66.3258 163.788 67.2472 164.424C67.9206 165.093 68.4988 165.852 68.9657 166.677C69.418 167.323 69.8401 167.534 70.2773 167.368C70.7144 167.203 71.1063 166.587 71.3777 165.956C71.649 165.325 71.9053 164.604 72.2822 163.958C73.3835 161.961 75.1554 160.413 77.287 159.587C78.0132 159.169 78.8473 158.976 79.6839 159.031V159.031Z" fill="#127BF2"/>
<path d="M83.544 187.844C83.544 188.279 74.1374 188.625 62.5449 188.625C50.9524 188.625 41.5608 188.279 41.5608 187.844C41.5608 187.408 50.9524 187.062 62.5449 187.062C74.1374 187.062 83.544 187.408 83.544 187.844Z" fill="#127BF2"/>
<path d="M24.3297 85.2524H7.1897V114.502H24.3297V85.2524Z" fill="white"/>
<path d="M48.737 72.8584H31.5969V114.502H48.737V72.8584Z" fill="white"/>
<path d="M75.9144 61.7266H58.7744V113.871H75.9144V61.7266Z" fill="white"/>
<path d="M246.292 133.357C247.93 135.636 250.348 137.239 253.09 137.864C254.288 137.836 255.465 137.553 256.544 137.035C257.623 136.517 258.578 135.775 259.346 134.859" fill="white"/>
<path d="M259.347 134.874C259.498 134.994 259.091 135.835 257.96 136.797C257.289 137.372 256.524 137.829 255.699 138.149C254.634 138.6 253.455 138.715 252.322 138.479C247.694 137.097 245.87 133.507 246.292 133.356C246.488 133.236 247.061 133.852 248.162 134.633C249.52 135.664 251.051 136.448 252.684 136.947C254.312 137.143 255.958 136.771 257.342 135.895C258.488 135.249 259.181 134.678 259.347 134.874Z" fill="#1C2738"/>
<rect x="215.647" y="14.0293" width="54.0527" height="1.86389" rx="0.931944" fill="#BBBBBB"/>
<rect x="215.647" y="25.2129" width="54.0527" height="1.86389" rx="0.931944" fill="#BBBBBB"/>
<rect x="215.647" y="36.396" width="36.8541" height="1.86389" rx="0.931944" fill="#BBBBBB"/>
</svg>
