<svg width="199" height="67" viewBox="0 0 199 67" fill="none" xmlns="http://www.w3.org/2000/svg">
<g filter="url(#filter0_d_4645_32991)">
<rect x="3" y="3" width="188" height="56" rx="8" fill="white"/>
<rect x="3" y="3" width="188" height="56" rx="8" stroke="#DCDCDC" stroke-width="0.8"/>
</g>
<path d="M79.68 32.12L80.032 30.824C80.384 29.592 80.736 28.248 81.04 26.952H81.104C81.456 28.232 81.776 29.592 82.144 30.824L82.496 32.12H79.68ZM83.84 37H86.32L82.512 25.16H79.728L75.936 37H78.336L79.168 33.96H83.008L83.84 37ZM87.514 40.44H89.85V37.72L89.786 36.248C90.474 36.872 91.226 37.224 92.01 37.224C93.978 37.224 95.818 35.448 95.818 32.376C95.818 29.624 94.506 27.816 92.298 27.816C91.338 27.816 90.41 28.328 89.658 28.968H89.594L89.434 28.04H87.514V40.44ZM91.482 35.288C91.002 35.288 90.426 35.112 89.85 34.616V30.68C90.474 30.056 91.018 29.752 91.626 29.752C92.858 29.752 93.402 30.696 93.402 32.408C93.402 34.36 92.57 35.288 91.482 35.288ZM97.8109 40.44H100.147V37.72L100.083 36.248C100.771 36.872 101.523 37.224 102.307 37.224C104.275 37.224 106.115 35.448 106.115 32.376C106.115 29.624 104.803 27.816 102.595 27.816C101.635 27.816 100.707 28.328 99.9549 28.968H99.8909L99.7309 28.04H97.8109V40.44ZM101.779 35.288C101.299 35.288 100.723 35.112 100.147 34.616V30.68C100.771 30.056 101.315 29.752 101.923 29.752C103.155 29.752 103.699 30.696 103.699 32.408C103.699 34.36 102.867 35.288 101.779 35.288ZM115.461 37.224C118.197 37.224 119.813 35.576 119.813 33.64C119.813 31.928 118.869 31.016 117.429 30.424L115.877 29.768C114.869 29.368 114.021 29.064 114.021 28.216C114.021 27.432 114.693 26.968 115.733 26.968C116.709 26.968 117.493 27.32 118.245 27.944L119.445 26.456C118.485 25.48 117.109 24.936 115.733 24.936C113.333 24.936 111.637 26.424 111.637 28.36C111.637 30.088 112.837 31.048 114.037 31.544L115.621 32.216C116.677 32.664 117.397 32.936 117.397 33.816C117.397 34.648 116.741 35.176 115.509 35.176C114.469 35.176 113.349 34.648 112.501 33.864L111.141 35.496C112.293 36.6 113.877 37.224 115.461 37.224ZM124.497 37.224C125.281 37.224 125.905 37.048 126.385 36.888L126.001 35.176C125.761 35.272 125.409 35.368 125.121 35.368C124.321 35.368 123.905 34.888 123.905 33.864V29.896H126.113V28.04H123.905V25.64H121.937L121.665 28.04L120.289 28.152V29.896H121.553V33.864C121.553 35.88 122.369 37.224 124.497 37.224ZM131.383 37.224C133.623 37.224 135.687 35.496 135.687 32.536C135.687 29.544 133.623 27.816 131.383 27.816C129.143 27.816 127.079 29.544 127.079 32.536C127.079 35.496 129.143 37.224 131.383 37.224ZM131.383 35.304C130.167 35.304 129.479 34.216 129.479 32.536C129.479 30.84 130.167 29.736 131.383 29.736C132.599 29.736 133.287 30.84 133.287 32.536C133.287 34.216 132.599 35.304 131.383 35.304ZM137.655 37H139.991V31.656C140.503 30.36 141.351 29.896 142.055 29.896C142.423 29.896 142.679 29.944 142.983 30.04L143.399 28.008C143.127 27.896 142.839 27.816 142.343 27.816C141.415 27.816 140.455 28.456 139.799 29.624H139.735L139.575 28.04H137.655V37ZM148.324 37.224C149.444 37.224 150.58 36.84 151.46 36.232L150.66 34.792C150.02 35.192 149.38 35.416 148.644 35.416C147.316 35.416 146.356 34.648 146.164 33.176H151.684C151.748 32.968 151.796 32.536 151.796 32.104C151.796 29.624 150.516 27.816 148.052 27.816C145.908 27.816 143.876 29.624 143.876 32.536C143.876 35.48 145.828 37.224 148.324 37.224ZM146.132 31.624C146.308 30.312 147.14 29.64 148.084 29.64C149.236 29.64 149.78 30.408 149.78 31.624H146.132Z" fill="#363636"/>
<g clip-path="url(#clip0_4645_32991)">
<path d="M61.884 36.924C61.5362 37.7275 61.1245 38.4672 60.6475 39.1473C59.9972 40.0743 59.4649 40.716 59.0546 41.0724C58.4185 41.6573 57.7371 41.9569 57.0073 41.9739C56.4835 41.9739 55.8517 41.8248 55.1163 41.5224C54.3785 41.2214 53.7004 41.0724 53.0804 41.0724C52.4302 41.0724 51.7328 41.2214 50.9869 41.5224C50.2399 41.8248 49.6381 41.9824 49.1779 41.998C48.4782 42.0278 47.7807 41.7198 47.0844 41.0724C46.6401 40.6848 46.0843 40.0204 45.4184 39.0791C44.704 38.074 44.1167 36.9084 43.6566 35.5795C43.1638 34.1442 42.9167 32.7543 42.9167 31.4087C42.9167 29.8673 43.2498 28.5379 43.9169 27.4239C44.4412 26.529 45.1387 25.8231 46.0117 25.3049C46.8847 24.7867 47.8279 24.5227 48.8437 24.5058C49.3996 24.5058 50.1284 24.6777 51.0342 25.0156C51.9374 25.3546 52.5174 25.5266 52.7716 25.5266C52.9617 25.5266 53.606 25.3255 54.6982 24.9247C55.731 24.5531 56.6027 24.3992 57.3168 24.4598C59.2519 24.616 60.7057 25.3788 61.6725 26.753C59.9419 27.8016 59.0858 29.2703 59.1028 31.1544C59.1185 32.622 59.6508 33.8432 60.6972 34.8129C61.1713 35.2629 61.7009 35.6108 62.2901 35.8578C62.1623 36.2283 62.0274 36.5833 61.884 36.924ZM57.446 19.4601C57.446 20.6104 57.0258 21.6844 56.1882 22.6785C55.1773 23.8602 53.9547 24.5431 52.6288 24.4354C52.6119 24.2974 52.6021 24.1521 52.6021 23.9995C52.6021 22.8953 53.0828 21.7135 53.9365 20.7472C54.3627 20.258 54.9048 19.8512 55.5621 19.5267C56.218 19.2071 56.8384 19.0303 57.4219 19C57.4389 19.1538 57.446 19.3076 57.446 19.4601V19.4601Z" fill="#363636"/>
</g>
<defs>
<filter id="filter0_d_4645_32991" x="0.0340517" y="0.0340517" width="198.8" height="66.7998" filterUnits="userSpaceOnUse" color-interpolation-filters="sRGB">
<feFlood flood-opacity="0" result="BackgroundImageFix"/>
<feColorMatrix in="SourceAlpha" type="matrix" values="0 0 0 0 0 0 0 0 0 0 0 0 0 0 0 0 0 0 127 0" result="hardAlpha"/>
<feOffset dx="2.43395" dy="2.43395"/>
<feGaussianBlur stdDeviation="2.5"/>
<feColorMatrix type="matrix" values="0 0 0 0 0 0 0 0 0 0 0 0 0 0 0 0 0 0 0.1 0"/>
<feBlend mode="normal" in2="BackgroundImageFix" result="effect1_dropShadow_4645_32991"/>
<feBlend mode="normal" in="SourceGraphic" in2="effect1_dropShadow_4645_32991" result="shape"/>
</filter>
<clipPath id="clip0_4645_32991">
<rect width="23" height="23" fill="white" transform="translate(41 19)"/>
</clipPath>
</defs>
</svg>
