<svg width="73" height="28" viewBox="0 0 73 28" fill="none" xmlns="http://www.w3.org/2000/svg">
<path d="M0.998401 3.30359C0.998401 2.46383 2.16235 0.952245 4.49023 0.952245L4.49023 12.709C2.25546 12.709 0.998399 12.7089 0.998401 9.94259L0.998401 3.30359Z" fill="#2D84AA"/>
<path d="M72 23.8226C72 26.1297 70.1297 28 67.8226 28H5.53557C4.95879 28 4.49121 27.5324 4.49121 26.9556V8.01354H67.8226C70.1297 8.01354 72 9.88384 72 12.191V23.8226Z" fill="#2C80A5"/>
<path d="M72 22.6473C72 24.9544 70.1297 26.8247 67.8226 26.8247H4.49121V5.66258H67.8226C70.1297 5.66258 72 7.53287 72 9.84V22.6473Z" fill="#00ACF5"/>
<path d="M14.1405 13.5206H15.1635V16.3916C14.8225 16.4136 14.4815 16.4246 14.1405 16.4356V13.5206ZM17.7045 16.1936C17.3305 16.2376 16.9455 16.2816 16.5495 16.3146V13.5206H17.3525V12.3656H11.9515V13.5206H12.7435V16.4576L11.6875 16.4686L11.8415 17.6456C13.5245 17.6456 15.8125 17.6016 17.8035 17.2496L17.7045 16.1936ZM14.6355 18.2946H13.1835V21.4846H20.0805V20.3296H14.6355V18.2946ZM19.7175 14.3896V11.5296H18.2655V18.9876H19.7175V15.5886H21.0595V14.3896H19.7175Z" fill="white"/>
<path d="M23.2006 13.7076H24.4986V17.9976H23.2006V13.7076ZM21.8476 19.1306H25.8406V12.5636H21.8476V19.1306ZM28.8766 11.5186V15.3906H28.0296V11.6836H26.6766V21.1986H28.0296V16.5566H28.8766V21.6496H30.2516V11.5186H28.8766Z" fill="white"/>
<path d="M35.0988 13.6966H37.1118V12.4976H31.5458V13.6966H33.6468V14.2576C33.6468 15.9296 32.8218 17.8326 31.1608 18.6026L31.9748 19.7576C33.1298 19.2076 33.9438 18.0966 34.3948 16.7766C34.8458 17.9756 35.6378 18.9876 36.7598 19.5046L37.5628 18.3606C35.9018 17.5906 35.0988 15.7976 35.0988 14.2576V13.6966ZM40.7858 15.3906H39.3118V11.5296H37.8598V21.6606H39.3118V16.5896H40.7858V15.3906Z" fill="white"/>
<path d="M47.3081 13.6966H49.3981V12.4976H43.7221V13.6966H45.8341V14.2576C45.8341 15.9846 45.0091 17.8436 43.3151 18.6026L44.1401 19.7576C45.3281 19.2186 46.1421 18.1076 46.5931 16.7876C47.0441 18.0086 47.8471 18.9986 49.0241 19.5046L49.8161 18.3606C48.1221 17.6566 47.3081 15.9076 47.3081 14.2576V13.6966ZM50.3331 11.5296V21.6606H51.7851V11.5296H50.3331Z" fill="white"/>
<path d="M58.3813 17.4146V18.4046H60.2843V19.2076H61.7363V11.5296H60.2843V17.4146H58.3813ZM56.4342 12.9266C57.1052 12.9266 57.5783 13.1906 57.5783 13.6856C57.5783 14.1806 57.1052 14.4336 56.4342 14.4336C55.7522 14.4336 55.2793 14.1806 55.2793 13.6856C55.2793 13.1906 55.7522 12.9266 56.4342 12.9266ZM56.4342 15.4896C57.9082 15.4896 58.9533 14.7636 58.9533 13.6856C58.9533 12.6076 57.9082 11.8706 56.4342 11.8706C54.9492 11.8706 53.9043 12.6076 53.9043 13.6856C53.9043 14.7636 54.9492 15.4896 56.4342 15.4896ZM55.8953 20.3296V18.9436H57.2923V17.0296C58.1063 16.9746 58.9203 16.8866 59.7122 16.7436L59.6133 15.7096C57.4793 15.9846 55.0153 16.0066 53.1673 16.0176L53.3543 17.1726C54.1133 17.1726 54.9602 17.1616 55.8512 17.1176V18.4706H54.4433V21.4846H61.9563V20.3296H55.8953Z" fill="white"/>
<path d="M0.9984 21.3032C0.9984 25.8981 3.61728 26.8171 4.49023 26.8171V5.65506C1.58037 5.65506 0.9984 4.47938 0.9984 3.30371V21.3032Z" fill="#00ACF5"/>
</svg>
