<svg width="29" height="27" viewBox="0 0 29 27" fill="none" xmlns="http://www.w3.org/2000/svg">
<path d="M13.7376 0.5C18.7267 0.593665 22.6517 1.8113 25.7965 4.94907C27.8536 6.98627 28.9176 9.46838 28.7285 12.372C28.5866 14.5497 27.6881 16.4464 26.2458 18.0621C23.9522 20.6613 20.9966 22.0429 17.639 22.6985C15.8184 23.0497 13.9741 23.0497 12.1298 22.8624C11.917 22.839 11.6333 22.9092 11.4441 23.0497C9.71803 24.1971 7.99195 25.3445 6.26588 26.5153C6.1713 26.5856 6.07672 26.6792 5.98214 26.7027C5.81663 26.7261 5.60383 26.7963 5.4856 26.7027C5.36738 26.6324 5.32009 26.3748 5.34373 26.2343C5.62747 25.1338 5.91121 24.0332 6.21859 22.9327C6.33681 22.4878 6.43139 22.0429 6.57326 21.5979C6.66784 21.3404 6.59691 21.2233 6.36046 21.0828C4.46887 20.0759 2.83738 18.7412 1.63149 16.9381C0.567476 15.3692 0 13.6365 0 11.7632C0 9.44497 0.827569 7.40776 2.34084 5.62814C4.42158 3.14602 7.16438 1.69422 10.3091 0.991739C11.6096 0.710745 12.981 0.593665 13.7376 0.5Z" fill="#3B1C1C"/>
</svg>
