<svg width="66" height="24" viewBox="0 0 66 24" fill="none" xmlns="http://www.w3.org/2000/svg">
<path d="M4.76638e-08 2C2.26476e-07 1.28571 1.33333 2.44229e-07 4 0L4 10C1.44 10 -1.43052e-06 9.99989 9.95735e-07 7.64697L4.76638e-08 2Z" fill="#2D84AA"/>
<path d="M65.7852 20.3307C65.635 22.4057 63.8997 24 61.8193 24H4.4474C4.19262 24 3.97859 23.8084 3.95046 23.5552L3.49988 19.5L1.43534 6C1.43534 6 65.9999 15 65.9999 16.5C65.9999 17.1792 65.8974 18.7811 65.7852 20.3307Z" fill="#2C80A5"/>
<path d="M66 19C66 21.2091 64.2091 23 62 23H4V4H62C64.2091 4 66 5.79086 66 8V19Z" fill="#00ACF5"/>
<path d="M14.9791 11.46H15.9091V14.07C15.5991 14.09 15.2891 14.1 14.9791 14.11V11.46ZM18.2191 13.89C17.8791 13.93 17.5291 13.97 17.1691 14V11.46H17.8991V10.41H12.9891V11.46H13.7091V14.13L12.7491 14.14L12.8891 15.21C14.4191 15.21 16.4991 15.17 18.3091 14.85L18.2191 13.89ZM15.4291 15.8H14.1091V18.7H20.3791V17.65H15.4291V15.8ZM20.0491 12.25V9.65H18.7291V16.43H20.0491V13.34H21.2691V12.25H20.0491ZM22.4884 11.63H23.6684V15.53H22.4884V11.63ZM21.2584 16.56H24.8884V10.59H21.2584V16.56ZM27.6484 9.64V13.16H26.8784V9.79H25.6484V18.44H26.8784V14.22H27.6484V18.85H28.8984V9.64H27.6484ZM32.5776 11.62H34.4076V10.53H29.3476V11.62H31.2576V12.13C31.2576 13.65 30.5076 15.38 28.9976 16.08L29.7376 17.13C30.7876 16.63 31.5276 15.62 31.9376 14.42C32.3476 15.51 33.0676 16.43 34.0876 16.9L34.8176 15.86C33.3076 15.16 32.5776 13.53 32.5776 12.13V11.62ZM37.7476 13.16H36.4076V9.65H35.0876V18.86H36.4076V14.25H37.7476V13.16ZM42.2224 11.62H44.1224V10.53H38.9624V11.62H40.8824V12.13C40.8824 13.7 40.1324 15.39 38.5924 16.08L39.3424 17.13C40.4224 16.64 41.1624 15.63 41.5724 14.43C41.9824 15.54 42.7124 16.44 43.7824 16.9L44.5024 15.86C42.9624 15.22 42.2224 13.63 42.2224 12.13V11.62ZM44.9724 9.65V18.86H46.2924V9.65H44.9724ZM51.5616 15V15.9H53.2916V16.63H54.6116V9.65H53.2916V15H51.5616ZM49.7916 10.92C50.4016 10.92 50.8316 11.16 50.8316 11.61C50.8316 12.06 50.4016 12.29 49.7916 12.29C49.1716 12.29 48.7416 12.06 48.7416 11.61C48.7416 11.16 49.1716 10.92 49.7916 10.92ZM49.7916 13.25C51.1316 13.25 52.0816 12.59 52.0816 11.61C52.0816 10.63 51.1316 9.96 49.7916 9.96C48.4416 9.96 47.4916 10.63 47.4916 11.61C47.4916 12.59 48.4416 13.25 49.7916 13.25ZM49.3016 17.65V16.39H50.5716V14.65C51.3116 14.6 52.0516 14.52 52.7716 14.39L52.6816 13.45C50.7416 13.7 48.5016 13.72 46.8216 13.73L46.9916 14.78C47.6816 14.78 48.4516 14.77 49.2616 14.73V15.96H47.9816V18.7H54.8116V17.65H49.3016Z" fill="white"/>
<path d="M0 17C0 21.1038 3 23 4 23V4.10001C0.666667 4.10001 0 3.05 0 2V17Z" fill="#00ACF5"/>
</svg>
