<svg width="20" height="19" viewBox="0 0 20 19" fill="none" xmlns="http://www.w3.org/2000/svg">
<path d="M6.71313 9.33899C6.71313 12.388 6.71313 15.2689 6.71313 18.1738C6.71313 18.606 6.66618 18.75 6.19669 18.75C4.27181 18.726 2.3704 18.726 0.44552 18.75C0.116881 18.75 -0.000488281 18.678 -0.000488281 18.3179C0.0229859 12.364 -0.000488281 6.38604 -0.000488281 0.432138C-0.000488281 0.0960306 0.0699385 0 0.422051 0C2.39388 0.0240077 4.38918 0.0240077 6.36101 0C6.68965 0 6.8305 0.168054 6.99482 0.408131C8.99013 3.40909 10.9854 6.38604 12.9807 9.387C13.0512 9.48303 13.0746 9.65109 13.2859 9.6751C13.2859 9.50704 13.2859 9.33899 13.2859 9.17093C13.2859 6.26601 13.2859 3.38508 13.2859 0.480154C13.2859 0.0960307 13.3798 0 13.7554 0C15.6803 0.0240077 17.6286 0.0240077 19.5535 0C19.9056 0 19.9995 0.120038 19.9995 0.456146C19.9995 6.41005 19.9995 12.3399 19.9995 18.2939C19.9995 18.654 19.9056 18.75 19.5535 18.75C17.5817 18.726 15.5864 18.726 13.6145 18.75C13.3563 18.75 13.192 18.654 13.0512 18.4379C11.0793 15.581 9.10749 12.7481 7.13566 9.91517C7.01829 9.72311 6.90092 9.57907 6.71313 9.33899Z" fill="white"/>
</svg>
