<svg width="116" height="116" viewBox="0 0 116 116" fill="none" xmlns="http://www.w3.org/2000/svg">
<rect width="115.999" height="115.999" fill="white"/>
<path opacity="0.55" d="M24.8441 50.7824L29.0646 77.859C29.1891 78.6475 29.5302 79.3859 30.0499 79.9918C30.5696 80.5977 31.2474 81.0473 32.0077 81.2905L45.784 85.6613C46.7522 85.9717 47.7863 86.015 48.7772 85.7866L78.371 79.0988C79.1966 78.9079 79.9479 78.4785 80.5313 77.8639C81.1147 77.2493 81.5045 76.4767 81.6522 75.6422L86.4113 47.7892L57.9697 43.3433L26.0339 49.1543C25.6619 49.216 25.329 49.421 25.1065 49.7254C24.8841 50.0298 24.7898 50.4093 24.8441 50.7824Z" fill="url(#paint0_linear_5794_19040)"/>
<path d="M37.475 51.4963L50.5374 54.1513C51.8746 54.4769 53.2704 54.4769 54.6076 54.1513L86.4057 47.7892L57.964 43.3433L26.0282 49.1543L37.475 51.4963Z" fill="white"/>
<path d="M55.5619 77.6575C55.9135 76.8752 55.37 75.8687 54.3479 75.4094C53.3259 74.95 52.2123 75.2119 51.8607 75.9942C51.5091 76.7765 52.0527 77.783 53.0748 78.2424C54.0968 78.7017 55.2103 78.4398 55.5619 77.6575Z" fill="#333333"/>
<path d="M55.5553 72.5442C55.9069 71.7619 55.3634 70.7554 54.3413 70.2961C53.3193 69.8367 52.2058 70.0986 51.8542 70.8809C51.5026 71.6632 52.0461 72.6697 53.0681 73.129C54.0902 73.5884 55.2037 73.3265 55.5553 72.5442Z" fill="#333333"/>
<path d="M55.5553 67.428C55.9069 66.6457 55.3634 65.6392 54.3413 65.1798C53.3193 64.7205 52.2058 64.9824 51.8542 65.7647C51.5026 66.547 52.0461 67.5535 53.0681 68.0128C54.0902 68.4722 55.2037 68.2103 55.5553 67.428Z" fill="#333333"/>
<path d="M24.8378 49.8556L29.0583 76.9822C29.1828 77.7707 29.5239 78.5091 30.0436 79.115C30.5633 79.7209 31.2411 80.1705 32.0014 80.4137L45.7776 84.7845C46.7459 85.0949 47.78 85.1382 48.7708 84.9098L78.3396 78.2346C79.167 78.0428 79.9195 77.6115 80.503 76.9945C81.0866 76.3775 81.4754 75.6022 81.6209 74.7654L86.3799 46.925L57.9383 42.479L26.0025 48.1773C25.8156 48.2105 25.6371 48.2804 25.4772 48.3828C25.3174 48.4852 25.1794 48.6182 25.0711 48.7742C24.9629 48.9301 24.8865 49.106 24.8465 49.2916C24.8064 49.4772 24.8035 49.6688 24.8378 49.8556V49.8556Z" stroke="#182C3D" stroke-width="2.1836" stroke-miterlimit="10"/>
<path d="M57.192 93.5623C59.0872 93.5623 60.6235 92.0259 60.6235 90.1308C60.6235 88.2356 59.0872 86.6992 57.192 86.6992C55.2968 86.6992 53.7604 88.2356 53.7604 90.1308C53.7604 92.0259 55.2968 93.5623 57.192 93.5623Z" stroke="#182C3D" stroke-width="2.1836" stroke-miterlimit="10"/>
<path d="M32.0046 91.345C33.8998 91.345 35.4361 89.8086 35.4361 87.9135C35.4361 86.0183 33.8998 84.4819 32.0046 84.4819C30.1094 84.4819 28.5731 86.0183 28.5731 87.9135C28.5731 89.8086 30.1094 91.345 32.0046 91.345Z" stroke="#182C3D" stroke-width="2.1836" stroke-miterlimit="10"/>
<path d="M76.4171 89.2791C78.3123 89.2791 79.8487 87.7427 79.8487 85.8476C79.8487 83.9524 78.3123 82.416 76.4171 82.416C74.5219 82.416 72.9856 83.9524 72.9856 85.8476C72.9856 87.7427 74.5219 89.2791 76.4171 89.2791Z" stroke="#182C3D" stroke-width="2.1836" stroke-miterlimit="10"/>
<path d="M86.2006 47.1136L90.5338 36.0174C90.8144 35.3056 91.2923 34.6886 91.9114 34.239L98.9999 29.2295" stroke="#182C3D" stroke-width="2.1836" stroke-miterlimit="10" stroke-linecap="round"/>
<path d="M61.5504 32.834L90.1673 37.2299" stroke="#182C3D" stroke-width="2.1836" stroke-miterlimit="10"/>
<path d="M56.5372 17.6751C56.4486 17.6656 56.3591 17.6656 56.2704 17.6751V17.6751C56.0728 17.6751 55.885 17.6751 55.6873 17.6751C55.292 17.6751 54.8967 17.6751 54.5014 17.7345V17.6751C54.315 17.6769 54.1306 17.7138 53.9579 17.7839C50.4944 18.2106 47.3058 19.8883 44.991 22.502C42.6763 25.1157 41.3947 28.4855 41.3871 31.9781C41.3881 35.479 42.6692 38.8583 44.9886 41.4787C47.3081 44.0991 50.5055 45.7792 53.9776 46.202C54.1498 46.2753 54.3342 46.3156 54.5212 46.3207V46.2514C54.9165 46.2514 55.3118 46.3207 55.7071 46.3207C55.9048 46.3207 56.0925 46.3207 56.2902 46.3207C56.3789 46.3301 56.4683 46.3301 56.557 46.3207C60.2126 46.113 63.6493 44.5098 66.1591 41.8415C68.6688 39.1731 70.0603 35.6428 70.0468 31.9781C70.0475 28.3177 68.648 24.796 66.1356 22.1361C63.6232 19.4761 60.1887 17.8799 56.5372 17.6751V17.6751Z" fill="white"/>
<path opacity="0.55" d="M56.4778 16.8667H56.2023H55.6012C55.1879 16.8667 54.7871 16.8667 54.3488 16.8667C54.16 16.8728 53.9737 16.9109 53.7977 16.9794C50.2091 17.4168 46.9045 19.1523 44.5074 21.8585C42.1103 24.5647 40.7864 28.0547 40.7855 31.6699C40.7868 35.2837 42.1111 38.772 44.5084 41.4762C46.9057 44.1803 50.2101 45.9133 53.7977 46.3478C53.9719 46.4222 54.1594 46.4606 54.3488 46.4605V46.3979C54.7621 46.3979 55.1628 46.4605 55.6012 46.4605H56.2023H56.4778C60.2435 46.2432 63.7834 44.5942 66.3726 41.8513C68.9618 39.1085 70.4042 35.4793 70.4043 31.7074C70.4236 27.9213 68.9902 24.2719 66.3994 21.511C63.8085 18.7501 60.2576 17.0879 56.4778 16.8667V16.8667Z" fill="url(#paint1_linear_5794_19040)"/>
<path d="M55.613 45.1966C63.1315 45.1966 69.2264 39.1016 69.2264 31.5831C69.2264 24.0647 63.1315 17.9697 55.613 17.9697C48.0945 17.9697 41.9996 24.0647 41.9996 31.5831C41.9996 39.1016 48.0945 45.1966 55.613 45.1966Z" stroke="#182C3D" stroke-width="2.1836" stroke-miterlimit="10"/>
<path d="M69.2139 31.5981C69.2139 33.2012 63.1273 34.4911 55.6005 34.4911C48.0736 34.4911 41.9996 33.2388 41.9996 31.5981" stroke="#182C3D" stroke-width="2.1836" stroke-miterlimit="10"/>
<path d="M54.4725 45.1957C52.1181 45.1957 50.2019 39.1092 50.2019 31.5949C50.2019 24.0806 52.1181 17.9814 54.4725 17.9814" stroke="#182C3D" stroke-width="2.1836" stroke-miterlimit="10"/>
<path d="M56.1466 45.1957C58.5136 45.1957 60.4172 39.1092 60.4172 31.5949C60.4172 24.0806 58.5136 17.9814 56.1466 17.9814" stroke="#182C3D" stroke-width="2.1836" stroke-miterlimit="10"/>
<path d="M38.4653 52.1349L47.232 54.0135C50.9947 54.8171 54.8825 54.8384 58.6538 54.0762L71.8664 51.4336" stroke="#182C3D" stroke-width="2.1836" stroke-miterlimit="10" stroke-linecap="round"/>
<defs>
<linearGradient id="paint0_linear_5794_19040" x1="97.2738" y1="77.7077" x2="28.9462" y2="45.8976" gradientUnits="userSpaceOnUse">
<stop stop-color="#F16A42"/>
<stop offset="1" stop-color="#FFAA3B"/>
</linearGradient>
<linearGradient id="paint1_linear_5794_19040" x1="75.6291" y1="40.7463" x2="39.4042" y2="29.0735" gradientUnits="userSpaceOnUse">
<stop stop-color="#F16A42"/>
<stop offset="1" stop-color="#FFAA3B"/>
</linearGradient>
</defs>
</svg>
