<svg width="116" height="116" viewBox="0 0 116 116" fill="none" xmlns="http://www.w3.org/2000/svg">
<rect width="115.999" height="115.999" fill="white"/>
<path d="M26.8595 83.1371L88.9311 65.4141C89.8948 65.1392 90.7419 64.5627 91.345 63.7714C91.9482 62.98 92.2747 62.0166 92.2754 61.0262V26.9285C92.2759 26.4541 92.1269 25.9913 91.849 25.6043C91.5712 25.2174 91.1783 24.9254 90.7248 24.7688L87.7508 23.7518C87.0764 23.5437 86.3538 23.5437 85.6794 23.7518L25.7024 40.1836C24.4838 40.5183 23.4099 41.2382 22.645 42.2329C21.8801 43.2276 21.4663 44.4424 21.467 45.6913V78.6806C21.4674 79.2362 21.6045 79.7835 21.8666 80.2752C22.1286 80.7668 22.5078 81.1882 22.9714 81.5031L24.927 82.8285C25.2068 83.0163 25.5247 83.1412 25.8586 83.1945C26.1925 83.2478 26.5342 83.2282 26.8595 83.1371Z" fill="white"/>
<path d="M89.6544 65.6081L27.3453 83.1721C27.113 83.2296 26.8711 83.2396 26.6347 83.2015C26.3983 83.1634 26.1724 83.078 25.9707 82.9505C25.7691 82.823 25.5961 82.6562 25.4623 82.4602C25.3286 82.2643 25.2369 82.0434 25.1931 81.8113L25.4972 45.2879C25.5197 44.8777 25.6821 44.487 25.9582 44.1792C26.2342 43.8715 26.6076 43.6648 27.0178 43.5926L90.1224 25.5096C91.0932 25.2674 92.2863 25.9363 92.2746 26.7897L91.9704 63.071C91.9379 63.6916 91.6901 64.2823 91.2685 64.7442C90.8468 65.2061 90.277 65.5111 89.6544 65.6081Z" fill="url(#paint0_linear_5311_16709)" fill-opacity="0.9"/>
<path opacity="0.68" d="M64.3229 73.9077L63.1014 80.8408C63.1014 80.9231 64.5306 79.9242 63.1014 80.8408L43.8257 86.9514L45.658 78.8549L64.3229 73.9077Z" fill="url(#paint1_linear_5311_16709)"/>
<path d="M66.1851 34.7769L56.8682 36.6402" stroke="#182C3D" stroke-width="2.23605" stroke-miterlimit="10" stroke-linecap="round"/>
<path d="M46.2114 77.1976L43.9162 83.7542C43.733 84.5579 43.83 85.4034 44.1896 86.1392C44.5492 86.8751 45.148 87.453 45.8786 87.7696L57.0565 94.1704C57.4394 94.3979 57.8916 94.4623 58.3189 94.3501L75.3611 89.0402C75.5562 88.9802 75.5447 88.7165 75.3611 88.5967L64.2636 82.2439C62.5421 81.285 61.7158 79.4391 62.3815 78.0367L64.3898 72.0435" fill="white"/>
<path opacity="0.4" d="M46.2114 77.1976L43.9162 83.7542C43.733 84.5579 43.83 85.4034 44.1896 86.1392C44.5492 86.8751 45.148 87.453 45.8786 87.7696L57.0565 94.1704C57.4394 94.3979 57.8916 94.4623 58.3189 94.3501L75.3611 89.0402C75.5562 88.9802 75.5447 88.7165 75.3611 88.5967L64.2636 82.2439C62.5421 81.285 61.7158 79.4391 62.3815 78.0367L64.3898 72.0435" fill="url(#paint2_linear_5311_16709)" fill-opacity="0.9"/>
<path d="M46.2114 77.1976L43.9162 83.7542C43.733 84.5579 43.83 85.4034 44.1896 86.1392C44.5492 86.8751 45.148 87.453 45.8786 87.7696L57.0565 94.1704C57.4394 94.3979 57.8916 94.4623 58.3189 94.3501L75.3611 89.0402C75.5562 88.9802 75.5447 88.7165 75.3611 88.5967L64.2636 82.2439C62.5421 81.285 61.7158 79.4391 62.3815 78.0367L64.3898 72.0435" stroke="#182C3D" stroke-width="2.23605" stroke-miterlimit="10"/>
<path d="M55.0041 83.2242L62.4576 81.3608" stroke="#182C3D" stroke-width="2.23605" stroke-miterlimit="10" stroke-linecap="round"/>
<path d="M66.9769 65.1678C67.1516 64.1523 66.663 63.2206 65.8856 63.0869C65.1083 62.9531 64.3365 63.668 64.1618 64.6836C63.9871 65.6992 64.4757 66.6309 65.253 66.7646C66.0304 66.8983 66.8022 66.1834 66.9769 65.1678Z" fill="#333333"/>
<path d="M62.4248 66.3407C62.5995 65.3251 62.1109 64.3934 61.3336 64.2597C60.5562 64.126 59.7844 64.8409 59.6098 65.8565C59.4351 66.872 59.9236 67.8037 60.701 67.9374C61.4783 68.0711 62.2501 67.3562 62.4248 66.3407Z" fill="#333333"/>
<path d="M57.8643 67.5199C58.039 66.5043 57.5505 65.5726 56.7731 65.4389C55.9958 65.3052 55.224 66.0201 55.0493 67.0357C54.8746 68.0512 55.3632 68.9829 56.1405 69.1166C56.9179 69.2503 57.6897 68.5354 57.8643 67.5199Z" fill="#333333"/>
<path d="M26.8595 83.1371L88.9311 65.4141C89.8948 65.1392 90.7419 64.5627 91.345 63.7714C91.9482 62.98 92.2747 62.0166 92.2754 61.0262V26.9285C92.2759 26.4541 92.1269 25.9913 91.849 25.6043C91.5712 25.2174 91.1783 24.9254 90.7248 24.7688L87.7508 23.7518C87.0764 23.5437 86.3538 23.5437 85.6794 23.7518L25.7024 40.1836C24.4838 40.5183 23.4099 41.2382 22.645 42.2329C21.8801 43.2276 21.4663 44.4424 21.467 45.6913V78.6806C21.4674 79.2362 21.6045 79.7835 21.8666 80.2752C22.1286 80.7668 22.5078 81.1882 22.9714 81.5031L24.927 82.8285C25.2068 83.0163 25.5247 83.1412 25.8586 83.1945C26.1925 83.2478 26.5342 83.2282 26.8595 83.1371V83.1371Z" stroke="#182C3D" stroke-width="2.23605" stroke-miterlimit="10"/>
<path d="M45.6902 38.502L27.8042 43.2811C27.0538 43.4831 26.3921 43.9187 25.9205 44.5212C25.4489 45.1238 25.1934 45.86 25.1931 46.6173V60.8625" stroke="#182C3D" stroke-width="2.23605" stroke-miterlimit="10" stroke-linecap="round"/>
<path d="M93.8671 49.0959L66.3575 57.1017C66.1298 57.1506 65.8953 57.1492 65.6681 57.0977C65.4409 57.0461 65.2257 56.9455 65.0355 56.8018C64.8454 56.6581 64.6842 56.4743 64.5616 56.2615C64.4391 56.0488 64.3578 55.8115 64.3226 55.564V44.6939C64.3259 44.3637 64.4368 44.0453 64.6357 43.7943C64.8346 43.5432 65.1089 43.3755 65.4108 43.3205L94.7921 34.7982C94.9258 34.7694 95.0636 34.7697 95.1972 34.7992C95.3309 34.8287 95.4577 34.8867 95.5702 34.9698C95.6828 35.0529 95.7788 35.1595 95.8526 35.2833C95.9264 35.407 95.9765 35.5454 96 35.6904V46.5721C95.9834 47.1985 95.759 47.7978 95.3676 48.2609C94.9762 48.724 94.4438 49.0203 93.8671 49.0959Z" fill="white"/>
<path opacity="0.4" d="M93.8671 49.0959L66.3575 57.1017C66.1298 57.1506 65.8953 57.1492 65.6681 57.0977C65.4409 57.0461 65.2257 56.9455 65.0355 56.8018C64.8454 56.6581 64.6842 56.4743 64.5616 56.2615C64.4391 56.0488 64.3578 55.8115 64.3226 55.564V44.6939C64.3259 44.3637 64.4368 44.0453 64.6357 43.7943C64.8346 43.5432 65.1089 43.3755 65.4108 43.3205L94.7921 34.7982C94.9258 34.7694 95.0636 34.7697 95.1972 34.7992C95.3309 34.8287 95.4577 34.8867 95.5702 34.9698C95.6828 35.0529 95.7788 35.1595 95.8526 35.2833C95.9264 35.407 95.9765 35.5454 96 35.6904V46.5721C95.9834 47.1985 95.759 47.7978 95.3676 48.2609C94.9762 48.724 94.4438 49.0203 93.8671 49.0959Z" fill="url(#paint3_linear_5311_16709)" fill-opacity="0.9"/>
<path d="M93.8671 49.0959L66.3575 57.1017C66.1298 57.1506 65.8953 57.1492 65.6681 57.0977C65.4409 57.0461 65.2257 56.9455 65.0355 56.8018C64.8454 56.6581 64.6842 56.4743 64.5616 56.2615C64.4391 56.0488 64.3578 55.8115 64.3226 55.564V44.6939C64.3259 44.3637 64.4368 44.0453 64.6357 43.7943C64.8346 43.5432 65.1089 43.3755 65.4108 43.3205L94.7921 34.7982C94.9258 34.7694 95.0636 34.7697 95.1972 34.7992C95.3309 34.8287 95.4577 34.8867 95.5702 34.9698C95.6828 35.0529 95.7788 35.1595 95.8526 35.2833C95.9264 35.407 95.9765 35.5454 96 35.6904V46.5721C95.9834 47.1985 95.759 47.7978 95.3676 48.2609C94.9762 48.724 94.4438 49.0203 93.8671 49.0959Z" stroke="#182C3D" stroke-width="2.23605" stroke-miterlimit="10" stroke-linecap="round"/>
<defs>
<linearGradient id="paint0_linear_5311_16709" x1="31.6255" y1="79.2404" x2="109.714" y2="40.0775" gradientUnits="userSpaceOnUse">
<stop stop-color="#798CCD" stop-opacity="0.9"/>
<stop offset="1" stop-color="#CDE7DE"/>
</linearGradient>
<linearGradient id="paint1_linear_5311_16709" x1="54.0621" y1="93.4144" x2="54.0621" y2="73.6139" gradientUnits="userSpaceOnUse">
<stop stop-color="white" stop-opacity="0.2"/>
<stop offset="1" stop-color="#FBB03B" stop-opacity="0.68"/>
</linearGradient>
<linearGradient id="paint2_linear_5311_16709" x1="46.8633" y1="92.8619" x2="80.4439" y2="72.3171" gradientUnits="userSpaceOnUse">
<stop stop-color="#6F7EB6" stop-opacity="0.9"/>
<stop offset="1" stop-color="#CDE7DE"/>
</linearGradient>
<linearGradient id="paint3_linear_5311_16709" x1="67.3601" y1="55.5953" x2="100.941" y2="35.0505" gradientUnits="userSpaceOnUse">
<stop stop-color="#6F7EB6" stop-opacity="0.9"/>
<stop offset="1" stop-color="#CDE7DE"/>
</linearGradient>
</defs>
</svg>
