<svg width="116" height="116" viewBox="0 0 116 116" fill="none" xmlns="http://www.w3.org/2000/svg">
<rect width="115.999" height="115.999" fill="white"/>
<path opacity="0.3" d="M74.2068 41.802L65.3283 43.4073C65.2215 43.4246 65.1118 43.4231 65.0057 43.403C64.8996 43.3829 64.7992 43.3446 64.7105 43.2903C64.6218 43.236 64.5466 43.1667 64.4893 43.0867C64.432 43.0067 64.3938 42.9176 64.377 42.8246V34.9302C64.3789 34.8028 64.4339 34.6804 64.5318 34.5854C64.6297 34.4904 64.7639 34.4294 64.9097 34.4135L74.6254 32.6213C74.6871 32.6102 74.7508 32.61 74.8126 32.6206C74.8744 32.6313 74.9331 32.6527 74.9852 32.6835C75.0373 32.7143 75.0817 32.7538 75.1158 32.7998C75.1498 32.8458 75.1728 32.8973 75.1835 32.9511V40.8564C75.1768 41.089 75.0749 41.3118 74.896 41.4851C74.717 41.6584 74.4727 41.7707 74.2068 41.802Z" fill="white"/>
<path opacity="0.6" d="M94.7976 37.7676C94.7507 37.4752 94.646 37.1952 94.4896 36.944C94.3333 36.6928 94.1285 36.4756 93.8872 36.3051C93.646 36.1346 93.3732 36.0142 93.0849 35.9511C92.7966 35.888 92.4987 35.8834 92.2086 35.9376L81.2694 38.2313V29.2886C81.179 28.6784 80.8617 28.1253 80.3813 27.7405C79.901 27.3557 79.2932 27.1677 78.6804 27.2146L28.0926 38.0604C27.1883 38.1607 26.351 38.587 25.7362 39.2601C25.1215 39.9333 24.771 40.8075 24.75 41.7205L24.8959 74.2824C24.8959 76.4662 27.6185 78.3938 30.0616 77.9424L34.7898 76.1856V86.5191C34.7898 88.7029 37.5125 90.6305 39.9434 90.1791L81.5733 81.3951L88.1854 85.6895V80.0043L91.6495 79.2722C92.5538 79.172 93.3911 78.7457 94.0059 78.0725C94.6206 77.3994 94.9711 76.5251 94.9921 75.6122L94.7976 37.7676Z" fill="url(#paint0_linear_5311_16692)"/>
<path opacity="0.8" d="M64.377 41.6182V34.8412C64.3789 34.7187 64.4339 34.601 64.5318 34.5096C64.6297 34.4183 64.7639 34.3596 64.9097 34.3443L74.6254 32.621C74.6871 32.6103 74.7508 32.6101 74.8126 32.6203C74.8744 32.6306 74.9331 32.6512 74.9852 32.6808C75.0373 32.7104 75.0817 32.7484 75.1158 32.7926C75.1498 32.8368 75.1728 32.8863 75.1835 32.9381V39.7468" fill="white"/>
<path d="M64.377 41.6182V35.1376C64.3789 34.9988 64.4339 34.8654 64.5318 34.7619C64.6297 34.6585 64.7639 34.592 64.9097 34.5746L74.6254 32.6221C74.6871 32.61 74.7508 32.6097 74.8126 32.6213C74.8744 32.633 74.9331 32.6563 74.9852 32.6898C75.0373 32.7234 75.0817 32.7664 75.1158 32.8166C75.1498 32.8667 75.1728 32.9227 75.1835 32.9814V39.4979" stroke="#182C3D" stroke-width="2.16129" stroke-miterlimit="10"/>
<path d="M53.386 78.8196C53.7251 78.0652 53.2009 77.0945 52.2153 76.6516C51.2297 76.2086 50.1559 76.4612 49.8169 77.2156C49.4778 77.97 50.002 78.9406 50.9876 79.3836C51.9732 79.8265 53.047 79.574 53.386 78.8196Z" fill="#333333"/>
<path d="M60.625 77.5682C60.9641 76.8138 60.4399 75.8431 59.4543 75.4002C58.4688 74.9572 57.3949 75.2097 57.0558 75.9641C56.7168 76.7185 57.241 77.6892 58.2266 78.1321C59.2122 78.5751 60.286 78.3226 60.625 77.5682Z" fill="#333333"/>
<path d="M67.7588 75.9901C68.0978 75.2357 67.5737 74.265 66.5881 73.8221C65.6025 73.3791 64.5286 73.6316 64.1896 74.386C63.8505 75.1404 64.3747 76.1111 65.3603 76.554C66.3459 76.9969 67.4198 76.7445 67.7588 75.9901Z" fill="#333333"/>
<path d="M87.7937 47.9224L76.9873 50.624" stroke="#182C3D" stroke-width="2.16129" stroke-miterlimit="10" stroke-linecap="round"/>
<path d="M87.7937 54.2222L76.9873 56.9238" stroke="#182C3D" stroke-width="2.16129" stroke-miterlimit="10" stroke-linecap="round"/>
<path d="M87.7937 59.6284L76.9873 62.33" stroke="#182C3D" stroke-width="2.16129" stroke-miterlimit="10" stroke-linecap="round"/>
<path d="M34.4936 76.236C34.5294 76.2286 34.5662 76.2295 34.6016 76.2384C34.6369 76.2474 34.6698 76.2642 34.6978 76.2877C34.7258 76.3111 34.7482 76.3407 34.7633 76.374C34.7784 76.4074 34.7859 76.4437 34.7852 76.4804V86.5127C34.7852 88.7 37.5062 90.6307 39.9357 90.1786L81.5892 81.3927L88.1974 85.694V79.9996L91.6594 79.2664C92.5632 79.166 93.4 78.7391 94.0144 78.0648C94.6287 77.3906 94.979 76.5149 95 75.6005L94.8542 37.7196C94.8073 37.4267 94.7027 37.1462 94.5464 36.8947C94.3902 36.6431 94.1855 36.4255 93.9444 36.2547C93.7033 36.0839 93.4307 35.9633 93.1426 35.9001C92.8544 35.8369 92.5567 35.8323 92.2668 35.8866L81.7107 38.1106C81.6753 38.1158 81.6391 38.1134 81.6047 38.1036C81.5702 38.0938 81.5382 38.0768 81.5107 38.0538C81.4833 38.0307 81.4609 38.0021 81.4451 37.9698C81.4293 37.9375 81.4204 37.9022 81.4191 37.8662L81.2733 25.4755C81.2265 25.1826 81.1219 24.9021 80.9656 24.6505C80.8094 24.399 80.6047 24.1814 80.3636 24.0106C80.1225 23.8398 79.8499 23.7193 79.5617 23.6561C79.2736 23.5928 78.9758 23.5883 78.6859 23.6426L24.4963 35.0068C23.5926 35.1072 22.7558 35.5342 22.1414 36.2084C21.527 36.8827 21.1768 37.7583 21.1558 38.6727L21.3015 74.2564C21.3015 76.4437 24.0225 78.3744 26.4642 77.9223L32.8416 76.5782L34.4936 76.236Z" stroke="#182C3D" stroke-width="2.16129" stroke-miterlimit="10"/>
<path d="M33.7598 68.6324V52.5439C33.759 51.4045 34.1416 50.2997 34.843 49.4159C35.5445 48.5321 36.5218 47.9234 37.6101 47.6927L66.1792 41.6162" stroke="#182C3D" stroke-width="2.16129" stroke-miterlimit="10" stroke-linecap="round"/>
<path d="M71.5823 39.8151L76.9855 38.9146" stroke="#182C3D" stroke-width="2.16129" stroke-miterlimit="10" stroke-linecap="round"/>
<path opacity="0.8" d="M65.7784 66.1277L45.0545 70.3986C44.8045 70.4477 44.5471 70.4463 44.2977 70.3945C44.0484 70.3427 43.8122 70.2415 43.6034 70.0971C43.3947 69.9527 43.2178 69.768 43.0833 69.5542C42.9488 69.3404 42.8595 69.1018 42.8208 68.853L42.7611 56.76C42.7667 56.4273 42.8887 56.1069 43.1064 55.8531C43.3242 55.5993 43.6243 55.4278 43.9556 55.3678L66.6504 50.6486C66.7975 50.6162 66.9497 50.614 67.0977 50.6422C67.2457 50.6704 67.3862 50.7283 67.5106 50.8123C67.6349 50.8964 67.7404 51.0049 67.8205 51.131C67.9007 51.2571 67.9536 51.3981 67.9762 51.5453V63.6501C67.9545 64.2498 67.724 64.8238 67.3236 65.2752C66.9232 65.7265 66.3775 66.0276 65.7784 66.1277Z" fill="white"/>
<path d="M65.7784 66.1277L45.0545 70.3986C44.8045 70.4477 44.5471 70.4463 44.2977 70.3945C44.0484 70.3427 43.8122 70.2415 43.6034 70.0971C43.3947 69.9527 43.2178 69.768 43.0833 69.5542C42.9488 69.3404 42.8595 69.1018 42.8208 68.853L42.7611 56.76C42.7667 56.4273 42.8887 56.1069 43.1064 55.8531C43.3242 55.5993 43.6243 55.4278 43.9556 55.3678L66.6504 50.6486C66.7975 50.6162 66.9497 50.614 67.0977 50.6422C67.2457 50.6704 67.3862 50.7283 67.5106 50.8123C67.6349 50.8964 67.7404 51.0049 67.8205 51.131C67.9007 51.2571 67.9536 51.3981 67.9762 51.5453V63.6501C67.9545 64.2498 67.724 64.8238 67.3236 65.2752C66.9232 65.7265 66.3775 66.0276 65.7784 66.1277V66.1277Z" stroke="#182C3D" stroke-width="2.16129" stroke-miterlimit="10" stroke-linecap="round"/>
<defs>
<linearGradient id="paint0_linear_5311_16692" x1="122.525" y1="78.5974" x2="22.6617" y2="48.6006" gradientUnits="userSpaceOnUse">
<stop stop-color="#FCEE21" stop-opacity="0.15"/>
<stop offset="1" stop-color="#FBB03B" stop-opacity="0.68"/>
</linearGradient>
</defs>
</svg>
