<svg width="116" height="116" viewBox="0 0 116 116" fill="none" xmlns="http://www.w3.org/2000/svg">
<rect width="115.999" height="115.999" fill="white"/>
<path opacity="0.6" d="M91.9458 45.9186L86.8022 39.1858C86.6171 38.9723 86.3602 38.8322 86.079 38.7915C85.7977 38.7509 85.5111 38.8123 85.272 38.9645L58.8241 50.0887C58.0325 50.3008 57.1886 50.2005 56.4701 49.8091L31.7524 39.4071C31.3141 39.1253 30.7884 39.008 30.2703 39.0764C29.7522 39.1447 29.2759 39.3942 28.9275 39.7799L23.7839 46.5127C23.525 46.8505 23.7839 47.5028 24.2665 47.6775L28.9746 49.6577L29.3513 71.9294C29.3655 72.6245 29.5847 73.3003 29.9821 73.8736C30.3794 74.4469 30.9375 74.8926 31.5876 75.156L55.9522 86.1637C57.5777 86.8363 59.4021 86.8655 61.0487 86.2453L85.119 75.9714C85.7598 75.7257 86.3089 75.2912 86.692 74.7267C87.0752 74.1621 87.2739 73.4946 87.2612 72.8147L86.8845 50.2634L91.1807 47.9337C91.9576 47.5959 92.3931 46.501 91.9458 45.9186Z" fill="url(#paint0_linear_5306_14729)"/>
<path d="M86.0596 38.757C87.0129 39.1309 78.4336 35.0166 78.4336 35.0166" stroke="#182C3D" stroke-width="2.05332" stroke-miterlimit="10" stroke-linecap="round"/>
<path d="M37.88 35.3564L30.6934 38.7787" stroke="#182C3D" stroke-width="2.05332" stroke-miterlimit="10" stroke-linecap="round"/>
<path d="M86.99 49.9033V72.0658C86.9884 72.7687 86.7769 73.4549 86.383 74.0354C85.9891 74.6159 85.4309 75.0639 84.7809 75.3215L60.4567 86.2058C58.814 86.8541 56.9885 86.8541 55.3458 86.2058L31.0216 75.3215C30.3716 75.0639 29.8134 74.6159 29.4195 74.0354C29.0256 73.4549 28.8141 72.7687 28.8125 72.0658V49.9033" stroke="#182C3D" stroke-width="2.05332" stroke-miterlimit="10" stroke-linecap="round"/>
<path d="M55.1967 55.0379L52.0566 59.0939C51.8507 59.2363 51.6067 59.3125 51.3568 59.3125C51.1069 59.3125 50.8629 59.2363 50.657 59.0939L24.266 47.8126C23.7838 47.5761 23.5251 46.9139 23.7838 46.6301L28.9233 39.795C29.2713 39.4036 29.7472 39.1503 30.2649 39.0809C30.7826 39.0115 31.3079 39.1305 31.7458 39.4166L55.9846 49.7638C56.3275 49.905 56.6873 50.0004 57.0549 50.0475V50.0475C58.2346 50.1859 59.4298 50.0148 60.5243 49.5509L85.2805 38.9673C85.5194 38.8128 85.8058 38.7504 86.0868 38.7917C86.3678 38.833 86.6245 38.9752 86.8094 39.1919L91.9488 46.027C92.3957 46.6183 91.9488 47.7298 91.1373 48.1555L84.8924 50.8162" stroke="#182C3D" stroke-width="2.05332" stroke-miterlimit="10" stroke-linecap="round"/>
<path d="M61.3223 55.112L64.0953 58.5497C64.4388 58.9569 64.9105 59.2206 65.424 59.2925C65.9376 59.3644 66.4586 59.2397 66.8917 58.9412L85.2777 50.7568" stroke="#182C3D" stroke-width="2.05332" stroke-miterlimit="10" stroke-linecap="round"/>
<path opacity="0.3" d="M48.5702 24.0972L50.1669 15.4146C50.216 15.1473 50.0392 14.8908 49.7719 14.8417L41.0894 13.245C40.8221 13.1958 40.5656 13.3727 40.5164 13.64L38.9197 22.3225C38.8706 22.5898 39.0474 22.8463 39.3147 22.8955L47.9972 24.4921C48.2645 24.5413 48.521 24.3645 48.5702 24.0972Z" fill="url(#paint1_linear_5306_14729)"/>
<path d="M48.912 23.9409L50.5087 15.2584C50.5578 14.9911 50.381 14.7346 50.1137 14.6854L41.4311 13.0887C41.1638 13.0396 40.9073 13.2164 40.8581 13.4837L39.2615 22.1662C39.2123 22.4335 39.3892 22.6901 39.6564 22.7392L48.339 24.3359C48.6063 24.385 48.8628 24.2082 48.912 23.9409Z" stroke="#182C3D" stroke-width="2.05332" stroke-miterlimit="10" stroke-linecap="round"/>
<path opacity="0.3" d="M60.3543 30.2822C60.4688 30.2336 60.5951 30.2158 60.7195 30.2307C60.8439 30.2457 60.9616 30.2929 61.06 30.3672C61.1583 30.4415 61.2336 30.5401 61.2776 30.6524C61.3217 30.7646 61.3328 30.8862 61.3098 31.004L60.3543 36.331L59.456 41.6579C59.4341 41.7708 59.3821 41.8765 59.305 41.9646C59.2278 42.0527 59.1282 42.1202 59.0157 42.1606C58.9032 42.201 58.7818 42.213 58.663 42.1954C58.5443 42.1778 58.4324 42.1311 58.338 42.0599L53.9616 38.6518L49.5947 35.2437C49.5016 35.1695 49.4304 35.0734 49.388 34.965C49.3455 34.8565 49.3334 34.7394 49.3526 34.6251C49.3719 34.5107 49.422 34.4032 49.498 34.313C49.5739 34.2228 49.6731 34.153 49.7858 34.1106L55.0605 32.201L60.3543 30.2822Z" fill="url(#paint2_linear_5306_14729)"/>
<path d="M60.3543 30.2822C60.4688 30.2336 60.5951 30.2158 60.7195 30.2307C60.8439 30.2457 60.9616 30.2929 61.06 30.3672C61.1583 30.4415 61.2336 30.5401 61.2776 30.6524C61.3217 30.7646 61.3328 30.8862 61.3098 31.004L60.3543 36.331L59.456 41.6579C59.4341 41.7708 59.3821 41.8765 59.305 41.9646C59.2278 42.0527 59.1282 42.1202 59.0157 42.1606C58.9032 42.201 58.7818 42.213 58.663 42.1954C58.5443 42.1778 58.4324 42.1311 58.338 42.0599L53.9616 38.6518L49.5947 35.2437C49.5016 35.1695 49.4304 35.0734 49.388 34.965C49.3455 34.8565 49.3334 34.7394 49.3526 34.6251C49.3719 34.5107 49.422 34.4032 49.498 34.313C49.5739 34.2228 49.6731 34.153 49.7858 34.1106L55.0605 32.201L60.3543 30.2822Z" stroke="#182C3D" stroke-width="2.05332" stroke-miterlimit="10" stroke-linecap="round"/>
<path d="M64.743 33.6464C69.4681 33.6464 73.2985 29.4329 73.2985 24.2353C73.2985 19.0377 69.4681 14.8242 64.743 14.8242C60.0179 14.8242 56.1875 19.0377 56.1875 24.2353C56.1875 29.4329 60.0179 33.6464 64.743 33.6464Z" fill="white"/>
<path opacity="0.3" d="M64.743 33.6464C69.4681 33.6464 73.2985 29.4329 73.2985 24.2353C73.2985 19.0377 69.4681 14.8242 64.743 14.8242C60.0179 14.8242 56.1875 19.0377 56.1875 24.2353C56.1875 29.4329 60.0179 33.6464 64.743 33.6464Z" fill="url(#paint3_linear_5306_14729)"/>
<path d="M64.743 33.6464C69.4681 33.6464 73.2985 29.4329 73.2985 24.2353C73.2985 19.0377 69.4681 14.8242 64.743 14.8242C60.0179 14.8242 56.1875 19.0377 56.1875 24.2353C56.1875 29.4329 60.0179 33.6464 64.743 33.6464Z" stroke="#182C3D" stroke-width="2.05332" stroke-miterlimit="10" stroke-linecap="round"/>
<path d="M59.6113 78.1363V62.7363" stroke="#182C3D" stroke-width="2.05332" stroke-miterlimit="10" stroke-linecap="round"/>
<path d="M54.4805 79.847V76.4248" stroke="#182C3D" stroke-width="2.05332" stroke-miterlimit="10" stroke-linecap="round"/>
<defs>
<linearGradient id="paint0_linear_5306_14729" x1="7.40854" y1="32.5257" x2="83.1528" y2="106.488" gradientUnits="userSpaceOnUse">
<stop stop-color="#75BCC7"/>
<stop offset="1" stop-color="#CDE7DE"/>
</linearGradient>
<linearGradient id="paint1_linear_5306_14729" x1="51.9374" y1="12.8678" x2="39.6031" y2="25.2999" gradientUnits="userSpaceOnUse">
<stop stop-color="#75BCC7"/>
<stop offset="1" stop-color="#CDE7DE"/>
</linearGradient>
<linearGradient id="paint2_linear_5306_14729" x1="46.496" y1="28.6622" x2="64.1444" y2="40.7254" gradientUnits="userSpaceOnUse">
<stop stop-color="#75BCC7"/>
<stop offset="1" stop-color="#CDE7DE"/>
</linearGradient>
<linearGradient id="paint3_linear_5306_14729" x1="52.1192" y1="12.3675" x2="78.8062" y2="28.9505" gradientUnits="userSpaceOnUse">
<stop stop-color="#75BCC7"/>
<stop offset="1" stop-color="#CDE7DE"/>
</linearGradient>
</defs>
</svg>
