<svg width="116" height="116" viewBox="0 0 116 116" fill="none" xmlns="http://www.w3.org/2000/svg">
<rect width="115.999" height="115.999" fill="white"/>
<path opacity="0.6" d="M94.8048 52.589L89.2292 45.2907C89.0286 45.0593 88.7502 44.9075 88.4453 44.8634C88.1404 44.8193 87.8297 44.8858 87.5706 45.0508L58.9014 57.1094C58.0432 57.3392 57.1284 57.2305 56.3496 56.8063L29.556 45.5306C29.0809 45.2251 28.511 45.098 27.9494 45.1721C27.3878 45.2462 26.8715 45.5167 26.4939 45.9347L20.9182 53.233C20.6375 53.5991 20.9182 54.3062 21.4414 54.4956L26.5449 56.6422L26.9532 80.7844C26.9686 81.5379 27.2063 82.2704 27.637 82.8918C28.0677 83.5133 28.6727 83.9965 29.3774 84.282L55.7882 96.2142C57.5503 96.9433 59.5279 96.9749 61.3128 96.3026L87.4047 85.1659C88.0993 84.8996 88.6945 84.4286 89.1098 83.8166C89.5252 83.2046 89.7405 82.4811 89.7268 81.744L89.3185 57.2987L93.9755 54.7734C94.8176 54.4072 95.2897 53.2203 94.8048 52.589Z" fill="url(#paint0_linear_5311_16727)"/>
<path d="M88.4243 44.826C89.4576 45.2314 80.1578 40.7715 80.1578 40.7715" stroke="#182C3D" stroke-width="2.22578" stroke-miterlimit="10" stroke-linecap="round"/>
<path d="M36.1982 41.1396L28.408 44.8493" stroke="#182C3D" stroke-width="2.22578" stroke-miterlimit="10" stroke-linecap="round"/>
<path d="M89.4328 56.9082V80.932C89.4311 81.6939 89.2018 82.4378 88.7748 83.067C88.3478 83.6963 87.7428 84.182 87.0382 84.4612L60.671 96.2596C58.8904 96.9624 56.9116 96.9624 55.131 96.2596L28.7638 84.4612C28.0592 84.182 27.4542 83.6963 27.0272 83.067C26.6002 82.4378 26.3709 81.6939 26.3692 80.932V56.9082" stroke="#182C3D" stroke-width="2.22578" stroke-miterlimit="10" stroke-linecap="round"/>
<path d="M54.9693 62.4742L51.5654 66.8709C51.3422 67.0252 51.0778 67.1079 50.8069 67.1079C50.536 67.1079 50.2715 67.0252 50.0484 66.8709L21.4408 54.6421C20.9182 54.3857 20.6377 53.6679 20.9181 53.3603L26.4892 45.9512C26.8665 45.5268 27.3824 45.2522 27.9436 45.177C28.5047 45.1018 29.0741 45.2308 29.5489 45.541L55.8234 56.7571C56.195 56.9103 56.5851 57.0137 56.9835 57.0647V57.0647C58.2623 57.2147 59.5579 57.0292 60.7443 56.5264L87.5798 45.0539C87.8387 44.8864 88.1492 44.8188 88.4538 44.8636C88.7584 44.9083 89.0367 45.0624 89.2371 45.2974L94.8082 52.7065C95.2926 53.3474 94.8082 54.5524 93.9285 55.0138L87.1591 57.898" stroke="#182C3D" stroke-width="2.22578" stroke-miterlimit="10" stroke-linecap="round"/>
<path d="M61.6093 62.5545L64.6153 66.2809C64.9876 66.7223 65.499 67.0081 66.0556 67.086C66.6123 67.164 67.177 67.0288 67.6465 66.7052L87.5767 57.8335" stroke="#182C3D" stroke-width="2.22578" stroke-miterlimit="10" stroke-linecap="round"/>
<path opacity="0.3" d="M47.7862 28.9349L49.517 19.5232C49.5703 19.2334 49.3786 18.9553 49.0889 18.9021L39.6772 17.1713C39.3874 17.118 39.1093 17.3097 39.0561 17.5994L37.3253 27.0112C37.272 27.3009 37.4637 27.579 37.7534 27.6323L47.1651 29.3631C47.4549 29.4163 47.733 29.2246 47.7862 28.9349Z" fill="url(#paint1_linear_5311_16727)"/>
<path d="M48.1567 28.7655L49.8875 19.3537C49.9408 19.064 49.7491 18.7859 49.4594 18.7326L40.0476 17.0018C39.7578 16.9486 39.4798 17.1403 39.4265 17.43L37.6957 26.8417C37.6424 27.1315 37.8341 27.4096 38.1239 27.4628L47.5356 29.1936C47.8254 29.2469 48.1035 29.0552 48.1567 28.7655Z" stroke="#182C3D" stroke-width="2.22578" stroke-miterlimit="10" stroke-linecap="round"/>
<path opacity="0.3" d="M60.56 35.6395C60.6842 35.5868 60.8211 35.5675 60.9559 35.5837C61.0908 35.6 61.2184 35.6511 61.325 35.7316C61.4316 35.8122 61.5132 35.9191 61.5609 36.0407C61.6087 36.1624 61.6207 36.2942 61.5958 36.4219L60.56 42.1963L59.5864 47.9706C59.5626 48.093 59.5062 48.2076 59.4226 48.303C59.339 48.3985 59.231 48.4717 59.109 48.5155C58.9871 48.5594 58.8555 48.5724 58.7268 48.5533C58.5981 48.5341 58.4767 48.4835 58.3745 48.4064L53.6304 44.712L48.8968 41.0176C48.7959 40.9373 48.7187 40.8331 48.6727 40.7156C48.6267 40.598 48.6135 40.471 48.6344 40.3471C48.6553 40.2232 48.7096 40.1066 48.7919 40.0088C48.8743 39.911 48.9818 39.8354 49.1039 39.7894L54.8216 37.7194L60.56 35.6395Z" fill="url(#paint2_linear_5311_16727)"/>
<path d="M60.56 35.6395C60.6842 35.5868 60.8211 35.5675 60.9559 35.5837C61.0908 35.6 61.2184 35.6511 61.325 35.7316C61.4316 35.8122 61.5132 35.9191 61.5609 36.0407C61.6087 36.1624 61.6207 36.2942 61.5958 36.4219L60.56 42.1963L59.5864 47.9706C59.5626 48.093 59.5062 48.2076 59.4226 48.303C59.339 48.3985 59.231 48.4717 59.109 48.5155C58.9871 48.5594 58.8555 48.5724 58.7268 48.5533C58.5981 48.5341 58.4767 48.4835 58.3745 48.4064L53.6304 44.712L48.8968 41.0176C48.7959 40.9373 48.7187 40.8331 48.6727 40.7156C48.6267 40.598 48.6135 40.471 48.6344 40.3471C48.6553 40.2232 48.7096 40.1066 48.7919 40.0088C48.8743 39.911 48.9818 39.8354 49.1039 39.7894L54.8216 37.7194L60.56 35.6395Z" stroke="#182C3D" stroke-width="2.22578" stroke-miterlimit="10" stroke-linecap="round"/>
<path d="M65.3174 39.2858C70.4393 39.2858 74.5915 34.7184 74.5915 29.0843C74.5915 23.4502 70.4393 18.8828 65.3174 18.8828C60.1955 18.8828 56.0433 23.4502 56.0433 29.0843C56.0433 34.7184 60.1955 39.2858 65.3174 39.2858Z" fill="white"/>
<path opacity="0.3" d="M65.3174 39.2858C70.4393 39.2858 74.5915 34.7184 74.5915 29.0843C74.5915 23.4502 70.4393 18.8828 65.3174 18.8828C60.1955 18.8828 56.0433 23.4502 56.0433 29.0843C56.0433 34.7184 60.1955 39.2858 65.3174 39.2858Z" fill="url(#paint3_linear_5311_16727)"/>
<path d="M65.3174 39.2858C70.4393 39.2858 74.5915 34.7184 74.5915 29.0843C74.5915 23.4502 70.4393 18.8828 65.3174 18.8828C60.1955 18.8828 56.0433 23.4502 56.0433 29.0843C56.0433 34.7184 60.1955 39.2858 65.3174 39.2858Z" stroke="#182C3D" stroke-width="2.22578" stroke-miterlimit="10" stroke-linecap="round"/>
<path d="M59.7547 87.5127V70.8193" stroke="#182C3D" stroke-width="2.22578" stroke-miterlimit="10" stroke-linecap="round"/>
<path d="M54.1929 89.3669V85.6572" stroke="#182C3D" stroke-width="2.22578" stroke-miterlimit="10" stroke-linecap="round"/>
<defs>
<linearGradient id="paint0_linear_5311_16727" x1="3.16754" y1="38.0713" x2="85.2734" y2="118.245" gradientUnits="userSpaceOnUse">
<stop stop-color="#75BCC7"/>
<stop offset="1" stop-color="#CDE7DE"/>
</linearGradient>
<linearGradient id="paint1_linear_5311_16727" x1="51.4363" y1="16.7624" x2="38.0661" y2="30.2386" gradientUnits="userSpaceOnUse">
<stop stop-color="#75BCC7"/>
<stop offset="1" stop-color="#CDE7DE"/>
</linearGradient>
<linearGradient id="paint2_linear_5311_16727" x1="45.5378" y1="33.8834" x2="64.6685" y2="46.9598" gradientUnits="userSpaceOnUse">
<stop stop-color="#75BCC7"/>
<stop offset="1" stop-color="#CDE7DE"/>
</linearGradient>
<linearGradient id="paint3_linear_5311_16727" x1="51.6334" y1="16.2197" x2="80.5617" y2="34.1955" gradientUnits="userSpaceOnUse">
<stop stop-color="#75BCC7"/>
<stop offset="1" stop-color="#CDE7DE"/>
</linearGradient>
</defs>
</svg>
