<svg width="116" height="116" viewBox="0 0 116 116" fill="none" xmlns="http://www.w3.org/2000/svg">
<rect width="115.999" height="115.999" fill="white"/>
<path d="M29.1112 72.4318L86.7977 55.9608C87.6933 55.7054 88.4806 55.1696 89.0411 54.4342C89.6016 53.6987 89.9051 52.8034 89.9058 51.8829V20.194C89.9062 19.7532 89.7677 19.3231 89.5095 18.9634C89.2513 18.6038 88.8861 18.3324 88.4647 18.1869L85.7008 17.2418C85.0741 17.0483 84.4025 17.0483 83.7757 17.2418L28.0357 32.5127C26.9032 32.8238 25.9052 33.4928 25.1943 34.4172C24.4834 35.3417 24.0989 36.4706 24.0996 37.6314V68.2901C24.0999 68.8065 24.2274 69.3151 24.4709 69.772C24.7144 70.229 25.0668 70.6206 25.4977 70.9132L27.3152 72.145C27.5751 72.3195 27.8707 72.4356 28.181 72.4851C28.4912 72.5347 28.8088 72.5165 29.1112 72.4318V72.4318Z" fill="white"/>
<path d="M87.4701 56.1415L29.5627 72.4646C29.3468 72.5181 29.122 72.5274 28.9023 72.492C28.6826 72.4566 28.4726 72.3772 28.2852 72.2587C28.0978 72.1402 27.937 71.9852 27.8128 71.8031C27.6885 71.621 27.6033 71.4157 27.5625 71.1999L27.8451 37.2567C27.8661 36.8755 28.017 36.5124 28.2736 36.2264C28.5301 35.9404 28.8771 35.7483 29.2583 35.6812L87.9049 18.8757C88.8072 18.6506 89.916 19.2722 89.9051 20.0654L89.6224 53.7835C89.5922 54.3603 89.3619 54.9093 88.9701 55.3385C88.5782 55.7678 88.0486 56.0513 87.4701 56.1415V56.1415Z" fill="url(#paint0_linear_5306_14712)" fill-opacity="0.9"/>
<path opacity="0.68" d="M63.9281 63.8545L62.7928 70.2978C62.7928 70.3742 64.121 69.446 62.7928 70.2978L44.8789 75.9767L46.5818 68.4522L63.9281 63.8545Z" fill="url(#paint1_linear_5306_14712)"/>
<path d="M65.6587 27.4883L57 29.22" stroke="#182C3D" stroke-width="2.07809" stroke-miterlimit="10" stroke-linecap="round"/>
<path d="M47.096 66.9121L44.9629 73.0055C44.7928 73.7524 44.8829 74.5382 45.2171 75.2221C45.5513 75.9059 46.1077 76.443 46.7867 76.7372L57.175 82.6858C57.5308 82.8973 57.9511 82.9571 58.3482 82.8529L74.1865 77.918C74.3678 77.8623 74.3571 77.6173 74.1865 77.5059L63.8729 71.6019C62.2731 70.7107 61.5052 68.9952 62.1238 67.6919L63.9902 62.1221" fill="white"/>
<path opacity="0.4" d="M47.096 66.9121L44.9629 73.0055C44.7928 73.7524 44.8829 74.5382 45.2171 75.2221C45.5513 75.9059 46.1077 76.443 46.7867 76.7372L57.175 82.6858C57.5308 82.8973 57.9511 82.9571 58.3482 82.8529L74.1865 77.918C74.3678 77.8623 74.3571 77.6173 74.1865 77.5059L63.8729 71.6019C62.2731 70.7107 61.5052 68.9952 62.1238 67.6919L63.9902 62.1221" fill="url(#paint2_linear_5306_14712)" fill-opacity="0.9"/>
<path d="M47.096 66.9121L44.9629 73.0055C44.7928 73.7524 44.8829 74.5382 45.2171 75.2221C45.5513 75.9059 46.1077 76.443 46.7867 76.7372L57.175 82.6858C57.5308 82.8973 57.9511 82.9571 58.3482 82.8529L74.1865 77.918C74.3678 77.8623 74.3571 77.6173 74.1865 77.5059L63.8729 71.6019C62.2731 70.7107 61.5052 68.9952 62.1238 67.6919L63.9902 62.1221" stroke="#182C3D" stroke-width="2.07809" stroke-miterlimit="10"/>
<path d="M55.2676 72.513L62.1945 70.7812" stroke="#182C3D" stroke-width="2.07809" stroke-miterlimit="10" stroke-linecap="round"/>
<path d="M66.3945 55.7323C66.5569 54.7885 66.1028 53.9226 65.3804 53.7983C64.6579 53.674 63.9407 54.3384 63.7783 55.2823C63.616 56.2261 64.07 57.0919 64.7924 57.2162C65.5149 57.3405 66.2322 56.6761 66.3945 55.7323Z" fill="#333333"/>
<path d="M62.164 56.8221C62.3264 55.8783 61.8723 55.0124 61.1499 54.8882C60.4275 54.7639 59.7102 55.4283 59.5479 56.3721C59.3855 57.3159 59.8395 58.1818 60.562 58.3061C61.2844 58.4303 62.0017 57.7659 62.164 56.8221Z" fill="#333333"/>
<path d="M57.9257 57.9178C58.0881 56.974 57.634 56.1081 56.9116 55.9839C56.1892 55.8596 55.4719 56.524 55.3096 57.4678C55.1472 58.4116 55.6013 59.2775 56.3237 59.4018C57.0461 59.526 57.7634 58.8616 57.9257 57.9178Z" fill="#333333"/>
<path d="M29.1112 72.4318L86.7977 55.9608C87.6933 55.7054 88.4806 55.1696 89.0411 54.4342C89.6016 53.6987 89.9051 52.8034 89.9058 51.8829V20.194C89.9062 19.7532 89.7677 19.3231 89.5095 18.9634C89.2513 18.6038 88.8861 18.3324 88.4647 18.1869L85.7008 17.2418C85.0741 17.0483 84.4025 17.0483 83.7757 17.2418L28.0357 32.5127C26.9032 32.8238 25.9052 33.4928 25.1943 34.4172C24.4834 35.3417 24.0989 36.4706 24.0996 37.6314V68.2901C24.0999 68.8065 24.2274 69.3151 24.4709 69.772C24.7144 70.229 25.0668 70.6206 25.4977 70.9132L27.3152 72.145C27.5751 72.3195 27.8707 72.4356 28.181 72.4851C28.4912 72.5347 28.8088 72.5165 29.1112 72.4318V72.4318Z" stroke="#182C3D" stroke-width="2.07809" stroke-miterlimit="10"/>
<path d="M46.6116 30.9502L29.9891 35.3918C29.2918 35.5794 28.6769 35.9842 28.2386 36.5442C27.8003 37.1042 27.5628 37.7884 27.5625 38.4922V51.7311" stroke="#182C3D" stroke-width="2.07809" stroke-miterlimit="10" stroke-linecap="round"/>
<path d="M91.3851 40.7958L65.8189 48.236C65.6073 48.2815 65.3893 48.2802 65.1782 48.2322C64.967 48.1843 64.7671 48.0908 64.5903 47.9572C64.4136 47.8237 64.2638 47.6529 64.1499 47.4552C64.036 47.2575 63.9605 47.037 63.9277 46.8069V36.7048C63.9309 36.3979 64.0339 36.102 64.2187 35.8686C64.4036 35.6353 64.6585 35.4795 64.9391 35.4284L92.2447 27.5081C92.3691 27.4814 92.4971 27.4817 92.6213 27.5091C92.7455 27.5364 92.8633 27.5903 92.9679 27.6676C93.0725 27.7449 93.1617 27.8439 93.2303 27.9589C93.2989 28.0739 93.3455 28.2026 93.3673 28.3373V38.4502C93.3519 39.0324 93.1434 39.5893 92.7796 40.0197C92.4159 40.4502 91.9211 40.7255 91.3851 40.7958Z" fill="white"/>
<path opacity="0.4" d="M91.3851 40.7958L65.8189 48.236C65.6073 48.2815 65.3893 48.2802 65.1782 48.2322C64.967 48.1843 64.7671 48.0908 64.5903 47.9572C64.4136 47.8237 64.2638 47.6529 64.1499 47.4552C64.036 47.2575 63.9605 47.037 63.9277 46.8069V36.7048C63.9309 36.3979 64.0339 36.102 64.2187 35.8686C64.4036 35.6353 64.6585 35.4795 64.9391 35.4284L92.2447 27.5081C92.3691 27.4814 92.4971 27.4817 92.6213 27.5091C92.7455 27.5364 92.8633 27.5903 92.9679 27.6676C93.0725 27.7449 93.1617 27.8439 93.2303 27.9589C93.2989 28.0739 93.3455 28.2026 93.3673 28.3373V38.4502C93.3519 39.0324 93.1434 39.5893 92.7796 40.0197C92.4159 40.4502 91.9211 40.7255 91.3851 40.7958Z" fill="url(#paint3_linear_5306_14712)" fill-opacity="0.9"/>
<path d="M91.3851 40.7958L65.8189 48.236C65.6073 48.2815 65.3893 48.2802 65.1782 48.2322C64.967 48.1843 64.7671 48.0908 64.5903 47.9572C64.4136 47.8237 64.2638 47.6529 64.1499 47.4552C64.036 47.2575 63.9605 47.037 63.9277 46.8069V36.7048C63.9309 36.3979 64.0339 36.102 64.2187 35.8686C64.4036 35.6353 64.6585 35.4795 64.9391 35.4284L92.2447 27.5081C92.3691 27.4814 92.4971 27.4817 92.6213 27.5091C92.7455 27.5364 92.8633 27.5903 92.9679 27.6676C93.0725 27.7449 93.1617 27.8439 93.2303 27.9589C93.2989 28.0739 93.3455 28.2026 93.3673 28.3373V38.4502C93.3519 39.0324 93.1434 39.5893 92.7796 40.0197C92.4159 40.4502 91.9211 40.7255 91.3851 40.7958Z" stroke="#182C3D" stroke-width="2.07809" stroke-miterlimit="10" stroke-linecap="round"/>
<defs>
<linearGradient id="paint0_linear_5306_14712" x1="33.5406" y1="68.8107" x2="106.113" y2="32.4144" gradientUnits="userSpaceOnUse">
<stop stop-color="#798CCD" stop-opacity="0.9"/>
<stop offset="1" stop-color="#CDE7DE"/>
</linearGradient>
<linearGradient id="paint1_linear_5306_14712" x1="54.3921" y1="81.9832" x2="54.3921" y2="63.5815" gradientUnits="userSpaceOnUse">
<stop stop-color="white" stop-opacity="0.2"/>
<stop offset="1" stop-color="#FBB03B" stop-opacity="0.68"/>
</linearGradient>
<linearGradient id="paint2_linear_5306_14712" x1="47.7019" y1="81.4698" x2="78.9102" y2="62.3763" gradientUnits="userSpaceOnUse">
<stop stop-color="#6F7EB6" stop-opacity="0.9"/>
<stop offset="1" stop-color="#CDE7DE"/>
</linearGradient>
<linearGradient id="paint3_linear_5306_14712" x1="66.7507" y1="46.836" x2="97.959" y2="27.7425" gradientUnits="userSpaceOnUse">
<stop stop-color="#6F7EB6" stop-opacity="0.9"/>
<stop offset="1" stop-color="#CDE7DE"/>
</linearGradient>
</defs>
</svg>
