<svg width="116" height="116" viewBox="0 0 116 116" fill="none" xmlns="http://www.w3.org/2000/svg">
<rect width="115.999" height="115.999" fill="white"/>
<path opacity="0.3" d="M73.0565 35.8805L64.8112 37.3713C64.712 37.3874 64.6101 37.386 64.5116 37.3674C64.413 37.3487 64.3198 37.3131 64.2375 37.2627C64.1551 37.2122 64.0852 37.1479 64.032 37.0736C63.9788 36.9993 63.9434 36.9165 63.9277 36.8302V29.4988C63.9295 29.3805 63.9806 29.2668 64.0715 29.1786C64.1624 29.0904 64.2871 29.0337 64.4225 29.0189L73.4452 27.3546C73.5026 27.3443 73.5617 27.344 73.6191 27.354C73.6765 27.3639 73.731 27.3838 73.7794 27.4124C73.8278 27.4409 73.869 27.4777 73.9007 27.5204C73.9323 27.5631 73.9536 27.6109 73.9635 27.6609V35.0024C73.9574 35.2183 73.8627 35.4253 73.6965 35.5862C73.5303 35.7471 73.3034 35.8515 73.0565 35.8805V35.8805Z" fill="white"/>
<path opacity="0.6" d="M92.1788 32.1341C92.1352 31.8626 92.038 31.6025 91.8928 31.3692C91.7476 31.136 91.5574 30.9343 91.3334 30.7759C91.1093 30.6175 90.856 30.5058 90.5883 30.4472C90.3205 30.3885 90.0438 30.3843 89.7745 30.4346L79.6154 32.5647V24.2598C79.5314 23.6931 79.2367 23.1795 78.7907 22.8221C78.3446 22.4647 77.7802 22.2902 77.2111 22.3337L30.2311 32.406C29.3913 32.4991 28.6137 32.895 28.0428 33.5202C27.4719 34.1453 27.1465 34.9572 27.127 35.805L27.2624 66.0447C27.2624 68.0728 29.7909 69.8629 32.0597 69.4437L36.4507 67.8122V77.4086C36.4507 79.4367 38.9792 81.2268 41.2368 80.8076L79.8976 72.6501L86.0382 76.6382V71.3585L89.2552 70.6786C90.095 70.5855 90.8726 70.1897 91.4435 69.5645C92.0144 68.9394 92.3399 68.1275 92.3594 67.2796L92.1788 32.1341Z" fill="url(#paint0_linear_5306_14696)"/>
<path opacity="0.8" d="M63.9277 35.7098V29.4161C63.9295 29.3024 63.9806 29.193 64.0715 29.1082C64.1624 29.0234 64.2871 28.9689 64.4225 28.9547L73.4452 27.3543C73.5025 27.3444 73.5617 27.3441 73.6191 27.3537C73.6765 27.3632 73.731 27.3823 73.7794 27.4098C73.8278 27.4373 73.869 27.4726 73.9006 27.5137C73.9323 27.5548 73.9536 27.6007 73.9635 27.6488V33.9719" fill="white"/>
<path d="M63.9277 35.7098V29.6914C63.9295 29.5626 63.9806 29.4386 64.0715 29.3426C64.1624 29.2465 64.2871 29.1847 64.4225 29.1686L73.4452 27.3553C73.5025 27.344 73.5617 27.3438 73.6191 27.3546C73.6765 27.3654 73.731 27.3871 73.7794 27.4182C73.8278 27.4494 73.869 27.4894 73.9006 27.5359C73.9323 27.5824 73.9536 27.6345 73.9635 27.689V33.7408" stroke="#182C3D" stroke-width="2.00715" stroke-miterlimit="10"/>
<path d="M53.7207 70.2582C54.0355 69.5576 53.5488 68.6562 52.6335 68.2448C51.7182 67.8334 50.7209 68.068 50.406 68.7686C50.0912 69.4692 50.5779 70.3706 51.4932 70.7819C52.4085 71.1933 53.4058 70.9588 53.7207 70.2582Z" fill="#333333"/>
<path d="M60.4434 69.0961C60.7582 68.3955 60.2715 67.4941 59.3562 67.0828C58.4409 66.6714 57.4436 66.9058 57.1287 67.6065C56.8138 68.3071 57.3007 69.2085 58.216 69.6199C59.1313 70.0312 60.1285 69.7967 60.4434 69.0961Z" fill="#333333"/>
<path d="M67.0684 67.6303C67.3832 66.9297 66.8965 66.0283 65.9812 65.6169C65.0659 65.2056 64.0686 65.44 63.7537 66.1406C63.4388 66.8412 63.9257 67.7427 64.841 68.154C65.7563 68.5654 66.7535 68.3309 67.0684 67.6303Z" fill="#333333"/>
<path d="M85.6744 41.5645L75.6387 44.0734" stroke="#182C3D" stroke-width="2.00715" stroke-miterlimit="10" stroke-linecap="round"/>
<path d="M85.6744 47.415L75.6387 49.924" stroke="#182C3D" stroke-width="2.00715" stroke-miterlimit="10" stroke-linecap="round"/>
<path d="M85.6744 52.4355L75.6387 54.9445" stroke="#182C3D" stroke-width="2.00715" stroke-miterlimit="10" stroke-linecap="round"/>
<path d="M36.1757 67.8588C36.2089 67.852 36.2431 67.8528 36.2759 67.8611C36.3087 67.8694 36.3393 67.885 36.3653 67.9068C36.3913 67.9286 36.4121 67.9561 36.4261 67.987C36.4402 68.018 36.4471 68.0518 36.4464 68.0858V77.4026C36.4464 79.4339 38.9734 81.2269 41.2296 80.8071L79.9124 72.6478L86.0493 76.6423V71.3541L89.2644 70.6732C90.1037 70.5799 90.8809 70.1834 91.4514 69.5572C92.022 68.9311 92.3473 68.1179 92.3667 67.2687L92.2314 32.0894C92.1879 31.8174 92.0907 31.557 91.9456 31.3233C91.8005 31.0897 91.6104 30.8876 91.3865 30.729C91.1626 30.5704 90.9094 30.4584 90.6418 30.3997C90.3742 30.341 90.0977 30.3367 89.8285 30.3872L80.0252 32.4525C79.9923 32.4573 79.9588 32.4551 79.9268 32.446C79.8948 32.4369 79.8651 32.4212 79.8396 32.3998C79.814 32.3783 79.7933 32.3518 79.7786 32.3218C79.7639 32.2918 79.7557 32.259 79.7545 32.2256L79.6191 20.7186C79.5756 20.4466 79.4784 20.1861 79.3333 19.9524C79.1882 19.7188 78.9981 19.5168 78.7742 19.3582C78.5503 19.1995 78.2971 19.0876 78.0296 19.0289C77.762 18.9702 77.4855 18.9659 77.2162 19.0163L26.8914 29.5701C26.0521 29.6634 25.275 30.0599 24.7044 30.686C24.1338 31.3122 23.8086 32.1254 23.7891 32.9746L23.9244 66.0204C23.9244 68.0518 26.4514 69.8448 28.7189 69.4249L34.6415 68.1766L36.1757 67.8588Z" stroke="#182C3D" stroke-width="2.00715" stroke-miterlimit="10"/>
<path d="M35.4941 60.7974V45.8564C35.4934 44.7982 35.8487 43.7722 36.5001 42.9514C37.1515 42.1306 38.0591 41.5654 39.0698 41.3511L65.6014 35.708" stroke="#182C3D" stroke-width="2.00715" stroke-miterlimit="10" stroke-linecap="round"/>
<path d="M70.6191 34.0355L75.637 33.1992" stroke="#182C3D" stroke-width="2.00715" stroke-miterlimit="10" stroke-linecap="round"/>
<path opacity="0.8" d="M65.2292 58.4716L45.9833 62.4379C45.7512 62.4835 45.5121 62.4822 45.2805 62.4341C45.0489 62.3859 44.8296 62.292 44.6357 62.1579C44.4419 62.0238 44.2776 61.8523 44.1527 61.6537C44.0278 61.4552 43.9449 61.2336 43.909 61.0026L43.8535 49.772C43.8587 49.4631 43.972 49.1655 44.1742 48.9298C44.3764 48.6941 44.6551 48.5348 44.9628 48.4791L66.039 44.0964C66.1756 44.0663 66.317 44.0643 66.4544 44.0905C66.5918 44.1167 66.7223 44.1704 66.8378 44.2485C66.9533 44.3266 67.0513 44.4273 67.1257 44.5444C67.2001 44.6615 67.2493 44.7925 67.2703 44.9292V56.1707C67.2501 56.7277 67.036 57.2607 66.6642 57.6799C66.2924 58.099 65.7855 58.3786 65.2292 58.4716V58.4716Z" fill="white"/>
<path d="M65.2292 58.4716L45.9833 62.4379C45.7512 62.4835 45.5121 62.4822 45.2805 62.4341C45.0489 62.3859 44.8296 62.292 44.6357 62.1579C44.4419 62.0238 44.2776 61.8523 44.1527 61.6537C44.0278 61.4552 43.9449 61.2336 43.909 61.0026L43.8535 49.772C43.8587 49.4631 43.972 49.1655 44.1742 48.9298C44.3764 48.6941 44.6551 48.5348 44.9628 48.4791L66.039 44.0964C66.1756 44.0663 66.317 44.0643 66.4544 44.0905C66.5918 44.1167 66.7223 44.1704 66.8378 44.2485C66.9533 44.3266 67.0513 44.4273 67.1257 44.5444C67.2001 44.6615 67.2493 44.7925 67.2703 44.9292V56.1707C67.2501 56.7277 67.036 57.2607 66.6642 57.6799C66.2924 58.099 65.7855 58.3786 65.2292 58.4716V58.4716Z" stroke="#182C3D" stroke-width="2.00715" stroke-miterlimit="10" stroke-linecap="round"/>
<defs>
<linearGradient id="paint0_linear_5306_14696" x1="117.929" y1="70.0519" x2="25.1876" y2="42.1945" gradientUnits="userSpaceOnUse">
<stop stop-color="#FCEE21" stop-opacity="0.15"/>
<stop offset="1" stop-color="#FBB03B" stop-opacity="0.68"/>
</linearGradient>
</defs>
</svg>
