<svg width="116" height="116" viewBox="0 0 116 116" fill="none" xmlns="http://www.w3.org/2000/svg">
<rect width="115.999" height="115.999" fill="white"/>
<path opacity="0.55" d="M28.3358 47.2003L32.1588 71.726C32.2715 72.4402 32.5805 73.1091 33.0513 73.6579C33.522 74.2068 34.1359 74.614 34.8246 74.8343L47.303 78.7933C48.1801 79.0745 49.1168 79.1137 50.0143 78.9068L76.8202 72.8491C77.568 72.6762 78.2485 72.2872 78.777 71.7305C79.3054 71.1738 79.6585 70.4739 79.7923 69.7181L84.103 44.489L58.3408 40.4619L29.4135 45.7256C29.0766 45.7814 28.775 45.9671 28.5735 46.2428C28.372 46.5186 28.2867 46.8623 28.3358 47.2003Z" fill="url(#paint0_linear_5306_14677)"/>
<path d="M39.7766 47.8469L51.6084 50.2518C52.8197 50.5467 54.084 50.5467 55.2952 50.2518L84.0977 44.489L58.3355 40.4619L29.4082 45.7256L39.7766 47.8469Z" fill="white"/>
<path d="M56.1596 71.543C56.4781 70.8344 55.9858 69.9226 55.06 69.5066C54.1343 69.0905 53.1256 69.3277 52.8071 70.0363C52.4886 70.7449 52.981 71.6566 53.9068 72.0727C54.8325 72.4887 55.8412 72.2516 56.1596 71.543Z" fill="#333333"/>
<path d="M56.1537 66.9121C56.4721 66.2035 55.9798 65.2918 55.0541 64.8757C54.1283 64.4597 53.1197 64.6968 52.8012 65.4054C52.4828 66.114 52.9751 67.0258 53.9008 67.4418C54.8266 67.8579 55.8352 67.6207 56.1537 66.9121Z" fill="#333333"/>
<path d="M56.1537 62.2773C56.4721 61.5687 55.9798 60.657 55.0541 60.2409C54.1283 59.8249 53.1197 60.0621 52.8012 60.7707C52.4828 61.4793 52.9751 62.391 53.9008 62.807C54.8266 63.2231 55.8352 62.9859 56.1537 62.2773Z" fill="#333333"/>
<path d="M28.3301 46.3604L32.153 70.9315C32.2658 71.6457 32.5747 72.3145 33.0455 72.8634C33.5162 73.4122 34.1301 73.8195 34.8188 74.0397L47.2973 77.9988C48.1743 78.28 49.111 78.3192 50.0085 78.1123L76.7917 72.0659C77.5411 71.8922 78.2227 71.5015 78.7513 70.9426C79.2799 70.3838 79.6321 69.6815 79.7638 68.9236L84.0746 43.7058L58.3123 39.6787L29.385 44.8402C29.2157 44.8703 29.054 44.9336 28.9092 45.0263C28.7645 45.1191 28.6395 45.2396 28.5414 45.3808C28.4434 45.5221 28.3742 45.6814 28.3379 45.8495C28.3017 46.0176 28.299 46.1912 28.3301 46.3604V46.3604Z" stroke="#182C3D" stroke-width="1.97789" stroke-miterlimit="10"/>
<path d="M57.6356 85.9519C59.3522 85.9519 60.7439 84.5603 60.7439 82.8436C60.7439 81.127 59.3522 79.7354 57.6356 79.7354C55.919 79.7354 54.5273 81.127 54.5273 82.8436C54.5273 84.5603 55.919 85.9519 57.6356 85.9519Z" stroke="#182C3D" stroke-width="1.97789" stroke-miterlimit="10"/>
<path d="M34.8212 83.9431C36.5378 83.9431 37.9294 82.5515 37.9294 80.8348C37.9294 79.1182 36.5378 77.7266 34.8212 77.7266C33.1045 77.7266 31.7129 79.1182 31.7129 80.8348C31.7129 82.5515 33.1045 83.9431 34.8212 83.9431Z" stroke="#182C3D" stroke-width="1.97789" stroke-miterlimit="10"/>
<path d="M75.0497 82.072C76.7663 82.072 78.1579 80.6804 78.1579 78.9637C78.1579 77.2471 76.7663 75.8555 75.0497 75.8555C73.333 75.8555 71.9414 77.2471 71.9414 78.9637C71.9414 80.6804 73.333 82.072 75.0497 82.072Z" stroke="#182C3D" stroke-width="1.97789" stroke-miterlimit="10"/>
<path d="M83.9121 43.877L87.8371 33.8262C88.0913 33.1814 88.5242 32.6226 89.085 32.2153L95.5057 27.6777" stroke="#182C3D" stroke-width="1.97789" stroke-miterlimit="10" stroke-linecap="round"/>
<path d="M61.584 30.9424L87.5051 34.9241" stroke="#182C3D" stroke-width="1.97789" stroke-miterlimit="10"/>
<path d="M57.0432 17.2116C56.9628 17.2029 56.8818 17.2029 56.8015 17.2116V17.2116C56.6224 17.2116 56.4524 17.2116 56.2733 17.2116C55.9153 17.2116 55.5572 17.2116 55.1991 17.2653V17.2116C55.0303 17.2132 54.8633 17.2466 54.7068 17.3101C51.5696 17.6966 48.6814 19.2163 46.5847 21.5837C44.488 23.9512 43.3272 27.0035 43.3203 30.1671C43.3212 33.3382 44.4816 36.3992 46.5825 38.7727C48.6835 41.1462 51.5797 42.668 54.7247 43.051C54.8806 43.1174 55.0476 43.1539 55.217 43.1585V43.0958C55.5751 43.0958 55.9332 43.1585 56.2912 43.1585C56.4703 43.1585 56.6404 43.1585 56.8194 43.1585C56.8997 43.1671 56.9807 43.1671 57.0611 43.1585C60.3723 42.9704 63.4853 41.5183 65.7586 39.1013C68.0319 36.6843 69.2923 33.4866 69.2801 30.1671C69.2807 26.8516 68.013 23.6616 65.7373 21.2522C63.4616 18.8429 60.3506 17.397 57.0432 17.2116V17.2116Z" fill="white"/>
<path opacity="0.55" d="M56.9894 16.4795H56.7399H56.1954C55.821 16.4795 55.458 16.4795 55.061 16.4795C54.89 16.485 54.7212 16.5195 54.5618 16.5816C51.3112 16.9778 48.318 18.5497 46.1467 21.001C43.9755 23.4523 42.7763 26.6135 42.7754 29.8881C42.7766 33.1615 43.9762 36.3212 46.1476 38.7706C48.3191 41.22 51.3122 42.7897 54.5618 43.1833C54.7196 43.2507 54.8894 43.2854 55.061 43.2854V43.2287C55.4353 43.2287 55.7983 43.2854 56.1954 43.2854H56.7399H56.9894C60.4003 43.0885 63.6068 41.5949 65.9521 39.1104C68.2974 36.6259 69.6039 33.3387 69.604 29.9221C69.6215 26.4927 68.3231 23.1871 65.9763 20.6863C63.6296 18.1854 60.4131 16.6798 56.9894 16.4795V16.4795Z" fill="url(#paint1_linear_5306_14677)"/>
<path d="M56.2059 42.1404C63.0161 42.1404 68.5369 36.6197 68.5369 29.8095C68.5369 22.9993 63.0161 17.4785 56.2059 17.4785C49.3958 17.4785 43.875 22.9993 43.875 29.8095C43.875 36.6197 49.3958 42.1404 56.2059 42.1404Z" stroke="#182C3D" stroke-width="1.97789" stroke-miterlimit="10"/>
<path d="M68.5256 29.8232C68.5256 31.2753 63.0124 32.4437 56.1946 32.4437C49.3769 32.4437 43.875 31.3093 43.875 29.8232" stroke="#182C3D" stroke-width="1.97789" stroke-miterlimit="10"/>
<path d="M55.173 42.1398C53.0403 42.1398 51.3047 36.6266 51.3047 29.8202C51.3047 23.0138 53.0403 17.4893 55.173 17.4893" stroke="#182C3D" stroke-width="1.97789" stroke-miterlimit="10"/>
<path d="M56.6895 42.1398C58.8335 42.1398 60.5578 36.6266 60.5578 29.8202C60.5578 23.0138 58.8335 17.4893 56.6895 17.4893" stroke="#182C3D" stroke-width="1.97789" stroke-miterlimit="10"/>
<path d="M40.6738 48.4253L48.6146 50.1269C52.0229 50.8548 55.5444 50.8741 58.9604 50.1837L70.9283 47.79" stroke="#182C3D" stroke-width="1.97789" stroke-miterlimit="10" stroke-linecap="round"/>
<defs>
<linearGradient id="paint0_linear_5306_14677" x1="93.9423" y1="71.589" x2="32.0515" y2="42.7756" gradientUnits="userSpaceOnUse">
<stop stop-color="#F16A42"/>
<stop offset="1" stop-color="#FFAA3B"/>
</linearGradient>
<linearGradient id="paint1_linear_5306_14677" x1="74.3365" y1="38.1095" x2="41.5242" y2="27.5363" gradientUnits="userSpaceOnUse">
<stop stop-color="#F16A42"/>
<stop offset="1" stop-color="#FFAA3B"/>
</linearGradient>
</defs>
</svg>
