<svg width="15" height="17" viewBox="0 0 15 17" fill="none" xmlns="http://www.w3.org/2000/svg">
<path fill-rule="evenodd" clip-rule="evenodd" d="M7.20858 5.76717C6.40441 5.76717 5.75024 6.42879 5.75024 7.24296C5.75024 8.05629 6.40441 8.71707 7.20858 8.71707C8.01274 8.71707 8.66691 8.05629 8.66691 7.24296C8.66691 6.42879 8.01274 5.76717 7.20858 5.76717M7.20858 9.98131C5.71524 9.98131 4.50024 8.75331 4.50024 7.24296C4.50024 5.73177 5.71524 4.50293 7.20858 4.50293C8.70191 4.50293 9.91691 5.73177 9.91691 7.24296C9.91691 8.75331 8.70191 9.98131 7.20858 9.98131" fill="#363636"/>
<mask id="mask0_5339_5631" style="mask-type:alpha" maskUnits="userSpaceOnUse" x="0" y="0" width="15" height="17">
<path fill-rule="evenodd" clip-rule="evenodd" d="M0.333252 0.289062H14.0828V16.7242H0.333252V0.289062Z" fill="white"/>
</mask>
<g mask="url(#mask0_5339_5631)">
<path fill-rule="evenodd" clip-rule="evenodd" d="M7.20776 1.55331C4.1061 1.55331 1.58276 4.12983 1.58276 7.2955C1.58276 11.3234 6.26943 15.2476 7.20776 15.4566C8.1461 15.2467 12.8328 11.3225 12.8328 7.2955C12.8328 4.12983 10.3094 1.55331 7.20776 1.55331V1.55331ZM7.20776 16.7242C5.71276 16.7242 0.332764 12.0448 0.332764 7.29549C0.332764 3.43197 3.41693 0.289062 7.20776 0.289062C10.9986 0.289062 14.0828 3.43197 14.0828 7.29549C14.0828 12.0448 8.70276 16.7242 7.20776 16.7242V16.7242Z" fill="#363636"/>
</g>
</svg>
