<svg width="18" height="18" viewBox="0 0 18 18" fill="none" xmlns="http://www.w3.org/2000/svg">
<path fill-rule="evenodd" clip-rule="evenodd" d="M8.99585 13.6554C8.65085 13.6554 8.37085 13.3722 8.37085 13.0233V10.8851C8.37085 10.5361 8.65085 10.2529 8.99585 10.2529C9.34085 10.2529 9.62085 10.5361 9.62085 10.8851V13.0233C9.62085 13.3722 9.34085 13.6554 8.99585 13.6554" fill="#363636"/>
<mask id="mask0_5339_4510" style="mask-type:alpha" maskUnits="userSpaceOnUse" x="0" y="2" width="18" height="10">
<path fill-rule="evenodd" clip-rule="evenodd" d="M0.666748 2.82812H17.3249V11.5185H0.666748V2.82812Z" fill="white"/>
</mask>
<g mask="url(#mask0_5339_4510)">
<path fill-rule="evenodd" clip-rule="evenodd" d="M1.91675 8.57032C3.89675 9.65841 6.39341 10.2543 8.99175 10.2543C11.5951 10.2543 14.0942 9.65841 16.0751 8.57032V6.04014C16.0751 4.96554 15.2159 4.09237 14.1584 4.09237H3.84175C2.78008 4.09237 1.91675 4.96217 1.91675 6.03172V8.57032ZM8.99175 11.5185C6.03758 11.5185 3.19008 10.7954 0.975915 9.48394C0.784248 9.371 0.666748 9.16367 0.666748 8.93863V6.03172C0.666748 4.26515 2.09091 2.82812 3.84175 2.82812H14.1584C15.9051 2.82812 17.3251 4.26852 17.3251 6.04014V8.93863C17.3251 9.16367 17.2067 9.371 17.0159 9.48394C14.8017 10.7954 11.9517 11.5185 8.99175 11.5185V11.5185Z" fill="#363636"/>
</g>
<mask id="mask1_5339_4510" style="mask-type:alpha" maskUnits="userSpaceOnUse" x="5" y="0" width="8" height="5">
<path fill-rule="evenodd" clip-rule="evenodd" d="M5.4541 0.65332H12.5374V4.0886H5.4541V0.65332Z" fill="white"/>
</mask>
<g mask="url(#mask1_5339_4510)">
<path fill-rule="evenodd" clip-rule="evenodd" d="M11.9124 4.08869C11.5674 4.08869 11.2874 3.8055 11.2874 3.45657V3.14809C11.2874 2.46962 10.7416 1.91756 10.0708 1.91756H7.92077C7.24993 1.91756 6.7041 2.46962 6.7041 3.14809V3.45657C6.7041 3.8055 6.4241 4.08869 6.0791 4.08869C5.7341 4.08869 5.4541 3.8055 5.4541 3.45657V3.14809C5.4541 1.7726 6.56077 0.65332 7.92077 0.65332H10.0708C11.4308 0.65332 12.5374 1.7726 12.5374 3.14809V3.45657C12.5374 3.8055 12.2574 4.08869 11.9124 4.08869" fill="#363636"/>
</g>
<path fill-rule="evenodd" clip-rule="evenodd" d="M13.8289 17.2903H4.16223C2.43306 17.2903 0.977226 15.9241 0.846393 14.1794L0.68806 12.0647C0.662226 11.7167 0.92056 11.4124 1.26473 11.3863C1.61056 11.3736 1.90889 11.6206 1.93556 11.9695L2.09306 14.0833C2.17473 15.1723 3.08306 16.026 4.16223 16.026H13.8289C14.9081 16.026 15.8172 15.1723 15.8981 14.0833L16.0564 11.9695C16.0831 11.6206 16.3889 11.3728 16.7272 11.3863C17.0714 11.4124 17.3289 11.7167 17.3031 12.0647L17.1447 14.1794C17.0139 15.9241 15.5581 17.2903 13.8289 17.2903" fill="#363636"/>
</svg>
