<svg width="16" height="16" viewBox="0 0 16 16" fill="none" xmlns="http://www.w3.org/2000/svg">
<path d="M11.75 5.50006C12.0815 5.50006 12.3994 5.36837 12.6339 5.13394C12.8683 4.89952 13 4.58158 13 4.25006C13 3.91854 12.8683 3.6006 12.6339 3.36618C12.3994 3.13176 12.0815 3.00006 11.75 3.00006C11.4185 3.00006 11.1005 3.13176 10.8661 3.36618C10.6317 3.6006 10.5 3.91854 10.5 4.25006C10.5 4.58158 10.6317 4.89952 10.8661 5.13394C11.1005 5.36837 11.4185 5.50006 11.75 5.50006ZM1.23372 10.6701C1.00099 10.4391 0.816271 10.1643 0.690217 9.86159C0.564164 9.55888 0.499268 9.23422 0.499268 8.90631C0.499268 8.57841 0.564164 8.25374 0.690217 7.95103C0.816271 7.64832 1.00099 7.37355 1.23372 7.14256L7.15872 1.24756C7.6274 0.781978 8.2606 0.519719 8.92122 0.517561L12.9825 0.500061C13.3133 0.497741 13.6413 0.561108 13.9475 0.68649C14.2536 0.811871 14.5318 0.996772 14.766 1.23048C15.0002 1.46418 15.1856 1.74204 15.3116 2.04795C15.4376 2.35386 15.5016 2.68173 15.5 3.01256L15.47 7.21506C15.4649 7.87131 15.2007 8.49897 14.735 8.96131L8.89747 14.7701C8.42636 15.2378 7.78944 15.5002 7.1256 15.5002C6.46176 15.5002 5.82484 15.2378 5.35372 14.7701L1.23372 10.6701ZM2.11997 8.02506C2.00379 8.14054 1.91159 8.27784 1.84868 8.42908C1.78576 8.58032 1.75337 8.74251 1.75337 8.90631C1.75337 9.07012 1.78576 9.2323 1.84868 9.38354C1.91159 9.53478 2.00379 9.67209 2.11997 9.78756L6.23997 13.8876C6.72997 14.3751 7.52247 14.3751 8.01247 13.8876L13.85 8.07881C14.0822 7.84759 14.2139 7.53404 14.2162 7.20631L14.2462 3.00256C14.2469 2.83736 14.2148 2.67366 14.1518 2.52093C14.0888 2.3682 13.9962 2.22948 13.8792 2.11278C13.7623 1.99607 13.6234 1.90371 13.4705 1.84102C13.3177 1.77833 13.1539 1.74657 12.9887 1.74756L8.92622 1.76381C8.59591 1.76489 8.27931 1.89602 8.04497 2.12881L2.11997 8.02506Z" fill="black"/>
</svg>
