<svg width="18" height="18" viewBox="0 0 18 18" fill="none" xmlns="http://www.w3.org/2000/svg">
<path d="M8.13337 14.1957C8.13337 15.0506 8.14515 15.75 9 15.75C9.85485 15.75 9.86663 15.0506 9.86663 14.1957V12.4194V9.86663H14.1957C15.0506 9.86663 15.75 9.85485 15.75 9C15.75 8.14515 15.0506 8.13337 14.1957 8.13337H9.86663V3.80428C9.86663 2.94942 9.85485 2.25 9 2.25C8.14515 2.25 8.13337 2.94942 8.13337 3.80428V8.13337H3.80428C2.94942 8.13337 2.25 8.14515 2.25 9C2.25 9.85485 2.94942 9.86663 3.80428 9.86663H8.13337V14.1957Z" fill="#127BF2"/>
</svg>
