<svg width="60" height="60" viewBox="0 0 60 60" fill="none" xmlns="http://www.w3.org/2000/svg">
<circle cx="30" cy="30" r="29.25" fill="white" stroke="#DCDCDC" stroke-width="1.5"/>
<path d="M19.9722 24.9471C20.3358 24.2336 20.7676 23.5647 21.2903 22.9403C23.1311 20.7328 25.4947 19.3504 28.3809 18.9044C31.9263 18.3693 35.0852 19.2166 37.7897 21.5801C37.8579 21.647 37.8806 21.6693 37.8124 21.7585C36.7897 22.7396 35.7898 23.743 34.7671 24.7464C34.6989 24.8133 34.6534 24.8356 34.5625 24.7464C33.0399 23.4086 31.2217 22.8957 29.2218 23.2079C26.5628 23.6538 24.7902 25.2147 23.7902 27.6452C23.7675 27.6898 23.7448 27.7566 23.722 27.8012C23.6766 27.7789 23.6311 27.7344 23.6084 27.7121C22.6766 27.0208 21.7676 26.3073 20.8358 25.6161C20.5403 25.3931 20.2676 25.1701 19.9722 24.9471Z" fill="#DD4436"/>
<path d="M37.8124 38.5265C37.3352 38.9725 36.8124 39.3515 36.267 39.686C34.8807 40.511 33.3808 40.9793 31.7672 41.1577C30.3354 41.3138 28.9264 41.2915 27.5401 40.9347C24.1538 40.1097 21.6539 38.1474 20.0176 35.1372C19.9949 35.1149 19.9949 35.0703 19.9722 35.048C19.9949 35.0257 20.0403 35.0034 20.0631 34.9588C20.8812 34.3345 21.6766 33.7324 22.4948 33.1081C22.9039 32.7959 23.313 32.4837 23.722 32.1938C23.9947 32.9297 24.3584 33.6209 24.8583 34.2453C26.0856 35.7615 27.6764 36.6535 29.6309 36.8319C31.2217 36.9656 32.7444 36.6758 34.108 35.8061C34.1307 35.7838 34.1535 35.7838 34.1762 35.7838C34.9262 36.3636 35.6761 36.921 36.4261 37.5008C36.8806 37.8353 37.3352 38.192 37.8124 38.5265Z" fill="#39A153"/>
<path d="M37.8131 38.5266C37.3813 38.2591 36.8131 37.8354 36.3586 37.4786C35.6086 36.8989 34.8359 36.386 34.0859 35.8063C34.5177 35.4941 34.995 35.0927 35.3359 34.6914C35.904 34.0224 36.2677 33.242 36.4495 32.3947C36.4722 32.2609 36.4267 32.2609 36.3131 32.2609C34.3359 32.2609 32.3814 32.2609 30.4042 32.2609C30.1997 32.2609 30.2224 32.2832 30.2224 32.0825C30.2224 30.7223 30.2224 29.3621 30.2224 28.0243C30.2224 27.8905 30.2452 27.8682 30.3815 27.8682C33.8814 27.8682 37.3813 27.8682 40.8811 27.8682C40.9948 27.8682 41.0402 27.9128 41.0629 28.0243C41.1993 28.8493 41.2675 29.652 41.2447 30.477C41.1993 32.3947 40.8129 34.2008 39.8812 35.9178C39.3585 36.8989 38.6767 37.7462 37.8585 38.5044C37.8358 38.5266 37.8131 38.5266 37.8131 38.5266Z" fill="#487ABE"/>
<path d="M23.7238 32.194C23.3147 32.5061 22.9056 32.8183 22.4965 33.1082C21.6784 33.7325 20.883 34.3346 20.0648 34.9589C20.0421 34.9812 19.9966 35.0035 19.9739 35.0481C19.6557 34.4684 19.4057 33.844 19.2239 33.1974C18.9739 32.3724 18.8149 31.525 18.7694 30.6554C18.6558 28.6932 19.0421 26.8201 19.9057 25.0363C19.9285 24.9917 19.9512 24.9694 19.9739 24.9248C20.2693 25.1478 20.5421 25.3708 20.8375 25.5937C21.7693 26.3073 22.6783 26.9985 23.6101 27.6898C23.6556 27.7121 23.701 27.7567 23.7238 27.779C23.5647 28.2695 23.451 28.7601 23.4056 29.2729C23.3147 30.2094 23.4056 31.146 23.701 32.0379C23.701 32.1048 23.7238 32.1494 23.7238 32.194Z" fill="#F0B71B"/>
</svg>
