<svg width="60" height="60" viewBox="0 0 60 60" fill="none" xmlns="http://www.w3.org/2000/svg">
<circle cx="30" cy="30" r="30" fill="#FEDE35"/>
<path d="M28.849 18.75C32.9704 18.8347 36.2128 19.9364 38.8107 22.7753C40.51 24.6185 41.389 26.8643 41.2327 29.4913C41.1155 31.4616 40.3733 33.1777 39.1818 34.6395C37.2871 36.9912 34.8455 38.2412 32.0719 38.8344C30.5679 39.1522 29.0443 39.1521 27.5208 38.9827C27.345 38.9615 27.1106 39.025 26.9543 39.1522C25.5284 40.1903 24.1025 41.2284 22.6767 42.2877C22.5985 42.3512 22.5204 42.436 22.4423 42.4572C22.3055 42.4784 22.1297 42.5419 22.0321 42.4572C21.9344 42.3936 21.8953 42.1606 21.9149 42.0335C22.1493 41.0377 22.3837 40.042 22.6376 39.0462C22.7352 38.6437 22.8134 38.2411 22.9306 37.8386C23.0087 37.6056 22.9501 37.4996 22.7548 37.3725C21.1922 36.4615 19.8444 35.2539 18.8482 33.6226C17.9693 32.2031 17.5005 30.6354 17.5005 28.9405C17.5005 26.8431 18.1841 24.9999 19.4342 23.3897C21.1531 21.144 23.4189 19.8305 26.0167 19.1949C27.091 18.9407 28.2239 18.8347 28.849 18.75Z" fill="#3B1C1C"/>
</svg>
