<svg width="60" height="60" viewBox="0 0 60 60" fill="none" xmlns="http://www.w3.org/2000/svg">
<circle cx="30" cy="30" r="30" fill="#1FC800"/>
<path d="M26.7131 29.339C26.7131 32.388 26.7131 35.2689 26.7131 38.1738C26.7131 38.606 26.6662 38.75 26.1967 38.75C24.2718 38.726 22.3704 38.726 20.4455 38.75C20.1169 38.75 19.9995 38.678 19.9995 38.3179C20.023 32.364 19.9995 26.386 19.9995 20.4321C19.9995 20.096 20.0699 20 20.4221 20C22.3939 20.024 24.3892 20.024 26.361 20C26.6897 20 26.8305 20.1681 26.9948 20.4081C28.9901 23.4091 30.9854 26.386 32.9807 29.387C33.0512 29.483 33.0746 29.6511 33.2859 29.6751C33.2859 29.507 33.2859 29.339 33.2859 29.1709C33.2859 26.266 33.2859 23.3851 33.2859 20.4802C33.2859 20.096 33.3798 20 33.7554 20C35.6803 20.024 37.6286 20.024 39.5535 20C39.9056 20 39.9995 20.12 39.9995 20.4561C39.9995 26.4101 39.9995 32.3399 39.9995 38.2939C39.9995 38.654 39.9056 38.75 39.5535 38.75C37.5817 38.726 35.5864 38.726 33.6145 38.75C33.3563 38.75 33.192 38.654 33.0512 38.4379C31.0793 35.581 29.1075 32.7481 27.1357 29.9152C27.0183 29.7231 26.9009 29.5791 26.7131 29.339Z" fill="white"/>
</svg>
