<svg width="210" height="140" viewBox="0 0 210 140" fill="none" xmlns="http://www.w3.org/2000/svg">
<path d="M207.804 90.9919C204.091 132.423 167.691 134.83 129.895 120.806C116.32 115.771 97.08 115.442 76.5124 123.788C57.7023 131.424 28.1802 123.043 31.0653 105.899C35.4513 79.8421 52.778 87.0804 41.1425 61.2846C32.6585 42.476 37.2025 15.7399 63.0097 21.6076C82.3644 26.0083 90.6408 17.3609 93.5693 12.7616C95.5973 9.57625 98.2825 6.79315 101.527 4.68449C126.023 -11.2333 139.264 19.1338 152.788 11.6856C178.253 -2.33831 203.86 11.9438 190.83 34.8305C179.97 53.9078 209.929 67.2769 207.804 90.9919H207.804Z" fill="#F5FAFF"/>
<path d="M150.088 135.64C157.358 139.759 166.694 141.797 173.65 137.639C175.683 136.424 177.472 134.618 178.036 132.315C178.599 130.012 177.627 127.205 175.435 126.136C173.538 125.212 171.067 125.643 169.493 124.233C168.393 123.247 168.107 121.616 168.379 120.206C168.652 118.797 169.391 117.542 170.067 116.285C170.946 114.651 171.736 112.969 172.435 111.247C173.261 109.21 173.961 106.94 173.281 104.799C172.6 102.659 169.955 100.975 168.039 102.063C167.134 102.577 166.613 103.548 165.874 104.276C165.135 105.004 163.867 105.462 163.045 104.771C162.724 104.5 162.54 104.103 162.403 103.71C161.346 100.679 162.491 97.3519 161.75 94.24C161.384 92.7023 160.573 91.2939 159.715 89.9478C155.841 83.8765 150.185 78.2467 143.113 77.0664C141.73 76.8355 140.273 76.7908 139.001 77.3162C136.589 78.3138 135.445 81.19 135.706 83.8101C135.966 86.4301 137.344 88.8389 138.808 91.0756C140.272 93.3123 141.879 95.5182 142.701 98.0404C140.61 97.8886 138.545 97.1693 136.788 95.9835C135.878 95.3692 134.956 94.5982 133.873 94.5828C132.147 94.559 131.071 96.6187 131.492 98.2929C131.912 99.9664 133.318 101.233 134.735 102.26C138.519 105.004 143.186 107.177 145.095 111.405C145.352 111.972 145.542 112.657 145.222 113.172C145.003 113.526 144.59 113.711 144.184 113.822C142.16 114.378 139.995 113.555 137.878 113.354C137.388 113.308 136.879 113.298 136.428 113.474C134.643 114.173 135.116 116.815 135.985 118.568C139.259 125.174 143.224 131.081 150.088 135.641V135.64Z" fill="#E5F2FF"/>
<path d="M158.227 139.69C161.339 130.031 159.852 119.137 154.579 110.504C153.087 108.06 151.286 105.816 149.228 103.827C148.833 103.444 148.252 104.07 148.647 104.451C155.759 111.326 159.479 121.335 158.946 131.185C158.792 134.013 158.263 136.809 157.395 139.503C157.227 140.025 158.06 140.209 158.227 139.69Z" fill="#7DB8FC"/>
<path d="M159.718 125.151C160.866 124.487 162.043 123.802 162.963 122.828C163.472 122.288 164.304 121.286 163.638 120.558C162.083 118.858 159.776 123.562 159.274 124.345C158.977 124.808 159.732 125.207 160.026 124.747C160.486 124.03 160.945 123.311 161.406 122.593C161.61 122.276 161.802 121.937 162.057 121.657C162.211 121.489 163.052 120.67 162.917 121.517C162.871 121.805 162.349 122.243 162.145 122.441C161.841 122.739 161.507 123.003 161.161 123.25C160.554 123.683 159.907 124.057 159.262 124.43C158.786 124.705 159.244 125.425 159.718 125.151H159.718Z" fill="#7DB8FC"/>
<path d="M158.776 120.76C160.01 119.608 161.32 118.413 162.293 117.024C162.716 116.421 163.877 114.384 162.683 113.946C161.491 113.508 160.505 114.743 159.955 115.598C159.051 117.003 158.456 118.579 158.14 120.216C158.036 120.754 158.868 120.944 158.972 120.403C159.178 119.339 159.494 118.308 159.964 117.33C160.204 116.831 161.466 114.328 162.096 114.945C163.039 115.869 158.832 119.542 158.151 120.177C157.749 120.553 158.376 121.132 158.775 120.759L158.776 120.76Z" fill="#7DB8FC"/>
<path d="M156.978 115.446C158.301 114.346 159.433 113.046 160.322 111.57C160.866 110.665 162.116 108.748 160.785 107.926C159.681 107.244 158.243 108.897 157.694 109.671C156.655 111.133 156.305 112.918 156.118 114.668C156.061 115.207 156.892 115.402 156.95 114.856C157.087 113.572 157.286 112.266 157.846 111.09C158.081 110.6 158.371 110.136 158.729 109.727C158.924 109.506 159.131 109.306 159.361 109.124C159.483 109.021 159.612 108.928 159.748 108.846C159.967 108.617 160.125 108.683 160.224 109.042C160.547 109.475 160.392 109.598 160.188 110.03C160.065 110.29 159.928 110.544 159.787 110.795C159.476 111.348 159.131 111.881 158.747 112.387C158.048 113.306 157.242 114.126 156.354 114.863C155.933 115.214 156.561 115.792 156.978 115.445V115.446Z" fill="#7DB8FC"/>
<path d="M154.402 109.853C154.876 108.003 156.19 106.474 156.514 104.574C156.67 103.666 156.656 101.353 155.334 101.293C153.978 101.232 153.053 102.748 152.897 103.923C152.643 105.838 153.722 107.614 153.656 109.52C153.637 110.069 154.489 110.027 154.508 109.48C154.555 108.141 154.077 106.925 153.831 105.63C153.685 104.862 153.616 104.014 153.947 103.282C154.147 102.841 154.74 102.001 155.282 102.25C155.818 102.497 155.776 103.63 155.72 104.139C155.648 104.787 155.432 105.405 155.167 105.995C154.616 107.223 153.907 108.351 153.57 109.666C153.434 110.198 154.266 110.385 154.402 109.853Z" fill="#7DB8FC"/>
<path d="M149.797 104.534C149.929 102.789 149.441 101.101 148.654 99.5564C148.076 98.4237 146.841 96.4753 145.314 96.7006C143.552 96.9608 144.902 99.2185 145.363 100.031C146.3 101.685 147.516 103.159 148.93 104.424C149.339 104.79 149.921 104.166 149.511 103.8C148.542 102.931 147.667 101.974 146.922 100.905C146.54 100.358 146.19 99.7887 145.877 99.1996C145.652 98.7777 144.812 97.2358 145.868 97.6346C147.076 98.0907 147.834 99.6852 148.291 100.791C148.791 102.002 149.045 103.263 148.945 104.573C148.904 105.119 149.756 105.075 149.797 104.533L149.797 104.534Z" fill="#7DB8FC"/>
<path d="M153.531 109.384C152.405 108.401 151.077 107.777 149.689 107.251C148.897 106.951 147.374 106.247 147.038 107.518C146.73 108.687 148.358 109.544 149.205 109.924C149.747 110.167 150.237 110.249 150.825 110.164C151.806 110.023 152.616 109.976 153.548 110.393C154.047 110.616 154.451 109.864 153.95 109.64C153.174 109.293 152.351 109.106 151.497 109.189C151.038 109.234 150.569 109.42 150.105 109.343C149.623 109.263 149.128 108.947 148.724 108.683C148.605 108.605 148.17 108.383 148.122 108.232C147.842 107.349 148.627 107.761 148.852 107.843C149.315 108.01 149.775 108.186 150.228 108.378C151.213 108.797 152.138 109.301 152.948 110.008C153.362 110.369 153.944 109.746 153.53 109.384H153.531Z" fill="#7DB8FC"/>
<path d="M156.603 115.153C155.516 114.521 154.388 113.872 153.128 113.672C152.532 113.578 151.131 113.376 151.115 114.31C151.101 115.145 152.434 116.003 153.057 116.325C154.052 116.84 155.166 116.465 156.182 116.202C156.714 116.065 156.456 115.251 155.924 115.389C155.277 115.556 154.442 115.873 153.767 115.703C153.16 115.549 152.056 114.747 151.938 114.106C151.906 114.246 151.875 114.386 151.843 114.527C152.217 114.089 153.871 114.723 154.303 114.904C154.963 115.182 155.583 115.547 156.201 115.906C156.677 116.183 157.077 115.428 156.603 115.153V115.153Z" fill="#7DB8FC"/>
<path d="M158.429 120.769C157.72 120.684 157.023 120.546 156.343 120.324C155.943 120.194 155.556 120.034 155.177 119.851C155.002 119.766 154.303 119.517 154.24 119.337C153.911 118.395 156.051 119.452 156.308 119.616C156.92 120.005 157.431 120.516 157.858 121.101C158.18 121.543 158.902 121.09 158.578 120.645C157.736 119.488 154.816 116.86 153.391 118.559C151.904 120.334 157.261 121.483 158.241 121.601C158.781 121.665 158.973 120.834 158.428 120.768L158.429 120.769Z" fill="#7DB8FC"/>
<path d="M158.934 124.814C158.263 124.582 157.609 124.311 156.976 123.991C156.737 123.871 156.503 123.743 156.273 123.61C156.031 123.471 155.397 123.265 155.566 122.976C155.895 122.408 158.061 124.83 158.357 125.163C158.721 125.576 159.3 124.947 158.939 124.539C158.222 123.729 157.453 122.792 156.485 122.273C155.93 121.976 154.873 121.667 154.474 122.379C153.585 123.965 157.832 125.33 158.748 125.646C159.266 125.825 159.449 124.991 158.935 124.814H158.934Z" fill="#7DB8FC"/>
<path d="M188.573 131.909C183.355 134.418 176.798 135.4 172.164 132.218C170.811 131.288 169.652 129.962 169.363 128.349C169.075 126.735 169.873 124.845 171.439 124.207C172.795 123.656 174.486 124.065 175.639 123.165C176.445 122.535 176.716 121.424 176.589 120.44C176.463 119.456 176.007 118.557 175.594 117.66C175.058 116.494 174.586 115.298 174.178 114.08C173.696 112.638 173.312 111.041 173.878 109.597C174.444 108.152 176.352 107.111 177.631 107.948C178.236 108.344 178.552 109.037 179.032 109.572C179.511 110.107 180.368 110.481 180.969 110.042C181.204 109.869 181.349 109.604 181.461 109.34C182.328 107.298 182.046 106.493 182.464 103.695C182.624 102.616 183.279 100.863 183.934 99.9746C186.888 95.9651 191.055 92.3404 196.005 91.8478C196.974 91.7513 197.985 91.7863 198.842 92.2068C200.469 93.0036 201.133 95.0381 200.837 96.8327C200.54 98.6272 199.478 100.225 198.366 101.701C197.252 103.176 196.042 104.624 195.359 106.325C196.814 106.315 198.277 105.914 199.546 105.175C200.204 104.792 200.877 104.303 201.627 104.342C202.824 104.403 203.477 105.872 203.112 107.007C202.746 108.142 201.715 108.951 200.689 109.594C197.946 111.315 194.618 112.601 193.107 115.429C192.904 115.808 192.742 116.272 192.94 116.641C193.076 116.895 193.354 117.041 193.63 117.136C195.008 117.611 196.544 117.143 198.019 117.1C198.361 117.09 198.713 117.106 199.018 117.248C200.223 117.811 199.778 119.612 199.099 120.78C196.537 125.186 193.529 129.078 188.572 131.91L188.573 131.909Z" fill="#CCE6FF"/>
<path d="M195.505 98.2824C191.835 101.851 188.749 105.993 186.344 110.511C183.961 114.987 182.25 119.821 181.283 124.799C180.74 127.597 180.443 130.44 180.388 133.29C180.383 133.574 179.942 133.554 179.947 133.269C180.044 128.166 180.935 123.086 182.549 118.245C184.169 113.382 186.512 108.753 189.5 104.587C191.2 102.214 193.11 99.9943 195.203 97.9591C195.407 97.7604 195.707 98.0844 195.504 98.2824H195.505Z" fill="#7DB8FC"/>
<path d="M62.3569 79.6957C62.3569 79.6957 62.3171 73.9798 68.4235 70.6846C74.5293 67.3901 81.1594 67.9876 85.6027 69.694C92.9011 72.4959 94.6111 79.1584 91.568 79.616C89.8748 79.8707 87.4406 83.9865 88.2564 84.7022C92.0916 88.0653 64.0277 94.2787 62.3569 79.6957Z" fill="#FDBAA0"/>
<path d="M100.672 102.396C99.2639 103 96.5095 104.048 93.6594 104.969C93.0086 105.198 90.0731 106.1 87.3929 106.736C87.3572 106.744 87.3209 106.752 87.2852 106.761C82.6566 107.851 77.6673 108.513 73.8041 107.728C73.7818 107.726 71.5328 107.114 68.9889 105.851C68.5988 105.658 68.1731 105.51 67.7145 105.406H67.7138C63.908 104.533 57.9288 106.644 54.2859 108.064C52.7017 108.683 51.1113 109.352 49.5685 110.023L47.344 87.0811C49.4454 86.4759 33.2799 83.1674 35.8357 82.4768C43.3474 80.4444 57.4869 76.7651 64.0408 74.6005C64.1002 74.5508 70.5898 72.6199 72.7513 71.0576C96.5655 97.7881 82.0449 81.5002 86.9538 86.9978L89.4971 85.3649L90.366 90.8282C94.7031 95.6976 99.8456 101.467 100.673 102.396H100.672Z" fill="#FDBAA0"/>
<path d="M82.8091 97.2625C86.4094 102.174 93.5358 108.27 97.6918 102.263C101.848 96.2564 103.874 82.427 98.1511 78.9617C92.427 75.4965 88.8694 75.4419 86.1913 78.062C83.5131 80.6821 79.0614 86.8269 77.9344 87.8819C76.8075 88.9369 80.6119 94.2653 82.8091 97.2625Z" fill="#E8A595"/>
<path d="M68.2404 105.534C65.7545 103.847 63.9634 101.227 63.3133 98.2911C63.2643 98.07 63.6041 97.9728 63.6537 98.1959C64.2829 101.036 66.0019 103.59 68.4103 105.223C68.5976 105.35 68.4291 105.661 68.2411 105.534H68.2404Z" fill="#E79780"/>
<path d="M64.1509 74.8153C62.8359 77.4823 62.0075 80.3885 61.7272 83.3493C61.6482 84.1812 61.6132 85.0158 61.6188 85.8512C61.6202 86.0786 61.2672 86.0842 61.2651 85.8554C61.2448 82.8358 61.774 79.8155 62.8296 76.9856C63.1267 76.1887 63.4637 75.4079 63.8398 74.6453C63.9405 74.4404 64.2502 74.6111 64.1502 74.8147L64.1509 74.8153Z" fill="#E79780"/>
<path d="M84.0749 117.057C83.2234 116.54 82.9494 115.419 83.4667 114.567L114.992 62.5951C115.508 61.743 116.628 61.4687 117.48 61.9865C118.331 62.5035 118.605 63.6243 118.088 64.4764L86.563 116.449C86.0463 117.301 84.9264 117.575 84.0749 117.057Z" fill="#384955"/>
<g opacity="0.2">
<path d="M130.403 65.6068C144.157 65.6068 155.307 54.448 155.307 40.6828C155.307 26.9177 144.157 15.7588 130.403 15.7588C116.648 15.7588 105.498 26.9177 105.498 40.6828C105.498 54.448 116.648 65.6068 130.403 65.6068Z" fill="white"/>
</g>
<path d="M140.538 65.2316C139.192 65.8122 137.788 66.2838 136.336 66.6392C129.537 68.3029 122.496 67.2178 116.512 63.5826C110.529 59.9473 106.318 54.1978 104.655 47.3926C102.993 40.5874 104.077 33.5422 107.709 27.5534C115.208 15.1911 131.358 11.2396 143.71 18.7438C149.693 22.379 153.905 28.1285 155.567 34.9337C157.229 41.7383 156.145 48.7842 152.513 54.7729C149.656 59.4821 145.493 63.0942 140.538 65.2316ZM108.822 28.23L109.935 28.9058C103.182 40.0396 106.738 54.5959 117.864 61.355C123.253 64.6292 129.593 65.6066 135.717 64.108C141.842 62.6094 147.016 58.8139 150.288 53.4205C157.041 42.2868 153.484 27.7297 142.359 20.9714C131.234 14.2123 116.688 17.772 109.935 28.9058L108.822 28.23Z" fill="#384955"/>
<path d="M129.219 31.2017C130.957 29.3673 133.803 29.354 135.795 30.7428C137.797 32.1378 139.081 35.1924 136.008 36.1537C134.761 36.544 133.368 36.3251 132.086 36.5881C130.608 36.8918 129.206 37.5725 128.041 38.531C125.844 40.3388 124.463 42.898 123.214 45.4041C121.572 48.6958 126.856 50.8646 128.49 47.5876C129.242 46.0785 130.041 44.4589 131.271 43.2716C132.678 41.9136 134.311 42.1788 136.108 41.9381C140.345 41.37 143.968 37.8642 143.605 33.4062C143.268 29.268 139.751 25.667 135.892 24.5168C131.756 23.2841 127.635 24.6071 124.711 27.6917C122.18 30.3615 126.711 33.8456 129.218 31.201L129.219 31.2017Z" fill="#127BF2"/>
<path d="M121.795 56.1773C125.189 57.5821 127.377 52.3049 123.976 50.8972C120.582 49.4924 118.394 54.7696 121.795 56.1773Z" fill="#127BF2"/>
<path d="M139.823 28.3984C140.585 29.1631 141.351 30.3692 141.443 31.4606C141.477 31.8552 142.086 31.7706 142.052 31.3767C141.945 30.1146 141.074 28.7902 140.2 27.9128C139.921 27.633 139.547 28.1213 139.823 28.3984Z" fill="#7DB8FC"/>
<path d="M141.609 32.989C141.579 33.2898 141.549 33.5906 141.518 33.8915C141.479 34.284 142.089 34.3623 142.128 33.967C142.158 33.6662 142.189 33.3653 142.219 33.0645C142.259 32.672 141.648 32.5937 141.609 32.989Z" fill="#7DB8FC"/>
<path d="M124.37 45.354C124.097 46.1068 123.917 47.0044 124.617 47.5851C124.922 47.8384 125.299 47.3521 124.995 47.0996C124.536 46.719 124.77 46.0529 124.937 45.5884C125.072 45.2176 124.505 44.9804 124.37 45.3533V45.354Z" fill="#7DB8FC"/>
<path d="M123.702 52.3551C124.476 52.6986 124.266 53.6739 124.026 54.2951C123.884 54.6638 124.451 54.9003 124.593 54.5302C124.964 53.5696 125.05 52.2802 123.936 51.787C123.575 51.6268 123.34 52.1948 123.701 52.3551H123.702Z" fill="#7DB8FC"/>
<path d="M123.596 26.4222C122.825 27.4199 122.093 28.4861 122.244 29.807C122.289 30.2002 122.897 30.1169 122.853 29.723C122.722 28.5756 123.418 27.6577 124.082 26.7993C124.324 26.4859 123.839 26.1088 123.596 26.4215V26.4222Z" fill="#127BF2"/>
<path d="M137.263 43.0121C138.395 42.8651 139.659 42.4783 140.602 41.8262C140.928 41.6002 140.554 41.1119 140.23 41.3365C139.378 41.9256 138.198 42.2705 137.179 42.4027C136.787 42.4538 136.869 43.0631 137.263 43.0121Z" fill="#127BF2"/>
<path d="M125.828 51.4282C126.125 51.7143 126.313 52.0928 126.379 52.4972C126.443 52.8869 127.052 52.805 126.988 52.4132C126.894 51.8403 126.622 51.3442 126.206 50.9426C125.921 50.6677 125.546 51.156 125.828 51.4282Z" fill="#127BF2"/>
<path d="M126.383 53.7054C126.369 53.8341 126.355 53.9628 126.341 54.0915C126.323 54.2511 126.441 54.4211 126.608 54.4344C126.772 54.4477 126.932 54.3385 126.951 54.1671C126.965 54.0384 126.979 53.9096 126.992 53.7809C127.01 53.6214 126.893 53.4514 126.725 53.4381C126.561 53.4248 126.402 53.534 126.383 53.7054Z" fill="#127BF2"/>
<path d="M110.75 50.7559C113.121 54.1525 116.216 57.0077 119.795 59.0926C120.471 59.4864 121.208 58.5014 120.524 58.1026C117.025 56.0646 114.027 53.3074 111.709 49.987C111.257 49.3384 110.298 50.1094 110.75 50.7566V50.7559Z" fill="#7DB8FC"/>
<path d="M122.155 60.0367C123.119 60.5404 124.202 60.7181 125.279 60.5866C126.065 60.4907 125.894 59.2727 125.11 59.3685C124.229 59.4763 123.393 59.3042 122.608 58.8942C121.907 58.5276 121.459 59.6736 122.155 60.0367Z" fill="#7DB8FC"/>
<path d="M73.1777 68.8721C77.9482 67.3525 89.8067 65.5601 94.3877 66.3835C102.954 67.9234 110.615 65.1718 111.568 66.1806C112.52 67.1895 111.631 71.637 105.117 74.1052C98.694 76.5399 92.6554 74.9287 91.3887 75.6486C90.1219 76.3685 84.5629 79.7974 84.5629 79.7974C84.5629 79.7974 69.4788 70.0502 73.1777 68.8721Z" fill="#FDBAA0"/>
<path d="M84.7244 79.6605C83.4864 80.6085 82.379 81.7188 81.4499 82.9732C80.4817 84.2808 79.7435 85.7087 78.5033 86.7966C77.3617 87.7978 76.0377 88.6282 74.7066 89.353C73.486 90.0184 72.1997 90.5872 70.8589 90.9608C69.3615 91.3777 67.8116 91.5415 66.2645 91.3616C65.9506 91.3253 65.9003 91.8136 66.2142 91.85C68.9944 92.1725 71.7439 91.4022 74.2159 90.1625C75.5119 89.5125 76.7668 88.7444 77.9329 87.8817C79.2856 86.8806 80.2321 85.6751 81.1465 84.2787C82.2119 82.6521 83.4877 81.2255 85.0334 80.0418C85.2844 79.8501 84.9747 79.4688 84.7244 79.6612V79.6605Z" fill="#E79780"/>
<path d="M90.4339 82.6129C91.0785 82.1491 90.7198 81.4593 92.3382 81.5859C97.9413 81.3109 103.503 82.5493 108.931 83.9674C111.188 84.5572 113.561 85.2519 115.15 86.9618C116.74 88.671 117.109 91.7332 115.294 93.2017C113.954 94.2854 112.032 94.1287 110.326 93.8964C103.971 93.031 99.2807 91.3295 93.284 89.0551C91.7349 88.4674 90.3493 87.4487 89.709 85.9194C89.0693 84.3914 89.0889 83.5805 90.4339 82.6136V82.6129Z" fill="#FDBAA0"/>
<path d="M108.108 91.2718C110.488 90.8115 112.918 92.6067 114.569 94.3824C116.221 96.1587 116.604 99.3399 114.719 100.865C113.328 101.991 111.33 101.828 109.557 101.587C102.955 100.688 99.4846 98.0526 93.2537 95.6893C91.6437 95.0785 89.2102 93.8052 89.1452 92.5333C88.9663 89.0261 93.771 89.2394 100.913 91.7161C103.388 92.5745 106.479 91.5867 108.108 91.2711V91.2718Z" fill="#FDBAA0"/>
<path d="M91.0294 94.9935C91.5935 94.7822 96.8212 95.4609 100.761 97.7528C102.399 98.7057 104.109 99.7649 105.066 101.426C106.023 103.087 105.84 105.512 104.228 106.232C103.038 106.764 101.59 106.217 100.319 105.659C95.5867 103.585 96.0187 103.9 91.7739 100.828C90.677 100.034 89.2048 98.5238 88.9468 97.2113C88.6896 95.8995 89.8535 95.435 91.0301 94.9942L91.0294 94.9935Z" fill="#FDBAA0"/>
<path d="M92.1283 75.229C97.0974 74.9848 100.728 75.1597 105.542 76.4177C107.544 76.941 109.648 77.5566 111.058 79.0727C112.467 80.5888 112.794 83.304 111.186 84.6067C109.998 85.568 108.293 85.4288 106.78 85.2231C101.144 84.4556 95.6999 84.6333 90.6651 81.986C85.0543 79.0356 90.6931 75.1164 92.129 75.229H92.1283Z" fill="#FDBAA0"/>
<path d="M110.644 84.3282C106.894 83.3726 103.1 82.5883 99.2771 81.9852C97.5 81.7047 95.6775 81.3514 93.8753 81.3101C92.3562 81.2751 90.7931 81.7012 89.8109 82.9304C89.6207 83.169 89.9765 83.4831 90.1674 83.2445C91.2426 81.8985 92.9875 81.6816 94.6002 81.825C96.3815 81.9831 98.1614 82.2812 99.9251 82.5708C103.5 83.1571 107.047 83.9015 110.557 84.7956C110.853 84.8711 110.94 84.4038 110.644 84.3282Z" fill="#E79780"/>
<path d="M104.089 75.8419C100.614 75.3836 97.0698 75.0023 93.5611 74.9869C92.1413 74.9806 90.6886 75.2206 89.5575 76.1406C88.5592 76.9529 87.8769 78.194 88.1573 79.5044C88.4649 80.9421 89.7323 81.7355 90.9403 82.3826C91.1997 82.5212 91.3989 82.1105 91.1402 81.972C89.7798 81.2437 88.2258 80.1795 88.5956 78.3948C88.9591 76.6366 90.7879 75.6775 92.4265 75.497C94.2679 75.2941 96.2016 75.5347 98.0401 75.6726C100.035 75.8223 102.023 76.0301 104.006 76.2917C104.296 76.3302 104.382 75.8811 104.089 75.8426V75.8419Z" fill="#E79780"/>
<path d="M113.844 93.6037C112.566 92.5781 110.86 92.6061 109.306 92.4697C107.892 92.3451 106.481 92.1835 105.078 91.9638C102.374 91.5406 99.7079 90.9081 97.0312 90.347C96.739 90.2854 96.6537 90.7423 96.9466 90.8039C99.5346 91.3461 102.113 91.9554 104.725 92.378C106.047 92.5914 107.375 92.7537 108.709 92.8796C110.293 93.0294 112.229 92.902 113.539 93.9529C113.771 94.1397 114.078 93.7912 113.845 93.6044L113.844 93.6037Z" fill="#E79780"/>
<path d="M105.236 101.448C104.628 100.454 103.232 99.8902 102.236 99.3403C101.009 98.6623 99.7666 98.0117 98.509 97.3925C97.2059 96.7503 95.8853 96.1346 94.5305 95.6078C93.5791 95.2377 92.5514 94.8319 91.5217 94.7675C90.2759 94.6892 88.4884 95.8086 88.7387 97.2267C88.7848 97.4898 89.2028 97.4611 89.156 97.1952C88.9274 95.8981 90.6646 95.0593 91.751 95.2111C92.7465 95.3503 93.7154 95.7295 94.6431 96.1017C97.0556 97.0686 99.3849 98.2601 101.665 99.5047C102.164 99.7768 102.661 100.054 103.154 100.338C103.786 100.702 104.497 101.042 104.889 101.683C105.03 101.913 105.377 101.679 105.236 101.45V101.448Z" fill="#E79780"/>
<path d="M100.579 105.648C98.8023 104.909 97.0966 103.976 95.4495 102.986C93.6522 101.905 91.8234 100.724 90.3546 99.2104C89.8345 98.6745 89.2096 97.9804 89.155 97.1955C89.1362 96.9268 88.7188 96.9576 88.7377 97.227C88.7845 97.8958 89.1851 98.494 89.601 98.9949C90.219 99.7393 90.9608 100.377 91.7227 100.969C93.5425 102.385 95.539 103.585 97.5726 104.665C98.4947 105.154 99.4322 105.622 100.396 106.024C100.644 106.127 100.828 105.751 100.579 105.648L100.579 105.648Z" fill="#E79780"/>
<path d="M98.1192 90.5981C96.0786 90.2021 94.0121 89.3178 92.2574 88.2019C90.7502 87.2441 88.5474 85.0529 90.1658 83.2437C90.3699 83.0156 90.0134 82.7022 89.8092 82.9295C88.2021 84.7269 89.8002 86.9824 91.3577 88.1536C92.2679 88.8385 93.297 89.3507 94.3302 89.8201C95.52 90.3609 96.7469 90.8143 98.0325 91.064C98.3317 91.1221 98.4198 90.6555 98.1192 90.5967V90.5981Z" fill="#E79780"/>
<path d="M90.4912 76.9651C91.3385 76.4943 92.3676 76.4782 93.2456 76.5873C93.721 76.6468 94.2138 76.7489 94.6445 76.9847C95.0702 77.217 95.1583 77.5787 95.1842 78.144C95.2212 78.9457 95.0157 80.9865 94.1733 81.1761C93.9279 81.2314 93.649 81.1957 93.4071 81.1775C92.5116 81.1111 91.5867 80.9306 90.7981 80.4352C89.746 79.7741 89.1567 77.9621 90.4905 76.9651H90.4912Z" fill="#FFD1C3"/>
<path d="M91.5712 83.0519C92.4814 82.7455 93.4804 82.9183 94.3102 83.187C94.759 83.3325 95.2169 83.5235 95.5895 83.8334C95.9572 84.1398 95.974 84.5106 95.8915 85.0703C95.7748 85.8637 95.1869 87.829 94.3347 87.8604C94.0865 87.8695 93.8236 87.7835 93.5923 87.7212C92.738 87.4917 91.8767 87.1447 91.2077 86.5137C90.315 85.672 90.0899 83.7851 91.5712 83.0519Z" fill="#FFD1C3"/>
<path d="M91.0564 90.5245C91.8988 90.2797 92.8362 90.4553 93.6178 90.7113C94.0407 90.8499 94.4728 91.0276 94.8286 91.3081C95.1796 91.5852 95.2047 91.9091 95.1411 92.396C95.0516 93.0859 94.5511 94.788 93.7569 94.7943C93.5248 94.7964 93.2774 94.7146 93.0599 94.6544C92.256 94.4326 91.443 94.108 90.8026 93.5399C89.9483 92.7822 89.6904 91.129 91.0557 90.5252L91.0564 90.5245Z" fill="#FFD1C3"/>
<path d="M91.0691 95.7134C91.7955 95.5616 92.5267 95.7939 93.1174 96.0856C93.4369 96.243 93.7578 96.4375 93.9983 96.7167C94.236 96.9923 94.2003 97.2848 94.0654 97.7157C93.8745 98.3265 93.1755 99.8097 92.5295 99.7516C92.3408 99.7348 92.1541 99.6418 91.9877 99.5704C91.3732 99.3074 90.7685 98.952 90.3456 98.3923C89.7814 97.6458 89.8562 96.1451 91.0691 95.7134Z" fill="#FFD1C3"/>
<path d="M111.567 66.1802C111.567 66.1802 110.985 67.641 109.323 67.6452C107.66 67.6494 106.523 67.599 106.523 67.599L105.765 66.4887C105.765 66.4887 109.567 65.328 111.567 66.1802Z" fill="#FFD1C3"/>
<path d="M2.625 79.4917L8.12955 127.241C8.67693 127.096 15.2958 124.826 23.7484 121.826C38.6486 116.539 59.2281 108.982 62.2257 106.774C62.5242 106.428 62.6675 106.043 62.7165 105.651L62.7144 105.632C63.0478 102.653 57.3454 98.1996 56.2157 94.9191C53.7186 87.7689 56.0053 82.654 56.0305 79.2881C56.0368 79.0167 56.2325 77.5069 56.2038 77.2592C55.9571 75.28 50.9314 77.6202 45.6184 78.0085C44.0133 78.1106 16.0159 79.0495 2.625 79.4924V79.4917Z" fill="#49B2A4"/>
<path d="M60.6901 102.19C60.5545 103.803 59.3528 104.938 57.9518 105.51C55.9804 106.315 53.8426 105.822 51.7901 105.878C49.2699 105.947 47.0797 107.234 44.7812 108.144C42.5679 109.019 40.2197 109.401 37.8533 109.273C37.4569 109.251 37.4737 108.616 37.8729 108.637C40.1043 108.758 42.319 108.418 44.4148 107.613C46.4631 106.825 48.4157 105.667 50.608 105.344C52.6339 105.046 54.6997 105.612 56.7116 105.223C58.2307 104.93 59.926 103.909 60.0714 102.171C60.1057 101.765 60.7237 101.78 60.6894 102.19H60.6901Z" fill="#63D5C2"/>
<path d="M42.062 106.352C41.7327 106.368 41.4035 106.385 41.0742 106.401C40.6771 106.421 40.6974 105.785 41.0938 105.766C41.423 105.75 41.7523 105.733 42.0816 105.717C42.4786 105.697 42.4584 106.332 42.062 106.352Z" fill="#63D5C2"/>
<path d="M39.7467 104.43C39.6642 104.434 39.5817 104.439 39.4999 104.443C39.3385 104.45 39.1889 104.278 39.2007 104.115C39.214 103.933 39.3461 103.815 39.5195 103.807C39.602 103.803 39.6845 103.798 39.7663 103.794C39.9278 103.786 40.0774 103.959 40.0655 104.122C40.0522 104.304 39.9201 104.422 39.7467 104.43Z" fill="#63D5C2"/>
<path d="M50.9475 84.0026C49.5389 82.6026 47.3976 83.247 45.8295 83.9634C44.0413 84.7805 42.3978 85.5214 40.3984 85.4207C38.5563 85.3276 36.7786 84.7462 35.0036 84.2852C32.984 83.7605 30.9482 83.5002 28.8671 83.7542C26.5133 84.041 24.2615 84.8897 22.2727 86.2141C21.9378 86.4372 21.64 85.8803 21.9728 85.6586C25.5269 83.291 29.864 82.4935 33.9955 83.389C36.0068 83.8249 37.967 84.5734 40.0258 84.7568C41.0681 84.8498 42.1097 84.7777 43.1129 84.4552C44.237 84.0942 45.2668 83.4834 46.3629 83.0497C48.0037 82.3997 50.0331 82.2094 51.3928 83.5604C51.6794 83.8451 51.2327 84.2859 50.9475 84.0026Z" fill="#63D5C2"/>
<path d="M49.5841 91.0589C49.0045 91.464 48.3893 91.7767 47.7315 92.0216C47.3575 92.1601 47.2149 91.5416 47.5861 91.4038C48.1901 91.1799 48.7535 90.8742 49.2842 90.5034C49.6141 90.2732 49.9112 90.8301 49.5841 91.0589Z" fill="#63D5C2"/>
<path d="M47.257 90.7548C46.9067 90.8654 46.5558 90.9766 46.2055 91.0871C45.8245 91.2075 45.6805 90.5897 46.0601 90.4694C46.4104 90.3588 46.7613 90.2476 47.1115 90.137C47.4925 90.0167 47.6366 90.6345 47.257 90.7548Z" fill="#63D5C2"/>
<path d="M52.8281 107.667C52.5226 107.635 52.2171 107.603 51.9123 107.571C51.5194 107.53 51.5348 106.894 51.9319 106.936C52.2374 106.968 52.5429 107 52.8484 107.032C53.2413 107.073 53.2259 107.709 52.8288 107.667H52.8281Z" fill="#63D5C2"/>
<path d="M22.0015 111.217C22.2706 111.025 22.5629 110.887 22.8746 110.786C23.2549 110.664 23.399 111.283 23.0201 111.404C22.7614 111.487 22.5244 111.614 22.3014 111.773C22.1637 111.871 21.9561 111.79 21.8813 111.65C21.7939 111.487 21.8638 111.315 22.0015 111.217V111.217Z" fill="#63D5C2"/>
<path d="M33.9864 113.125C33.6117 113.318 33.2377 113.51 32.863 113.703C32.5072 113.887 32.2066 113.332 32.5631 113.148C32.9378 112.955 33.3118 112.762 33.6865 112.569C34.0423 112.386 34.3429 112.941 33.9864 113.125Z" fill="#63D5C2"/>
<path d="M31.3615 102.344C31.005 102.361 30.6478 102.379 30.2912 102.397C29.8942 102.416 29.9144 101.781 30.3108 101.762C30.6673 101.744 31.0246 101.726 31.3811 101.708C31.7782 101.689 31.7579 102.324 31.3615 102.344Z" fill="#63D5C2"/>
<path d="M32.4045 101.5C32.2367 101.44 32.0738 101.426 31.9005 101.467C31.5125 101.558 31.3664 100.94 31.7551 100.849C32.0305 100.784 32.315 100.795 32.5821 100.89C32.7394 100.946 32.8386 101.116 32.7897 101.285C32.7429 101.445 32.5632 101.555 32.4045 101.5Z" fill="#63D5C2"/>
<path d="M31.136 91.8247C30.6977 91.9017 30.2971 92.0521 29.9147 92.2851C29.5715 92.4943 29.273 91.9388 29.6148 91.7296C30.0405 91.4693 30.5026 91.293 30.9906 91.207C31.3807 91.1384 31.5289 91.7548 31.136 91.8247Z" fill="#63D5C2"/>
<path d="M31.9623 90.0117C31.8798 90.0159 31.7973 90.0201 31.7155 90.0236C31.554 90.0313 31.4044 89.8585 31.4163 89.6962C31.4296 89.5136 31.5617 89.396 31.7351 89.3876C31.8176 89.3834 31.9001 89.3792 31.9819 89.3757C32.1434 89.368 32.293 89.5409 32.2811 89.7032C32.2678 89.8858 32.1357 90.0033 31.9623 90.0117Z" fill="#63D5C2"/>
<path d="M19.5091 95.7105C19.0848 95.8771 18.6856 96.0988 18.3081 96.3584C17.9767 96.5865 17.6796 96.0296 18.0082 95.8029C18.4346 95.5098 18.8848 95.2803 19.3637 95.0928C19.7349 94.9473 19.8768 95.5664 19.5091 95.7105Z" fill="#63D5C2"/>
<path d="M19.7559 93.8187C19.6196 93.8775 19.4826 93.9362 19.3463 93.995C19.1974 94.0587 19.0058 94.0377 18.9261 93.8719C18.8583 93.7319 18.887 93.5081 19.0464 93.4395C19.1827 93.3807 19.3197 93.322 19.456 93.2632C19.6049 93.1995 19.7965 93.2205 19.8762 93.3863C19.944 93.5263 19.9153 93.7501 19.7559 93.8187Z" fill="#63D5C2"/>
<path d="M53.7069 98.149C53.3434 98.1924 52.9945 98.1805 52.6359 98.105C52.4723 98.0707 52.3835 97.8636 52.429 97.7097C52.4807 97.5334 52.6499 97.4613 52.8142 97.4956C53.0574 97.5467 53.3147 97.5607 53.5622 97.5313C53.7278 97.5117 53.8928 97.5831 53.9355 97.765C53.9711 97.9161 53.8747 98.1295 53.7076 98.149H53.7069Z" fill="#63D5C2"/>
<path d="M51.9159 96.8852C51.8887 96.8866 51.8607 96.888 51.8334 96.8894C51.6719 96.8971 51.5223 96.7243 51.5342 96.562C51.5475 96.3794 51.6796 96.2626 51.853 96.2535C51.8803 96.2521 51.9082 96.2507 51.9355 96.2493C52.0977 96.2416 52.2466 96.4144 52.2347 96.5767C52.2214 96.7593 52.0893 96.8768 51.9159 96.8852Z" fill="#63D5C2"/>
<path d="M44.8852 111.403C44.5671 111.509 44.2336 111.552 43.9001 111.537C43.5038 111.518 43.5206 110.882 43.9197 110.902C44.2036 110.915 44.4699 110.876 44.7397 110.786C45.1186 110.659 45.262 111.277 44.8852 111.403V111.403Z" fill="#63D5C2"/>
<path d="M45.398 109.869C45.2897 109.902 45.1806 109.935 45.0723 109.968C44.9171 110.015 44.7304 109.898 44.699 109.735C44.6654 109.559 44.7605 109.401 44.9269 109.35C45.0352 109.318 45.1443 109.285 45.2526 109.251C45.4078 109.204 45.5945 109.322 45.6259 109.485C45.6595 109.66 45.5644 109.819 45.398 109.869Z" fill="#63D5C2"/>
<path d="M40.7284 83.0385C40.6179 83.014 40.5068 82.9896 40.3963 82.9651C40.2376 82.9301 40.137 82.723 40.1894 82.5698C40.2481 82.397 40.4047 82.3186 40.5746 82.3557C40.6851 82.3802 40.7962 82.4047 40.9067 82.4292C41.0653 82.4641 41.166 82.6712 41.1136 82.8245C41.0549 82.9973 40.8983 83.0756 40.7284 83.0385Z" fill="#63D5C2"/>
<path d="M41.6018 82.3217C41.5466 82.3245 41.4921 82.3273 41.4368 82.3301C41.2747 82.3378 41.1257 82.165 41.1376 82.0027C41.1509 81.8201 41.283 81.7026 41.4564 81.6942C41.5116 81.6914 41.5662 81.6886 41.6214 81.6858C41.7829 81.6781 41.9325 81.8509 41.9206 82.0132C41.9073 82.1958 41.7752 82.3134 41.6018 82.3217Z" fill="#63D5C2"/>
<path d="M17.6509 86.1109C15.2803 86.5188 12.8706 86.2809 10.6286 85.391C10.2602 85.2448 10.4343 84.634 10.8062 84.7816C12.9461 85.631 15.2391 85.8828 17.5048 85.4931C17.8949 85.426 18.0438 86.043 17.6502 86.1109H17.6509Z" fill="#63D5C2"/>
<path d="M3.26843 85.0493L8.13333 127.249C8.67861 127.097 15.3024 124.827 23.7571 121.826C23.7571 121.826 20.1498 118.022 15.48 118.293C14.4097 118.354 13.6917 117.452 13.1765 115.987C13.1073 115.791 13.0416 115.585 12.9807 115.371C12.1523 112.506 11.9112 108.032 11.4225 104.247C11.3938 104.025 11.3659 103.805 11.3344 103.589C10.9422 100.798 10.3809 98.4779 9.2952 97.6145C5.77044 94.8167 5.86411 85.6538 3.26913 85.05L3.26843 85.0493Z" fill="#40A696"/>
<path d="M52.3047 90.9508C52.253 93.7409 49.7866 95.6719 47.2909 96.1064C43.871 96.7017 40.5882 95.1835 37.1976 95.0961C33.4645 95.0002 30.081 97.1579 26.8464 98.8146C25.2399 99.6373 23.6334 100.461 22.0269 101.284C20.4435 102.094 18.8573 102.913 17.1837 103.511C14.0916 104.616 10.4243 104.837 7.68039 102.725C7.3644 102.481 7.68388 101.936 8.00266 102.181C10.4166 104.04 13.5876 103.985 16.3651 103.119C18.0044 102.608 19.5522 101.839 21.0831 101.058C22.6498 100.259 24.2143 99.4547 25.7796 98.6523C28.687 97.1628 31.6609 95.2857 34.8879 94.6546C38.0813 94.0299 41.125 95.2185 44.273 95.5362C46.0228 95.7125 47.8872 95.6159 49.4238 94.642C50.6961 93.8361 51.6574 92.504 51.6867 90.9319C51.6944 90.5234 52.3124 90.5409 52.3047 90.9508Z" fill="#63D5C2"/>
<path d="M22.5194 113.046C20.6039 114.176 18.5752 114.882 16.378 115.166C14.2486 115.446 12.0933 115.381 9.94995 115.313L10.1003 115.952C14.192 116.082 18.2949 116.024 22.0175 114.06C23.8351 113.096 25.5611 111.803 27.3794 110.726C29.3047 109.58 31.332 108.69 33.6334 108.733C34.0311 108.732 34.0451 108.094 33.648 108.095C31.0139 108.037 28.7265 109.162 26.5475 110.513C25.1906 111.333 23.8707 112.256 22.5208 113.047L22.5194 113.046Z" fill="#63D5C2"/>
<path d="M90.7808 27.7796C91.073 26.8127 91.9902 26.2104 92.9941 26.2803C93.7714 26.3349 95.0354 26.9205 94.604 27.8741C94.3545 28.4254 93.7819 28.6192 93.301 28.9207C92.7347 29.2754 92.2537 29.7309 91.914 30.3109C91.2478 31.4491 91.1716 32.826 91.1653 34.1126C91.1576 35.6623 93.5631 35.6637 93.5708 34.1126C93.5743 33.3892 93.5694 32.6371 93.805 31.9438C94.0497 31.2218 94.5453 31.0021 95.1668 30.6264C96.7188 29.6875 97.659 27.7202 96.7341 26.0068C95.8624 24.3935 93.8351 23.6707 92.0937 23.9352C90.3585 24.1983 88.9653 25.4709 88.4612 27.1395C88.0124 28.6255 90.3334 29.2607 90.7808 27.7796Z" fill="#FF8D67"/>
<path d="M92.5553 38.5304C94.103 38.5304 94.1058 36.123 92.5553 36.123C91.0047 36.123 91.0047 38.5304 92.5553 38.5304Z" fill="#FF8D67"/>
<path d="M172.208 30.2356C173.106 29.2162 174.552 28.8923 175.772 29.5409C176.884 30.1313 178.051 31.7419 176.823 32.8074C176.281 33.2775 175.629 33.3027 174.951 33.3706C174.265 33.4392 173.611 33.6008 173.033 33.9947C171.896 34.7698 171.232 36.0152 170.666 37.2325C170.243 38.1427 171.595 38.941 172.021 38.0252C172.361 37.2948 172.715 36.5294 173.239 35.9095C173.832 35.2092 174.474 34.9874 175.365 34.907C177.072 34.7537 178.858 33.768 178.926 31.8412C178.991 30.0012 177.45 28.4103 175.798 27.8541C174.143 27.2965 172.25 27.8191 171.099 29.1253C170.433 29.8802 171.539 30.9947 172.208 30.2356H172.208Z" fill="#384955"/>
<path d="M170.05 41.7272C171.059 41.7272 171.061 40.1572 170.05 40.1572C169.039 40.1572 169.039 41.7272 170.05 41.7272Z" fill="#384955"/>
<path d="M168.779 58.8912C170.02 57.4017 172.196 57.2513 173.789 58.2161C175.389 59.1851 176.522 61.4588 174.218 62.346C173.283 62.7063 172.206 62.6069 171.239 62.8714C170.122 63.1764 169.083 63.7662 168.239 64.5575C166.647 66.0491 165.716 68.0759 164.883 70.0544C163.789 72.6542 167.939 74.0534 169.028 71.4655C169.53 70.2734 170.061 68.9952 170.944 68.0262C171.954 66.9173 173.216 67.0404 174.58 66.7676C177.795 66.1239 180.394 63.2625 179.897 59.8693C179.435 56.7189 176.567 54.1373 173.558 53.4475C170.332 52.708 167.244 53.9232 165.158 56.4279C163.353 58.5953 166.992 61.0384 168.78 58.8912H168.779Z" fill="#49B2A4"/>
<path d="M164.328 78.3685C166.995 79.2766 168.409 75.13 165.738 74.2205C163.071 73.3124 161.657 77.459 164.328 78.3685Z" fill="#49B2A4"/>
<path d="M62.7161 42.9638C62.3568 41.3609 63.3803 39.8197 64.8504 39.2467C66.3276 38.6709 68.4395 39.0837 67.8446 41.0909C67.6034 41.9052 66.9805 42.5783 66.6582 43.3661C66.2863 44.2742 66.1458 45.2774 66.2409 46.2541C66.4199 48.0955 67.3 49.7676 68.1983 51.3494C69.3784 53.4273 72.4613 51.3606 71.2861 49.2919C70.7451 48.339 70.1613 47.3217 69.967 46.2275C69.7447 44.9759 70.4787 44.1902 71.0002 43.1324C72.2285 40.6389 71.6504 37.413 69.1155 35.9948C66.7624 34.6782 63.548 35.2735 61.5305 36.94C59.3682 38.7269 58.5888 41.4309 59.1928 44.1272C59.7157 46.4605 63.2349 45.276 62.7168 42.9645L62.7161 42.9638Z" fill="#51C6D4"/>
<path d="M73.4912 56.0175C75.478 54.6932 73.4248 51.6008 71.4352 52.9273C69.4484 54.2517 71.5016 57.344 73.4912 56.0175Z" fill="#51C6D4"/>
</svg>
