<svg width="1032" height="200" viewBox="0 0 1032 200" fill="none" xmlns="http://www.w3.org/2000/svg">
<rect width="1032" height="200" rx="16" fill="#00ACF5"/>
<path d="M62.28 61.8V64.95H71.25C70.71 70.98 67.86 75.27 60.96 78.75L63.06 81.81C72.6 77.04 75.27 70.14 75.27 61.8H62.28ZM80.43 58.95V69.54H75.09V72.75H80.43V86.58H84.39V58.95H80.43ZM93.4777 72.33H100.048V61.62H89.6077V64.8H96.2377V69.21H89.6377V80.46H91.5877C94.9177 80.46 97.9177 80.37 101.458 79.8L101.158 76.59C98.3977 77.01 95.9977 77.16 93.4777 77.22V72.33ZM108.838 58.92V69.36H106.348V59.43H102.658V85.26H106.348V72.54H108.838V86.55H112.588V58.92H108.838ZM117.745 61.77V64.98H126.775C126.055 71.1 122.635 75.48 116.215 78.78L118.435 81.81C127.615 77.16 130.765 70.05 130.765 61.77H117.745ZM141.985 69.48H138.115V58.92H134.155V86.52H138.115V72.75H141.985V69.48ZM158.44 77.01C156.43 77.01 155.08 74.82 155.08 70.71C155.08 66.63 156.43 64.44 158.44 64.44C160.48 64.44 161.83 66.63 161.83 70.71C161.83 74.82 160.48 77.01 158.44 77.01ZM170.11 58.92V68.88H165.49C164.95 63.9 162.16 60.87 158.44 60.87C154.33 60.87 151.3 64.65 151.3 70.71C151.3 76.8 154.33 80.61 158.44 80.61C162.28 80.61 165.1 77.37 165.52 72.09H170.11V86.64H174.07V58.92H170.11ZM192.607 70.11C189.848 70.56 187.448 70.65 183.458 70.68V68.31H191.588V59.97H179.498V63.12H187.688V65.37H179.528V73.86H181.658C186.938 73.86 189.758 73.8 192.968 73.26L192.607 70.11ZM197.678 83.1H187.058V80.88H197.678V83.1ZM197.678 77.85H187.058V75.45H183.128V86.25H201.578V75.45H197.678V77.85ZM197.618 58.95V61.98H193.208V65.16H197.618V67.5H193.208V70.62H197.618V74.37H201.578V58.95H197.618ZM227.585 77.19C228.695 71.31 228.695 67.41 228.695 63.96V61.32H208.625V64.47H224.735C224.735 67.68 224.675 71.52 223.625 76.74L227.585 77.19ZM218.885 80.07V70.56H214.925V80.07H206.105V83.25H231.095V80.07H218.885ZM250.55 70.2H245.15V64.05H250.55V70.2ZM254.45 60.93H241.28V73.32H254.45V60.93ZM253.19 83.52C249.68 83.52 247.76 82.77 247.76 81.15C247.76 79.56 249.68 78.78 253.19 78.78C256.7 78.78 258.59 79.56 258.59 81.15C258.59 82.77 256.7 83.52 253.19 83.52ZM253.19 75.69C247.46 75.69 243.83 77.73 243.83 81.15C243.83 84.6 247.46 86.64 253.19 86.64C258.89 86.64 262.52 84.6 262.52 81.15C262.52 77.73 258.89 75.69 253.19 75.69ZM262.22 65.13V58.95H258.26V74.97H262.22V68.4H265.88V65.13H262.22ZM287.207 72.99H291.167V58.95H287.207V63H282.167V66.15H287.207V72.99ZM284.567 69.63C280.247 68.31 278.357 65.1 278.357 61.83V59.85H274.367V61.83C274.367 65.34 272.447 68.73 267.857 70.11L269.897 73.2C273.047 72.21 275.207 70.17 276.437 67.59C277.607 69.9 279.647 71.73 282.557 72.66L284.567 69.63ZM276.887 83.19V81.57H291.167V74.16H272.957V77.19H287.267V78.72H272.987V86.28H291.947V83.19H276.887ZM310.185 73.17C310.305 72.42 310.365 71.58 310.365 70.71C310.365 69.66 310.275 68.67 310.095 67.77H314.895V73.17H310.185ZM303.225 77.01C301.215 77.01 299.835 74.82 299.835 70.71C299.835 66.63 301.215 64.44 303.225 64.44C305.265 64.44 306.645 66.63 306.645 70.71C306.645 74.82 305.265 77.01 303.225 77.01ZM314.895 58.92V64.59H309.015C307.785 62.22 305.715 60.87 303.225 60.87C299.115 60.87 296.085 64.65 296.085 70.71C296.085 76.8 299.115 80.61 303.225 80.61C305.895 80.64 308.025 79.08 309.255 76.38H314.895V86.64H318.855V58.92H314.895ZM340.74 64.86H346.44V61.59H330.96V64.86H336.72V66.39C336.72 71.1 334.47 76.17 329.85 78.24L332.1 81.39C335.34 79.92 337.56 76.89 338.79 73.29C340.02 76.62 342.21 79.32 345.42 80.7L347.58 77.58C342.96 75.66 340.74 70.89 340.74 66.39V64.86ZM348.99 58.95V86.58H352.95V58.95H348.99ZM368.367 61.08H364.407V65.1C364.407 70.47 362.127 75.81 357.297 77.88L359.667 81.15C362.967 79.59 365.217 76.62 366.447 72.93C367.677 76.32 369.807 79.05 372.987 80.49L375.237 77.28C370.557 75.27 368.367 70.23 368.367 65.1V61.08ZM376.587 58.92V86.64H380.547V58.92H376.587ZM390.055 61.56H386.095V79.8H388.495C392.515 79.8 396.955 79.56 401.545 78.6L401.155 75.36C397.285 76.11 393.535 76.41 390.055 76.5V61.56ZM410.755 69.36H406.885V58.92H402.925V86.52H406.885V72.63H410.755V69.36ZM422.303 74.88C423.263 75.06 424.253 75.15 425.333 75.15C426.413 75.15 427.433 75.06 428.393 74.88V80.16H422.303V74.88ZM425.333 63.42C429.173 63.42 431.753 64.98 431.753 67.74C431.753 70.47 429.173 72.06 425.333 72.06C421.493 72.06 418.943 70.47 418.943 67.74C418.943 64.98 421.493 63.42 425.333 63.42ZM432.323 80.16V73.41C434.393 72.12 435.653 70.14 435.653 67.74C435.653 63.21 431.303 60.3 425.333 60.3C419.393 60.3 415.043 63.21 415.043 67.74C415.013 70.14 416.273 72.12 418.373 73.41V80.16H412.853V83.37H437.873V80.16H432.323ZM444.47 76.44H448.31C447.86 72.21 453.08 70.77 453.08 66.51C453.08 62.67 450.44 60.81 446.84 60.81C444.23 60.81 442.1 62.04 440.54 63.81L442.97 66.03C443.93 65.04 444.98 64.35 446.3 64.35C447.86 64.35 448.85 65.31 448.85 66.81C448.85 69.69 443.75 71.61 444.47 76.44ZM446.39 84.42C447.98 84.42 449.15 83.16 449.15 81.54C449.15 79.92 447.98 78.66 446.39 78.66C444.83 78.66 443.66 79.92 443.66 81.54C443.66 83.16 444.83 84.42 446.39 84.42ZM79.26 112.77C79.26 116.52 79.26 120.45 78.27 125.73L82.2 126.09C83.22 120.42 83.22 116.64 83.22 112.77V109.5H63.87V112.65H79.26V112.77ZM61.29 127.74V130.98H86.28V127.74H61.29ZM108.028 121.86H111.988V106.95H108.028V111.69H103.738V114.81H108.028V121.86ZM104.218 116.85C100.918 117.42 98.0977 117.54 93.8677 117.57V115.65H102.358V108.06H89.9077V111.06H98.4577V112.86H89.9377V120.57H92.1877C97.4677 120.57 100.798 120.48 104.548 119.85L104.218 116.85ZM102.718 131.91C99.8677 131.91 98.6377 131.58 98.6377 130.77C98.6377 129.93 99.8677 129.6 102.718 129.6C105.538 129.6 106.768 129.93 106.768 130.77C106.768 131.58 105.538 131.91 102.718 131.91ZM102.718 126.9C97.6477 126.9 94.8277 128.22 94.8277 130.77C94.8277 133.29 97.6477 134.61 102.718 134.61C107.758 134.61 110.608 133.29 110.608 130.77C110.608 128.22 107.758 126.9 102.718 126.9ZM104.668 123.18V121.14H100.708V123.18H92.9677V126.12H112.408V123.18H104.668ZM121.495 112.71H130.435V109.5H117.535V128.01H119.905C124.705 128.01 128.485 127.86 132.655 127.11L132.265 123.84C128.695 124.44 125.425 124.65 121.495 124.71V112.71ZM142.135 117.15H138.115V106.95H134.155V134.64H138.115V120.42H142.135V117.15ZM154.373 119.55H149.123V112.26H154.373V119.55ZM163.223 114.45V117.24H158.243V114.45H163.223ZM158.243 120.39H163.223V127.08H167.183V106.95H163.223V111.3H158.243V109.17H145.223V122.67H158.243V120.39ZM152.903 130.95V125.19H148.943V134.1H167.783V130.95H152.903ZM180.878 118.41C186.098 117.96 189.488 116.01 190.958 113.4C192.428 116.01 195.818 117.96 201.008 118.41L202.388 115.35C197.228 114.9 194.528 113.1 193.838 111.24H201.188V108.09H180.758V111.24H188.078C187.388 113.1 184.688 114.9 179.558 115.35L180.878 118.41ZM196.478 129.6C196.478 130.98 194.588 131.58 190.898 131.58C187.208 131.58 185.318 130.98 185.318 129.6C185.318 128.19 187.208 127.59 190.898 127.59C194.588 127.59 196.478 128.19 196.478 129.6ZM203.438 122.64V119.49H178.478V122.64H188.978V124.65C184.178 125.04 181.328 126.75 181.328 129.6C181.328 132.78 184.928 134.61 190.898 134.61C196.868 134.61 200.498 132.78 200.498 129.6C200.498 126.78 197.678 125.07 192.938 124.68V122.64H203.438ZM207.125 110.37V113.52H214.115C213.605 118.95 211.265 122.94 205.715 126.18L208.025 128.94C215.735 124.44 218.015 118.11 218.015 110.37H207.125ZM225.965 106.95V117.36H223.505V107.67H219.815V133.41H223.505V120.54H225.965V134.58H229.745V106.95H225.965ZM263.39 106.98H259.43V122.64H263.39V106.98ZM251.39 117.21H245.75V111.72H251.39V117.21ZM255.26 108.6H241.85V120.3H255.26V108.6ZM263.84 127.05V124.11H256.13V121.86H252.11V124.11H244.37V127.05H252.02C251.63 128.97 248.84 131.07 243.32 131.55L244.55 134.49C249.2 134.1 252.44 132.48 254.12 130.35C255.8 132.45 259.01 134.1 263.6 134.49L264.86 131.55C259.4 131.1 256.64 128.88 256.22 127.05H263.84ZM279.334 112.89H282.874V124.59H279.334V112.89ZM275.644 127.68H286.534V109.77H275.644V127.68ZM294.814 106.92V117.48H292.504V107.37H288.814V133.32H292.504V120.66H294.814V134.55H298.564V106.92H294.814ZM320.372 113.4H309.422V110.79H320.372V113.4ZM324.242 107.76H305.552V116.43H324.242V107.76ZM327.422 121.02V117.9H302.462V121.02H312.932V122.76H305.312V125.67H320.492V127.11H305.342V134.37H325.112V131.4H309.272V129.84H324.392V122.76H316.892V121.02H327.422ZM338.476 108.54V111.69H346.876C346.246 115.35 342.916 118.35 336.976 119.97L338.536 123.03C346.576 120.81 351.076 115.83 351.076 108.54H338.476ZM345.676 126.63H356.056V131.16H345.676V126.63ZM341.776 134.25H359.956V123.51H341.776V134.25ZM355.996 106.98V113.49H351.226V116.7H355.996V122.37H359.956V106.98H355.996ZM366.854 118.65C372.074 118.17 375.464 116.25 376.934 113.61C378.374 116.25 381.794 118.17 386.984 118.65L388.364 115.56C383.114 115.11 380.414 113.28 379.784 111.39H387.164V108.24H366.734V111.39H374.084C373.454 113.28 370.754 115.11 365.534 115.56L366.854 118.65ZM376.874 131.55C373.184 131.55 371.294 130.89 371.294 129.45C371.294 128.01 373.184 127.38 376.874 127.38C380.564 127.38 382.454 128.01 382.454 129.45C382.454 130.89 380.564 131.55 376.874 131.55ZM376.874 124.32C370.904 124.32 367.304 126.21 367.304 129.45C367.304 132.72 370.904 134.61 376.874 134.61C382.844 134.61 386.474 132.72 386.474 129.45C386.474 126.21 382.844 124.32 376.874 124.32ZM364.454 119.7V122.82H389.414V119.7H364.454ZM404.532 110.25C408.552 110.25 410.442 110.82 410.442 112.05C410.442 113.34 408.552 113.88 404.532 113.88C400.542 113.88 398.652 113.34 398.652 112.05C398.652 110.82 400.542 110.25 404.532 110.25ZM404.532 116.76C410.862 116.76 414.552 115.11 414.552 112.05C414.552 109.02 410.862 107.34 404.532 107.34C398.232 107.34 394.542 109.02 394.542 112.05C394.542 115.11 398.232 116.76 404.532 116.76ZM398.862 129.84H413.982V122.73H394.902V125.64H410.082V127.11H394.932V134.37H414.702V131.4H398.862V129.84ZM392.052 118.08V121.17H417.012V118.08H392.052ZM435.896 122.88C436.856 123.06 437.846 123.15 438.926 123.15C440.006 123.15 441.026 123.06 441.986 122.88V128.16H435.896V122.88ZM438.926 111.42C442.766 111.42 445.346 112.98 445.346 115.74C445.346 118.47 442.766 120.06 438.926 120.06C435.086 120.06 432.536 118.47 432.536 115.74C432.536 112.98 435.086 111.42 438.926 111.42ZM445.916 128.16V121.41C447.986 120.12 449.246 118.14 449.246 115.74C449.246 111.21 444.896 108.3 438.926 108.3C432.986 108.3 428.636 111.21 428.636 115.74C428.606 118.14 429.866 120.12 431.966 121.41V128.16H426.446V131.37H451.466V128.16H445.916ZM468.894 114.33V117.51H473.184V123.63H477.144V106.95H473.184V114.33H468.894ZM470.634 119.73C466.224 118.56 464.244 115.77 464.184 112.92H469.644V109.8H464.184V106.86H460.224V109.8H454.824V112.92H460.224C460.164 116.01 458.244 119.13 453.864 120.39L455.724 123.45C458.934 122.52 461.094 120.57 462.324 118.05C463.584 120.24 465.744 121.95 468.834 122.76L470.634 119.73ZM467.814 131.55C464.154 131.55 462.294 130.86 462.294 129.36C462.294 127.86 464.154 127.14 467.814 127.14C471.414 127.14 473.304 127.86 473.304 129.36C473.304 130.86 471.414 131.55 467.814 131.55ZM467.814 124.11C461.934 124.11 458.334 126.03 458.334 129.36C458.334 132.66 461.934 134.58 467.814 134.58C473.664 134.58 477.264 132.66 477.264 129.36C477.264 126.03 473.664 124.11 467.814 124.11ZM488.272 125.34C486.772 125.34 485.692 124.14 485.692 122.07C485.692 120 486.772 118.77 488.272 118.77C489.772 118.77 490.852 120 490.852 122.07C490.852 124.14 489.772 125.34 488.272 125.34ZM488.272 115.47C484.732 115.47 482.212 118.2 482.212 122.07C482.212 125.91 484.732 128.64 488.272 128.64C491.812 128.64 494.332 125.91 494.332 122.07C494.332 118.2 491.812 115.47 488.272 115.47ZM490.222 107.7H486.322V111.12H481.612V114.27H494.812V111.12H490.222V107.7ZM501.592 106.92V118.2H499.492V107.46H495.802V133.41H499.492V121.38H501.592V134.55H505.342V106.92H501.592ZM515.809 116.07H527.629V119.94H515.809V116.07ZM523.699 128.16V123.09H531.529V108.66H527.629V112.95H515.809V108.66H511.879V123.09H519.739V128.16H509.239V131.37H534.259V128.16H523.699ZM545.657 109.35H541.847V114C541.847 118.71 540.377 123.66 536.327 126.12L538.697 129.09C541.187 127.59 542.807 124.95 543.767 121.89C544.637 124.68 546.107 127.02 548.447 128.46L550.607 125.4C546.857 122.91 545.657 118.32 545.657 113.85V109.35ZM551.177 116.28H547.727V119.49H551.177V133.35H554.867V107.4H551.177V116.28ZM556.787 106.95V134.58H560.537V106.95H556.787ZM573.885 122.88C574.845 123.06 575.835 123.15 576.915 123.15C577.995 123.15 579.015 123.06 579.975 122.88V128.16H573.885V122.88ZM576.915 111.42C580.755 111.42 583.335 112.98 583.335 115.74C583.335 118.47 580.755 120.06 576.915 120.06C573.075 120.06 570.525 118.47 570.525 115.74C570.525 112.98 573.075 111.42 576.915 111.42ZM583.905 128.16V121.41C585.975 120.12 587.235 118.14 587.235 115.74C587.235 111.21 582.885 108.3 576.915 108.3C570.975 108.3 566.625 111.21 566.625 115.74C566.595 118.14 567.855 120.12 569.955 121.41V128.16H564.435V131.37H589.455V128.16H583.905ZM594.852 124.44H597.732L598.362 113.37L598.512 109.2H594.072L594.222 113.37L594.852 124.44ZM596.292 132.42C597.852 132.42 599.052 131.16 599.052 129.54C599.052 127.92 597.852 126.66 596.292 126.66C594.732 126.66 593.562 127.92 593.562 129.54C593.562 131.16 594.732 132.42 596.292 132.42Z" fill="white"/>
<path d="M959.647 120.491C955.669 164.882 916.669 167.461 876.173 152.435C861.629 147.041 841.014 146.688 818.978 155.63C798.824 163.811 767.193 154.832 770.284 136.464C774.984 108.545 793.548 116.3 781.081 88.6621C771.991 68.51 776.86 39.8642 804.51 46.151C825.248 50.866 834.115 41.601 837.253 36.6732C839.426 33.2603 842.303 30.2784 845.779 28.0191C872.025 10.9643 886.211 43.5005 900.701 35.5203C927.985 20.4947 955.421 35.7969 941.461 60.3184C929.825 80.7583 961.924 95.0823 959.648 120.491H959.647Z" fill="#F5FAFF"/>
<path d="M897.808 168.329C905.597 172.742 915.6 174.925 923.054 170.47C925.231 169.169 927.149 167.234 927.752 164.766C928.356 162.298 927.315 159.292 924.966 158.146C922.933 157.155 920.286 157.618 918.6 156.107C917.421 155.051 917.114 153.302 917.406 151.793C917.698 150.282 918.49 148.938 919.214 147.591C920.156 145.841 921.003 144.038 921.751 142.193C922.637 140.011 923.387 137.579 922.658 135.285C921.929 132.991 919.095 131.187 917.042 132.354C916.072 132.905 915.514 133.945 914.722 134.725C913.93 135.504 912.572 135.995 911.691 135.254C911.347 134.964 911.15 134.539 911.003 134.118C909.871 130.87 911.097 127.306 910.303 123.972C909.911 122.324 909.043 120.815 908.123 119.373C903.972 112.868 897.913 106.836 890.336 105.571C888.854 105.324 887.292 105.276 885.93 105.839C883.345 106.908 882.12 109.989 882.399 112.797C882.678 115.604 884.154 118.185 885.723 120.581C887.292 122.978 889.013 125.341 889.894 128.043C887.654 127.881 885.441 127.11 883.558 125.84C882.583 125.181 881.596 124.355 880.435 124.339C878.586 124.313 877.433 126.52 877.884 128.314C878.335 130.107 879.841 131.464 881.359 132.564C885.414 135.504 890.413 137.832 892.459 142.362C892.734 142.97 892.938 143.704 892.595 144.256C892.36 144.635 891.918 144.834 891.483 144.953C889.314 145.548 886.994 144.666 884.726 144.451C884.201 144.401 883.657 144.391 883.173 144.579C881.26 145.328 881.767 148.16 882.698 150.037C886.206 157.116 890.454 163.444 897.808 168.33V168.329Z" fill="#E5F2FF"/>
<path d="M906.529 172.668C909.863 162.319 908.27 150.647 902.62 141.397C901.022 138.779 899.092 136.374 896.887 134.243C896.464 133.833 895.841 134.503 896.264 134.912C903.885 142.278 907.87 153.002 907.299 163.555C907.135 166.585 906.568 169.581 905.637 172.467C905.457 173.027 906.35 173.224 906.529 172.668Z" fill="#7DB8FC"/>
<path d="M908.126 157.09C909.357 156.379 910.618 155.645 911.603 154.601C912.148 154.022 913.04 152.949 912.327 152.169C910.661 150.348 908.188 155.388 907.65 156.227C907.333 156.723 908.141 157.15 908.456 156.658C908.949 155.889 909.441 155.119 909.935 154.35C910.154 154.01 910.36 153.647 910.632 153.347C910.797 153.166 911.699 152.289 911.554 153.197C911.505 153.506 910.945 153.974 910.727 154.187C910.401 154.506 910.044 154.789 909.673 155.054C909.023 155.518 908.329 155.918 907.638 156.318C907.128 156.612 907.618 157.384 908.127 157.09H908.126Z" fill="#7DB8FC"/>
<path d="M907.117 152.385C908.439 151.151 909.842 149.871 910.886 148.383C911.339 147.736 912.582 145.554 911.303 145.084C910.026 144.616 908.97 145.939 908.38 146.855C907.412 148.36 906.774 150.049 906.436 151.802C906.324 152.379 907.216 152.583 907.327 152.003C907.547 150.863 907.886 149.758 908.39 148.71C908.647 148.176 909.999 145.494 910.674 146.155C911.685 147.145 907.177 151.081 906.448 151.761C906.016 152.163 906.688 152.784 907.116 152.385L907.117 152.385Z" fill="#7DB8FC"/>
<path d="M905.191 146.692C906.608 145.514 907.821 144.121 908.773 142.539C909.357 141.57 910.695 139.515 909.269 138.635C908.086 137.904 906.547 139.675 905.958 140.504C904.845 142.071 904.47 143.983 904.27 145.858C904.208 146.436 905.099 146.645 905.161 146.059C905.308 144.685 905.52 143.284 906.121 142.025C906.372 141.499 906.683 141.003 907.067 140.564C907.275 140.327 907.497 140.113 907.744 139.918C907.875 139.808 908.012 139.709 908.158 139.621C908.393 139.375 908.563 139.446 908.668 139.831C909.015 140.295 908.849 140.426 908.63 140.889C908.498 141.167 908.352 141.44 908.2 141.709C907.867 142.301 907.497 142.873 907.086 143.414C906.337 144.399 905.473 145.277 904.523 146.068C904.071 146.443 904.744 147.062 905.191 146.691V146.692Z" fill="#7DB8FC"/>
<path d="M902.431 140.7C902.938 138.717 904.347 137.08 904.694 135.044C904.86 134.071 904.846 131.592 903.429 131.529C901.977 131.464 900.985 133.087 900.818 134.346C900.546 136.398 901.703 138.301 901.631 140.343C901.611 140.931 902.523 140.886 902.544 140.3C902.595 138.866 902.083 137.563 901.819 136.175C901.662 135.352 901.589 134.444 901.943 133.66C902.157 133.187 902.792 132.287 903.374 132.554C903.948 132.818 903.903 134.032 903.842 134.578C903.765 135.272 903.534 135.934 903.25 136.567C902.661 137.882 901.9 139.091 901.539 140.499C901.393 141.07 902.285 141.27 902.431 140.7Z" fill="#7DB8FC"/>
<path d="M897.496 135C897.639 133.131 897.115 131.323 896.272 129.667C895.653 128.454 894.329 126.366 892.694 126.608C890.806 126.886 892.252 129.305 892.746 130.176C893.75 131.948 895.053 133.527 896.567 134.882C897.006 135.275 897.63 134.607 897.191 134.214C896.152 133.284 895.215 132.257 894.416 131.113C894.007 130.526 893.632 129.916 893.297 129.285C893.056 128.833 892.156 127.181 893.288 127.608C894.581 128.097 895.394 129.805 895.883 130.99C896.418 132.287 896.691 133.639 896.584 135.043C896.54 135.627 897.453 135.58 897.497 134.999L897.496 135Z" fill="#7DB8FC"/>
<path d="M901.497 140.197C900.291 139.144 898.868 138.475 897.381 137.911C896.533 137.59 894.901 136.836 894.541 138.198C894.211 139.45 895.955 140.369 896.862 140.776C897.444 141.036 897.968 141.123 898.599 141.033C899.649 140.882 900.517 140.832 901.516 141.278C902.051 141.517 902.484 140.711 901.947 140.471C901.115 140.099 900.234 139.899 899.318 139.989C898.826 140.037 898.324 140.235 897.827 140.153C897.31 140.067 896.78 139.728 896.347 139.446C896.22 139.363 895.754 139.125 895.702 138.962C895.402 138.016 896.243 138.458 896.484 138.546C896.98 138.725 897.473 138.914 897.958 139.12C899.014 139.568 900.005 140.108 900.873 140.866C901.317 141.252 901.94 140.584 901.497 140.197H901.497Z" fill="#7DB8FC"/>
<path d="M904.789 146.378C903.624 145.701 902.416 145.006 901.066 144.792C900.428 144.691 898.926 144.475 898.909 145.475C898.894 146.37 900.322 147.289 900.989 147.634C902.056 148.185 903.249 147.783 904.338 147.502C904.908 147.355 904.631 146.484 904.062 146.631C903.368 146.81 902.473 147.15 901.75 146.967C901.1 146.802 899.918 145.943 899.79 145.257C899.757 145.406 899.723 145.556 899.689 145.707C900.09 145.238 901.862 145.918 902.324 146.112C903.032 146.409 903.696 146.801 904.358 147.185C904.868 147.481 905.297 146.673 904.789 146.379V146.378Z" fill="#7DB8FC"/>
<path d="M906.745 152.396C905.986 152.304 905.239 152.157 904.51 151.919C904.082 151.779 903.667 151.608 903.261 151.412C903.074 151.321 902.325 151.054 902.257 150.861C901.904 149.852 904.198 150.984 904.473 151.16C905.129 151.577 905.676 152.124 906.133 152.751C906.479 153.225 907.252 152.739 906.906 152.262C906.003 151.023 902.874 148.207 901.348 150.028C899.754 151.929 905.494 153.16 906.544 153.286C907.122 153.355 907.329 152.465 906.744 152.394L906.745 152.396Z" fill="#7DB8FC"/>
<path d="M907.286 156.729C906.568 156.481 905.867 156.191 905.188 155.848C904.933 155.719 904.682 155.581 904.435 155.439C904.176 155.291 903.497 155.07 903.678 154.76C904.03 154.151 906.352 156.746 906.668 157.104C907.059 157.545 907.678 156.872 907.292 156.435C906.523 155.566 905.7 154.564 904.662 154.007C904.068 153.689 902.935 153.357 902.508 154.121C901.556 155.82 906.106 157.282 907.087 157.621C907.642 157.813 907.838 156.919 907.288 156.729H907.286Z" fill="#7DB8FC"/>
<path d="M939.042 164.331C933.452 167.02 926.426 168.072 921.461 164.663C920.011 163.666 918.769 162.245 918.461 160.517C918.152 158.788 919.007 156.763 920.685 156.08C922.137 155.489 923.95 155.927 925.185 154.963C926.048 154.288 926.338 153.097 926.203 152.043C926.067 150.988 925.579 150.026 925.137 149.065C924.562 147.815 924.056 146.534 923.619 145.229C923.103 143.684 922.691 141.973 923.298 140.425C923.905 138.877 925.949 137.762 927.319 138.659C927.967 139.083 928.306 139.825 928.82 140.399C929.334 140.972 930.252 141.373 930.895 140.902C931.147 140.717 931.302 140.433 931.423 140.15C932.351 137.963 932.05 137.1 932.497 134.102C932.669 132.946 933.371 131.068 934.073 130.116C937.237 125.82 941.701 121.936 947.006 121.409C948.043 121.305 949.127 121.343 950.045 121.793C951.788 122.647 952.5 124.827 952.182 126.75C951.864 128.672 950.727 130.384 949.534 131.965C948.341 133.546 947.045 135.097 946.314 136.92C947.872 136.91 949.439 136.479 950.8 135.688C951.504 135.278 952.225 134.754 953.029 134.795C954.311 134.861 955.011 136.435 954.62 137.651C954.228 138.867 953.124 139.733 952.024 140.423C949.085 142.266 945.519 143.644 943.9 146.674C943.683 147.081 943.509 147.577 943.721 147.973C943.867 148.245 944.165 148.402 944.461 148.503C945.937 149.012 947.583 148.51 949.163 148.465C949.529 148.454 949.907 148.471 950.233 148.623C951.525 149.226 951.047 151.156 950.32 152.407C947.576 157.128 944.353 161.298 939.042 164.332L939.042 164.331Z" fill="#CCE6FF"/>
<path d="M946.469 128.303C942.538 132.126 939.232 136.564 936.654 141.405C934.102 146.2 932.268 151.38 931.232 156.713C930.65 159.711 930.332 162.758 930.273 165.811C930.267 166.115 929.795 166.093 929.801 165.788C929.905 160.321 930.859 154.878 932.588 149.691C934.324 144.48 936.835 139.521 940.035 135.057C941.858 132.515 943.904 130.137 946.146 127.956C946.364 127.743 946.686 128.09 946.469 128.303H946.469Z" fill="#7DB8FC"/>
<path d="M803.811 108.388C803.811 108.388 803.768 102.264 810.311 98.7336C816.853 95.2037 823.957 95.8439 828.717 97.6721C836.537 100.674 838.369 107.813 835.109 108.303C833.294 108.576 830.686 112.986 831.561 113.752C835.67 117.356 805.601 124.013 803.811 108.388Z" fill="#FDBAA0"/>
<path d="M844.863 132.711C843.354 133.358 840.403 134.48 837.349 135.467C836.652 135.713 833.507 136.679 830.635 137.36C830.597 137.369 830.558 137.378 830.52 137.387C825.561 138.554 820.215 139.264 816.076 138.423C816.052 138.421 813.642 137.765 810.917 136.412C810.499 136.205 810.043 136.047 809.551 135.935H809.55C805.473 135 799.066 137.261 795.163 138.783C793.466 139.446 791.762 140.163 790.109 140.882L787.726 116.301C789.977 115.653 772.657 112.108 775.395 111.368C783.444 109.191 798.593 105.248 805.615 102.929C805.679 102.876 812.632 100.807 814.948 99.1333C840.463 127.773 824.905 110.322 830.165 116.212L832.89 114.463L833.821 120.316C838.468 125.533 843.977 131.715 844.863 132.711H844.863Z" fill="#FDBAA0"/>
<path d="M825.724 127.21C829.581 132.473 837.217 139.004 841.67 132.568C846.123 126.132 848.294 111.314 842.162 107.602C836.029 103.889 832.217 103.831 829.348 106.638C826.478 109.445 821.709 116.029 820.501 117.159C819.294 118.289 823.37 123.998 825.724 127.21Z" fill="#E8A595"/>
<path d="M810.115 136.072C807.451 134.265 805.532 131.458 804.836 128.312C804.783 128.075 805.147 127.971 805.2 128.21C805.874 131.252 807.716 133.989 810.297 135.739C810.497 135.874 810.317 136.208 810.115 136.072H810.115Z" fill="#E79780"/>
<path d="M805.733 103.159C804.324 106.017 803.437 109.131 803.136 112.303C803.052 113.194 803.014 114.088 803.02 114.983C803.022 115.227 802.643 115.233 802.641 114.988C802.619 111.753 803.186 108.517 804.317 105.485C804.636 104.631 804.997 103.794 805.4 102.977C805.508 102.758 805.839 102.94 805.732 103.159L805.733 103.159Z" fill="#E79780"/>
<path d="M827.08 148.418C826.168 147.864 825.874 146.663 826.429 145.75L860.205 90.066C860.759 89.153 861.959 88.8592 862.871 89.4139C863.783 89.9678 864.077 91.1687 863.523 92.0817L829.746 147.766C829.193 148.679 827.993 148.973 827.08 148.418Z" fill="#384955"/>
<g opacity="0.2">
<path d="M876.717 93.2929C891.454 93.2929 903.401 81.337 903.401 66.5886C903.401 51.8402 891.454 39.8843 876.717 39.8843C861.98 39.8843 850.034 51.8402 850.034 66.5886C850.034 81.337 861.98 93.2929 876.717 93.2929Z" fill="white"/>
</g>
<path d="M887.577 92.891C886.135 93.5132 884.63 94.0184 883.074 94.3992C875.789 96.1817 868.246 95.0191 861.834 91.1242C855.424 87.2293 850.912 81.0692 849.13 73.7779C847.349 66.4866 848.511 58.9381 852.403 52.5216C860.438 39.2763 877.741 35.0425 890.975 43.0827C897.386 46.9776 901.898 53.1378 903.679 60.4291C905.46 67.7196 904.298 75.2688 900.406 81.6853C897.346 86.7309 892.885 90.601 887.577 92.891ZM853.595 53.2465L854.788 53.9706C847.552 65.8996 851.363 81.4957 863.282 88.7375C869.056 92.2456 875.85 93.2928 882.411 91.6872C888.973 90.0816 894.517 86.015 898.022 80.2364C905.259 68.3073 901.448 52.7105 889.528 45.4694C877.608 38.2276 862.023 42.0415 854.788 53.9706L853.595 53.2465Z" fill="#384955"/>
<path d="M875.449 56.4307C877.312 54.4652 880.361 54.451 882.495 55.9389C884.639 57.4336 886.015 60.7064 882.723 61.7363C881.387 62.1546 879.894 61.92 878.521 62.2018C876.937 62.5271 875.435 63.2565 874.187 64.2834C871.833 66.2204 870.353 68.9624 869.015 71.6474C867.256 75.1743 872.917 77.498 874.668 73.9869C875.473 72.3701 876.33 70.6347 877.647 69.3627C879.155 67.9077 880.905 68.1918 882.83 67.934C887.37 67.3253 891.251 63.5691 890.863 58.7926C890.502 54.3588 886.733 50.5006 882.599 49.2683C878.167 47.9475 873.751 49.365 870.619 52.67C867.908 55.5304 872.762 59.2634 875.448 56.4299L875.449 56.4307Z" fill="#127BF2"/>
<path d="M867.494 83.1899C871.131 84.6951 873.475 79.0409 869.832 77.5327C866.195 76.0275 863.851 81.6817 867.494 83.1899Z" fill="#127BF2"/>
<path d="M886.81 53.4268C887.626 54.2461 888.447 55.5384 888.546 56.7078C888.582 57.1306 889.235 57.0399 889.199 56.6179C889.084 55.2656 888.151 53.8466 887.214 52.9066C886.916 52.6068 886.515 53.13 886.81 53.4268Z" fill="#7DB8FC"/>
<path d="M888.724 58.3454C888.692 58.6678 888.659 58.9901 888.627 59.3124C888.584 59.7329 889.238 59.8169 889.28 59.3934C889.312 59.0711 889.345 58.7487 889.377 58.4264C889.42 58.0059 888.766 57.9219 888.724 58.3454Z" fill="#7DB8FC"/>
<path d="M870.253 71.5936C869.961 72.4001 869.769 73.3619 870.519 73.984C870.845 74.2554 871.249 73.7344 870.923 73.4638C870.432 73.056 870.682 72.3424 870.862 71.8447C871.005 71.4474 870.398 71.1933 870.253 71.5928V71.5936Z" fill="#7DB8FC"/>
<path d="M869.538 79.0949C870.367 79.463 870.142 80.5079 869.885 81.1735C869.733 81.5686 870.34 81.8219 870.493 81.4254C870.89 80.3962 870.982 79.0147 869.789 78.4862C869.402 78.3146 869.15 78.9233 869.537 79.0949H869.538Z" fill="#7DB8FC"/>
<path d="M869.425 51.3095C868.598 52.3785 867.814 53.5209 867.976 54.9361C868.023 55.3574 868.676 55.2682 868.628 54.8461C868.488 53.6168 869.233 52.6333 869.945 51.7136C870.205 51.3778 869.685 50.9737 869.425 51.3088V51.3095Z" fill="#127BF2"/>
<path d="M884.068 69.0846C885.28 68.9272 886.635 68.5127 887.645 67.814C887.995 67.5719 887.594 67.0487 887.246 67.2893C886.334 67.9205 885.07 68.29 883.978 68.4317C883.557 68.4864 883.646 69.1393 884.068 69.0846Z" fill="#127BF2"/>
<path d="M871.816 78.1015C872.133 78.4081 872.335 78.8136 872.406 79.2469C872.475 79.6644 873.127 79.5767 873.058 79.1569C872.957 78.543 872.666 78.0115 872.22 77.5813C871.915 77.2867 871.514 77.8099 871.816 78.1015Z" fill="#127BF2"/>
<path d="M872.41 80.5414C872.395 80.6793 872.38 80.8173 872.365 80.9552C872.347 81.1261 872.472 81.3083 872.651 81.3225C872.827 81.3367 872.998 81.2198 873.018 81.0362C873.033 80.8982 873.048 80.7603 873.063 80.6224C873.082 80.4515 872.956 80.2693 872.777 80.2551C872.601 80.2408 872.43 80.3578 872.41 80.5414Z" fill="#127BF2"/>
<path d="M855.66 77.381C858.201 81.0203 861.517 84.0794 865.351 86.3132C866.076 86.7352 866.866 85.6798 866.132 85.2525C862.384 83.069 859.172 80.1148 856.688 76.5572C856.204 75.8624 855.177 76.6884 855.66 77.3818V77.381Z" fill="#7DB8FC"/>
<path d="M867.88 87.325C868.913 87.8647 870.073 88.0551 871.227 87.9142C872.07 87.8115 871.887 86.5065 871.046 86.6092C870.102 86.7246 869.207 86.5402 868.366 86.1009C867.615 85.7081 867.135 86.936 867.88 87.325Z" fill="#7DB8FC"/>
<path d="M815.405 96.7916C820.516 95.1634 833.221 93.243 838.13 94.1253C847.308 95.7751 855.517 92.827 856.537 93.9079C857.557 94.9888 856.604 99.754 849.626 102.399C842.744 105.007 836.274 103.281 834.916 104.052C833.559 104.823 827.603 108.497 827.603 108.497C827.603 108.497 811.442 98.0539 815.405 96.7916Z" fill="#FDBAA0"/>
<path d="M827.776 108.351C826.45 109.366 825.263 110.556 824.268 111.9C823.23 113.301 822.439 114.831 821.111 115.997C819.888 117.069 818.469 117.959 817.043 118.736C815.735 119.448 814.357 120.058 812.92 120.458C811.316 120.905 809.655 121.08 807.998 120.888C807.661 120.849 807.607 121.372 807.944 121.411C810.923 121.756 813.868 120.931 816.517 119.603C817.906 118.907 819.25 118.083 820.5 117.159C821.949 116.087 822.963 114.795 823.943 113.299C825.084 111.556 826.451 110.028 828.107 108.759C828.376 108.554 828.044 108.145 827.776 108.351V108.351Z" fill="#E79780"/>
<path d="M833.893 111.514C834.584 111.017 834.2 110.278 835.934 110.413C841.937 110.119 847.896 111.446 853.712 112.965C856.13 113.597 858.672 114.341 860.375 116.173C862.078 118.005 862.474 121.285 860.529 122.859C859.094 124.02 857.034 123.852 855.206 123.603C848.397 122.676 843.372 120.853 836.947 118.416C835.287 117.786 833.803 116.695 833.117 115.056C832.431 113.419 832.452 112.55 833.893 111.515V111.514Z" fill="#FDBAA0"/>
<path d="M852.83 120.791C855.38 120.298 857.984 122.221 859.753 124.124C861.522 126.027 861.933 129.435 859.913 131.069C858.423 132.276 856.282 132.102 854.382 131.843C847.309 130.88 843.591 128.056 836.915 125.524C835.19 124.87 832.582 123.505 832.513 122.143C832.321 118.385 837.469 118.613 845.121 121.267C847.773 122.187 851.085 121.128 852.83 120.79V120.791Z" fill="#FDBAA0"/>
<path d="M834.531 124.779C835.136 124.552 840.737 125.28 844.958 127.735C846.713 128.756 848.545 129.891 849.571 131.671C850.596 133.45 850.4 136.048 848.673 136.82C847.398 137.39 845.847 136.804 844.485 136.206C839.414 133.984 839.877 134.322 835.329 131.03C834.154 130.179 832.576 128.561 832.3 127.155C832.024 125.75 833.272 125.252 834.532 124.78L834.531 124.779Z" fill="#FDBAA0"/>
<path d="M835.709 103.602C841.033 103.341 844.923 103.528 850.081 104.876C852.226 105.437 854.48 106.096 855.991 107.721C857.501 109.345 857.851 112.254 856.128 113.65C854.855 114.68 853.028 114.531 851.407 114.31C845.368 113.488 839.536 113.678 834.141 110.842C828.13 107.681 834.171 103.482 835.71 103.602H835.709Z" fill="#FDBAA0"/>
<path d="M855.547 113.352C851.529 112.328 847.465 111.487 843.368 110.841C841.464 110.541 839.512 110.162 837.581 110.118C835.953 110.08 834.278 110.537 833.226 111.854C833.022 112.11 833.403 112.446 833.608 112.19C834.76 110.748 836.629 110.516 838.357 110.67C840.266 110.839 842.173 111.158 844.063 111.469C847.892 112.097 851.694 112.894 855.454 113.852C855.771 113.933 855.864 113.433 855.547 113.352Z" fill="#E79780"/>
<path d="M848.524 104.259C844.801 103.768 841.003 103.36 837.244 103.343C835.723 103.337 834.166 103.594 832.954 104.579C831.885 105.45 831.154 106.78 831.454 108.184C831.784 109.724 833.142 110.574 834.436 111.267C834.714 111.416 834.927 110.976 834.65 110.827C833.193 110.047 831.528 108.907 831.924 106.995C832.313 105.111 834.273 104.083 836.028 103.89C838.001 103.672 840.073 103.93 842.043 104.078C844.18 104.238 846.311 104.461 848.435 104.741C848.745 104.783 848.838 104.301 848.524 104.26V104.259Z" fill="#E79780"/>
<path d="M858.976 123.29C857.607 122.191 855.778 122.221 854.114 122.075C852.599 121.941 851.086 121.768 849.583 121.533C846.687 121.079 843.83 120.402 840.962 119.801C840.649 119.735 840.557 120.224 840.871 120.29C843.644 120.871 846.407 121.524 849.206 121.977C850.621 122.205 852.045 122.379 853.473 122.514C855.171 122.674 857.245 122.538 858.648 123.664C858.898 123.864 859.227 123.491 858.977 123.291L858.976 123.29Z" fill="#E79780"/>
<path d="M849.753 131.695C849.101 130.63 847.606 130.025 846.538 129.436C845.224 128.71 843.893 128.013 842.545 127.349C841.149 126.661 839.734 126.002 838.283 125.437C837.263 125.041 836.162 124.606 835.059 124.537C833.724 124.453 831.809 125.652 832.077 127.172C832.127 127.454 832.574 127.423 832.524 127.138C832.279 125.748 834.141 124.849 835.305 125.012C836.371 125.161 837.409 125.568 838.403 125.966C840.988 127.002 843.484 128.279 845.926 129.612C846.461 129.904 846.994 130.201 847.522 130.505C848.2 130.896 848.961 131.259 849.381 131.946C849.532 132.192 849.904 131.942 849.753 131.697V131.695Z" fill="#E79780"/>
<path d="M844.763 136.195C842.86 135.402 841.032 134.402 839.267 133.342C837.342 132.184 835.382 130.918 833.809 129.297C833.251 128.723 832.582 127.979 832.523 127.138C832.503 126.85 832.056 126.883 832.076 127.172C832.126 127.888 832.555 128.529 833.001 129.066C833.663 129.864 834.458 130.546 835.274 131.181C837.224 132.698 839.363 133.984 841.542 135.141C842.53 135.665 843.535 136.167 844.567 136.597C844.833 136.707 845.03 136.305 844.764 136.194L844.763 136.195Z" fill="#E79780"/>
<path d="M842.128 120.069C839.941 119.645 837.727 118.698 835.847 117.502C834.232 116.476 831.872 114.128 833.606 112.19C833.825 111.945 833.443 111.61 833.224 111.853C831.502 113.779 833.214 116.196 834.883 117.45C835.858 118.184 836.961 118.733 838.068 119.236C839.343 119.815 840.657 120.301 842.035 120.569C842.355 120.631 842.45 120.131 842.128 120.068V120.069Z" fill="#E79780"/>
<path d="M833.955 105.462C834.863 104.958 835.965 104.941 836.906 105.058C837.415 105.121 837.943 105.231 838.405 105.483C838.861 105.732 838.955 106.12 838.983 106.725C839.023 107.584 838.803 109.771 837.9 109.974C837.637 110.033 837.338 109.995 837.079 109.976C836.12 109.904 835.129 109.711 834.284 109.18C833.157 108.472 832.525 106.531 833.954 105.462H833.955Z" fill="#FFD1C3"/>
<path d="M835.112 111.984C836.087 111.656 837.158 111.841 838.047 112.129C838.528 112.285 839.018 112.489 839.417 112.821C839.811 113.15 839.829 113.547 839.741 114.147C839.616 114.997 838.986 117.102 838.073 117.136C837.807 117.146 837.525 117.053 837.277 116.987C836.362 116.741 835.439 116.369 834.723 115.693C833.766 114.791 833.525 112.77 835.112 111.984Z" fill="#FFD1C3"/>
<path d="M834.56 119.99C835.463 119.728 836.467 119.916 837.305 120.191C837.758 120.339 838.221 120.529 838.602 120.83C838.978 121.127 839.005 121.474 838.937 121.996C838.841 122.735 838.305 124.558 837.454 124.565C837.205 124.567 836.94 124.48 836.707 124.415C835.846 124.178 834.975 123.83 834.289 123.221C833.373 122.409 833.097 120.638 834.56 119.991L834.56 119.99Z" fill="#FFD1C3"/>
<path d="M834.574 125.55C835.352 125.387 836.136 125.636 836.769 125.949C837.111 126.117 837.455 126.326 837.712 126.625C837.967 126.92 837.929 127.233 837.784 127.695C837.58 128.35 836.831 129.939 836.139 129.877C835.937 129.859 835.737 129.759 835.558 129.682C834.9 129.401 834.252 129.02 833.799 128.42C833.194 127.62 833.275 126.012 834.574 125.55Z" fill="#FFD1C3"/>
<path d="M856.536 93.9076C856.536 93.9076 855.913 95.4727 854.132 95.4772C852.351 95.4817 851.132 95.4278 851.132 95.4278L850.32 94.2381C850.32 94.2381 854.393 92.9946 856.536 93.9076Z" fill="#FFD1C3"/>
<path d="M739.812 108.17L745.71 159.329C746.297 159.174 753.388 156.742 762.445 153.528C778.409 147.863 800.459 139.767 803.67 137.401C803.99 137.03 804.144 136.618 804.196 136.197L804.194 136.177C804.551 132.985 798.442 128.214 797.231 124.699C794.556 117.038 797.006 111.558 797.033 107.952C797.039 107.661 797.249 106.043 797.218 105.778C796.954 103.657 791.569 106.164 785.877 106.58C784.157 106.69 754.16 107.696 739.812 108.17V108.17Z" fill="#49B2A4"/>
<path d="M802.025 132.489C801.88 134.218 800.592 135.434 799.091 136.047C796.979 136.909 794.689 136.381 792.489 136.441C789.789 136.514 787.443 137.894 784.98 138.868C782.608 139.807 780.093 140.215 777.557 140.078C777.132 140.055 777.15 139.374 777.578 139.397C779.969 139.526 782.342 139.163 784.587 138.299C786.782 137.456 788.874 136.215 791.223 135.869C793.394 135.55 795.607 136.155 797.763 135.739C799.39 135.425 801.206 134.331 801.362 132.469C801.399 132.034 802.061 132.051 802.024 132.489H802.025Z" fill="#63D5C2"/>
<path d="M782.066 136.949C781.714 136.966 781.361 136.984 781.008 137.001C780.583 137.022 780.604 136.342 781.029 136.321C781.382 136.303 781.735 136.285 782.087 136.268C782.513 136.247 782.491 136.928 782.066 136.949Z" fill="#63D5C2"/>
<path d="M779.586 134.89C779.497 134.894 779.409 134.899 779.321 134.903C779.148 134.911 778.988 134.726 779.001 134.552C779.015 134.357 779.157 134.231 779.342 134.222C779.431 134.217 779.519 134.213 779.607 134.208C779.78 134.2 779.94 134.385 779.927 134.559C779.913 134.755 779.772 134.881 779.586 134.89Z" fill="#63D5C2"/>
<path d="M791.587 113.003C790.077 111.503 787.783 112.193 786.103 112.961C784.187 113.836 782.426 114.63 780.284 114.522C778.31 114.423 776.406 113.8 774.504 113.306C772.34 112.743 770.159 112.465 767.929 112.737C765.407 113.044 762.994 113.953 760.864 115.372C760.505 115.611 760.186 115.015 760.542 114.777C764.35 112.24 768.997 111.386 773.424 112.345C775.579 112.812 777.679 113.614 779.885 113.811C781.002 113.911 782.118 113.833 783.192 113.488C784.397 113.101 785.5 112.447 786.675 111.982C788.432 111.285 790.607 111.082 792.064 112.529C792.371 112.834 791.892 113.306 791.587 113.003Z" fill="#63D5C2"/>
<path d="M790.126 120.563C789.505 120.997 788.846 121.332 788.141 121.594C787.74 121.743 787.587 121.08 787.985 120.932C788.632 120.693 789.236 120.365 789.804 119.968C790.158 119.721 790.476 120.318 790.126 120.563Z" fill="#63D5C2"/>
<path d="M787.632 120.237C787.257 120.355 786.881 120.475 786.506 120.593C786.098 120.722 785.943 120.06 786.35 119.931C786.725 119.813 787.101 119.694 787.477 119.575C787.885 119.446 788.039 120.108 787.632 120.237Z" fill="#63D5C2"/>
<path d="M793.602 138.358C793.274 138.324 792.947 138.289 792.62 138.255C792.199 138.21 792.216 137.529 792.641 137.574C792.969 137.608 793.296 137.643 793.623 137.677C794.044 137.722 794.028 138.403 793.602 138.358H793.602Z" fill="#63D5C2"/>
<path d="M760.573 142.161C760.861 141.955 761.174 141.807 761.509 141.7C761.916 141.569 762.07 142.231 761.664 142.362C761.387 142.451 761.133 142.586 760.894 142.757C760.747 142.862 760.524 142.775 760.444 142.625C760.351 142.451 760.425 142.266 760.573 142.161V142.161Z" fill="#63D5C2"/>
<path d="M773.414 144.205C773.012 144.412 772.612 144.618 772.21 144.825C771.829 145.022 771.507 144.427 771.889 144.23C772.29 144.023 772.691 143.817 773.093 143.61C773.474 143.414 773.796 144.008 773.414 144.205Z" fill="#63D5C2"/>
<path d="M770.602 132.654C770.22 132.673 769.837 132.692 769.455 132.711C769.029 132.732 769.051 132.051 769.476 132.03C769.858 132.011 770.241 131.992 770.623 131.973C771.048 131.952 771.026 132.633 770.602 132.654Z" fill="#63D5C2"/>
<path d="M771.719 131.75C771.539 131.686 771.365 131.671 771.179 131.714C770.763 131.812 770.607 131.15 771.023 131.052C771.318 130.983 771.623 130.995 771.909 131.097C772.078 131.157 772.184 131.339 772.132 131.52C772.082 131.691 771.889 131.81 771.719 131.75Z" fill="#63D5C2"/>
<path d="M770.36 121.384C769.89 121.466 769.461 121.628 769.052 121.877C768.684 122.101 768.364 121.506 768.73 121.282C769.186 121.003 769.681 120.814 770.204 120.722C770.622 120.649 770.781 121.309 770.36 121.384Z" fill="#63D5C2"/>
<path d="M771.245 119.441C771.157 119.445 771.069 119.45 770.981 119.454C770.808 119.462 770.648 119.277 770.66 119.103C770.675 118.907 770.816 118.781 771.002 118.772C771.09 118.768 771.179 118.763 771.266 118.76C771.439 118.751 771.6 118.936 771.587 119.11C771.573 119.306 771.431 119.432 771.245 119.441Z" fill="#63D5C2"/>
<path d="M757.903 125.547C757.448 125.725 757.02 125.963 756.616 126.241C756.261 126.485 755.942 125.889 756.294 125.646C756.751 125.332 757.234 125.086 757.747 124.885C758.145 124.729 758.297 125.392 757.903 125.547Z" fill="#63D5C2"/>
<path d="M758.167 123.52C758.021 123.583 757.874 123.646 757.728 123.709C757.569 123.777 757.363 123.755 757.278 123.577C757.205 123.427 757.236 123.187 757.407 123.114C757.553 123.051 757.7 122.988 757.846 122.925C758.005 122.857 758.21 122.879 758.296 123.057C758.368 123.207 758.338 123.446 758.167 123.52Z" fill="#63D5C2"/>
<path d="M794.543 128.16C794.154 128.206 793.78 128.193 793.396 128.112C793.22 128.076 793.125 127.854 793.174 127.689C793.229 127.5 793.411 127.423 793.587 127.46C793.847 127.514 794.123 127.529 794.388 127.498C794.565 127.477 794.742 127.553 794.788 127.748C794.826 127.91 794.723 128.139 794.544 128.16H794.543Z" fill="#63D5C2"/>
<path d="M792.624 126.806C792.595 126.807 792.565 126.809 792.536 126.81C792.363 126.818 792.203 126.633 792.215 126.459C792.23 126.264 792.371 126.139 792.557 126.129C792.586 126.127 792.616 126.126 792.645 126.124C792.819 126.116 792.979 126.301 792.966 126.475C792.952 126.671 792.81 126.797 792.624 126.806Z" fill="#63D5C2"/>
<path d="M785.091 142.36C784.75 142.474 784.393 142.52 784.036 142.504C783.611 142.484 783.629 141.802 784.057 141.823C784.361 141.838 784.646 141.796 784.935 141.699C785.341 141.563 785.495 142.226 785.091 142.361V142.36Z" fill="#63D5C2"/>
<path d="M785.641 140.716C785.525 140.752 785.408 140.787 785.292 140.823C785.125 140.873 784.925 140.747 784.892 140.573C784.856 140.384 784.958 140.215 785.136 140.161C785.252 140.126 785.369 140.091 785.485 140.055C785.651 140.004 785.851 140.13 785.885 140.305C785.921 140.493 785.819 140.663 785.641 140.716Z" fill="#63D5C2"/>
<path d="M780.638 111.97C780.519 111.944 780.4 111.917 780.282 111.891C780.112 111.854 780.004 111.632 780.06 111.468C780.123 111.282 780.291 111.198 780.473 111.238C780.591 111.264 780.71 111.291 780.829 111.317C780.999 111.354 781.106 111.576 781.05 111.74C780.987 111.926 780.82 112.01 780.638 111.97Z" fill="#63D5C2"/>
<path d="M781.573 111.202C781.514 111.205 781.456 111.208 781.397 111.211C781.223 111.219 781.063 111.034 781.076 110.86C781.09 110.664 781.232 110.538 781.418 110.529C781.477 110.526 781.535 110.523 781.594 110.52C781.767 110.512 781.928 110.697 781.915 110.871C781.901 111.067 781.759 111.193 781.573 111.202Z" fill="#63D5C2"/>
<path d="M755.912 115.262C753.372 115.699 750.79 115.444 748.388 114.49C747.993 114.334 748.18 113.679 748.578 113.837C750.871 114.747 753.328 115.017 755.755 114.6C756.173 114.528 756.333 115.189 755.911 115.262H755.912Z" fill="#63D5C2"/>
<path d="M740.502 114.124L745.714 159.338C746.298 159.175 753.395 156.743 762.454 153.528C762.454 153.528 758.589 149.452 753.586 149.742C752.439 149.808 751.67 148.841 751.118 147.271C751.043 147.062 750.973 146.841 750.908 146.611C750.02 143.542 749.762 138.748 749.238 134.693C749.208 134.455 749.178 134.22 749.144 133.988C748.724 130.997 748.122 128.512 746.959 127.587C743.183 124.589 743.283 114.772 740.503 114.125L740.502 114.124Z" fill="#40A696"/>
<path d="M793.041 120.448C792.985 123.437 790.343 125.506 787.669 125.971C784.005 126.609 780.487 124.983 776.855 124.889C772.855 124.786 769.23 127.098 765.764 128.873C764.043 129.755 762.321 130.637 760.6 131.518C758.904 132.387 757.204 133.264 755.411 133.905C752.098 135.089 748.169 135.326 745.229 133.062C744.89 132.802 745.233 132.218 745.574 132.48C748.161 134.472 751.558 134.413 754.534 133.485C756.29 132.937 757.949 132.114 759.589 131.277C761.268 130.421 762.944 129.559 764.621 128.699C767.736 127.103 770.922 125.092 774.38 124.416C777.801 123.747 781.063 125.02 784.435 125.36C786.31 125.549 788.308 125.446 789.954 124.402C791.317 123.539 792.347 122.112 792.379 120.427C792.387 119.99 793.049 120.008 793.041 120.448Z" fill="#63D5C2"/>
<path d="M761.128 144.12C759.076 145.331 756.902 146.088 754.548 146.392C752.266 146.692 749.957 146.623 747.661 146.549L747.822 147.234C752.206 147.373 756.602 147.311 760.59 145.207C762.538 144.174 764.387 142.789 766.335 141.635C768.398 140.407 770.57 139.453 773.036 139.5C773.462 139.498 773.477 138.815 773.051 138.816C770.229 138.754 767.778 139.959 765.444 141.406C763.99 142.285 762.576 143.274 761.129 144.121L761.128 144.12Z" fill="#63D5C2"/>
<path d="M834.265 52.7641C834.578 51.7282 835.561 51.0828 836.637 51.1577C837.469 51.2162 838.824 51.8436 838.361 52.8653C838.094 53.456 837.481 53.6636 836.965 53.9867C836.359 54.3667 835.843 54.8547 835.479 55.4761C834.765 56.6957 834.684 58.1709 834.677 59.5494C834.669 61.2098 837.246 61.2113 837.254 59.5494C837.258 58.7743 837.253 57.9685 837.505 57.2257C837.768 56.4521 838.299 56.2167 838.964 55.8142C840.627 54.8082 841.635 52.7004 840.644 50.8646C839.71 49.1361 837.538 48.3617 835.672 48.6451C833.813 48.9269 832.32 50.2904 831.78 52.0782C831.299 53.6704 833.786 54.351 834.265 52.7641Z" fill="#FF8D67"/>
<path d="M836.166 64.2825C837.825 64.2825 837.828 61.7031 836.166 61.7031C834.505 61.7031 834.505 64.2825 836.166 64.2825Z" fill="#FF8D67"/>
<path d="M921.508 55.3951C922.471 54.303 924.02 53.9559 925.327 54.6508C926.518 55.2834 927.768 57.009 926.453 58.1506C925.873 58.6544 925.174 58.6814 924.448 58.7541C923.713 58.8275 923.011 59.0007 922.392 59.4227C921.174 60.2533 920.463 61.5875 919.857 62.8918C919.403 63.8671 920.852 64.7223 921.308 63.7411C921.672 62.9585 922.052 62.1385 922.614 61.4743C923.248 60.724 923.936 60.4864 924.891 60.4002C926.721 60.236 928.634 59.1798 928.706 57.1155C928.776 55.144 927.125 53.4394 925.355 52.8435C923.581 52.2461 921.554 52.806 920.32 54.2055C919.607 55.0143 920.791 56.2084 921.509 55.3951H921.508Z" fill="#384955"/>
<path d="M919.196 67.7075C920.278 67.7075 920.28 66.0254 919.196 66.0254C918.113 66.0254 918.113 67.7075 919.196 67.7075Z" fill="#384955"/>
<path d="M917.835 86.0976C919.164 84.5017 921.496 84.3406 923.203 85.3743C924.917 86.4125 926.131 88.8486 923.662 89.7991C922.66 90.1852 921.507 90.0787 920.47 90.3621C919.274 90.6889 918.161 91.3208 917.256 92.1686C915.55 93.7667 914.553 95.9383 913.661 98.0582C912.489 100.844 916.935 102.343 918.102 99.5701C918.639 98.2928 919.208 96.9233 920.154 95.8851C921.236 94.697 922.589 94.8289 924.05 94.5366C927.494 93.8469 930.279 90.7811 929.747 87.1456C929.252 83.7701 926.179 81.0041 922.955 80.265C919.499 79.4727 916.19 80.7748 913.955 83.4583C912.021 85.7806 915.92 88.3981 917.836 86.0976H917.835Z" fill="#49B2A4"/>
<path d="M913.066 106.966C915.923 107.939 917.439 103.496 914.577 102.522C911.719 101.549 910.204 105.992 913.066 106.966Z" fill="#49B2A4"/>
<path d="M804.196 69.0324C803.811 67.3151 804.907 65.6638 806.483 65.0498C808.065 64.4329 810.328 64.8752 809.691 67.0258C809.432 67.8983 808.765 68.6194 808.42 69.4635C808.021 70.4364 807.871 71.5114 807.972 72.5578C808.164 74.5307 809.107 76.3223 810.07 78.0171C811.334 80.2434 814.637 78.0291 813.378 75.8125C812.798 74.7916 812.173 73.7017 811.965 72.5293C811.727 71.1883 812.513 70.3465 813.072 69.2131C814.388 66.5415 813.768 63.0852 811.052 61.5657C808.531 60.155 805.087 60.7929 802.926 62.5784C800.609 64.4929 799.774 67.3901 800.421 70.279C800.981 72.7789 804.752 71.5099 804.197 69.0332L804.196 69.0324Z" fill="#51C6D4"/>
<path d="M815.741 83.0187C817.869 81.5997 815.669 78.2865 813.538 79.7078C811.409 81.1267 813.609 84.44 815.741 83.0187Z" fill="#51C6D4"/>
</svg>
