<svg width="1032" height="180" viewBox="0 0 1032 180" fill="none" xmlns="http://www.w3.org/2000/svg">
<rect width="1032" height="180" rx="16" fill="#00ACF5"/>
<path d="M61.824 63.24V65.76H69C68.568 70.584 66.288 74.016 60.768 76.8L62.448 79.248C70.08 75.432 72.216 69.912 72.216 63.24H61.824ZM76.344 60.96V69.432H72.072V72H76.344V83.064H79.512V60.96H76.344ZM86.7821 71.664H92.0381V63.096H83.6861V65.64H88.9901V69.168H83.7101V78.168H85.2701C87.9341 78.168 90.3341 78.096 93.1661 77.64L92.9261 75.072C90.7181 75.408 88.7981 75.528 86.7821 75.576V71.664ZM99.0701 60.936V69.288H97.0781V61.344H94.1261V82.008H97.0781V71.832H99.0701V83.04H102.07V60.936H99.0701ZM106.196 63.216V65.784H113.42C112.844 70.68 110.108 74.184 104.972 76.824L106.748 79.248C114.092 75.528 116.612 69.84 116.612 63.216H106.196ZM125.588 69.384H122.492V60.936H119.324V83.016H122.492V72H125.588V69.384ZM138.752 75.408C137.144 75.408 136.064 73.656 136.064 70.368C136.064 67.104 137.144 65.352 138.752 65.352C140.384 65.352 141.464 67.104 141.464 70.368C141.464 73.656 140.384 75.408 138.752 75.408ZM148.088 60.936V68.904H144.392C143.96 64.92 141.728 62.496 138.752 62.496C135.464 62.496 133.04 65.52 133.04 70.368C133.04 75.24 135.464 78.288 138.752 78.288C141.824 78.288 144.08 75.696 144.416 71.472H148.088V83.112H151.256V60.936H148.088ZM166.086 69.888C163.878 70.248 161.958 70.32 158.766 70.344V68.448H165.27V61.776H155.598V64.296H162.15V66.096H155.622V72.888H157.326C161.55 72.888 163.806 72.84 166.374 72.408L166.086 69.888ZM170.142 80.28H161.646V78.504H170.142V80.28ZM170.142 76.08H161.646V74.16H158.502V82.8H173.262V74.16H170.142V76.08ZM170.094 60.96V63.384H166.566V65.928H170.094V67.8H166.566V70.296H170.094V73.296H173.262V60.96H170.094ZM194.068 75.552C194.956 70.848 194.956 67.728 194.956 64.968V62.856H178.9V65.376H191.788C191.788 67.944 191.74 71.016 190.9 75.192L194.068 75.552ZM187.108 77.856V70.248H183.94V77.856H176.884V80.4H196.876V77.856H187.108ZM212.44 69.96H208.12V65.04H212.44V69.96ZM215.56 62.544H205.024V72.456H215.56V62.544ZM214.552 80.616C211.744 80.616 210.208 80.016 210.208 78.72C210.208 77.448 211.744 76.824 214.552 76.824C217.36 76.824 218.872 77.448 218.872 78.72C218.872 80.016 217.36 80.616 214.552 80.616ZM214.552 74.352C209.968 74.352 207.064 75.984 207.064 78.72C207.064 81.48 209.968 83.112 214.552 83.112C219.112 83.112 222.016 81.48 222.016 78.72C222.016 75.984 219.112 74.352 214.552 74.352ZM221.776 65.904V60.96H218.608V73.776H221.776V68.52H224.704V65.904H221.776ZM241.766 72.192H244.934V60.96H241.766V64.2H237.734V66.72H241.766V72.192ZM239.654 69.504C236.198 68.448 234.686 65.88 234.686 63.264V61.68H231.494V63.264C231.494 66.072 229.958 68.784 226.286 69.888L227.918 72.36C230.438 71.568 232.166 69.936 233.15 67.872C234.086 69.72 235.718 71.184 238.046 71.928L239.654 69.504ZM233.51 80.352V79.056H244.934V73.128H230.366V75.552H241.814V76.776H230.39V82.824H245.558V80.352H233.51ZM260.148 72.336C260.244 71.736 260.292 71.064 260.292 70.368C260.292 69.528 260.22 68.736 260.076 68.016H263.916V72.336H260.148ZM254.58 75.408C252.972 75.408 251.868 73.656 251.868 70.368C251.868 67.104 252.972 65.352 254.58 65.352C256.212 65.352 257.316 67.104 257.316 70.368C257.316 73.656 256.212 75.408 254.58 75.408ZM263.916 60.936V65.472H259.212C258.228 63.576 256.572 62.496 254.58 62.496C251.292 62.496 248.868 65.52 248.868 70.368C248.868 75.24 251.292 78.288 254.58 78.288C256.716 78.312 258.42 77.064 259.404 74.904H263.916V83.112H267.084V60.936H263.916ZM284.592 65.688H289.152V63.072H276.768V65.688H281.376V66.912C281.376 70.68 279.576 74.736 275.88 76.392L277.68 78.912C280.272 77.736 282.048 75.312 283.032 72.432C284.016 75.096 285.768 77.256 288.336 78.36L290.064 75.864C286.368 74.328 284.592 70.512 284.592 66.912V65.688ZM291.192 60.96V83.064H294.36V60.96H291.192ZM306.694 62.664H303.526V65.88C303.526 70.176 301.702 74.448 297.838 76.104L299.734 78.72C302.374 77.472 304.174 75.096 305.158 72.144C306.142 74.856 307.846 77.04 310.39 78.192L312.19 75.624C308.446 74.016 306.694 69.984 306.694 65.88V62.664ZM313.27 60.936V83.112H316.438V60.936H313.27ZM324.044 63.048H320.876V77.64H322.796C326.012 77.64 329.564 77.448 333.236 76.68L332.924 74.088C329.828 74.688 326.828 74.928 324.044 75V63.048ZM340.604 69.288H337.508V60.936H334.34V83.016H337.508V71.904H340.604V69.288ZM349.842 73.704C350.61 73.848 351.402 73.92 352.266 73.92C353.13 73.92 353.946 73.848 354.714 73.704V77.928H349.842V73.704ZM352.266 64.536C355.338 64.536 357.402 65.784 357.402 67.992C357.402 70.176 355.338 71.448 352.266 71.448C349.194 71.448 347.154 70.176 347.154 67.992C347.154 65.784 349.194 64.536 352.266 64.536ZM357.858 77.928V72.528C359.514 71.496 360.522 69.912 360.522 67.992C360.522 64.368 357.042 62.04 352.266 62.04C347.514 62.04 344.034 64.368 344.034 67.992C344.01 69.912 345.018 71.496 346.698 72.528V77.928H342.282V80.496H362.298V77.928H357.858ZM367.576 74.952H370.648C370.288 71.568 374.464 70.416 374.464 67.008C374.464 63.936 372.352 62.448 369.472 62.448C367.384 62.448 365.68 63.432 364.432 64.848L366.376 66.624C367.144 65.832 367.984 65.28 369.04 65.28C370.288 65.28 371.08 66.048 371.08 67.248C371.08 69.552 367 71.088 367.576 74.952ZM369.112 81.336C370.384 81.336 371.32 80.328 371.32 79.032C371.32 77.736 370.384 76.728 369.112 76.728C367.864 76.728 366.928 77.736 366.928 79.032C366.928 80.328 367.864 81.336 369.112 81.336ZM75.408 105.616C75.408 108.616 75.408 111.76 74.616 115.984L77.76 116.272C78.576 111.736 78.576 108.712 78.576 105.616V103H63.096V105.52H75.408V105.616ZM61.032 117.592V120.184H81.024V117.592H61.032ZM98.4221 112.888H101.59V100.96H98.4221V104.752H94.9901V107.248H98.4221V112.888ZM95.3741 108.88C92.7341 109.336 90.4781 109.432 87.0941 109.456V107.92H93.8861V101.848H83.9261V104.248H90.7661V105.688H83.9501V111.856H85.7501C89.9741 111.856 92.6381 111.784 95.6381 111.28L95.3741 108.88ZM94.1741 120.928C91.8941 120.928 90.9101 120.664 90.9101 120.016C90.9101 119.344 91.8941 119.08 94.1741 119.08C96.4301 119.08 97.4141 119.344 97.4141 120.016C97.4141 120.664 96.4301 120.928 94.1741 120.928ZM94.1741 116.92C90.1181 116.92 87.8621 117.976 87.8621 120.016C87.8621 122.032 90.1181 123.088 94.1741 123.088C98.2061 123.088 100.486 122.032 100.486 120.016C100.486 117.976 98.2061 116.92 94.1741 116.92ZM95.7341 113.944V112.312H92.5661V113.944H86.3741V116.296H101.926V113.944H95.7341ZM109.196 105.568H116.348V103H106.028V117.808H107.924C111.764 117.808 114.788 117.688 118.124 117.088L117.812 114.472C114.956 114.952 112.34 115.12 109.196 115.168V105.568ZM125.708 109.12H122.492V100.96H119.324V123.112H122.492V111.736H125.708V109.12ZM135.498 111.04H131.298V105.208H135.498V111.04ZM142.578 106.96V109.192H138.594V106.96H142.578ZM138.594 111.712H142.578V117.064H145.746V100.96H142.578V104.44H138.594V102.736H128.178V113.536H138.594V111.712ZM134.322 120.16V115.552H131.154V122.68H146.226V120.16H134.322ZM156.702 110.128C160.878 109.768 163.59 108.208 164.766 106.12C165.942 108.208 168.654 109.768 172.806 110.128L173.91 107.68C169.782 107.32 167.622 105.88 167.07 104.392H172.95V101.872H156.606V104.392H162.462C161.91 105.88 159.75 107.32 155.646 107.68L156.702 110.128ZM169.182 119.08C169.182 120.184 167.67 120.664 164.718 120.664C161.766 120.664 160.254 120.184 160.254 119.08C160.254 117.952 161.766 117.472 164.718 117.472C167.67 117.472 169.182 117.952 169.182 119.08ZM174.75 113.512V110.992H154.782V113.512H163.182V115.12C159.342 115.432 157.062 116.8 157.062 119.08C157.062 121.624 159.942 123.088 164.718 123.088C169.494 123.088 172.398 121.624 172.398 119.08C172.398 116.824 170.142 115.456 166.35 115.144V113.512H174.75ZM177.7 103.696V106.216H183.292C182.884 110.56 181.012 113.752 176.572 116.344L178.42 118.552C184.588 114.952 186.412 109.888 186.412 103.696H177.7ZM192.772 100.96V109.288H190.804V101.536H187.852V122.128H190.804V111.832H192.772V123.064H195.796V100.96H192.772ZM222.712 100.984H219.544V113.512H222.712V100.984ZM213.112 109.168H208.6V104.776H213.112V109.168ZM216.208 102.28H205.48V111.64H216.208V102.28ZM223.072 117.04V114.688H216.904V112.888H213.688V114.688H207.496V117.04H213.616C213.304 118.576 211.072 120.256 206.656 120.64L207.64 122.992C211.36 122.68 213.952 121.384 215.296 119.68C216.64 121.36 219.208 122.68 222.88 122.992L223.888 120.64C219.52 120.28 217.312 118.504 216.976 117.04H223.072ZM235.467 105.712H238.299V115.072H235.467V105.712ZM232.515 117.544H241.227V103.216H232.515V117.544ZM247.851 100.936V109.384H246.003V101.296H243.051V122.056H246.003V111.928H247.851V123.04H250.851V100.936H247.851ZM268.298 106.12H259.538V104.032H268.298V106.12ZM271.394 101.608H256.442V108.544H271.394V101.608ZM273.938 112.216V109.72H253.97V112.216H262.346V113.608H256.25V115.936H268.394V117.088H256.274V122.896H272.09V120.52H259.418V119.272H271.514V113.608H265.514V112.216H273.938ZM282.781 102.232V104.752H289.501C288.997 107.68 286.333 110.08 281.581 111.376L282.829 113.824C289.261 112.048 292.861 108.064 292.861 102.232H282.781ZM288.541 116.704H296.845V120.328H288.541V116.704ZM285.421 122.8H299.965V114.208H285.421V122.8ZM296.797 100.984V106.192H292.981V108.76H296.797V113.296H299.965V100.984H296.797ZM305.483 110.32C309.659 109.936 312.371 108.4 313.547 106.288C314.699 108.4 317.435 109.936 321.587 110.32L322.691 107.848C318.491 107.488 316.331 106.024 315.827 104.512H321.731V101.992H305.387V104.512H311.267C310.763 106.024 308.603 107.488 304.427 107.848L305.483 110.32ZM313.499 120.64C310.547 120.64 309.035 120.112 309.035 118.96C309.035 117.808 310.547 117.304 313.499 117.304C316.451 117.304 317.963 117.808 317.963 118.96C317.963 120.112 316.451 120.64 313.499 120.64ZM313.499 114.856C308.723 114.856 305.843 116.368 305.843 118.96C305.843 121.576 308.723 123.088 313.499 123.088C318.275 123.088 321.179 121.576 321.179 118.96C321.179 116.368 318.275 114.856 313.499 114.856ZM303.563 111.16V113.656H323.531V111.16H303.563ZM335.625 103.6C338.841 103.6 340.353 104.056 340.353 105.04C340.353 106.072 338.841 106.504 335.625 106.504C332.433 106.504 330.921 106.072 330.921 105.04C330.921 104.056 332.433 103.6 335.625 103.6ZM335.625 108.808C340.689 108.808 343.641 107.488 343.641 105.04C343.641 102.616 340.689 101.272 335.625 101.272C330.585 101.272 327.633 102.616 327.633 105.04C327.633 107.488 330.585 108.808 335.625 108.808ZM331.089 119.272H343.185V113.584H327.921V115.912H340.065V117.088H327.945V122.896H343.761V120.52H331.089V119.272ZM325.641 109.864V112.336H345.609V109.864H325.641ZM360.717 113.704C361.485 113.848 362.277 113.92 363.141 113.92C364.005 113.92 364.821 113.848 365.589 113.704V117.928H360.717V113.704ZM363.141 104.536C366.213 104.536 368.277 105.784 368.277 107.992C368.277 110.176 366.213 111.448 363.141 111.448C360.069 111.448 358.029 110.176 358.029 107.992C358.029 105.784 360.069 104.536 363.141 104.536ZM368.733 117.928V112.528C370.389 111.496 371.397 109.912 371.397 107.992C371.397 104.368 367.917 102.04 363.141 102.04C358.389 102.04 354.909 104.368 354.909 107.992C354.885 109.912 355.893 111.496 357.573 112.528V117.928H353.157V120.496H373.173V117.928H368.733ZM387.115 106.864V109.408H390.547V114.304H393.715V100.96H390.547V106.864H387.115ZM388.507 111.184C384.979 110.248 383.395 108.016 383.347 105.736H387.715V103.24H383.347V100.888H380.179V103.24H375.859V105.736H380.179C380.131 108.208 378.595 110.704 375.091 111.712L376.579 114.16C379.147 113.416 380.875 111.856 381.859 109.84C382.867 111.592 384.595 112.96 387.067 113.608L388.507 111.184ZM386.251 120.64C383.323 120.64 381.835 120.088 381.835 118.888C381.835 117.688 383.323 117.112 386.251 117.112C389.131 117.112 390.643 117.688 390.643 118.888C390.643 120.088 389.131 120.64 386.251 120.64ZM386.251 114.688C381.547 114.688 378.667 116.224 378.667 118.888C378.667 121.528 381.547 123.064 386.251 123.064C390.931 123.064 393.811 121.528 393.811 118.888C393.811 116.224 390.931 114.688 386.251 114.688ZM402.617 115.672C401.417 115.672 400.553 114.712 400.553 113.056C400.553 111.4 401.417 110.416 402.617 110.416C403.817 110.416 404.681 111.4 404.681 113.056C404.681 114.712 403.817 115.672 402.617 115.672ZM402.617 107.776C399.785 107.776 397.769 109.96 397.769 113.056C397.769 116.128 399.785 118.312 402.617 118.312C405.449 118.312 407.465 116.128 407.465 113.056C407.465 109.96 405.449 107.776 402.617 107.776ZM404.177 101.56H401.057V104.296H397.289V106.816H407.849V104.296H404.177V101.56ZM413.273 100.936V109.96H411.593V101.368H408.641V122.128H411.593V112.504H413.273V123.04H416.273V100.936H413.273ZM424.647 108.256H434.103V111.352H424.647V108.256ZM430.959 117.928V113.872H437.223V102.328H434.103V105.76H424.647V102.328H421.503V113.872H427.791V117.928H419.391V120.496H439.407V117.928H430.959ZM448.526 102.88H445.478V106.6C445.478 110.368 444.302 114.328 441.062 116.296L442.958 118.672C444.95 117.472 446.246 115.36 447.014 112.912C447.71 115.144 448.886 117.016 450.758 118.168L452.486 115.72C449.486 113.728 448.526 110.056 448.526 106.48V102.88ZM452.942 108.424H450.182V110.992H452.942V122.08H455.894V101.32H452.942V108.424ZM457.43 100.96V123.064H460.43V100.96H457.43ZM471.108 113.704C471.876 113.848 472.668 113.92 473.532 113.92C474.396 113.92 475.212 113.848 475.98 113.704V117.928H471.108V113.704ZM473.532 104.536C476.604 104.536 478.668 105.784 478.668 107.992C478.668 110.176 476.604 111.448 473.532 111.448C470.46 111.448 468.42 110.176 468.42 107.992C468.42 105.784 470.46 104.536 473.532 104.536ZM479.124 117.928V112.528C480.78 111.496 481.788 109.912 481.788 107.992C481.788 104.368 478.308 102.04 473.532 102.04C468.78 102.04 465.3 104.368 465.3 107.992C465.276 109.912 466.284 111.496 467.964 112.528V117.928H463.548V120.496H483.564V117.928H479.124ZM487.882 114.952H490.186L490.69 106.096L490.81 102.76H487.258L487.378 106.096L487.882 114.952ZM489.034 121.336C490.282 121.336 491.242 120.328 491.242 119.032C491.242 117.736 490.282 116.728 489.034 116.728C487.786 116.728 486.85 117.736 486.85 119.032C486.85 120.328 487.786 121.336 489.034 121.336Z" fill="white"/>
<path d="M949.804 113.992C946.091 155.423 909.691 157.83 871.895 143.806C858.32 138.771 839.08 138.442 818.512 146.788C799.702 154.424 770.18 146.043 773.065 128.899C777.451 102.842 794.778 110.08 783.143 84.2846C774.658 65.476 779.202 38.7399 805.01 44.6076C824.364 49.0083 832.641 40.3609 835.569 35.7616C837.597 32.5762 840.282 29.7932 843.527 27.6845C868.023 11.7667 881.264 42.1338 894.788 34.6856C920.253 20.6617 945.86 34.9438 932.83 57.8305C921.97 76.9078 951.929 90.2769 949.804 113.992H949.804Z" fill="#F5FAFF"/>
<path d="M892.088 158.64C899.358 162.759 908.694 164.797 915.65 160.639C917.683 159.424 919.472 157.618 920.036 155.315C920.599 153.012 919.627 150.205 917.435 149.136C915.538 148.212 913.067 148.643 911.493 147.233C910.393 146.247 910.107 144.616 910.379 143.206C910.652 141.797 911.391 140.542 912.067 139.285C912.946 137.651 913.736 135.969 914.435 134.247C915.261 132.21 915.961 129.94 915.281 127.799C914.6 125.659 911.955 123.975 910.039 125.063C909.134 125.577 908.613 126.548 907.874 127.276C907.135 128.004 905.867 128.462 905.045 127.771C904.724 127.5 904.54 127.103 904.403 126.71C903.346 123.679 904.491 120.352 903.75 117.24C903.384 115.702 902.573 114.294 901.715 112.948C897.841 106.877 892.185 101.247 885.113 100.066C883.73 99.8355 882.273 99.7908 881.001 100.316C878.589 101.314 877.445 104.19 877.706 106.81C877.966 109.43 879.344 111.839 880.808 114.076C882.272 116.312 883.879 118.518 884.701 121.04C882.61 120.889 880.545 120.169 878.788 118.983C877.878 118.369 876.956 117.598 875.873 117.583C874.147 117.559 873.071 119.619 873.492 121.293C873.912 122.966 875.318 124.233 876.735 125.26C880.519 128.004 885.186 130.177 887.095 134.405C887.352 134.972 887.542 135.657 887.222 136.172C887.003 136.526 886.59 136.711 886.184 136.822C884.16 137.378 881.995 136.555 879.878 136.354C879.388 136.308 878.879 136.298 878.428 136.474C876.643 137.173 877.116 139.815 877.985 141.568C881.259 148.174 885.224 154.081 892.088 158.641V158.64Z" fill="#E5F2FF"/>
<path d="M900.227 162.69C903.339 153.031 901.852 142.137 896.579 133.504C895.087 131.06 893.286 128.816 891.228 126.827C890.833 126.444 890.252 127.07 890.647 127.451C897.759 134.326 901.479 144.335 900.946 154.185C900.792 157.013 900.263 159.809 899.395 162.503C899.227 163.025 900.06 163.209 900.227 162.69V162.69Z" fill="#7DB8FC"/>
<path d="M901.718 148.151C902.866 147.487 904.043 146.802 904.963 145.828C905.472 145.288 906.304 144.286 905.638 143.558C904.083 141.858 901.776 146.562 901.274 147.345C900.977 147.808 901.732 148.207 902.026 147.747C902.486 147.03 902.945 146.311 903.406 145.593C903.61 145.276 903.802 144.937 904.057 144.657C904.211 144.489 905.052 143.67 904.917 144.517C904.871 144.805 904.349 145.243 904.145 145.441C903.841 145.739 903.507 146.003 903.161 146.25C902.554 146.683 901.907 147.057 901.262 147.43C900.786 147.705 901.244 148.425 901.718 148.151H901.718Z" fill="#7DB8FC"/>
<path d="M900.776 143.76C902.01 142.608 903.32 141.413 904.293 140.024C904.716 139.421 905.877 137.384 904.683 136.946C903.491 136.508 902.505 137.743 901.955 138.598C901.051 140.003 900.456 141.579 900.14 143.216C900.036 143.754 900.868 143.944 900.972 143.403C901.178 142.339 901.494 141.308 901.964 140.33C902.204 139.831 903.466 137.328 904.096 137.945C905.039 138.869 900.832 142.542 900.151 143.177C899.749 143.553 900.376 144.132 900.775 143.759L900.776 143.76Z" fill="#7DB8FC"/>
<path d="M898.978 138.446C900.301 137.346 901.433 136.046 902.322 134.57C902.866 133.665 904.116 131.748 902.785 130.926C901.681 130.244 900.243 131.897 899.694 132.671C898.655 134.133 898.305 135.918 898.118 137.668C898.061 138.207 898.892 138.402 898.95 137.856C899.087 136.572 899.286 135.266 899.846 134.09C900.081 133.6 900.371 133.136 900.729 132.727C900.924 132.506 901.131 132.306 901.361 132.124C901.483 132.021 901.611 131.928 901.748 131.846C901.967 131.617 902.125 131.683 902.224 132.042C902.547 132.475 902.392 132.598 902.188 133.03C902.065 133.29 901.928 133.544 901.787 133.795C901.476 134.348 901.131 134.881 900.747 135.387C900.048 136.306 899.242 137.126 898.354 137.863C897.933 138.214 898.561 138.792 898.978 138.445V138.446Z" fill="#7DB8FC"/>
<path d="M896.402 132.853C896.876 131.003 898.19 129.474 898.514 127.574C898.67 126.666 898.656 124.353 897.334 124.293C895.978 124.232 895.053 125.748 894.897 126.923C894.643 128.838 895.722 130.614 895.656 132.52C895.637 133.069 896.489 133.027 896.508 132.48C896.555 131.141 896.077 129.925 895.831 128.63C895.685 127.862 895.616 127.014 895.947 126.282C896.147 125.841 896.74 125.001 897.282 125.25C897.818 125.497 897.776 126.63 897.72 127.139C897.648 127.787 897.432 128.405 897.167 128.995C896.616 130.223 895.907 131.351 895.57 132.666C895.434 133.198 896.266 133.385 896.402 132.853Z" fill="#7DB8FC"/>
<path d="M891.797 127.534C891.929 125.789 891.441 124.101 890.654 122.556C890.076 121.424 888.841 119.475 887.314 119.701C885.552 119.961 886.902 122.219 887.363 123.031C888.3 124.685 889.516 126.159 890.93 127.424C891.339 127.79 891.921 127.166 891.511 126.8C890.542 125.931 889.667 124.974 888.922 123.905C888.54 123.358 888.19 122.789 887.877 122.2C887.652 121.778 886.812 120.236 887.868 120.635C889.076 121.091 889.834 122.685 890.291 123.791C890.791 125.002 891.045 126.263 890.945 127.573C890.904 128.119 891.756 128.075 891.797 127.533L891.797 127.534Z" fill="#7DB8FC"/>
<path d="M895.531 132.384C894.405 131.401 893.077 130.777 891.689 130.251C890.897 129.951 889.374 129.247 889.038 130.518C888.73 131.687 890.358 132.544 891.205 132.924C891.747 133.167 892.237 133.249 892.825 133.164C893.806 133.023 894.616 132.976 895.548 133.393C896.047 133.616 896.451 132.864 895.95 132.64C895.174 132.293 894.351 132.106 893.497 132.189C893.038 132.234 892.569 132.42 892.105 132.343C891.623 132.263 891.128 131.947 890.724 131.683C890.605 131.605 890.17 131.383 890.122 131.232C889.842 130.349 890.627 130.761 890.852 130.843C891.315 131.01 891.775 131.186 892.228 131.378C893.213 131.797 894.138 132.301 894.948 133.008C895.362 133.369 895.944 132.746 895.53 132.384H895.531Z" fill="#7DB8FC"/>
<path d="M898.603 138.153C897.516 137.521 896.388 136.872 895.128 136.672C894.532 136.578 893.131 136.376 893.115 137.31C893.101 138.145 894.434 139.003 895.057 139.325C896.052 139.84 897.166 139.465 898.182 139.202C898.714 139.065 898.456 138.251 897.924 138.389C897.277 138.556 896.442 138.873 895.767 138.703C895.16 138.549 894.056 137.747 893.938 137.106C893.906 137.246 893.875 137.386 893.843 137.527C894.217 137.089 895.871 137.723 896.303 137.904C896.963 138.182 897.583 138.547 898.201 138.906C898.677 139.183 899.077 138.428 898.603 138.153V138.153Z" fill="#7DB8FC"/>
<path d="M900.429 143.769C899.72 143.684 899.023 143.546 898.343 143.324C897.943 143.194 897.556 143.034 897.177 142.851C897.002 142.766 896.303 142.517 896.24 142.337C895.911 141.395 898.051 142.452 898.308 142.616C898.92 143.005 899.431 143.516 899.858 144.101C900.18 144.543 900.902 144.09 900.578 143.645C899.736 142.488 896.816 139.86 895.391 141.559C893.904 143.334 899.261 144.483 900.241 144.601C900.781 144.665 900.973 143.834 900.428 143.768L900.429 143.769Z" fill="#7DB8FC"/>
<path d="M900.934 147.814C900.263 147.582 899.609 147.311 898.976 146.991C898.737 146.871 898.503 146.743 898.273 146.61C898.031 146.471 897.397 146.265 897.566 145.976C897.895 145.408 900.061 147.83 900.357 148.163C900.721 148.576 901.3 147.947 900.939 147.539C900.222 146.729 899.453 145.792 898.485 145.273C897.93 144.976 896.873 144.667 896.474 145.379C895.585 146.965 899.832 148.33 900.748 148.646C901.266 148.825 901.449 147.991 900.935 147.814H900.934Z" fill="#7DB8FC"/>
<path d="M930.573 154.909C925.355 157.418 918.798 158.4 914.164 155.218C912.811 154.288 911.652 152.962 911.363 151.349C911.075 149.735 911.873 147.845 913.439 147.207C914.795 146.656 916.486 147.065 917.639 146.165C918.445 145.535 918.716 144.424 918.589 143.44C918.463 142.456 918.007 141.557 917.594 140.66C917.058 139.494 916.586 138.298 916.178 137.08C915.696 135.638 915.312 134.041 915.878 132.597C916.444 131.152 918.352 130.111 919.631 130.948C920.236 131.344 920.552 132.037 921.032 132.572C921.511 133.107 922.368 133.481 922.969 133.042C923.204 132.869 923.349 132.604 923.461 132.34C924.328 130.298 924.046 129.493 924.464 126.695C924.624 125.616 925.279 123.863 925.934 122.975C928.888 118.965 933.055 115.34 938.005 114.848C938.974 114.751 939.985 114.786 940.842 115.207C942.469 116.004 943.133 118.038 942.837 119.833C942.54 121.627 941.478 123.225 940.366 124.701C939.252 126.176 938.042 127.624 937.359 129.325C938.814 129.315 940.277 128.914 941.546 128.175C942.204 127.792 942.877 127.303 943.627 127.342C944.824 127.403 945.477 128.872 945.112 130.007C944.746 131.142 943.715 131.951 942.689 132.594C939.946 134.315 936.618 135.601 935.107 138.429C934.904 138.808 934.742 139.272 934.94 139.641C935.076 139.895 935.354 140.041 935.63 140.136C937.008 140.611 938.544 140.143 940.019 140.1C940.361 140.09 940.713 140.106 941.018 140.248C942.223 140.811 941.778 142.612 941.099 143.78C938.537 148.186 935.529 152.078 930.572 154.91L930.573 154.909Z" fill="#CCE6FF"/>
<path d="M937.505 121.282C933.835 124.851 930.749 128.993 928.344 133.511C925.961 137.987 924.25 142.821 923.283 147.799C922.74 150.597 922.443 153.44 922.388 156.29C922.383 156.574 921.942 156.554 921.947 156.269C922.044 151.166 922.935 146.086 924.549 141.245C926.169 136.382 928.512 131.753 931.5 127.587C933.2 125.214 935.11 122.994 937.203 120.959C937.407 120.76 937.707 121.084 937.504 121.282H937.505Z" fill="#7DB8FC"/>
<path d="M804.357 102.696C804.357 102.696 804.317 96.9798 810.424 93.6846C816.529 90.3901 823.159 90.9876 827.603 92.694C834.901 95.4959 836.611 102.158 833.568 102.616C831.875 102.871 829.441 106.987 830.256 107.702C834.092 111.065 806.028 117.279 804.357 102.696Z" fill="#FDBAA0"/>
<path d="M842.672 125.396C841.264 126 838.51 127.048 835.659 127.969C835.009 128.198 832.073 129.1 829.393 129.736C829.357 129.744 829.321 129.752 829.285 129.761C824.657 130.851 819.667 131.513 815.804 130.728C815.782 130.726 813.533 130.114 810.989 128.851C810.599 128.658 810.173 128.51 809.714 128.406H809.714C805.908 127.533 799.929 129.644 796.286 131.064C794.702 131.683 793.111 132.352 791.568 133.023L789.344 110.081C791.445 109.476 775.28 106.167 777.836 105.477C785.347 103.444 799.487 99.7651 806.041 97.6005C806.1 97.5508 812.59 95.6199 814.751 94.0576C838.565 120.788 824.045 104.5 828.954 109.998L831.497 108.365L832.366 113.828C836.703 118.698 841.846 124.467 842.673 125.396H842.672Z" fill="#FDBAA0"/>
<path d="M824.809 120.262C828.409 125.174 835.536 131.27 839.692 125.263C843.848 119.256 845.874 105.427 840.151 101.962C834.427 98.4965 830.869 98.4419 828.191 101.062C825.513 103.682 821.061 109.827 819.934 110.882C818.808 111.937 822.612 117.265 824.809 120.262V120.262Z" fill="#E8A595"/>
<path d="M810.24 128.534C807.754 126.847 805.963 124.227 805.313 121.291C805.264 121.07 805.604 120.973 805.654 121.196C806.283 124.036 808.002 126.59 810.41 128.223C810.598 128.35 810.429 128.661 810.241 128.534H810.24Z" fill="#E79780"/>
<path d="M806.151 97.8153C804.836 100.482 804.008 103.389 803.727 106.349C803.648 107.181 803.613 108.016 803.619 108.851C803.62 109.079 803.267 109.084 803.265 108.855C803.245 105.836 803.774 102.816 804.83 99.9856C805.127 99.1887 805.464 98.4079 805.84 97.6453C805.94 97.4404 806.25 97.6111 806.15 97.8147L806.151 97.8153Z" fill="#E79780"/>
<path d="M826.075 140.057C825.223 139.54 824.949 138.419 825.467 137.567L856.992 85.5951C857.508 84.743 858.628 84.4687 859.48 84.9865C860.331 85.5035 860.605 86.6243 860.088 87.4764L828.563 139.449C828.046 140.301 826.926 140.575 826.075 140.057V140.057Z" fill="#384955"/>
<g opacity="0.2">
<path d="M872.403 88.6068C886.157 88.6068 897.307 77.448 897.307 63.6828C897.307 49.9177 886.157 38.7588 872.403 38.7588C858.648 38.7588 847.498 49.9177 847.498 63.6828C847.498 77.448 858.648 88.6068 872.403 88.6068Z" fill="white"/>
</g>
<path d="M882.538 88.2316C881.192 88.8122 879.788 89.2838 878.336 89.6392C871.537 91.3029 864.496 90.2178 858.512 86.5826C852.529 82.9473 848.318 77.1978 846.655 70.3926C844.993 63.5874 846.077 56.5422 849.709 50.5534C857.208 38.1911 873.358 34.2396 885.71 41.7438C891.693 45.379 895.905 51.1285 897.567 57.9337C899.229 64.7383 898.145 71.7842 894.513 77.7729C891.656 82.4821 887.493 86.0942 882.538 88.2316V88.2316ZM850.822 51.23L851.935 51.9058C845.182 63.0396 848.738 77.5959 859.864 84.355C865.253 87.6292 871.593 88.6066 877.717 87.108C883.842 85.6094 889.016 81.8139 892.288 76.4205C899.041 65.2868 895.484 50.7297 884.359 43.9714C873.234 37.2123 858.688 40.772 851.935 51.9058L850.822 51.23V51.23Z" fill="#384955"/>
<path d="M871.219 54.2017C872.957 52.3673 875.803 52.354 877.795 53.7428C879.797 55.1378 881.081 58.1924 878.008 59.1537C876.761 59.544 875.368 59.3251 874.086 59.5881C872.608 59.8918 871.206 60.5725 870.041 61.531C867.844 63.3388 866.463 65.898 865.214 68.4041C863.572 71.6958 868.856 73.8646 870.49 70.5876C871.242 69.0785 872.041 67.4589 873.271 66.2716C874.678 64.9136 876.311 65.1788 878.108 64.9381C882.345 64.37 885.968 60.8642 885.605 56.4062C885.268 52.268 881.751 48.667 877.892 47.5168C873.756 46.2841 869.635 47.6071 866.711 50.6917C864.18 53.3615 868.711 56.8456 871.218 54.201L871.219 54.2017Z" fill="#127BF2"/>
<path d="M863.795 79.1773C867.189 80.5821 869.377 75.3049 865.976 73.8972C862.582 72.4924 860.394 77.7696 863.795 79.1773Z" fill="#127BF2"/>
<path d="M881.823 51.3984C882.585 52.1631 883.351 53.3692 883.443 54.4606C883.477 54.8552 884.086 54.7706 884.052 54.3767C883.945 53.1146 883.074 51.7902 882.2 50.9128C881.921 50.633 881.547 51.1213 881.823 51.3984V51.3984Z" fill="#7DB8FC"/>
<path d="M883.609 55.989C883.579 56.2898 883.549 56.5906 883.518 56.8915C883.479 57.284 884.089 57.3623 884.128 56.967C884.158 56.6662 884.189 56.3653 884.219 56.0645C884.259 55.672 883.648 55.5937 883.609 55.989Z" fill="#7DB8FC"/>
<path d="M866.37 68.354C866.097 69.1068 865.917 70.0044 866.617 70.5851C866.922 70.8384 867.299 70.3521 866.995 70.0996C866.536 69.719 866.77 69.0529 866.937 68.5884C867.072 68.2176 866.505 67.9804 866.37 68.3533V68.354Z" fill="#7DB8FC"/>
<path d="M865.702 75.3551C866.476 75.6986 866.266 76.6739 866.026 77.2951C865.884 77.6638 866.451 77.9003 866.593 77.5302C866.964 76.5696 867.05 75.2802 865.936 74.787C865.575 74.6268 865.34 75.1948 865.701 75.3551H865.702Z" fill="#7DB8FC"/>
<path d="M865.596 49.4222C864.825 50.4199 864.093 51.4861 864.244 52.807C864.289 53.2002 864.897 53.1169 864.853 52.723C864.722 51.5756 865.418 50.6577 866.082 49.7993C866.324 49.4859 865.839 49.1088 865.596 49.4215V49.4222Z" fill="#127BF2"/>
<path d="M879.263 66.0121C880.395 65.8651 881.659 65.4783 882.602 64.8262C882.928 64.6002 882.554 64.1119 882.23 64.3365C881.378 64.9256 880.198 65.2705 879.179 65.4027C878.787 65.4538 878.869 66.0631 879.263 66.0121Z" fill="#127BF2"/>
<path d="M867.828 74.4282C868.125 74.7143 868.313 75.0928 868.379 75.4972C868.443 75.8869 869.052 75.805 868.988 75.4133C868.894 74.8403 868.622 74.3442 868.206 73.9426C867.921 73.6677 867.546 74.156 867.828 74.4282Z" fill="#127BF2"/>
<path d="M868.383 76.7054C868.369 76.8341 868.355 76.9628 868.341 77.0915C868.323 77.2511 868.441 77.4211 868.608 77.4344C868.772 77.4477 868.932 77.3385 868.951 77.1671C868.965 77.0384 868.979 76.9096 868.992 76.7809C869.01 76.6214 868.893 76.4514 868.725 76.4381C868.561 76.4248 868.402 76.534 868.383 76.7054Z" fill="#127BF2"/>
<path d="M852.75 73.7559C855.121 77.1525 858.216 80.0077 861.795 82.0926C862.471 82.4864 863.208 81.5014 862.524 81.1026C859.025 79.0646 856.027 76.3074 853.709 72.987C853.257 72.3384 852.298 73.1094 852.75 73.7566V73.7559Z" fill="#7DB8FC"/>
<path d="M864.155 83.0367C865.119 83.5404 866.202 83.7181 867.279 83.5866C868.065 83.4907 867.894 82.2727 867.11 82.3685C866.229 82.4763 865.393 82.3042 864.608 81.8942C863.907 81.5276 863.459 82.6736 864.155 83.0367V83.0367Z" fill="#7DB8FC"/>
<path d="M815.178 91.8721C819.948 90.3525 831.807 88.5601 836.388 89.3835C844.954 90.9234 852.615 88.1718 853.568 89.1806C854.52 90.1895 853.631 94.637 847.117 97.1052C840.694 99.5399 834.655 97.9287 833.389 98.6486C832.122 99.3685 826.563 102.797 826.563 102.797C826.563 102.797 811.479 93.0502 815.178 91.8721V91.8721Z" fill="#FDBAA0"/>
<path d="M826.724 102.66C825.486 103.608 824.379 104.719 823.45 105.973C822.482 107.281 821.743 108.709 820.503 109.797C819.362 110.798 818.038 111.628 816.707 112.353C815.486 113.018 814.2 113.587 812.859 113.961C811.361 114.378 809.812 114.541 808.265 114.362C807.951 114.325 807.9 114.814 808.214 114.85C810.994 115.173 813.744 114.402 816.216 113.162C817.512 112.513 818.767 111.744 819.933 110.882C821.286 109.881 822.232 108.675 823.147 107.279C824.212 105.652 825.488 104.226 827.033 103.042C827.284 102.85 826.975 102.469 826.724 102.661V102.66Z" fill="#E79780"/>
<path d="M832.434 105.613C833.078 105.149 832.72 104.459 834.338 104.586C839.941 104.311 845.503 105.549 850.931 106.967C853.188 107.557 855.561 108.252 857.15 109.962C858.74 111.671 859.109 114.733 857.294 116.202C855.954 117.285 854.032 117.129 852.326 116.896C845.971 116.031 841.281 114.33 835.284 112.055C833.735 111.467 832.349 110.449 831.709 108.919C831.069 107.391 831.089 106.581 832.434 105.614V105.613Z" fill="#FDBAA0"/>
<path d="M850.108 114.272C852.488 113.811 854.918 115.607 856.569 117.382C858.221 119.159 858.604 122.34 856.719 123.865C855.328 124.991 853.33 124.828 851.557 124.587C844.955 123.688 841.485 121.053 835.254 118.689C833.644 118.078 831.21 116.805 831.145 115.533C830.966 112.026 835.771 112.239 842.913 114.716C845.388 115.575 848.479 114.587 850.108 114.271V114.272Z" fill="#FDBAA0"/>
<path d="M833.029 117.994C833.594 117.782 838.821 118.461 842.761 120.753C844.399 121.706 846.109 122.765 847.066 124.426C848.023 126.087 847.84 128.512 846.228 129.232C845.038 129.764 843.59 129.217 842.319 128.659C837.587 126.585 838.019 126.9 833.774 123.828C832.677 123.034 831.205 121.524 830.947 120.211C830.69 118.9 831.854 118.435 833.03 117.994L833.029 117.994Z" fill="#FDBAA0"/>
<path d="M834.128 98.229C839.097 97.9848 842.728 98.1597 847.542 99.4177C849.544 99.941 851.648 100.557 853.058 102.073C854.467 103.589 854.794 106.304 853.186 107.607C851.998 108.568 850.293 108.429 848.78 108.223C843.144 107.456 837.7 107.633 832.665 104.986C827.054 102.036 832.693 98.1164 834.129 98.229H834.128Z" fill="#FDBAA0"/>
<path d="M852.644 107.328C848.894 106.373 845.1 105.588 841.277 104.985C839.5 104.705 837.678 104.351 835.875 104.31C834.356 104.275 832.793 104.701 831.811 105.93C831.621 106.169 831.977 106.483 832.167 106.245C833.243 104.898 834.987 104.682 836.6 104.825C838.382 104.983 840.161 105.281 841.925 105.571C845.5 106.157 849.047 106.901 852.557 107.796C852.853 107.871 852.94 107.404 852.644 107.328Z" fill="#E79780"/>
<path d="M846.089 98.8419C842.614 98.3836 839.07 98.0023 835.561 97.9869C834.141 97.9806 832.689 98.2206 831.558 99.1406C830.559 99.9529 829.877 101.194 830.157 102.504C830.465 103.942 831.732 104.735 832.94 105.383C833.2 105.521 833.399 105.11 833.14 104.972C831.78 104.244 830.226 103.18 830.596 101.395C830.959 99.6366 832.788 98.6775 834.427 98.497C836.268 98.2941 838.202 98.5347 840.04 98.6726C842.035 98.8223 844.023 99.0301 846.006 99.2917C846.296 99.3302 846.382 98.8811 846.089 98.8426V98.8419Z" fill="#E79780"/>
<path d="M855.844 116.604C854.566 115.578 852.86 115.606 851.306 115.47C849.892 115.345 848.481 115.184 847.078 114.964C844.374 114.541 841.708 113.908 839.031 113.347C838.739 113.285 838.654 113.742 838.947 113.804C841.535 114.346 844.113 114.955 846.725 115.378C848.047 115.591 849.375 115.754 850.709 115.88C852.293 116.029 854.229 115.902 855.539 116.953C855.771 117.14 856.078 116.791 855.845 116.604L855.844 116.604Z" fill="#E79780"/>
<path d="M847.236 124.448C846.628 123.454 845.232 122.89 844.236 122.34C843.009 121.662 841.767 121.012 840.509 120.393C839.206 119.75 837.885 119.135 836.531 118.608C835.579 118.238 834.551 117.832 833.522 117.768C832.276 117.689 830.488 118.809 830.739 120.227C830.785 120.49 831.203 120.461 831.156 120.195C830.927 118.898 832.665 118.059 833.751 118.211C834.746 118.35 835.715 118.73 836.643 119.102C839.056 120.069 841.385 121.26 843.665 122.505C844.164 122.777 844.661 123.054 845.154 123.338C845.786 123.702 846.497 124.042 846.889 124.683C847.03 124.913 847.377 124.679 847.236 124.45V124.448Z" fill="#E79780"/>
<path d="M842.579 128.648C840.802 127.909 839.097 126.976 837.45 125.986C835.652 124.905 833.823 123.724 832.355 122.21C831.835 121.674 831.21 120.98 831.155 120.195C831.136 119.927 830.719 119.958 830.738 120.227C830.785 120.896 831.185 121.494 831.601 121.995C832.219 122.739 832.961 123.377 833.723 123.969C835.542 125.385 837.539 126.585 839.573 127.665C840.495 128.154 841.432 128.622 842.396 129.024C842.644 129.127 842.828 128.751 842.579 128.648L842.579 128.648Z" fill="#E79780"/>
<path d="M840.119 113.598C838.079 113.202 836.012 112.318 834.257 111.202C832.75 110.244 830.547 108.053 832.166 106.244C832.37 106.016 832.013 105.702 831.809 105.93C830.202 107.727 831.8 109.982 833.358 111.154C834.268 111.839 835.297 112.351 836.33 112.82C837.52 113.361 838.747 113.814 840.033 114.064C840.332 114.122 840.42 113.655 840.119 113.597V113.598Z" fill="#E79780"/>
<path d="M832.491 99.9651C833.339 99.4943 834.368 99.4782 835.246 99.5873C835.721 99.6468 836.214 99.7489 836.644 99.9847C837.07 100.217 837.158 100.579 837.184 101.144C837.221 101.946 837.016 103.987 836.173 104.176C835.928 104.231 835.649 104.196 835.407 104.178C834.512 104.111 833.587 103.931 832.798 103.435C831.746 102.774 831.157 100.962 832.491 99.9651H832.491Z" fill="#FFD1C3"/>
<path d="M833.571 106.052C834.481 105.746 835.48 105.918 836.31 106.187C836.759 106.332 837.217 106.523 837.59 106.833C837.957 107.14 837.974 107.511 837.892 108.07C837.775 108.864 837.187 110.829 836.335 110.86C836.086 110.87 835.824 110.783 835.592 110.721C834.738 110.492 833.877 110.145 833.208 109.514C832.315 108.672 832.09 106.785 833.571 106.052V106.052Z" fill="#FFD1C3"/>
<path d="M833.056 113.525C833.899 113.28 834.836 113.455 835.618 113.711C836.041 113.85 836.473 114.028 836.829 114.308C837.18 114.585 837.205 114.909 837.141 115.396C837.052 116.086 836.551 117.788 835.757 117.794C835.525 117.796 835.277 117.715 835.06 117.654C834.256 117.433 833.443 117.108 832.803 116.54C831.948 115.782 831.69 114.129 833.056 113.525L833.056 113.525Z" fill="#FFD1C3"/>
<path d="M833.069 118.713C833.795 118.562 834.527 118.794 835.117 119.086C835.437 119.243 835.758 119.438 835.998 119.717C836.236 119.992 836.2 120.285 836.065 120.716C835.875 121.327 835.175 122.81 834.53 122.752C834.341 122.735 834.154 122.642 833.988 122.57C833.373 122.307 832.769 121.952 832.346 121.392C831.781 120.646 831.856 119.145 833.069 118.713V118.713Z" fill="#FFD1C3"/>
<path d="M853.567 89.1802C853.567 89.1802 852.985 90.641 851.323 90.6452C849.66 90.6494 848.523 90.599 848.523 90.599L847.765 89.4887C847.765 89.4887 851.567 88.328 853.567 89.1802V89.1802Z" fill="#FFD1C3"/>
<path d="M744.625 102.492L750.13 150.241C750.677 150.096 757.296 147.826 765.748 144.826C780.649 139.539 801.228 131.982 804.226 129.774C804.524 129.428 804.668 129.043 804.716 128.651L804.714 128.632C805.048 125.653 799.345 121.2 798.216 117.919C795.719 110.769 798.005 105.654 798.03 102.288C798.037 102.017 798.233 100.507 798.204 100.259C797.957 98.28 792.931 100.62 787.618 101.008C786.013 101.111 758.016 102.05 744.625 102.492V102.492Z" fill="#49B2A4"/>
<path d="M802.69 125.19C802.554 126.803 801.353 127.938 799.952 128.51C797.98 129.315 795.843 128.822 793.79 128.878C791.27 128.947 789.08 130.234 786.781 131.144C784.568 132.019 782.22 132.401 779.853 132.273C779.457 132.251 779.474 131.616 779.873 131.637C782.104 131.758 784.319 131.418 786.415 130.613C788.463 129.825 790.416 128.667 792.608 128.344C794.634 128.046 796.7 128.612 798.712 128.223C800.231 127.93 801.926 126.909 802.071 125.171C802.106 124.765 802.724 124.78 802.689 125.19H802.69Z" fill="#63D5C2"/>
<path d="M784.062 129.352C783.733 129.368 783.403 129.385 783.074 129.401C782.677 129.421 782.697 128.785 783.094 128.766C783.423 128.75 783.752 128.733 784.082 128.717C784.479 128.697 784.458 129.332 784.062 129.352Z" fill="#63D5C2"/>
<path d="M781.747 127.43C781.664 127.434 781.582 127.439 781.5 127.443C781.338 127.45 781.189 127.278 781.201 127.115C781.214 126.933 781.346 126.815 781.52 126.807C781.602 126.803 781.684 126.798 781.766 126.794C781.928 126.786 782.077 126.959 782.065 127.122C782.052 127.304 781.92 127.422 781.747 127.43Z" fill="#63D5C2"/>
<path d="M792.947 107.003C791.539 105.603 789.398 106.247 787.83 106.963C786.041 107.781 784.398 108.521 782.398 108.421C780.556 108.328 778.779 107.746 777.004 107.285C774.984 106.76 772.948 106.5 770.867 106.754C768.513 107.041 766.262 107.89 764.273 109.214C763.938 109.437 763.64 108.88 763.973 108.659C767.527 106.291 771.864 105.493 775.996 106.389C778.007 106.825 779.967 107.573 782.026 107.757C783.068 107.85 784.11 107.778 785.113 107.455C786.237 107.094 787.267 106.483 788.363 106.05C790.004 105.4 792.033 105.209 793.393 106.56C793.679 106.845 793.233 107.286 792.947 107.003V107.003Z" fill="#63D5C2"/>
<path d="M791.584 114.059C791.005 114.464 790.389 114.777 789.731 115.022C789.357 115.16 789.215 114.542 789.586 114.404C790.19 114.18 790.754 113.874 791.284 113.503C791.614 113.273 791.911 113.83 791.584 114.059V114.059Z" fill="#63D5C2"/>
<path d="M789.257 113.755C788.907 113.865 788.556 113.977 788.206 114.087C787.825 114.207 787.681 113.59 788.06 113.469C788.41 113.359 788.761 113.248 789.112 113.137C789.493 113.017 789.637 113.634 789.257 113.755Z" fill="#63D5C2"/>
<path d="M794.828 130.667C794.523 130.635 794.217 130.603 793.912 130.571C793.519 130.53 793.535 129.894 793.932 129.936C794.237 129.968 794.543 130 794.848 130.032C795.241 130.073 795.226 130.709 794.829 130.667H794.828Z" fill="#63D5C2"/>
<path d="M764.001 134.217C764.271 134.025 764.563 133.887 764.875 133.786C765.255 133.664 765.399 134.283 765.02 134.404C764.761 134.487 764.524 134.614 764.301 134.773C764.164 134.871 763.956 134.79 763.881 134.65C763.794 134.487 763.864 134.315 764.001 134.217V134.217Z" fill="#63D5C2"/>
<path d="M775.986 136.125C775.612 136.318 775.238 136.51 774.863 136.703C774.507 136.887 774.207 136.332 774.563 136.148C774.938 135.955 775.312 135.762 775.687 135.569C776.042 135.386 776.343 135.941 775.986 136.125Z" fill="#63D5C2"/>
<path d="M773.362 125.344C773.005 125.361 772.648 125.379 772.291 125.397C771.894 125.416 771.914 124.781 772.311 124.762C772.667 124.744 773.025 124.726 773.381 124.708C773.778 124.689 773.758 125.324 773.362 125.344Z" fill="#63D5C2"/>
<path d="M774.405 124.5C774.237 124.44 774.074 124.426 773.9 124.467C773.512 124.558 773.366 123.94 773.755 123.849C774.031 123.784 774.315 123.795 774.582 123.89C774.739 123.946 774.839 124.116 774.79 124.285C774.743 124.445 774.563 124.555 774.405 124.5V124.5Z" fill="#63D5C2"/>
<path d="M773.136 114.825C772.698 114.902 772.297 115.052 771.915 115.285C771.571 115.494 771.273 114.939 771.615 114.73C772.041 114.469 772.503 114.293 772.991 114.207C773.381 114.138 773.529 114.755 773.136 114.825V114.825Z" fill="#63D5C2"/>
<path d="M773.962 113.012C773.88 113.016 773.797 113.02 773.716 113.024C773.554 113.031 773.404 112.858 773.416 112.696C773.43 112.514 773.562 112.396 773.735 112.388C773.818 112.383 773.9 112.379 773.982 112.376C774.143 112.368 774.293 112.541 774.281 112.703C774.268 112.886 774.136 113.003 773.962 113.012Z" fill="#63D5C2"/>
<path d="M761.509 118.711C761.085 118.877 760.686 119.099 760.308 119.358C759.977 119.586 759.68 119.03 760.008 118.803C760.435 118.51 760.885 118.28 761.364 118.093C761.735 117.947 761.877 118.566 761.509 118.711V118.711Z" fill="#63D5C2"/>
<path d="M761.756 116.819C761.62 116.877 761.483 116.936 761.346 116.995C761.197 117.059 761.006 117.038 760.926 116.872C760.858 116.732 760.887 116.508 761.046 116.44C761.183 116.381 761.32 116.322 761.456 116.263C761.605 116.2 761.796 116.221 761.876 116.386C761.944 116.526 761.915 116.75 761.756 116.819Z" fill="#63D5C2"/>
<path d="M795.707 121.149C795.343 121.192 794.995 121.181 794.636 121.105C794.472 121.071 794.384 120.864 794.429 120.71C794.481 120.533 794.65 120.461 794.814 120.496C795.057 120.547 795.315 120.561 795.562 120.531C795.728 120.512 795.893 120.583 795.935 120.765C795.971 120.916 795.875 121.129 795.708 121.149H795.707Z" fill="#63D5C2"/>
<path d="M793.916 119.885C793.889 119.887 793.861 119.888 793.833 119.889C793.672 119.897 793.522 119.724 793.534 119.562C793.548 119.379 793.68 119.263 793.853 119.253C793.88 119.252 793.908 119.251 793.936 119.249C794.098 119.242 794.247 119.414 794.235 119.577C794.221 119.759 794.089 119.877 793.916 119.885Z" fill="#63D5C2"/>
<path d="M786.885 134.403C786.567 134.509 786.234 134.552 785.9 134.537C785.504 134.518 785.521 133.882 785.92 133.902C786.204 133.915 786.47 133.876 786.74 133.786C787.119 133.659 787.262 134.277 786.885 134.403V134.403Z" fill="#63D5C2"/>
<path d="M787.398 132.869C787.29 132.902 787.181 132.935 787.072 132.968C786.917 133.015 786.73 132.898 786.699 132.735C786.665 132.559 786.76 132.401 786.927 132.35C787.035 132.318 787.144 132.285 787.253 132.251C787.408 132.204 787.594 132.322 787.626 132.485C787.659 132.66 787.564 132.819 787.398 132.869Z" fill="#63D5C2"/>
<path d="M782.728 106.039C782.618 106.014 782.507 105.99 782.396 105.965C782.238 105.93 782.137 105.723 782.189 105.57C782.248 105.397 782.405 105.319 782.575 105.356C782.685 105.38 782.796 105.405 782.907 105.429C783.065 105.464 783.166 105.671 783.114 105.824C783.055 105.997 782.898 106.076 782.728 106.039Z" fill="#63D5C2"/>
<path d="M783.602 105.322C783.547 105.325 783.492 105.327 783.437 105.33C783.275 105.338 783.126 105.165 783.138 105.003C783.151 104.82 783.283 104.703 783.456 104.694C783.512 104.691 783.566 104.689 783.621 104.686C783.783 104.678 783.932 104.851 783.921 105.013C783.907 105.196 783.775 105.313 783.602 105.322Z" fill="#63D5C2"/>
<path d="M759.651 109.111C757.28 109.519 754.871 109.281 752.629 108.391C752.26 108.245 752.434 107.634 752.806 107.782C754.946 108.631 757.239 108.883 759.505 108.493C759.895 108.426 760.044 109.043 759.65 109.111H759.651Z" fill="#63D5C2"/>
<path d="M745.268 108.049L750.133 150.249C750.679 150.097 757.302 147.827 765.757 144.826C765.757 144.826 762.15 141.022 757.48 141.293C756.41 141.354 755.692 140.452 755.176 138.987C755.107 138.791 755.042 138.585 754.981 138.371C754.152 135.506 753.911 131.032 753.422 127.247C753.394 127.025 753.366 126.805 753.334 126.589C752.942 123.798 752.381 121.478 751.295 120.615C747.77 117.817 747.864 108.654 745.269 108.05L745.268 108.049Z" fill="#40A696"/>
<path d="M794.305 113.951C794.253 116.741 791.787 118.672 789.291 119.106C785.871 119.702 782.588 118.184 779.198 118.096C775.465 118 772.081 120.158 768.846 121.815C767.24 122.637 765.633 123.461 764.027 124.284C762.443 125.094 760.857 125.913 759.184 126.511C756.092 127.616 752.424 127.837 749.68 125.725C749.364 125.481 749.684 124.936 750.003 125.181C752.417 127.04 755.588 126.985 758.365 126.119C760.004 125.608 761.552 124.839 763.083 124.058C764.65 123.259 766.214 122.455 767.78 121.652C770.687 120.163 773.661 118.286 776.888 117.655C780.081 117.03 783.125 118.219 786.273 118.536C788.023 118.712 789.887 118.616 791.424 117.642C792.696 116.836 793.657 115.504 793.687 113.932C793.694 113.523 794.312 113.541 794.305 113.951V113.951Z" fill="#63D5C2"/>
<path d="M764.519 136.046C762.604 137.176 760.575 137.882 758.378 138.166C756.249 138.446 754.093 138.381 751.95 138.313L752.1 138.952C756.192 139.082 760.295 139.024 764.017 137.06C765.835 136.096 767.561 134.803 769.379 133.726C771.305 132.58 773.332 131.69 775.633 131.733C776.031 131.732 776.045 131.094 775.648 131.095C773.014 131.037 770.727 132.162 768.547 133.513C767.191 134.333 765.871 135.256 764.521 136.047L764.519 136.046Z" fill="#63D5C2"/>
<path d="M832.781 50.7796C833.073 49.8127 833.99 49.2104 834.994 49.2803C835.771 49.3349 837.035 49.9205 836.604 50.8741C836.354 51.4254 835.782 51.6192 835.301 51.9207C834.735 52.2754 834.254 52.7309 833.914 53.3109C833.248 54.4491 833.172 55.826 833.165 57.1126C833.158 58.6623 835.563 58.6637 835.571 57.1126C835.574 56.3892 835.569 55.6371 835.805 54.9438C836.05 54.2218 836.545 54.0021 837.167 53.6264C838.719 52.6875 839.659 50.7202 838.734 49.0068C837.862 47.3935 835.835 46.6707 834.094 46.9352C832.359 47.1983 830.965 48.4709 830.461 50.1395C830.012 51.6255 832.333 52.2607 832.781 50.7796V50.7796Z" fill="#FF8D67"/>
<path d="M834.555 61.5304C836.103 61.5304 836.106 59.123 834.555 59.123C833.005 59.123 833.005 61.5304 834.555 61.5304Z" fill="#FF8D67"/>
<path d="M914.208 53.2356C915.106 52.2162 916.552 51.8923 917.772 52.5409C918.884 53.1313 920.051 54.7419 918.823 55.8074C918.281 56.2775 917.629 56.3027 916.951 56.3706C916.265 56.4392 915.611 56.6008 915.033 56.9947C913.896 57.7698 913.232 59.0152 912.666 60.2325C912.243 61.1427 913.595 61.941 914.021 61.0252C914.361 60.2948 914.715 59.5294 915.239 58.9095C915.832 58.2092 916.474 57.9874 917.365 57.907C919.072 57.7537 920.858 56.768 920.926 54.8412C920.991 53.0012 919.45 51.4103 917.798 50.8541C916.143 50.2965 914.25 50.8191 913.099 52.1253C912.433 52.8802 913.539 53.9947 914.208 53.2356H914.208Z" fill="#384955"/>
<path d="M912.05 64.7272C913.059 64.7272 913.061 63.1572 912.05 63.1572C911.039 63.1572 911.039 64.7272 912.05 64.7272Z" fill="#384955"/>
<path d="M910.779 81.8912C912.02 80.4017 914.196 80.2513 915.789 81.2161C917.389 82.1851 918.522 84.4588 916.218 85.346C915.283 85.7063 914.206 85.6069 913.239 85.8714C912.122 86.1764 911.083 86.7662 910.239 87.5575C908.647 89.0491 907.716 91.0759 906.883 93.0544C905.789 95.6542 909.939 97.0534 911.028 94.4655C911.53 93.2734 912.061 91.9952 912.944 91.0262C913.954 89.9173 915.216 90.0404 916.58 89.7676C919.795 89.1239 922.394 86.2625 921.897 82.8693C921.435 79.7189 918.567 77.1373 915.558 76.4475C912.332 75.708 909.244 76.9232 907.158 79.4279C905.353 81.5953 908.992 84.0384 910.78 81.8912H910.779Z" fill="#49B2A4"/>
<path d="M906.328 101.369C908.995 102.277 910.409 98.13 907.738 97.2205C905.071 96.3124 903.657 100.459 906.328 101.369Z" fill="#49B2A4"/>
<path d="M804.716 65.9638C804.357 64.3609 805.38 62.8197 806.85 62.2467C808.328 61.6709 810.44 62.0837 809.845 64.0909C809.603 64.9052 808.981 65.5783 808.658 66.3661C808.286 67.2742 808.146 68.2774 808.241 69.2541C808.42 71.0955 809.3 72.7676 810.198 74.3494C811.378 76.4273 814.461 74.3606 813.286 72.2919C812.745 71.339 812.161 70.3217 811.967 69.2275C811.745 67.9759 812.479 67.1902 813 66.1324C814.229 63.6389 813.65 60.413 811.116 58.9948C808.762 57.6782 805.548 58.2735 803.53 59.94C801.368 61.7269 800.589 64.4309 801.193 67.1272C801.716 69.4605 805.235 68.276 804.717 65.9645L804.716 65.9638Z" fill="#51C6D4"/>
<path d="M815.491 79.0175C817.478 77.6932 815.425 74.6008 813.435 75.9273C811.448 77.2517 813.502 80.344 815.491 79.0175Z" fill="#51C6D4"/>
</svg>
