<svg width="1032" height="200" viewBox="0 0 1032 200" fill="none" xmlns="http://www.w3.org/2000/svg">
<path d="M1016 0H16C7.16344 0 0 7.16344 0 16V184C0 192.837 7.16344 200 16 200H1016C1024.84 200 1032 192.837 1032 184V16C1032 7.16344 1024.84 0 1016 0Z" fill="#127BF2"/>
<path d="M65.8201 79.2504C61.4401 78.1704 59.5201 75.4104 59.4301 72.7104H64.8901V69.5903H59.4301V66.8604H55.4701V69.5903H50.0701V72.7104H55.4701C55.3801 75.6504 53.4301 78.5303 49.0801 79.7003L50.9101 82.7904C54.0901 81.9204 56.2801 80.0303 57.5101 77.6303C58.7701 79.7903 60.9001 81.4703 64.0501 82.3103L65.8201 79.2504ZM71.4001 86.9903V83.8704H52.8901V86.9903H59.8201C59.1301 89.0303 56.5201 90.9503 51.6901 91.4903L53.1001 94.4903C57.5101 93.9203 60.5701 92.2104 62.1601 89.8704C63.7201 92.2104 66.7801 93.9803 71.1601 94.5203L72.5701 91.5203C67.8301 90.9503 65.1901 88.9703 64.4401 86.9903H71.4001ZM71.0401 73.1303V66.9503H67.0801V82.6703H71.0401V76.4004H74.7001V73.1303H71.0401ZM99.1478 74.4203H83.9378V67.9404H79.9778V77.5704H99.1478V74.4203ZM83.6978 85.7604H79.7078V94.0104H99.2978V90.8304H83.6978V85.7604ZM76.8878 80.3904V83.5704H101.908V80.3904H76.8878ZM118.675 77.5104H115.585C116.245 75.2604 116.485 72.8304 116.485 70.2204H105.655V73.3704H112.555C112.075 78.7704 109.645 82.7603 104.125 86.0603L106.375 88.8503C110.275 86.5703 112.795 83.8404 114.355 80.6904H118.675V93.3503H122.365V67.5504H118.675V77.5104ZM124.495 66.9203V94.5504H128.245V66.9203H124.495ZM143.02 74.4804C143.02 72.4404 144.49 71.2403 146.5 71.2403C148.54 71.2403 150.01 72.4404 150.01 74.4804C150.01 76.5504 148.54 77.7504 146.5 77.7504C144.49 77.7504 143.02 76.5504 143.02 74.4804ZM158.02 76.0704V81.5603H161.98V66.9503H158.02V72.8604H153.58C152.83 69.9204 150.04 67.9704 146.5 67.9704C142.36 67.9704 139.24 70.7004 139.24 74.4804C139.24 78.2904 142.36 81.0203 146.5 81.0203C150.04 81.0203 152.86 79.0404 153.61 76.0704H158.02ZM148.36 91.3103H145.57V88.7003H148.36V91.3103ZM160.18 82.9104H156.28V84.9804C156.28 87.4704 155.02 90.0204 151.99 91.4304V83.1504H148.36V85.8503H145.57V83.1504H141.91V94.2504H151.99V92.1804L153.55 94.5504C155.77 93.6804 157.27 92.1204 158.17 90.2304C159.07 92.1504 160.6 93.7104 162.91 94.5504L164.86 91.6104C161.47 90.4404 160.18 87.8304 160.18 84.9804V82.9104ZM178.958 68.3304C173.168 68.3304 168.668 71.5103 168.668 76.3403C168.668 81.1403 173.168 84.3204 178.958 84.3204C184.778 84.3204 189.278 81.1403 189.278 76.3403C189.278 71.5103 184.778 68.3304 178.958 68.3304ZM178.958 71.5704C182.738 71.5704 185.408 73.3403 185.408 76.3403C185.408 79.2803 182.738 81.0804 178.958 81.0804C175.208 81.0804 172.538 79.2803 172.538 76.3403C172.538 73.3403 175.208 71.5704 178.958 71.5704ZM166.478 88.0404V91.2803H191.498V88.0404H166.478ZM217.025 66.9804H213.035V87.1104H217.025V66.9804ZM210.995 79.7904C206.495 78.3504 204.575 74.8104 204.575 71.1804V68.4804H200.555V71.1804C200.555 74.8404 198.575 78.7103 193.985 80.2703L195.995 83.4203C199.205 82.3103 201.365 80.0603 202.625 77.2703C203.825 79.8503 205.925 81.8904 208.985 82.9404L210.995 79.7904ZM202.595 90.9503V85.1904H198.635V94.1003H217.715V90.9503H202.595ZM222.933 69.7703V72.9804H231.963C231.243 79.1004 227.823 83.4803 221.403 86.7803L223.623 89.8103C232.803 85.1603 235.953 78.0503 235.953 69.7703H222.933ZM247.173 77.4804H243.303V66.9203H239.343V94.5203H243.303V80.7504H247.173V77.4804ZM258.72 82.8803C259.68 83.0603 260.67 83.1504 261.75 83.1504C262.83 83.1504 263.85 83.0603 264.81 82.8803V88.1604H258.72V82.8803ZM261.75 71.4203C265.59 71.4203 268.17 72.9803 268.17 75.7403C268.17 78.4703 265.59 80.0603 261.75 80.0603C257.91 80.0603 255.36 78.4703 255.36 75.7403C255.36 72.9803 257.91 71.4203 261.75 71.4203ZM268.74 88.1604V81.4104C270.81 80.1204 272.07 78.1403 272.07 75.7403C272.07 71.2103 267.72 68.3004 261.75 68.3004C255.81 68.3004 251.46 71.2103 251.46 75.7403C251.43 78.1403 252.69 80.1204 254.79 81.4104V88.1604H249.27V91.3704H274.29V88.1604H268.74ZM280.888 84.4404H284.728C284.278 80.2104 289.498 78.7704 289.498 74.5104C289.498 70.6704 286.858 68.8103 283.258 68.8103C280.648 68.8103 278.518 70.0403 276.958 71.8103L279.388 74.0303C280.348 73.0403 281.398 72.3503 282.718 72.3503C284.278 72.3503 285.268 73.3103 285.268 74.8103C285.268 77.6903 280.168 79.6104 280.888 84.4404ZM282.808 92.4203C284.398 92.4203 285.568 91.1604 285.568 89.5404C285.568 87.9204 284.398 86.6604 282.808 86.6604C281.248 86.6604 280.078 87.9204 280.078 89.5404C280.078 91.1604 281.248 92.4203 282.808 92.4203ZM63.3901 125V127.7H68.5801V129.89H72.5401V108.95H68.5801V125H63.3901ZM58.0801 112.76C59.9101 112.76 61.2001 113.48 61.2001 114.83C61.2001 116.18 59.9101 116.87 58.0801 116.87C56.2201 116.87 54.9301 116.18 54.9301 114.83C54.9301 113.48 56.2201 112.76 58.0801 112.76ZM58.0801 119.75C62.1001 119.75 64.9501 117.77 64.9501 114.83C64.9501 111.89 62.1001 109.88 58.0801 109.88C54.0301 109.88 51.1801 111.89 51.1801 114.83C51.1801 117.77 54.0301 119.75 58.0801 119.75ZM56.6101 132.95V129.17H60.4201V123.95C62.6401 123.8 64.8601 123.56 67.0201 123.17L66.7501 120.35C60.9301 121.1 54.2101 121.16 49.1701 121.19L49.6801 124.34C51.7501 124.34 54.0601 124.31 56.4901 124.19V127.88H52.6501V136.1H73.1401V132.95H56.6101ZM84.8678 127.7C83.0078 127.7 81.6278 126.44 81.6278 124.34C81.6278 122.24 83.0078 120.95 84.8678 120.95C86.7278 120.95 88.0778 122.24 88.0778 124.31C88.0778 126.44 86.7278 127.7 84.8678 127.7ZM84.8678 117.74C80.8478 117.74 77.8478 120.47 77.8478 124.31C77.8478 128.21 80.8478 130.94 84.8678 130.94C88.8578 130.94 91.8278 128.21 91.8278 124.31C91.8278 120.47 88.8578 117.74 84.8678 117.74ZM86.8178 109.43H82.8578V113.03H76.7378V116.18H92.8178V113.03H86.8178V109.43ZM102.538 119.75H98.5778V108.95H94.6178V136.58H98.5778V123.02H102.538V119.75ZM115.195 111.08H111.235V115.1C111.235 120.47 108.955 125.81 104.125 127.88L106.495 131.15C109.795 129.59 112.045 126.62 113.275 122.93C114.505 126.32 116.635 129.05 119.815 130.49L122.065 127.28C117.385 125.27 115.195 120.23 115.195 115.1V111.08ZM123.415 108.92V136.64H127.375V108.92H123.415ZM154.343 116.42H139.133V109.94H135.173V119.57H154.343V116.42ZM138.893 127.76H134.903V136.01H154.493V132.83H138.893V127.76ZM132.083 122.39V125.57H157.103V122.39H132.083ZM170.948 114.89H174.488V126.59H170.948V114.89ZM167.258 129.68H178.148V111.77H167.258V129.68ZM186.428 108.92V119.48H184.118V109.37H180.428V135.32H184.118V122.66H186.428V136.55H190.178V108.92H186.428ZM211.985 115.4H201.035V112.79H211.985V115.4ZM215.855 109.76H197.165V118.43H215.855V109.76ZM219.035 123.02V119.9H194.075V123.02H204.545V124.76H196.925V127.67H212.105V129.11H196.955V136.37H216.725V133.4H200.885V131.84H216.005V124.76H208.505V123.02H219.035ZM234.153 112.25C238.173 112.25 240.063 112.82 240.063 114.05C240.063 115.34 238.173 115.88 234.153 115.88C230.163 115.88 228.273 115.34 228.273 114.05C228.273 112.82 230.163 112.25 234.153 112.25ZM234.153 118.76C240.483 118.76 244.173 117.11 244.173 114.05C244.173 111.02 240.483 109.34 234.153 109.34C227.853 109.34 224.163 111.02 224.163 114.05C224.163 117.11 227.853 118.76 234.153 118.76ZM228.483 131.84H243.603V124.73H224.523V127.64H239.703V129.11H224.553V136.37H244.323V133.4H228.483V131.84ZM221.673 120.08V123.17H246.633V120.08H221.673ZM265.517 124.88C266.477 125.06 267.467 125.15 268.547 125.15C269.627 125.15 270.647 125.06 271.607 124.88V130.16H265.517V124.88ZM268.547 113.42C272.387 113.42 274.967 114.98 274.967 117.74C274.967 120.47 272.387 122.06 268.547 122.06C264.707 122.06 262.157 120.47 262.157 117.74C262.157 114.98 264.707 113.42 268.547 113.42ZM275.537 130.16V123.41C277.607 122.12 278.867 120.14 278.867 117.74C278.867 113.21 274.517 110.3 268.547 110.3C262.607 110.3 258.257 113.21 258.257 117.74C258.227 120.14 259.487 122.12 261.587 123.41V130.16H256.067V133.37H281.087V130.16H275.537ZM298.515 116.33V119.51H302.805V125.63H306.765V108.95H302.805V116.33H298.515ZM300.255 121.73C295.845 120.56 293.865 117.77 293.805 114.92H299.265V111.8H293.805V108.86H289.845V111.8H284.445V114.92H289.845C289.785 118.01 287.865 121.13 283.485 122.39L285.345 125.45C288.555 124.52 290.715 122.57 291.945 120.05C293.205 122.24 295.365 123.95 298.455 124.76L300.255 121.73ZM297.435 133.55C293.775 133.55 291.915 132.86 291.915 131.36C291.915 129.86 293.775 129.14 297.435 129.14C301.035 129.14 302.925 129.86 302.925 131.36C302.925 132.86 301.035 133.55 297.435 133.55ZM297.435 126.11C291.555 126.11 287.955 128.03 287.955 131.36C287.955 134.66 291.555 136.58 297.435 136.58C303.285 136.58 306.885 134.66 306.885 131.36C306.885 128.03 303.285 126.11 297.435 126.11ZM317.893 127.34C316.393 127.34 315.313 126.14 315.313 124.07C315.313 122 316.393 120.77 317.893 120.77C319.393 120.77 320.473 122 320.473 124.07C320.473 126.14 319.393 127.34 317.893 127.34ZM317.893 117.47C314.353 117.47 311.833 120.2 311.833 124.07C311.833 127.91 314.353 130.64 317.893 130.64C321.433 130.64 323.953 127.91 323.953 124.07C323.953 120.2 321.433 117.47 317.893 117.47ZM319.843 109.7H315.943V113.12H311.233V116.27H324.433V113.12H319.843V109.7ZM331.213 108.92V120.2H329.113V109.46H325.423V135.41H329.113V123.38H331.213V136.55H334.963V108.92H331.213ZM345.43 118.07H357.25V121.94H345.43V118.07ZM353.32 130.16V125.09H361.15V110.66H357.25V114.95H345.43V110.66H341.5V125.09H349.36V130.16H338.86V133.37H363.88V130.16H353.32ZM375.278 111.35H371.468V116C371.468 120.71 369.998 125.66 365.948 128.12L368.318 131.09C370.808 129.59 372.428 126.95 373.388 123.89C374.258 126.68 375.728 129.02 378.068 130.46L380.228 127.4C376.478 124.91 375.278 120.32 375.278 115.85V111.35ZM380.798 118.28H377.348V121.49H380.798V135.35H384.488V109.4H380.798V118.28ZM386.408 108.95V136.58H390.158V108.95H386.408ZM403.506 124.88C404.466 125.06 405.456 125.15 406.536 125.15C407.616 125.15 408.636 125.06 409.596 124.88V130.16H403.506V124.88ZM406.536 113.42C410.376 113.42 412.956 114.98 412.956 117.74C412.956 120.47 410.376 122.06 406.536 122.06C402.696 122.06 400.146 120.47 400.146 117.74C400.146 114.98 402.696 113.42 406.536 113.42ZM413.526 130.16V123.41C415.596 122.12 416.856 120.14 416.856 117.74C416.856 113.21 412.506 110.3 406.536 110.3C400.596 110.3 396.246 113.21 396.246 117.74C396.216 120.14 397.476 122.12 399.576 123.41V130.16H394.056V133.37H419.076V130.16H413.526Z" fill="white"/>
<path d="M989.491 123.991C985.248 171.34 943.647 174.092 900.452 158.064C884.938 152.31 862.949 151.934 839.444 161.472C817.946 170.199 784.207 160.621 787.504 141.028C792.517 111.248 812.319 119.52 799.021 90.0395C789.325 68.544 794.518 37.9885 824.012 44.6944C846.132 49.7237 855.59 39.8411 858.937 34.5847C861.255 30.9443 864.324 27.7636 868.032 25.3537C896.027 7.16194 911.16 41.8672 926.615 33.355C955.718 17.3276 984.983 33.65 970.092 59.8063C957.681 81.6089 991.92 96.8878 989.492 123.991H989.491Z" fill="#F7F9FE"/>
<path d="M923.529 175.018C931.837 179.725 942.507 182.054 950.458 177.302C952.78 175.914 954.825 173.849 955.469 171.217C956.113 168.585 955.003 165.378 952.497 164.156C950.329 163.099 947.505 163.593 945.706 161.981C944.449 160.854 944.122 158.989 944.433 157.379C944.745 155.768 945.59 154.334 946.362 152.898C947.366 151.031 948.27 149.108 949.068 147.14C950.013 144.812 950.813 142.218 950.036 139.771C949.257 137.324 946.234 135.4 944.044 136.644C943.01 137.232 942.415 138.341 941.57 139.173C940.726 140.005 939.277 140.528 938.337 139.738C937.97 139.429 937.76 138.975 937.603 138.526C936.395 135.062 937.704 131.26 936.857 127.703C936.438 125.946 935.512 124.336 934.531 122.798C930.104 115.859 923.64 109.425 915.558 108.076C913.978 107.812 912.312 107.761 910.858 108.362C908.101 109.502 906.794 112.789 907.092 115.783C907.39 118.778 908.964 121.53 910.638 124.087C912.311 126.643 914.147 129.164 915.086 132.046C912.698 131.873 910.337 131.051 908.329 129.696C907.289 128.994 906.236 128.113 904.997 128.095C903.025 128.068 901.795 130.422 902.276 132.335C902.757 134.248 904.364 135.695 905.982 136.869C910.308 140.005 915.641 142.488 917.823 147.32C918.116 147.968 918.333 148.751 917.968 149.34C917.717 149.744 917.246 149.956 916.782 150.083C914.468 150.718 911.994 149.778 909.575 149.548C909.014 149.495 908.434 149.483 907.918 149.685C905.878 150.484 906.418 153.504 907.411 155.507C911.153 163.057 915.684 169.807 923.529 175.018Z" fill="#E1EEFF"/>
<path d="M932.83 179.647C936.387 168.608 934.687 156.157 928.661 146.29C926.956 143.498 924.897 140.933 922.546 138.66C922.094 138.223 921.43 138.937 921.881 139.373C930.01 147.231 934.261 158.669 933.651 169.926C933.476 173.158 932.871 176.353 931.879 179.432C931.687 180.03 932.639 180.24 932.83 179.647Z" fill="#72BEFF"/>
<path d="M934.533 163.03C935.846 162.271 937.191 161.488 938.242 160.374C938.824 159.757 939.774 158.612 939.014 157.78C937.237 155.838 934.6 161.214 934.026 162.109C933.687 162.638 934.549 163.094 934.886 162.568C935.411 161.748 935.936 160.927 936.463 160.106C936.696 159.744 936.916 159.356 937.207 159.037C937.382 158.844 938.344 157.908 938.19 158.877C938.137 159.206 937.541 159.706 937.308 159.933C936.96 160.273 936.579 160.575 936.183 160.857C935.49 161.352 934.75 161.779 934.013 162.205C933.469 162.52 933.992 163.343 934.534 163.03H934.533Z" fill="#72BEFF"/>
<path d="M933.457 158.011C934.868 156.694 936.365 155.329 937.478 153.741C937.961 153.052 939.287 150.724 937.923 150.223C936.561 149.723 935.434 151.135 934.805 152.112C933.772 153.717 933.092 155.519 932.731 157.389C932.612 158.004 933.563 158.221 933.682 157.603C933.917 156.387 934.278 155.208 934.816 154.091C935.09 153.521 936.532 150.661 937.252 151.366C938.33 152.421 933.522 156.62 932.744 157.345C932.284 157.774 933 158.436 933.457 158.01V158.011Z" fill="#72BEFF"/>
<path d="M931.402 151.938C932.914 150.681 934.208 149.195 935.223 147.508C935.846 146.474 937.273 144.283 935.752 143.343C934.491 142.565 932.848 144.453 932.22 145.337C931.033 147.009 930.633 149.048 930.419 151.049C930.354 151.665 931.304 151.887 931.37 151.263C931.527 149.797 931.753 148.303 932.394 146.96C932.662 146.399 932.993 145.869 933.403 145.401C933.625 145.149 933.862 144.921 934.126 144.712C934.265 144.595 934.412 144.489 934.567 144.396C934.817 144.133 934.999 144.208 935.111 144.619C935.481 145.114 935.304 145.254 935.07 145.748C934.929 146.045 934.774 146.336 934.612 146.622C934.257 147.254 933.862 147.864 933.423 148.441C932.624 149.492 931.703 150.429 930.689 151.272C930.208 151.672 930.926 152.333 931.402 151.937V151.938Z" fill="#72BEFF"/>
<path d="M928.458 145.546C928.999 143.432 930.501 141.685 930.872 139.514C931.05 138.476 931.034 135.832 929.523 135.764C927.974 135.694 926.916 137.426 926.738 138.769C926.448 140.958 927.681 142.988 927.605 145.166C927.584 145.793 928.557 145.745 928.579 145.119C928.633 143.59 928.087 142.2 927.805 140.72C927.638 139.842 927.56 138.873 927.938 138.037C928.166 137.532 928.844 136.573 929.464 136.858C930.076 137.139 930.028 138.434 929.964 139.016C929.881 139.757 929.635 140.463 929.332 141.138C928.703 142.54 927.892 143.83 927.507 145.332C927.351 145.941 928.302 146.154 928.458 145.546Z" fill="#72BEFF"/>
<path d="M923.195 139.467C923.347 137.473 922.789 135.544 921.889 133.778C921.229 132.484 919.817 130.257 918.072 130.515C916.059 130.812 917.602 133.392 918.128 134.321C919.199 136.211 920.589 137.895 922.205 139.341C922.673 139.76 923.337 139.047 922.869 138.628C921.761 137.636 920.762 136.541 919.91 135.32C919.474 134.695 919.073 134.044 918.716 133.371C918.459 132.889 917.499 131.126 918.706 131.582C920.086 132.103 920.953 133.926 921.474 135.19C922.046 136.573 922.336 138.015 922.222 139.512C922.175 140.136 923.149 140.085 923.196 139.466L923.195 139.467Z" fill="#72BEFF"/>
<path d="M927.464 145.011C926.177 143.887 924.659 143.174 923.073 142.573C922.168 142.23 920.427 141.426 920.044 142.878C919.691 144.214 921.552 145.194 922.52 145.628C923.14 145.906 923.699 145.999 924.372 145.902C925.493 145.741 926.418 145.688 927.484 146.163C928.054 146.419 928.516 145.559 927.943 145.303C927.056 144.907 926.116 144.693 925.139 144.788C924.615 144.839 924.078 145.051 923.549 144.963C922.997 144.872 922.432 144.511 921.97 144.209C921.834 144.121 921.337 143.867 921.282 143.694C920.962 142.685 921.859 143.156 922.116 143.249C922.645 143.44 923.171 143.642 923.689 143.862C924.815 144.34 925.872 144.915 926.798 145.724C927.271 146.136 927.936 145.424 927.463 145.011H927.464Z" fill="#72BEFF"/>
<path d="M930.975 151.603C929.733 150.881 928.443 150.139 927.003 149.911C926.323 149.803 924.721 149.572 924.703 150.639C924.687 151.594 926.21 152.575 926.922 152.943C928.06 153.53 929.332 153.102 930.494 152.802C931.101 152.645 930.806 151.715 930.199 151.872C929.459 152.063 928.505 152.426 927.734 152.231C927.039 152.055 925.779 151.139 925.643 150.406C925.607 150.566 925.571 150.726 925.535 150.887C925.962 150.386 927.853 151.112 928.346 151.319C929.101 151.636 929.809 152.054 930.516 152.464C931.059 152.78 931.517 151.918 930.975 151.603Z" fill="#72BEFF"/>
<path d="M933.061 158.022C932.251 157.924 931.455 157.767 930.677 157.514C930.22 157.364 929.778 157.182 929.345 156.972C929.145 156.875 928.346 156.591 928.274 156.385C927.898 155.308 930.344 156.516 930.637 156.704C931.337 157.149 931.921 157.733 932.409 158.401C932.777 158.906 933.602 158.388 933.232 157.88C932.27 156.558 928.932 153.554 927.304 155.496C925.604 157.525 931.727 158.838 932.846 158.972C933.463 159.045 933.684 158.096 933.06 158.02L933.061 158.022Z" fill="#72BEFF"/>
<path d="M933.638 162.645C932.872 162.38 932.124 162.071 931.401 161.705C931.128 161.567 930.861 161.421 930.597 161.269C930.321 161.111 929.597 160.876 929.789 160.545C930.165 159.895 932.641 162.663 932.979 163.045C933.396 163.516 934.056 162.798 933.644 162.332C932.824 161.405 931.946 160.335 930.84 159.742C930.205 159.402 928.997 159.049 928.541 159.863C927.526 161.675 932.379 163.235 933.426 163.597C934.018 163.801 934.227 162.848 933.64 162.645H933.638Z" fill="#72BEFF"/>
<path d="M967.512 170.753C961.549 173.621 954.055 174.743 948.759 171.106C947.212 170.044 945.888 168.528 945.559 166.684C945.229 164.84 946.141 162.68 947.931 161.951C949.48 161.321 951.413 161.789 952.731 160.76C953.652 160.04 953.961 158.77 953.816 157.646C953.672 156.521 953.151 155.494 952.68 154.469C952.067 153.136 951.527 151.77 951.061 150.377C950.51 148.729 950.071 146.904 950.718 145.253C951.365 143.602 953.546 142.412 955.007 143.369C955.698 143.822 956.06 144.614 956.608 145.225C957.156 145.837 958.136 146.264 958.822 145.762C959.09 145.565 959.256 145.262 959.384 144.96C960.375 142.627 960.053 141.706 960.53 138.509C960.714 137.276 961.462 135.272 962.211 134.257C965.587 129.674 970.348 125.532 976.006 124.969C977.113 124.859 978.269 124.899 979.249 125.379C981.108 126.29 981.867 128.615 981.528 130.666C981.188 132.717 979.976 134.543 978.704 136.229C977.431 137.916 976.048 139.57 975.268 141.514C976.931 141.503 978.602 141.044 980.053 140.2C980.805 139.763 981.574 139.204 982.432 139.248C983.799 139.318 984.546 140.997 984.128 142.294C983.71 143.591 982.532 144.515 981.359 145.251C978.224 147.217 974.421 148.687 972.694 151.918C972.462 152.353 972.277 152.882 972.503 153.304C972.659 153.594 972.976 153.761 973.292 153.87C974.866 154.413 976.622 153.877 978.307 153.829C978.698 153.817 979.101 153.836 979.449 153.998C980.827 154.641 980.318 156.699 979.542 158.034C976.614 163.07 973.177 167.517 967.511 170.754L967.512 170.753Z" fill="#BEE0FF"/>
<path d="M975.434 132.322C971.24 136.401 967.714 141.134 964.965 146.298C962.242 151.413 960.286 156.938 959.181 162.627C958.56 165.825 958.221 169.074 958.158 172.331C958.152 172.656 957.648 172.632 957.654 172.307C957.765 166.475 958.783 160.669 960.627 155.137C962.479 149.579 965.157 144.289 968.571 139.527C970.515 136.816 972.698 134.279 975.089 131.953C975.322 131.726 975.666 132.096 975.433 132.322H975.434Z" fill="#72BEFF"/>
<path d="M823.266 111.08C823.266 111.08 823.22 104.548 830.199 100.782C837.177 97.0168 844.754 97.6997 849.832 99.6498C858.173 102.852 860.127 110.466 856.65 110.989C854.715 111.28 851.933 115.984 852.865 116.802C857.248 120.646 825.175 127.747 823.266 111.08Z" fill="#FDBAA0"/>
<path d="M867.053 137.025C865.444 137.715 862.296 138.912 859.039 139.965C858.295 140.227 854.94 141.258 851.877 141.985C851.836 141.993 851.795 142.003 851.754 142.013C846.464 143.258 840.762 144.015 836.347 143.118C836.322 143.116 833.751 142.416 830.844 140.973C830.398 140.752 829.912 140.584 829.388 140.464H829.387C825.037 139.467 818.204 141.879 814.041 143.502C812.23 144.209 810.413 144.974 808.649 145.741L806.107 119.521C808.509 118.83 790.034 115.049 792.955 114.26C801.539 111.937 817.699 107.732 825.189 105.258C825.257 105.201 832.674 102.994 835.144 101.209C862.36 131.758 845.765 113.143 851.375 119.426L854.282 117.56L855.275 123.804C860.232 129.369 866.109 135.963 867.054 137.025H867.053Z" fill="#FDBAA0"/>
<path d="M846.638 131.158C850.753 136.772 858.897 143.738 863.647 136.873C868.397 130.008 870.713 114.203 864.172 110.243C857.63 106.282 853.565 106.22 850.504 109.214C847.443 112.209 842.355 119.231 841.067 120.437C839.779 121.643 844.127 127.732 846.638 131.158Z" fill="#E8A595"/>
<path d="M829.988 140.61C827.147 138.683 825.1 135.688 824.357 132.333C824.301 132.08 824.689 131.969 824.746 132.224C825.465 135.469 827.43 138.388 830.182 140.255C830.396 140.399 830.204 140.755 829.989 140.61H829.988Z" fill="#E79780"/>
<path d="M825.314 105.503C823.811 108.551 822.865 111.873 822.544 115.256C822.454 116.207 822.414 117.161 822.421 118.116C822.422 118.376 822.019 118.382 822.016 118.12C821.993 114.67 822.598 111.218 823.804 107.984C824.144 107.073 824.529 106.18 824.959 105.309C825.074 105.075 825.428 105.27 825.314 105.502V105.503Z" fill="#E79780"/>
<path d="M848.086 153.78C847.113 153.189 846.8 151.908 847.391 150.935L883.419 91.5378C884.01 90.564 885.29 90.2505 886.263 90.8422C887.236 91.4331 887.549 92.714 886.958 93.6879L850.929 153.085C850.339 154.058 849.059 154.372 848.086 153.78Z" fill="#384955"/>
<g opacity="0.2">
<path d="M901.033 94.979C916.752 94.979 929.495 82.226 929.495 66.4944C929.495 50.7628 916.752 38.0098 901.033 38.0098C885.313 38.0098 872.57 50.7628 872.57 66.4944C872.57 82.226 885.313 94.979 901.033 94.979Z" fill="white"/>
</g>
<path d="M912.614 94.5505C911.076 95.2141 909.471 95.753 907.812 96.1592C900.041 98.0606 891.995 96.8205 885.156 92.6659C878.318 88.5114 873.505 81.9405 871.605 74.1631C869.705 66.3857 870.944 58.3341 875.096 51.4898C883.666 37.3614 902.123 32.8455 916.239 41.4216C923.077 45.5762 927.89 52.147 929.79 59.9244C931.69 67.701 930.451 75.7535 926.3 82.5978C923.035 87.9797 918.276 92.1078 912.614 94.5505ZM876.368 52.263L877.64 53.0353C869.922 65.7597 873.986 82.3955 886.7 90.1201C892.86 93.8621 900.106 94.9791 907.105 93.2664C914.104 91.5537 920.017 87.2161 923.756 81.0522C931.475 68.3279 927.41 51.6913 914.696 43.9674C901.981 36.2428 885.357 40.311 877.64 53.0353L876.368 52.263Z" fill="#384955"/>
<path d="M899.679 55.6591C901.666 53.5627 904.918 53.5475 907.195 55.1346C909.482 56.7289 910.95 60.2199 907.438 61.3185C906.013 61.7646 904.421 61.5144 902.956 61.815C901.266 62.162 899.665 62.94 898.333 64.0354C895.822 66.1015 894.244 69.0263 892.816 71.8903C890.94 75.6523 896.978 78.131 898.846 74.3858C899.705 72.6611 900.618 70.8101 902.024 69.4533C903.632 67.9013 905.498 68.2043 907.553 67.9293C912.395 67.28 916.535 63.2734 916.12 58.1786C915.735 53.4491 911.716 49.3337 907.306 48.0193C902.578 46.6104 897.868 48.1224 894.527 51.6477C891.635 54.6988 896.813 58.6807 899.678 55.6583L899.679 55.6591Z" fill="#127BF2"/>
<path d="M891.194 84.202C895.074 85.8076 897.574 79.7764 893.688 78.1677C889.808 76.5622 887.308 82.5933 891.194 84.202Z" fill="#127BF2"/>
<path d="M911.798 52.4553C912.669 53.3292 913.544 54.7077 913.65 55.955C913.688 56.406 914.384 56.3092 914.346 55.8591C914.223 54.4166 913.228 52.9031 912.229 51.9004C911.91 51.5806 911.483 52.1387 911.798 52.4553Z" fill="#72BEFF"/>
<path d="M913.84 57.7019C913.806 58.0458 913.771 58.3896 913.737 58.7334C913.691 59.1819 914.388 59.2715 914.433 58.8197C914.468 58.4759 914.503 58.1321 914.537 57.7883C914.583 57.3397 913.885 57.2502 913.84 57.7019Z" fill="#72BEFF"/>
<path d="M894.137 71.8326C893.826 72.693 893.62 73.7188 894.42 74.3824C894.768 74.6719 895.199 74.1162 894.851 73.8275C894.327 73.3926 894.594 72.6314 894.786 72.1005C894.939 71.6767 894.291 71.4056 894.137 71.8318V71.8326Z" fill="#72BEFF"/>
<path d="M893.375 79.8348C894.259 80.2274 894.019 81.342 893.745 82.052C893.583 82.4734 894.231 82.7436 894.394 82.3206C894.817 81.2228 894.915 79.7492 893.643 79.1855C893.23 79.0024 892.961 79.6517 893.374 79.8348H893.375Z" fill="#72BEFF"/>
<path d="M893.254 50.1964C892.372 51.3366 891.536 52.5551 891.708 54.0647C891.759 54.5141 892.455 54.4189 892.404 53.9688C892.255 52.6575 893.05 51.6084 893.809 50.6274C894.086 50.2692 893.531 49.8382 893.254 50.1956V50.1964Z" fill="#127BF2"/>
<path d="M908.873 69.1566C910.166 68.9887 911.612 68.5466 912.689 67.8014C913.062 67.5431 912.634 66.985 912.264 67.2417C911.29 67.9149 909.942 68.3091 908.777 68.4602C908.329 68.5186 908.423 69.215 908.873 69.1566Z" fill="#127BF2"/>
<path d="M895.804 78.7748C896.142 79.1018 896.357 79.5344 896.433 79.9965C896.507 80.4419 897.203 80.3483 897.129 79.9006C897.021 79.2457 896.71 78.6788 896.235 78.2199C895.91 77.9057 895.482 78.4638 895.804 78.7748Z" fill="#127BF2"/>
<path d="M896.439 81.378C896.423 81.5251 896.407 81.6722 896.391 81.8193C896.371 82.0016 896.505 82.1959 896.696 82.2111C896.884 82.2263 897.066 82.1016 897.087 81.9057C897.103 81.7586 897.119 81.6114 897.135 81.4643C897.155 81.282 897.021 81.0877 896.83 81.0725C896.642 81.0573 896.46 81.1821 896.439 81.378Z" fill="#127BF2"/>
<path d="M878.572 78.0067C881.282 81.8886 884.819 85.1516 888.909 87.5343C889.682 87.9845 890.525 86.8587 889.742 86.403C885.745 84.0738 882.318 80.9227 879.669 77.128C879.152 76.3868 878.056 77.2679 878.572 78.0075V78.0067Z" fill="#72BEFF"/>
<path d="M891.605 88.6139C892.707 89.1896 893.944 89.3927 895.176 89.2423C896.074 89.1328 895.879 87.7408 894.982 87.8503C893.976 87.9734 893.02 87.7767 892.124 87.3082C891.322 86.8892 890.81 88.1989 891.605 88.6139Z" fill="#72BEFF"/>
<path d="M835.632 98.7111C841.084 96.9744 854.637 94.9259 859.872 95.867C869.663 97.6269 878.418 94.4822 879.506 95.6351C880.595 96.7881 879.578 101.871 872.134 104.692C864.794 107.474 857.892 105.633 856.445 106.456C854.997 107.278 848.644 111.197 848.644 111.197C848.644 111.197 831.405 100.058 835.632 98.7111Z" fill="#FDBAA0"/>
<path d="M848.828 111.041C847.413 112.124 846.148 113.393 845.086 114.827C843.979 116.321 843.136 117.953 841.718 119.197C840.414 120.341 838.9 121.29 837.379 122.118C835.984 122.879 834.514 123.529 832.982 123.956C831.271 124.432 829.499 124.619 827.731 124.414C827.372 124.372 827.315 124.93 827.674 124.972C830.851 125.34 833.993 124.46 836.818 123.043C838.3 122.3 839.734 121.423 841.066 120.437C842.612 119.293 843.694 117.915 844.739 116.319C845.957 114.46 847.415 112.83 849.181 111.477C849.468 111.258 849.114 110.822 848.828 111.042V111.041Z" fill="#E79780"/>
<path d="M855.352 114.415C856.089 113.885 855.679 113.097 857.528 113.241C863.932 112.927 870.288 114.342 876.491 115.963C879.071 116.637 881.783 117.431 883.599 119.385C885.416 121.339 885.838 124.838 883.763 126.517C882.233 127.755 880.036 127.576 878.085 127.311C870.823 126.321 865.463 124.377 858.609 121.777C856.839 121.106 855.255 119.942 854.524 118.194C853.793 116.448 853.815 115.521 855.352 114.416V114.415Z" fill="#FDBAA0"/>
<path d="M875.55 124.31C878.27 123.784 881.048 125.836 882.935 127.865C884.822 129.895 885.26 133.531 883.106 135.274C881.516 136.56 879.232 136.375 877.206 136.099C869.661 135.072 865.695 132.06 858.574 129.359C856.734 128.661 853.953 127.205 853.879 125.752C853.674 121.744 859.165 121.988 867.327 124.818C870.156 125.799 873.688 124.67 875.55 124.309V124.31Z" fill="#FDBAA0"/>
<path d="M856.033 128.564C856.677 128.323 862.652 129.098 867.154 131.718C869.027 132.807 870.981 134.017 872.075 135.915C873.168 137.814 872.959 140.585 871.117 141.408C869.757 142.016 868.102 141.391 866.65 140.754C861.241 138.383 861.735 138.743 856.883 135.232C855.63 134.324 853.947 132.599 853.653 131.099C853.359 129.6 854.689 129.069 856.033 128.565V128.564Z" fill="#FDBAA0"/>
<path d="M857.289 105.976C862.968 105.697 867.118 105.897 872.619 107.334C874.908 107.932 877.312 108.636 878.923 110.369C880.534 112.101 880.908 115.204 879.069 116.693C877.712 117.792 875.763 117.633 874.034 117.398C867.592 116.521 861.371 116.724 855.617 113.698C849.205 110.326 855.649 105.847 857.29 105.976H857.289Z" fill="#FDBAA0"/>
<path d="M878.45 116.375C874.163 115.283 869.828 114.387 865.459 113.698C863.428 113.377 861.345 112.973 859.285 112.926C857.549 112.886 855.763 113.373 854.64 114.778C854.423 115.051 854.829 115.41 855.048 115.137C856.276 113.599 858.271 113.351 860.114 113.515C862.149 113.695 864.184 114.036 866.199 114.367C870.284 115.037 874.339 115.888 878.351 116.91C878.688 116.996 878.788 116.462 878.45 116.375Z" fill="#E79780"/>
<path d="M870.958 106.677C866.987 106.154 862.936 105.718 858.926 105.7C857.303 105.693 855.643 105.967 854.35 107.019C853.21 107.947 852.43 109.366 852.75 110.863C853.102 112.506 854.55 113.413 855.931 114.153C856.227 114.311 856.455 113.842 856.159 113.683C854.605 112.851 852.828 111.635 853.251 109.595C853.667 107.586 855.757 106.489 857.629 106.283C859.734 106.051 861.944 106.326 864.045 106.484C866.324 106.655 868.597 106.892 870.863 107.192C871.194 107.236 871.293 106.722 870.958 106.678V106.677Z" fill="#E79780"/>
<path d="M882.107 126.977C880.646 125.804 878.696 125.836 876.921 125.68C875.305 125.538 873.692 125.353 872.088 125.102C868.999 124.619 865.951 123.896 862.892 123.255C862.558 123.184 862.461 123.706 862.796 123.777C865.753 124.396 868.701 125.093 871.685 125.576C873.195 125.82 874.714 126.005 876.238 126.149C878.048 126.32 880.261 126.175 881.758 127.376C882.024 127.589 882.375 127.191 882.109 126.977H882.107Z" fill="#E79780"/>
<path d="M872.268 135.941C871.573 134.805 869.978 134.161 868.839 133.532C867.437 132.757 866.017 132.014 864.58 131.306C863.091 130.572 861.581 129.869 860.033 129.266C858.946 128.843 857.771 128.38 856.594 128.306C855.171 128.217 853.128 129.496 853.414 131.117C853.467 131.417 853.944 131.385 853.891 131.081C853.63 129.598 855.615 128.64 856.856 128.813C857.994 128.972 859.101 129.406 860.162 129.831C862.919 130.936 865.581 132.298 868.186 133.72C868.757 134.031 869.325 134.348 869.888 134.672C870.611 135.089 871.424 135.477 871.871 136.209C872.032 136.472 872.429 136.205 872.268 135.944V135.941Z" fill="#E79780"/>
<path d="M866.945 140.741C864.915 139.896 862.966 138.829 861.084 137.698C859.029 136.463 856.939 135.113 855.261 133.383C854.666 132.771 853.952 131.978 853.89 131.081C853.868 130.774 853.391 130.809 853.413 131.117C853.466 131.881 853.924 132.565 854.4 133.137C855.106 133.988 855.953 134.716 856.824 135.393C858.904 137.011 861.186 138.383 863.51 139.617C864.564 140.176 865.635 140.711 866.737 141.17C867.02 141.288 867.231 140.858 866.946 140.74L866.945 140.741Z" fill="#E79780"/>
<path d="M864.135 123.542C861.802 123.089 859.441 122.079 857.435 120.803C855.713 119.709 853.195 117.204 855.045 115.137C855.278 114.876 854.871 114.518 854.637 114.778C852.801 116.832 854.627 119.41 856.407 120.748C857.447 121.531 858.623 122.116 859.804 122.653C861.164 123.271 862.566 123.789 864.035 124.074C864.377 124.141 864.478 123.607 864.135 123.54V123.542Z" fill="#E79780"/>
<path d="M855.418 107.96C856.386 107.422 857.562 107.404 858.565 107.528C859.109 107.596 859.672 107.713 860.164 107.983C860.651 108.248 860.751 108.661 860.781 109.307C860.823 110.224 860.588 112.556 859.626 112.773C859.345 112.836 859.026 112.795 858.75 112.774C857.727 112.698 856.67 112.492 855.768 111.926C854.566 111.17 853.892 109.1 855.417 107.96H855.418Z" fill="#FFD1C3"/>
<path d="M856.652 114.917C857.692 114.566 858.834 114.764 859.782 115.071C860.295 115.237 860.818 115.455 861.244 115.81C861.664 116.16 861.684 116.584 861.589 117.223C861.456 118.13 860.784 120.376 859.81 120.412C859.526 120.422 859.226 120.324 858.962 120.253C857.985 119.991 857.001 119.594 856.236 118.873C855.216 117.911 854.959 115.754 856.652 114.917Z" fill="#FFD1C3"/>
<path d="M856.063 123.457C857.026 123.177 858.098 123.378 858.991 123.671C859.474 123.829 859.968 124.032 860.375 124.353C860.776 124.669 860.804 125.04 860.732 125.596C860.629 126.385 860.057 128.33 859.15 128.337C858.885 128.339 858.602 128.246 858.353 128.177C857.434 127.924 856.505 127.553 855.773 126.903C854.797 126.038 854.502 124.148 856.063 123.458V123.457Z" fill="#FFD1C3"/>
<path d="M856.078 129.387C856.908 129.213 857.743 129.479 858.419 129.812C858.784 129.992 859.15 130.214 859.425 130.533C859.697 130.848 859.656 131.183 859.502 131.675C859.284 132.373 858.485 134.068 857.747 134.002C857.531 133.983 857.318 133.876 857.127 133.795C856.425 133.494 855.734 133.088 855.251 132.448C854.606 131.595 854.691 129.88 856.078 129.387Z" fill="#FFD1C3"/>
<path d="M879.505 95.6345C879.505 95.6345 878.841 97.304 876.941 97.3088C875.041 97.3136 873.741 97.256 873.741 97.256L872.875 95.9871C872.875 95.9871 877.22 94.6606 879.505 95.6345Z" fill="#FFD1C3"/>
<path d="M755 110.848L761.291 165.419C761.916 165.253 769.481 162.658 779.141 159.23C796.17 153.188 819.689 144.551 823.115 142.028C823.456 141.632 823.62 141.192 823.676 140.744L823.674 140.722C824.055 137.318 817.538 132.229 816.247 128.479C813.393 120.308 816.006 114.462 816.035 110.615C816.042 110.305 816.266 108.58 816.233 108.297C815.951 106.035 810.207 108.709 804.135 109.153C802.301 109.27 770.304 110.343 755 110.849V110.848Z" fill="#49B2A4"/>
<path d="M821.361 136.789C821.206 138.633 819.832 139.93 818.231 140.584C815.978 141.504 813.535 140.94 811.189 141.004C808.309 141.083 805.806 142.554 803.179 143.593C800.65 144.594 797.966 145.03 795.262 144.884C794.809 144.859 794.828 144.133 795.284 144.158C797.834 144.295 800.365 143.908 802.761 142.986C805.101 142.087 807.333 140.763 809.838 140.394C812.154 140.054 814.515 140.7 816.814 140.256C818.55 139.921 820.488 138.754 820.654 136.767C820.693 136.304 821.399 136.321 821.36 136.789H821.361Z" fill="#63D5C2"/>
<path d="M800.071 141.546C799.695 141.564 799.319 141.583 798.942 141.602C798.489 141.624 798.512 140.898 798.965 140.876C799.341 140.857 799.717 140.838 800.094 140.82C800.547 140.797 800.524 141.523 800.071 141.546Z" fill="#63D5C2"/>
<path d="M797.426 139.35C797.331 139.355 797.237 139.36 797.143 139.365C796.959 139.373 796.788 139.176 796.802 138.99C796.817 138.782 796.968 138.647 797.166 138.638C797.26 138.633 797.354 138.628 797.448 138.623C797.632 138.615 797.803 138.812 797.79 138.998C797.775 139.206 797.624 139.341 797.426 139.35Z" fill="#63D5C2"/>
<path d="M810.225 116.003C808.616 114.403 806.168 115.14 804.376 115.958C802.333 116.892 800.454 117.739 798.169 117.624C796.064 117.517 794.032 116.853 792.004 116.326C789.696 115.726 787.369 115.429 784.991 115.719C782.301 116.047 779.727 117.017 777.454 118.53C777.071 118.786 776.731 118.149 777.111 117.896C781.173 115.19 786.13 114.278 790.852 115.302C793.15 115.8 795.391 116.656 797.743 116.865C798.935 116.971 800.125 116.889 801.272 116.52C802.556 116.108 803.733 115.41 804.986 114.914C806.861 114.171 809.18 113.954 810.734 115.498C811.062 115.823 810.551 116.327 810.225 116.003Z" fill="#63D5C2"/>
<path d="M808.668 124.067C808.006 124.53 807.303 124.888 806.551 125.168C806.123 125.326 805.96 124.619 806.385 124.462C807.075 124.206 807.719 123.856 808.325 123.433C808.702 123.17 809.042 123.806 808.668 124.067Z" fill="#63D5C2"/>
<path d="M806.007 123.72C805.607 123.846 805.206 123.973 804.805 124.1C804.37 124.237 804.205 123.531 804.639 123.394C805.039 123.267 805.441 123.14 805.841 123.014C806.276 122.876 806.441 123.582 806.007 123.72Z" fill="#63D5C2"/>
<path d="M812.374 143.049C812.025 143.012 811.676 142.975 811.328 142.938C810.879 142.891 810.896 142.164 811.35 142.212C811.699 142.249 812.048 142.286 812.397 142.323C812.846 142.37 812.829 143.097 812.375 143.049H812.374Z" fill="#63D5C2"/>
<path d="M777.144 147.106C777.452 146.887 777.786 146.728 778.142 146.614C778.577 146.474 778.742 147.181 778.308 147.32C778.013 147.415 777.742 147.56 777.487 147.741C777.33 147.853 777.092 147.761 777.007 147.601C776.907 147.415 776.987 147.218 777.144 147.106Z" fill="#63D5C2"/>
<path d="M790.841 149.286C790.413 149.507 789.985 149.727 789.557 149.947C789.15 150.157 788.807 149.523 789.214 149.312C789.642 149.092 790.07 148.872 790.498 148.651C790.905 148.442 791.248 149.076 790.841 149.286Z" fill="#63D5C2"/>
<path d="M787.841 136.965C787.434 136.985 787.026 137.006 786.618 137.026C786.164 137.048 786.188 136.322 786.641 136.3C787.048 136.28 787.456 136.259 787.864 136.239C788.318 136.216 788.294 136.942 787.841 136.965Z" fill="#63D5C2"/>
<path d="M789.033 136C788.841 135.932 788.655 135.916 788.457 135.963C788.013 136.067 787.846 135.36 788.291 135.257C788.605 135.183 788.93 135.195 789.236 135.304C789.415 135.368 789.529 135.562 789.473 135.755C789.419 135.938 789.214 136.064 789.033 136Z" fill="#63D5C2"/>
<path d="M787.583 124.944C787.082 125.031 786.624 125.203 786.187 125.47C785.795 125.709 785.454 125.074 785.845 124.835C786.331 124.537 786.859 124.336 787.417 124.238C787.863 124.159 788.032 124.864 787.583 124.944Z" fill="#63D5C2"/>
<path d="M788.529 122.871C788.435 122.875 788.34 122.88 788.247 122.884C788.062 122.893 787.891 122.696 787.905 122.51C787.92 122.301 788.071 122.167 788.269 122.157C788.364 122.153 788.458 122.148 788.551 122.144C788.736 122.135 788.907 122.333 788.893 122.518C788.878 122.727 788.727 122.861 788.529 122.871Z" fill="#63D5C2"/>
<path d="M774.297 129.383C773.812 129.574 773.355 129.827 772.924 130.124C772.545 130.385 772.206 129.748 772.581 129.489C773.069 129.154 773.583 128.892 774.13 128.677C774.555 128.511 774.717 129.219 774.297 129.383Z" fill="#63D5C2"/>
<path d="M774.577 127.222C774.422 127.289 774.265 127.356 774.109 127.423C773.939 127.496 773.72 127.472 773.629 127.282C773.552 127.123 773.584 126.867 773.767 126.788C773.922 126.721 774.079 126.654 774.235 126.587C774.405 126.514 774.624 126.538 774.715 126.728C774.792 126.887 774.76 127.143 774.577 127.222Z" fill="#63D5C2"/>
<path d="M813.378 132.17C812.963 132.22 812.564 132.206 812.154 132.12C811.967 132.081 811.866 131.844 811.918 131.668C811.977 131.467 812.17 131.384 812.358 131.424C812.636 131.482 812.93 131.498 813.213 131.464C813.402 131.442 813.591 131.523 813.64 131.731C813.68 131.904 813.57 132.148 813.379 132.17H813.378Z" fill="#63D5C2"/>
<path d="M811.333 130.726C811.302 130.728 811.27 130.729 811.239 130.731C811.055 130.74 810.884 130.542 810.897 130.357C810.912 130.148 811.063 130.015 811.262 130.004C811.293 130.003 811.325 130.001 811.356 129.999C811.541 129.991 811.711 130.188 811.698 130.374C811.683 130.582 811.532 130.717 811.333 130.726Z" fill="#63D5C2"/>
<path d="M803.297 147.318C802.934 147.44 802.553 147.489 802.172 147.472C801.719 147.45 801.738 146.724 802.194 146.746C802.518 146.761 802.823 146.716 803.131 146.613C803.564 146.468 803.728 147.175 803.297 147.319V147.318Z" fill="#63D5C2"/>
<path d="M803.883 145.565C803.759 145.602 803.634 145.64 803.51 145.678C803.333 145.732 803.12 145.597 803.084 145.411C803.045 145.21 803.154 145.03 803.344 144.972C803.468 144.935 803.593 144.897 803.717 144.859C803.894 144.805 804.107 144.939 804.143 145.126C804.182 145.326 804.073 145.507 803.883 145.565Z" fill="#63D5C2"/>
<path d="M798.546 114.901C798.42 114.873 798.293 114.845 798.167 114.817C797.985 114.777 797.87 114.54 797.93 114.365C797.997 114.168 798.176 114.078 798.37 114.121C798.497 114.149 798.624 114.177 798.75 114.205C798.931 114.245 799.046 114.481 798.986 114.656C798.919 114.854 798.74 114.943 798.546 114.901Z" fill="#63D5C2"/>
<path d="M799.545 114.083C799.482 114.086 799.42 114.089 799.356 114.092C799.171 114.101 799.001 113.903 799.014 113.718C799.03 113.509 799.181 113.375 799.379 113.365C799.442 113.362 799.504 113.359 799.567 113.356C799.752 113.347 799.923 113.544 799.909 113.73C799.894 113.939 799.743 114.073 799.545 114.083Z" fill="#63D5C2"/>
<path d="M772.173 118.413C769.463 118.88 766.709 118.608 764.147 117.591C763.726 117.424 763.925 116.726 764.35 116.894C766.796 117.865 769.416 118.153 772.006 117.707C772.451 117.631 772.622 118.336 772.172 118.413H772.173Z" fill="#63D5C2"/>
<path d="M755.734 117.199L761.294 165.428C761.917 165.253 769.487 162.659 779.15 159.23C779.15 159.23 775.027 154.883 769.69 155.191C768.467 155.262 767.647 154.23 767.058 152.556C766.979 152.333 766.904 152.097 766.834 151.852C765.887 148.578 765.612 143.465 765.053 139.139C765.021 138.886 764.989 138.635 764.953 138.387C764.504 135.197 763.863 132.546 762.622 131.559C758.594 128.362 758.701 117.89 755.735 117.2L755.734 117.199Z" fill="#40A696"/>
<path d="M811.777 123.945C811.718 127.133 808.899 129.34 806.047 129.837C802.138 130.517 798.386 128.782 794.512 128.682C790.245 128.573 786.378 131.039 782.682 132.932C780.846 133.872 779.01 134.813 777.174 135.754C775.364 136.68 773.551 137.616 771.638 138.299C768.105 139.562 763.913 139.815 760.778 137.401C760.416 137.122 760.782 136.5 761.146 136.779C763.905 138.904 767.529 138.841 770.703 137.852C772.576 137.267 774.345 136.388 776.095 135.496C777.885 134.583 779.674 133.664 781.462 132.746C784.785 131.044 788.184 128.899 791.872 128.178C795.521 127.464 799 128.822 802.598 129.185C804.597 129.387 806.728 129.276 808.484 128.163C809.938 127.242 811.037 125.72 811.071 123.923C811.079 123.456 811.786 123.476 811.777 123.945Z" fill="#63D5C2"/>
<path d="M777.736 149.196C775.547 150.488 773.229 151.295 770.717 151.619C768.284 151.94 765.821 151.865 763.371 151.787L763.543 152.518C768.219 152.666 772.908 152.6 777.163 150.356C779.24 149.254 781.212 147.776 783.29 146.545C785.491 145.235 787.808 144.218 790.438 144.268C790.892 144.266 790.908 143.537 790.455 143.539C787.444 143.472 784.83 144.757 782.34 146.301C780.789 147.238 779.281 148.294 777.738 149.197L777.736 149.196Z" fill="#63D5C2"/>
<path d="M855.75 51.7486C856.084 50.6436 857.132 49.9551 858.279 50.0351C859.168 50.0975 860.612 50.7667 860.119 51.8565C859.834 52.4866 859.179 52.708 858.63 53.0527C857.983 53.458 857.433 53.9786 857.045 54.6414C856.283 55.9423 856.196 57.5158 856.189 58.9862C856.18 60.7573 858.929 60.7589 858.938 58.9862C858.942 58.1595 858.937 57.3 859.206 56.5076C859.485 55.6824 860.052 55.4314 860.762 55.002C862.536 53.929 863.61 51.6806 862.553 49.7225C861.557 47.8787 859.24 47.0527 857.25 47.3549C855.267 47.6556 853.675 49.11 853.099 51.017C852.586 52.7152 855.238 53.4412 855.75 51.7486Z" fill="#FF8D67"/>
<path d="M857.778 64.0345C859.547 64.0345 859.55 61.2832 857.778 61.2832C856.006 61.2832 856.006 64.0345 857.778 64.0345Z" fill="#FF8D67"/>
<path d="M948.809 54.5547C949.836 53.3897 951.488 53.0195 952.882 53.7607C954.153 54.4355 955.487 56.2761 954.084 57.4939C953.465 58.0312 952.719 58.06 951.945 58.1375C951.161 58.2159 950.413 58.4006 949.752 58.8508C948.453 59.7367 947.694 61.1599 947.048 62.5512C946.564 63.5914 948.109 64.5037 948.596 63.4571C948.984 62.6223 949.389 61.7476 949.988 61.0392C950.665 60.2388 951.399 59.9853 952.418 59.8934C954.369 59.7183 956.41 58.5917 956.487 56.3897C956.561 54.2868 954.801 52.4686 952.913 51.8329C951.021 51.1957 948.858 51.793 947.542 53.2858C946.782 54.1485 948.045 55.4222 948.81 54.5547H948.809Z" fill="#384955"/>
<path d="M946.343 67.6878C947.497 67.6878 947.498 65.8936 946.343 65.8936C945.188 65.8936 945.188 67.6878 946.343 67.6878Z" fill="#384955"/>
<path d="M944.891 87.3045C946.308 85.6023 948.796 85.4304 950.616 86.533C952.445 87.6404 953.74 90.2389 951.107 91.2528C950.038 91.6646 948.808 91.551 947.702 91.8533C946.426 92.2019 945.239 92.8759 944.274 93.7802C942.454 95.4849 941.39 97.8013 940.439 100.062C939.188 103.034 943.931 104.633 945.176 101.675C945.748 100.313 946.356 98.8519 947.365 97.7445C948.519 96.4772 949.962 96.6179 951.521 96.3061C955.194 95.5705 958.165 92.3002 957.597 88.4223C957.07 84.8219 953.791 81.8715 950.352 81.0831C946.666 80.238 943.136 81.6268 940.753 84.4893C938.69 86.9663 942.848 89.7584 944.892 87.3045H944.891Z" fill="#49B2A4"/>
<path d="M939.803 109.564C942.851 110.602 944.468 105.863 941.415 104.823C938.367 103.786 936.751 108.525 939.803 109.564Z" fill="#49B2A4"/>
<path d="M823.677 69.1006C823.266 67.2688 824.436 65.5074 826.116 64.8525C827.804 64.1945 830.218 64.6662 829.538 66.9602C829.262 67.8909 828.55 68.6601 828.182 69.5604C827.757 70.5982 827.596 71.7448 827.705 72.861C827.909 74.9655 828.915 76.8764 829.942 78.6842C831.291 81.059 834.814 78.697 833.471 76.3327C832.852 75.2437 832.185 74.0811 831.963 72.8306C831.709 71.4002 832.548 70.5023 833.144 69.2933C834.548 66.4437 833.887 62.7569 830.99 61.1361C828.301 59.6313 824.627 60.3118 822.322 62.2163C819.85 64.2584 818.96 67.3488 819.65 70.4303C820.247 73.0969 824.269 71.7432 823.677 69.1014V69.1006Z" fill="#51C6D4"/>
<path d="M835.991 84.0189C838.262 82.5053 835.916 78.9713 833.642 80.4872C831.371 82.0008 833.718 85.5349 835.991 84.0189Z" fill="#51C6D4"/>
</svg>
