<svg width="80" height="80" viewBox="0 0 80 80" fill="none" xmlns="http://www.w3.org/2000/svg">
<rect width="80" height="80" rx="24" fill="white"/>
<g filter="url(#filter0_ii_5594_16263)">
<path d="M28.2199 17C24.4072 17 20.5945 20.8329 20.5945 24.6658V54.4773C20.5945 59.1619 24.4074 62.9948 29.0676 62.9948H48.1322C59.9946 62.9948 67.1968 45.108 53.0043 37.868C59.9946 29.3505 53.0043 17 43.472 17H28.2199Z" fill="url(#paint0_radial_5594_16263)"/>
</g>
<g opacity="0.15" filter="url(#filter1_f_5594_16263)">
<path d="M29.0674 31.27V51.2383C29.0674 53.0378 30.434 54.0515 31.8662 54.0515H47.0685C52.4391 54.0515 52.4391 44.8561 47.0685 44.8561H39.2894C38.9314 44.8561 38.5733 44.4962 38.5733 44.1363V31.27C38.5733 25.8716 29.0674 25.8716 29.0674 31.27Z" fill="white"/>
</g>
<path d="M29.9143 31.7194V49.8999C29.9143 51.615 31.637 52.9871 33.0151 52.9871H46.7965C51.9645 52.9871 51.9645 45.4405 46.7965 45.4405H39.1744C38.4188 45.4405 37.8386 44.9288 37.8386 44.1895V31.7194C37.8386 26.574 29.9143 26.574 29.9143 31.7194Z" fill="white"/>
<defs>
<filter id="filter0_ii_5594_16263" x="18.16" y="15.0276" width="44.6522" height="51.9118" filterUnits="userSpaceOnUse" color-interpolation-filters="sRGB">
<feFlood flood-opacity="0" result="BackgroundImageFix"/>
<feBlend mode="normal" in="SourceGraphic" in2="BackgroundImageFix" result="shape"/>
<feColorMatrix in="SourceAlpha" type="matrix" values="0 0 0 0 0 0 0 0 0 0 0 0 0 0 0 0 0 0 127 0" result="hardAlpha"/>
<feOffset dx="-2.43448" dy="3.94476"/>
<feGaussianBlur stdDeviation="2.70498"/>
<feComposite in2="hardAlpha" operator="arithmetic" k2="-1" k3="1"/>
<feColorMatrix type="matrix" values="0 0 0 0 1 0 0 0 0 1 0 0 0 0 1 0 0 0 0.35 0"/>
<feBlend mode="normal" in2="shape" result="effect1_innerShadow_5594_16263"/>
<feColorMatrix in="SourceAlpha" type="matrix" values="0 0 0 0 0 0 0 0 0 0 0 0 0 0 0 0 0 0 127 0" result="hardAlpha"/>
<feOffset dx="1.97238" dy="-1.97238"/>
<feGaussianBlur stdDeviation="2.02873"/>
<feComposite in2="hardAlpha" operator="arithmetic" k2="-1" k3="1"/>
<feColorMatrix type="matrix" values="0 0 0 0 0 0 0 0 0 0.225 0 0 0 0 0.5625 0 0 0 0.2 0"/>
<feBlend mode="normal" in2="effect1_innerShadow_5594_16263" result="effect2_innerShadow_5594_16263"/>
</filter>
<filter id="filter1_f_5594_16263" x="22.164" y="20.3179" width="35.8357" height="40.6367" filterUnits="userSpaceOnUse" color-interpolation-filters="sRGB">
<feFlood flood-opacity="0" result="BackgroundImageFix"/>
<feBlend mode="normal" in="SourceGraphic" in2="BackgroundImageFix" result="shape"/>
<feGaussianBlur stdDeviation="3.45167" result="effect1_foregroundBlur_5594_16263"/>
</filter>
<radialGradient id="paint0_radial_5594_16263" cx="0" cy="0" r="1" gradientUnits="userSpaceOnUse" gradientTransform="translate(38.3872 43.4044) rotate(84.1614) scale(24.8632 21.7606)">
<stop stop-color="#0B78F3"/>
<stop offset="1" stop-color="#0F7DFF"/>
</radialGradient>
</defs>
</svg>
