<svg width="84" height="28" viewBox="0 0 84 28" fill="none" xmlns="http://www.w3.org/2000/svg">
<path d="M84 2.35144C84 1.51168 82.7869 9.65365e-05 80.3607 9.63211e-05L80.3607 11.7568C82.6899 11.7568 84 11.7567 84 8.99044L84 2.35144Z" fill="#2D84AA"/>
<path d="M0 22.8695C0 25.1766 1.87029 27.0469 4.17742 27.0469H79.3153C79.8921 27.0469 80.3597 26.5793 80.3597 26.0025V7.06042H4.17742C1.8703 7.06042 0 8.93071 0 11.2378V22.8695Z" fill="#2C80A5"/>
<path d="M0 21.6946C0 24.0018 1.87029 25.8721 4.17742 25.8721H80.3597V4.70994H4.17742C1.8703 4.70994 0 6.58023 0 8.88736V21.6946Z" fill="#00ACF5"/>
<path d="M15.5771 12.806H16.6001V15.677C16.2591 15.699 15.9181 15.71 15.5771 15.721V12.806ZM19.1411 15.479C18.7671 15.523 18.3821 15.567 17.9861 15.6V12.806H18.7891V11.651H13.3881V12.806H14.1801V15.743L13.1241 15.754L13.2781 16.931C14.9611 16.931 17.2491 16.887 19.2401 16.535L19.1411 15.479ZM16.0721 17.58H14.6201V20.77H21.5171V19.615H16.0721V17.58ZM21.1541 13.675V10.815H19.7021V18.273H21.1541V14.874H22.4961V13.675H21.1541ZM24.6372 12.993H25.9352V17.283H24.6372V12.993ZM23.2842 18.416H27.2772V11.849H23.2842V18.416ZM30.3132 10.804V14.676H29.4662V10.969H28.1132V20.484H29.4662V15.842H30.3132V20.935H31.6882V10.804H30.3132ZM36.5353 12.982H38.5483V11.783H32.9823V12.982H35.0833V13.543C35.0833 15.215 34.2583 17.118 32.5973 17.888L33.4113 19.043C34.5663 18.493 35.3803 17.382 35.8313 16.062C36.2823 17.261 37.0743 18.273 38.1963 18.79L38.9993 17.646C37.3383 16.876 36.5353 15.083 36.5353 13.543V12.982ZM42.2223 14.676H40.7483V10.815H39.2963V20.946H40.7483V15.875H42.2223V14.676ZM48.7447 12.982H50.8347V11.783H45.1587V12.982H47.2707V13.543C47.2707 15.27 46.4457 17.129 44.7517 17.888L45.5767 19.043C46.7647 18.504 47.5787 17.393 48.0297 16.073C48.4807 17.294 49.2837 18.284 50.4607 18.79L51.2527 17.646C49.5587 16.942 48.7447 15.193 48.7447 13.543V12.982ZM51.7697 10.815V20.946H53.2217V10.815H51.7697ZM59.8178 16.7V17.69H61.7208V18.493H63.1728V10.815H61.7208V16.7H59.8178ZM57.8708 12.212C58.5418 12.212 59.0148 12.476 59.0148 12.971C59.0148 13.466 58.5418 13.719 57.8708 13.719C57.1888 13.719 56.7158 13.466 56.7158 12.971C56.7158 12.476 57.1888 12.212 57.8708 12.212ZM57.8708 14.775C59.3448 14.775 60.3898 14.049 60.3898 12.971C60.3898 11.893 59.3448 11.156 57.8708 11.156C56.3858 11.156 55.3408 11.893 55.3408 12.971C55.3408 14.049 56.3858 14.775 57.8708 14.775ZM57.3318 19.615V18.229H58.7288V16.315C59.5428 16.26 60.3568 16.172 61.1488 16.029L61.0498 14.995C58.9158 15.27 56.4518 15.292 54.6038 15.303L54.7908 16.458C55.5498 16.458 56.3968 16.447 57.2878 16.403V17.756H55.8798V20.77H63.3928V19.615H57.3318Z" fill="white"/>
<path d="M84 20.351C84 24.946 81.2705 25.865 80.3607 25.865V4.70291C83.3935 4.70291 84 3.52724 84 2.35156V20.351Z" fill="#00ACF5"/>
</svg>
