<svg width="16" height="16" viewBox="0 0 16 16" fill="none" xmlns="http://www.w3.org/2000/svg">
<path d="M14 10.4825L15.425 9.05748C16.01 8.47248 16.01 7.51998 15.425 6.93498L14 5.51748V3.49998C14 2.67498 13.325 1.99998 12.5 1.99998H10.4825L9.05748 0.57498C8.47248 -0.0100195 7.51998 -0.0100195 6.93498 0.57498L5.51748 1.99998H3.49998C2.67498 1.99998 1.99998 2.67498 1.99998 3.49998V5.51748L0.57498 6.94248C-0.0100195 7.52748 -0.0100195 8.47998 0.57498 9.06498L1.99998 10.49V12.5C1.99998 13.325 2.67498 14 3.49998 14H5.51748L6.94248 15.425C7.52748 16.01 8.47998 16.01 9.06498 15.425L10.49 14H12.5C13.325 14 14 13.325 14 12.5V10.4825ZM7.99998 12.5C5.51748 12.5 3.49998 10.4825 3.49998 7.99998C3.49998 5.51748 5.51748 3.49998 7.99998 3.49998C10.4825 3.49998 12.5 5.51748 12.5 7.99998C12.5 10.4825 10.4825 12.5 7.99998 12.5Z" fill="#949DAA"/>
</svg>
