<svg width="176" height="153" viewBox="0 0 176 153" fill="none" xmlns="http://www.w3.org/2000/svg">
<ellipse cx="88" cy="146.646" rx="88" ry="5.9661" fill="#87A0C8"/>
<path d="M46.6164 139.273C46.9087 138.964 48.2861 138.959 48.4119 139.417C48.6155 140.158 48.0304 141.054 47.2655 140.973C47.1534 140.961 47.0587 140.945 46.992 140.926C46.6291 140.819 46.3241 139.582 46.6164 139.273Z" fill="white"/>
<path d="M29.5236 139.633C29.7683 139.373 30.9265 139.368 31.0318 139.753C31.2035 140.381 30.7154 141.128 30.0685 141.06C29.9748 141.05 29.8954 141.038 29.8388 141.022C29.5295 140.937 29.278 139.895 29.5236 139.633Z" fill="white"/>
<path d="M39.3136 63.0405C40.8383 63.3037 41.8185 64.8065 41.4448 66.308L41.1485 67.4986L40.9692 68.237C40.7704 69.1717 34.5759 68.7758 35.0144 67.6788L35.384 66.8707L36.4371 64.5603C36.9391 63.4589 38.1208 62.8345 39.3136 63.0405Z" fill="#F7A58E"/>
<path d="M45.7589 57.6425C45.8218 61.9463 43.8241 65.4472 40.6971 65.4319C37.5702 65.4166 34.5443 62.7637 34.4347 57.5872C34.365 54.2895 36.9992 51.6273 40.1278 51.6392C43.2565 51.6511 45.7105 54.3413 45.7589 57.6425Z" fill="#F7A58E"/>
<path d="M39.7069 50.4837C40.0452 50.4577 40.3856 50.4616 40.7222 50.5047C42.2151 50.6959 46.5398 51.5844 46.9679 55.482C47.6596 59.6236 44.553 56.579 43.2843 59.3584C41.775 62.6638 41.8859 67.3461 38.2722 66.9667C35.9309 66.7209 33.5744 65.9524 32.1688 64.5584C31.621 64.0152 31.3082 63.2858 31.1548 62.5297C30.1459 57.5578 32.602 51.0308 39.7069 50.4837Z" fill="black"/>
<path d="M41.1749 139.229C41.2946 140.138 42.0586 140.837 42.9758 140.837C43.9425 140.837 44.7322 140.065 44.7514 139.098C45.0236 125.378 44.9652 110.69 44.856 99.5155C44.8152 95.3442 44.6997 93.2343 43.9434 90.7302C42.4139 85.6727 35.2312 87.2302 34.7214 91.8136C34.5231 94.1879 34.3744 98.6707 38.1811 112.976C38.7395 115.074 38.6696 117.281 38.5005 119.446C38.0172 125.635 40.2977 132.568 41.1749 139.229Z" fill="#00050D"/>
<path d="M46.5993 141.053C46.5457 141.05 46.4843 141.042 46.4172 141.03C45.473 140.851 43.8843 140.701 42.9336 140.562C41.8127 140.395 40.834 140.698 40.6292 141.812C40.607 141.934 40.5904 142.052 40.5814 142.165C40.5306 142.802 41.1977 143.052 41.8367 143.052H44.7388C46.7826 143.052 48.6329 141.256 46.5993 141.053Z" fill="#00ACF5"/>
<path d="M37.6043 91.6834C36.9177 86.4458 27.5997 86.9836 26.9828 91.5568C26.7748 93.8505 26.1677 97.2162 27.4971 112.413C27.7016 114.75 27.1625 117.085 26.4615 119.324C24.3974 125.919 25.0108 134.09 24.0725 140.354C23.951 141.475 27.1264 141.745 27.3737 140.745C30.7572 127.075 35.4868 111.739 37.2449 100.366C37.8796 96.2431 37.9442 94.2776 37.6043 91.6834Z" fill="#00050D"/>
<path d="M29.0384 140.836C28.1283 140.788 26.9313 140.622 26.021 140.576C25.9662 140.573 25.9104 140.568 25.8536 140.559C24.7322 140.392 23.7529 140.695 23.5483 141.811C23.5261 141.932 23.5095 142.05 23.5006 142.162C23.4498 142.799 24.1169 143.049 24.7559 143.049H27.1947C29.4151 143.049 31.2479 141.057 29.0384 140.836Z" fill="#00ACF5"/>
<path d="M53.6001 64.8386C53.4445 64.3379 52.9297 64.0457 52.4178 64.1591C51.934 64.2663 51.5942 64.7052 51.587 65.2006C51.5797 65.6978 51.5619 66.2726 51.5579 66.895C51.553 67.6678 52.2403 68.2454 53.0065 68.1445C53.7985 68.0402 54.3169 67.2603 54.095 66.4928C53.9195 65.8856 53.7521 65.3276 53.6001 64.8386Z" fill="#F7A58E"/>
<path d="M53.0342 68.1421C52.1987 68.252 51.5695 68.9567 51.5471 69.7991C51.5432 69.9465 51.5393 70.0889 51.5353 70.2269C51.4862 71.9483 49.5429 72.9639 48.0934 72.0342L43.3577 68.9968C42.9428 68.7307 42.4885 68.4778 41.9975 68.5206C39.7141 68.7195 37.5717 72.7453 39.8879 74.9993C40.1756 75.2792 40.5259 75.482 40.8785 75.6737C43.1649 76.9168 52.2361 81.6651 54.5011 80.027C55.7426 79.1263 55.6029 73.3353 54.8412 69.3961C54.6794 68.5594 53.8792 68.031 53.0342 68.1421Z" fill="#E5F2FF"/>
<path d="M54.1034 62.2604C54.0439 62.1906 53.9791 62.1278 53.91 62.0714C52.756 61.127 51.4767 62.7896 51.5738 64.2777C51.5833 64.5846 51.6815 64.8208 51.8342 64.9874C52.552 65.7702 54.741 63.1098 54.1034 62.2604Z" fill="#F7A58E"/>
<path d="M52.2558 62.4465C52.2498 62.4172 52.2438 62.3882 52.2377 62.3595C51.8833 60.6798 51.1856 61.063 51.4393 62.7609C51.6372 63.7636 52.3281 63.1586 52.2558 62.4465Z" fill="#F7A58E"/>
<path d="M44.7825 76.0706C45.3713 73.2045 45.6874 70.3775 42.7338 68.593C40.9825 67.5377 35.3531 66.7848 32.7207 67.6584C30.3136 68.7343 30.5639 73.0927 30.2589 79.9927C30.1951 81.4371 29.8397 82.8524 29.2426 84.1691C28.4288 85.9636 27.8857 87.2226 27.4825 88.8469C27.0455 90.6079 27.3341 92.5802 28.9445 93.4162C30.1186 94.0257 31.9661 94.5502 34.8484 94.552C35.9256 94.552 37.178 94.5191 38.4428 94.411C42.5076 94.0635 44.1944 90.2725 43.3365 86.284C43.154 85.4351 42.9882 84.5273 42.8664 83.5379C42.8664 83.5354 44.74 76.3994 44.7825 76.0706Z" fill="#E5F2FF"/>
<path d="M31.3041 68.2335C28.0752 70.6977 24.9176 74.5834 23.4272 76.6457C22.2956 78.2115 19.7962 83.3637 18.6585 85.7534C18.3155 86.474 18.5359 87.3317 19.1782 87.8054C19.9246 88.3558 20.976 88.1957 21.5247 87.4481L26.4337 80.7596C26.9267 80.0879 27.5022 79.4807 28.1465 78.9523L35.2978 73.0879C38.1155 70.2167 34.454 65.8296 31.3041 68.2335Z" fill="#E5F2FF"/>
<path d="M17.1068 89.4352C17.0363 89.2169 17.0994 88.9845 17.1994 88.7781L17.8455 87.4458C18.1466 86.8247 19.4688 86.8418 20.0667 87.1868C20.6304 87.5121 20.8249 88.4386 20.445 88.967C19.9668 89.632 19.4391 90.3455 19.2309 90.5538C18.8544 90.9302 17.4191 90.4015 17.1068 89.4352Z" fill="#F7A58E"/>
<path d="M19.6339 89.9223C19.6349 89.979 19.6384 90.0377 19.628 90.0934C19.5536 91.2085 18.7494 91.7767 18.4383 91.9579C18.3984 91.9811 18.3602 92.0116 18.3143 92.0172C19.1802 91.8473 19.4393 93.0037 18.9941 93.2714C17.7195 94.1338 15.9045 92.9476 15.7516 92.2279C15.6966 91.9695 15.8481 91.4912 16.0649 90.9844C16.6215 89.6829 17.8523 88.2374 19.0762 88.9485C19.3988 89.136 19.6253 89.452 19.6339 89.9223Z" fill="#F7A58E"/>
<path d="M18.7733 89.8004C19.332 89.8791 19.6603 90.4599 19.4055 90.9633C19.0933 91.5796 18.5488 91.8981 18.3839 91.9821C18.3518 91.9985 18.3024 92.0041 18.2664 92.0029C17.8777 91.9906 17.6487 91.1917 17.7371 90.813C17.7696 90.6742 17.7801 90.5219 17.7609 90.3555C17.7381 90.1575 17.793 89.9414 17.979 89.8699C18.2374 89.7706 18.5173 89.7643 18.7733 89.8004Z" fill="#E6856A"/>
<path d="M19.6461 89.9362C19.7409 90.5 19.7677 91.1845 19.7368 91.8143C19.6906 92.7592 18.8215 93.0326 18.8686 92.0877C18.8848 91.7478 18.8363 91.0204 18.5032 90.7774C17.4785 90.0976 17.3136 89.4782 17.6892 88.9684C18.1905 88.2886 19.607 88.9786 19.6461 89.9362Z" fill="#F7A58E"/>
<path d="M16.474 92.9895C17.0306 93.3753 18.5023 94.123 18.7351 93.9386C18.9679 93.7542 17.7945 92.5001 17.0297 92.3344C16.265 92.1687 16.1894 92.7915 16.474 92.9895Z" fill="#F7A58E"/>
<path d="M11.7142 44.4003C11.721 44.3154 11.7253 44.2244 11.7253 44.1361C11.7253 43.2405 11.3695 42.3816 10.7362 41.7483C10.1029 41.115 9.24405 40.7593 8.34847 40.7593C7.45289 40.7593 6.59399 41.115 5.96072 41.7483C5.32745 42.3816 4.97168 43.2405 4.97168 44.1361C4.97168 44.221 4.97593 44.3128 4.98273 44.4003H11.7142Z" fill="#80B2FF"/>
<path d="M22.8082 44.4003C22.815 44.3154 22.8193 44.2244 22.8193 44.1361C22.8193 43.2405 22.4635 42.3816 21.8302 41.7483C21.1969 41.115 20.338 40.7593 19.4425 40.7593C18.5469 40.7593 17.688 41.115 17.0547 41.7483C16.4214 42.3816 16.0657 43.2405 16.0657 44.1361C16.0657 44.221 16.0657 44.3128 16.0767 44.4003H22.8082Z" fill="#80B2FF"/>
<path d="M25.6799 44.4005C25.6897 44.3128 25.6948 44.2245 25.6952 44.1362C25.7011 43.8188 25.6438 43.5034 25.5265 43.2084C25.4091 42.9135 25.2342 42.6448 25.0118 42.4182C24.7895 42.1916 24.5242 42.0117 24.2315 41.8888C23.9388 41.7659 23.6245 41.7026 23.307 41.7026C22.9896 41.7026 22.6753 41.7659 22.3826 41.8888C22.0898 42.0117 21.8245 42.1916 21.6022 42.4182C21.3798 42.6448 21.2049 42.9135 21.0876 43.2084C20.9702 43.5034 20.9129 43.8188 20.9189 44.1362C20.9188 44.2246 20.9239 44.3128 20.9342 44.4005H25.6799Z" fill="#80B2FF"/>
<path d="M18.9216 44.4006C19.0107 43.7036 18.9503 42.9957 18.7445 42.3239C18.5386 41.6521 18.192 41.0318 17.7277 40.5044C17.2635 39.9771 16.6922 39.5546 16.0519 39.2652C15.4117 38.9758 14.7171 38.8262 14.0145 38.8262C13.3118 38.8262 12.6173 38.9758 11.977 39.2652C11.3367 39.5546 10.7654 39.9771 10.3012 40.5044C9.83691 41.0318 9.49031 41.6521 9.28446 42.3239C9.07861 42.9957 9.01822 43.7036 9.10732 44.4006H18.9216Z" fill="#80B2FF"/>
<path d="M94.9171 5.81524C94.9239 5.73027 94.9281 5.63935 94.9281 5.55013C94.9281 4.65455 94.5724 3.79565 93.9391 3.16238C93.3058 2.52911 92.4469 2.17334 91.5513 2.17334C90.6558 2.17334 89.7969 2.52911 89.1636 3.16238C88.5303 3.79565 88.1746 4.65455 88.1746 5.55013C88.1746 5.63935 88.1788 5.72772 88.1856 5.81524H94.9171Z" fill="#80B2FF"/>
<path d="M106.013 5.81524C106.019 5.73027 106.024 5.63935 106.024 5.55013C106.024 4.65455 105.668 3.79565 105.035 3.16238C104.401 2.52911 103.542 2.17334 102.647 2.17334C101.751 2.17334 100.892 2.52911 100.259 3.16238C99.6258 3.79565 99.27 4.65455 99.27 5.55013C99.27 5.63935 99.27 5.72772 99.2811 5.81524H106.013Z" fill="#80B2FF"/>
<path d="M102.124 5.81591C102.206 5.14671 102.151 4.46767 101.962 3.8205C101.773 3.17333 101.453 2.57169 101.023 2.05252C100.593 1.53336 100.061 1.10763 99.46 0.801491C98.8592 0.495349 98.2022 0.315255 97.5292 0.27227C96.8563 0.229285 96.1817 0.324315 95.5469 0.551525C94.912 0.778736 94.3303 1.13333 93.8375 1.59353C93.3447 2.05373 92.9511 2.60982 92.681 3.22764C92.4109 3.84547 92.27 4.51199 92.2668 5.18626C92.267 5.39675 92.28 5.60702 92.3059 5.81591H102.124Z" fill="#80B2FF"/>
<path d="M77.1767 41.6072H75.9607C75.9174 41.6072 75.8759 41.59 75.8453 41.5595C75.8147 41.5289 75.7976 41.4874 75.7976 41.4441C75.7976 41.4008 75.8147 41.3593 75.8453 41.3287C75.8759 41.2981 75.9174 41.2809 75.9607 41.2809H77.1767C77.2199 41.2809 77.2614 41.2981 77.292 41.3287C77.3226 41.3593 77.3398 41.4008 77.3398 41.4441C77.3398 41.4874 77.3226 41.5289 77.292 41.5595C77.2614 41.59 77.2199 41.6072 77.1767 41.6072ZM74.7439 41.6072H73.5271C73.4838 41.6072 73.4423 41.59 73.4117 41.5595C73.3811 41.5289 73.364 41.4874 73.364 41.4441C73.364 41.4008 73.3811 41.3593 73.4117 41.3287C73.4423 41.2981 73.4838 41.2809 73.5271 41.2809H74.7439C74.7872 41.2809 74.8287 41.2981 74.8593 41.3287C74.8899 41.3593 74.907 41.4008 74.907 41.4441C74.907 41.4874 74.8899 41.5289 74.8593 41.5595C74.8287 41.59 74.7872 41.6072 74.7439 41.6072ZM72.3103 41.6072H71.0944C71.0511 41.6072 71.0096 41.59 70.979 41.5595C70.9484 41.5289 70.9312 41.4874 70.9312 41.4441C70.9312 41.4008 70.9484 41.3593 70.979 41.3287C71.0096 41.2981 71.0511 41.2809 71.0944 41.2809H72.3103C72.3536 41.2809 72.3951 41.2981 72.4257 41.3287C72.4563 41.3593 72.4735 41.4008 72.4735 41.4441C72.4735 41.4874 72.4563 41.5289 72.4257 41.5595C72.3951 41.59 72.3536 41.6072 72.3103 41.6072ZM69.8776 41.6072H68.6608C68.6175 41.6072 68.576 41.59 68.5454 41.5595C68.5148 41.5289 68.4976 41.4874 68.4976 41.4441C68.4976 41.4008 68.5148 41.3593 68.5454 41.3287C68.576 41.2981 68.6175 41.2809 68.6608 41.2809H69.8776C69.9208 41.2809 69.9623 41.2981 69.9929 41.3287C70.0235 41.3593 70.0407 41.4008 70.0407 41.4441C70.0407 41.4874 70.0235 41.5289 69.9929 41.5595C69.9623 41.59 69.9208 41.6072 69.8776 41.6072ZM67.444 41.6072H66.2272C66.1839 41.6072 66.1424 41.59 66.1118 41.5595C66.0812 41.5289 66.064 41.4874 66.064 41.4441C66.064 41.4008 66.0812 41.3593 66.1118 41.3287C66.1424 41.2981 66.1839 41.2809 66.2272 41.2809H67.444C67.4872 41.2809 67.5287 41.2981 67.5593 41.3287C67.5899 41.3593 67.6071 41.4008 67.6071 41.4441C67.6071 41.4874 67.5899 41.5289 67.5593 41.5595C67.5287 41.59 67.4872 41.6072 67.444 41.6072ZM65.0112 41.6072H63.7944C63.7511 41.6072 63.7096 41.59 63.679 41.5595C63.6484 41.5289 63.6313 41.4874 63.6313 41.4441C63.6313 41.4008 63.6484 41.3593 63.679 41.3287C63.7096 41.2981 63.7511 41.2809 63.7944 41.2809H65.0112C65.0545 41.2809 65.096 41.2981 65.1266 41.3287C65.1572 41.3593 65.1744 41.4008 65.1744 41.4441C65.1744 41.4874 65.1572 41.5289 65.1266 41.5595C65.096 41.59 65.0545 41.6072 65.0112 41.6072ZM62.5776 41.6072H61.3608C61.3175 41.6072 61.276 41.59 61.2454 41.5595C61.2148 41.5289 61.1977 41.4874 61.1977 41.4441C61.1977 41.4008 61.2148 41.3593 61.2454 41.3287C61.276 41.2981 61.3175 41.2809 61.3608 41.2809H62.5776C62.6209 41.2809 62.6624 41.2981 62.693 41.3287C62.7236 41.3593 62.7408 41.4008 62.7408 41.4441C62.7408 41.4874 62.7236 41.5289 62.693 41.5595C62.6624 41.59 62.6209 41.6072 62.5776 41.6072ZM60.1449 41.6072H58.9281C58.8848 41.6072 58.8433 41.59 58.8127 41.5595C58.7821 41.5289 58.7649 41.4874 58.7649 41.4441C58.7649 41.4008 58.7821 41.3593 58.8127 41.3287C58.8433 41.2981 58.8848 41.2809 58.9281 41.2809H60.1474C60.1907 41.2809 60.2322 41.2981 60.2628 41.3287C60.2934 41.3593 60.3106 41.4008 60.3106 41.4441C60.3106 41.4874 60.2934 41.5289 60.2628 41.5595C60.2322 41.59 60.1907 41.6072 60.1474 41.6072H60.1449ZM57.7113 41.6072H56.4936C56.4503 41.6072 56.4088 41.59 56.3782 41.5595C56.3476 41.5289 56.3305 41.4874 56.3305 41.4441C56.3305 41.4008 56.3476 41.3593 56.3782 41.3287C56.4088 41.2981 56.4503 41.2809 56.4936 41.2809H57.7104C57.7537 41.2809 57.7952 41.2981 57.8258 41.3287C57.8564 41.3593 57.8736 41.4008 57.8736 41.4441C57.8736 41.4874 57.8564 41.5289 57.8258 41.5595C57.7952 41.59 57.7537 41.6072 57.7104 41.6072H57.7113ZM55.2785 41.6072H54.0617C54.0184 41.6072 53.9769 41.59 53.9463 41.5595C53.9157 41.5289 53.8986 41.4874 53.8986 41.4441C53.8986 41.4008 53.9157 41.3593 53.9463 41.3287C53.9769 41.2981 54.0184 41.2809 54.0617 41.2809H55.2785C55.3218 41.2809 55.3633 41.2981 55.3939 41.3287C55.4245 41.3593 55.4417 41.4008 55.4417 41.4441C55.4417 41.4874 55.4245 41.5289 55.3939 41.5595C55.3633 41.59 55.3218 41.6072 55.2785 41.6072ZM52.8449 41.6072H51.6281C51.5848 41.6072 51.5433 41.59 51.5127 41.5595C51.4822 41.5289 51.465 41.4874 51.465 41.4441C51.465 41.4008 51.4822 41.3593 51.5127 41.3287C51.5433 41.2981 51.5848 41.2809 51.6281 41.2809H52.8449C52.8882 41.2809 52.9297 41.2981 52.9603 41.3287C52.9909 41.3593 53.0081 41.4008 53.0081 41.4441C53.0081 41.4874 52.9909 41.5289 52.9603 41.5595C52.9297 41.59 52.8882 41.6072 52.8449 41.6072ZM50.4122 41.6072H49.1954C49.1521 41.6072 49.1106 41.59 49.08 41.5595C49.0494 41.5289 49.0322 41.4874 49.0322 41.4441C49.0322 41.4008 49.0494 41.3593 49.08 41.3287C49.1106 41.2981 49.1521 41.2809 49.1954 41.2809H50.4122C50.4554 41.2809 50.4969 41.2981 50.5275 41.3287C50.5581 41.3593 50.5753 41.4008 50.5753 41.4441C50.5753 41.4874 50.5581 41.5289 50.5275 41.5595C50.4969 41.59 50.4554 41.6072 50.4122 41.6072ZM47.9786 41.6072H46.7618C46.7185 41.6072 46.677 41.59 46.6464 41.5595C46.6158 41.5289 46.5986 41.4874 46.5986 41.4441C46.5986 41.4008 46.6158 41.3593 46.6464 41.3287C46.677 41.2981 46.7185 41.2809 46.7618 41.2809H47.9786C48.0218 41.2809 48.0633 41.2981 48.0939 41.3287C48.1245 41.3593 48.1417 41.4008 48.1417 41.4441C48.1417 41.4874 48.1245 41.5289 48.0939 41.5595C48.0633 41.59 48.0218 41.6072 47.9786 41.6072ZM45.545 41.6072H44.329C44.2857 41.6072 44.2442 41.59 44.2136 41.5595C44.1831 41.5289 44.1659 41.4874 44.1659 41.4441C44.1659 41.4008 44.1831 41.3593 44.2136 41.3287C44.2442 41.2981 44.2857 41.2809 44.329 41.2809H45.545C45.5882 41.2809 45.6297 41.2981 45.6603 41.3287C45.6909 41.3593 45.7081 41.4008 45.7081 41.4441C45.7081 41.4874 45.6909 41.5289 45.6603 41.5595C45.6297 41.59 45.5882 41.6072 45.545 41.6072ZM43.1122 41.6072H41.8954C41.8521 41.6072 41.8106 41.59 41.78 41.5595C41.7494 41.5289 41.7323 41.4874 41.7323 41.4441C41.7323 41.4008 41.7494 41.3593 41.78 41.3287C41.8106 41.2981 41.8521 41.2809 41.8954 41.2809H43.1122C43.1555 41.2809 43.197 41.2981 43.2276 41.3287C43.2582 41.3593 43.2754 41.4008 43.2754 41.4441C43.2754 41.4874 43.2582 41.5289 43.2276 41.5595C43.197 41.59 43.1555 41.6072 43.1122 41.6072ZM40.6786 41.6072H39.4627C39.4194 41.6072 39.3779 41.59 39.3473 41.5595C39.3167 41.5289 39.2995 41.4874 39.2995 41.4441C39.2995 41.4008 39.3167 41.3593 39.3473 41.3287C39.3779 41.2981 39.4194 41.2809 39.4627 41.2809H40.6786C40.7219 41.2809 40.7634 41.2981 40.794 41.3287C40.8246 41.3593 40.8418 41.4008 40.8418 41.4441C40.8418 41.4874 40.8246 41.5289 40.794 41.5595C40.7634 41.59 40.7219 41.6072 40.6786 41.6072ZM38.2459 41.6072H37.0291C36.9858 41.6072 36.9443 41.59 36.9137 41.5595C36.8831 41.5289 36.8659 41.4874 36.8659 41.4441C36.8659 41.4008 36.8831 41.3593 36.9137 41.3287C36.9443 41.2981 36.9858 41.2809 37.0291 41.2809H38.2459C38.2891 41.2809 38.3306 41.2981 38.3612 41.3287C38.3918 41.3593 38.409 41.4008 38.409 41.4441C38.409 41.4874 38.3918 41.5289 38.3612 41.5595C38.3306 41.59 38.2891 41.6072 38.2459 41.6072ZM35.8123 41.6072H34.5963C34.553 41.6072 34.5115 41.59 34.4809 41.5595C34.4504 41.5289 34.4332 41.4874 34.4332 41.4441C34.4332 41.4008 34.4504 41.3593 34.4809 41.3287C34.5115 41.2981 34.553 41.2809 34.5963 41.2809H35.8123C35.8555 41.2809 35.897 41.2981 35.9276 41.3287C35.9582 41.3593 35.9754 41.4008 35.9754 41.4441C35.9754 41.4874 35.9582 41.5289 35.9276 41.5595C35.897 41.59 35.8555 41.6072 35.8123 41.6072ZM33.3795 41.6072H33.1807C32.799 41.6083 32.4296 41.473 32.1389 41.2257C32.1216 41.2121 32.1072 41.1951 32.0967 41.1758C32.0861 41.1565 32.0796 41.1352 32.0774 41.1133C32.0753 41.0914 32.0776 41.0693 32.0842 41.0483C32.0909 41.0273 32.1017 41.0079 32.116 40.9912C32.1304 40.9745 32.148 40.9608 32.1677 40.9511C32.1875 40.9414 32.209 40.9358 32.231 40.9346C32.253 40.9334 32.275 40.9367 32.2956 40.9442C32.3163 40.9517 32.3353 40.9634 32.3513 40.9784C32.5829 41.1748 32.877 41.2821 33.1807 41.2809H33.3812C33.4245 41.2809 33.466 41.2981 33.4966 41.3287C33.5272 41.3593 33.5444 41.4008 33.5444 41.4441C33.5444 41.4874 33.5272 41.5289 33.4966 41.5595C33.466 41.59 33.4245 41.6072 33.3812 41.6072H33.3795ZM78.3314 41.3183C78.2973 41.3183 78.264 41.3076 78.2362 41.2877C78.2085 41.2677 78.1877 41.2396 78.1768 41.2072C78.1659 41.1748 78.1654 41.1398 78.1755 41.1071C78.1856 41.0745 78.2056 41.0458 78.2329 41.0252C78.3767 40.9194 78.4938 40.7815 78.5749 40.6225C78.6561 40.4635 78.699 40.2877 78.7002 40.1092C78.7002 40.0659 78.7174 40.0244 78.748 39.9938C78.7786 39.9632 78.8201 39.946 78.8633 39.946C78.9066 39.946 78.9481 39.9632 78.9787 39.9938C79.0093 40.0244 79.0265 40.0659 79.0265 40.1092C79.0255 40.3379 78.9712 40.5633 78.868 40.7674C78.7648 40.9716 78.6154 41.1488 78.4317 41.2852C78.4028 41.307 78.3676 41.3186 78.3314 41.3183ZM31.7803 40.1865C31.7371 40.1865 31.6956 40.1693 31.665 40.1387C31.6344 40.1081 31.6172 40.0666 31.6172 40.0234V38.8074C31.6172 38.7641 31.6344 38.7226 31.665 38.692C31.6956 38.6614 31.7371 38.6443 31.7803 38.6443C31.8236 38.6443 31.8651 38.6614 31.8957 38.692C31.9263 38.7226 31.9435 38.7641 31.9435 38.8074V40.0234C31.9435 40.0666 31.9263 40.1081 31.8957 40.1387C31.8651 40.1693 31.8236 40.1865 31.7803 40.1865ZM78.8625 39.0564C78.8192 39.0564 78.7777 39.0392 78.7471 39.0086C78.7165 38.978 78.6993 38.9365 78.6993 38.8932V37.6764C78.6993 37.6332 78.7165 37.5917 78.7471 37.5611C78.7777 37.5305 78.8192 37.5133 78.8625 37.5133C78.9058 37.5133 78.9473 37.5305 78.9779 37.5611C79.0085 37.5917 79.0257 37.6332 79.0257 37.6764V38.8932C79.0257 38.9365 79.0085 38.978 78.9779 39.0086C78.9473 39.0392 78.9058 39.0564 78.8625 39.0564ZM31.7803 37.7537C31.7371 37.7537 31.6956 37.7366 31.665 37.706C31.6344 37.6754 31.6172 37.6339 31.6172 37.5906V36.3738C31.6172 36.3305 31.6344 36.289 31.665 36.2584C31.6956 36.2278 31.7371 36.2107 31.7803 36.2107C31.8236 36.2107 31.8651 36.2278 31.8957 36.2584C31.9263 36.289 31.9435 36.3305 31.9435 36.3738V37.5906C31.9435 37.6339 31.9263 37.6754 31.8957 37.706C31.8651 37.7366 31.8236 37.7537 31.7803 37.7537ZM78.8625 36.6228C78.8411 36.6229 78.8199 36.6188 78.8001 36.6107C78.7803 36.6026 78.7623 36.5906 78.7472 36.5755C78.732 36.5605 78.72 36.5425 78.7118 36.5228C78.7036 36.503 78.6993 36.4819 78.6993 36.4605V35.2437C78.6993 35.2004 78.7165 35.1589 78.7471 35.1283C78.7777 35.0977 78.8192 35.0805 78.8625 35.0805C78.9058 35.0805 78.9473 35.0977 78.9779 35.1283C79.0085 35.1589 79.0257 35.2004 79.0257 35.2437V36.4605C79.0257 36.4819 79.0214 36.503 79.0132 36.5228C79.005 36.5425 78.993 36.5605 78.9778 36.5755C78.9627 36.5906 78.9447 36.6026 78.9249 36.6107C78.9051 36.6188 78.8839 36.6229 78.8625 36.6228ZM31.7803 35.3201C31.7371 35.3201 31.6956 35.303 31.665 35.2724C31.6344 35.2418 31.6172 35.2003 31.6172 35.157V33.9411C31.6172 33.8978 31.6344 33.8563 31.665 33.8257C31.6956 33.7951 31.7371 33.7779 31.7803 33.7779C31.8236 33.7779 31.8651 33.7951 31.8957 33.8257C31.9263 33.8563 31.9435 33.8978 31.9435 33.9411V35.157C31.9435 35.2003 31.9263 35.2418 31.8957 35.2724C31.8651 35.303 31.8236 35.3201 31.7803 35.3201ZM78.8625 34.19C78.8192 34.19 78.7777 34.1728 78.7471 34.1422C78.7165 34.1116 78.6993 34.0701 78.6993 34.0269V32.8101C78.6993 32.7668 78.7165 32.7253 78.7471 32.6947C78.7777 32.6641 78.8192 32.6469 78.8625 32.6469C78.9058 32.6469 78.9473 32.6641 78.9779 32.6947C79.0085 32.7253 79.0257 32.7668 79.0257 32.8101V34.0269C79.0257 34.0701 79.0085 34.1116 78.9779 34.1422C78.9473 34.1728 78.9058 34.19 78.8625 34.19ZM31.7803 32.8874C31.7371 32.8874 31.6956 32.8702 31.665 32.8396C31.6344 32.809 31.6172 32.7675 31.6172 32.7243V31.5075C31.6172 31.4642 31.6344 31.4227 31.665 31.3921C31.6956 31.3615 31.7371 31.3443 31.7803 31.3443C31.8236 31.3443 31.8651 31.3615 31.8957 31.3921C31.9263 31.4227 31.9435 31.4642 31.9435 31.5075V32.7243C31.9435 32.7675 31.9263 32.809 31.8957 32.8396C31.8651 32.8702 31.8236 32.8874 31.7803 32.8874ZM78.8625 31.7564C78.8411 31.7565 78.8199 31.7524 78.8001 31.7443C78.7803 31.7362 78.7623 31.7243 78.7472 31.7092C78.732 31.6941 78.72 31.6762 78.7118 31.6564C78.7036 31.6367 78.6993 31.6155 78.6993 31.5941V30.3773C78.6993 30.3341 78.7165 30.2926 78.7471 30.262C78.7777 30.2314 78.8192 30.2142 78.8625 30.2142C78.9058 30.2142 78.9473 30.2314 78.9779 30.262C79.0085 30.2926 79.0257 30.3341 79.0257 30.3773V31.5941C79.0257 31.6155 79.0214 31.6367 79.0132 31.6564C79.005 31.6762 78.993 31.6941 78.9778 31.7092C78.9627 31.7243 78.9447 31.7362 78.9249 31.7443C78.9051 31.7524 78.8839 31.7565 78.8625 31.7564ZM31.7803 30.4538C31.7371 30.4538 31.6956 30.4366 31.665 30.406C31.6344 30.3754 31.6172 30.3339 31.6172 30.2907V29.0739C31.6172 29.0306 31.6344 28.9891 31.665 28.9585C31.6956 28.9279 31.7371 28.9107 31.7803 28.9107C31.8236 28.9107 31.8651 28.9279 31.8957 28.9585C31.9263 28.9891 31.9435 29.0306 31.9435 29.0739V30.2907C31.9435 30.3339 31.9263 30.3754 31.8957 30.406C31.8651 30.4366 31.8236 30.4538 31.7803 30.4538ZM78.8625 29.3237C78.8192 29.3237 78.7777 29.3065 78.7471 29.2759C78.7165 29.2453 78.6993 29.2038 78.6993 29.1605V27.9437C78.6993 27.9005 78.7165 27.859 78.7471 27.8284C78.7777 27.7978 78.8192 27.7806 78.8625 27.7806C78.9058 27.7806 78.9473 27.7978 78.9779 27.8284C79.0085 27.859 79.0257 27.9005 79.0257 27.9437V29.1605C79.0257 29.2038 79.0085 29.2453 78.9779 29.2759C78.9473 29.3065 78.9058 29.3237 78.8625 29.3237ZM31.7803 28.0202C31.7589 28.0203 31.7378 28.0162 31.718 28.0081C31.6982 28 31.6802 27.988 31.665 27.973C31.6499 27.9579 31.6378 27.94 31.6296 27.9202C31.6214 27.9005 31.6172 27.8793 31.6172 27.8579V26.6411C31.6172 26.5978 31.6344 26.5563 31.665 26.5257C31.6956 26.4951 31.7371 26.478 31.7803 26.478C31.8236 26.478 31.8651 26.4951 31.8957 26.5257C31.9263 26.5563 31.9435 26.5978 31.9435 26.6411V27.8579C31.9435 27.8793 31.9393 27.9005 31.931 27.9202C31.9228 27.94 31.9108 27.9579 31.8956 27.973C31.8805 27.988 31.8625 28 31.8427 28.0081C31.8229 28.0162 31.8017 28.0203 31.7803 28.0202ZM78.8625 26.8901C78.8194 26.8901 78.778 26.873 78.7474 26.8426C78.7169 26.8122 78.6996 26.7709 78.6993 26.7278V25.5135C78.6993 25.4703 78.7165 25.4288 78.7471 25.3982C78.7777 25.3676 78.8192 25.3504 78.8625 25.3504C78.9058 25.3504 78.9473 25.3676 78.9779 25.3982C79.0085 25.4288 79.0257 25.4703 79.0257 25.5135V26.7303C79.0248 26.773 79.0072 26.8136 78.9767 26.8435C78.9462 26.8734 78.9052 26.8901 78.8625 26.8901ZM31.7803 25.5875C31.7371 25.5875 31.6956 25.5703 31.665 25.5397C31.6344 25.5091 31.6172 25.4676 31.6172 25.4243V24.2075C31.6172 24.1642 31.6344 24.1227 31.665 24.0921C31.6956 24.0615 31.7371 24.0444 31.7803 24.0444C31.8236 24.0444 31.8651 24.0615 31.8957 24.0921C31.9263 24.1227 31.9435 24.1642 31.9435 24.2075V25.4286C31.9424 25.4711 31.9247 25.5115 31.8942 25.5412C31.8637 25.5709 31.8229 25.5875 31.7803 25.5875ZM78.8625 24.4573C78.8192 24.4573 78.7777 24.4401 78.7471 24.4095C78.7165 24.3789 78.6993 24.3374 78.6993 24.2942V23.0774C78.6993 23.0341 78.7165 22.9926 78.7471 22.962C78.7777 22.9314 78.8192 22.9142 78.8625 22.9142C78.9058 22.9142 78.9473 22.9314 78.9779 22.962C79.0085 22.9926 79.0257 23.0341 79.0257 23.0774V24.2942C79.0257 24.3374 79.0085 24.3789 78.9779 24.4095C78.9473 24.4401 78.9058 24.4573 78.8625 24.4573ZM31.7803 23.1538C31.7589 23.154 31.7378 23.1498 31.718 23.1417C31.6982 23.1336 31.6802 23.1217 31.665 23.1066C31.6499 23.0915 31.6378 23.0736 31.6296 23.0539C31.6214 23.0341 31.6172 23.0129 31.6172 22.9916V21.7748C31.6172 21.7315 31.6344 21.69 31.665 21.6594C31.6956 21.6288 31.7371 21.6116 31.7803 21.6116C31.8236 21.6116 31.8651 21.6288 31.8957 21.6594C31.9263 21.69 31.9435 21.7315 31.9435 21.7748V22.9916C31.9435 23.0129 31.9393 23.0341 31.931 23.0539C31.9228 23.0736 31.9108 23.0915 31.8956 23.1066C31.8805 23.1217 31.8625 23.1336 31.8427 23.1417C31.8229 23.1498 31.8017 23.154 31.7803 23.1538ZM78.8625 22.0237C78.8194 22.0237 78.778 22.0066 78.7474 21.9762C78.7169 21.9458 78.6996 21.9045 78.6993 21.8614V20.6446C78.6993 20.6014 78.7165 20.5599 78.7471 20.5293C78.7777 20.4987 78.8192 20.4815 78.8625 20.4815C78.9058 20.4815 78.9473 20.4987 78.9779 20.5293C79.0085 20.5599 79.0257 20.6014 79.0257 20.6446V21.8597C79.0258 21.8812 79.0216 21.9025 79.0135 21.9224C79.0053 21.9423 78.9933 21.9604 78.9782 21.9756C78.963 21.9909 78.945 22.003 78.9251 22.0112C78.9053 22.0195 78.884 22.0237 78.8625 22.0237ZM31.7803 20.7211C31.7371 20.7211 31.6956 20.7039 31.665 20.6733C31.6344 20.6427 31.6172 20.6012 31.6172 20.558V19.3412C31.6172 19.2979 31.6344 19.2564 31.665 19.2258C31.6956 19.1952 31.7371 19.178 31.7803 19.178C31.8236 19.178 31.8651 19.1952 31.8957 19.2258C31.9263 19.2564 31.9435 19.2979 31.9435 19.3412V20.558C31.9435 20.6012 31.9263 20.6427 31.8957 20.6733C31.8651 20.7039 31.8236 20.7211 31.7803 20.7211ZM78.8625 19.591C78.8192 19.591 78.7777 19.5738 78.7471 19.5432C78.7165 19.5126 78.6993 19.4711 78.6993 19.4278V18.211C78.6993 18.1678 78.7165 18.1263 78.7471 18.0957C78.7777 18.0651 78.8192 18.0479 78.8625 18.0479C78.9058 18.0479 78.9473 18.0651 78.9779 18.0957C79.0085 18.1263 79.0257 18.1678 79.0257 18.211V19.4278C79.0257 19.4711 79.0085 19.5126 78.9779 19.5432C78.9473 19.5738 78.9058 19.591 78.8625 19.591ZM31.7803 18.2909C31.7589 18.291 31.7378 18.2869 31.718 18.2788C31.6982 18.2707 31.6802 18.2587 31.665 18.2437C31.6499 18.2286 31.6378 18.2107 31.6296 18.1909C31.6214 18.1712 31.6172 18.15 31.6172 18.1286V16.9084C31.6172 16.8645 31.6341 16.8223 31.6645 16.7906C31.695 16.7589 31.7364 16.7402 31.7803 16.7385C31.8016 16.7381 31.8227 16.742 31.8424 16.7499C31.8621 16.7577 31.8801 16.7694 31.8952 16.7843C31.9104 16.7991 31.9225 16.8169 31.9308 16.8364C31.9391 16.856 31.9434 16.877 31.9435 16.8982V18.121C31.9445 18.143 31.9411 18.165 31.9333 18.1856C31.9256 18.2063 31.9137 18.2251 31.8984 18.241C31.8832 18.2569 31.8648 18.2695 31.8445 18.2781C31.8242 18.2867 31.8024 18.291 31.7803 18.2909ZM78.8625 17.1608C78.8192 17.1608 78.7777 17.1436 78.7471 17.113C78.7165 17.0824 78.6993 17.0409 78.6993 16.9976V16.9127C78.6983 16.7471 78.6615 16.5838 78.5916 16.4338C78.5217 16.2838 78.4202 16.1506 78.294 16.0434C78.2634 16.0146 78.245 15.9751 78.2427 15.9332C78.2404 15.8912 78.2544 15.8499 78.2818 15.818C78.3092 15.7861 78.3479 15.7661 78.3898 15.762C78.4316 15.7579 78.4734 15.7701 78.5065 15.7961C78.6682 15.934 78.7982 16.1051 78.8878 16.2978C78.9774 16.4904 79.0244 16.7002 79.0257 16.9127V16.9976C79.0248 17.0403 79.0072 17.0809 78.9767 17.1108C78.9462 17.1407 78.9052 17.1574 78.8625 17.1574V17.1608ZM32.3148 16.0238C32.2806 16.0238 32.2473 16.0131 32.2196 15.9932C32.1918 15.9732 32.1711 15.9451 32.1602 15.9127C32.1493 15.8803 32.1488 15.8453 32.1589 15.8127C32.169 15.78 32.189 15.7513 32.2162 15.7307C32.4944 15.5222 32.8331 15.4103 33.1807 15.412H33.4662C33.4885 15.4104 33.511 15.4134 33.5321 15.4209C33.5533 15.4283 33.5727 15.4401 33.5891 15.4553C33.6055 15.4706 33.6186 15.4891 33.6275 15.5096C33.6365 15.5302 33.6411 15.5523 33.6411 15.5748C33.6411 15.5972 33.6365 15.6194 33.6275 15.6399C33.6186 15.6605 33.6055 15.6789 33.5891 15.6942C33.5727 15.7095 33.5533 15.7212 33.5321 15.7287C33.511 15.7361 33.4885 15.7391 33.4662 15.7375H33.1781C32.9022 15.7366 32.6336 15.8261 32.4134 15.9924C32.3844 16.0122 32.3498 16.022 32.3148 16.0204V16.0238ZM77.265 15.7375H76.0491C76.0267 15.7391 76.0043 15.7361 75.9831 15.7287C75.962 15.7212 75.9426 15.7095 75.9262 15.6942C75.9098 15.6789 75.8967 15.6605 75.8877 15.6399C75.8788 15.6194 75.8742 15.5972 75.8742 15.5748C75.8742 15.5523 75.8788 15.5302 75.8877 15.5096C75.8967 15.4891 75.9098 15.4706 75.9262 15.4553C75.9426 15.4401 75.962 15.4283 75.9831 15.4209C76.0043 15.4134 76.0267 15.4104 76.0491 15.412H77.265C77.2874 15.4104 77.3098 15.4134 77.331 15.4209C77.3521 15.4283 77.3715 15.4401 77.3879 15.4553C77.4043 15.4706 77.4174 15.4891 77.4264 15.5096C77.4353 15.5302 77.4399 15.5523 77.4399 15.5748C77.4399 15.5972 77.4353 15.6194 77.4264 15.6399C77.4174 15.6605 77.4043 15.6789 77.3879 15.6942C77.3715 15.7095 77.3521 15.7212 77.331 15.7287C77.3098 15.7361 77.2874 15.7391 77.265 15.7375ZM74.8323 15.7375H73.6155C73.5931 15.7391 73.5707 15.7361 73.5495 15.7287C73.5284 15.7212 73.509 15.7095 73.4926 15.6942C73.4762 15.6789 73.4631 15.6605 73.4541 15.6399C73.4452 15.6194 73.4406 15.5972 73.4406 15.5748C73.4406 15.5523 73.4452 15.5302 73.4541 15.5096C73.4631 15.4891 73.4762 15.4706 73.4926 15.4553C73.509 15.4401 73.5284 15.4283 73.5495 15.4209C73.5707 15.4134 73.5931 15.4104 73.6155 15.412H74.8323C74.8546 15.4104 74.8771 15.4134 74.8982 15.4209C74.9194 15.4283 74.9388 15.4401 74.9552 15.4553C74.9716 15.4706 74.9847 15.4891 74.9936 15.5096C75.0026 15.5302 75.0072 15.5523 75.0072 15.5748C75.0072 15.5972 75.0026 15.6194 74.9936 15.6399C74.9847 15.6605 74.9716 15.6789 74.9552 15.6942C74.9388 15.7095 74.9194 15.7212 74.8982 15.7287C74.8771 15.7361 74.8546 15.7391 74.8323 15.7375ZM72.3987 15.7375H71.1827C71.1604 15.7391 71.1379 15.7361 71.1168 15.7287C71.0956 15.7212 71.0762 15.7095 71.0598 15.6942C71.0434 15.6789 71.0303 15.6605 71.0214 15.6399C71.0124 15.6194 71.0078 15.5972 71.0078 15.5748C71.0078 15.5523 71.0124 15.5302 71.0214 15.5096C71.0303 15.4891 71.0434 15.4706 71.0598 15.4553C71.0762 15.4401 71.0956 15.4283 71.1168 15.4209C71.1379 15.4134 71.1604 15.4104 71.1827 15.412H72.3987C72.421 15.4104 72.4435 15.4134 72.4646 15.4209C72.4858 15.4283 72.5052 15.4401 72.5216 15.4553C72.538 15.4706 72.5511 15.4891 72.56 15.5096C72.569 15.5302 72.5736 15.5523 72.5736 15.5748C72.5736 15.5972 72.569 15.6194 72.56 15.6399C72.5511 15.6605 72.538 15.6789 72.5216 15.6942C72.5052 15.7095 72.4858 15.7212 72.4646 15.7287C72.4435 15.7361 72.421 15.7391 72.3987 15.7375ZM69.9659 15.7375H68.7491C68.7268 15.7391 68.7043 15.7361 68.6832 15.7287C68.662 15.7212 68.6427 15.7095 68.6262 15.6942C68.6098 15.6789 68.5967 15.6605 68.5878 15.6399C68.5788 15.6194 68.5742 15.5972 68.5742 15.5748C68.5742 15.5523 68.5788 15.5302 68.5878 15.5096C68.5967 15.4891 68.6098 15.4706 68.6262 15.4553C68.6427 15.4401 68.662 15.4283 68.6832 15.4209C68.7043 15.4134 68.7268 15.4104 68.7491 15.412H69.9659C69.9883 15.4104 70.0107 15.4134 70.0319 15.4209C70.053 15.4283 70.0724 15.4401 70.0888 15.4553C70.1052 15.4706 70.1183 15.4891 70.1273 15.5096C70.1362 15.5302 70.1408 15.5523 70.1408 15.5748C70.1408 15.5972 70.1362 15.6194 70.1273 15.6399C70.1183 15.6605 70.1052 15.6789 70.0888 15.6942C70.0724 15.7095 70.053 15.7212 70.0319 15.7287C70.0107 15.7361 69.9883 15.7391 69.9659 15.7375ZM67.5323 15.7375H66.3164C66.294 15.7391 66.2716 15.7361 66.2504 15.7287C66.2293 15.7212 66.2099 15.7095 66.1935 15.6942C66.1771 15.6789 66.164 15.6605 66.155 15.6399C66.1461 15.6194 66.1415 15.5972 66.1415 15.5748C66.1415 15.5523 66.1461 15.5302 66.155 15.5096C66.164 15.4891 66.1771 15.4706 66.1935 15.4553C66.2099 15.4401 66.2293 15.4283 66.2504 15.4209C66.2716 15.4134 66.294 15.4104 66.3164 15.412H67.5323C67.5547 15.4104 67.5771 15.4134 67.5983 15.4209C67.6194 15.4283 67.6388 15.4401 67.6552 15.4553C67.6716 15.4706 67.6847 15.4891 67.6937 15.5096C67.7026 15.5302 67.7072 15.5523 67.7072 15.5748C67.7072 15.5972 67.7026 15.6194 67.6937 15.6399C67.6847 15.6605 67.6716 15.6789 67.6552 15.6942C67.6388 15.7095 67.6194 15.7212 67.5983 15.7287C67.5771 15.7361 67.5547 15.7391 67.5323 15.7375ZM65.0996 15.7375H63.8862C63.8638 15.7391 63.8414 15.7361 63.8202 15.7287C63.7991 15.7212 63.7797 15.7095 63.7633 15.6942C63.7469 15.6789 63.7338 15.6605 63.7248 15.6399C63.7159 15.6194 63.7113 15.5972 63.7113 15.5748C63.7113 15.5523 63.7159 15.5302 63.7248 15.5096C63.7338 15.4891 63.7469 15.4706 63.7633 15.4553C63.7797 15.4401 63.7991 15.4283 63.8202 15.4209C63.8414 15.4134 63.8638 15.4104 63.8862 15.412H65.103C65.1253 15.4104 65.1478 15.4134 65.1689 15.4209C65.1901 15.4283 65.2095 15.4401 65.2259 15.4553C65.2423 15.4706 65.2554 15.4891 65.2643 15.5096C65.2733 15.5302 65.2779 15.5523 65.2779 15.5748C65.2779 15.5972 65.2733 15.6194 65.2643 15.6399C65.2554 15.6605 65.2423 15.6789 65.2259 15.6942C65.2095 15.7095 65.1901 15.7212 65.1689 15.7287C65.1478 15.7361 65.1253 15.7391 65.103 15.7375H65.0996ZM62.666 15.7375H61.45C61.4277 15.7391 61.4052 15.7361 61.3841 15.7287C61.3629 15.7212 61.3436 15.7095 61.3271 15.6942C61.3107 15.6789 61.2976 15.6605 61.2887 15.6399C61.2797 15.6194 61.2751 15.5972 61.2751 15.5748C61.2751 15.5523 61.2797 15.5302 61.2887 15.5096C61.2976 15.4891 61.3107 15.4706 61.3271 15.4553C61.3436 15.4401 61.3629 15.4283 61.3841 15.4209C61.4052 15.4134 61.4277 15.4104 61.45 15.412H62.666C62.6883 15.4104 62.7108 15.4134 62.7319 15.4209C62.7531 15.4283 62.7725 15.4401 62.7889 15.4553C62.8053 15.4706 62.8184 15.4891 62.8273 15.5096C62.8363 15.5302 62.8409 15.5523 62.8409 15.5748C62.8409 15.5972 62.8363 15.6194 62.8273 15.6399C62.8184 15.6605 62.8053 15.6789 62.7889 15.6942C62.7725 15.7095 62.7531 15.7212 62.7319 15.7287C62.7108 15.7361 62.6883 15.7391 62.666 15.7375ZM60.2332 15.7375H59.0173C58.9949 15.7391 58.9725 15.7361 58.9513 15.7287C58.9302 15.7212 58.9108 15.7095 58.8944 15.6942C58.878 15.6789 58.8649 15.6605 58.8559 15.6399C58.847 15.6194 58.8424 15.5972 58.8424 15.5748C58.8424 15.5523 58.847 15.5302 58.8559 15.5096C58.8649 15.4891 58.878 15.4706 58.8944 15.4553C58.9108 15.4401 58.9302 15.4283 58.9513 15.4209C58.9725 15.4134 58.9949 15.4104 59.0173 15.412H60.2324C60.2547 15.4104 60.2772 15.4134 60.2983 15.4209C60.3195 15.4283 60.3389 15.4401 60.3553 15.4553C60.3717 15.4706 60.3848 15.4891 60.3937 15.5096C60.4027 15.5302 60.4073 15.5523 60.4073 15.5748C60.4073 15.5972 60.4027 15.6194 60.3937 15.6399C60.3848 15.6605 60.3717 15.6789 60.3553 15.6942C60.3389 15.7095 60.3195 15.7212 60.2983 15.7287C60.2772 15.7361 60.2547 15.7391 60.2324 15.7375H60.2332ZM57.7996 15.7375H56.5828C56.5417 15.7345 56.5032 15.7161 56.4751 15.6859C56.4471 15.6557 56.4314 15.616 56.4314 15.5748C56.4314 15.5335 56.4471 15.4938 56.4751 15.4636C56.5032 15.4335 56.5417 15.415 56.5828 15.412H57.7996C57.822 15.4104 57.8444 15.4134 57.8656 15.4209C57.8867 15.4283 57.9061 15.4401 57.9225 15.4553C57.9389 15.4706 57.952 15.4891 57.961 15.5096C57.9699 15.5302 57.9745 15.5523 57.9745 15.5748C57.9745 15.5972 57.9699 15.6194 57.961 15.6399C57.952 15.6605 57.9389 15.6789 57.9225 15.6942C57.9061 15.7095 57.8867 15.7212 57.8656 15.7287C57.8444 15.7361 57.822 15.7391 57.7996 15.7375ZM55.3669 15.7375H54.1509C54.1286 15.7391 54.1061 15.7361 54.085 15.7287C54.0638 15.7212 54.0445 15.7095 54.028 15.6942C54.0116 15.6789 53.9985 15.6605 53.9896 15.6399C53.9806 15.6194 53.976 15.5972 53.976 15.5748C53.976 15.5523 53.9806 15.5302 53.9896 15.5096C53.9985 15.4891 54.0116 15.4706 54.028 15.4553C54.0445 15.4401 54.0638 15.4283 54.085 15.4209C54.1061 15.4134 54.1286 15.4104 54.1509 15.412H55.3677C55.4089 15.415 55.4473 15.4335 55.4754 15.4636C55.5035 15.4938 55.5191 15.5335 55.5191 15.5748C55.5191 15.616 55.5035 15.6557 55.4754 15.6859C55.4473 15.7161 55.4089 15.7345 55.3677 15.7375H55.3669ZM52.9333 15.7375H51.7173C51.6762 15.7345 51.6377 15.7161 51.6096 15.6859C51.5816 15.6557 51.5659 15.616 51.5659 15.5748C51.5659 15.5335 51.5816 15.4938 51.6096 15.4636C51.6377 15.4335 51.6762 15.415 51.7173 15.412H52.9341C52.9565 15.4104 52.9789 15.4134 53.0001 15.4209C53.0212 15.4283 53.0406 15.4401 53.057 15.4553C53.0734 15.4706 53.0865 15.4891 53.0955 15.5096C53.1044 15.5302 53.109 15.5523 53.109 15.5748C53.109 15.5972 53.1044 15.6194 53.0955 15.6399C53.0865 15.6605 53.0734 15.6789 53.057 15.6942C53.0406 15.7095 53.0212 15.7212 53.0001 15.7287C52.9789 15.7361 52.9565 15.7391 52.9341 15.7375H52.9333ZM50.5005 15.7375H49.2846C49.2622 15.7391 49.2398 15.7361 49.2186 15.7287C49.1975 15.7212 49.1781 15.7095 49.1617 15.6942C49.1453 15.6789 49.1322 15.6605 49.1232 15.6399C49.1143 15.6194 49.1097 15.5972 49.1097 15.5748C49.1097 15.5523 49.1143 15.5302 49.1232 15.5096C49.1322 15.4891 49.1453 15.4706 49.1617 15.4553C49.1781 15.4401 49.1975 15.4283 49.2186 15.4209C49.2398 15.4134 49.2622 15.4104 49.2846 15.412H50.5014C50.5425 15.415 50.581 15.4335 50.6091 15.4636C50.6371 15.4938 50.6528 15.5335 50.6528 15.5748C50.6528 15.616 50.6371 15.6557 50.6091 15.6859C50.581 15.7161 50.5425 15.7345 50.5014 15.7375H50.5005ZM48.0669 15.7375H46.851C46.8099 15.7345 46.7714 15.7161 46.7433 15.6859C46.7152 15.6557 46.6996 15.616 46.6996 15.5748C46.6996 15.5335 46.7152 15.4938 46.7433 15.4636C46.7714 15.4335 46.8099 15.415 46.851 15.412H48.0678C48.0901 15.4104 48.1126 15.4134 48.1337 15.4209C48.1549 15.4283 48.1743 15.4401 48.1907 15.4553C48.2071 15.4706 48.2202 15.4891 48.2291 15.5096C48.2381 15.5302 48.2427 15.5523 48.2427 15.5748C48.2427 15.5972 48.2381 15.6194 48.2291 15.6399C48.2202 15.6605 48.2071 15.6789 48.1907 15.6942C48.1743 15.7095 48.1549 15.7212 48.1337 15.7287C48.1126 15.7361 48.0901 15.7391 48.0678 15.7375H48.0669ZM45.6342 15.7375H44.4182C44.3959 15.7391 44.3734 15.7361 44.3523 15.7287C44.3311 15.7212 44.3117 15.7095 44.2953 15.6942C44.2789 15.6789 44.2658 15.6605 44.2569 15.6399C44.2479 15.6194 44.2433 15.5972 44.2433 15.5748C44.2433 15.5523 44.2479 15.5302 44.2569 15.5096C44.2658 15.4891 44.2789 15.4706 44.2953 15.4553C44.3117 15.4401 44.3311 15.4283 44.3523 15.4209C44.3734 15.4134 44.3959 15.4104 44.4182 15.412H45.635C45.6762 15.415 45.7146 15.4335 45.7427 15.4636C45.7708 15.4938 45.7864 15.5335 45.7864 15.5748C45.7864 15.616 45.7708 15.6557 45.7427 15.6859C45.7146 15.7161 45.6762 15.7345 45.635 15.7375H45.6342ZM43.2006 15.7375H41.9846C41.9435 15.7345 41.905 15.7161 41.8769 15.6859C41.8489 15.6557 41.8332 15.616 41.8332 15.5748C41.8332 15.5335 41.8489 15.4938 41.8769 15.4636C41.905 15.4335 41.9435 15.415 41.9846 15.412H43.2014C43.2238 15.4104 43.2462 15.4134 43.2674 15.4209C43.2885 15.4283 43.3079 15.4401 43.3243 15.4553C43.3407 15.4706 43.3538 15.4891 43.3628 15.5096C43.3717 15.5302 43.3763 15.5523 43.3763 15.5748C43.3763 15.5972 43.3717 15.6194 43.3628 15.6399C43.3538 15.6605 43.3407 15.6789 43.3243 15.6942C43.3079 15.7095 43.2885 15.7212 43.2674 15.7287C43.2462 15.7361 43.2238 15.7391 43.2014 15.7375H43.2006ZM40.7678 15.7375H39.5519C39.5295 15.7391 39.5071 15.7361 39.4859 15.7287C39.4648 15.7212 39.4454 15.7095 39.429 15.6942C39.4126 15.6789 39.3995 15.6605 39.3905 15.6399C39.3816 15.6194 39.377 15.5972 39.377 15.5748C39.377 15.5523 39.3816 15.5302 39.3905 15.5096C39.3995 15.4891 39.4126 15.4706 39.429 15.4553C39.4454 15.4401 39.4648 15.4283 39.4859 15.4209C39.5071 15.4134 39.5295 15.4104 39.5519 15.412H40.7687C40.8098 15.415 40.8483 15.4335 40.8764 15.4636C40.9044 15.4938 40.9201 15.5335 40.9201 15.5748C40.9201 15.616 40.9044 15.6557 40.8764 15.6859C40.8483 15.7161 40.8098 15.7345 40.7687 15.7375H40.7678ZM38.3342 15.7375H37.12C37.0976 15.7391 37.0752 15.7361 37.054 15.7287C37.0329 15.7212 37.0135 15.7095 36.9971 15.6942C36.9807 15.6789 36.9676 15.6605 36.9586 15.6399C36.9497 15.6194 36.9451 15.5972 36.9451 15.5748C36.9451 15.5523 36.9497 15.5302 36.9586 15.5096C36.9676 15.4891 36.9807 15.4706 36.9971 15.4553C37.0135 15.4401 37.0329 15.4283 37.054 15.4209C37.0752 15.4134 37.0976 15.4104 37.12 15.412H38.3351C38.3574 15.4104 38.3799 15.4134 38.401 15.4209C38.4222 15.4283 38.4416 15.4401 38.458 15.4553C38.4744 15.4706 38.4875 15.4891 38.4964 15.5096C38.5054 15.5302 38.51 15.5523 38.51 15.5748C38.51 15.5972 38.5054 15.6194 38.4964 15.6399C38.4875 15.6605 38.4744 15.6789 38.458 15.6942C38.4416 15.7095 38.4222 15.7212 38.401 15.7287C38.3799 15.7361 38.3574 15.7391 38.3351 15.7375H38.3342ZM35.9006 15.7375H34.6855C34.6632 15.7391 34.6407 15.7361 34.6196 15.7287C34.5984 15.7212 34.5791 15.7095 34.5626 15.6942C34.5462 15.6789 34.5331 15.6605 34.5242 15.6399C34.5152 15.6194 34.5106 15.5972 34.5106 15.5748C34.5106 15.5523 34.5152 15.5302 34.5242 15.5096C34.5331 15.4891 34.5462 15.4706 34.5626 15.4553C34.5791 15.4401 34.5984 15.4283 34.6196 15.4209C34.6407 15.4134 34.6632 15.4104 34.6855 15.412H35.9015C35.9238 15.4104 35.9463 15.4134 35.9674 15.4209C35.9886 15.4283 36.008 15.4401 36.0244 15.4553C36.0408 15.4706 36.0539 15.4891 36.0628 15.5096C36.0718 15.5302 36.0764 15.5523 36.0764 15.5748C36.0764 15.5972 36.0718 15.6194 36.0628 15.6399C36.0539 15.6605 36.0408 15.6789 36.0244 15.6942C36.008 15.7095 35.9886 15.7212 35.9674 15.7287C35.9463 15.7361 35.9238 15.7391 35.9015 15.7375H35.9006Z" fill="#C0DAFF"/>
<path d="M80.5572 37.6649H37.3064C36.8691 37.6647 36.4499 37.4908 36.1407 37.1816C35.8316 36.8723 35.658 36.4529 35.658 36.0156V11.4706C35.658 11.0333 35.8316 10.6139 36.1407 10.3047C36.4499 9.99538 36.8691 9.82151 37.3064 9.82129H80.5572C80.9946 9.82129 81.4141 9.99506 81.7234 10.3044C82.0327 10.6137 82.2065 11.0332 82.2065 11.4706V36.0122C82.2069 36.2291 82.1646 36.4439 82.0819 36.6444C81.9992 36.8449 81.8778 37.0271 81.7246 37.1807C81.5714 37.3342 81.3895 37.456 81.1891 37.5391C80.9888 37.6222 80.7741 37.6649 80.5572 37.6649Z" fill="#66A2FF"/>
<path d="M82.2067 15.0791H35.6548V19.8834H82.2067V15.0791Z" fill="#0046B3"/>
<path d="M46.3177 32.3203H39.4732C39.2643 32.3203 39.064 32.4033 38.9163 32.551C38.7685 32.6987 38.6855 32.8991 38.6855 33.108C38.6855 33.3169 38.7685 33.5173 38.9163 33.665C39.064 33.8127 39.2643 33.8957 39.4732 33.8957H46.3177C46.5266 33.8957 46.727 33.8127 46.8747 33.665C47.0224 33.5173 47.1054 33.3169 47.1054 33.108C47.1054 32.8991 47.0224 32.6987 46.8747 32.551C46.727 32.4033 46.5266 32.3203 46.3177 32.3203Z" fill="#D1F5FF"/>
<path d="M56.8429 32.3203H49.9984C49.7895 32.3203 49.5891 32.4033 49.4414 32.551C49.2937 32.6987 49.2107 32.8991 49.2107 33.108C49.2107 33.3169 49.2937 33.5173 49.4414 33.665C49.5891 33.8127 49.7895 33.8957 49.9984 33.8957H56.8429C57.0518 33.8957 57.2521 33.8127 57.3999 33.665C57.5476 33.5173 57.6306 33.3169 57.6306 33.108C57.6306 32.8991 57.5476 32.6987 57.3999 32.551C57.2521 32.4033 57.0518 32.3203 56.8429 32.3203Z" fill="#D1F5FF"/>
<path d="M67.3692 32.3203H60.5247C60.3158 32.3203 60.1155 32.4033 59.9678 32.551C59.82 32.6987 59.7371 32.8991 59.7371 33.108C59.7371 33.3169 59.82 33.5173 59.9678 33.665C60.1155 33.8127 60.3158 33.8957 60.5247 33.8957H67.3692C67.5782 33.8957 67.7785 33.8127 67.9262 33.665C68.074 33.5173 68.1569 33.3169 68.1569 33.108C68.1569 32.8991 68.074 32.6987 67.9262 32.551C67.7785 32.4033 67.5782 32.3203 67.3692 32.3203Z" fill="#D1F5FF"/>
<path d="M77.8935 32.3203H71.0482C70.8393 32.3203 70.6389 32.4033 70.4912 32.551C70.3435 32.6987 70.2605 32.8991 70.2605 33.108C70.2605 33.3169 70.3435 33.5173 70.4912 33.665C70.6389 33.8127 70.8393 33.8957 71.0482 33.8957H77.8935C78.1024 33.8957 78.3028 33.8127 78.4505 33.665C78.5982 33.5173 78.6812 33.3169 78.6812 33.108C78.6812 32.8991 78.5982 32.6987 78.4505 32.551C78.3028 32.4033 78.1024 32.3203 77.8935 32.3203Z" fill="#D1F5FF"/>
<path d="M39.158 11.2388C39.0437 11.2387 38.9306 11.2611 38.825 11.3047C38.7195 11.3483 38.6236 11.4123 38.5427 11.4931C38.4619 11.5738 38.3978 11.6697 38.3541 11.7752C38.3104 11.8807 38.2878 11.9938 38.2878 12.108V12.4139C38.2892 12.6437 38.3815 12.8637 38.5445 13.0256C38.7076 13.1875 38.9281 13.2783 39.158 13.2781C39.3885 13.2781 39.6096 13.1865 39.7726 13.0235C39.9356 12.8605 40.0272 12.6394 40.0272 12.4088V12.1029C40.0259 11.8733 39.9337 11.6535 39.7708 11.4916C39.608 11.3296 39.3876 11.2388 39.158 11.2388Z" fill="#D1F5FF"/>
<path d="M41.0278 12.2584C41.0278 12.5289 41.1353 12.7882 41.3265 12.9795C41.5177 13.1707 41.7771 13.2781 42.0475 13.2781H45.6707C45.9411 13.2781 46.2005 13.1707 46.3917 12.9795C46.5829 12.7882 46.6904 12.5289 46.6904 12.2584C46.6904 11.988 46.5829 11.7287 46.3917 11.5374C46.2005 11.3462 45.9411 11.2388 45.6707 11.2388H42.0517C41.9175 11.2382 41.7844 11.2642 41.6602 11.3152C41.536 11.3662 41.4231 11.4412 41.328 11.5359C41.2328 11.6307 41.1574 11.7433 41.1059 11.8673C41.0543 11.9912 41.0278 12.1242 41.0278 12.2584Z" fill="#D1F5FF"/>
<path d="M45.234 22.4683H40.5546C39.8047 22.4683 39.1968 23.0762 39.1968 23.8261V27.8606C39.1968 28.6105 39.8047 29.2184 40.5546 29.2184H45.234C45.984 29.2184 46.5919 28.6105 46.5919 27.8606V23.8261C46.5919 23.0762 45.984 22.4683 45.234 22.4683Z" fill="#FF9F34"/>
<path d="M138.757 34.9759C139.29 32.8828 139.4 30.7043 139.081 28.5682L139.741 28.4696L141.042 28.275H141.059C140.711 25.9174 139.903 23.6513 138.68 21.6055L136.965 22.6252C135.861 20.7684 134.397 19.1507 132.66 17.8668L133.849 16.2583C131.937 14.8343 129.762 13.8017 127.449 13.2197L126.957 15.1613C124.864 14.6276 122.686 14.5176 120.55 14.8375L120.252 12.8594C117.895 13.2109 115.63 14.0191 113.583 15.2386L114.602 16.9533C112.746 18.0582 111.128 19.5218 109.844 21.2589L108.235 20.0693C106.811 21.9822 105.779 24.1574 105.197 26.4702L107.138 26.9622C106.605 29.0549 106.495 31.2332 106.815 33.3691L105.415 33.5781L104.844 33.6682H104.837C105.189 36.0251 105.997 38.2906 107.217 40.3376L108.931 39.318C110.039 41.1745 111.505 42.7921 113.245 44.0764L112.055 45.6841C113.966 47.1089 116.141 48.141 118.453 48.721L118.945 46.7794C121.04 47.3138 123.221 47.4247 125.36 47.1057L125.588 48.6428L125.656 49.083C128.011 48.7314 130.274 47.9232 132.319 46.7037L131.299 44.989C133.156 43.8797 134.775 42.4145 136.063 40.6775L137.671 41.8671C139.09 39.9521 140.119 37.777 140.699 35.4653L138.757 34.9759ZM120.776 39.5542C119.078 39.125 117.547 38.2021 116.374 36.9023C115.201 35.6025 114.44 33.9841 114.187 32.2518C113.934 30.5195 114.201 28.7511 114.953 27.1702C115.705 25.5893 116.909 24.2669 118.412 23.3703C119.916 22.4737 121.652 22.0431 123.4 22.1329C125.148 22.2228 126.831 22.8291 128.235 23.8752C129.639 24.9212 130.701 26.3601 131.287 28.0097C131.873 29.6594 131.956 31.4458 131.527 33.143C131.242 34.27 130.738 35.3298 130.044 36.262C129.349 37.1941 128.478 37.9803 127.479 38.5756C126.481 39.171 125.375 39.5638 124.225 39.7317C123.075 39.8996 121.903 39.8393 120.776 39.5542V39.5542Z" stroke="#B3D1FF" stroke-width="2" stroke-linejoin="round"/>
<path d="M146.388 52.73C145.68 51.8393 144.802 51.0989 143.805 50.5522L143.975 50.2446L144.308 49.6371V49.6286C143.21 49.0242 142.004 48.6411 140.758 48.501L140.64 49.5453C139.51 49.4173 138.366 49.5158 137.275 49.835L136.98 48.8239C135.774 49.1713 134.647 49.7538 133.666 50.5378L134.323 51.3628C133.433 52.0702 132.693 52.9482 132.146 53.9451L131.223 53.4353C130.618 54.5352 130.235 55.7427 130.095 56.9897L131.139 57.1078C131.011 58.2375 131.11 59.3815 131.429 60.4727L130.417 60.7675C130.765 61.9743 131.348 63.1004 132.132 64.0815L132.957 63.4246C133.664 64.3152 134.542 65.0554 135.539 65.6016L135.181 66.255L135.037 66.5227C136.137 67.1259 137.344 67.5089 138.59 67.6503L138.709 66.606C139.84 66.733 140.985 66.6337 142.077 66.3137L142.373 67.3291C143.579 66.9833 144.706 66.4016 145.686 65.6177L145.03 64.7927C145.921 64.0846 146.662 63.2059 147.21 62.2078L147.927 62.6021L148.134 62.7134C148.737 61.6142 149.119 60.4076 149.258 59.1616L148.214 59.0435C148.341 57.912 148.242 56.7667 147.925 55.6735L148.937 55.3786C148.585 54.1747 148 53.0515 147.216 52.0724L146.388 52.73ZM142.577 61.7252C141.857 62.3 140.982 62.6482 140.063 62.7257C139.144 62.8032 138.224 62.6066 137.417 62.1606C136.61 61.7147 135.953 61.0395 135.53 60.2205C135.107 59.4014 134.937 58.4753 135.04 57.5593C135.143 56.6432 135.516 55.7784 136.111 55.0741C136.705 54.3698 137.496 53.8578 138.382 53.6027C139.268 53.3476 140.209 53.361 141.087 53.6411C141.966 53.9212 142.741 54.4555 143.316 55.1764C143.697 55.6549 143.981 56.2038 144.15 56.7919C144.32 57.3799 144.372 57.9956 144.303 58.6037C144.234 59.2118 144.047 59.8005 143.751 60.3361C143.455 60.8717 143.056 61.3437 142.577 61.7252V61.7252Z" stroke="#B3D1FF" stroke-width="2" stroke-linejoin="round"/>
<path d="M68.9648 100.804C68.149 99.7762 67.1362 98.9219 65.9857 98.2911L66.1794 97.936L66.5644 97.2341V97.2247C65.2954 96.5269 63.9019 96.085 62.4628 95.9238L62.3268 97.1287C61.023 96.9814 59.7029 97.0952 58.4436 97.4635L58.1037 96.296C56.7113 96.6972 55.4119 97.3694 54.28 98.2742L55.0379 99.2267C54.0102 100.043 53.1559 101.056 52.5253 102.207L51.4597 101.623C50.7629 102.892 50.3207 104.286 50.158 105.725L51.3629 105.86C51.2155 107.164 51.3293 108.484 51.6977 109.744L50.531 110.084C50.9315 111.476 51.6039 112.776 52.5091 113.907L53.4608 113.149C54.2768 114.176 55.29 115.031 56.4408 115.661L56.027 116.415L55.857 116.724C57.1267 117.42 58.5199 117.862 59.9586 118.025L60.0954 116.82C61.4004 116.966 62.7213 116.85 63.9812 116.48L64.3211 117.647C65.7137 117.248 67.0133 116.576 68.1448 115.671L67.386 114.72C68.4149 113.903 69.2706 112.889 69.9029 111.737L70.7322 112.195L70.9702 112.323C71.6658 111.055 72.1066 109.663 72.2677 108.225L71.0628 108.089C71.2086 106.783 71.0951 105.461 70.7288 104.199L71.8964 103.859C71.4925 102.47 70.8202 101.173 69.9174 100.042L68.9648 100.804ZM64.5675 111.185C63.7361 111.848 62.7266 112.25 61.6667 112.34C60.6069 112.43 59.5442 112.203 58.6131 111.689C57.682 111.174 56.9243 110.396 56.4359 109.451C55.9475 108.506 55.7502 107.437 55.869 106.38C55.9879 105.323 56.4175 104.325 57.1036 103.512C57.7896 102.7 58.7013 102.108 59.7234 101.814C60.7454 101.519 61.8319 101.534 62.8454 101.857C63.8589 102.18 64.7539 102.796 65.4172 103.627C65.8577 104.179 66.1852 104.813 66.3809 105.491C66.5766 106.17 66.6367 106.88 66.5578 107.582C66.4789 108.284 66.2625 108.963 65.921 109.581C65.5795 110.2 65.1196 110.744 64.5675 111.185Z" stroke="#003880" stroke-opacity="0.8" stroke-width="2" stroke-miterlimit="10"/>
<path d="M119.477 31.9325C119.452 31.7543 119.421 31.579 119.385 31.4067C117.972 24.7802 105.534 27.2005 98.7593 27.2483L76.0886 27.408C73.6603 27.4252 71.6918 30.052 71.6895 33.279L71.614 115.804C71.614 119.147 73.6151 121.881 76.0894 121.906L110.459 122.261C111.315 122.27 112.015 122.795 112.646 123.373C112.934 123.636 113.374 123.784 113.763 123.77C117.463 123.635 119.275 121.303 119.96 118.688C120.202 117.915 120.323 117.095 120.316 116.268C120.173 114.821 119.737 33.3326 119.477 31.9325Z" fill="#66A2FF"/>
<path d="M113.352 122.412C113.181 122.438 113.007 122.451 112.834 122.45L71.8675 122.085C69.6708 122.065 67.8762 119.666 67.8762 116.737L68.017 32.6318C68.017 29.8079 69.789 27.503 71.9443 27.4959L112.126 27.2896C112.19 27.2896 112.253 27.2896 112.315 27.2896C112.823 27.3212 113.32 27.4723 113.778 27.7339C114.235 27.9955 114.643 28.3623 114.977 28.8126C115.708 29.7904 116.11 31.0485 116.107 32.3502L116.826 117.206C116.846 119.858 115.356 122.096 113.352 122.412Z" fill="white" stroke="#B3CFEF" stroke-width="2"/>
<path d="M82.1077 27.2422H103.597V28.4047C103.597 29.5092 102.701 30.4047 101.597 30.4047H84.1077C83.0031 30.4047 82.1077 29.5093 82.1077 28.4047V27.2422Z" fill="#B3CFEF"/>
<path d="M138.931 64.1367C132.088 71.4672 121.17 77.474 109.485 80.0332C109.485 80.8145 109.463 85.1378 109.379 105.065C109.26 131.648 134.559 144.639 138.487 146.633C142.293 144.88 167.91 131.91 168.029 105.327C168.118 85.4 168.135 81.0767 168.142 80.2954C156.475 77.6322 145.705 71.5277 138.931 64.1367Z" fill="white"/>
<path d="M138.911 67.056C138.887 67.035 138.853 67.0342 138.83 67.0554C132.283 73.0285 115.247 79.8812 111.846 81.1518C111.504 81.2797 111.259 81.5773 111.202 81.9382C111.194 81.9883 111.19 82.0389 111.19 82.0896V105.06C111.141 115.909 115.451 125.723 124 134.233C129.505 139.709 135.285 143.149 138.335 144.75C138.453 144.812 138.592 144.811 138.71 144.75C138.846 144.68 138.931 144.539 138.931 144.387V67.1015C138.931 67.0842 138.924 67.0676 138.911 67.056Z" fill="#80B2FF"/>
<path d="M138.93 67.0747V144.639C142.046 143.017 147.71 139.666 153.136 134.363C161.76 125.932 166.158 116.156 166.206 105.307L166.313 81.5956C155.621 78.736 145.921 73.5826 138.93 67.0747Z" fill="#4D93FF"/>
<path d="M160.457 90.8398C152.276 92.1019 141.138 99.564 134.107 108.537C133.121 104.306 128.694 100.443 126.38 99.5991L119.366 106.65C123.745 108.624 128.531 114.216 129.166 119.942L136.172 121.028C139.126 115.19 146.757 101.232 161.937 93.726C161.651 92.5828 160.579 91.0033 160.457 90.8398Z" fill="#0046B3"/>
<g filter="url(#filter0_ii_5404_31312)">
<path d="M87.683 65.2832C85.9286 65.2832 84.1741 67.0535 84.1741 68.8237V82.5923C84.1741 84.756 85.9286 86.5262 88.0731 86.5262H96.846C102.305 86.5262 105.619 78.2651 99.0879 74.9212C102.305 70.9874 99.0879 65.2832 94.7015 65.2832H87.683Z" fill="url(#paint0_radial_5404_31312)"/>
</g>
<g opacity="0.15" filter="url(#filter1_f_5404_31312)">
<path d="M88.073 71.8739V81.0964C88.073 81.9275 88.7019 82.3957 89.3609 82.3957H96.3565C98.8279 82.3957 98.8279 78.1487 96.3565 78.1487H92.7768C92.6121 78.1487 92.4473 77.9825 92.4473 77.8163V71.8739C92.4473 69.3806 88.073 69.3806 88.073 71.8739Z" fill="white"/>
</g>
<path d="M88.4629 72.0812V80.4779C88.4629 81.2701 89.2556 81.9038 89.8898 81.9038H96.2315C98.6096 81.9038 98.6096 78.4183 96.2315 78.4184H92.7241C92.3764 78.4184 92.1094 78.182 92.1094 77.8406V72.0812C92.1094 69.7047 88.4629 69.7047 88.4629 72.0812Z" fill="white"/>
<defs>
<filter id="filter0_ii_5404_31312" x="82.8872" y="64.2406" width="20.849" height="24.371" filterUnits="userSpaceOnUse" color-interpolation-filters="sRGB">
<feFlood flood-opacity="0" result="BackgroundImageFix"/>
<feBlend mode="normal" in="SourceGraphic" in2="BackgroundImageFix" result="shape"/>
<feColorMatrix in="SourceAlpha" type="matrix" values="0 0 0 0 0 0 0 0 0 0 0 0 0 0 0 0 0 0 127 0" result="hardAlpha"/>
<feOffset dx="-1.28687" dy="2.0852"/>
<feGaussianBlur stdDeviation="1.42985"/>
<feComposite in2="hardAlpha" operator="arithmetic" k2="-1" k3="1"/>
<feColorMatrix type="matrix" values="0 0 0 0 1 0 0 0 0 1 0 0 0 0 1 0 0 0 0.35 0"/>
<feBlend mode="normal" in2="shape" result="effect1_innerShadow_5404_31312"/>
<feColorMatrix in="SourceAlpha" type="matrix" values="0 0 0 0 0 0 0 0 0 0 0 0 0 0 0 0 0 0 127 0" result="hardAlpha"/>
<feOffset dx="1.0426" dy="-1.0426"/>
<feGaussianBlur stdDeviation="1.07239"/>
<feComposite in2="hardAlpha" operator="arithmetic" k2="-1" k3="1"/>
<feColorMatrix type="matrix" values="0 0 0 0 0 0 0 0 0 0.225 0 0 0 0 0.5625 0 0 0 0.2 0"/>
<feBlend mode="normal" in2="effect1_innerShadow_5404_31312" result="effect2_innerShadow_5404_31312"/>
</filter>
<filter id="filter1_f_5404_31312" x="84.4239" y="66.3548" width="17.4352" height="19.6898" filterUnits="userSpaceOnUse" color-interpolation-filters="sRGB">
<feFlood flood-opacity="0" result="BackgroundImageFix"/>
<feBlend mode="normal" in="SourceGraphic" in2="BackgroundImageFix" result="shape"/>
<feGaussianBlur stdDeviation="1.82455" result="effect1_foregroundBlur_5404_31312"/>
</filter>
<radialGradient id="paint0_radial_5404_31312" cx="0" cy="0" r="1" gradientUnits="userSpaceOnUse" gradientTransform="translate(92.3617 77.4783) rotate(84.1827) scale(11.4828 10.0138)">
<stop stop-color="#0B78F3"/>
<stop offset="1" stop-color="#0F7DFF"/>
</radialGradient>
</defs>
</svg>
