<svg width="263" height="302" viewBox="0 0 263 302" fill="none" xmlns="http://www.w3.org/2000/svg">
<path d="M12 0.5H251C257.351 0.5 262.5 5.64873 262.5 12V290C262.5 296.351 257.351 301.5 251 301.5H12C5.64872 301.5 0.5 296.351 0.5 290V12C0.5 5.64872 5.64873 0.5 12 0.5Z" fill="white" stroke="#DCDCDC"/>
<path d="M50.9923 37.186V53.35H52.4683V37.186H50.9923ZM40.1743 38.554V49.444H47.7703V38.554H46.3123V42.82H41.6323V38.554H40.1743ZM41.6323 43.99H46.3123V48.238H41.6323V43.99ZM67.2229 49.03H68.7169V37.204H67.2229V41.398H64.2169V42.658H67.2229V49.03ZM64.5049 45.178C62.3629 45.538 60.5449 45.628 57.5389 45.628V43.036H63.2089V38.32H56.0449V39.508H61.7329V41.902H56.0809V46.834H57.3049C60.4909 46.834 62.3809 46.762 64.6489 46.384L64.5049 45.178ZM59.7709 51.766V48.148H58.2949V52.972H69.2029V51.766H59.7709ZM77.5135 41.164H81.2035V39.976H77.5315V37.474H76.0375V39.976H72.3115V41.164H76.0555V42.406C76.0555 45.232 74.2735 47.95 71.8795 49.084L72.7075 50.2C74.5615 49.3 76.0915 47.464 76.8115 45.214C77.5495 47.338 79.0795 49.084 80.9335 49.93L81.7615 48.778C79.3495 47.734 77.5135 45.106 77.5135 42.406V41.164ZM83.3095 37.168V53.314H84.8035V37.168H83.3095ZM92.8515 41.722C92.8515 40.282 93.8415 39.274 95.1915 39.274C96.5235 39.274 97.5135 40.282 97.5135 41.722C97.5135 43.162 96.5235 44.188 95.1915 44.188C93.8415 44.188 92.8515 43.162 92.8515 41.722ZM98.8635 41.722C98.8635 39.562 97.3155 38.086 95.1915 38.086C93.0495 38.086 91.5195 39.562 91.5195 41.722C91.5195 43.9 93.0495 45.394 95.1915 45.394C97.3155 45.394 98.8635 43.9 98.8635 41.722ZM103.526 51.91H95.8575V49.822H103.526V51.91ZM103.526 48.652H95.8575V46.708H94.3815V53.116H104.984V46.708H103.526V48.652ZM103.562 37.204V40.894H101.51V37.51H100.106V45.88H101.51V42.118H103.562V46.006H104.984V37.204H103.562ZM111.17 48.418C109.874 48.418 109.064 46.78 109.064 44.134C109.064 41.542 109.874 39.904 111.17 39.904C112.43 39.904 113.258 41.542 113.258 44.134C113.258 46.78 112.43 48.418 111.17 48.418ZM116.624 43.468H114.59C114.41 40.426 113.114 38.536 111.17 38.536C109.064 38.536 107.714 40.696 107.714 44.134C107.714 47.626 109.064 49.786 111.17 49.786C113.15 49.786 114.464 47.842 114.59 44.674H116.624V52.54H118.028V37.546H116.624V43.468ZM119.828 37.186V53.332H121.232V37.186H119.828ZM129.327 38.572H127.851V41.47C127.851 44.458 126.015 47.572 123.675 48.742L124.575 49.912C126.393 48.94 127.887 46.906 128.589 44.512C129.327 46.78 130.803 48.706 132.639 49.624L133.503 48.454C131.163 47.338 129.327 44.404 129.327 41.47V38.572ZM135.501 37.186V42.658H131.757V43.864H135.501V53.35H136.977V37.186H135.501ZM144.161 38.932V40.12H150.047C149.777 43.9 147.779 46.978 143.441 49.102L144.251 50.254C149.615 47.608 151.523 43.522 151.523 38.932H144.161ZM155.267 37.204V43.666H151.487V44.872H155.267V53.332H156.743V37.204H155.267ZM161.579 44.62H166.169V38.95H160.103V40.156H164.729V43.414H160.157V49.462H161.219C163.217 49.462 165.035 49.39 167.267 49.012L167.159 47.788C165.107 48.148 163.415 48.22 161.579 48.238V44.62ZM171.911 37.186V43.558H169.625V37.546H168.239V52.504H169.625V44.764H171.911V53.314H173.333V37.186H171.911ZM180.51 48.508C179.052 48.508 177.99 47.464 177.99 46.024C177.99 44.566 179.052 43.522 180.51 43.522C181.986 43.522 183.048 44.566 183.048 46.024C183.048 47.464 181.986 48.508 180.51 48.508ZM180.51 42.298C178.242 42.298 176.604 43.846 176.604 46.024C176.604 48.22 178.242 49.732 180.51 49.732C182.814 49.732 184.452 48.22 184.452 46.024C184.452 43.846 182.814 42.298 180.51 42.298ZM181.23 37.384H179.754V39.778H175.686V40.966H185.208V39.778H181.23V37.384ZM190.86 43.828H188.214V37.204H186.738V53.332H188.214V45.07H190.86V43.828ZM197.658 38.59H196.2V41.488C196.2 44.548 194.238 47.644 191.862 48.778L192.762 49.984C194.652 49.012 196.2 46.996 196.938 44.566C197.712 46.87 199.26 48.778 201.096 49.678L201.978 48.49C199.584 47.41 197.658 44.44 197.658 41.488V38.59ZM203.67 37.186V53.368H205.146V37.186H203.67ZM214.753 44.962H210.289V39.778H214.753V44.962ZM219.901 41.236V43.486H216.193V41.236H219.901ZM216.193 44.692H219.901V48.976H221.395V37.204H219.901V40.03H216.193V38.608H208.831V46.132H216.193V44.692ZM212.485 51.766V47.932H211.009V52.972H221.773V51.766H212.485ZM130.889 69.186V85.368H132.365V69.186H130.889ZM123.851 70.428C121.457 70.428 119.747 72.624 119.747 76.062C119.747 79.5 121.457 81.696 123.851 81.696C126.245 81.696 127.955 79.5 127.955 76.062C127.955 72.624 126.245 70.428 123.851 70.428ZM123.851 71.76C125.417 71.76 126.533 73.452 126.533 76.062C126.533 78.69 125.417 80.382 123.851 80.382C122.267 80.382 121.151 78.69 121.151 76.062C121.151 73.452 122.267 71.76 123.851 71.76ZM139.801 70.914V72.138H145.723C145.381 75.954 143.167 79.05 139.045 81.12L139.855 82.272C145.075 79.662 147.181 75.504 147.181 70.914H139.801ZM153.949 75.738H151.357V69.186H149.881V85.332H151.357V76.962H153.949V75.738ZM168.037 73.686H158.551V69.528H157.075V74.874H168.037V73.686ZM162.385 84.126C159.847 84.126 158.353 83.46 158.353 82.344C158.353 81.192 159.847 80.544 162.385 80.544C164.923 80.544 166.417 81.192 166.417 82.344C166.417 83.46 164.905 84.126 162.385 84.126ZM162.385 79.392C158.947 79.392 156.859 80.454 156.859 82.344C156.859 84.216 158.947 85.278 162.385 85.278C165.823 85.278 167.911 84.216 167.911 82.344C167.911 80.454 165.823 79.392 162.385 79.392ZM155.113 76.746V77.952H169.711V76.746H155.113ZM175.25 80.364C173.99 80.364 173.108 79.338 173.108 77.898C173.108 76.494 173.99 75.468 175.25 75.468C176.492 75.468 177.392 76.494 177.392 77.898C177.392 79.338 176.492 80.364 175.25 80.364ZM175.25 74.226C173.252 74.226 171.794 75.738 171.794 77.898C171.794 80.094 173.252 81.588 175.25 81.588C177.248 81.588 178.706 80.094 178.706 77.898C178.706 75.738 177.248 74.226 175.25 74.226ZM175.97 69.654H174.512V71.94H171.236V73.146H179.246V71.94H175.97V69.654ZM183.512 69.168V75.99H181.442V69.546H180.056V84.54H181.442V77.196H183.512V85.314H184.934V69.168H183.512ZM192.471 78.24C193.137 78.402 193.911 78.492 194.703 78.492C195.513 78.492 196.287 78.402 196.971 78.24V82.038H192.471V78.24ZM194.703 71.364C197.295 71.364 199.167 72.552 199.167 74.352C199.167 76.152 197.295 77.34 194.703 77.34C192.111 77.34 190.257 76.152 190.257 74.352C190.257 72.552 192.111 71.364 194.703 71.364ZM198.447 82.038V77.664C199.779 76.962 200.571 75.81 200.571 74.352C200.571 71.832 198.141 70.212 194.703 70.212C191.283 70.212 188.835 71.832 188.835 74.352C188.835 75.81 189.645 76.98 190.995 77.682V82.038H187.395V83.262H202.065V82.038H198.447ZM204.957 80.022H206.091L206.307 72.39L206.361 70.518H204.687L204.741 72.39L204.957 80.022ZM205.515 84.234C206.181 84.234 206.703 83.73 206.703 82.992C206.703 82.254 206.181 81.714 205.515 81.714C204.867 81.714 204.327 82.254 204.327 82.992C204.327 83.73 204.867 84.234 205.515 84.234Z" fill="#363636"/>
<path d="M63.2305 73.254V75.18H65.8225V81.066H68.1985V68.97H65.8225V73.254H63.2305ZM64.3285 77.07C61.7185 76.188 60.5845 74.154 60.5845 72.192V71.976H63.8065V70.086H54.8965V71.976H58.1545V72.21C58.1545 74.298 56.9665 76.476 54.2485 77.358L55.4365 79.248C57.3805 78.6 58.6765 77.286 59.4145 75.648C60.1165 77.142 61.3585 78.33 63.1765 78.924L64.3285 77.07ZM59.6485 83.37V80.058H57.2725V85.26H68.5765V83.37H59.6485ZM76.581 72.516H79.875V70.554H70.767V72.516H74.205V73.434C74.205 76.17 72.855 79.284 70.137 80.544L71.469 82.434C73.359 81.534 74.691 79.716 75.429 77.556C76.167 79.518 77.463 81.174 79.299 82.02L80.613 80.148C77.895 78.888 76.581 75.954 76.581 73.434V72.516ZM85.887 75.288H83.475V68.97H81.099V85.548H83.475V77.25H85.887V75.288ZM95.2596 73.344H93.6576C93.7476 72.57 93.8016 71.778 93.8016 70.932H87.3576V72.822H91.4436C91.1376 76.062 89.6976 78.456 86.4216 80.454L87.7716 82.11C90.8676 80.274 92.5236 77.97 93.2616 75.234H95.2596V77.484H92.9556V79.392H95.2596V84.828H97.4736V69.33H95.2596V73.344ZM98.6616 68.952V85.548H100.912V68.952H98.6616ZM105.262 73.938C105.262 72.642 106.18 71.886 107.44 71.886C108.682 71.886 109.618 72.642 109.618 73.938C109.618 75.216 108.682 75.99 107.44 75.99C106.18 75.99 105.262 75.216 105.262 73.938ZM111.922 73.938C111.922 71.58 109.978 69.87 107.44 69.87C104.884 69.87 102.94 71.58 102.94 73.938C102.94 76.296 104.884 77.988 107.44 77.988C109.978 77.988 111.922 76.296 111.922 73.938ZM104.812 81.318H113.488V85.566H115.864V79.41H104.812V81.318ZM117.988 73.056V71.13H115.864V68.97H113.488V78.744H115.864V76.656H117.988V74.712H115.864V73.056H117.988Z" fill="#127BF2"/>
<ellipse cx="131" cy="265.646" rx="88" ry="5.9661" fill="#87A0C8"/>
<path d="M89.6164 258.273C89.9087 257.964 91.2861 257.959 91.4119 258.417C91.6155 259.158 91.0304 260.054 90.2655 259.973C90.1534 259.961 90.0587 259.945 89.992 259.926C89.6291 259.819 89.3241 258.582 89.6164 258.273Z" fill="white"/>
<path d="M72.5236 258.633C72.7683 258.373 73.9265 258.368 74.0318 258.753C74.2035 259.381 73.7154 260.128 73.0685 260.06C72.9748 260.05 72.8954 260.038 72.8388 260.022C72.5295 259.937 72.278 258.895 72.5236 258.633Z" fill="white"/>
<path d="M82.3136 182.04C83.8383 182.304 84.8185 183.807 84.4448 185.308L84.1485 186.499L83.9692 187.237C83.7704 188.172 77.5759 187.776 78.0144 186.679L78.384 185.871L79.4371 183.56C79.9391 182.459 81.1208 181.835 82.3136 182.04Z" fill="#F7A58E"/>
<path d="M88.7589 176.642C88.8218 180.946 86.8241 184.447 83.6971 184.432C80.5702 184.417 77.5443 181.764 77.4347 176.587C77.365 173.289 79.9992 170.627 83.1278 170.639C86.2565 170.651 88.7105 173.341 88.7589 176.642Z" fill="#F7A58E"/>
<path d="M82.7069 169.484C83.0452 169.458 83.3856 169.462 83.7222 169.505C85.2151 169.696 89.5398 170.584 89.9679 174.482C90.6596 178.624 87.553 175.579 86.2843 178.358C84.775 181.664 84.8859 186.346 81.2722 185.967C78.9309 185.721 76.5744 184.952 75.1688 183.558C74.621 183.015 74.3082 182.286 74.1548 181.53C73.1459 176.558 75.602 170.031 82.7069 169.484Z" fill="black"/>
<path d="M84.1749 258.229C84.2946 259.138 85.0586 259.837 85.9758 259.837C86.9425 259.837 87.7322 259.065 87.7514 258.098C88.0236 244.378 87.9652 229.69 87.856 218.515C87.8152 214.344 87.6997 212.234 86.9434 209.73C85.4139 204.673 78.2312 206.23 77.7214 210.814C77.5231 213.188 77.3744 217.671 81.1811 231.976C81.7395 234.074 81.6696 236.281 81.5005 238.446C81.0172 244.635 83.2977 251.568 84.1749 258.229Z" fill="#00050D"/>
<path d="M89.5993 260.053C89.5457 260.05 89.4843 260.042 89.4172 260.03C88.473 259.851 86.8843 259.701 85.9336 259.562C84.8127 259.395 83.834 259.698 83.6292 260.812C83.607 260.934 83.5904 261.052 83.5814 261.165C83.5306 261.802 84.1977 262.052 84.8367 262.052H87.7388C89.7826 262.052 91.6329 260.256 89.5993 260.053Z" fill="#00ACF5"/>
<path d="M80.6043 210.683C79.9177 205.446 70.5997 205.984 69.9828 210.557C69.7748 212.851 69.1677 216.216 70.4971 231.413C70.7016 233.75 70.1625 236.085 69.4615 238.324C67.3974 244.919 68.0108 253.09 67.0725 259.354C66.951 260.475 70.1264 260.745 70.3737 259.745C73.7572 246.075 78.4868 230.739 80.2449 219.366C80.8796 215.243 80.9442 213.278 80.6043 210.683Z" fill="#00050D"/>
<path d="M72.0384 259.836C71.1283 259.788 69.9313 259.622 69.021 259.576C68.9662 259.573 68.9104 259.568 68.8536 259.559C67.7322 259.392 66.7529 259.695 66.5483 260.811C66.5261 260.932 66.5095 261.05 66.5006 261.162C66.4498 261.799 67.1169 262.049 67.7559 262.049H70.1947C72.4151 262.049 74.2479 260.057 72.0384 259.836Z" fill="#00ACF5"/>
<path d="M96.6001 183.839C96.4445 183.338 95.9297 183.046 95.4178 183.159C94.934 183.266 94.5942 183.705 94.587 184.201C94.5797 184.698 94.5619 185.273 94.5579 185.895C94.553 186.668 95.2403 187.245 96.0065 187.144C96.7985 187.04 97.3169 186.26 97.095 185.493C96.9195 184.886 96.7521 184.328 96.6001 183.839Z" fill="#F7A58E"/>
<path d="M96.0342 187.142C95.1987 187.252 94.5695 187.957 94.5471 188.799C94.5432 188.946 94.5393 189.089 94.5353 189.227C94.4862 190.948 92.5429 191.964 91.0934 191.034L86.3577 187.997C85.9428 187.731 85.4885 187.478 84.9975 187.521C82.7141 187.72 80.5717 191.745 82.8879 193.999C83.1756 194.279 83.5259 194.482 83.8785 194.674C86.1649 195.917 95.2361 200.665 97.5011 199.027C98.7426 198.126 98.6029 192.335 97.8412 188.396C97.6794 187.559 96.8792 187.031 96.0342 187.142Z" fill="#E5F2FF"/>
<path d="M97.1034 181.26C97.0439 181.191 96.9791 181.128 96.91 181.071C95.756 180.127 94.4767 181.79 94.5738 183.278C94.5833 183.585 94.6815 183.821 94.8342 183.987C95.552 184.77 97.741 182.11 97.1034 181.26Z" fill="#F7A58E"/>
<path d="M95.2558 181.446C95.2498 181.417 95.2438 181.388 95.2377 181.36C94.8833 179.68 94.1856 180.063 94.4393 181.761C94.6372 182.764 95.3281 182.159 95.2558 181.446Z" fill="#F7A58E"/>
<path d="M87.7825 195.071C88.3713 192.204 88.6874 189.377 85.7338 187.593C83.9825 186.538 78.3531 185.785 75.7207 186.658C73.3136 187.734 73.5639 192.093 73.2589 198.993C73.1951 200.437 72.8397 201.852 72.2426 203.169C71.4288 204.964 70.8857 206.223 70.4825 207.847C70.0455 209.608 70.3341 211.58 71.9445 212.416C73.1186 213.026 74.9661 213.55 77.8484 213.552C78.9256 213.552 80.178 213.519 81.4428 213.411C85.5076 213.064 87.1944 209.272 86.3365 205.284C86.154 204.435 85.9882 203.527 85.8664 202.538C85.8664 202.535 87.74 195.399 87.7825 195.071Z" fill="#E5F2FF"/>
<path d="M74.3041 187.233C71.0752 189.698 67.9176 193.583 66.4272 195.646C65.2956 197.212 62.7962 202.364 61.6585 204.753C61.3155 205.474 61.5359 206.332 62.1782 206.805C62.9246 207.356 63.976 207.196 64.5247 206.448L69.4337 199.76C69.9267 199.088 70.5022 198.481 71.1465 197.952L78.2978 192.088C81.1155 189.217 77.454 184.83 74.3041 187.233Z" fill="#E5F2FF"/>
<path d="M60.1068 208.435C60.0363 208.217 60.0994 207.984 60.1994 207.778L60.8455 206.446C61.1466 205.825 62.4688 205.842 63.0667 206.187C63.6304 206.512 63.8249 207.439 63.445 207.967C62.9668 208.632 62.4391 209.346 62.2309 209.554C61.8544 209.93 60.4191 209.402 60.1068 208.435Z" fill="#F7A58E"/>
<path d="M62.6339 208.922C62.6349 208.979 62.6384 209.038 62.628 209.093C62.5536 210.209 61.7494 210.777 61.4383 210.958C61.3984 210.981 61.3602 211.012 61.3143 211.017C62.1802 210.847 62.4393 212.004 61.9941 212.271C60.7195 213.134 58.9045 211.948 58.7516 211.228C58.6966 210.969 58.8481 210.491 59.0649 209.984C59.6215 208.683 60.8523 207.237 62.0762 207.949C62.3988 208.136 62.6253 208.452 62.6339 208.922Z" fill="#F7A58E"/>
<path d="M61.7733 208.8C62.332 208.879 62.6603 209.46 62.4055 209.963C62.0933 210.58 61.5488 210.898 61.3839 210.982C61.3518 210.998 61.3024 211.004 61.2664 211.003C60.8777 210.991 60.6487 210.192 60.7371 209.813C60.7696 209.674 60.7801 209.522 60.7609 209.355C60.7381 209.158 60.793 208.941 60.979 208.87C61.2374 208.771 61.5173 208.764 61.7733 208.8Z" fill="#E6856A"/>
<path d="M62.6461 208.936C62.7409 209.5 62.7677 210.184 62.7368 210.814C62.6906 211.759 61.8215 212.033 61.8686 211.088C61.8848 210.748 61.8363 210.02 61.5032 209.777C60.4785 209.098 60.3136 208.478 60.6892 207.968C61.1905 207.289 62.607 207.979 62.6461 208.936Z" fill="#F7A58E"/>
<path d="M59.474 211.989C60.0306 212.375 61.5023 213.123 61.7351 212.939C61.9679 212.754 60.7945 211.5 60.0297 211.334C59.265 211.169 59.1894 211.792 59.474 211.989Z" fill="#F7A58E"/>
<path d="M54.7142 163.4C54.721 163.315 54.7253 163.224 54.7253 163.136C54.7253 162.24 54.3695 161.382 53.7362 160.748C53.1029 160.115 52.2441 159.759 51.3485 159.759C50.4529 159.759 49.594 160.115 48.9607 160.748C48.3274 161.382 47.9717 162.24 47.9717 163.136C47.9717 163.221 47.9759 163.313 47.9827 163.4H54.7142Z" fill="#80B2FF"/>
<path d="M65.8082 163.4C65.815 163.315 65.8193 163.224 65.8193 163.136C65.8193 162.24 65.4635 161.382 64.8302 160.748C64.1969 160.115 63.338 159.759 62.4425 159.759C61.5469 159.759 60.688 160.115 60.0547 160.748C59.4214 161.382 59.0657 162.24 59.0657 163.136C59.0657 163.221 59.0657 163.313 59.0767 163.4H65.8082Z" fill="#80B2FF"/>
<path d="M68.6799 163.401C68.6897 163.313 68.6948 163.225 68.6952 163.136C68.7011 162.819 68.6438 162.503 68.5265 162.208C68.4091 161.913 68.2342 161.645 68.0118 161.418C67.7895 161.192 67.5242 161.012 67.2315 160.889C66.9388 160.766 66.6245 160.703 66.307 160.703C65.9896 160.703 65.6753 160.766 65.3826 160.889C65.0898 161.012 64.8245 161.192 64.6022 161.418C64.3798 161.645 64.2049 161.913 64.0876 162.208C63.9702 162.503 63.9129 162.819 63.9189 163.136C63.9188 163.225 63.9239 163.313 63.9342 163.401H68.6799Z" fill="#80B2FF"/>
<path d="M61.9216 163.401C62.0107 162.704 61.9503 161.996 61.7445 161.324C61.5386 160.652 61.192 160.032 60.7277 159.504C60.2635 158.977 59.6922 158.555 59.0519 158.265C58.4117 157.976 57.7171 157.826 57.0145 157.826C56.3118 157.826 55.6173 157.976 54.977 158.265C54.3367 158.555 53.7654 158.977 53.3012 159.504C52.8369 160.032 52.4903 160.652 52.2845 161.324C52.0786 161.996 52.0182 162.704 52.1073 163.401H61.9216Z" fill="#80B2FF"/>
<path d="M137.917 124.815C137.924 124.73 137.928 124.639 137.928 124.55C137.928 123.655 137.572 122.796 136.939 122.162C136.306 121.529 135.447 121.173 134.551 121.173C133.656 121.173 132.797 121.529 132.164 122.162C131.53 122.796 131.175 123.655 131.175 124.55C131.175 124.639 131.179 124.728 131.186 124.815H137.917Z" fill="#80B2FF"/>
<path d="M149.013 124.815C149.019 124.73 149.024 124.639 149.024 124.55C149.024 123.655 148.668 122.796 148.035 122.162C147.401 121.529 146.542 121.173 145.647 121.173C144.751 121.173 143.892 121.529 143.259 122.162C142.626 122.796 142.27 123.655 142.27 124.55C142.27 124.639 142.27 124.728 142.281 124.815H149.013Z" fill="#80B2FF"/>
<path d="M145.124 124.816C145.206 124.147 145.151 123.468 144.962 122.821C144.773 122.173 144.453 121.572 144.023 121.053C143.593 120.533 143.061 120.108 142.46 119.801C141.859 119.495 141.202 119.315 140.529 119.272C139.856 119.229 139.182 119.324 138.547 119.552C137.912 119.779 137.33 120.133 136.837 120.594C136.345 121.054 135.951 121.61 135.681 122.228C135.411 122.845 135.27 123.512 135.267 124.186C135.267 124.397 135.28 124.607 135.306 124.816H145.124Z" fill="#80B2FF"/>
<path d="M120.177 160.607H118.961C118.917 160.607 118.876 160.59 118.845 160.559C118.815 160.529 118.798 160.487 118.798 160.444C118.798 160.401 118.815 160.359 118.845 160.329C118.876 160.298 118.917 160.281 118.961 160.281H120.177C120.22 160.281 120.261 160.298 120.292 160.329C120.323 160.359 120.34 160.401 120.34 160.444C120.34 160.487 120.323 160.529 120.292 160.559C120.261 160.59 120.22 160.607 120.177 160.607ZM117.744 160.607H116.527C116.484 160.607 116.442 160.59 116.412 160.559C116.381 160.529 116.364 160.487 116.364 160.444C116.364 160.401 116.381 160.359 116.412 160.329C116.442 160.298 116.484 160.281 116.527 160.281H117.744C117.787 160.281 117.829 160.298 117.859 160.329C117.89 160.359 117.907 160.401 117.907 160.444C117.907 160.487 117.89 160.529 117.859 160.559C117.829 160.59 117.787 160.607 117.744 160.607ZM115.31 160.607H114.094C114.051 160.607 114.01 160.59 113.979 160.559C113.948 160.529 113.931 160.487 113.931 160.444C113.931 160.401 113.948 160.359 113.979 160.329C114.01 160.298 114.051 160.281 114.094 160.281H115.31C115.354 160.281 115.395 160.298 115.426 160.329C115.456 160.359 115.473 160.401 115.473 160.444C115.473 160.487 115.456 160.529 115.426 160.559C115.395 160.59 115.354 160.607 115.31 160.607ZM112.878 160.607H111.661C111.617 160.607 111.576 160.59 111.545 160.559C111.515 160.529 111.498 160.487 111.498 160.444C111.498 160.401 111.515 160.359 111.545 160.329C111.576 160.298 111.617 160.281 111.661 160.281H112.878C112.921 160.281 112.962 160.298 112.993 160.329C113.024 160.359 113.041 160.401 113.041 160.444C113.041 160.487 113.024 160.529 112.993 160.559C112.962 160.59 112.921 160.607 112.878 160.607ZM110.444 160.607H109.227C109.184 160.607 109.142 160.59 109.112 160.559C109.081 160.529 109.064 160.487 109.064 160.444C109.064 160.401 109.081 160.359 109.112 160.329C109.142 160.298 109.184 160.281 109.227 160.281H110.444C110.487 160.281 110.529 160.298 110.559 160.329C110.59 160.359 110.607 160.401 110.607 160.444C110.607 160.487 110.59 160.529 110.559 160.559C110.529 160.59 110.487 160.607 110.444 160.607ZM108.011 160.607H106.794C106.751 160.607 106.71 160.59 106.679 160.559C106.648 160.529 106.631 160.487 106.631 160.444C106.631 160.401 106.648 160.359 106.679 160.329C106.71 160.298 106.751 160.281 106.794 160.281H108.011C108.054 160.281 108.096 160.298 108.127 160.329C108.157 160.359 108.174 160.401 108.174 160.444C108.174 160.487 108.157 160.529 108.127 160.559C108.096 160.59 108.054 160.607 108.011 160.607ZM105.578 160.607H104.361C104.318 160.607 104.276 160.59 104.245 160.559C104.215 160.529 104.198 160.487 104.198 160.444C104.198 160.401 104.215 160.359 104.245 160.329C104.276 160.298 104.318 160.281 104.361 160.281H105.578C105.621 160.281 105.662 160.298 105.693 160.329C105.724 160.359 105.741 160.401 105.741 160.444C105.741 160.487 105.724 160.529 105.693 160.559C105.662 160.59 105.621 160.607 105.578 160.607ZM103.145 160.607H101.928C101.885 160.607 101.843 160.59 101.813 160.559C101.782 160.529 101.765 160.487 101.765 160.444C101.765 160.401 101.782 160.359 101.813 160.329C101.843 160.298 101.885 160.281 101.928 160.281H103.147C103.191 160.281 103.232 160.298 103.263 160.329C103.293 160.359 103.311 160.401 103.311 160.444C103.311 160.487 103.293 160.529 103.263 160.559C103.232 160.59 103.191 160.607 103.147 160.607H103.145ZM100.711 160.607H99.4936C99.4503 160.607 99.4088 160.59 99.3782 160.559C99.3476 160.529 99.3305 160.487 99.3305 160.444C99.3305 160.401 99.3476 160.359 99.3782 160.329C99.4088 160.298 99.4503 160.281 99.4936 160.281H100.71C100.754 160.281 100.795 160.298 100.826 160.329C100.856 160.359 100.874 160.401 100.874 160.444C100.874 160.487 100.856 160.529 100.826 160.559C100.795 160.59 100.754 160.607 100.71 160.607H100.711ZM98.2785 160.607H97.0617C97.0184 160.607 96.9769 160.59 96.9463 160.559C96.9157 160.529 96.8986 160.487 96.8986 160.444C96.8986 160.401 96.9157 160.359 96.9463 160.329C96.9769 160.298 97.0184 160.281 97.0617 160.281H98.2785C98.3218 160.281 98.3633 160.298 98.3939 160.329C98.4245 160.359 98.4417 160.401 98.4417 160.444C98.4417 160.487 98.4245 160.529 98.3939 160.559C98.3633 160.59 98.3218 160.607 98.2785 160.607ZM95.8449 160.607H94.6281C94.5848 160.607 94.5433 160.59 94.5127 160.559C94.4822 160.529 94.465 160.487 94.465 160.444C94.465 160.401 94.4822 160.359 94.5127 160.329C94.5433 160.298 94.5848 160.281 94.6281 160.281H95.8449C95.8882 160.281 95.9297 160.298 95.9603 160.329C95.9909 160.359 96.0081 160.401 96.0081 160.444C96.0081 160.487 95.9909 160.529 95.9603 160.559C95.9297 160.59 95.8882 160.607 95.8449 160.607ZM93.4122 160.607H92.1954C92.1521 160.607 92.1106 160.59 92.08 160.559C92.0494 160.529 92.0322 160.487 92.0322 160.444C92.0322 160.401 92.0494 160.359 92.08 160.329C92.1106 160.298 92.1521 160.281 92.1954 160.281H93.4122C93.4554 160.281 93.4969 160.298 93.5275 160.329C93.5581 160.359 93.5753 160.401 93.5753 160.444C93.5753 160.487 93.5581 160.529 93.5275 160.559C93.4969 160.59 93.4554 160.607 93.4122 160.607ZM90.9786 160.607H89.7618C89.7185 160.607 89.677 160.59 89.6464 160.559C89.6158 160.529 89.5986 160.487 89.5986 160.444C89.5986 160.401 89.6158 160.359 89.6464 160.329C89.677 160.298 89.7185 160.281 89.7618 160.281H90.9786C91.0218 160.281 91.0633 160.298 91.0939 160.329C91.1245 160.359 91.1417 160.401 91.1417 160.444C91.1417 160.487 91.1245 160.529 91.0939 160.559C91.0633 160.59 91.0218 160.607 90.9786 160.607ZM88.545 160.607H87.329C87.2857 160.607 87.2442 160.59 87.2136 160.559C87.1831 160.529 87.1659 160.487 87.1659 160.444C87.1659 160.401 87.1831 160.359 87.2136 160.329C87.2442 160.298 87.2857 160.281 87.329 160.281H88.545C88.5882 160.281 88.6297 160.298 88.6603 160.329C88.6909 160.359 88.7081 160.401 88.7081 160.444C88.7081 160.487 88.6909 160.529 88.6603 160.559C88.6297 160.59 88.5882 160.607 88.545 160.607ZM86.1122 160.607H84.8954C84.8521 160.607 84.8106 160.59 84.78 160.559C84.7494 160.529 84.7323 160.487 84.7323 160.444C84.7323 160.401 84.7494 160.359 84.78 160.329C84.8106 160.298 84.8521 160.281 84.8954 160.281H86.1122C86.1555 160.281 86.197 160.298 86.2276 160.329C86.2582 160.359 86.2754 160.401 86.2754 160.444C86.2754 160.487 86.2582 160.529 86.2276 160.559C86.197 160.59 86.1555 160.607 86.1122 160.607ZM83.6786 160.607H82.4627C82.4194 160.607 82.3779 160.59 82.3473 160.559C82.3167 160.529 82.2995 160.487 82.2995 160.444C82.2995 160.401 82.3167 160.359 82.3473 160.329C82.3779 160.298 82.4194 160.281 82.4627 160.281H83.6786C83.7219 160.281 83.7634 160.298 83.794 160.329C83.8246 160.359 83.8418 160.401 83.8418 160.444C83.8418 160.487 83.8246 160.529 83.794 160.559C83.7634 160.59 83.7219 160.607 83.6786 160.607ZM81.2459 160.607H80.0291C79.9858 160.607 79.9443 160.59 79.9137 160.559C79.8831 160.529 79.8659 160.487 79.8659 160.444C79.8659 160.401 79.8831 160.359 79.9137 160.329C79.9443 160.298 79.9858 160.281 80.0291 160.281H81.2459C81.2891 160.281 81.3306 160.298 81.3612 160.329C81.3918 160.359 81.409 160.401 81.409 160.444C81.409 160.487 81.3918 160.529 81.3612 160.559C81.3306 160.59 81.2891 160.607 81.2459 160.607ZM78.8123 160.607H77.5963C77.553 160.607 77.5115 160.59 77.4809 160.559C77.4504 160.529 77.4332 160.487 77.4332 160.444C77.4332 160.401 77.4504 160.359 77.4809 160.329C77.5115 160.298 77.553 160.281 77.5963 160.281H78.8123C78.8555 160.281 78.897 160.298 78.9276 160.329C78.9582 160.359 78.9754 160.401 78.9754 160.444C78.9754 160.487 78.9582 160.529 78.9276 160.559C78.897 160.59 78.8555 160.607 78.8123 160.607ZM76.3795 160.607H76.1807C75.799 160.608 75.4296 160.473 75.1389 160.226C75.1216 160.212 75.1072 160.195 75.0967 160.176C75.0861 160.156 75.0796 160.135 75.0774 160.113C75.0753 160.091 75.0776 160.069 75.0842 160.048C75.0909 160.027 75.1017 160.008 75.116 159.991C75.1304 159.974 75.148 159.961 75.1677 159.951C75.1875 159.941 75.209 159.936 75.231 159.935C75.253 159.933 75.275 159.937 75.2956 159.944C75.3163 159.952 75.3353 159.963 75.3513 159.978C75.5829 160.175 75.877 160.282 76.1807 160.281H76.3812C76.4245 160.281 76.466 160.298 76.4966 160.329C76.5272 160.359 76.5444 160.401 76.5444 160.444C76.5444 160.487 76.5272 160.529 76.4966 160.559C76.466 160.59 76.4245 160.607 76.3812 160.607H76.3795ZM121.331 160.318C121.297 160.318 121.264 160.308 121.236 160.288C121.208 160.268 121.188 160.24 121.177 160.207C121.166 160.175 121.165 160.14 121.176 160.107C121.186 160.074 121.206 160.046 121.233 160.025C121.377 159.919 121.494 159.782 121.575 159.622C121.656 159.463 121.699 159.288 121.7 159.109C121.7 159.066 121.717 159.024 121.748 158.994C121.779 158.963 121.82 158.946 121.863 158.946C121.907 158.946 121.948 158.963 121.979 158.994C122.009 159.024 122.027 159.066 122.027 159.109C122.026 159.338 121.971 159.563 121.868 159.767C121.765 159.972 121.615 160.149 121.432 160.285C121.403 160.307 121.368 160.319 121.331 160.318ZM74.7803 159.187C74.7371 159.187 74.6956 159.169 74.665 159.139C74.6344 159.108 74.6172 159.067 74.6172 159.023V157.807C74.6172 157.764 74.6344 157.723 74.665 157.692C74.6956 157.661 74.7371 157.644 74.7803 157.644C74.8236 157.644 74.8651 157.661 74.8957 157.692C74.9263 157.723 74.9435 157.764 74.9435 157.807V159.023C74.9435 159.067 74.9263 159.108 74.8957 159.139C74.8651 159.169 74.8236 159.187 74.7803 159.187ZM121.862 158.056C121.819 158.056 121.778 158.039 121.747 158.009C121.717 157.978 121.699 157.936 121.699 157.893V156.676C121.699 156.633 121.717 156.592 121.747 156.561C121.778 156.53 121.819 156.513 121.862 156.513C121.906 156.513 121.947 156.53 121.978 156.561C122.008 156.592 122.026 156.633 122.026 156.676V157.893C122.026 157.936 122.008 157.978 121.978 158.009C121.947 158.039 121.906 158.056 121.862 158.056ZM74.7803 156.754C74.7371 156.754 74.6956 156.737 74.665 156.706C74.6344 156.675 74.6172 156.634 74.6172 156.591V155.374C74.6172 155.331 74.6344 155.289 74.665 155.258C74.6956 155.228 74.7371 155.211 74.7803 155.211C74.8236 155.211 74.8651 155.228 74.8957 155.258C74.9263 155.289 74.9435 155.331 74.9435 155.374V156.591C74.9435 156.634 74.9263 156.675 74.8957 156.706C74.8651 156.737 74.8236 156.754 74.7803 156.754ZM121.862 155.623C121.841 155.623 121.82 155.619 121.8 155.611C121.78 155.603 121.762 155.591 121.747 155.576C121.732 155.56 121.72 155.543 121.712 155.523C121.704 155.503 121.699 155.482 121.699 155.46V154.244C121.699 154.2 121.717 154.159 121.747 154.128C121.778 154.098 121.819 154.081 121.862 154.081C121.906 154.081 121.947 154.098 121.978 154.128C122.008 154.159 122.026 154.2 122.026 154.244V155.46C122.026 155.482 122.021 155.503 122.013 155.523C122.005 155.543 121.993 155.56 121.978 155.576C121.963 155.591 121.945 155.603 121.925 155.611C121.905 155.619 121.884 155.623 121.862 155.623ZM74.7803 154.32C74.7371 154.32 74.6956 154.303 74.665 154.272C74.6344 154.242 74.6172 154.2 74.6172 154.157V152.941C74.6172 152.898 74.6344 152.856 74.665 152.826C74.6956 152.795 74.7371 152.778 74.7803 152.778C74.8236 152.778 74.8651 152.795 74.8957 152.826C74.9263 152.856 74.9435 152.898 74.9435 152.941V154.157C74.9435 154.2 74.9263 154.242 74.8957 154.272C74.8651 154.303 74.8236 154.32 74.7803 154.32ZM121.862 153.19C121.819 153.19 121.778 153.173 121.747 153.142C121.717 153.112 121.699 153.07 121.699 153.027V151.81C121.699 151.767 121.717 151.725 121.747 151.695C121.778 151.664 121.819 151.647 121.862 151.647C121.906 151.647 121.947 151.664 121.978 151.695C122.008 151.725 122.026 151.767 122.026 151.81V153.027C122.026 153.07 122.008 153.112 121.978 153.142C121.947 153.173 121.906 153.19 121.862 153.19ZM74.7803 151.887C74.7371 151.887 74.6956 151.87 74.665 151.84C74.6344 151.809 74.6172 151.768 74.6172 151.724V150.507C74.6172 150.464 74.6344 150.423 74.665 150.392C74.6956 150.361 74.7371 150.344 74.7803 150.344C74.8236 150.344 74.8651 150.361 74.8957 150.392C74.9263 150.423 74.9435 150.464 74.9435 150.507V151.724C74.9435 151.768 74.9263 151.809 74.8957 151.84C74.8651 151.87 74.8236 151.887 74.7803 151.887ZM121.862 150.756C121.841 150.757 121.82 150.752 121.8 150.744C121.78 150.736 121.762 150.724 121.747 150.709C121.732 150.694 121.72 150.676 121.712 150.656C121.704 150.637 121.699 150.616 121.699 150.594V149.377C121.699 149.334 121.717 149.293 121.747 149.262C121.778 149.231 121.819 149.214 121.862 149.214C121.906 149.214 121.947 149.231 121.978 149.262C122.008 149.293 122.026 149.334 122.026 149.377V150.594C122.026 150.616 122.021 150.637 122.013 150.656C122.005 150.676 121.993 150.694 121.978 150.709C121.963 150.724 121.945 150.736 121.925 150.744C121.905 150.752 121.884 150.757 121.862 150.756ZM74.7803 149.454C74.7371 149.454 74.6956 149.437 74.665 149.406C74.6344 149.375 74.6172 149.334 74.6172 149.291V148.074C74.6172 148.031 74.6344 147.989 74.665 147.958C74.6956 147.928 74.7371 147.911 74.7803 147.911C74.8236 147.911 74.8651 147.928 74.8957 147.958C74.9263 147.989 74.9435 148.031 74.9435 148.074V149.291C74.9435 149.334 74.9263 149.375 74.8957 149.406C74.8651 149.437 74.8236 149.454 74.7803 149.454ZM121.862 148.324C121.819 148.324 121.778 148.306 121.747 148.276C121.717 148.245 121.699 148.204 121.699 148.161V146.944C121.699 146.9 121.717 146.859 121.747 146.828C121.778 146.798 121.819 146.781 121.862 146.781C121.906 146.781 121.947 146.798 121.978 146.828C122.008 146.859 122.026 146.9 122.026 146.944V148.161C122.026 148.204 122.008 148.245 121.978 148.276C121.947 148.306 121.906 148.324 121.862 148.324ZM74.7803 147.02C74.7589 147.02 74.7378 147.016 74.718 147.008C74.6982 147 74.6802 146.988 74.665 146.973C74.6499 146.958 74.6378 146.94 74.6296 146.92C74.6214 146.9 74.6172 146.879 74.6172 146.858V145.641C74.6172 145.598 74.6344 145.556 74.665 145.526C74.6956 145.495 74.7371 145.478 74.7803 145.478C74.8236 145.478 74.8651 145.495 74.8957 145.526C74.9263 145.556 74.9435 145.598 74.9435 145.641V146.858C74.9435 146.879 74.9393 146.9 74.931 146.92C74.9228 146.94 74.9108 146.958 74.8956 146.973C74.8805 146.988 74.8625 147 74.8427 147.008C74.8229 147.016 74.8017 147.02 74.7803 147.02ZM121.862 145.89C121.819 145.89 121.778 145.873 121.747 145.843C121.717 145.812 121.7 145.771 121.699 145.728V144.514C121.699 144.47 121.717 144.429 121.747 144.398C121.778 144.368 121.819 144.35 121.862 144.35C121.906 144.35 121.947 144.368 121.978 144.398C122.008 144.429 122.026 144.47 122.026 144.514V145.73C122.025 145.773 122.007 145.814 121.977 145.843C121.946 145.873 121.905 145.89 121.862 145.89ZM74.7803 144.587C74.7371 144.587 74.6956 144.57 74.665 144.54C74.6344 144.509 74.6172 144.468 74.6172 144.424V143.208C74.6172 143.164 74.6344 143.123 74.665 143.092C74.6956 143.062 74.7371 143.044 74.7803 143.044C74.8236 143.044 74.8651 143.062 74.8957 143.092C74.9263 143.123 74.9435 143.164 74.9435 143.208V144.429C74.9424 144.471 74.9247 144.511 74.8942 144.541C74.8637 144.571 74.8229 144.587 74.7803 144.587ZM121.862 143.457C121.819 143.457 121.778 143.44 121.747 143.41C121.717 143.379 121.699 143.337 121.699 143.294V142.077C121.699 142.034 121.717 141.993 121.747 141.962C121.778 141.931 121.819 141.914 121.862 141.914C121.906 141.914 121.947 141.931 121.978 141.962C122.008 141.993 122.026 142.034 122.026 142.077V143.294C122.026 143.337 122.008 143.379 121.978 143.41C121.947 143.44 121.906 143.457 121.862 143.457ZM74.7803 142.154C74.7589 142.154 74.7378 142.15 74.718 142.142C74.6982 142.134 74.6802 142.122 74.665 142.107C74.6499 142.092 74.6378 142.074 74.6296 142.054C74.6214 142.034 74.6172 142.013 74.6172 141.992V140.775C74.6172 140.731 74.6344 140.69 74.665 140.659C74.6956 140.629 74.7371 140.612 74.7803 140.612C74.8236 140.612 74.8651 140.629 74.8957 140.659C74.9263 140.69 74.9435 140.731 74.9435 140.775V141.992C74.9435 142.013 74.9393 142.034 74.931 142.054C74.9228 142.074 74.9108 142.092 74.8956 142.107C74.8805 142.122 74.8625 142.134 74.8427 142.142C74.8229 142.15 74.8017 142.154 74.7803 142.154ZM121.862 141.024C121.819 141.024 121.778 141.007 121.747 140.976C121.717 140.946 121.7 140.905 121.699 140.861V139.645C121.699 139.601 121.717 139.56 121.747 139.529C121.778 139.499 121.819 139.481 121.862 139.481C121.906 139.481 121.947 139.499 121.978 139.529C122.008 139.56 122.026 139.601 122.026 139.645V140.86C122.026 140.881 122.022 140.903 122.013 140.922C122.005 140.942 121.993 140.96 121.978 140.976C121.963 140.991 121.945 141.003 121.925 141.011C121.905 141.019 121.884 141.024 121.862 141.024ZM74.7803 139.721C74.7371 139.721 74.6956 139.704 74.665 139.673C74.6344 139.643 74.6172 139.601 74.6172 139.558V138.341C74.6172 138.298 74.6344 138.256 74.665 138.226C74.6956 138.195 74.7371 138.178 74.7803 138.178C74.8236 138.178 74.8651 138.195 74.8957 138.226C74.9263 138.256 74.9435 138.298 74.9435 138.341V139.558C74.9435 139.601 74.9263 139.643 74.8957 139.673C74.8651 139.704 74.8236 139.721 74.7803 139.721ZM121.862 138.591C121.819 138.591 121.778 138.574 121.747 138.543C121.717 138.513 121.699 138.471 121.699 138.428V137.211C121.699 137.168 121.717 137.126 121.747 137.096C121.778 137.065 121.819 137.048 121.862 137.048C121.906 137.048 121.947 137.065 121.978 137.096C122.008 137.126 122.026 137.168 122.026 137.211V138.428C122.026 138.471 122.008 138.513 121.978 138.543C121.947 138.574 121.906 138.591 121.862 138.591ZM74.7803 137.291C74.7589 137.291 74.7378 137.287 74.718 137.279C74.6982 137.271 74.6802 137.259 74.665 137.244C74.6499 137.229 74.6378 137.211 74.6296 137.191C74.6214 137.171 74.6172 137.15 74.6172 137.129V135.908C74.6172 135.864 74.6341 135.822 74.6645 135.791C74.695 135.759 74.7364 135.74 74.7803 135.738C74.8016 135.738 74.8227 135.742 74.8424 135.75C74.8621 135.758 74.8801 135.769 74.8952 135.784C74.9104 135.799 74.9225 135.817 74.9308 135.836C74.9391 135.856 74.9434 135.877 74.9435 135.898V137.121C74.9445 137.143 74.9411 137.165 74.9333 137.186C74.9256 137.206 74.9137 137.225 74.8984 137.241C74.8832 137.257 74.8648 137.27 74.8445 137.278C74.8242 137.287 74.8024 137.291 74.7803 137.291ZM121.862 136.161C121.819 136.161 121.778 136.144 121.747 136.113C121.717 136.082 121.699 136.041 121.699 135.998V135.913C121.698 135.747 121.662 135.584 121.592 135.434C121.522 135.284 121.42 135.151 121.294 135.043C121.263 135.015 121.245 134.975 121.243 134.933C121.24 134.891 121.254 134.85 121.282 134.818C121.309 134.786 121.348 134.766 121.39 134.762C121.432 134.758 121.473 134.77 121.506 134.796C121.668 134.934 121.798 135.105 121.888 135.298C121.977 135.49 122.024 135.7 122.026 135.913V135.998C122.025 136.04 122.007 136.081 121.977 136.111C121.946 136.141 121.905 136.157 121.862 136.157V136.161ZM75.3148 135.024C75.2806 135.024 75.2473 135.013 75.2196 134.993C75.1918 134.973 75.1711 134.945 75.1602 134.913C75.1493 134.88 75.1488 134.845 75.1589 134.813C75.169 134.78 75.189 134.751 75.2162 134.731C75.4944 134.522 75.8331 134.41 76.1807 134.412H76.4662C76.4885 134.41 76.511 134.413 76.5321 134.421C76.5533 134.428 76.5727 134.44 76.5891 134.455C76.6055 134.471 76.6186 134.489 76.6275 134.51C76.6365 134.53 76.6411 134.552 76.6411 134.575C76.6411 134.597 76.6365 134.619 76.6275 134.64C76.6186 134.66 76.6055 134.679 76.5891 134.694C76.5727 134.709 76.5533 134.721 76.5321 134.729C76.511 134.736 76.4885 134.739 76.4662 134.737H76.1781C75.9022 134.737 75.6336 134.826 75.4134 134.992C75.3844 135.012 75.3498 135.022 75.3148 135.02V135.024ZM120.265 134.737H119.049C119.027 134.739 119.004 134.736 118.983 134.729C118.962 134.721 118.943 134.709 118.926 134.694C118.91 134.679 118.897 134.66 118.888 134.64C118.879 134.619 118.874 134.597 118.874 134.575C118.874 134.552 118.879 134.53 118.888 134.51C118.897 134.489 118.91 134.471 118.926 134.455C118.943 134.44 118.962 134.428 118.983 134.421C119.004 134.413 119.027 134.41 119.049 134.412H120.265C120.287 134.41 120.31 134.413 120.331 134.421C120.352 134.428 120.372 134.44 120.388 134.455C120.404 134.471 120.417 134.489 120.426 134.51C120.435 134.53 120.44 134.552 120.44 134.575C120.44 134.597 120.435 134.619 120.426 134.64C120.417 134.66 120.404 134.679 120.388 134.694C120.372 134.709 120.352 134.721 120.331 134.729C120.31 134.736 120.287 134.739 120.265 134.737ZM117.832 134.737H116.615C116.593 134.739 116.571 134.736 116.55 134.729C116.528 134.721 116.509 134.709 116.493 134.694C116.476 134.679 116.463 134.66 116.454 134.64C116.445 134.619 116.441 134.597 116.441 134.575C116.441 134.552 116.445 134.53 116.454 134.51C116.463 134.489 116.476 134.471 116.493 134.455C116.509 134.44 116.528 134.428 116.55 134.421C116.571 134.413 116.593 134.41 116.615 134.412H117.832C117.855 134.41 117.877 134.413 117.898 134.421C117.919 134.428 117.939 134.44 117.955 134.455C117.972 134.471 117.985 134.489 117.994 134.51C118.003 134.53 118.007 134.552 118.007 134.575C118.007 134.597 118.003 134.619 117.994 134.64C117.985 134.66 117.972 134.679 117.955 134.694C117.939 134.709 117.919 134.721 117.898 134.729C117.877 134.736 117.855 134.739 117.832 134.737ZM115.399 134.737H114.183C114.16 134.739 114.138 134.736 114.117 134.729C114.096 134.721 114.076 134.709 114.06 134.694C114.043 134.679 114.03 134.66 114.021 134.64C114.012 134.619 114.008 134.597 114.008 134.575C114.008 134.552 114.012 134.53 114.021 134.51C114.03 134.489 114.043 134.471 114.06 134.455C114.076 134.44 114.096 134.428 114.117 134.421C114.138 134.413 114.16 134.41 114.183 134.412H115.399C115.421 134.41 115.443 134.413 115.465 134.421C115.486 134.428 115.505 134.44 115.522 134.455C115.538 134.471 115.551 134.489 115.56 134.51C115.569 134.53 115.574 134.552 115.574 134.575C115.574 134.597 115.569 134.619 115.56 134.64C115.551 134.66 115.538 134.679 115.522 134.694C115.505 134.709 115.486 134.721 115.465 134.729C115.443 134.736 115.421 134.739 115.399 134.737ZM112.966 134.737H111.749C111.727 134.739 111.704 134.736 111.683 134.729C111.662 134.721 111.643 134.709 111.626 134.694C111.61 134.679 111.597 134.66 111.588 134.64C111.579 134.619 111.574 134.597 111.574 134.575C111.574 134.552 111.579 134.53 111.588 134.51C111.597 134.489 111.61 134.471 111.626 134.455C111.643 134.44 111.662 134.428 111.683 134.421C111.704 134.413 111.727 134.41 111.749 134.412H112.966C112.988 134.41 113.011 134.413 113.032 134.421C113.053 134.428 113.072 134.44 113.089 134.455C113.105 134.471 113.118 134.489 113.127 134.51C113.136 134.53 113.141 134.552 113.141 134.575C113.141 134.597 113.136 134.619 113.127 134.64C113.118 134.66 113.105 134.679 113.089 134.694C113.072 134.709 113.053 134.721 113.032 134.729C113.011 134.736 112.988 134.739 112.966 134.737ZM110.532 134.737H109.316C109.294 134.739 109.272 134.736 109.25 134.729C109.229 134.721 109.21 134.709 109.193 134.694C109.177 134.679 109.164 134.66 109.155 134.64C109.146 134.619 109.141 134.597 109.141 134.575C109.141 134.552 109.146 134.53 109.155 134.51C109.164 134.489 109.177 134.471 109.193 134.455C109.21 134.44 109.229 134.428 109.25 134.421C109.272 134.413 109.294 134.41 109.316 134.412H110.532C110.555 134.41 110.577 134.413 110.598 134.421C110.619 134.428 110.639 134.44 110.655 134.455C110.672 134.471 110.685 134.489 110.694 134.51C110.703 134.53 110.707 134.552 110.707 134.575C110.707 134.597 110.703 134.619 110.694 134.64C110.685 134.66 110.672 134.679 110.655 134.694C110.639 134.709 110.619 134.721 110.598 134.729C110.577 134.736 110.555 134.739 110.532 134.737ZM108.1 134.737H106.886C106.864 134.739 106.841 134.736 106.82 134.729C106.799 134.721 106.78 134.709 106.763 134.694C106.747 134.679 106.734 134.66 106.725 134.64C106.716 134.619 106.711 134.597 106.711 134.575C106.711 134.552 106.716 134.53 106.725 134.51C106.734 134.489 106.747 134.471 106.763 134.455C106.78 134.44 106.799 134.428 106.82 134.421C106.841 134.413 106.864 134.41 106.886 134.412H108.103C108.125 134.41 108.148 134.413 108.169 134.421C108.19 134.428 108.209 134.44 108.226 134.455C108.242 134.471 108.255 134.489 108.264 134.51C108.273 134.53 108.278 134.552 108.278 134.575C108.278 134.597 108.273 134.619 108.264 134.64C108.255 134.66 108.242 134.679 108.226 134.694C108.209 134.709 108.19 134.721 108.169 134.729C108.148 134.736 108.125 134.739 108.103 134.737H108.1ZM105.666 134.737H104.45C104.428 134.739 104.405 134.736 104.384 134.729C104.363 134.721 104.344 134.709 104.327 134.694C104.311 134.679 104.298 134.66 104.289 134.64C104.28 134.619 104.275 134.597 104.275 134.575C104.275 134.552 104.28 134.53 104.289 134.51C104.298 134.489 104.311 134.471 104.327 134.455C104.344 134.44 104.363 134.428 104.384 134.421C104.405 134.413 104.428 134.41 104.45 134.412H105.666C105.688 134.41 105.711 134.413 105.732 134.421C105.753 134.428 105.772 134.44 105.789 134.455C105.805 134.471 105.818 134.489 105.827 134.51C105.836 134.53 105.841 134.552 105.841 134.575C105.841 134.597 105.836 134.619 105.827 134.64C105.818 134.66 105.805 134.679 105.789 134.694C105.772 134.709 105.753 134.721 105.732 134.729C105.711 134.736 105.688 134.739 105.666 134.737ZM103.233 134.737H102.017C101.995 134.739 101.972 134.736 101.951 134.729C101.93 134.721 101.911 134.709 101.894 134.694C101.878 134.679 101.865 134.66 101.856 134.64C101.847 134.619 101.842 134.597 101.842 134.575C101.842 134.552 101.847 134.53 101.856 134.51C101.865 134.489 101.878 134.471 101.894 134.455C101.911 134.44 101.93 134.428 101.951 134.421C101.972 134.413 101.995 134.41 102.017 134.412H103.232C103.255 134.41 103.277 134.413 103.298 134.421C103.319 134.428 103.339 134.44 103.355 134.455C103.372 134.471 103.385 134.489 103.394 134.51C103.403 134.53 103.407 134.552 103.407 134.575C103.407 134.597 103.403 134.619 103.394 134.64C103.385 134.66 103.372 134.679 103.355 134.694C103.339 134.709 103.319 134.721 103.298 134.729C103.277 134.736 103.255 134.739 103.232 134.737H103.233ZM100.8 134.737H99.5828C99.5417 134.735 99.5032 134.716 99.4751 134.686C99.4471 134.656 99.4314 134.616 99.4314 134.575C99.4314 134.534 99.4471 134.494 99.4751 134.464C99.5032 134.433 99.5417 134.415 99.5828 134.412H100.8C100.822 134.41 100.844 134.413 100.866 134.421C100.887 134.428 100.906 134.44 100.923 134.455C100.939 134.471 100.952 134.489 100.961 134.51C100.97 134.53 100.975 134.552 100.975 134.575C100.975 134.597 100.97 134.619 100.961 134.64C100.952 134.66 100.939 134.679 100.923 134.694C100.906 134.709 100.887 134.721 100.866 134.729C100.844 134.736 100.822 134.739 100.8 134.737ZM98.3669 134.737H97.1509C97.1286 134.739 97.1061 134.736 97.085 134.729C97.0638 134.721 97.0445 134.709 97.028 134.694C97.0116 134.679 96.9985 134.66 96.9896 134.64C96.9806 134.619 96.976 134.597 96.976 134.575C96.976 134.552 96.9806 134.53 96.9896 134.51C96.9985 134.489 97.0116 134.471 97.028 134.455C97.0445 134.44 97.0638 134.428 97.085 134.421C97.1061 134.413 97.1286 134.41 97.1509 134.412H98.3677C98.4089 134.415 98.4473 134.433 98.4754 134.464C98.5035 134.494 98.5191 134.534 98.5191 134.575C98.5191 134.616 98.5035 134.656 98.4754 134.686C98.4473 134.716 98.4089 134.735 98.3677 134.737H98.3669ZM95.9333 134.737H94.7173C94.6762 134.735 94.6377 134.716 94.6096 134.686C94.5816 134.656 94.5659 134.616 94.5659 134.575C94.5659 134.534 94.5816 134.494 94.6096 134.464C94.6377 134.433 94.6762 134.415 94.7173 134.412H95.9341C95.9565 134.41 95.9789 134.413 96.0001 134.421C96.0212 134.428 96.0406 134.44 96.057 134.455C96.0734 134.471 96.0865 134.489 96.0955 134.51C96.1044 134.53 96.109 134.552 96.109 134.575C96.109 134.597 96.1044 134.619 96.0955 134.64C96.0865 134.66 96.0734 134.679 96.057 134.694C96.0406 134.709 96.0212 134.721 96.0001 134.729C95.9789 134.736 95.9565 134.739 95.9341 134.737H95.9333ZM93.5005 134.737H92.2846C92.2622 134.739 92.2398 134.736 92.2186 134.729C92.1975 134.721 92.1781 134.709 92.1617 134.694C92.1453 134.679 92.1322 134.66 92.1232 134.64C92.1143 134.619 92.1097 134.597 92.1097 134.575C92.1097 134.552 92.1143 134.53 92.1232 134.51C92.1322 134.489 92.1453 134.471 92.1617 134.455C92.1781 134.44 92.1975 134.428 92.2186 134.421C92.2398 134.413 92.2622 134.41 92.2846 134.412H93.5014C93.5425 134.415 93.581 134.433 93.6091 134.464C93.6371 134.494 93.6528 134.534 93.6528 134.575C93.6528 134.616 93.6371 134.656 93.6091 134.686C93.581 134.716 93.5425 134.735 93.5014 134.737H93.5005ZM91.0669 134.737H89.851C89.8099 134.735 89.7714 134.716 89.7433 134.686C89.7152 134.656 89.6996 134.616 89.6996 134.575C89.6996 134.534 89.7152 134.494 89.7433 134.464C89.7714 134.433 89.8099 134.415 89.851 134.412H91.0678C91.0901 134.41 91.1126 134.413 91.1337 134.421C91.1549 134.428 91.1743 134.44 91.1907 134.455C91.2071 134.471 91.2202 134.489 91.2291 134.51C91.2381 134.53 91.2427 134.552 91.2427 134.575C91.2427 134.597 91.2381 134.619 91.2291 134.64C91.2202 134.66 91.2071 134.679 91.1907 134.694C91.1743 134.709 91.1549 134.721 91.1337 134.729C91.1126 134.736 91.0901 134.739 91.0678 134.737H91.0669ZM88.6342 134.737H87.4182C87.3959 134.739 87.3734 134.736 87.3523 134.729C87.3311 134.721 87.3117 134.709 87.2953 134.694C87.2789 134.679 87.2658 134.66 87.2569 134.64C87.2479 134.619 87.2433 134.597 87.2433 134.575C87.2433 134.552 87.2479 134.53 87.2569 134.51C87.2658 134.489 87.2789 134.471 87.2953 134.455C87.3117 134.44 87.3311 134.428 87.3523 134.421C87.3734 134.413 87.3959 134.41 87.4182 134.412H88.635C88.6762 134.415 88.7146 134.433 88.7427 134.464C88.7708 134.494 88.7864 134.534 88.7864 134.575C88.7864 134.616 88.7708 134.656 88.7427 134.686C88.7146 134.716 88.6762 134.735 88.635 134.737H88.6342ZM86.2006 134.737H84.9846C84.9435 134.735 84.905 134.716 84.8769 134.686C84.8489 134.656 84.8332 134.616 84.8332 134.575C84.8332 134.534 84.8489 134.494 84.8769 134.464C84.905 134.433 84.9435 134.415 84.9846 134.412H86.2014C86.2238 134.41 86.2462 134.413 86.2674 134.421C86.2885 134.428 86.3079 134.44 86.3243 134.455C86.3407 134.471 86.3538 134.489 86.3628 134.51C86.3717 134.53 86.3763 134.552 86.3763 134.575C86.3763 134.597 86.3717 134.619 86.3628 134.64C86.3538 134.66 86.3407 134.679 86.3243 134.694C86.3079 134.709 86.2885 134.721 86.2674 134.729C86.2462 134.736 86.2238 134.739 86.2014 134.737H86.2006ZM83.7678 134.737H82.5519C82.5295 134.739 82.5071 134.736 82.4859 134.729C82.4648 134.721 82.4454 134.709 82.429 134.694C82.4126 134.679 82.3995 134.66 82.3905 134.64C82.3816 134.619 82.377 134.597 82.377 134.575C82.377 134.552 82.3816 134.53 82.3905 134.51C82.3995 134.489 82.4126 134.471 82.429 134.455C82.4454 134.44 82.4648 134.428 82.4859 134.421C82.5071 134.413 82.5295 134.41 82.5519 134.412H83.7687C83.8098 134.415 83.8483 134.433 83.8764 134.464C83.9044 134.494 83.9201 134.534 83.9201 134.575C83.9201 134.616 83.9044 134.656 83.8764 134.686C83.8483 134.716 83.8098 134.735 83.7687 134.737H83.7678ZM81.3342 134.737H80.12C80.0976 134.739 80.0752 134.736 80.054 134.729C80.0329 134.721 80.0135 134.709 79.9971 134.694C79.9807 134.679 79.9676 134.66 79.9586 134.64C79.9497 134.619 79.9451 134.597 79.9451 134.575C79.9451 134.552 79.9497 134.53 79.9586 134.51C79.9676 134.489 79.9807 134.471 79.9971 134.455C80.0135 134.44 80.0329 134.428 80.054 134.421C80.0752 134.413 80.0976 134.41 80.12 134.412H81.3351C81.3574 134.41 81.3799 134.413 81.401 134.421C81.4222 134.428 81.4416 134.44 81.458 134.455C81.4744 134.471 81.4875 134.489 81.4964 134.51C81.5054 134.53 81.51 134.552 81.51 134.575C81.51 134.597 81.5054 134.619 81.4964 134.64C81.4875 134.66 81.4744 134.679 81.458 134.694C81.4416 134.709 81.4222 134.721 81.401 134.729C81.3799 134.736 81.3574 134.739 81.3351 134.737H81.3342ZM78.9006 134.737H77.6855C77.6632 134.739 77.6407 134.736 77.6196 134.729C77.5984 134.721 77.5791 134.709 77.5626 134.694C77.5462 134.679 77.5331 134.66 77.5242 134.64C77.5152 134.619 77.5106 134.597 77.5106 134.575C77.5106 134.552 77.5152 134.53 77.5242 134.51C77.5331 134.489 77.5462 134.471 77.5626 134.455C77.5791 134.44 77.5984 134.428 77.6196 134.421C77.6407 134.413 77.6632 134.41 77.6855 134.412H78.9015C78.9238 134.41 78.9463 134.413 78.9674 134.421C78.9886 134.428 79.008 134.44 79.0244 134.455C79.0408 134.471 79.0539 134.489 79.0628 134.51C79.0718 134.53 79.0764 134.552 79.0764 134.575C79.0764 134.597 79.0718 134.619 79.0628 134.64C79.0539 134.66 79.0408 134.679 79.0244 134.694C79.008 134.709 78.9886 134.721 78.9674 134.729C78.9463 134.736 78.9238 134.739 78.9015 134.737H78.9006Z" fill="#C0DAFF"/>
<path d="M123.557 156.665H80.3064C79.8691 156.665 79.4499 156.491 79.1407 156.182C78.8316 155.872 78.658 155.453 78.658 155.016V130.471C78.658 130.033 78.8316 129.614 79.1407 129.305C79.4499 128.995 79.8691 128.822 80.3064 128.821H123.557C123.995 128.821 124.414 128.995 124.723 129.304C125.033 129.614 125.207 130.033 125.207 130.471V155.012C125.207 155.229 125.165 155.444 125.082 155.644C124.999 155.845 124.878 156.027 124.725 156.181C124.571 156.334 124.389 156.456 124.189 156.539C123.989 156.622 123.774 156.665 123.557 156.665Z" fill="#66A2FF"/>
<path d="M125.207 134.079H78.6548V138.883H125.207V134.079Z" fill="#0046B3"/>
<path d="M89.3177 151.32H82.4732C82.2643 151.32 82.064 151.403 81.9163 151.551C81.7685 151.699 81.6855 151.899 81.6855 152.108C81.6855 152.317 81.7685 152.517 81.9163 152.665C82.064 152.813 82.2643 152.896 82.4732 152.896H89.3177C89.5266 152.896 89.727 152.813 89.8747 152.665C90.0224 152.517 90.1054 152.317 90.1054 152.108C90.1054 151.899 90.0224 151.699 89.8747 151.551C89.727 151.403 89.5266 151.32 89.3177 151.32Z" fill="#D1F5FF"/>
<path d="M99.8429 151.32H92.9984C92.7895 151.32 92.5891 151.403 92.4414 151.551C92.2937 151.699 92.2107 151.899 92.2107 152.108C92.2107 152.317 92.2937 152.517 92.4414 152.665C92.5891 152.813 92.7895 152.896 92.9984 152.896H99.8429C100.052 152.896 100.252 152.813 100.4 152.665C100.548 152.517 100.631 152.317 100.631 152.108C100.631 151.899 100.548 151.699 100.4 151.551C100.252 151.403 100.052 151.32 99.8429 151.32Z" fill="#D1F5FF"/>
<path d="M110.369 151.32H103.525C103.316 151.32 103.115 151.403 102.968 151.551C102.82 151.699 102.737 151.899 102.737 152.108C102.737 152.317 102.82 152.517 102.968 152.665C103.115 152.813 103.316 152.896 103.525 152.896H110.369C110.578 152.896 110.779 152.813 110.926 152.665C111.074 152.517 111.157 152.317 111.157 152.108C111.157 151.899 111.074 151.699 110.926 151.551C110.779 151.403 110.578 151.32 110.369 151.32Z" fill="#D1F5FF"/>
<path d="M120.894 151.32H114.048C113.839 151.32 113.639 151.403 113.491 151.551C113.343 151.699 113.26 151.899 113.26 152.108C113.26 152.317 113.343 152.517 113.491 152.665C113.639 152.813 113.839 152.896 114.048 152.896H120.894C121.102 152.896 121.303 152.813 121.451 152.665C121.598 152.517 121.681 152.317 121.681 152.108C121.681 151.899 121.598 151.699 121.451 151.551C121.303 151.403 121.102 151.32 120.894 151.32Z" fill="#D1F5FF"/>
<path d="M82.158 130.239C82.0437 130.239 81.9306 130.261 81.825 130.305C81.7195 130.348 81.6236 130.412 81.5427 130.493C81.4619 130.574 81.3978 130.67 81.3541 130.775C81.3104 130.881 81.2878 130.994 81.2878 131.108V131.414C81.2892 131.644 81.3815 131.864 81.5445 132.026C81.7076 132.188 81.9281 132.278 82.158 132.278C82.3885 132.278 82.6096 132.187 82.7726 132.023C82.9356 131.86 83.0272 131.639 83.0272 131.409V131.103C83.0259 130.873 82.9337 130.653 82.7708 130.492C82.608 130.33 82.3876 130.239 82.158 130.239Z" fill="#D1F5FF"/>
<path d="M84.0278 131.258C84.0278 131.529 84.1353 131.788 84.3265 131.979C84.5177 132.171 84.7771 132.278 85.0475 132.278H88.6707C88.9411 132.278 89.2005 132.171 89.3917 131.979C89.5829 131.788 89.6904 131.529 89.6904 131.258C89.6904 130.988 89.5829 130.729 89.3917 130.537C89.2005 130.346 88.9411 130.239 88.6707 130.239H85.0517C84.9175 130.238 84.7844 130.264 84.6602 130.315C84.536 130.366 84.4231 130.441 84.328 130.536C84.2328 130.631 84.1574 130.743 84.1059 130.867C84.0543 130.991 84.0278 131.124 84.0278 131.258Z" fill="#D1F5FF"/>
<path d="M88.234 141.468H83.5546C82.8047 141.468 82.1968 142.076 82.1968 142.826V146.861C82.1968 147.611 82.8047 148.218 83.5546 148.218H88.234C88.984 148.218 89.5919 147.611 89.5919 146.861V142.826C89.5919 142.076 88.984 141.468 88.234 141.468Z" fill="#FF9F34"/>
<path d="M181.757 153.976C182.29 151.883 182.4 149.704 182.081 147.568L182.741 147.47L184.042 147.275H184.059C183.711 144.917 182.903 142.651 181.68 140.606L179.965 141.625C178.861 139.768 177.397 138.151 175.66 136.867L176.849 135.258C174.937 133.834 172.762 132.802 170.449 132.22L169.957 134.161C167.864 133.628 165.686 133.518 163.55 133.838L163.252 131.859C160.895 132.211 158.63 133.019 156.583 134.239L157.602 135.953C155.746 137.058 154.128 138.522 152.844 140.259L151.235 139.069C149.811 140.982 148.779 143.157 148.197 145.47L150.138 145.962C149.605 148.055 149.495 150.233 149.815 152.369L148.415 152.578L147.844 152.668H147.837C148.189 155.025 148.997 157.291 150.217 159.338L151.931 158.318C153.039 160.175 154.505 161.792 156.245 163.076L155.055 164.684C156.966 166.109 159.141 167.141 161.453 167.721L161.945 165.779C164.04 166.314 166.221 166.425 168.36 166.106L168.588 167.643L168.656 168.083C171.011 167.731 173.274 166.923 175.319 165.704L174.299 163.989C176.156 162.88 177.775 161.414 179.063 159.678L180.671 160.867C182.09 158.952 183.119 156.777 183.699 154.465L181.757 153.976ZM163.776 158.554C162.078 158.125 160.547 157.202 159.374 155.902C158.201 154.602 157.44 152.984 157.187 151.252C156.934 149.519 157.201 147.751 157.953 146.17C158.705 144.589 159.909 143.267 161.412 142.37C162.916 141.474 164.652 141.043 166.4 141.133C168.148 141.223 169.831 141.829 171.235 142.875C172.639 143.921 173.701 145.36 174.287 147.01C174.873 148.659 174.956 150.446 174.527 152.143C174.242 153.27 173.738 154.33 173.044 155.262C172.349 156.194 171.478 156.98 170.479 157.576C169.481 158.171 168.375 158.564 167.225 158.732C166.075 158.9 164.903 158.839 163.776 158.554V158.554Z" stroke="#B3D1FF" stroke-width="2" stroke-linejoin="round"/>
<path d="M189.388 171.73C188.68 170.839 187.802 170.099 186.805 169.552L186.975 169.245L187.308 168.637V168.629C186.21 168.024 185.004 167.641 183.758 167.501L183.64 168.545C182.51 168.417 181.366 168.516 180.275 168.835L179.98 167.824C178.774 168.171 177.647 168.754 176.666 169.538L177.323 170.363C176.433 171.07 175.693 171.948 175.146 172.945L174.223 172.435C173.618 173.535 173.235 174.743 173.095 175.99L174.139 176.108C174.011 177.238 174.11 178.381 174.429 179.473L173.417 179.768C173.765 180.974 174.348 182.1 175.132 183.081L175.957 182.425C176.664 183.315 177.542 184.055 178.539 184.602L178.181 185.255L178.037 185.523C179.137 186.126 180.344 186.509 181.59 186.65L181.709 185.606C182.84 185.733 183.985 185.634 185.077 185.314L185.373 186.329C186.579 185.983 187.706 185.402 188.686 184.618L188.03 183.793C188.921 183.085 189.662 182.206 190.21 181.208L190.927 181.602L191.134 181.713C191.737 180.614 192.119 179.408 192.258 178.162L191.214 178.043C191.341 176.912 191.242 175.767 190.925 174.673L191.937 174.379C191.585 173.175 191 172.051 190.216 171.072L189.388 171.73ZM185.577 180.725C184.857 181.3 183.982 181.648 183.063 181.726C182.144 181.803 181.224 181.607 180.417 181.161C179.61 180.715 178.953 180.04 178.53 179.22C178.107 178.401 177.937 177.475 178.04 176.559C178.143 175.643 178.516 174.778 179.111 174.074C179.705 173.37 180.496 172.858 181.382 172.603C182.268 172.348 183.209 172.361 184.087 172.641C184.966 172.921 185.741 173.456 186.316 174.176C186.697 174.655 186.981 175.204 187.15 175.792C187.32 176.38 187.372 176.996 187.303 177.604C187.234 178.212 187.047 178.8 186.751 179.336C186.455 179.872 186.056 180.344 185.577 180.725V180.725Z" stroke="#B3D1FF" stroke-width="2" stroke-linejoin="round"/>
<path d="M111.965 219.804C111.149 218.776 110.136 217.922 108.986 217.291L109.179 216.936L109.564 216.234V216.225C108.295 215.527 106.902 215.085 105.463 214.924L105.327 216.129C104.023 215.981 102.703 216.095 101.444 216.464L101.104 215.296C99.7113 215.697 98.4119 216.369 97.28 217.274L98.0379 218.227C97.0102 219.043 96.1559 220.056 95.5253 221.207L94.4597 220.623C93.7629 221.892 93.3207 223.286 93.158 224.725L94.3629 224.86C94.2155 226.164 94.3293 227.484 94.6977 228.744L93.531 229.084C93.9315 230.476 94.6039 231.776 95.5091 232.907L96.4608 232.149C97.2768 233.176 98.29 234.031 99.4408 234.661L99.027 235.415L98.857 235.724C100.127 236.42 101.52 236.862 102.959 237.025L103.095 235.82C104.4 235.966 105.721 235.85 106.981 235.48L107.321 236.647C108.714 236.248 110.013 235.576 111.145 234.671L110.386 233.72C111.415 232.903 112.271 231.889 112.903 230.737L113.732 231.195L113.97 231.323C114.666 230.055 115.107 228.663 115.268 227.225L114.063 227.089C114.209 225.783 114.095 224.461 113.729 223.199L114.896 222.859C114.493 221.47 113.82 220.173 112.917 219.042L111.965 219.804ZM107.568 230.185C106.736 230.848 105.727 231.25 104.667 231.34C103.607 231.43 102.544 231.203 101.613 230.689C100.682 230.174 99.9243 229.396 99.4359 228.451C98.9475 227.506 98.7502 226.437 98.869 225.38C98.9879 224.323 99.4175 223.325 100.104 222.512C100.79 221.7 101.701 221.108 102.723 220.814C103.745 220.519 104.832 220.534 105.845 220.857C106.859 221.18 107.754 221.796 108.417 222.627C108.858 223.179 109.185 223.813 109.381 224.491C109.577 225.17 109.637 225.88 109.558 226.582C109.479 227.284 109.263 227.963 108.921 228.581C108.58 229.2 108.12 229.744 107.568 230.185Z" stroke="#003880" stroke-opacity="0.8" stroke-width="2" stroke-miterlimit="10"/>
<path d="M162.477 150.932C162.452 150.754 162.421 150.579 162.385 150.407C160.972 143.78 148.534 146.201 141.759 146.248L119.089 146.408C116.66 146.425 114.692 149.052 114.689 152.279L114.614 234.804C114.614 238.147 116.615 240.881 119.089 240.906L153.459 241.261C154.315 241.27 155.015 241.795 155.646 242.373C155.934 242.636 156.374 242.784 156.763 242.77C160.463 242.635 162.275 240.303 162.96 237.688C163.202 236.915 163.323 236.095 163.316 235.268C163.173 233.821 162.737 152.333 162.477 150.932Z" fill="#66A2FF"/>
<path d="M156.352 241.412C156.181 241.438 156.007 241.451 155.834 241.45L114.867 241.085C112.671 241.065 110.876 238.666 110.876 235.737L111.017 151.632C111.017 148.808 112.789 146.503 114.944 146.496L155.126 146.29C155.19 146.29 155.253 146.29 155.315 146.29C155.823 146.321 156.32 146.472 156.778 146.734C157.235 146.996 157.643 147.362 157.977 147.813C158.708 148.79 159.11 150.048 159.107 151.35L159.826 236.206C159.846 238.858 158.356 241.096 156.352 241.412Z" fill="white" stroke="#B3CFEF" stroke-width="2"/>
<path d="M125.108 146.242H146.597V147.405C146.597 148.509 145.701 149.405 144.597 149.405H127.108C126.003 149.405 125.108 148.509 125.108 147.405V146.242Z" fill="#B3CFEF"/>
<path d="M181.931 183.137C175.088 190.467 164.17 196.474 152.485 199.033C152.485 199.814 152.463 204.138 152.379 224.065C152.26 250.648 177.559 263.639 181.487 265.633C185.293 263.88 210.91 250.91 211.029 224.327C211.118 204.4 211.135 200.077 211.142 199.295C199.475 196.632 188.705 190.528 181.931 183.137Z" fill="white"/>
<path d="M181.911 186.056C181.887 186.035 181.853 186.034 181.83 186.055C175.283 192.029 158.247 198.881 154.846 200.152C154.504 200.28 154.259 200.577 154.202 200.938C154.194 200.988 154.19 201.039 154.19 201.09V224.06C154.141 234.909 158.451 244.723 167 253.233C172.505 258.709 178.285 262.149 181.335 263.75C181.453 263.812 181.592 263.811 181.71 263.75C181.846 263.68 181.931 263.539 181.931 263.387V186.102C181.931 186.084 181.924 186.068 181.911 186.056Z" fill="#80B2FF"/>
<path d="M181.93 186.075V263.639C185.046 262.017 190.71 258.666 196.136 253.363C204.76 244.932 209.158 235.156 209.206 224.307L209.313 200.596C198.621 197.736 188.921 192.583 181.93 186.075Z" fill="#4D93FF"/>
<path d="M203.457 209.84C195.276 211.102 184.138 218.564 177.107 227.537C176.121 223.306 171.694 219.443 169.38 218.599L162.366 225.65C166.745 227.624 171.531 233.216 172.166 238.942L179.172 240.028C182.126 234.19 189.757 220.232 204.937 212.726C204.651 211.583 203.579 210.003 203.457 209.84Z" fill="#0046B3"/>
<g filter="url(#filter0_ii_5607_19597)">
<path d="M130.683 184.283C128.929 184.283 127.174 186.053 127.174 187.824V201.592C127.174 203.756 128.929 205.526 131.073 205.526H139.846C145.305 205.526 148.619 197.265 142.088 193.921C145.305 189.987 142.088 184.283 137.702 184.283H130.683Z" fill="url(#paint0_radial_5607_19597)"/>
</g>
<g opacity="0.15" filter="url(#filter1_f_5607_19597)">
<path d="M131.073 190.874V200.096C131.073 200.927 131.702 201.396 132.361 201.396H139.356C141.828 201.396 141.828 197.149 139.356 197.149H135.777C135.612 197.149 135.447 196.982 135.447 196.816V190.874C135.447 188.381 131.073 188.381 131.073 190.874Z" fill="white"/>
</g>
<path d="M131.463 191.081V199.478C131.463 200.27 132.256 200.904 132.89 200.904H139.231C141.61 200.904 141.61 197.418 139.231 197.418H135.724C135.376 197.418 135.109 197.182 135.109 196.841V191.081C135.109 188.705 131.463 188.705 131.463 191.081Z" fill="white"/>
<defs>
<filter id="filter0_ii_5607_19597" x="125.887" y="183.241" width="20.849" height="24.371" filterUnits="userSpaceOnUse" color-interpolation-filters="sRGB">
<feFlood flood-opacity="0" result="BackgroundImageFix"/>
<feBlend mode="normal" in="SourceGraphic" in2="BackgroundImageFix" result="shape"/>
<feColorMatrix in="SourceAlpha" type="matrix" values="0 0 0 0 0 0 0 0 0 0 0 0 0 0 0 0 0 0 127 0" result="hardAlpha"/>
<feOffset dx="-1.28687" dy="2.0852"/>
<feGaussianBlur stdDeviation="1.42985"/>
<feComposite in2="hardAlpha" operator="arithmetic" k2="-1" k3="1"/>
<feColorMatrix type="matrix" values="0 0 0 0 1 0 0 0 0 1 0 0 0 0 1 0 0 0 0.35 0"/>
<feBlend mode="normal" in2="shape" result="effect1_innerShadow_5607_19597"/>
<feColorMatrix in="SourceAlpha" type="matrix" values="0 0 0 0 0 0 0 0 0 0 0 0 0 0 0 0 0 0 127 0" result="hardAlpha"/>
<feOffset dx="1.0426" dy="-1.0426"/>
<feGaussianBlur stdDeviation="1.07239"/>
<feComposite in2="hardAlpha" operator="arithmetic" k2="-1" k3="1"/>
<feColorMatrix type="matrix" values="0 0 0 0 0 0 0 0 0 0.225 0 0 0 0 0.5625 0 0 0 0.2 0"/>
<feBlend mode="normal" in2="effect1_innerShadow_5607_19597" result="effect2_innerShadow_5607_19597"/>
</filter>
<filter id="filter1_f_5607_19597" x="127.424" y="185.355" width="17.4352" height="19.6898" filterUnits="userSpaceOnUse" color-interpolation-filters="sRGB">
<feFlood flood-opacity="0" result="BackgroundImageFix"/>
<feBlend mode="normal" in="SourceGraphic" in2="BackgroundImageFix" result="shape"/>
<feGaussianBlur stdDeviation="1.82455" result="effect1_foregroundBlur_5607_19597"/>
</filter>
<radialGradient id="paint0_radial_5607_19597" cx="0" cy="0" r="1" gradientUnits="userSpaceOnUse" gradientTransform="translate(135.362 196.478) rotate(84.1827) scale(11.4828 10.0138)">
<stop stop-color="#0B78F3"/>
<stop offset="1" stop-color="#0F7DFF"/>
</radialGradient>
</defs>
</svg>
