<svg width="12" height="14" viewBox="0 0 12 14" fill="none" xmlns="http://www.w3.org/2000/svg">
<path fill-rule="evenodd" clip-rule="evenodd" d="M11.3557 2.18222L11.3567 2.18355C11.3565 2.18386 11.3531 2.18178 11.346 2.17731C11.325 2.16414 11.2711 2.13026 11.166 2.07624C11.0152 1.99874 10.8119 1.90578 10.5658 1.80195C10.0751 1.59498 9.44891 1.35939 8.80688 1.13661C8.16528 0.913974 7.51813 0.70769 6.98668 0.5581C6.72047 0.483167 6.48988 0.424329 6.30703 0.384835C6.21565 0.365097 6.14135 0.351319 6.08379 0.342732C6.02732 0.334308 6.00166 0.333145 5.99864 0.333008H5.9986H5.99858C5.99529 0.33316 5.96908 0.334361 5.91297 0.342731C5.8554 0.351319 5.78111 0.365097 5.68972 0.384835C5.50688 0.424328 5.2763 0.483167 5.01009 0.558099C4.47866 0.707688 3.83153 0.913971 3.18999 1.1366C2.54801 1.35939 1.92194 1.59496 1.43136 1.80193C1.18526 1.90576 0.982049 1.9987 0.831411 2.07618C0.726664 2.13006 0.67281 2.16387 0.651829 2.17704L0.651827 2.17704C0.644697 2.18151 0.641364 2.18361 0.64112 2.18329C0.64112 2.18329 0.641554 2.18249 0.64269 2.18132C0.603531 2.22037 0.601581 2.22786 0.594168 2.25634L0.592826 2.26147C0.570089 2.34779 0.550061 2.51749 0.547068 2.91142C0.544751 3.21619 0.551943 3.60948 0.56169 4.14255L0.56169 4.14256L0.5695 4.57677C0.582678 5.33207 0.596628 6.30567 0.596628 7.57065C0.596628 9.75268 1.91521 11.2766 3.35452 12.2968C4.06891 12.8032 4.78811 13.1658 5.33106 13.402C5.6015 13.5196 5.8255 13.6047 5.97969 13.6597L5.99838 13.6663L6.01707 13.6597C6.17125 13.6047 6.39526 13.5196 6.66569 13.402C7.20864 13.1658 7.92784 12.8032 8.64223 12.2968C10.0815 11.2766 11.4001 9.75268 11.4001 7.57065C11.4001 6.30567 11.4141 5.33207 11.4273 4.57676L11.4351 4.13982C11.4449 3.60812 11.4521 3.21563 11.4498 2.91132C11.4468 2.51736 11.4269 2.34753 11.4042 2.26107L11.4028 2.256C11.3955 2.22766 11.3935 2.22005 11.3557 2.18222ZM5.21632 8.33749C5.3093 8.43047 5.43526 8.48257 5.56649 8.48257C5.69772 8.48257 5.82368 8.43047 5.916 8.33749L8.48656 5.76627C8.67978 5.57305 8.67978 5.25981 8.48656 5.06659C8.29334 4.87337 7.98076 4.87337 7.78754 5.06659L5.56649 7.28763L4.66897 6.3888C4.47575 6.19558 4.16185 6.19558 3.96929 6.3888C3.77607 6.58136 3.77607 6.89526 3.96863 7.08848L5.21632 8.33749Z" fill="#127BF2"/>
</svg>
